<svg id="Dada" xmlns="http://www.w3.org/2000/svg" width="300" height="300" viewBox="0 0 300 300">
  <defs>
    <style>
      .cls-1 {
        fill: #575861;
      }

      .cls-1, .cls-2, .cls-3 {
        fill-rule: evenodd;
      }

      .cls-2 {
        fill: #e4e1da;
      }

      .cls-3 {
        fill: #31323d;
      }
    </style>
  </defs>
  <g id="dada-placard-lasmeninas">
    <path id="Rectangle_2_copy" data-name="Rectangle 2 copy" class="cls-1" d="M95,166h40.01v26.019H95V166Z"/>
    <path id="Rectangle_2_copy_2" data-name="Rectangle 2 copy 2" class="cls-2" d="M95.687,166.7h38.626V191.3H95.687V166.7Z"/>
    <path id="dada.nyc" class="cls-3" d="M99.487,185.945l0.057-.083v0.367h0.414v-3.7H99.512v1.4l-0.035-.05a0.89,0.89,0,0,0-.774-0.42,0.981,0.981,0,0,0-.8.372,1.494,1.494,0,0,0-.305.978,1.726,1.726,0,0,0,.315,1.09,1.02,1.02,0,0,0,.848.4h0a0.868,0.868,0,0,0,.722-0.357h0Zm-0.162-1.781a1.6,1.6,0,0,1,.187.849,1.017,1.017,0,0,1-.2.655,0.637,0.637,0,0,1-.523.247,0.611,0.611,0,0,1-.534-0.269,1.331,1.331,0,0,1-.187-0.766,1.346,1.346,0,0,1,.174-0.771,0.627,0.627,0,0,1,.548-0.242A0.6,0.6,0,0,1,99.325,184.164ZM101.69,186a0.921,0.921,0,0,0,.114-0.121,0.6,0.6,0,0,0,.106.264,0.446,0.446,0,0,0,.367.141,0.618,0.618,0,0,0,.122-0.015,0.826,0.826,0,0,0,.136-0.04V185.9a0.735,0.735,0,0,1-.083.015,0.383,0.383,0,0,1-.058,0,0.149,0.149,0,0,1-.11-0.041,0.147,0.147,0,0,1-.041-0.11v-1.478a0.764,0.764,0,0,0-.253-0.619,1.117,1.117,0,0,0-.737-0.213,1.221,1.221,0,0,0-.788.223,0.89,0.89,0,0,0-.308.665h0.412a0.571,0.571,0,0,1,.187-0.386,0.653,0.653,0,0,1,.43-0.13,0.731,0.731,0,0,1,.449.122,0.4,0.4,0,0,1,.161.338v0.023a0.3,0.3,0,0,1-.047.171,0.225,0.225,0,0,1-.134.09,1.008,1.008,0,0,1-.141.026l-0.608.077a1.051,1.051,0,0,0-.626.267,0.775,0.775,0,0,0-.214.576,0.74,0.74,0,0,0,.228.57,0.872,0.872,0,0,0,.617.211h0a1.174,1.174,0,0,0,.819-0.3h0Zm0.1-.674a0.644,0.644,0,0,1-.015.1,0.652,0.652,0,0,1-.221.306,0.925,0.925,0,0,1-.595.194,0.467,0.467,0,0,1-.345-0.122,0.472,0.472,0,0,1-.121-0.348,0.338,0.338,0,0,1,.149-0.291,1.084,1.084,0,0,1,.471-0.152l0.409-.06a0.94,0.94,0,0,0,.275-0.083v0.292h0a1.572,1.572,0,0,1-.007.16h0Zm2.535,0.621,0.057-.083v0.367H104.8v-3.7h-0.447v1.4l-0.034-.05a0.889,0.889,0,0,0-.774-0.42,0.98,0.98,0,0,0-.8.372,1.5,1.5,0,0,0-.305.978,1.725,1.725,0,0,0,.315,1.09,1.02,1.02,0,0,0,.848.4h0a0.869,0.869,0,0,0,.722-0.357h0Zm-0.163-1.781a1.6,1.6,0,0,1,.187.849,1.019,1.019,0,0,1-.2.655,0.637,0.637,0,0,1-.523.247,0.611,0.611,0,0,1-.535-0.269,1.726,1.726,0,0,1-.013-1.537,0.625,0.625,0,0,1,.548-0.242A0.6,0.6,0,0,1,104.161,184.164ZM106.526,186a0.921,0.921,0,0,0,.114-0.121,0.6,0.6,0,0,0,.107.264,0.444,0.444,0,0,0,.367.141,0.6,0.6,0,0,0,.121-0.015,0.837,0.837,0,0,0,.137-0.04V185.9a0.777,0.777,0,0,1-.083.015,0.383,0.383,0,0,1-.058,0,0.141,0.141,0,0,1-.152-0.151v-1.478a0.761,0.761,0,0,0-.253-0.619,1.114,1.114,0,0,0-.736-0.213,1.226,1.226,0,0,0-.789.223,0.892,0.892,0,0,0-.307.665h0.411a0.572,0.572,0,0,1,.188-0.386,0.651,0.651,0,0,1,.43-0.13,0.733,0.733,0,0,1,.449.122,0.4,0.4,0,0,1,.161.338v0.023a0.3,0.3,0,0,1-.047.171,0.228,0.228,0,0,1-.134.09,1.022,1.022,0,0,1-.142.026l-0.607.077a1.049,1.049,0,0,0-.626.267,0.776,0.776,0,0,0-.215.576,0.74,0.74,0,0,0,.228.57,0.873,0.873,0,0,0,.618.211h0a1.171,1.171,0,0,0,.818-0.3h0Zm0.1-.674a0.565,0.565,0,0,1-.014.1,0.659,0.659,0,0,1-.221.306,0.927,0.927,0,0,1-.595.194,0.467,0.467,0,0,1-.345-0.122,0.473,0.473,0,0,1-.122-0.348,0.341,0.341,0,0,1,.149-0.291,1.084,1.084,0,0,1,.471-0.152l0.41-.06a0.958,0.958,0,0,0,.275-0.083v0.292h0a1.555,1.555,0,0,1-.008.16h0Zm0.913,0.905h0.531v-0.545h-0.531v0.545Zm0.894,0h0.446v-1.44a1.085,1.085,0,0,1,.188-0.67,0.608,0.608,0,0,1,.511-0.247,0.548,0.548,0,0,1,.438.157,0.778,0.778,0,0,1,.135.511v1.689H110.6v-1.842a0.934,0.934,0,0,0-.239-0.686,0.993,0.993,0,0,0-1.4.1l-0.1.133v-0.4h-0.424v2.689h0ZM113,183.54h-0.488l-0.719,2.224h0l-0.708-2.224h-0.51l0.985,2.735h0l-0.008.043a1.853,1.853,0,0,1-.23.47,0.315,0.315,0,0,1-.253.125,0.768,0.768,0,0,1-.256-0.04v0.42a0.674,0.674,0,0,0,.216.027,0.721,0.721,0,0,0,.547-0.191,2.646,2.646,0,0,0,.415-0.812L113,183.54h0Zm1.645,1.722a0.866,0.866,0,0,1-.232.481,0.66,0.66,0,0,1-.966-0.089,1.366,1.366,0,0,1-.178-0.772,1.308,1.308,0,0,1,.192-0.758,0.612,0.612,0,0,1,.529-0.275,0.649,0.649,0,0,1,.457.158,0.671,0.671,0,0,1,.2.448h0.429a1.008,1.008,0,0,0-.3-0.73,1.077,1.077,0,0,0-.764-0.266,1.088,1.088,0,0,0-.876.386,1.551,1.551,0,0,0-.327,1.037,1.588,1.588,0,0,0,.315,1.036,1.035,1.035,0,0,0,.844.384,1.068,1.068,0,0,0,.758-0.266,1.248,1.248,0,0,0,.355-0.774h-0.429Z"/>
    <path id="CROMOMANIACO_Diego_Velázquez_Las_Meninas" data-name="CROMOMANIACO Diego Velázquez Las Meninas" class="cls-3" d="M98.668,171.773a0.509,0.509,0,0,1-.14.283,0.373,0.373,0,0,1-.265.1,0.394,0.394,0,0,1-.329-0.145,0.672,0.672,0,0,1-.113-0.421,0.644,0.644,0,0,1,.122-0.413,0.4,0.4,0,0,1,.328-0.154,0.419,0.419,0,0,1,.258.075,0.332,0.332,0,0,1,.126.213h0.179a0.5,0.5,0,0,0-.179-0.333,0.585,0.585,0,0,0-.382-0.121,0.593,0.593,0,0,0-.47.2,0.778,0.778,0,0,0-.175.534,0.8,0.8,0,0,0,.168.534,0.563,0.563,0,0,0,.452.2,0.574,0.574,0,0,0,.4-0.146,0.646,0.646,0,0,0,.195-0.4H98.668Zm0.349,0.511H99.2v-0.6h0.44a0.274,0.274,0,0,1,.192.055,0.257,0.257,0,0,1,.063.185l0,0.11c0,0.058.006,0.112,0.011,0.159a0.411,0.411,0,0,0,.015.089h0.228v-0.03a0.111,0.111,0,0,1-.054-0.047,0.229,0.229,0,0,1-.016-0.09l-0.007-.253a0.27,0.27,0,0,0-.13-0.245l-0.031-.015a0.493,0.493,0,0,0,.064-0.046,0.357,0.357,0,0,0,.118-0.285,0.348,0.348,0,0,0-.114-0.282,0.5,0.5,0,0,0-.332-0.1H99.017v1.39h0Zm0.186-1.232h0.445a0.3,0.3,0,0,1,.2.056,0.224,0.224,0,0,1,.063.176,0.242,0.242,0,0,1-.06.181,0.265,0.265,0,0,1-.188.057H99.2v-0.47Zm1.692,1.27a0.625,0.625,0,0,0,.485-0.2,0.857,0.857,0,0,0,0-1.061,0.681,0.681,0,0,0-.968,0,0.853,0.853,0,0,0,0,1.061,0.622,0.622,0,0,0,.483.2h0Zm0-.166A0.429,0.429,0,0,1,100.55,172a0.7,0.7,0,0,1,0-.821,0.461,0.461,0,0,1,.691,0,0.7,0.7,0,0,1,0,.821,0.431,0.431,0,0,1-.346.156h0Zm0.987-1.044h0l0.388,1.172h0.179l0.387-1.176h0v1.176h0.18v-1.39h-0.267l-0.388,1.183h0l-0.392-1.183H101.7v1.39h0.18v-1.172Zm1.937,1.21a0.624,0.624,0,0,0,.485-0.2,0.857,0.857,0,0,0,0-1.061,0.681,0.681,0,0,0-.968,0,0.857,0.857,0,0,0,0,1.061,0.622,0.622,0,0,0,.483.2h0Zm0-.166a0.43,0.43,0,0,1-.345-0.156,0.709,0.709,0,0,1,0-.821,0.462,0.462,0,0,1,.692,0,0.709,0.709,0,0,1,0,.821,0.433,0.433,0,0,1-.347.156h0Zm0.987-1.044h0l0.387,1.172h0.18l0.386-1.176h0v1.176h0.18v-1.39h-0.267l-0.389,1.183h0l-0.392-1.183h-0.267v1.39h0.18v-1.172Zm1.222,1.172h0.192l0.144-.4h0.547l0.14,0.4h0.2l-0.492-1.39h-0.212l-0.518,1.39h0Zm0.616-1.185h0l0.211,0.616h-0.431l0.221-.616h0Zm0.88,0.051,0.706,1.134h0.2v-1.39h-0.179v1.13l-0.686-1.13h-0.223v1.39h0.179V171.15Zm1.152,1.134h0.186v-1.39h-0.186v1.39h0Zm0.308,0h0.191l0.144-.4h0.548l0.14,0.4h0.2l-0.493-1.39H109.5l-0.518,1.39h0ZM109.6,171.1h0l0.212,0.616h-0.432l0.221-.616h0Zm1.678,0.674a0.51,0.51,0,0,1-.14.283,0.373,0.373,0,0,1-.265.1,0.4,0.4,0,0,1-.329-0.145,0.675,0.675,0,0,1-.113-0.421,0.641,0.641,0,0,1,.122-0.413,0.4,0.4,0,0,1,.328-0.154,0.42,0.42,0,0,1,.258.075,0.334,0.334,0,0,1,.127.213h0.179a0.5,0.5,0,0,0-.179-0.333,0.587,0.587,0,0,0-.382-0.121,0.6,0.6,0,0,0-.47.2,0.781,0.781,0,0,0-.175.534,0.8,0.8,0,0,0,.169.534,0.563,0.563,0,0,0,.452.2,0.573,0.573,0,0,0,.4-0.146,0.648,0.648,0,0,0,.2-0.4h-0.179Zm0.923,0.549a0.625,0.625,0,0,0,.485-0.2,0.857,0.857,0,0,0,0-1.061,0.681,0.681,0,0,0-.968,0,0.853,0.853,0,0,0,0,1.061,0.622,0.622,0,0,0,.483.2h0Zm0-.166a0.43,0.43,0,0,1-.345-0.156,0.709,0.709,0,0,1,0-.821,0.461,0.461,0,0,1,.691,0,0.7,0.7,0,0,1,0,.821,0.43,0.43,0,0,1-.346.156h0Zm-14.5,4h0.548a0.53,0.53,0,0,0,.427-0.188,0.762,0.762,0,0,0,.158-0.506,0.774,0.774,0,0,0-.154-0.507,0.509,0.509,0,0,0-.415-0.189H97.7v1.39h0Zm0.186-1.229h0.355a0.348,0.348,0,0,1,.3.139,0.65,0.65,0,0,1,.1.4,0.627,0.627,0,0,1-.109.394,0.368,0.368,0,0,1-.308.139h-0.34v-1.068Zm1.092,1.229h0.168v-1.012H98.979v1.012h0Zm0-1.2h0.172v-0.193H98.977v0.193Zm1.039,1.137a0.423,0.423,0,0,0,.149-0.254H100a0.223,0.223,0,0,1-.088.14,0.272,0.272,0,0,1-.168.055,0.258,0.258,0,0,1-.224-0.1,0.441,0.441,0,0,1-.068-0.23h0.729l0-.061a0.6,0.6,0,0,0-.12-0.388,0.389,0.389,0,0,0-.316-0.147,0.428,0.428,0,0,0-.345.151,0.605,0.605,0,0,0-.128.406,0.545,0.545,0,0,0,.121.376,0.422,0.422,0,0,0,.333.136h0A0.455,0.455,0,0,0,100.016,176.093Zm-0.564-.524a0.388,0.388,0,0,1,.076-0.206,0.258,0.258,0,0,1,.212-0.1,0.238,0.238,0,0,1,.2.087,0.382,0.382,0,0,1,.069.219H99.452Zm1.077,0.826a0.19,0.19,0,0,1-.071-0.125h-0.172a0.343,0.343,0,0,0,.12.231,0.423,0.423,0,0,0,.27.079,0.449,0.449,0,0,0,.347-0.123,0.552,0.552,0,0,0,.114-0.379v-0.937h-0.158v0.146l-0.012-.018a0.328,0.328,0,0,0-.286-0.158,0.38,0.38,0,0,0-.3.14,0.559,0.559,0,0,0-.116.368,0.646,0.646,0,0,0,.118.409,0.383,0.383,0,0,0,.319.152,0.327,0.327,0,0,0,.271-0.134h0v0.033a0.411,0.411,0,0,1-.076.269,0.266,0.266,0,0,1-.22.092h0A0.225,0.225,0,0,1,100.529,176.4Zm0.38-1.022a0.605,0.605,0,0,1,.068.322,0.377,0.377,0,0,1-.075.245,0.238,0.238,0,0,1-.2.093,0.23,0.23,0,0,1-.2-0.1,0.5,0.5,0,0,1-.071-0.287,0.5,0.5,0,0,1,.065-0.288,0.235,0.235,0,0,1,.206-0.091A0.225,0.225,0,0,1,100.909,175.373Zm0.791,0.807a0.425,0.425,0,0,0,.337-0.147,0.651,0.651,0,0,0,0-.775,0.457,0.457,0,0,0-.672,0,0.647,0.647,0,0,0,0,.775,0.422,0.422,0,0,0,.335.147h0Zm0-.146a0.248,0.248,0,0,1-.21-0.1,0.552,0.552,0,0,1,0-.566,0.262,0.262,0,0,1,.421,0,0.552,0.552,0,0,1,0,.566,0.25,0.25,0,0,1-.211.1h0Zm1.447,0.119h0.2l0.5-1.39H103.64l-0.392,1.188h0l-0.393-1.188h-0.206Zm1.48-.06a0.433,0.433,0,0,0,.149-0.254H104.61a0.225,0.225,0,0,1-.088.14,0.273,0.273,0,0,1-.168.055,0.256,0.256,0,0,1-.223-0.1,0.438,0.438,0,0,1-.069-0.23h0.73v-0.061a0.6,0.6,0,0,0-.12-0.388,0.388,0.388,0,0,0-.316-0.147,0.43,0.43,0,0,0-.345.151,0.608,0.608,0,0,0-.128.406,0.545,0.545,0,0,0,.121.376,0.423,0.423,0,0,0,.333.136h0A0.458,0.458,0,0,0,104.627,176.093Zm-0.565-.524a0.389,0.389,0,0,1,.076-0.206,0.258,0.258,0,0,1,.212-0.1,0.236,0.236,0,0,1,.2.087,0.375,0.375,0,0,1,.069.219h-0.556Zm0.859,0.584h0.168v-1.39h-0.168v1.39h0Zm0.916-.087a0.357,0.357,0,0,0,.042-0.046,0.238,0.238,0,0,0,.041.1,0.167,0.167,0,0,0,.138.053,0.215,0.215,0,0,0,.045-0.006,0.444,0.444,0,0,0,.052-0.015v-0.123l-0.032.006-0.022,0a0.057,0.057,0,0,1-.041-0.016,0.056,0.056,0,0,1-.015-0.041v-0.556a0.286,0.286,0,0,0-.1-0.233,0.42,0.42,0,0,0-.277-0.08,0.46,0.46,0,0,0-.3.084,0.334,0.334,0,0,0-.116.25h0.155a0.211,0.211,0,0,1,.07-0.145,0.243,0.243,0,0,1,.162-0.049,0.272,0.272,0,0,1,.169.046,0.151,0.151,0,0,1,.061.127v0.008a0.111,0.111,0,0,1-.018.065,0.089,0.089,0,0,1-.05.034,0.434,0.434,0,0,1-.054.009l-0.228.029a0.4,0.4,0,0,0-.236.1,0.288,0.288,0,0,0-.08.216,0.279,0.279,0,0,0,.085.215,0.331,0.331,0,0,0,.233.079h0a0.443,0.443,0,0,0,.308-0.114h0Zm0.037-.254a0.144,0.144,0,0,1-.006.039,0.24,0.24,0,0,1-.083.116,0.35,0.35,0,0,1-.224.072,0.175,0.175,0,0,1-.129-0.045,0.177,0.177,0,0,1-.046-0.131,0.13,0.13,0,0,1,.056-0.11,0.411,0.411,0,0,1,.177-0.057l0.154-.023a0.341,0.341,0,0,0,.1-0.031v0.11h0a0.547,0.547,0,0,1,0,.06h0Zm-0.174-.807,0.247-.272H105.74l-0.169.272H105.7Zm0.486,1.082v0.066h0.838v-0.142h-0.613l0.6-.737v-0.133h-0.779v0.142h0.555l-0.6.737h0v0.067Zm1.588-.041,0.009-.01v0.517h0.167v-1.412h-0.157v0.165a0.19,0.19,0,0,0-.022-0.037,0.332,0.332,0,0,0-.288-0.158,0.363,0.363,0,0,0-.3.14,0.568,0.568,0,0,0-.113.369,0.652,0.652,0,0,0,.117.409,0.377,0.377,0,0,0,.315.151h0a0.323,0.323,0,0,0,.268-0.134h0Zm-0.061-.67a0.611,0.611,0,0,1,.07.319,0.386,0.386,0,0,1-.074.246,0.234,0.234,0,0,1-.194.094,0.224,0.224,0,0,1-.2-0.1,0.505,0.505,0,0,1-.069-0.287,0.513,0.513,0,0,1,.064-0.29,0.23,0.23,0,0,1,.2-0.092A0.218,0.218,0,0,1,107.713,175.376Zm0.577-.235h-0.168v0.7a0.35,0.35,0,0,0,.085.258,0.341,0.341,0,0,0,.255.086,0.334,0.334,0,0,0,.268-0.129,0.628,0.628,0,0,0,.038-0.052v0.154h0.159v-1.012h-0.168v0.54a0.42,0.42,0,0,1-.071.258,0.227,0.227,0,0,1-.192.095,0.194,0.194,0,0,1-.157-0.057,0.273,0.273,0,0,1-.049-0.183v-0.653h0Zm1.507,0.952a0.429,0.429,0,0,0,.15-0.254h-0.166a0.225,0.225,0,0,1-.088.14,0.273,0.273,0,0,1-.168.055,0.256,0.256,0,0,1-.223-0.1,0.438,0.438,0,0,1-.069-0.23h0.729l0-.061a0.6,0.6,0,0,0-.12-0.388,0.388,0.388,0,0,0-.316-0.147,0.43,0.43,0,0,0-.345.151,0.608,0.608,0,0,0-.128.406,0.545,0.545,0,0,0,.121.376,0.423,0.423,0,0,0,.333.136h0A0.453,0.453,0,0,0,109.8,176.093Zm-0.564-.524a0.389,0.389,0,0,1,.076-0.206,0.258,0.258,0,0,1,.212-0.1,0.237,0.237,0,0,1,.2.087,0.382,0.382,0,0,1,.069.219h-0.556Zm0.79,0.518v0.066h0.838v-0.142h-0.613l0.6-.737v-0.133h-0.779v0.142h0.555l-0.6.737h0v0.067Zm-11.451,3.934v-0.166H97.877v-1.223H97.692v1.389h0.881Zm0.655-.087a0.313,0.313,0,0,0,.043-0.045,0.222,0.222,0,0,0,.04.1,0.166,0.166,0,0,0,.138.053,0.3,0.3,0,0,0,.046,0,0.284,0.284,0,0,0,.051-0.016V179.9l-0.031,0-0.022,0a0.057,0.057,0,0,1-.041-0.015,0.059,0.059,0,0,1-.015-0.042v-0.556a0.288,0.288,0,0,0-.1-0.233,0.422,0.422,0,0,0-.277-0.08,0.46,0.46,0,0,0-.3.084,0.336,0.336,0,0,0-.116.25h0.155a0.217,0.217,0,0,1,.07-0.145,0.248,0.248,0,0,1,.162-0.049,0.279,0.279,0,0,1,.169.046,0.151,0.151,0,0,1,.061.127V179.3a0.109,0.109,0,0,1-.018.064,0.082,0.082,0,0,1-.05.034,0.3,0.3,0,0,1-.053.01l-0.229.029a0.4,0.4,0,0,0-.236.1,0.293,0.293,0,0,0-.081.217,0.277,0.277,0,0,0,.086.214,0.329,0.329,0,0,0,.232.08h0a0.438,0.438,0,0,0,.308-0.115h0Zm0.037-.253a0.185,0.185,0,0,1-.006.039,0.244,0.244,0,0,1-.083.115,0.346,0.346,0,0,1-.224.073,0.173,0.173,0,0,1-.13-0.046,0.176,0.176,0,0,1-.046-0.131,0.127,0.127,0,0,1,.056-0.109,0.4,0.4,0,0,1,.177-0.057l0.154-.023a0.37,0.37,0,0,0,.1-0.031v0.11h0a0.576,0.576,0,0,1,0,.06h0Zm1.107-.378a0.307,0.307,0,0,0-.109-0.237,0.416,0.416,0,0,0-.278-0.087,0.41,0.41,0,0,0-.272.084,0.28,0.28,0,0,0-.1.227,0.232,0.232,0,0,0,.06.17,0.407,0.407,0,0,0,.2.095l0.173,0.042a0.463,0.463,0,0,1,.154.055,0.091,0.091,0,0,1,.038.08,0.148,0.148,0,0,1-.058.127,0.284,0.284,0,0,1-.171.043,0.317,0.317,0,0,1-.193-0.048,0.216,0.216,0,0,1-.075-0.156H99.58a0.353,0.353,0,0,0,.115.266,0.487,0.487,0,0,0,.315.085,0.437,0.437,0,0,0,.288-0.088,0.291,0.291,0,0,0,.107-0.238,0.234,0.234,0,0,0-.062-0.175,0.429,0.429,0,0,0-.208-0.1l-0.173-.041a0.488,0.488,0,0,1-.152-0.055,0.093,0.093,0,0,1-.038-0.081,0.121,0.121,0,0,1,.055-0.108,0.281,0.281,0,0,1,.159-0.037,0.257,0.257,0,0,1,.162.046,0.178,0.178,0,0,1,.068.131h0.157Zm0.8-.454h0l0.387,1.172h0.179l0.387-1.176h0v1.176h0.18v-1.389h-0.266l-0.389,1.182h0l-0.392-1.182h-0.267v1.389h0.18v-1.172Zm2.014,1.112a0.421,0.421,0,0,0,.149-0.254h-0.166a0.217,0.217,0,0,1-.087.14,0.267,0.267,0,0,1-.168.055,0.26,0.26,0,0,1-.224-0.1,0.449,0.449,0,0,1-.068-0.231h0.729l0-.06a0.6,0.6,0,0,0-.12-0.388,0.39,0.39,0,0,0-.316-0.148,0.43,0.43,0,0,0-.345.151,0.6,0.6,0,0,0-.128.406,0.548,0.548,0,0,0,.121.377,0.426,0.426,0,0,0,.333.136h0A0.45,0.45,0,0,0,103.185,179.961Zm-0.564-.523a0.386,0.386,0,0,1,.076-0.206,0.255,0.255,0,0,1,.211-0.1,0.238,0.238,0,0,1,.2.087,0.38,0.38,0,0,1,.069.219h-0.556Zm0.855,0.583h0.168V179.48a0.408,0.408,0,0,1,.071-0.252,0.228,0.228,0,0,1,.192-0.093,0.205,0.205,0,0,1,.165.059,0.29,0.29,0,0,1,.051.192v0.635h0.168v-0.693a0.352,0.352,0,0,0-.09-0.258,0.374,0.374,0,0,0-.528.039l-0.037.05V179.01h-0.16v1.011h0Zm0.992,0h0.168V179.01h-0.168v1.011h0Zm0-1.2h0.172v-0.192h-0.172v0.192Zm0.344,1.2h0.168V179.48a0.408,0.408,0,0,1,.071-0.252,0.228,0.228,0,0,1,.192-0.093,0.205,0.205,0,0,1,.165.059,0.29,0.29,0,0,1,.051.192v0.635h0.168v-0.693a0.352,0.352,0,0,0-.09-0.258,0.374,0.374,0,0,0-.528.039l-0.037.05V179.01h-0.16v1.011h0Zm1.557-.087a0.3,0.3,0,0,0,.043-0.045,0.227,0.227,0,0,0,.04.1,0.166,0.166,0,0,0,.138.053,0.291,0.291,0,0,0,.046,0,0.276,0.276,0,0,0,.051-0.016V179.9l-0.031,0-0.022,0a0.056,0.056,0,0,1-.041-0.015,0.057,0.057,0,0,1-.016-0.042v-0.556a0.286,0.286,0,0,0-.095-0.233,0.422,0.422,0,0,0-.277-0.08,0.463,0.463,0,0,0-.3.084,0.335,0.335,0,0,0-.115.25h0.155a0.216,0.216,0,0,1,.07-0.145,0.249,0.249,0,0,1,.162-0.049,0.28,0.28,0,0,1,.169.046,0.152,0.152,0,0,1,.06.127V179.3a0.115,0.115,0,0,1-.017.064,0.084,0.084,0,0,1-.051.034,0.277,0.277,0,0,1-.053.01l-0.228.029a0.4,0.4,0,0,0-.236.1,0.293,0.293,0,0,0-.081.217,0.278,0.278,0,0,0,.086.214,0.329,0.329,0,0,0,.232.08h0a0.438,0.438,0,0,0,.308-0.115h0Zm0.038-.253a0.33,0.33,0,0,1-.006.039,0.244,0.244,0,0,1-.083.115,0.347,0.347,0,0,1-.224.073,0.175,0.175,0,0,1-.13-0.046,0.178,0.178,0,0,1-.045-0.131,0.126,0.126,0,0,1,.056-0.109,0.4,0.4,0,0,1,.177-0.057l0.154-.023a0.364,0.364,0,0,0,.1-0.031v0.11h0c0,0.022,0,.042,0,0.06h0Zm1.107-.378a0.311,0.311,0,0,0-.11-0.237,0.416,0.416,0,0,0-.277-0.087,0.41,0.41,0,0,0-.272.084,0.279,0.279,0,0,0-.1.227,0.236,0.236,0,0,0,.059.17,0.409,0.409,0,0,0,.2.095l0.174,0.042a0.455,0.455,0,0,1,.153.055,0.091,0.091,0,0,1,.039.08,0.148,0.148,0,0,1-.059.127,0.284,0.284,0,0,1-.171.043,0.319,0.319,0,0,1-.193-0.048,0.216,0.216,0,0,1-.075-0.156H106.72a0.351,0.351,0,0,0,.115.266,0.484,0.484,0,0,0,.314.085,0.439,0.439,0,0,0,.289-0.088,0.293,0.293,0,0,0,.107-0.238,0.238,0.238,0,0,0-.062-0.175,0.434,0.434,0,0,0-.208-0.1l-0.174-.041a0.491,0.491,0,0,1-.152-0.055,0.094,0.094,0,0,1-.038-0.081,0.121,0.121,0,0,1,.054-0.108,0.283,0.283,0,0,1,.159-0.037,0.258,0.258,0,0,1,.162.046,0.175,0.175,0,0,1,.068.131h0.158Z"/>
  </g>
</svg>
