<svg id="Dada" xmlns="http://www.w3.org/2000/svg" width="300" height="300" viewBox="0 0 300 300">
  <defs>
    <style>
      .cls-1 {
        fill: #575861;
      }

      .cls-1, .cls-2, .cls-3 {
        fill-rule: evenodd;
      }

      .cls-2 {
        fill: #e4e1da;
      }

      .cls-3 {
        fill: #31323d;
      }
    </style>
  </defs>
  <g id="dada-placard-portraitadele">
    <path id="Rectangle_2_copy" data-name="Rectangle 2 copy" class="cls-1" d="M95,166h40.01v26.019H95V166Z"/>
    <path id="Rectangle_2_copy_2" data-name="Rectangle 2 copy 2" class="cls-2" d="M95.687,166.7h38.626V191.3H95.687V166.7Z"/>
    <path id="dada.nyc" class="cls-3" d="M99.487,185.945l0.057-.083v0.367h0.414v-3.7H99.512v1.4l-0.035-.05a0.89,0.89,0,0,0-.774-0.42,0.981,0.981,0,0,0-.8.372,1.494,1.494,0,0,0-.305.978,1.726,1.726,0,0,0,.315,1.09,1.02,1.02,0,0,0,.848.4h0a0.868,0.868,0,0,0,.722-0.357h0Zm-0.162-1.781a1.6,1.6,0,0,1,.187.849,1.017,1.017,0,0,1-.2.655,0.637,0.637,0,0,1-.523.247,0.611,0.611,0,0,1-.534-0.269,1.331,1.331,0,0,1-.187-0.766,1.346,1.346,0,0,1,.174-0.771,0.627,0.627,0,0,1,.548-0.242A0.6,0.6,0,0,1,99.325,184.164ZM101.69,186a0.921,0.921,0,0,0,.114-0.121,0.6,0.6,0,0,0,.106.264,0.446,0.446,0,0,0,.367.141,0.618,0.618,0,0,0,.122-0.015,0.826,0.826,0,0,0,.136-0.04V185.9a0.735,0.735,0,0,1-.083.015,0.383,0.383,0,0,1-.058,0,0.149,0.149,0,0,1-.11-0.041,0.147,0.147,0,0,1-.041-0.11v-1.478a0.764,0.764,0,0,0-.253-0.619,1.117,1.117,0,0,0-.737-0.213,1.221,1.221,0,0,0-.788.223,0.89,0.89,0,0,0-.308.665h0.412a0.571,0.571,0,0,1,.187-0.386,0.653,0.653,0,0,1,.43-0.13,0.731,0.731,0,0,1,.449.122,0.4,0.4,0,0,1,.161.338v0.023a0.3,0.3,0,0,1-.047.171,0.225,0.225,0,0,1-.134.09,1.008,1.008,0,0,1-.141.026l-0.608.077a1.051,1.051,0,0,0-.626.267,0.775,0.775,0,0,0-.214.576,0.74,0.74,0,0,0,.228.57,0.872,0.872,0,0,0,.617.211h0a1.174,1.174,0,0,0,.819-0.3h0Zm0.1-.674a0.644,0.644,0,0,1-.015.1,0.652,0.652,0,0,1-.221.306,0.925,0.925,0,0,1-.595.194,0.467,0.467,0,0,1-.345-0.122,0.472,0.472,0,0,1-.121-0.348,0.338,0.338,0,0,1,.149-0.291,1.084,1.084,0,0,1,.471-0.152l0.409-.06a0.94,0.94,0,0,0,.275-0.083v0.292h0a1.572,1.572,0,0,1-.007.16h0Zm2.535,0.621,0.057-.083v0.367H104.8v-3.7h-0.447v1.4l-0.034-.05a0.889,0.889,0,0,0-.774-0.42,0.98,0.98,0,0,0-.8.372,1.5,1.5,0,0,0-.305.978,1.725,1.725,0,0,0,.315,1.09,1.02,1.02,0,0,0,.848.4h0a0.869,0.869,0,0,0,.722-0.357h0Zm-0.163-1.781a1.6,1.6,0,0,1,.187.849,1.019,1.019,0,0,1-.2.655,0.637,0.637,0,0,1-.523.247,0.611,0.611,0,0,1-.535-0.269,1.726,1.726,0,0,1-.013-1.537,0.625,0.625,0,0,1,.548-0.242A0.6,0.6,0,0,1,104.161,184.164ZM106.526,186a0.921,0.921,0,0,0,.114-0.121,0.6,0.6,0,0,0,.107.264,0.444,0.444,0,0,0,.367.141,0.6,0.6,0,0,0,.121-0.015,0.837,0.837,0,0,0,.137-0.04V185.9a0.777,0.777,0,0,1-.083.015,0.383,0.383,0,0,1-.058,0,0.141,0.141,0,0,1-.152-0.151v-1.478a0.761,0.761,0,0,0-.253-0.619,1.114,1.114,0,0,0-.736-0.213,1.226,1.226,0,0,0-.789.223,0.892,0.892,0,0,0-.307.665h0.411a0.572,0.572,0,0,1,.188-0.386,0.651,0.651,0,0,1,.43-0.13,0.733,0.733,0,0,1,.449.122,0.4,0.4,0,0,1,.161.338v0.023a0.3,0.3,0,0,1-.047.171,0.228,0.228,0,0,1-.134.09,1.022,1.022,0,0,1-.142.026l-0.607.077a1.049,1.049,0,0,0-.626.267,0.776,0.776,0,0,0-.215.576,0.74,0.74,0,0,0,.228.57,0.873,0.873,0,0,0,.618.211h0a1.171,1.171,0,0,0,.818-0.3h0Zm0.1-.674a0.565,0.565,0,0,1-.014.1,0.659,0.659,0,0,1-.221.306,0.927,0.927,0,0,1-.595.194,0.467,0.467,0,0,1-.345-0.122,0.473,0.473,0,0,1-.122-0.348,0.341,0.341,0,0,1,.149-0.291,1.084,1.084,0,0,1,.471-0.152l0.41-.06a0.958,0.958,0,0,0,.275-0.083v0.292h0a1.555,1.555,0,0,1-.008.16h0Zm0.913,0.905h0.531v-0.545h-0.531v0.545Zm0.894,0h0.446v-1.44a1.085,1.085,0,0,1,.188-0.67,0.608,0.608,0,0,1,.511-0.247,0.548,0.548,0,0,1,.438.157,0.778,0.778,0,0,1,.135.511v1.689H110.6v-1.842a0.934,0.934,0,0,0-.239-0.686,0.993,0.993,0,0,0-1.4.1l-0.1.133v-0.4h-0.424v2.689h0ZM113,183.54h-0.488l-0.719,2.224h0l-0.708-2.224h-0.51l0.985,2.735h0l-0.008.043a1.853,1.853,0,0,1-.23.47,0.315,0.315,0,0,1-.253.125,0.768,0.768,0,0,1-.256-0.04v0.42a0.674,0.674,0,0,0,.216.027,0.721,0.721,0,0,0,.547-0.191,2.646,2.646,0,0,0,.415-0.812L113,183.54h0Zm1.645,1.722a0.866,0.866,0,0,1-.232.481,0.66,0.66,0,0,1-.966-0.089,1.366,1.366,0,0,1-.178-0.772,1.308,1.308,0,0,1,.192-0.758,0.612,0.612,0,0,1,.529-0.275,0.649,0.649,0,0,1,.457.158,0.671,0.671,0,0,1,.2.448h0.429a1.008,1.008,0,0,0-.3-0.73,1.077,1.077,0,0,0-.764-0.266,1.088,1.088,0,0,0-.876.386,1.551,1.551,0,0,0-.327,1.037,1.588,1.588,0,0,0,.315,1.036,1.035,1.035,0,0,0,.844.384,1.068,1.068,0,0,0,.758-0.266,1.248,1.248,0,0,0,.355-0.774h-0.429Z"/>
    <path id="Ma_Fer_Garzón_Gustav_Klimt_Portrait_of_Adele_Bloch-Bauer_I" data-name="Ma Fer Garzón Gustav Klimt Portrait of Adele Bloch-Bauer I" class="cls-3" d="M97.866,171.112h0l0.388,1.172h0.179l0.386-1.176h0v1.176H99v-1.39H98.734l-0.389,1.183h0l-0.392-1.183H97.686v1.39h0.18v-1.172Zm1.89,1.085a0.313,0.313,0,0,0,.043-0.045,0.222,0.222,0,0,0,.04.1,0.168,0.168,0,0,0,.138.053,0.22,0.22,0,0,0,.046-0.006,0.215,0.215,0,0,0,.051-0.015V172.16l-0.031.006-0.022,0a0.053,0.053,0,0,1-.042-0.016,0.055,0.055,0,0,1-.015-0.041v-0.556a0.287,0.287,0,0,0-.1-0.233,0.422,0.422,0,0,0-.277-0.08,0.46,0.46,0,0,0-.3.084,0.336,0.336,0,0,0-.116.25h0.155a0.214,0.214,0,0,1,.07-0.145,0.242,0.242,0,0,1,.162-0.049,0.278,0.278,0,0,1,.169.046,0.151,0.151,0,0,1,.061.127v0.009a0.109,0.109,0,0,1-.018.064,0.086,0.086,0,0,1-.05.034,0.3,0.3,0,0,1-.053.01l-0.228.029a0.4,0.4,0,0,0-.236.1,0.293,0.293,0,0,0-.081.217,0.277,0.277,0,0,0,.086.214,0.329,0.329,0,0,0,.232.08h0a0.438,0.438,0,0,0,.308-0.115h0Zm0.037-.253a0.2,0.2,0,0,1-.006.039,0.249,0.249,0,0,1-.083.115,0.346,0.346,0,0,1-.224.073,0.16,0.16,0,0,1-.175-0.177,0.127,0.127,0,0,1,.056-0.109,0.4,0.4,0,0,1,.177-0.057l0.154-.023a0.37,0.37,0,0,0,.1-0.031v0.109h0a0.6,0.6,0,0,1,0,.061h0Zm0.966,0.34h0.092v-0.632h0.669v-0.167h-0.669v-0.424h0.764v-0.167h-0.949v1.39h0.093Zm1.652-.06a0.425,0.425,0,0,0,.149-0.254h-0.166a0.218,0.218,0,0,1-.088.14,0.3,0.3,0,0,1-.391-0.041,0.439,0.439,0,0,1-.068-0.231h0.729l0-.061a0.593,0.593,0,0,0-.12-0.387,0.389,0.389,0,0,0-.317-0.148,0.429,0.429,0,0,0-.344.151,0.6,0.6,0,0,0-.129.406,0.543,0.543,0,0,0,.122.376,0.421,0.421,0,0,0,.333.137h0A0.458,0.458,0,0,0,102.411,172.224Zm-0.564-.523a0.393,0.393,0,0,1,.075-0.206,0.257,0.257,0,0,1,.212-0.1,0.239,0.239,0,0,1,.2.087,0.38,0.38,0,0,1,.069.219h-0.556Zm0.878,0.583h0.168v-0.542a0.341,0.341,0,0,1,.074-0.235,0.267,0.267,0,0,1,.211-0.083h0.034v-0.174a0.135,0.135,0,0,0-.047-0.009,0.28,0.28,0,0,0-.234.13,0.443,0.443,0,0,0-.046.074v-0.173h-0.16v1.011h0Zm2.04-.163,0.011-.013,0.044,0.175h0.116v-0.735h-0.6v0.159h0.43v0.017a0.571,0.571,0,0,1-.016.125,0.344,0.344,0,0,1-.038.1,0.325,0.325,0,0,1-.037.052,0.422,0.422,0,0,1-.342.157,0.407,0.407,0,0,1-.338-0.148,0.772,0.772,0,0,1,0-.833,0.392,0.392,0,0,1,.324-0.157,0.465,0.465,0,0,1,.276.075,0.322,0.322,0,0,1,.133.213h0.179a0.491,0.491,0,0,0-.19-0.327,0.651,0.651,0,0,0-.858.075,0.878,0.878,0,0,0,0,1.061,0.581,0.581,0,0,0,.461.2h0a0.55,0.55,0,0,0,.444-0.2h0ZM105.7,172.2a0.3,0.3,0,0,0,.042-0.045,0.227,0.227,0,0,0,.041.1,0.167,0.167,0,0,0,.138.053,0.215,0.215,0,0,0,.045-0.006,0.238,0.238,0,0,0,.052-0.015V172.16l-0.032.006-0.022,0a0.053,0.053,0,0,1-.041-0.016,0.056,0.056,0,0,1-.015-0.041v-0.556a0.286,0.286,0,0,0-.1-0.233,0.42,0.42,0,0,0-.277-0.08,0.46,0.46,0,0,0-.3.084,0.336,0.336,0,0,0-.116.25h0.155a0.213,0.213,0,0,1,.07-0.145,0.243,0.243,0,0,1,.162-0.049,0.278,0.278,0,0,1,.169.046,0.152,0.152,0,0,1,.061.127v0.009a0.108,0.108,0,0,1-.018.064,0.089,0.089,0,0,1-.05.034,0.3,0.3,0,0,1-.054.01l-0.228.029a0.4,0.4,0,0,0-.236.1,0.3,0.3,0,0,0-.08.217,0.277,0.277,0,0,0,.085.214,0.331,0.331,0,0,0,.233.08h0a0.439,0.439,0,0,0,.308-0.115h0Zm0.037-.253a0.152,0.152,0,0,1-.006.039,0.242,0.242,0,0,1-.083.115,0.345,0.345,0,0,1-.224.073,0.16,0.16,0,0,1-.175-0.177,0.128,0.128,0,0,1,.056-0.109,0.4,0.4,0,0,1,.177-0.057l0.154-.023a0.371,0.371,0,0,0,.1-0.031v0.109h0a0.566,0.566,0,0,1,0,.061h0Zm0.4,0.34H106.3v-0.542a0.341,0.341,0,0,1,.074-0.235,0.266,0.266,0,0,1,.21-0.083h0.035v-0.174a0.136,0.136,0,0,0-.048-0.009,0.283,0.283,0,0,0-.234.13,0.518,0.518,0,0,0-.045.074v-0.173h-0.16v1.011h0Zm0.471-.066v0.066h0.838v-0.142h-0.613l0.6-.736v-0.133h-0.779v0.141h0.554l-0.6.737h0v0.067Zm1.351,0.094a0.427,0.427,0,0,0,.337-0.148,0.653,0.653,0,0,0,0-.774,0.455,0.455,0,0,0-.672,0,0.645,0.645,0,0,0,0,.774,0.423,0.423,0,0,0,.335.148h0Zm0-.147a0.248,0.248,0,0,1-.21-0.1,0.552,0.552,0,0,1,0-.566,0.248,0.248,0,0,1,.21-0.1,0.251,0.251,0,0,1,.211.1,0.552,0.552,0,0,1,0,.566,0.251,0.251,0,0,1-.211.1h0ZM108,171.136l0.247-.272h-0.206l-0.17.272H108Zm0.532,1.148H108.7v-0.542a0.412,0.412,0,0,1,.071-0.252,0.228,0.228,0,0,1,.192-0.093,0.208,0.208,0,0,1,.165.059,0.3,0.3,0,0,1,.051.193v0.635h0.168v-0.693a0.352,0.352,0,0,0-.09-0.258,0.345,0.345,0,0,0-.255-0.091,0.342,0.342,0,0,0-.273.13l-0.037.05v-0.149h-0.16v1.011h0Zm-9.817,3.705,0.01-.012,0.045,0.175H98.89v-0.736h-0.6v0.159h0.43v0.017a0.553,0.553,0,0,1-.015.126,0.361,0.361,0,0,1-.038.1,0.417,0.417,0,0,1-.037.052,0.423,0.423,0,0,1-.342.157,0.41,0.41,0,0,1-.338-0.149,0.77,0.77,0,0,1,0-.832,0.393,0.393,0,0,1,.325-0.157,0.469,0.469,0,0,1,.276.075,0.323,0.323,0,0,1,.132.213h0.179a0.49,0.49,0,0,0-.19-0.327,0.649,0.649,0,0,0-.858.074,0.88,0.88,0,0,0,0,1.062,0.585,0.585,0,0,0,.462.2h0a0.549,0.549,0,0,0,.444-0.2h0Zm0.534-.848H99.085v0.7a0.352,0.352,0,0,0,.085.258,0.34,0.34,0,0,0,.255.086,0.335,0.335,0,0,0,.269-0.129A0.523,0.523,0,0,0,99.731,176v0.154H99.89v-1.012H99.722v0.54a0.425,0.425,0,0,1-.071.258,0.228,0.228,0,0,1-.192.095,0.2,0.2,0,0,1-.158-0.057,0.277,0.277,0,0,1-.048-0.183v-0.653h0Zm1.542,0.293a0.308,0.308,0,0,0-.11-0.237,0.419,0.419,0,0,0-.277-0.086,0.411,0.411,0,0,0-.272.084,0.277,0.277,0,0,0-.1.226,0.23,0.23,0,0,0,.06.17,0.409,0.409,0,0,0,.2.1l0.174,0.041a0.526,0.526,0,0,1,.154.055,0.093,0.093,0,0,1,.038.08,0.15,0.15,0,0,1-.058.127,0.285,0.285,0,0,1-.172.044,0.309,0.309,0,0,1-.192-0.049,0.22,0.22,0,0,1-.076-0.156H100a0.359,0.359,0,0,0,.115.267,0.493,0.493,0,0,0,.314.084,0.439,0.439,0,0,0,.289-0.088,0.292,0.292,0,0,0,.107-0.238,0.24,0.24,0,0,0-.062-0.175,0.443,0.443,0,0,0-.208-0.1l-0.174-.042a0.466,0.466,0,0,1-.152-0.055,0.094,0.094,0,0,1-.038-0.081,0.122,0.122,0,0,1,.055-0.108,0.287,0.287,0,0,1,.159-0.037,0.26,0.26,0,0,1,.162.047,0.175,0.175,0,0,1,.067.13H100.8Zm0.516,0.586h-0.06A0.117,0.117,0,0,1,101.18,176a0.065,0.065,0,0,1-.027-0.054V175.28h0.158v-0.139h-0.158v-0.284h-0.168v0.284h-0.138v0.139h0.138v0.667a0.249,0.249,0,0,0,.046.169,0.2,0.2,0,0,0,.155.049,0.885,0.885,0,0,0,.125-0.013h0V176.02Zm0.659,0.046a0.46,0.46,0,0,0,.043-0.046,0.225,0.225,0,0,0,.04.1,0.167,0.167,0,0,0,.138.053,0.215,0.215,0,0,0,.045-0.006,0.4,0.4,0,0,0,.052-0.015v-0.123l-0.031.006-0.022,0a0.057,0.057,0,0,1-.042-0.016,0.056,0.056,0,0,1-.015-0.041v-0.556a0.288,0.288,0,0,0-.095-0.233,0.425,0.425,0,0,0-.278-0.08,0.46,0.46,0,0,0-.3.084,0.334,0.334,0,0,0-.116.25h0.155a0.216,0.216,0,0,1,.07-0.145,0.243,0.243,0,0,1,.162-0.049,0.272,0.272,0,0,1,.169.046,0.149,0.149,0,0,1,.061.127v0.008a0.111,0.111,0,0,1-.018.065,0.089,0.089,0,0,1-.05.034,0.451,0.451,0,0,1-.053.009l-0.229.029a0.4,0.4,0,0,0-.236.1,0.292,0.292,0,0,0-.08.216,0.277,0.277,0,0,0,.086.215,0.326,0.326,0,0,0,.232.079h0a0.443,0.443,0,0,0,.308-0.114h0Zm0.037-.254a0.144,0.144,0,0,1-.006.039,0.24,0.24,0,0,1-.083.116,0.35,0.35,0,0,1-.224.072,0.159,0.159,0,0,1-.175-0.176,0.13,0.13,0,0,1,.056-0.11,0.411,0.411,0,0,1,.177-0.057l0.154-.023a0.341,0.341,0,0,0,.1-0.031v0.11h0a0.547,0.547,0,0,1,0,.06h0Zm0.642,0.341h0.18l0.372-1.012h-0.185l-0.277.828h0l-0.268-.828h-0.2Zm1.09,0h0.186v-0.485l0.207-.2,0.487,0.688h0.242l-0.593-.823,0.581-.567h-0.256l-0.668.675v-0.675h-0.186v1.39h0Zm1.18,0h0.168v-1.39h-0.168v1.39h0Zm0.35,0h0.168v-1.012h-0.168v1.012h0Zm0-1.2h0.171v-0.193h-0.171v0.193Zm0.344,1.2h0.168v-0.542a0.408,0.408,0,0,1,.071-0.249,0.22,0.22,0,0,1,.183-0.1,0.152,0.152,0,0,1,.124.05,0.217,0.217,0,0,1,.042.144v0.693h0.168v-0.568a0.379,0.379,0,0,1,.065-0.233,0.205,0.205,0,0,1,.173-0.086,0.161,0.161,0,0,1,.136.06,0.278,0.278,0,0,1,.047.174v0.653h0.168v-0.71a0.34,0.34,0,0,0-.085-0.246,0.329,0.329,0,0,0-.243-0.086,0.325,0.325,0,0,0-.258.128l-0.027.035a0.256,0.256,0,0,0-.055-0.083,0.289,0.289,0,0,0-.214-0.08,0.34,0.34,0,0,0-.269.135l-0.035.045v-0.15h-0.159v1.012h0Zm1.881-.133h-0.059a0.12,0.12,0,0,1-.072-0.019,0.067,0.067,0,0,1-.026-0.054V175.28h0.157v-0.139h-0.157v-0.284h-0.168v0.284H107.03v0.139h0.138v0.667a0.25,0.25,0,0,0,.045.169,0.2,0.2,0,0,0,.155.049,0.885,0.885,0,0,0,.125-0.013h0V176.02Zm-9.783,4H97.9v-0.584c0.1,0,.239,0,0.414,0a0.425,0.425,0,0,0,.312-0.111,0.419,0.419,0,0,0,.112-0.31,0.361,0.361,0,0,0-.112-0.281,0.447,0.447,0,0,0-.312-0.1h-0.6v1.389h0Zm0.186-1.229h0.369a0.33,0.33,0,0,1,.212.055,0.206,0.206,0,0,1,.067.171,0.254,0.254,0,0,1-.067.195,0.307,0.307,0,0,1-.212.061H97.9v-0.482Zm1.379,1.257a0.422,0.422,0,0,0,.337-0.148,0.65,0.65,0,0,0,0-.774,0.456,0.456,0,0,0-.672,0,0.648,0.648,0,0,0,0,.774,0.422,0.422,0,0,0,.335.148h0Zm0-.147a0.248,0.248,0,0,1-.21-0.1,0.463,0.463,0,0,1-.078-0.282,0.469,0.469,0,0,1,.078-0.284,0.264,0.264,0,0,1,.421,0,0.467,0.467,0,0,1,.078.284,0.461,0.461,0,0,1-.078.282,0.25,0.25,0,0,1-.211.1h0Zm0.6,0.119h0.168V179.48a0.344,0.344,0,0,1,.074-0.236,0.27,0.27,0,0,1,.211-0.083h0.034v-0.174a0.135,0.135,0,0,0-.047-0.009,0.286,0.286,0,0,0-.235.13,0.581,0.581,0,0,0-.045.074V179.01h-0.16v1.011h0Zm0.9-.132h-0.059a0.12,0.12,0,0,1-.072-0.02,0.065,0.065,0,0,1-.026-0.054v-0.666h0.157V179.01h-0.157v-0.284h-0.168v0.284h-0.138v0.139h0.138v0.666a0.253,0.253,0,0,0,.045.17,0.207,0.207,0,0,0,.155.049,0.927,0.927,0,0,0,.125-0.014h0v-0.131Zm0.111,0.132h0.168V179.48a0.344,0.344,0,0,1,.074-0.236,0.27,0.27,0,0,1,.211-0.083h0.034v-0.174a0.135,0.135,0,0,0-.047-0.009,0.283,0.283,0,0,0-.234.13,0.489,0.489,0,0,0-.046.074V179.01h-0.16v1.011h0Zm1.108-.087a0.364,0.364,0,0,0,.043-0.045,0.216,0.216,0,0,0,.04.1,0.164,0.164,0,0,0,.138.053,0.292,0.292,0,0,0,.045,0,0.286,0.286,0,0,0,.052-0.016V179.9l-0.031,0-0.022,0a0.057,0.057,0,0,1-.042-0.015,0.06,0.06,0,0,1-.015-0.042v-0.556a0.289,0.289,0,0,0-.095-0.233,0.425,0.425,0,0,0-.278-0.08,0.46,0.46,0,0,0-.3.084,0.336,0.336,0,0,0-.116.25h0.155a0.22,0.22,0,0,1,.07-0.145,0.249,0.249,0,0,1,.162-0.049,0.278,0.278,0,0,1,.169.046,0.15,0.15,0,0,1,.061.127V179.3a0.108,0.108,0,0,1-.018.064,0.084,0.084,0,0,1-.05.034,0.31,0.31,0,0,1-.053.01l-0.229.029a0.4,0.4,0,0,0-.236.1,0.3,0.3,0,0,0-.08.217,0.275,0.275,0,0,0,.086.214,0.327,0.327,0,0,0,.232.08h0a0.439,0.439,0,0,0,.308-0.115h0Zm0.037-.253a0.144,0.144,0,0,1-.006.039,0.238,0.238,0,0,1-.083.115,0.344,0.344,0,0,1-.223.073,0.16,0.16,0,0,1-.176-0.177,0.128,0.128,0,0,1,.056-0.109,0.4,0.4,0,0,1,.177-0.057l0.154-.023a0.371,0.371,0,0,0,.1-0.031v0.11h0a0.547,0.547,0,0,1,0,.06h0Zm0.383,0.34h0.168V179.01h-0.168v1.011h0Zm0-1.2h0.171v-0.192h-0.171v0.192Zm0.71,1.065h-0.059a0.12,0.12,0,0,1-.072-0.02,0.065,0.065,0,0,1-.026-0.054v-0.666h0.157V179.01h-0.157v-0.284H102.8v0.284h-0.138v0.139H102.8v0.666a0.253,0.253,0,0,0,.045.17,0.207,0.207,0,0,0,.155.049,0.91,0.91,0,0,0,.125-0.014h0v-0.131Zm0.949,0.16a0.421,0.421,0,0,0,.337-0.148,0.649,0.649,0,0,0,0-.774,0.455,0.455,0,0,0-.672,0,0.649,0.649,0,0,0,0,.774,0.42,0.42,0,0,0,.335.148h0Zm0-.147a0.248,0.248,0,0,1-.21-0.1,0.462,0.462,0,0,1-.078-0.282,0.469,0.469,0,0,1,.078-0.284,0.264,0.264,0,0,1,.421,0,0.469,0.469,0,0,1,.078.284,0.462,0.462,0,0,1-.078.282,0.249,0.249,0,0,1-.211.1h0Zm0.956-.751V179.01h-0.167v-0.123a0.134,0.134,0,0,1,.026-0.09,0.088,0.088,0,0,1,.074-0.032l0.067,0v-0.153l-0.074,0a0.3,0.3,0,0,0-.2.056,0.212,0.212,0,0,0-.065.17v0.172H104.56v0.141H104.7v0.87h0.168v-0.87h0.167Zm0.435,0.87h0.192l0.144-.4h0.547l0.14,0.4h0.2l-0.492-1.389h-0.212l-0.518,1.389h0Zm0.615-1.185h0l0.211,0.616h-0.431l0.22-.616h0Zm1.332,1.079,0.022-.032v0.138h0.155v-1.389h-0.168v0.524l-0.013-.019a0.334,0.334,0,0,0-.291-0.158,0.368,0.368,0,0,0-.3.14,0.561,0.561,0,0,0-.115.368,0.649,0.649,0,0,0,.119.41,0.384,0.384,0,0,0,.319.152h0a0.327,0.327,0,0,0,.271-0.134h0Zm-0.061-.67a0.6,0.6,0,0,1,.07.319,0.38,0.38,0,0,1-.074.246,0.241,0.241,0,0,1-.2.093,0.229,0.229,0,0,1-.2-0.1,0.652,0.652,0,0,1,0-.578,0.235,0.235,0,0,1,.206-0.091A0.224,0.224,0,0,1,107.354,179.245Zm1.09,0.716a0.425,0.425,0,0,0,.149-0.254h-0.166a0.217,0.217,0,0,1-.087.14,0.267,0.267,0,0,1-.168.055,0.26,0.26,0,0,1-.224-0.1,0.449,0.449,0,0,1-.068-0.231h0.729l0-.06a0.6,0.6,0,0,0-.12-0.388,0.391,0.391,0,0,0-.316-0.148,0.43,0.43,0,0,0-.345.151,0.6,0.6,0,0,0-.128.406,0.548,0.548,0,0,0,.121.377,0.426,0.426,0,0,0,.333.136h0A0.452,0.452,0,0,0,108.444,179.961Zm-0.564-.523a0.386,0.386,0,0,1,.076-0.206,0.253,0.253,0,0,1,.211-0.1,0.238,0.238,0,0,1,.2.087,0.38,0.38,0,0,1,.069.219H107.88Zm0.859,0.583h0.168v-1.389h-0.168v1.389h0Zm1.039-.06a0.425,0.425,0,0,0,.149-0.254h-0.166a0.217,0.217,0,0,1-.087.14,0.267,0.267,0,0,1-.168.055,0.26,0.26,0,0,1-.224-0.1,0.449,0.449,0,0,1-.068-0.231h0.729l0-.06a0.6,0.6,0,0,0-.12-0.388,0.39,0.39,0,0,0-.316-0.148,0.43,0.43,0,0,0-.345.151,0.6,0.6,0,0,0-.128.406,0.548,0.548,0,0,0,.121.377,0.426,0.426,0,0,0,.333.136h0A0.45,0.45,0,0,0,109.778,179.961Zm-0.564-.523a0.386,0.386,0,0,1,.076-0.206,0.255,0.255,0,0,1,.211-0.1,0.238,0.238,0,0,1,.2.087,0.38,0.38,0,0,1,.069.219h-0.556Zm1.327,0.583H111.1a0.551,0.551,0,0,0,.364-0.109,0.372,0.372,0,0,0,.131-0.3,0.324,0.324,0,0,0-.134-0.275,0.444,0.444,0,0,0-.119-0.061,0.333,0.333,0,0,0,.063-0.039,0.321,0.321,0,0,0,.127-0.271,0.3,0.3,0,0,0-.107-0.24,0.422,0.422,0,0,0-.283-0.091h-0.6v1.389h0Zm0.186-1.229h0.355a0.342,0.342,0,0,1,.2.049,0.178,0.178,0,0,1,.064.153,0.208,0.208,0,0,1-.07.174,0.354,0.354,0,0,1-.221.055h-0.331v-0.431h0Zm0,0.584h0.365a0.431,0.431,0,0,1,.243.054,0.194,0.194,0,0,1,.078.172,0.24,0.24,0,0,1-.075.2,0.355,0.355,0,0,1-.233.063h-0.378v-0.485h0Zm1,0.645h0.168v-1.389h-0.168v1.389h0Zm0.751,0.028a0.423,0.423,0,0,0,.337-0.148,0.649,0.649,0,0,0,0-.774,0.455,0.455,0,0,0-.672,0,0.649,0.649,0,0,0,0,.774,0.42,0.42,0,0,0,.335.148h0Zm0-.147a0.248,0.248,0,0,1-.21-0.1,0.462,0.462,0,0,1-.078-0.282,0.469,0.469,0,0,1,.078-0.284,0.264,0.264,0,0,1,.421,0,0.469,0.469,0,0,1,.078.284,0.462,0.462,0,0,1-.078.282,0.25,0.25,0,0,1-.211.1h0Zm1.2-.245a0.319,0.319,0,0,1-.087.181,0.248,0.248,0,0,1-.363-0.033,0.512,0.512,0,0,1-.067-0.29,0.493,0.493,0,0,1,.072-0.285,0.231,0.231,0,0,1,.2-0.1,0.229,0.229,0,0,1,.246.228h0.162a0.38,0.38,0,0,0-.115-0.275,0.453,0.453,0,0,0-.617.046,0.581,0.581,0,0,0-.123.39,0.594,0.594,0,0,0,.119.389,0.387,0.387,0,0,0,.317.145,0.4,0.4,0,0,0,.285-0.1,0.473,0.473,0,0,0,.134-0.292h-0.162Zm0.253,0.364H114.1V179.48a0.39,0.39,0,0,1,.075-0.252,0.244,0.244,0,0,1,.2-0.093,0.194,0.194,0,0,1,.155.055,0.274,0.274,0,0,1,.048.181v0.65h0.168v-0.693a0.352,0.352,0,0,0-.09-0.258,0.374,0.374,0,0,0-.528.039l-0.029.038v-0.515h-0.168v1.389h0Zm0.946-.448h0.468V179.4H114.88v0.175Zm0.618,0.448h0.56a0.554,0.554,0,0,0,.365-0.109,0.375,0.375,0,0,0,.131-0.3,0.322,0.322,0,0,0-.135-0.275,0.437,0.437,0,0,0-.118-0.061,0.36,0.36,0,0,0,.062-0.039,0.321,0.321,0,0,0,.127-0.271,0.3,0.3,0,0,0-.107-0.24,0.422,0.422,0,0,0-.283-0.091h-0.6v1.389h0Zm0.185-1.229h0.356a0.339,0.339,0,0,1,.2.049,0.178,0.178,0,0,1,.065.153,0.211,0.211,0,0,1-.07.174,0.358,0.358,0,0,1-.221.055h-0.332v-0.431h0Zm0,0.584h0.365a0.434,0.434,0,0,1,.244.054,0.2,0.2,0,0,1,.077.172,0.243,0.243,0,0,1-.074.2,0.358,0.358,0,0,1-.234.063h-0.378v-0.485h0Zm1.566,0.558a0.364,0.364,0,0,0,.043-0.045,0.216,0.216,0,0,0,.04.1,0.164,0.164,0,0,0,.138.053,0.292,0.292,0,0,0,.045,0,0.264,0.264,0,0,0,.052-0.016V179.9l-0.031,0-0.022,0a0.057,0.057,0,0,1-.042-0.015,0.06,0.06,0,0,1-.015-0.042v-0.556a0.289,0.289,0,0,0-.095-0.233,0.423,0.423,0,0,0-.277-0.08,0.461,0.461,0,0,0-.3.084,0.336,0.336,0,0,0-.116.25h0.155a0.216,0.216,0,0,1,.071-0.145,0.244,0.244,0,0,1,.161-0.049,0.278,0.278,0,0,1,.169.046,0.15,0.15,0,0,1,.061.127V179.3a0.108,0.108,0,0,1-.018.064,0.084,0.084,0,0,1-.05.034,0.31,0.31,0,0,1-.053.01l-0.229.029a0.4,0.4,0,0,0-.236.1,0.3,0.3,0,0,0-.08.217,0.275,0.275,0,0,0,.086.214,0.327,0.327,0,0,0,.232.08h0a0.439,0.439,0,0,0,.308-0.115h0Zm0.037-.253a0.144,0.144,0,0,1-.006.039,0.238,0.238,0,0,1-.083.115,0.344,0.344,0,0,1-.223.073,0.16,0.16,0,0,1-.176-0.177,0.128,0.128,0,0,1,.056-0.109,0.4,0.4,0,0,1,.177-0.057l0.154-.023a0.371,0.371,0,0,0,.1-0.031v0.11h0a0.547,0.547,0,0,1,0,.06h0Zm0.551-.671h-0.168v0.7a0.358,0.358,0,0,0,.085.258,0.346,0.346,0,0,0,.255.086,0.334,0.334,0,0,0,.269-0.13,0.4,0.4,0,0,0,.037-0.052v0.154h0.159V179.01h-0.167v0.54a0.421,0.421,0,0,1-.071.257,0.227,0.227,0,0,1-.192.095,0.2,0.2,0,0,1-.158-0.056,0.281,0.281,0,0,1-.049-0.184V179.01h0Zm1.508,0.951a0.43,0.43,0,0,0,.149-0.254h-0.166a0.218,0.218,0,0,1-.088.14,0.3,0.3,0,0,1-.391-0.041,0.439,0.439,0,0,1-.068-0.231h0.729l0-.06a0.6,0.6,0,0,0-.12-0.388,0.392,0.392,0,0,0-.317-0.148,0.429,0.429,0,0,0-.344.151,0.6,0.6,0,0,0-.129.406,0.548,0.548,0,0,0,.122.377,0.423,0.423,0,0,0,.333.136h0A0.452,0.452,0,0,0,119.345,179.961Zm-0.564-.523a0.393,0.393,0,0,1,.075-0.206,0.257,0.257,0,0,1,.212-0.1,0.239,0.239,0,0,1,.2.087,0.38,0.38,0,0,1,.069.219h-0.556Zm0.878,0.583h0.168V179.48a0.344,0.344,0,0,1,.074-0.236,0.27,0.27,0,0,1,.211-0.083h0.034v-0.174a0.135,0.135,0,0,0-.047-0.009,0.283,0.283,0,0,0-.234.13,0.489,0.489,0,0,0-.046.074V179.01h-0.16v1.011h0Zm1.041,0h0.185v-1.389H120.7v1.389h0Z"/>
  </g>
</svg>
