<svg id="Dada" xmlns="http://www.w3.org/2000/svg" width="300" height="300" viewBox="0 0 300 300">
  <defs>
    <style>
      .cls-1 {
        fill: #575861;
      }

      .cls-1, .cls-2, .cls-3 {
        fill-rule: evenodd;
      }

      .cls-2 {
        fill: #e4e1da;
      }

      .cls-3 {
        fill: #31323d;
      }
    </style>
  </defs>
  <g id="dada-placard-americangothic">
    <path id="Rectangle_2_copy" data-name="Rectangle 2 copy" class="cls-1" d="M95,166h40.01v26.019H95V166Z"/>
    <path id="Rectangle_2_copy_2" data-name="Rectangle 2 copy 2" class="cls-2" d="M95.687,166.7h38.626V191.3H95.687V166.7Z"/>
    <path id="dada.nyc" class="cls-3" d="M99.487,185.945l0.057-.083v0.367h0.414v-3.7H99.512v1.4l-0.035-.05a0.89,0.89,0,0,0-.774-0.42,0.981,0.981,0,0,0-.8.372,1.494,1.494,0,0,0-.305.978,1.726,1.726,0,0,0,.315,1.09,1.02,1.02,0,0,0,.848.4h0a0.868,0.868,0,0,0,.722-0.357h0Zm-0.162-1.781a1.6,1.6,0,0,1,.187.849,1.017,1.017,0,0,1-.2.655,0.637,0.637,0,0,1-.523.247,0.611,0.611,0,0,1-.534-0.269,1.331,1.331,0,0,1-.187-0.766,1.346,1.346,0,0,1,.174-0.771,0.627,0.627,0,0,1,.548-0.242A0.6,0.6,0,0,1,99.325,184.164ZM101.69,186a0.921,0.921,0,0,0,.114-0.121,0.6,0.6,0,0,0,.106.264,0.446,0.446,0,0,0,.367.141,0.618,0.618,0,0,0,.122-0.015,0.826,0.826,0,0,0,.136-0.04V185.9a0.735,0.735,0,0,1-.083.015,0.383,0.383,0,0,1-.058,0,0.149,0.149,0,0,1-.11-0.041,0.147,0.147,0,0,1-.041-0.11v-1.478a0.764,0.764,0,0,0-.253-0.619,1.117,1.117,0,0,0-.737-0.213,1.221,1.221,0,0,0-.788.223,0.89,0.89,0,0,0-.308.665h0.412a0.571,0.571,0,0,1,.187-0.386,0.653,0.653,0,0,1,.43-0.13,0.731,0.731,0,0,1,.449.122,0.4,0.4,0,0,1,.161.338v0.023a0.3,0.3,0,0,1-.047.171,0.225,0.225,0,0,1-.134.09,1.008,1.008,0,0,1-.141.026l-0.608.077a1.051,1.051,0,0,0-.626.267,0.775,0.775,0,0,0-.214.576,0.74,0.74,0,0,0,.228.57,0.872,0.872,0,0,0,.617.211h0a1.174,1.174,0,0,0,.819-0.3h0Zm0.1-.674a0.644,0.644,0,0,1-.015.1,0.652,0.652,0,0,1-.221.306,0.925,0.925,0,0,1-.595.194,0.467,0.467,0,0,1-.345-0.122,0.472,0.472,0,0,1-.121-0.348,0.338,0.338,0,0,1,.149-0.291,1.084,1.084,0,0,1,.471-0.152l0.409-.06a0.94,0.94,0,0,0,.275-0.083v0.292h0a1.572,1.572,0,0,1-.007.16h0Zm2.535,0.621,0.057-.083v0.367H104.8v-3.7h-0.447v1.4l-0.034-.05a0.889,0.889,0,0,0-.774-0.42,0.98,0.98,0,0,0-.8.372,1.5,1.5,0,0,0-.305.978,1.725,1.725,0,0,0,.315,1.09,1.02,1.02,0,0,0,.848.4h0a0.869,0.869,0,0,0,.722-0.357h0Zm-0.163-1.781a1.6,1.6,0,0,1,.187.849,1.019,1.019,0,0,1-.2.655,0.637,0.637,0,0,1-.523.247,0.611,0.611,0,0,1-.535-0.269,1.726,1.726,0,0,1-.013-1.537,0.625,0.625,0,0,1,.548-0.242A0.6,0.6,0,0,1,104.161,184.164ZM106.526,186a0.921,0.921,0,0,0,.114-0.121,0.6,0.6,0,0,0,.107.264,0.444,0.444,0,0,0,.367.141,0.6,0.6,0,0,0,.121-0.015,0.837,0.837,0,0,0,.137-0.04V185.9a0.777,0.777,0,0,1-.083.015,0.383,0.383,0,0,1-.058,0,0.141,0.141,0,0,1-.152-0.151v-1.478a0.761,0.761,0,0,0-.253-0.619,1.114,1.114,0,0,0-.736-0.213,1.226,1.226,0,0,0-.789.223,0.892,0.892,0,0,0-.307.665h0.411a0.572,0.572,0,0,1,.188-0.386,0.651,0.651,0,0,1,.43-0.13,0.733,0.733,0,0,1,.449.122,0.4,0.4,0,0,1,.161.338v0.023a0.3,0.3,0,0,1-.047.171,0.228,0.228,0,0,1-.134.09,1.022,1.022,0,0,1-.142.026l-0.607.077a1.049,1.049,0,0,0-.626.267,0.776,0.776,0,0,0-.215.576,0.74,0.74,0,0,0,.228.57,0.873,0.873,0,0,0,.618.211h0a1.171,1.171,0,0,0,.818-0.3h0Zm0.1-.674a0.565,0.565,0,0,1-.014.1,0.659,0.659,0,0,1-.221.306,0.927,0.927,0,0,1-.595.194,0.467,0.467,0,0,1-.345-0.122,0.473,0.473,0,0,1-.122-0.348,0.341,0.341,0,0,1,.149-0.291,1.084,1.084,0,0,1,.471-0.152l0.41-.06a0.958,0.958,0,0,0,.275-0.083v0.292h0a1.555,1.555,0,0,1-.008.16h0Zm0.913,0.905h0.531v-0.545h-0.531v0.545Zm0.894,0h0.446v-1.44a1.085,1.085,0,0,1,.188-0.67,0.608,0.608,0,0,1,.511-0.247,0.548,0.548,0,0,1,.438.157,0.778,0.778,0,0,1,.135.511v1.689H110.6v-1.842a0.934,0.934,0,0,0-.239-0.686,0.993,0.993,0,0,0-1.4.1l-0.1.133v-0.4h-0.424v2.689h0ZM113,183.54h-0.488l-0.719,2.224h0l-0.708-2.224h-0.51l0.985,2.735h0l-0.008.043a1.853,1.853,0,0,1-.23.47,0.315,0.315,0,0,1-.253.125,0.768,0.768,0,0,1-.256-0.04v0.42a0.674,0.674,0,0,0,.216.027,0.721,0.721,0,0,0,.547-0.191,2.646,2.646,0,0,0,.415-0.812L113,183.54h0Zm1.645,1.722a0.866,0.866,0,0,1-.232.481,0.66,0.66,0,0,1-.966-0.089,1.366,1.366,0,0,1-.178-0.772,1.308,1.308,0,0,1,.192-0.758,0.612,0.612,0,0,1,.529-0.275,0.649,0.649,0,0,1,.457.158,0.671,0.671,0,0,1,.2.448h0.429a1.008,1.008,0,0,0-.3-0.73,1.077,1.077,0,0,0-.764-0.266,1.088,1.088,0,0,0-.876.386,1.551,1.551,0,0,0-.327,1.037,1.588,1.588,0,0,0,.315,1.036,1.035,1.035,0,0,0,.844.384,1.068,1.068,0,0,0,.758-0.266,1.248,1.248,0,0,0,.355-0.774h-0.429Z"/>
    <path id="Betunski_Grant_Wood_American_Gothic" data-name="Betunski Grant Wood American Gothic" class="cls-3" d="M97.688,172.284h0.561a0.552,0.552,0,0,0,.364-0.109,0.374,0.374,0,0,0,.131-0.3,0.323,0.323,0,0,0-.134-0.275,0.477,0.477,0,0,0-.118-0.062,0.307,0.307,0,0,0,.063-0.038,0.322,0.322,0,0,0,.127-0.271,0.3,0.3,0,0,0-.107-0.24,0.421,0.421,0,0,0-.283-0.092h-0.6v1.39h0Zm0.186-1.229h0.355a0.333,0.333,0,0,1,.2.049,0.177,0.177,0,0,1,.064.152,0.21,0.21,0,0,1-.07.175,0.356,0.356,0,0,1-.221.055H97.873v-0.431h0Zm0,0.583h0.365a0.431,0.431,0,0,1,.243.055,0.194,0.194,0,0,1,.078.171,0.242,0.242,0,0,1-.074.2,0.357,0.357,0,0,1-.234.062H97.873v-0.485h0Zm1.689,0.586a0.427,0.427,0,0,0,.149-0.254H99.546a0.221,0.221,0,0,1-.088.14,0.266,0.266,0,0,1-.168.055,0.26,0.26,0,0,1-.224-0.1A0.443,0.443,0,0,1,99,171.838h0.729l0-.061a0.592,0.592,0,0,0-.12-0.387,0.387,0.387,0,0,0-.316-0.148,0.431,0.431,0,0,0-.345.151,0.607,0.607,0,0,0-.128.406,0.544,0.544,0,0,0,.121.376,0.423,0.423,0,0,0,.333.137h0A0.456,0.456,0,0,0,99.563,172.224ZM99,171.7a0.387,0.387,0,0,1,.076-0.206,0.256,0.256,0,0,1,.212-0.1,0.238,0.238,0,0,1,.2.087,0.38,0.38,0,0,1,.069.219H99Zm1.222,0.451h-0.06a0.12,0.12,0,0,1-.072-0.02,0.065,0.065,0,0,1-.026-0.054v-0.666h0.158v-0.139h-0.158v-0.284H99.9v0.284H99.757v0.139H99.9v0.666a0.247,0.247,0,0,0,.045.169,0.2,0.2,0,0,0,.156.05,0.943,0.943,0,0,0,.125-0.014h0v-0.131Zm0.261-.879h-0.168v0.694a0.355,0.355,0,0,0,.085.259,0.342,0.342,0,0,0,.254.086,0.336,0.336,0,0,0,.269-0.13,0.377,0.377,0,0,0,.037-0.052v0.154h0.16v-1.011h-0.168v0.539a0.423,0.423,0,0,1-.071.258,0.227,0.227,0,0,1-.192.095,0.2,0.2,0,0,1-.158-0.056,0.284,0.284,0,0,1-.048-0.184v-0.652h0Zm0.812,1.011h0.168v-0.542a0.412,0.412,0,0,1,.071-0.252,0.228,0.228,0,0,1,.192-0.093,0.208,0.208,0,0,1,.165.059,0.3,0.3,0,0,1,.051.193v0.635h0.168v-0.693a0.352,0.352,0,0,0-.09-0.258,0.374,0.374,0,0,0-.528.039l-0.037.05v-0.149h-0.16v1.011h0Zm1.716-.718a0.315,0.315,0,0,0-.11-0.238,0.421,0.421,0,0,0-.277-0.086,0.41,0.41,0,0,0-.272.084,0.279,0.279,0,0,0-.1.226,0.232,0.232,0,0,0,.059.171,0.418,0.418,0,0,0,.2.095l0.173,0.042a0.454,0.454,0,0,1,.154.055,0.091,0.091,0,0,1,.039.08,0.15,0.15,0,0,1-.059.127,0.284,0.284,0,0,1-.171.043,0.319,0.319,0,0,1-.193-0.048,0.216,0.216,0,0,1-.075-0.156h-0.161a0.348,0.348,0,0,0,.115.266,0.49,0.49,0,0,0,.314.085,0.447,0.447,0,0,0,.289-0.088,0.293,0.293,0,0,0,.106-0.239,0.235,0.235,0,0,0-.061-0.174,0.434,0.434,0,0,0-.208-0.1l-0.174-.041a0.507,0.507,0,0,1-.152-0.055,0.092,0.092,0,0,1-.038-0.081,0.121,0.121,0,0,1,.054-0.108,0.283,0.283,0,0,1,.159-0.037,0.258,0.258,0,0,1,.162.046,0.178,0.178,0,0,1,.068.131h0.158Zm0.153,0.718h0.168V171.9l0.131-.13,0.311,0.514h0.218l-0.405-.636,0.38-.375h-0.214l-0.421.423v-0.8h-0.168v1.39h0Zm0.881,0h0.167v-1.011h-0.167v1.011h0Zm0-1.2h0.171v-0.193h-0.171v0.193Zm-5.323,4.9,0.01-.012,0.045,0.175H98.89v-0.736h-0.6v0.159h0.43v0.017a0.553,0.553,0,0,1-.015.126,0.361,0.361,0,0,1-.038.1,0.417,0.417,0,0,1-.037.052,0.423,0.423,0,0,1-.342.157,0.41,0.41,0,0,1-.338-0.149,0.77,0.77,0,0,1,0-.832,0.393,0.393,0,0,1,.325-0.157,0.469,0.469,0,0,1,.276.075,0.323,0.323,0,0,1,.132.213h0.179a0.49,0.49,0,0,0-.19-0.327,0.649,0.649,0,0,0-.858.074,0.88,0.88,0,0,0,0,1.062,0.585,0.585,0,0,0,.462.2h0a0.549,0.549,0,0,0,.444-0.2h0Zm0.384,0.164h0.168v-0.542a0.342,0.342,0,0,1,.074-0.236,0.268,0.268,0,0,1,.21-0.083H99.59v-0.174a0.162,0.162,0,0,0-.048-0.008,0.283,0.283,0,0,0-.234.129,0.607,0.607,0,0,0-.046.074v-0.173H99.1v1.012h0Zm1.107-.087a0.367,0.367,0,0,0,.043-0.046,0.238,0.238,0,0,0,.04.1,0.169,0.169,0,0,0,.138.053,0.215,0.215,0,0,0,.046-0.006,0.38,0.38,0,0,0,.051-0.015v-0.123l-0.031.006-0.022,0a0.057,0.057,0,0,1-.041-0.016,0.053,0.053,0,0,1-.016-0.041v-0.556a0.285,0.285,0,0,0-.1-0.233,0.422,0.422,0,0,0-.277-0.08,0.46,0.46,0,0,0-.3.084,0.334,0.334,0,0,0-.116.25h0.155a0.212,0.212,0,0,1,.07-0.145,0.242,0.242,0,0,1,.162-0.049,0.274,0.274,0,0,1,.169.046,0.15,0.15,0,0,1,.06.127v0.008a0.118,0.118,0,0,1-.017.065,0.088,0.088,0,0,1-.051.034,0.418,0.418,0,0,1-.053.009l-0.228.029a0.4,0.4,0,0,0-.236.1,0.289,0.289,0,0,0-.081.216,0.279,0.279,0,0,0,.086.215,0.328,0.328,0,0,0,.232.079h0a0.441,0.441,0,0,0,.308-0.114h0Zm0.038-.254a0.33,0.33,0,0,1-.006.039,0.247,0.247,0,0,1-.083.116,0.352,0.352,0,0,1-.224.072,0.177,0.177,0,0,1-.13-0.045,0.179,0.179,0,0,1-.046-0.131,0.129,0.129,0,0,1,.056-0.11,0.415,0.415,0,0,1,.177-0.057l0.154-.023a0.335,0.335,0,0,0,.1-0.031v0.11h0c0,0.022,0,.042,0,0.06h0Zm0.377,0.341h0.168v-0.542a0.408,0.408,0,0,1,.071-0.252,0.229,0.229,0,0,1,.192-0.093,0.208,0.208,0,0,1,.165.059,0.292,0.292,0,0,1,.051.192v0.636h0.168V175.46a0.349,0.349,0,0,0-.09-0.258,0.337,0.337,0,0,0-.254-0.091,0.344,0.344,0,0,0-.274.129l-0.037.051v-0.15h-0.16v1.012h0Zm1.353-.133h-0.06a0.119,0.119,0,0,1-.071-0.019,0.065,0.065,0,0,1-.027-0.054V175.28h0.158v-0.139H101.82v-0.284h-0.167v0.284h-0.139v0.139h0.139v0.667a0.25,0.25,0,0,0,.045.169,0.2,0.2,0,0,0,.155.049,0.885,0.885,0,0,0,.125-0.013h0V176.02Zm0.908,0.133h0.1l0.29-1.075c0.005-.018.009-0.035,0.013-0.053a0.231,0.231,0,0,0,0-.038h0a0.2,0.2,0,0,0,.006.037c0,0.018.008,0.036,0.013,0.054l0.3,1.075h0.2l0.359-1.39h-0.2l-0.248,1.093a0.512,0.512,0,0,0-.01.054,0.273,0.273,0,0,0,0,.037h0a0.291,0.291,0,0,0,0-.039,0.437,0.437,0,0,0-.012-0.052l-0.288-1.093h-0.209l-0.29,1.1a0.405,0.405,0,0,0-.012.05,0.221,0.221,0,0,0,0,.038h0c0-.007,0-0.019,0-0.036s-0.007-.034-0.011-0.052l-0.245-1.1h-0.2l0.359,1.39h0.1Zm1.768,0.027a0.423,0.423,0,0,0,.336-0.147,0.651,0.651,0,0,0,0-.775,0.457,0.457,0,0,0-.672,0,0.651,0.651,0,0,0,0,.775,0.426,0.426,0,0,0,.336.147h0Zm0-.146a0.249,0.249,0,0,1-.211-0.1,0.552,0.552,0,0,1,0-.566,0.262,0.262,0,0,1,.421,0,0.546,0.546,0,0,1,0,.566,0.248,0.248,0,0,1-.21.1h0Zm0.986,0.146a0.423,0.423,0,0,0,.336-0.147,0.651,0.651,0,0,0,0-.775,0.457,0.457,0,0,0-.672,0,0.651,0.651,0,0,0,0,.775,0.426,0.426,0,0,0,.336.147h0Zm0-.146a0.249,0.249,0,0,1-.211-0.1,0.552,0.552,0,0,1,0-.566,0.262,0.262,0,0,1,.421,0,0.546,0.546,0,0,1,0,.566,0.248,0.248,0,0,1-.21.1h0Zm1.231,0.012,0.021-.031v0.138h0.156v-1.39H106.88v0.525l-0.013-.019a0.334,0.334,0,0,0-.291-0.158,0.368,0.368,0,0,0-.3.14,0.559,0.559,0,0,0-.115.368,0.646,0.646,0,0,0,.119.409,0.381,0.381,0,0,0,.319.152h0a0.327,0.327,0,0,0,.271-0.134h0Zm-0.061-.67a0.6,0.6,0,0,1,.07.319,0.386,0.386,0,0,1-.074.246,0.239,0.239,0,0,1-.2.094,0.23,0.23,0,0,1-.2-0.1,0.5,0.5,0,0,1-.071-0.288,0.5,0.5,0,0,1,.066-0.29,0.235,0.235,0,0,1,.206-0.091A0.224,0.224,0,0,1,106.81,175.376Zm-9.237,4.645h0.191l0.144-.4h0.548l0.14,0.4h0.2L98.3,178.632H98.091l-0.518,1.389h0Zm0.615-1.185h0l0.212,0.616H97.968l0.221-.616h0Zm0.68,1.185h0.168V179.48a0.407,0.407,0,0,1,.071-0.249,0.219,0.219,0,0,1,.183-0.1,0.154,0.154,0,0,1,.124.049,0.215,0.215,0,0,1,.043.144v0.693h0.168v-0.568a0.377,0.377,0,0,1,.064-0.232,0.2,0.2,0,0,1,.174-0.086,0.161,0.161,0,0,1,.136.059,0.277,0.277,0,0,1,.047.175v0.652h0.168v-0.71a0.333,0.333,0,0,0-.085-0.245,0.325,0.325,0,0,0-.242-0.087,0.329,0.329,0,0,0-.258.128l-0.027.035a0.258,0.258,0,0,0-.055-0.082,0.285,0.285,0,0,0-.214-0.081,0.342,0.342,0,0,0-.27.136l-0.034.045v-0.15H98.868v1.011h0Zm2.21-.06a0.43,0.43,0,0,0,.149-0.254h-0.166a0.222,0.222,0,0,1-.088.14,0.264,0.264,0,0,1-.167.055,0.26,0.26,0,0,1-.224-0.1,0.439,0.439,0,0,1-.068-0.231h0.729l0-.06a0.591,0.591,0,0,0-.121-0.388,0.388,0.388,0,0,0-.316-0.148,0.429,0.429,0,0,0-.344.151,0.6,0.6,0,0,0-.129.406,0.548,0.548,0,0,0,.122.377,0.423,0.423,0,0,0,.333.136h0A0.452,0.452,0,0,0,101.078,179.961Zm-0.564-.523a0.385,0.385,0,0,1,.075-0.206,0.257,0.257,0,0,1,.212-0.1,0.239,0.239,0,0,1,.2.087,0.38,0.38,0,0,1,.069.219h-0.556Zm0.878,0.583h0.168V179.48a0.344,0.344,0,0,1,.074-0.236,0.27,0.27,0,0,1,.211-0.083h0.034v-0.174a0.135,0.135,0,0,0-.047-0.009,0.286,0.286,0,0,0-.235.13,0.581,0.581,0,0,0-.045.074V179.01h-0.16v1.011h0Zm0.542,0H102.1V179.01h-0.168v1.011h0Zm0-1.2H102.1v-0.192h-0.172v0.192Zm0.971,0.833a0.326,0.326,0,0,1-.088.181,0.223,0.223,0,0,1-.163.064,0.226,0.226,0,0,1-.2-0.1,0.512,0.512,0,0,1-.067-0.29,0.493,0.493,0,0,1,.072-0.285,0.231,0.231,0,0,1,.2-0.1,0.242,0.242,0,0,1,.172.06,0.249,0.249,0,0,1,.075.168h0.161a0.38,0.38,0,0,0-.115-0.275,0.406,0.406,0,0,0-.287-0.1,0.41,0.41,0,0,0-.33.146,0.581,0.581,0,0,0-.123.39,0.594,0.594,0,0,0,.119.389,0.388,0.388,0,0,0,.317.145,0.407,0.407,0,0,0,.286-0.1,0.472,0.472,0,0,0,.133-0.292H102.9Zm0.823,0.277a0.3,0.3,0,0,0,.043-0.045,0.227,0.227,0,0,0,.04.1,0.166,0.166,0,0,0,.138.053,0.291,0.291,0,0,0,.046,0,0.276,0.276,0,0,0,.051-0.016V179.9l-0.031,0-0.022,0a0.056,0.056,0,0,1-.041-0.015,0.057,0.057,0,0,1-.016-0.042v-0.556a0.286,0.286,0,0,0-.095-0.233,0.422,0.422,0,0,0-.277-0.08,0.463,0.463,0,0,0-.3.084,0.335,0.335,0,0,0-.115.25h0.155a0.216,0.216,0,0,1,.07-0.145,0.249,0.249,0,0,1,.162-0.049,0.28,0.28,0,0,1,.169.046,0.152,0.152,0,0,1,.06.127V179.3a0.115,0.115,0,0,1-.017.064,0.084,0.084,0,0,1-.051.034,0.277,0.277,0,0,1-.053.01l-0.228.029a0.4,0.4,0,0,0-.236.1,0.293,0.293,0,0,0-.081.217,0.278,0.278,0,0,0,.086.214,0.329,0.329,0,0,0,.232.08h0a0.438,0.438,0,0,0,.308-0.115h0Zm0.038-.253a0.33,0.33,0,0,1-.006.039,0.244,0.244,0,0,1-.083.115,0.347,0.347,0,0,1-.224.073,0.175,0.175,0,0,1-.13-0.046,0.178,0.178,0,0,1-.045-0.131,0.126,0.126,0,0,1,.056-0.109,0.4,0.4,0,0,1,.177-0.057l0.154-.023a0.364,0.364,0,0,0,.1-0.031v0.11h0c0,0.022,0,.042,0,0.06h0Zm0.377,0.34h0.168V179.48a0.408,0.408,0,0,1,.071-0.252,0.231,0.231,0,0,1,.192-0.093,0.205,0.205,0,0,1,.165.059,0.29,0.29,0,0,1,.051.192v0.635h0.168v-0.693a0.352,0.352,0,0,0-.09-0.258,0.341,0.341,0,0,0-.254-0.091,0.345,0.345,0,0,0-.274.13l-0.037.05V179.01h-0.16v1.011h0Zm2.49-.163,0.01-.012,0.045,0.174H106.8v-0.735h-0.6v0.159h0.43v0.017a0.567,0.567,0,0,1-.015.125,0.351,0.351,0,0,1-.038.1,0.615,0.615,0,0,1-.037.052,0.425,0.425,0,0,1-.343.156,0.41,0.41,0,0,1-.338-0.148,0.77,0.77,0,0,1,0-.832,0.4,0.4,0,0,1,.325-0.158,0.469,0.469,0,0,1,.276.075,0.325,0.325,0,0,1,.133.213h0.179a0.493,0.493,0,0,0-.19-0.327,0.606,0.606,0,0,0-.387-0.127,0.6,0.6,0,0,0-.471.2,0.769,0.769,0,0,0-.18.531,0.778,0.778,0,0,0,.176.53,0.584,0.584,0,0,0,.462.2h0a0.55,0.55,0,0,0,.444-0.2h0Zm0.767,0.191a0.423,0.423,0,0,0,.337-0.148,0.649,0.649,0,0,0,0-.774,0.455,0.455,0,0,0-.672,0,0.649,0.649,0,0,0,0,.774,0.42,0.42,0,0,0,.335.148h0Zm0-.147a0.248,0.248,0,0,1-.21-0.1,0.462,0.462,0,0,1-.078-0.282,0.469,0.469,0,0,1,.078-0.284,0.264,0.264,0,0,1,.421,0,0.469,0.469,0,0,1,.078.284,0.462,0.462,0,0,1-.078.282,0.25,0.25,0,0,1-.211.1h0Zm0.946-.013h-0.06a0.117,0.117,0,0,1-.071-0.02,0.063,0.063,0,0,1-.027-0.054v-0.666h0.158V179.01h-0.158v-0.284h-0.168v0.284H107.88v0.139h0.138v0.666a0.252,0.252,0,0,0,.046.17,0.207,0.207,0,0,0,.155.049,0.927,0.927,0,0,0,.125-0.014h0v-0.131Zm0.088,0.132H108.6V179.48a0.4,0.4,0,0,1,.074-0.252,0.246,0.246,0,0,1,.2-0.093,0.2,0.2,0,0,1,.155.055,0.281,0.281,0,0,1,.047.181v0.65h0.168v-0.693a0.356,0.356,0,0,0-.089-0.258,0.345,0.345,0,0,0-.255-0.091,0.342,0.342,0,0,0-.273.13l-0.029.038v-0.515h-0.168v1.389h0Zm0.991,0h0.168V179.01h-0.168v1.011h0Zm0-1.2h0.171v-0.192h-0.171v0.192Zm0.97,0.833a0.332,0.332,0,0,1-.087.181,0.249,0.249,0,0,1-.364-0.033,0.512,0.512,0,0,1-.067-0.29,0.493,0.493,0,0,1,.072-0.285,0.232,0.232,0,0,1,.2-0.1,0.241,0.241,0,0,1,.171.06,0.249,0.249,0,0,1,.075.168h0.161a0.38,0.38,0,0,0-.115-0.275,0.406,0.406,0,0,0-.287-0.1,0.41,0.41,0,0,0-.33.146,0.586,0.586,0,0,0-.122.39,0.594,0.594,0,0,0,.118.389,0.388,0.388,0,0,0,.317.145,0.407,0.407,0,0,0,.286-0.1,0.472,0.472,0,0,0,.133-0.292h-0.161Z"/>
  </g>
</svg>
