<svg id="Dada" xmlns="http://www.w3.org/2000/svg" width="300" height="300" viewBox="0 0 300 300">
  <defs>
    <style>
      .cls-1 {
        fill: #575861;
      }

      .cls-1, .cls-2, .cls-3 {
        fill-rule: evenodd;
      }

      .cls-2 {
        fill: #e4e1da;
      }

      .cls-3 {
        fill: #31323d;
      }
    </style>
  </defs>
  <g id="dada-placard-whistlersmother">
    <path id="Rectangle_2_copy" data-name="Rectangle 2 copy" class="cls-1" d="M95,166h40.01v26.019H95V166Z"/>
    <path id="Rectangle_2_copy_2" data-name="Rectangle 2 copy 2" class="cls-2" d="M95.687,166.7h38.626V191.3H95.687V166.7Z"/>
    <path id="dada.nyc" class="cls-3" d="M99.487,185.945l0.057-.083v0.367h0.414v-3.7H99.512v1.4l-0.035-.05a0.89,0.89,0,0,0-.774-0.42,0.981,0.981,0,0,0-.8.372,1.494,1.494,0,0,0-.305.978,1.726,1.726,0,0,0,.315,1.09,1.02,1.02,0,0,0,.848.4h0a0.868,0.868,0,0,0,.722-0.357h0Zm-0.162-1.781a1.6,1.6,0,0,1,.187.849,1.017,1.017,0,0,1-.2.655,0.637,0.637,0,0,1-.523.247,0.611,0.611,0,0,1-.534-0.269,1.331,1.331,0,0,1-.187-0.766,1.346,1.346,0,0,1,.174-0.771,0.627,0.627,0,0,1,.548-0.242A0.6,0.6,0,0,1,99.325,184.164ZM101.69,186a0.921,0.921,0,0,0,.114-0.121,0.6,0.6,0,0,0,.106.264,0.446,0.446,0,0,0,.367.141,0.618,0.618,0,0,0,.122-0.015,0.826,0.826,0,0,0,.136-0.04V185.9a0.735,0.735,0,0,1-.083.015,0.383,0.383,0,0,1-.058,0,0.149,0.149,0,0,1-.11-0.041,0.147,0.147,0,0,1-.041-0.11v-1.478a0.764,0.764,0,0,0-.253-0.619,1.117,1.117,0,0,0-.737-0.213,1.221,1.221,0,0,0-.788.223,0.89,0.89,0,0,0-.308.665h0.412a0.571,0.571,0,0,1,.187-0.386,0.653,0.653,0,0,1,.43-0.13,0.731,0.731,0,0,1,.449.122,0.4,0.4,0,0,1,.161.338v0.023a0.3,0.3,0,0,1-.047.171,0.225,0.225,0,0,1-.134.09,1.008,1.008,0,0,1-.141.026l-0.608.077a1.051,1.051,0,0,0-.626.267,0.775,0.775,0,0,0-.214.576,0.74,0.74,0,0,0,.228.57,0.872,0.872,0,0,0,.617.211h0a1.174,1.174,0,0,0,.819-0.3h0Zm0.1-.674a0.644,0.644,0,0,1-.015.1,0.652,0.652,0,0,1-.221.306,0.925,0.925,0,0,1-.595.194,0.467,0.467,0,0,1-.345-0.122,0.472,0.472,0,0,1-.121-0.348,0.338,0.338,0,0,1,.149-0.291,1.084,1.084,0,0,1,.471-0.152l0.409-.06a0.94,0.94,0,0,0,.275-0.083v0.292h0a1.572,1.572,0,0,1-.007.16h0Zm2.535,0.621,0.057-.083v0.367H104.8v-3.7h-0.447v1.4l-0.034-.05a0.889,0.889,0,0,0-.774-0.42,0.98,0.98,0,0,0-.8.372,1.5,1.5,0,0,0-.305.978,1.725,1.725,0,0,0,.315,1.09,1.02,1.02,0,0,0,.848.4h0a0.869,0.869,0,0,0,.722-0.357h0Zm-0.163-1.781a1.6,1.6,0,0,1,.187.849,1.019,1.019,0,0,1-.2.655,0.637,0.637,0,0,1-.523.247,0.611,0.611,0,0,1-.535-0.269,1.726,1.726,0,0,1-.013-1.537,0.625,0.625,0,0,1,.548-0.242A0.6,0.6,0,0,1,104.161,184.164ZM106.526,186a0.921,0.921,0,0,0,.114-0.121,0.6,0.6,0,0,0,.107.264,0.444,0.444,0,0,0,.367.141,0.6,0.6,0,0,0,.121-0.015,0.837,0.837,0,0,0,.137-0.04V185.9a0.777,0.777,0,0,1-.083.015,0.383,0.383,0,0,1-.058,0,0.141,0.141,0,0,1-.152-0.151v-1.478a0.761,0.761,0,0,0-.253-0.619,1.114,1.114,0,0,0-.736-0.213,1.226,1.226,0,0,0-.789.223,0.892,0.892,0,0,0-.307.665h0.411a0.572,0.572,0,0,1,.188-0.386,0.651,0.651,0,0,1,.43-0.13,0.733,0.733,0,0,1,.449.122,0.4,0.4,0,0,1,.161.338v0.023a0.3,0.3,0,0,1-.047.171,0.228,0.228,0,0,1-.134.09,1.022,1.022,0,0,1-.142.026l-0.607.077a1.049,1.049,0,0,0-.626.267,0.776,0.776,0,0,0-.215.576,0.74,0.74,0,0,0,.228.57,0.873,0.873,0,0,0,.618.211h0a1.171,1.171,0,0,0,.818-0.3h0Zm0.1-.674a0.565,0.565,0,0,1-.014.1,0.659,0.659,0,0,1-.221.306,0.927,0.927,0,0,1-.595.194,0.467,0.467,0,0,1-.345-0.122,0.473,0.473,0,0,1-.122-0.348,0.341,0.341,0,0,1,.149-0.291,1.084,1.084,0,0,1,.471-0.152l0.41-.06a0.958,0.958,0,0,0,.275-0.083v0.292h0a1.555,1.555,0,0,1-.008.16h0Zm0.913,0.905h0.531v-0.545h-0.531v0.545Zm0.894,0h0.446v-1.44a1.085,1.085,0,0,1,.188-0.67,0.608,0.608,0,0,1,.511-0.247,0.548,0.548,0,0,1,.438.157,0.778,0.778,0,0,1,.135.511v1.689H110.6v-1.842a0.934,0.934,0,0,0-.239-0.686,0.993,0.993,0,0,0-1.4.1l-0.1.133v-0.4h-0.424v2.689h0ZM113,183.54h-0.488l-0.719,2.224h0l-0.708-2.224h-0.51l0.985,2.735h0l-0.008.043a1.853,1.853,0,0,1-.23.47,0.315,0.315,0,0,1-.253.125,0.768,0.768,0,0,1-.256-0.04v0.42a0.674,0.674,0,0,0,.216.027,0.721,0.721,0,0,0,.547-0.191,2.646,2.646,0,0,0,.415-0.812L113,183.54h0Zm1.645,1.722a0.866,0.866,0,0,1-.232.481,0.66,0.66,0,0,1-.966-0.089,1.366,1.366,0,0,1-.178-0.772,1.308,1.308,0,0,1,.192-0.758,0.612,0.612,0,0,1,.529-0.275,0.649,0.649,0,0,1,.457.158,0.671,0.671,0,0,1,.2.448h0.429a1.008,1.008,0,0,0-.3-0.73,1.077,1.077,0,0,0-.764-0.266,1.088,1.088,0,0,0-.876.386,1.551,1.551,0,0,0-.327,1.037,1.588,1.588,0,0,0,.315,1.036,1.035,1.035,0,0,0,.844.384,1.068,1.068,0,0,0,.758-0.266,1.248,1.248,0,0,0,.355-0.774h-0.429Z"/>
    <path id="vVs_James_Abbott_NcNeil_Whistler_Whistler_s_Mother" data-name="vVs James Abbott NcNeil Whistler Whistler&apos;s Mother" class="cls-3" d="M97.934,172.284h0.18l0.372-1.011H98.3l-0.277.828h0l-0.268-.828h-0.2Zm1.028,0h0.2l0.5-1.39H99.455l-0.392,1.189h0l-0.393-1.189H98.463Zm1.514-.718a0.312,0.312,0,0,0-.11-0.238,0.419,0.419,0,0,0-.277-0.086,0.41,0.41,0,0,0-.272.084,0.279,0.279,0,0,0-.1.226,0.233,0.233,0,0,0,.06.171,0.415,0.415,0,0,0,.2.095l0.174,0.042a0.473,0.473,0,0,1,.154.055,0.093,0.093,0,0,1,.038.08,0.152,0.152,0,0,1-.058.127,0.285,0.285,0,0,1-.172.043,0.317,0.317,0,0,1-.192-0.048,0.216,0.216,0,0,1-.075-0.156H99.684a0.353,0.353,0,0,0,.115.266,0.492,0.492,0,0,0,.314.085,0.445,0.445,0,0,0,.289-0.088,0.294,0.294,0,0,0,.107-0.239,0.236,0.236,0,0,0-.062-0.174,0.434,0.434,0,0,0-.208-0.1l-0.174-.041a0.518,0.518,0,0,1-.152-0.055,0.094,0.094,0,0,1-.038-0.081,0.121,0.121,0,0,1,.055-0.108,0.281,0.281,0,0,1,.159-0.037,0.262,0.262,0,0,1,.162.046,0.177,0.177,0,0,1,.067.131h0.158Zm-2.3,4.2a0.305,0.305,0,0,1-.059.2,0.22,0.22,0,0,1-.313.012,0.247,0.247,0,0,1-.054-0.171v-0.1H97.579v0.1a0.363,0.363,0,0,0,.1.287,0.4,0.4,0,0,0,.3.1,0.376,0.376,0,0,0,.291-0.112,0.452,0.452,0,0,0,.1-0.317v-1H98.179v1Zm0.941,0.3a0.391,0.391,0,0,0,.043-0.046,0.229,0.229,0,0,0,.04.1,0.168,0.168,0,0,0,.138.053,0.217,0.217,0,0,0,.046-0.006,0.389,0.389,0,0,0,.051-0.015v-0.123l-0.031.006-0.022,0a0.058,0.058,0,0,1-.042-0.016,0.055,0.055,0,0,1-.015-0.041v-0.556a0.287,0.287,0,0,0-.1-0.233,0.422,0.422,0,0,0-.277-0.08,0.461,0.461,0,0,0-.3.084,0.334,0.334,0,0,0-.116.25H98.7a0.213,0.213,0,0,1,.07-0.145,0.242,0.242,0,0,1,.162-0.049,0.272,0.272,0,0,1,.169.046,0.15,0.15,0,0,1,.061.127v0.008a0.112,0.112,0,0,1-.018.065,0.087,0.087,0,0,1-.05.034,0.427,0.427,0,0,1-.053.009l-0.229.029a0.4,0.4,0,0,0-.236.1,0.289,0.289,0,0,0-.081.216,0.279,0.279,0,0,0,.086.215,0.328,0.328,0,0,0,.232.079h0a0.442,0.442,0,0,0,.308-0.114h0Zm0.037-.254a0.185,0.185,0,0,1-.006.039,0.246,0.246,0,0,1-.083.116,0.35,0.35,0,0,1-.224.072,0.177,0.177,0,0,1-.13-0.045,0.179,0.179,0,0,1-.046-0.131,0.129,0.129,0,0,1,.056-0.11A0.415,0.415,0,0,1,98.9,175.7l0.154-.023a0.34,0.34,0,0,0,.1-0.031v0.11h0a0.574,0.574,0,0,1,0,.06h0Zm0.378,0.341H99.7v-0.542a0.411,0.411,0,0,1,.071-0.249,0.219,0.219,0,0,1,.183-0.1,0.15,0.15,0,0,1,.124.05,0.217,0.217,0,0,1,.043.144v0.693h0.167v-0.568a0.379,0.379,0,0,1,.065-0.233,0.207,0.207,0,0,1,.173-0.086,0.161,0.161,0,0,1,.136.06,0.271,0.271,0,0,1,.047.174v0.653h0.168v-0.71a0.336,0.336,0,0,0-.085-0.246,0.35,0.35,0,0,0-.5.042l-0.027.035a0.256,0.256,0,0,0-.055-0.083,0.289,0.289,0,0,0-.213-0.08,0.341,0.341,0,0,0-.27.135l-0.034.045v-0.15h-0.16v1.012h0Zm2.21-.06a0.433,0.433,0,0,0,.149-0.254h-0.166a0.225,0.225,0,0,1-.088.14,0.27,0.27,0,0,1-.167.055,0.258,0.258,0,0,1-.224-0.1,0.439,0.439,0,0,1-.068-0.23h0.729l0-.061a0.592,0.592,0,0,0-.121-0.388,0.388,0.388,0,0,0-.316-0.147,0.426,0.426,0,0,0-.344.151,0.6,0.6,0,0,0-.129.406,0.545,0.545,0,0,0,.122.376,0.42,0.42,0,0,0,.333.136h0A0.457,0.457,0,0,0,101.745,176.093Zm-0.564-.524a0.388,0.388,0,0,1,.075-0.206,0.259,0.259,0,0,1,.212-0.1,0.239,0.239,0,0,1,.2.087,0.382,0.382,0,0,1,.069.219h-0.556Zm1.584-.135a0.31,0.31,0,0,0-.109-0.237,0.424,0.424,0,0,0-.278-0.086,0.411,0.411,0,0,0-.272.084,0.277,0.277,0,0,0-.1.226,0.23,0.23,0,0,0,.06.17,0.419,0.419,0,0,0,.2.1l0.174,0.041a0.526,0.526,0,0,1,.154.055,0.093,0.093,0,0,1,.038.08,0.148,0.148,0,0,1-.058.127,0.284,0.284,0,0,1-.171.044,0.31,0.31,0,0,1-.193-0.049,0.216,0.216,0,0,1-.075-0.156h-0.162a0.359,0.359,0,0,0,.115.267,0.493,0.493,0,0,0,.314.084,0.438,0.438,0,0,0,.289-0.088,0.292,0.292,0,0,0,.107-0.238,0.24,0.24,0,0,0-.062-0.175,0.438,0.438,0,0,0-.208-0.1l-0.173-.042a0.457,0.457,0,0,1-.152-0.055,0.092,0.092,0,0,1-.039-0.081,0.122,0.122,0,0,1,.055-0.108,0.287,0.287,0,0,1,.159-0.037,0.258,0.258,0,0,1,.162.047,0.172,0.172,0,0,1,.067.13h0.158Zm0.507,0.719h0.191l0.145-.4h0.547l0.14,0.4h0.2L104,174.763H103.79l-0.518,1.39h0Zm0.615-1.186h0l0.211,0.617h-0.432l0.221-.617h0Zm0.667,1.186h0.157v-0.125l0.016,0.021a0.322,0.322,0,0,0,.269.131,0.379,0.379,0,0,0,.319-0.15,0.66,0.66,0,0,0,.116-0.413,0.558,0.558,0,0,0-.115-0.369,0.38,0.38,0,0,0-.31-0.137,0.326,0.326,0,0,0-.284.162v-0.51h-0.168v1.39Zm0.237-.208a0.4,0.4,0,0,1-.069-0.25,0.634,0.634,0,0,1,.064-0.326,0.219,0.219,0,0,1,.2-0.1,0.232,0.232,0,0,1,.2.091,0.492,0.492,0,0,1,.065.281,0.52,0.52,0,0,1-.068.294,0.225,0.225,0,0,1-.2.1h0a0.237,0.237,0,0,1-.2-0.088h0Zm0.749,0.208H105.7v-0.125l0.016,0.021a0.322,0.322,0,0,0,.269.131,0.379,0.379,0,0,0,.319-0.15,0.66,0.66,0,0,0,.116-0.413,0.553,0.553,0,0,0-.115-0.369,0.38,0.38,0,0,0-.31-0.137,0.326,0.326,0,0,0-.284.162v-0.51H105.54v1.39Zm0.237-.208a0.4,0.4,0,0,1-.069-0.25,0.634,0.634,0,0,1,.064-0.326,0.22,0.22,0,0,1,.2-0.1,0.231,0.231,0,0,1,.2.091,0.484,0.484,0,0,1,.065.281,0.52,0.52,0,0,1-.068.294,0.225,0.225,0,0,1-.2.1h0a0.237,0.237,0,0,1-.2-0.088h0Zm1.169,0.235a0.423,0.423,0,0,0,.336-0.147,0.651,0.651,0,0,0,0-.775,0.457,0.457,0,0,0-.672,0,0.651,0.651,0,0,0,0,.775,0.426,0.426,0,0,0,.336.147h0Zm0-.146a0.249,0.249,0,0,1-.211-0.1,0.552,0.552,0,0,1,0-.566,0.262,0.262,0,0,1,.421,0,0.546,0.546,0,0,1,0,.566,0.248,0.248,0,0,1-.21.1h0Zm0.946-.014h-0.06A0.12,0.12,0,0,1,107.76,176a0.067,0.067,0,0,1-.026-0.054V175.28h0.158v-0.139h-0.158v-0.284h-0.168v0.284h-0.138v0.139h0.138v0.667a0.25,0.25,0,0,0,.045.169,0.2,0.2,0,0,0,.156.049,0.9,0.9,0,0,0,.125-0.013h0V176.02Zm0.454,0h-0.06a0.117,0.117,0,0,1-.071-0.019,0.065,0.065,0,0,1-.027-0.054V175.28h0.158v-0.139h-0.158v-0.284H108.02v0.284h-0.138v0.139h0.138v0.667a0.244,0.244,0,0,0,.046.169,0.2,0.2,0,0,0,.155.049,0.885,0.885,0,0,0,.125-0.013h0V176.02Zm0.743-1,0.706,1.134H110v-1.39h-0.179v1.129l-0.687-1.129h-0.223v1.39h0.18v-1.134Zm1.728,0.77a0.325,0.325,0,0,1-.087.181,0.228,0.228,0,0,1-.164.064,0.225,0.225,0,0,1-.2-0.1,0.509,0.509,0,0,1-.068-0.29,0.492,0.492,0,0,1,.073-0.285,0.229,0.229,0,0,1,.2-0.1,0.244,0.244,0,0,1,.172.06,0.258,0.258,0,0,1,.074.168h0.162a0.381,0.381,0,0,0-.115-0.274,0.454,0.454,0,0,0-.617.045,0.584,0.584,0,0,0-.123.39,0.6,0.6,0,0,0,.119.39,0.387,0.387,0,0,0,.317.144,0.4,0.4,0,0,0,.285-0.1,0.473,0.473,0,0,0,.134-0.291h-0.162Zm0.454-.77,0.706,1.134h0.2v-1.39H112v1.129l-0.687-1.129h-0.223v1.39h0.18v-1.134Zm1.8,1.074a0.423,0.423,0,0,0,.149-0.254h-0.166a0.219,0.219,0,0,1-.087.14,0.273,0.273,0,0,1-.168.055,0.258,0.258,0,0,1-.224-0.1,0.448,0.448,0,0,1-.068-0.23h0.729l0-.061a0.6,0.6,0,0,0-.12-0.388,0.389,0.389,0,0,0-.316-0.147,0.427,0.427,0,0,0-.345.151,0.6,0.6,0,0,0-.128.406,0.545,0.545,0,0,0,.121.376,0.423,0.423,0,0,0,.333.136h0A0.455,0.455,0,0,0,113.068,176.093Zm-0.564-.524a0.389,0.389,0,0,1,.076-0.206,0.257,0.257,0,0,1,.211-0.1,0.238,0.238,0,0,1,.2.087,0.382,0.382,0,0,1,.069.219H112.5Zm0.861,0.584h0.168v-1.012h-0.168v1.012h0Zm0-1.2h0.172v-0.193h-0.172v0.193Zm0.348,1.2h0.168v-1.39h-0.168v1.39h0Zm1.164,0h0.1l0.291-1.075a0.5,0.5,0,0,0,.012-0.053,0.263,0.263,0,0,0,0-.038h0a0.294,0.294,0,0,0,0,.037c0,0.018.009,0.036,0.014,0.054l0.3,1.075h0.2l0.359-1.39h-0.2l-0.247,1.093a0.517,0.517,0,0,0-.011.054,0.232,0.232,0,0,0,0,.037h0a0.184,0.184,0,0,0,0-.039,0.437,0.437,0,0,0-.012-0.052l-0.288-1.093h-0.209l-0.29,1.1c0,0.016-.008.033-0.011,0.05a0.247,0.247,0,0,0,0,.038h0a0.223,0.223,0,0,0,0-.036c0-.017-0.006-0.034-0.011-0.052l-0.244-1.1h-0.2l0.359,1.39h0.1Zm1.361,0H116.4v-0.542a0.39,0.39,0,0,1,.075-0.252,0.245,0.245,0,0,1,.2-0.093,0.194,0.194,0,0,1,.155.055,0.274,0.274,0,0,1,.048.181v0.651h0.168V175.46a0.349,0.349,0,0,0-.09-0.258,0.34,0.34,0,0,0-.255-0.091,0.344,0.344,0,0,0-.273.129l-0.029.038v-0.515h-0.168v1.39h0Zm0.992,0H117.4v-1.012h-0.168v1.012h0Zm0-1.2H117.4v-0.193h-0.172v0.193Zm1.074,0.478a0.311,0.311,0,0,0-.11-0.237,0.421,0.421,0,0,0-.277-0.086,0.41,0.41,0,0,0-.272.084,0.277,0.277,0,0,0-.1.226,0.23,0.23,0,0,0,.059.17,0.418,0.418,0,0,0,.2.1l0.173,0.041a0.5,0.5,0,0,1,.154.055,0.091,0.091,0,0,1,.039.08,0.148,0.148,0,0,1-.059.127,0.284,0.284,0,0,1-.171.044,0.312,0.312,0,0,1-.193-0.049,0.216,0.216,0,0,1-.075-0.156h-0.161a0.355,0.355,0,0,0,.115.267,0.491,0.491,0,0,0,.314.084,0.441,0.441,0,0,0,.289-0.088,0.291,0.291,0,0,0,.106-0.238,0.239,0.239,0,0,0-.061-0.175,0.443,0.443,0,0,0-.208-0.1l-0.174-.042a0.457,0.457,0,0,1-.152-0.055,0.091,0.091,0,0,1-.038-0.081,0.123,0.123,0,0,1,.054-0.108,0.292,0.292,0,0,1,.159-0.037,0.258,0.258,0,0,1,.162.047,0.176,0.176,0,0,1,.068.13H118.3Zm0.516,0.586h-0.06a0.115,0.115,0,0,1-.071-0.019,0.065,0.065,0,0,1-.027-0.054V175.28h0.158v-0.139h-0.158v-0.284H118.49v0.284h-0.138v0.139h0.138v0.667a0.25,0.25,0,0,0,.045.169,0.205,0.205,0,0,0,.156.049,0.885,0.885,0,0,0,.125-0.013h0V176.02Zm0.091,0.133h0.168v-1.39h-0.168v1.39h0Zm1.039-.06a0.429,0.429,0,0,0,.15-0.254H119.93a0.225,0.225,0,0,1-.088.14,0.273,0.273,0,0,1-.168.055,0.259,0.259,0,0,1-.224-0.1,0.448,0.448,0,0,1-.068-0.23h0.729l0-.061a0.6,0.6,0,0,0-.12-0.388,0.389,0.389,0,0,0-.316-0.147,0.43,0.43,0,0,0-.345.151,0.608,0.608,0,0,0-.128.406,0.545,0.545,0,0,0,.121.376,0.423,0.423,0,0,0,.333.136h0A0.453,0.453,0,0,0,119.946,176.093Zm-0.564-.524a0.389,0.389,0,0,1,.076-0.206,0.258,0.258,0,0,1,.212-0.1,0.237,0.237,0,0,1,.2.087,0.382,0.382,0,0,1,.069.219h-0.556Zm0.879,0.584h0.168v-0.542a0.344,0.344,0,0,1,.074-0.236,0.267,0.267,0,0,1,.21-0.083h0.035v-0.174a0.161,0.161,0,0,0-.048-0.008,0.284,0.284,0,0,0-.234.129,0.725,0.725,0,0,0-.046.074v-0.173h-0.159v1.012h0Zm-22.225,3.868h0.1l0.291-1.075a0.514,0.514,0,0,0,.012-0.052,0.24,0.24,0,0,0,0-.038h0a0.22,0.22,0,0,0,.006.037c0,0.017.008,0.035,0.013,0.053l0.3,1.075h0.2l0.359-1.389h-0.2l-0.248,1.093c0,0.018-.008.036-0.011,0.053a0.285,0.285,0,0,0,0,.037h0a0.237,0.237,0,0,0,0-.038,0.48,0.48,0,0,0-.012-0.052l-0.288-1.093H98.343l-0.29,1.1c0,0.017-.008.033-0.011,0.05a0.237,0.237,0,0,0,0,.038h0a0.233,0.233,0,0,0,0-.035c0-.017-0.006-0.035-0.011-0.053l-0.244-1.1h-0.2l0.359,1.389h0.1Zm1.361,0h0.168V179.48a0.391,0.391,0,0,1,.075-0.252,0.245,0.245,0,0,1,.2-0.093,0.193,0.193,0,0,1,.155.055,0.278,0.278,0,0,1,.047.181v0.65h0.168v-0.693a0.356,0.356,0,0,0-.089-0.258,0.374,0.374,0,0,0-.528.039l-0.029.038v-0.515H99.4v1.389h0Zm0.991,0h0.168V179.01h-0.168v1.011h0Zm0-1.2h0.171v-0.192h-0.171v0.192Zm1.073,0.479a0.31,0.31,0,0,0-.109-0.237,0.419,0.419,0,0,0-.278-0.087,0.411,0.411,0,0,0-.272.084,0.279,0.279,0,0,0-.1.227,0.232,0.232,0,0,0,.06.17,0.405,0.405,0,0,0,.2.095l0.174,0.042a0.473,0.473,0,0,1,.154.055,0.093,0.093,0,0,1,.038.08,0.148,0.148,0,0,1-.058.127,0.285,0.285,0,0,1-.172.043,0.316,0.316,0,0,1-.192-0.048,0.216,0.216,0,0,1-.075-0.156h-0.162a0.355,0.355,0,0,0,.115.266,0.486,0.486,0,0,0,.314.085,0.438,0.438,0,0,0,.289-0.088,0.293,0.293,0,0,0,.107-0.238,0.238,0.238,0,0,0-.062-0.175,0.434,0.434,0,0,0-.208-0.1l-0.173-.041a0.5,0.5,0,0,1-.153-0.055,0.094,0.094,0,0,1-.038-0.081,0.12,0.12,0,0,1,.055-0.108,0.279,0.279,0,0,1,.159-0.037,0.258,0.258,0,0,1,.162.046,0.177,0.177,0,0,1,.067.131h0.158Zm0.516,0.586h-0.059a0.12,0.12,0,0,1-.072-0.02,0.062,0.062,0,0,1-.026-0.054v-0.666h0.157V179.01h-0.157v-0.284h-0.168v0.284h-0.138v0.139h0.138v0.666a0.253,0.253,0,0,0,.045.17,0.207,0.207,0,0,0,.155.049,0.927,0.927,0,0,0,.125-0.014h0v-0.131Zm0.092,0.132h0.168v-1.389h-0.168v1.389h0Zm1.039-.06a0.425,0.425,0,0,0,.149-0.254H103.09a0.218,0.218,0,0,1-.088.14,0.3,0.3,0,0,1-.391-0.041,0.439,0.439,0,0,1-.068-0.231h0.729l0-.06a0.6,0.6,0,0,0-.12-0.388,0.392,0.392,0,0,0-.317-0.148,0.429,0.429,0,0,0-.344.151,0.6,0.6,0,0,0-.129.406,0.548,0.548,0,0,0,.122.377,0.426,0.426,0,0,0,.333.136h0A0.452,0.452,0,0,0,103.107,179.961Zm-0.564-.523a0.393,0.393,0,0,1,.075-0.206,0.257,0.257,0,0,1,.212-0.1,0.239,0.239,0,0,1,.2.087,0.38,0.38,0,0,1,.069.219h-0.556Zm0.878,0.583h0.168V179.48a0.344,0.344,0,0,1,.074-0.236,0.27,0.27,0,0,1,.211-0.083h0.034v-0.174a0.135,0.135,0,0,0-.047-0.009,0.283,0.283,0,0,0-.234.13,0.489,0.489,0,0,0-.046.074V179.01h-0.16v1.011h0Zm0.665-.9v-0.492h-0.139v0.492h0.139Zm0.889,0.179a0.31,0.31,0,0,0-.109-0.237,0.417,0.417,0,0,0-.278-0.087,0.411,0.411,0,0,0-.272.084,0.282,0.282,0,0,0-.1.227,0.232,0.232,0,0,0,.06.17,0.409,0.409,0,0,0,.2.095l0.173,0.042a0.463,0.463,0,0,1,.154.055,0.091,0.091,0,0,1,.038.08,0.148,0.148,0,0,1-.058.127,0.284,0.284,0,0,1-.171.043,0.317,0.317,0,0,1-.193-0.048,0.216,0.216,0,0,1-.075-0.156h-0.161a0.351,0.351,0,0,0,.114.266,0.488,0.488,0,0,0,.315.085,0.437,0.437,0,0,0,.288-0.088,0.291,0.291,0,0,0,.107-0.238,0.234,0.234,0,0,0-.062-0.175,0.429,0.429,0,0,0-.208-0.1l-0.173-.041a0.481,0.481,0,0,1-.152-0.055,0.092,0.092,0,0,1-.039-0.081,0.122,0.122,0,0,1,.055-0.108,0.279,0.279,0,0,1,.159-0.037,0.258,0.258,0,0,1,.162.046,0.178,0.178,0,0,1,.068.131h0.157Zm0.8-.454h0l0.388,1.172h0.179l0.387-1.176h0v1.176h0.18v-1.389h-0.266l-0.389,1.182h0l-0.392-1.182H105.6v1.389h0.18v-1.172Zm1.726,1.2a0.424,0.424,0,0,0,.337-0.148,0.653,0.653,0,0,0,0-.774,0.455,0.455,0,0,0-.672,0,0.645,0.645,0,0,0,0,.774,0.42,0.42,0,0,0,.335.148h0Zm0-.147a0.247,0.247,0,0,1-.21-0.1,0.462,0.462,0,0,1-.078-0.282,0.469,0.469,0,0,1,.078-0.284,0.247,0.247,0,0,1,.21-0.1,0.251,0.251,0,0,1,.211.1,0.469,0.469,0,0,1,.078.284,0.462,0.462,0,0,1-.078.282,0.251,0.251,0,0,1-.211.1h0Zm0.946-.013h-0.06a0.115,0.115,0,0,1-.071-0.02,0.063,0.063,0,0,1-.027-0.054v-0.666h0.158V179.01h-0.158v-0.284h-0.168v0.284h-0.138v0.139h0.138v0.666a0.253,0.253,0,0,0,.045.17,0.209,0.209,0,0,0,.156.049,0.927,0.927,0,0,0,.125-0.014h0v-0.131Zm0.088,0.132H108.7V179.48a0.39,0.39,0,0,1,.075-0.252,0.246,0.246,0,0,1,.2-0.093,0.191,0.191,0,0,1,.154.055,0.274,0.274,0,0,1,.048.181v0.65h0.168v-0.693a0.352,0.352,0,0,0-.09-0.258,0.341,0.341,0,0,0-.254-0.091,0.345,0.345,0,0,0-.274.13l-0.029.038v-0.515h-0.167v1.389h0Zm1.681-.06a0.43,0.43,0,0,0,.149-0.254H110.2a0.222,0.222,0,0,1-.088.14,0.267,0.267,0,0,1-.168.055,0.258,0.258,0,0,1-.223-0.1,0.439,0.439,0,0,1-.069-0.231h0.73l0-.06a0.6,0.6,0,0,0-.121-0.388,0.388,0.388,0,0,0-.316-0.148,0.433,0.433,0,0,0-.345.151,0.61,0.61,0,0,0-.128.406,0.548,0.548,0,0,0,.121.377,0.426,0.426,0,0,0,.333.136h0A0.453,0.453,0,0,0,110.216,179.961Zm-0.565-.523a0.386,0.386,0,0,1,.076-0.206,0.257,0.257,0,0,1,.212-0.1,0.236,0.236,0,0,1,.2.087,0.373,0.373,0,0,1,.07.219h-0.557Zm0.879,0.583H110.7V179.48a0.344,0.344,0,0,1,.074-0.236,0.268,0.268,0,0,1,.21-0.083h0.035v-0.174a0.136,0.136,0,0,0-.048-0.009,0.285,0.285,0,0,0-.234.13,0.725,0.725,0,0,0-.046.074V179.01H110.53v1.011h0Z"/>
  </g>
</svg>
