<svg id="Dada" xmlns="http://www.w3.org/2000/svg" width="300" height="300" viewBox="0 0 300 300">
  <defs>
    <style>
      .cls-1 {
        fill: #575861;
      }

      .cls-1, .cls-2, .cls-3 {
        fill-rule: evenodd;
      }

      .cls-2 {
        fill: #e4e1da;
      }

      .cls-3 {
        fill: #31323d;
      }
    </style>
  </defs>
  <g id="dada-placard-anatomylesson">
    <path id="Rectangle_2_copy" data-name="Rectangle 2 copy" class="cls-1" d="M95,166h40.01v26.019H95V166Z"/>
    <path id="Rectangle_2_copy_2" data-name="Rectangle 2 copy 2" class="cls-2" d="M95.687,166.7h38.626V191.3H95.687V166.7Z"/>
    <path id="dada.nyc" class="cls-3" d="M99.487,185.945l0.057-.083v0.367h0.414v-3.7H99.512v1.4l-0.035-.05a0.89,0.89,0,0,0-.774-0.42,0.981,0.981,0,0,0-.8.372,1.494,1.494,0,0,0-.305.978,1.726,1.726,0,0,0,.315,1.09,1.02,1.02,0,0,0,.848.4h0a0.868,0.868,0,0,0,.722-0.357h0Zm-0.162-1.781a1.6,1.6,0,0,1,.187.849,1.017,1.017,0,0,1-.2.655,0.637,0.637,0,0,1-.523.247,0.611,0.611,0,0,1-.534-0.269,1.331,1.331,0,0,1-.187-0.766,1.346,1.346,0,0,1,.174-0.771,0.627,0.627,0,0,1,.548-0.242A0.6,0.6,0,0,1,99.325,184.164ZM101.69,186a0.921,0.921,0,0,0,.114-0.121,0.6,0.6,0,0,0,.106.264,0.446,0.446,0,0,0,.367.141,0.618,0.618,0,0,0,.122-0.015,0.826,0.826,0,0,0,.136-0.04V185.9a0.735,0.735,0,0,1-.083.015,0.383,0.383,0,0,1-.058,0,0.149,0.149,0,0,1-.11-0.041,0.147,0.147,0,0,1-.041-0.11v-1.478a0.764,0.764,0,0,0-.253-0.619,1.117,1.117,0,0,0-.737-0.213,1.221,1.221,0,0,0-.788.223,0.89,0.89,0,0,0-.308.665h0.412a0.571,0.571,0,0,1,.187-0.386,0.653,0.653,0,0,1,.43-0.13,0.731,0.731,0,0,1,.449.122,0.4,0.4,0,0,1,.161.338v0.023a0.3,0.3,0,0,1-.047.171,0.225,0.225,0,0,1-.134.09,1.008,1.008,0,0,1-.141.026l-0.608.077a1.051,1.051,0,0,0-.626.267,0.775,0.775,0,0,0-.214.576,0.74,0.74,0,0,0,.228.57,0.872,0.872,0,0,0,.617.211h0a1.174,1.174,0,0,0,.819-0.3h0Zm0.1-.674a0.644,0.644,0,0,1-.015.1,0.652,0.652,0,0,1-.221.306,0.925,0.925,0,0,1-.595.194,0.467,0.467,0,0,1-.345-0.122,0.472,0.472,0,0,1-.121-0.348,0.338,0.338,0,0,1,.149-0.291,1.084,1.084,0,0,1,.471-0.152l0.409-.06a0.94,0.94,0,0,0,.275-0.083v0.292h0a1.572,1.572,0,0,1-.007.16h0Zm2.535,0.621,0.057-.083v0.367H104.8v-3.7h-0.447v1.4l-0.034-.05a0.889,0.889,0,0,0-.774-0.42,0.98,0.98,0,0,0-.8.372,1.5,1.5,0,0,0-.305.978,1.725,1.725,0,0,0,.315,1.09,1.02,1.02,0,0,0,.848.4h0a0.869,0.869,0,0,0,.722-0.357h0Zm-0.163-1.781a1.6,1.6,0,0,1,.187.849,1.019,1.019,0,0,1-.2.655,0.637,0.637,0,0,1-.523.247,0.611,0.611,0,0,1-.535-0.269,1.726,1.726,0,0,1-.013-1.537,0.625,0.625,0,0,1,.548-0.242A0.6,0.6,0,0,1,104.161,184.164ZM106.526,186a0.921,0.921,0,0,0,.114-0.121,0.6,0.6,0,0,0,.107.264,0.444,0.444,0,0,0,.367.141,0.6,0.6,0,0,0,.121-0.015,0.837,0.837,0,0,0,.137-0.04V185.9a0.777,0.777,0,0,1-.083.015,0.383,0.383,0,0,1-.058,0,0.141,0.141,0,0,1-.152-0.151v-1.478a0.761,0.761,0,0,0-.253-0.619,1.114,1.114,0,0,0-.736-0.213,1.226,1.226,0,0,0-.789.223,0.892,0.892,0,0,0-.307.665h0.411a0.572,0.572,0,0,1,.188-0.386,0.651,0.651,0,0,1,.43-0.13,0.733,0.733,0,0,1,.449.122,0.4,0.4,0,0,1,.161.338v0.023a0.3,0.3,0,0,1-.047.171,0.228,0.228,0,0,1-.134.09,1.022,1.022,0,0,1-.142.026l-0.607.077a1.049,1.049,0,0,0-.626.267,0.776,0.776,0,0,0-.215.576,0.74,0.74,0,0,0,.228.57,0.873,0.873,0,0,0,.618.211h0a1.171,1.171,0,0,0,.818-0.3h0Zm0.1-.674a0.565,0.565,0,0,1-.014.1,0.659,0.659,0,0,1-.221.306,0.927,0.927,0,0,1-.595.194,0.467,0.467,0,0,1-.345-0.122,0.473,0.473,0,0,1-.122-0.348,0.341,0.341,0,0,1,.149-0.291,1.084,1.084,0,0,1,.471-0.152l0.41-.06a0.958,0.958,0,0,0,.275-0.083v0.292h0a1.555,1.555,0,0,1-.008.16h0Zm0.913,0.905h0.531v-0.545h-0.531v0.545Zm0.894,0h0.446v-1.44a1.085,1.085,0,0,1,.188-0.67,0.608,0.608,0,0,1,.511-0.247,0.548,0.548,0,0,1,.438.157,0.778,0.778,0,0,1,.135.511v1.689H110.6v-1.842a0.934,0.934,0,0,0-.239-0.686,0.993,0.993,0,0,0-1.4.1l-0.1.133v-0.4h-0.424v2.689h0ZM113,183.54h-0.488l-0.719,2.224h0l-0.708-2.224h-0.51l0.985,2.735h0l-0.008.043a1.853,1.853,0,0,1-.23.47,0.315,0.315,0,0,1-.253.125,0.768,0.768,0,0,1-.256-0.04v0.42a0.674,0.674,0,0,0,.216.027,0.721,0.721,0,0,0,.547-0.191,2.646,2.646,0,0,0,.415-0.812L113,183.54h0Zm1.645,1.722a0.866,0.866,0,0,1-.232.481,0.66,0.66,0,0,1-.966-0.089,1.366,1.366,0,0,1-.178-0.772,1.308,1.308,0,0,1,.192-0.758,0.612,0.612,0,0,1,.529-0.275,0.649,0.649,0,0,1,.457.158,0.671,0.671,0,0,1,.2.448h0.429a1.008,1.008,0,0,0-.3-0.73,1.077,1.077,0,0,0-.764-0.266,1.088,1.088,0,0,0-.876.386,1.551,1.551,0,0,0-.327,1.037,1.588,1.588,0,0,0,.315,1.036,1.035,1.035,0,0,0,.844.384,1.068,1.068,0,0,0,.758-0.266,1.248,1.248,0,0,0,.355-0.774h-0.429Z"/>
    <path id="Javier_Errecarte_Rembrandt_van_Rijn_The_Anatomy_Lesson_of_Dr._N" data-name="Javier Errecarte Rembrandt van Rijn The Anatomy Lesson of Dr. N" class="cls-3" d="M98.179,171.894a0.3,0.3,0,0,1-.059.2,0.22,0.22,0,0,1-.313.012,0.246,0.246,0,0,1-.054-0.17v-0.1H97.579v0.1a0.36,0.36,0,0,0,.1.286,0.4,0.4,0,0,0,.3.1,0.372,0.372,0,0,0,.291-0.112,0.449,0.449,0,0,0,.1-0.316v-1H98.179v1Zm0.941,0.3a0.319,0.319,0,0,0,.043-0.045,0.219,0.219,0,0,0,.04.1,0.168,0.168,0,0,0,.138.053,0.324,0.324,0,0,0,.1-0.021V172.16l-0.031.006-0.022,0a0.054,0.054,0,0,1-.042-0.016,0.055,0.055,0,0,1-.015-0.041v-0.556a0.287,0.287,0,0,0-.1-0.233,0.422,0.422,0,0,0-.277-0.08,0.461,0.461,0,0,0-.3.084,0.336,0.336,0,0,0-.116.25H98.7a0.215,0.215,0,0,1,.07-0.145,0.242,0.242,0,0,1,.162-0.049,0.278,0.278,0,0,1,.169.046,0.151,0.151,0,0,1,.061.127v0.009a0.109,0.109,0,0,1-.018.064,0.087,0.087,0,0,1-.05.034,0.3,0.3,0,0,1-.053.01l-0.229.029a0.4,0.4,0,0,0-.236.1,0.293,0.293,0,0,0-.081.217,0.277,0.277,0,0,0,.086.214,0.329,0.329,0,0,0,.232.08h0a0.438,0.438,0,0,0,.308-0.115h0Zm0.037-.253a0.2,0.2,0,0,1-.006.039,0.249,0.249,0,0,1-.083.115,0.345,0.345,0,0,1-.224.073,0.16,0.16,0,0,1-.175-0.177,0.128,0.128,0,0,1,.056-0.109,0.4,0.4,0,0,1,.177-0.057l0.154-.023a0.37,0.37,0,0,0,.1-0.031v0.109h0a0.594,0.594,0,0,1,0,.061h0Zm0.642,0.34h0.18l0.372-1.011h-0.185l-0.277.828h0l-0.268-.828h-0.2Zm0.62,0h0.168v-1.011h-0.168v1.011h0Zm0-1.2h0.172v-0.193h-0.172v0.193Zm1.04,1.137a0.43,0.43,0,0,0,.149-0.254H101.44a0.222,0.222,0,0,1-.088.14,0.267,0.267,0,0,1-.168.055,0.258,0.258,0,0,1-.223-0.1,0.431,0.431,0,0,1-.068-0.231h0.729l0-.061a0.593,0.593,0,0,0-.121-0.387,0.386,0.386,0,0,0-.316-0.148,0.433,0.433,0,0,0-.345.151,0.61,0.61,0,0,0-.128.406,0.548,0.548,0,0,0,.121.376,0.423,0.423,0,0,0,.333.137h0A0.459,0.459,0,0,0,101.457,172.224Zm-0.564-.523a0.377,0.377,0,0,1,.075-0.206,0.257,0.257,0,0,1,.212-0.1,0.239,0.239,0,0,1,.2.087,0.38,0.38,0,0,1,.069.219h-0.556Zm0.878,0.583h0.168v-0.542a0.341,0.341,0,0,1,.074-0.235,0.266,0.266,0,0,1,.21-0.083h0.035v-0.174a0.136,0.136,0,0,0-.048-0.009,0.283,0.283,0,0,0-.234.13,0.518,0.518,0,0,0-.045.074v-0.173h-0.16v1.011h0Zm2.044,0v-0.166h-0.827v-0.466h0.746v-0.167h-0.746v-0.424h0.817v-0.167h-1v1.39h1.013Zm0.168,0h0.168v-0.542a0.341,0.341,0,0,1,.074-0.235,0.265,0.265,0,0,1,.21-0.083h0.035v-0.174a0.136,0.136,0,0,0-.048-0.009,0.283,0.283,0,0,0-.234.13,0.63,0.63,0,0,0-.046.074v-0.173h-0.159v1.011h0Zm0.56,0h0.168v-0.542a0.336,0.336,0,0,1,.074-0.235,0.264,0.264,0,0,1,.21-0.083h0.035v-0.174a0.14,0.14,0,0,0-.048-0.009,0.28,0.28,0,0,0-.234.13,0.63,0.63,0,0,0-.046.074v-0.173h-0.159v1.011h0Zm1.231-.06a0.425,0.425,0,0,0,.149-0.254h-0.166a0.217,0.217,0,0,1-.087.14,0.267,0.267,0,0,1-.168.055,0.26,0.26,0,0,1-.224-0.1,0.449,0.449,0,0,1-.068-0.231h0.729l0-.061a0.593,0.593,0,0,0-.12-0.387,0.387,0.387,0,0,0-.316-0.148,0.43,0.43,0,0,0-.345.151,0.6,0.6,0,0,0-.128.406,0.543,0.543,0,0,0,.121.376,0.423,0.423,0,0,0,.333.137h0A0.458,0.458,0,0,0,105.774,172.224Zm-0.564-.523a0.386,0.386,0,0,1,.076-0.206,0.253,0.253,0,0,1,.211-0.1,0.238,0.238,0,0,1,.2.087,0.38,0.38,0,0,1,.069.219H105.21Zm1.481,0.219a0.322,0.322,0,0,1-.087.181,0.248,0.248,0,0,1-.363-0.033,0.512,0.512,0,0,1-.068-0.291,0.492,0.492,0,0,1,.073-0.285,0.228,0.228,0,0,1,.2-0.1,0.243,0.243,0,0,1,.171.059,0.254,0.254,0,0,1,.075.169h0.161a0.379,0.379,0,0,0-.114-0.275,0.454,0.454,0,0,0-.617.045,0.584,0.584,0,0,0-.123.39,0.6,0.6,0,0,0,.119.39,0.388,0.388,0,0,0,.317.145,0.4,0.4,0,0,0,.285-0.1,0.462,0.462,0,0,0,.133-0.291h-0.161Zm0.824,0.277a0.364,0.364,0,0,0,.043-0.045,0.216,0.216,0,0,0,.04.1,0.168,0.168,0,0,0,.138.053,0.223,0.223,0,0,0,.046-0.006,0.215,0.215,0,0,0,.051-0.015V172.16l-0.031.006-0.022,0a0.055,0.055,0,0,1-.042-0.016,0.056,0.056,0,0,1-.015-0.041v-0.556a0.288,0.288,0,0,0-.095-0.233,0.423,0.423,0,0,0-.277-0.08,0.461,0.461,0,0,0-.3.084,0.336,0.336,0,0,0-.116.25h0.155a0.214,0.214,0,0,1,.071-0.145,0.241,0.241,0,0,1,.162-0.049,0.275,0.275,0,0,1,.168.046,0.15,0.15,0,0,1,.061.127v0.009a0.108,0.108,0,0,1-.018.064,0.086,0.086,0,0,1-.05.034,0.31,0.31,0,0,1-.053.01l-0.229.029a0.393,0.393,0,0,0-.235.1,0.293,0.293,0,0,0-.081.217,0.278,0.278,0,0,0,.086.214,0.327,0.327,0,0,0,.232.08h0a0.439,0.439,0,0,0,.308-0.115h0Zm0.037-.253a0.235,0.235,0,0,1-.005.039,0.257,0.257,0,0,1-.083.115,0.347,0.347,0,0,1-.224.073,0.177,0.177,0,0,1-.13-0.046,0.18,0.18,0,0,1-.046-0.131,0.128,0.128,0,0,1,.056-0.109,0.408,0.408,0,0,1,.178-0.057l0.153-.023a0.371,0.371,0,0,0,.1-0.031v0.109h0a0.566,0.566,0,0,1,0,.061h0Zm0.4,0.34h0.168v-0.542a0.341,0.341,0,0,1,.074-0.235,0.267,0.267,0,0,1,.211-0.083h0.034v-0.174a0.135,0.135,0,0,0-.047-0.009,0.28,0.28,0,0,0-.234.13,0.443,0.443,0,0,0-.046.074v-0.173h-0.16v1.011h0Zm0.9-.132H108.8a0.12,0.12,0,0,1-.072-0.02,0.065,0.065,0,0,1-.026-0.054v-0.666h0.157v-0.139H108.7v-0.284h-0.168v0.284h-0.138v0.139h0.138v0.666a0.248,0.248,0,0,0,.045.169,0.2,0.2,0,0,0,.155.05,0.927,0.927,0,0,0,.125-0.014h0v-0.131Zm0.783,0.072a0.425,0.425,0,0,0,.149-0.254h-0.166a0.217,0.217,0,0,1-.087.14,0.267,0.267,0,0,1-.168.055,0.26,0.26,0,0,1-.224-0.1,0.449,0.449,0,0,1-.068-0.231H109.8l0-.061a0.593,0.593,0,0,0-.12-0.387,0.388,0.388,0,0,0-.316-0.148,0.43,0.43,0,0,0-.345.151,0.6,0.6,0,0,0-.128.406,0.543,0.543,0,0,0,.121.376,0.423,0.423,0,0,0,.333.137h0A0.458,0.458,0,0,0,109.639,172.224Zm-0.564-.523a0.386,0.386,0,0,1,.076-0.206,0.253,0.253,0,0,1,.211-0.1,0.238,0.238,0,0,1,.2.087,0.38,0.38,0,0,1,.069.219h-0.556Zm-11.361,4.452H97.9v-0.6h0.44a0.274,0.274,0,0,1,.192.056,0.256,0.256,0,0,1,.063.185l0,0.109c0,0.059.006,0.112,0.011,0.16a0.411,0.411,0,0,0,.015.089h0.228v-0.03a0.115,0.115,0,0,1-.054-0.048,0.222,0.222,0,0,1-.016-0.089l-0.007-.254a0.27,0.27,0,0,0-.13-0.245l-0.031-.015a0.408,0.408,0,0,0,.064-0.045,0.36,0.36,0,0,0,.118-0.286,0.347,0.347,0,0,0-.114-0.281,0.5,0.5,0,0,0-.332-0.1H97.714v1.39h0Zm0.186-1.232h0.445a0.291,0.291,0,0,1,.2.056,0.221,0.221,0,0,1,.063.175,0.244,0.244,0,0,1-.06.182,0.265,0.265,0,0,1-.188.057H97.9v-0.47Zm1.769,1.172a0.43,0.43,0,0,0,.149-0.254H99.651a0.223,0.223,0,0,1-.088.14,0.272,0.272,0,0,1-.168.055,0.258,0.258,0,0,1-.224-0.1,0.441,0.441,0,0,1-.068-0.23h0.729l0-.061a0.6,0.6,0,0,0-.12-0.388,0.389,0.389,0,0,0-.316-0.147,0.428,0.428,0,0,0-.345.151,0.605,0.605,0,0,0-.128.406,0.545,0.545,0,0,0,.121.376,0.422,0.422,0,0,0,.333.136h0A0.456,0.456,0,0,0,99.668,176.093Zm-0.564-.524a0.388,0.388,0,0,1,.075-0.206,0.258,0.258,0,0,1,.212-0.1,0.238,0.238,0,0,1,.2.087,0.382,0.382,0,0,1,.069.219H99.1Zm0.855,0.584h0.168v-0.542a0.408,0.408,0,0,1,.072-0.249,0.217,0.217,0,0,1,.183-0.1,0.15,0.15,0,0,1,.123.05,0.212,0.212,0,0,1,.043.144v0.693h0.168v-0.568a0.379,0.379,0,0,1,.064-0.233,0.207,0.207,0,0,1,.174-0.086,0.162,0.162,0,0,1,.136.06,0.278,0.278,0,0,1,.047.174v0.653H101.3v-0.71a0.336,0.336,0,0,0-.085-0.246,0.349,0.349,0,0,0-.5.042l-0.027.035a0.273,0.273,0,0,0-.055-0.083,0.291,0.291,0,0,0-.214-0.08,0.342,0.342,0,0,0-.27.135l-0.034.045v-0.15h-0.16v1.012h0Zm1.5,0h0.158v-0.125l0.016,0.021a0.32,0.32,0,0,0,.268.131,0.38,0.38,0,0,0,.32-0.15,0.66,0.66,0,0,0,.115-0.413,0.558,0.558,0,0,0-.114-0.369,0.381,0.381,0,0,0-.31-0.137,0.328,0.328,0,0,0-.285.162v-0.51h-0.168v1.39Zm0.237-.208a0.4,0.4,0,0,1-.069-0.25,0.634,0.634,0,0,1,.064-0.326,0.221,0.221,0,0,1,.2-0.1,0.229,0.229,0,0,1,.2.091,0.483,0.483,0,0,1,.066.281,0.528,0.528,0,0,1-.068.294,0.227,0.227,0,0,1-.2.1h0a0.238,0.238,0,0,1-.2-0.088h0Zm0.786,0.208h0.168v-0.542a0.339,0.339,0,0,1,.074-0.236,0.267,0.267,0,0,1,.21-0.083h0.035v-0.174a0.166,0.166,0,0,0-.048-0.008,0.281,0.281,0,0,0-.234.129,0.584,0.584,0,0,0-.046.074v-0.173h-0.159v1.012h0Zm1.107-.087a0.46,0.46,0,0,0,.043-0.046,0.225,0.225,0,0,0,.04.1,0.169,0.169,0,0,0,.138.053,0.223,0.223,0,0,0,.046-0.006,0.38,0.38,0,0,0,.051-0.015v-0.123l-0.031.006-0.022,0a0.059,0.059,0,0,1-.042-0.016,0.056,0.056,0,0,1-.015-0.041v-0.556a0.288,0.288,0,0,0-.1-0.233,0.423,0.423,0,0,0-.277-0.08,0.461,0.461,0,0,0-.3.084,0.338,0.338,0,0,0-.116.25h0.155a0.212,0.212,0,0,1,.071-0.145,0.243,0.243,0,0,1,.162-0.049,0.269,0.269,0,0,1,.168.046,0.149,0.149,0,0,1,.061.127v0.008a0.111,0.111,0,0,1-.018.065,0.083,0.083,0,0,1-.05.034,0.451,0.451,0,0,1-.053.009l-0.229.029a0.4,0.4,0,0,0-.235.1,0.289,0.289,0,0,0-.081.216,0.28,0.28,0,0,0,.086.215,0.326,0.326,0,0,0,.232.079h0a0.443,0.443,0,0,0,.308-0.114h0Zm0.037-.254a0.22,0.22,0,0,1,0,.039,0.254,0.254,0,0,1-.083.116,0.352,0.352,0,0,1-.224.072,0.179,0.179,0,0,1-.13-0.045,0.182,0.182,0,0,1-.046-0.131,0.13,0.13,0,0,1,.056-0.11,0.421,0.421,0,0,1,.178-0.057l0.154-.023a0.343,0.343,0,0,0,.1-0.031v0.11h0a0.547,0.547,0,0,1,0,.06h0Zm0.378,0.341h0.168v-0.542a0.408,0.408,0,0,1,.071-0.252,0.228,0.228,0,0,1,.192-0.093,0.208,0.208,0,0,1,.165.059,0.292,0.292,0,0,1,.051.192v0.636h0.167V175.46a0.349,0.349,0,0,0-.089-0.258,0.375,0.375,0,0,0-.528.038l-0.037.051v-0.15h-0.16v1.012h0Zm1.638-.107,0.022-.031v0.138h0.155v-1.39h-0.167v0.525l-0.014-.019a0.334,0.334,0,0,0-.291-0.158,0.37,0.37,0,0,0-.3.14,0.564,0.564,0,0,0-.115.368,0.646,0.646,0,0,0,.119.409,0.381,0.381,0,0,0,.319.152h0a0.327,0.327,0,0,0,.271-0.134h0Zm-0.061-.67a0.6,0.6,0,0,1,.071.319,0.38,0.38,0,0,1-.075.246,0.238,0.238,0,0,1-.2.094,0.23,0.23,0,0,1-.2-0.1,0.5,0.5,0,0,1-.07-0.288,0.5,0.5,0,0,1,.065-0.29,0.235,0.235,0,0,1,.206-0.091A0.224,0.224,0,0,1,105.583,175.376Zm0.762,0.644h-0.06a0.115,0.115,0,0,1-.071-0.019,0.065,0.065,0,0,1-.027-0.054V175.28h0.158v-0.139h-0.158v-0.284h-0.168v0.284h-0.138v0.139h0.138v0.667a0.244,0.244,0,0,0,.046.169,0.2,0.2,0,0,0,.155.049,0.885,0.885,0,0,0,.125-0.013h0V176.02Zm0.806,0.133h0.18l0.372-1.012h-0.185l-0.277.828h0l-0.268-.828h-0.2Zm1.186-.087a0.357,0.357,0,0,0,.042-0.046,0.238,0.238,0,0,0,.041.1,0.167,0.167,0,0,0,.138.053,0.215,0.215,0,0,0,.045-0.006,0.444,0.444,0,0,0,.052-0.015v-0.123l-0.032.006-0.021,0a0.057,0.057,0,0,1-.042-0.016,0.056,0.056,0,0,1-.015-0.041v-0.556a0.286,0.286,0,0,0-.1-0.233,0.42,0.42,0,0,0-.277-0.08,0.46,0.46,0,0,0-.3.084,0.334,0.334,0,0,0-.116.25h0.155a0.216,0.216,0,0,1,.07-0.145,0.243,0.243,0,0,1,.162-0.049,0.272,0.272,0,0,1,.169.046,0.151,0.151,0,0,1,.061.127v0.008a0.111,0.111,0,0,1-.018.065,0.089,0.089,0,0,1-.05.034,0.434,0.434,0,0,1-.054.009l-0.228.029a0.4,0.4,0,0,0-.236.1,0.292,0.292,0,0,0-.08.216,0.279,0.279,0,0,0,.085.215,0.331,0.331,0,0,0,.233.079h0a0.443,0.443,0,0,0,.308-0.114h0Zm0.037-.254a0.144,0.144,0,0,1-.006.039,0.24,0.24,0,0,1-.083.116,0.35,0.35,0,0,1-.224.072,0.175,0.175,0,0,1-.129-0.045,0.177,0.177,0,0,1-.046-0.131,0.13,0.13,0,0,1,.056-0.11,0.411,0.411,0,0,1,.177-0.057l0.154-.023a0.341,0.341,0,0,0,.1-0.031v0.11h0a0.547,0.547,0,0,1,0,.06h0Zm0.378,0.341h0.168v-0.542a0.4,0.4,0,0,1,.071-0.252,0.228,0.228,0,0,1,.192-0.093,0.206,0.206,0,0,1,.164.059,0.292,0.292,0,0,1,.051.192v0.636h0.168V175.46a0.353,0.353,0,0,0-.089-0.258,0.375,0.375,0,0,0-.528.038l-0.038.051v-0.15h-0.159v1.012h0Zm1.484,0h0.186v-0.6h0.44a0.274,0.274,0,0,1,.192.056,0.254,0.254,0,0,1,.062.185l0,0.109c0,0.059.006,0.112,0.011,0.16a0.4,0.4,0,0,0,.015.089h0.228v-0.03a0.113,0.113,0,0,1-.054-0.048,0.224,0.224,0,0,1-.016-0.089l-0.007-.254a0.273,0.273,0,0,0-.13-0.245l-0.031-.015a0.367,0.367,0,0,0,.064-0.045,0.36,0.36,0,0,0,.119-0.286,0.347,0.347,0,0,0-.114-0.281,0.5,0.5,0,0,0-.332-0.1h-0.638v1.39h0Zm0.186-1.232h0.445a0.292,0.292,0,0,1,.2.056,0.221,0.221,0,0,1,.063.175,0.243,0.243,0,0,1-.06.182,0.266,0.266,0,0,1-.188.057h-0.459v-0.47Zm1.079,1.232h0.168v-1.012H111.5v1.012h0Zm0-1.2h0.172v-0.193H111.5v0.193Zm0.347,1.335a0.118,0.118,0,0,1-.025.089,0.151,0.151,0,0,1-.1.023h-0.033v0.149a0.527,0.527,0,0,0,.071,0,0.256,0.256,0,0,0,.194-0.063,0.285,0.285,0,0,0,.06-0.2v-1.15h-0.168v1.15Zm0-1.335h0.172v-0.193h-0.172v0.193Zm0.347,1.2h0.168v-0.542a0.408,0.408,0,0,1,.071-0.252,0.228,0.228,0,0,1,.192-0.093,0.208,0.208,0,0,1,.165.059,0.292,0.292,0,0,1,.051.192v0.636h0.168V175.46a0.349,0.349,0,0,0-.09-0.258,0.339,0.339,0,0,0-.254-0.091,0.344,0.344,0,0,0-.274.129l-0.037.051v-0.15h-0.16v1.012h0Zm-14.154,3.868h0.186V178.8h0.464v-0.166H97.573V178.8h0.464v1.223h0Zm0.724,0h0.168V179.48A0.392,0.392,0,0,1,99,179.228a0.245,0.245,0,0,1,.2-0.093,0.194,0.194,0,0,1,.155.055,0.276,0.276,0,0,1,.047.181v0.65h0.168v-0.693a0.353,0.353,0,0,0-.09-0.258,0.374,0.374,0,0,0-.528.039l-0.029.038v-0.515H98.761v1.389h0Zm1.681-.06a0.43,0.43,0,0,0,.149-0.254h-0.166a0.222,0.222,0,0,1-.088.14,0.267,0.267,0,0,1-.168.055,0.259,0.259,0,0,1-.223-0.1,0.443,0.443,0,0,1-.068-0.231h0.73l0-.06a0.6,0.6,0,0,0-.121-0.388,0.388,0.388,0,0,0-.316-0.148,0.432,0.432,0,0,0-.345.151,0.607,0.607,0,0,0-.128.406,0.549,0.549,0,0,0,.121.377,0.425,0.425,0,0,0,.333.136h0A0.453,0.453,0,0,0,100.442,179.961Zm-0.564-.523a0.386,0.386,0,0,1,.076-0.206,0.256,0.256,0,0,1,.212-0.1,0.239,0.239,0,0,1,.2.087,0.38,0.38,0,0,1,.069.219H99.878Zm1.213,0.583h0.191l0.145-.4h0.547l0.14,0.4h0.2l-0.492-1.389h-0.212l-0.518,1.389h0Zm0.615-1.185h0l0.211,0.616h-0.431l0.22-.616h0Zm0.68,1.185h0.168V179.48a0.4,0.4,0,0,1,.071-0.252,0.228,0.228,0,0,1,.192-0.093,0.2,0.2,0,0,1,.164.059,0.29,0.29,0,0,1,.051.192v0.635H103.2v-0.693a0.356,0.356,0,0,0-.089-0.258,0.374,0.374,0,0,0-.528.039l-0.038.05V179.01h-0.159v1.011h0Zm1.557-.087a0.364,0.364,0,0,0,.043-0.045,0.216,0.216,0,0,0,.04.1,0.164,0.164,0,0,0,.138.053,0.3,0.3,0,0,0,.046,0,0.276,0.276,0,0,0,.051-0.016V179.9l-0.031,0-0.022,0a0.057,0.057,0,0,1-.042-0.015,0.06,0.06,0,0,1-.015-0.042v-0.556a0.289,0.289,0,0,0-.095-0.233,0.423,0.423,0,0,0-.277-0.08,0.461,0.461,0,0,0-.3.084,0.336,0.336,0,0,0-.116.25h0.155a0.216,0.216,0,0,1,.071-0.145,0.244,0.244,0,0,1,.161-0.049,0.276,0.276,0,0,1,.169.046,0.15,0.15,0,0,1,.061.127V179.3a0.108,0.108,0,0,1-.018.064,0.081,0.081,0,0,1-.05.034,0.31,0.31,0,0,1-.053.01l-0.229.029a0.393,0.393,0,0,0-.235.1,0.293,0.293,0,0,0-.081.217,0.275,0.275,0,0,0,.086.214,0.327,0.327,0,0,0,.232.08h0a0.439,0.439,0,0,0,.308-0.115h0Zm0.037-.253a0.144,0.144,0,0,1-.006.039,0.238,0.238,0,0,1-.083.115,0.342,0.342,0,0,1-.223.073,0.16,0.16,0,0,1-.176-0.177,0.128,0.128,0,0,1,.056-0.109,0.4,0.4,0,0,1,.177-0.057l0.154-.023a0.371,0.371,0,0,0,.1-0.031v0.11h0a0.547,0.547,0,0,1,0,.06h0Zm0.745,0.208h-0.06a0.12,0.12,0,0,1-.072-0.02,0.065,0.065,0,0,1-.026-0.054v-0.666h0.158V179.01h-0.158v-0.284H104.4v0.284H104.26v0.139H104.4v0.666a0.253,0.253,0,0,0,.045.17,0.208,0.208,0,0,0,.156.049,0.943,0.943,0,0,0,.125-0.014h0v-0.131Zm0.494,0.16a0.423,0.423,0,0,0,.337-0.148,0.649,0.649,0,0,0,0-.774,0.455,0.455,0,0,0-.672,0,0.645,0.645,0,0,0,0,.774,0.42,0.42,0,0,0,.335.148h0Zm0-.147a0.248,0.248,0,0,1-.21-0.1,0.462,0.462,0,0,1-.078-0.282,0.469,0.469,0,0,1,.078-0.284,0.264,0.264,0,0,1,.421,0,0.469,0.469,0,0,1,.078.284,0.462,0.462,0,0,1-.078.282,0.25,0.25,0,0,1-.211.1h0Zm0.579,0.119h0.168V179.48a0.4,0.4,0,0,1,.072-0.249,0.217,0.217,0,0,1,.183-0.1,0.152,0.152,0,0,1,.123.049,0.212,0.212,0,0,1,.043.144v0.693h0.168v-0.568a0.376,0.376,0,0,1,.064-0.232,0.2,0.2,0,0,1,.174-0.086,0.162,0.162,0,0,1,.136.059,0.281,0.281,0,0,1,.047.175v0.652h0.167v-0.71a0.333,0.333,0,0,0-.085-0.245,0.323,0.323,0,0,0-.242-0.087,0.328,0.328,0,0,0-.258.128l-0.027.035a0.269,0.269,0,0,0-.055-0.082,0.286,0.286,0,0,0-.214-0.081,0.343,0.343,0,0,0-.27.136l-0.034.045v-0.15H105.8v1.011h0Zm2.325-1.011h-0.184l-0.27.836h0l-0.267-.836H107.21l0.37,1.028h0l0,0.016a0.691,0.691,0,0,1-.086.176,0.119,0.119,0,0,1-.1.048,0.322,0.322,0,0,1-.1-0.015v0.157a0.265,0.265,0,0,0,.081.011,0.272,0.272,0,0,0,.206-0.072,0.986,0.986,0,0,0,.156-0.305l0.38-1.045h0Zm1.425,1.011v-0.166h-0.695v-1.223h-0.185v1.389h0.88Zm0.779-.06a0.426,0.426,0,0,0,.15-0.254H110.31a0.222,0.222,0,0,1-.088.14,0.267,0.267,0,0,1-.168.055,0.261,0.261,0,0,1-.224-0.1,0.449,0.449,0,0,1-.068-0.231h0.729l0-.06a0.6,0.6,0,0,0-.12-0.388,0.39,0.39,0,0,0-.316-0.148,0.433,0.433,0,0,0-.345.151,0.61,0.61,0,0,0-.128.406,0.548,0.548,0,0,0,.121.377,0.426,0.426,0,0,0,.333.136h0A0.448,0.448,0,0,0,110.326,179.961Zm-0.564-.523a0.386,0.386,0,0,1,.076-0.206,0.255,0.255,0,0,1,.212-0.1,0.237,0.237,0,0,1,.2.087,0.38,0.38,0,0,1,.069.219h-0.556Zm1.585-.135a0.311,0.311,0,0,0-.11-0.237,0.416,0.416,0,0,0-.277-0.087,0.41,0.41,0,0,0-.272.084,0.279,0.279,0,0,0-.1.227,0.232,0.232,0,0,0,.06.17,0.4,0.4,0,0,0,.2.095l0.174,0.042a0.473,0.473,0,0,1,.154.055,0.093,0.093,0,0,1,.038.08,0.148,0.148,0,0,1-.059.127,0.282,0.282,0,0,1-.171.043,0.319,0.319,0,0,1-.193-0.048,0.216,0.216,0,0,1-.075-0.156h-0.161a0.351,0.351,0,0,0,.115.266,0.486,0.486,0,0,0,.314.085,0.439,0.439,0,0,0,.289-0.088,0.293,0.293,0,0,0,.107-0.238,0.238,0.238,0,0,0-.062-0.175,0.434,0.434,0,0,0-.208-0.1l-0.174-.041a0.491,0.491,0,0,1-.152-0.055,0.094,0.094,0,0,1-.038-0.081,0.121,0.121,0,0,1,.054-0.108,0.285,0.285,0,0,1,.16-0.037,0.257,0.257,0,0,1,.161.046,0.175,0.175,0,0,1,.068.131h0.158Zm0.879,0a0.311,0.311,0,0,0-.11-0.237,0.416,0.416,0,0,0-.277-0.087,0.41,0.41,0,0,0-.272.084,0.28,0.28,0,0,0-.1.227,0.232,0.232,0,0,0,.06.17,0.409,0.409,0,0,0,.2.095L111.9,179.6a0.454,0.454,0,0,1,.154.055,0.091,0.091,0,0,1,.039.08,0.148,0.148,0,0,1-.059.127,0.284,0.284,0,0,1-.171.043,0.317,0.317,0,0,1-.193-0.048,0.216,0.216,0,0,1-.075-0.156h-0.161a0.351,0.351,0,0,0,.114.266,0.488,0.488,0,0,0,.315.085,0.441,0.441,0,0,0,.289-0.088,0.293,0.293,0,0,0,.106-0.238,0.238,0.238,0,0,0-.061-0.175,0.433,0.433,0,0,0-.209-0.1l-0.173-.041a0.481,0.481,0,0,1-.152-0.055,0.091,0.091,0,0,1-.038-0.081,0.121,0.121,0,0,1,.054-0.108,0.283,0.283,0,0,1,.159-0.037,0.258,0.258,0,0,1,.162.046,0.178,0.178,0,0,1,.068.131h0.158Zm0.556,0.746a0.424,0.424,0,0,0,.337-0.148,0.653,0.653,0,0,0,0-.774,0.457,0.457,0,0,0-.673,0,0.649,0.649,0,0,0,0,.774,0.424,0.424,0,0,0,.336.148h0Zm0-.147a0.249,0.249,0,0,1-.211-0.1,0.462,0.462,0,0,1-.077-0.282,0.469,0.469,0,0,1,.077-0.284,0.249,0.249,0,0,1,.211-0.1,0.251,0.251,0,0,1,.211.1,0.469,0.469,0,0,1,.078.284,0.462,0.462,0,0,1-.078.282,0.251,0.251,0,0,1-.211.1h0Zm0.579,0.119h0.168V179.48a0.408,0.408,0,0,1,.071-0.252,0.228,0.228,0,0,1,.192-0.093,0.205,0.205,0,0,1,.165.059,0.29,0.29,0,0,1,.051.192v0.635h0.167v-0.693a0.352,0.352,0,0,0-.089-0.258,0.374,0.374,0,0,0-.528.039l-0.037.05V179.01h-0.16v1.011h0Zm1.847,0.028a0.421,0.421,0,0,0,.337-0.148,0.649,0.649,0,0,0,0-.774,0.455,0.455,0,0,0-.672,0,0.649,0.649,0,0,0,0,.774,0.42,0.42,0,0,0,.335.148h0Zm0-.147a0.248,0.248,0,0,1-.21-0.1,0.462,0.462,0,0,1-.078-0.282,0.469,0.469,0,0,1,.078-0.284,0.264,0.264,0,0,1,.421,0,0.469,0.469,0,0,1,.078.284,0.462,0.462,0,0,1-.078.282,0.249,0.249,0,0,1-.211.1h0Zm0.955-.751V179.01H116v-0.123a0.134,0.134,0,0,1,.026-0.09,0.088,0.088,0,0,1,.074-0.032l0.066,0v-0.153l-0.073,0a0.3,0.3,0,0,0-.2.056,0.212,0.212,0,0,0-.065.17v0.172h-0.138v0.141h0.138v0.87H116v-0.87h0.166Zm0.564,0.87h0.549a0.525,0.525,0,0,0,.426-0.188,0.757,0.757,0,0,0,.158-0.506,0.777,0.777,0,0,0-.154-0.507,0.508,0.508,0,0,0-.416-0.188h-0.563v1.389h0Zm0.186-1.229h0.355a0.35,0.35,0,0,1,.3.14,0.654,0.654,0,0,1,.1.4,0.632,0.632,0,0,1-.108.4,0.373,0.373,0,0,1-.309.139h-0.339v-1.069Zm1.11,1.229h0.168V179.48a0.339,0.339,0,0,1,.074-0.236,0.267,0.267,0,0,1,.21-0.083h0.035v-0.174a0.136,0.136,0,0,0-.048-0.009,0.283,0.283,0,0,0-.234.13,0.725,0.725,0,0,0-.046.074V179.01h-0.159v1.011h0Zm0.578,0h0.2v-0.2h-0.2v0.2Zm1.067-1.133,0.707,1.133h0.2v-1.389H120.4v1.129l-0.687-1.129h-0.223v1.389h0.179v-1.133Zm1.109,1.133h0.168V179.01h-0.168v1.011h0Zm0-1.2h0.172v-0.192h-0.172v0.192Zm0.97,0.833a0.319,0.319,0,0,1-.087.181,0.248,0.248,0,0,1-.363-0.033,0.511,0.511,0,0,1-.068-0.29,0.485,0.485,0,0,1,.073-0.285,0.229,0.229,0,0,1,.2-0.1,0.239,0.239,0,0,1,.171.06,0.249,0.249,0,0,1,.075.168h0.161a0.383,0.383,0,0,0-.114-0.275,0.453,0.453,0,0,0-.617.046,0.581,0.581,0,0,0-.123.39,0.594,0.594,0,0,0,.118.389,0.389,0.389,0,0,0,.318.145,0.4,0.4,0,0,0,.285-0.1,0.467,0.467,0,0,0,.133-0.292h-0.161Zm0.66,0.392a0.421,0.421,0,0,0,.336-0.148,0.649,0.649,0,0,0,0-.774,0.455,0.455,0,0,0-.672,0,0.649,0.649,0,0,0,0,.774,0.424,0.424,0,0,0,.336.148h0Zm0-.147a0.249,0.249,0,0,1-.211-0.1,0.462,0.462,0,0,1-.078-0.282,0.469,0.469,0,0,1,.078-0.284,0.264,0.264,0,0,1,.421,0,0.462,0.462,0,0,1,.079.284,0.456,0.456,0,0,1-.079.282,0.248,0.248,0,0,1-.21.1h0Zm0.583,0.119h0.168v-1.389h-0.168v1.389h0Zm0.915-.087a0.364,0.364,0,0,0,.043-0.045,0.216,0.216,0,0,0,.04.1,0.164,0.164,0,0,0,.138.053,0.3,0.3,0,0,0,.046,0,0.276,0.276,0,0,0,.051-0.016V179.9l-0.031,0-0.022,0a0.058,0.058,0,0,1-.042-0.015,0.06,0.06,0,0,1-.015-0.042v-0.556a0.289,0.289,0,0,0-.095-0.233,0.423,0.423,0,0,0-.277-0.08,0.461,0.461,0,0,0-.3.084,0.336,0.336,0,0,0-.116.25h0.155a0.216,0.216,0,0,1,.071-0.145,0.244,0.244,0,0,1,.161-0.049,0.276,0.276,0,0,1,.169.046,0.15,0.15,0,0,1,.061.127V179.3a0.108,0.108,0,0,1-.018.064,0.081,0.081,0,0,1-.05.034,0.31,0.31,0,0,1-.053.01l-0.229.029a0.393,0.393,0,0,0-.235.1,0.293,0.293,0,0,0-.081.217,0.278,0.278,0,0,0,.086.214,0.327,0.327,0,0,0,.232.08h0a0.439,0.439,0,0,0,.308-0.115h0Zm0.037-.253a0.22,0.22,0,0,1,0,.039,0.251,0.251,0,0,1-.083.115,0.347,0.347,0,0,1-.224.073,0.173,0.173,0,0,1-.13-0.046,0.178,0.178,0,0,1-.046-0.131,0.128,0.128,0,0,1,.056-0.109,0.408,0.408,0,0,1,.178-0.057l0.153-.023a0.371,0.371,0,0,0,.1-0.031v0.11h0a0.547,0.547,0,0,1,0,.06h0Zm1.073,0.28a0.425,0.425,0,0,0,.149-0.254H125a0.221,0.221,0,0,1-.087.14,0.267,0.267,0,0,1-.168.055,0.26,0.26,0,0,1-.224-0.1,0.439,0.439,0,0,1-.068-0.231h0.729l0-.06a0.6,0.6,0,0,0-.12-0.388,0.392,0.392,0,0,0-.317-0.148,0.429,0.429,0,0,0-.344.151,0.6,0.6,0,0,0-.129.406,0.548,0.548,0,0,0,.122.377,0.426,0.426,0,0,0,.333.136h0A0.452,0.452,0,0,0,125.013,179.961Zm-0.564-.523a0.393,0.393,0,0,1,.075-0.206,0.257,0.257,0,0,1,.212-0.1,0.239,0.239,0,0,1,.2.087,0.38,0.38,0,0,1,.069.219h-0.556Zm1.584-.135a0.31,0.31,0,0,0-.109-0.237,0.417,0.417,0,0,0-.278-0.087,0.411,0.411,0,0,0-.272.084,0.282,0.282,0,0,0-.1.227,0.232,0.232,0,0,0,.06.17,0.409,0.409,0,0,0,.2.095l0.173,0.042a0.463,0.463,0,0,1,.154.055,0.091,0.091,0,0,1,.038.08,0.148,0.148,0,0,1-.058.127,0.284,0.284,0,0,1-.171.043,0.317,0.317,0,0,1-.193-0.048,0.216,0.216,0,0,1-.075-0.156h-0.162a0.355,0.355,0,0,0,.115.266,0.488,0.488,0,0,0,.315.085,0.437,0.437,0,0,0,.288-0.088,0.291,0.291,0,0,0,.107-0.238,0.234,0.234,0,0,0-.062-0.175,0.429,0.429,0,0,0-.208-0.1l-0.173-.041a0.481,0.481,0,0,1-.152-0.055,0.092,0.092,0,0,1-.039-0.081,0.122,0.122,0,0,1,.055-0.108,0.279,0.279,0,0,1,.159-0.037,0.258,0.258,0,0,1,.162.046,0.178,0.178,0,0,1,.068.131h0.157ZM127,180.021h0.185V178.8h0.464v-0.166H126.54V178.8H127v1.223h0Zm0.9-1.011h-0.168v0.7a0.358,0.358,0,0,0,.085.258,0.346,0.346,0,0,0,.255.086,0.38,0.38,0,0,0,.306-0.182v0.154h0.159V179.01H128.37v0.54a0.421,0.421,0,0,1-.07.257,0.228,0.228,0,0,1-.193.095,0.2,0.2,0,0,1-.157-0.056,0.276,0.276,0,0,1-.049-0.184V179.01h0Zm0.816,1.011h0.168v-1.389h-0.168v1.389h0Zm0.332,0.4h0.168V179.91l0,0.007a0.32,0.32,0,0,0,.269.132,0.379,0.379,0,0,0,.319-0.15,0.664,0.664,0,0,0,.116-0.414,0.558,0.558,0,0,0-.115-0.369,0.383,0.383,0,0,0-.31-0.137,0.328,0.328,0,0,0-.284.162l-0.009.012V179.01h-0.159v1.411Zm0.237-.608a0.393,0.393,0,0,1-.069-0.249,0.631,0.631,0,0,1,.064-0.326,0.219,0.219,0,0,1,.2-0.1,0.232,0.232,0,0,1,.2.091,0.49,0.49,0,0,1,.065.281,0.528,0.528,0,0,1-.068.294,0.225,0.225,0,0,1-.2.1h0A0.233,0.233,0,0,1,129.286,179.813Z"/>
  </g>
</svg>
