<svg id="Dada" xmlns="http://www.w3.org/2000/svg" width="300" height="300" viewBox="0 0 300 300">
  <defs>
    <style>
      .cls-1 {
        fill: #fff;
      }

      .cls-2, .cls-3 {
        fill: #31323d;
      }

      .cls-2 {
        fill-opacity: 0.2;
      }

      .cls-2, .cls-3, .cls-4 {
        fill-rule: evenodd;
      }

      .cls-4 {
        fill: #575861;
      }
    </style>
  </defs>
  <rect class="cls-1" width="300" height="300"/>
  <g id="Easel">
    <path class="cls-2" d="M151,249.015c41.974,0,76,7.832,76,17.493S192.974,284,151,284s-76-7.832-76-17.492S109.026,249.015,151,249.015Z"/>
    <path id="Color_Fill_4" data-name="Color Fill 4" class="cls-3" d="M195.328,174.535c12.927,53.138,24.11,99.813,23.809,99.813-0.7,0-8.3.76-8.3,0.76s-11.166-48.33-23.394-100.513l-73.548.563c-9.052,52.612-17.725,101.47-18.767,101.47-2.251,0-7.153.38-7.153,0.38s8.15-47.722,17.548-101.786l-11.126.086,0.4-10.282s4.878-.056,12.52-0.124c11.78-67.632,24.8-140.958,26.015-141.766,2.259-1.5,22.592-1.411,24.085-.318,0.81,0.593,19.136,74.681,35.609,142.287,3.366,0.148,5.4.341,5.6,0.589,1.5,1.837.4,8.812,0.4,8.812ZM156.352,46.853c-1.915-.7-20.339-1.01-20.739.472-0.2.751-10.016,59.616-19.941,117.508,20.711-.161,51.841-0.311,69.5.04C171.516,106.718,157.33,47.213,156.352,46.853Z"/>
    <path id="Color_Fill_6" data-name="Color Fill 6" class="cls-3" d="M150.8,47.87c-0.443.009-1.643,0.063-3.155,0.113l-0.394,206.622-6.8.76c-1.783,0-.9-181.451-0.495-207.368a8.315,8.315,0,0,1-2.245-.343c-1.857-.773-0.4-3.338-0.4-3.338l3.082-.389c0.914-1.3,3.313-1.054,5.106-.645l4.5-.568S152.265,47.841,150.8,47.87Z"/>
    <path class="cls-4" d="M75.685,57.418H220.16v108.66H75.685V57.418Z"/>
  </g>
</svg>
