<svg id="Dada" xmlns="http://www.w3.org/2000/svg" width="300" height="300" viewBox="0 0 300 300">
  <defs>
    <style>
      .cls-1 {
        fill: #575861;
      }

      .cls-1, .cls-2, .cls-3 {
        fill-rule: evenodd;
      }

      .cls-2 {
        fill: #e4e1da;
      }

      .cls-3 {
        fill: #31323d;
      }
    </style>
  </defs>
  <g id="dada-placard-temptation">
    <path id="Rectangle_2_copy" data-name="Rectangle 2 copy" class="cls-1" d="M95,166h40.01v26.019H95V166Z"/>
    <path id="Rectangle_2_copy_2" data-name="Rectangle 2 copy 2" class="cls-2" d="M95.687,166.7h38.626V191.3H95.687V166.7Z"/>
    <path id="dada.nyc" class="cls-3" d="M99.487,185.945l0.057-.083v0.367h0.414v-3.7H99.512v1.4l-0.035-.05a0.89,0.89,0,0,0-.774-0.42,0.981,0.981,0,0,0-.8.372,1.494,1.494,0,0,0-.305.978,1.726,1.726,0,0,0,.315,1.09,1.02,1.02,0,0,0,.848.4h0a0.868,0.868,0,0,0,.722-0.357h0Zm-0.162-1.781a1.6,1.6,0,0,1,.187.849,1.017,1.017,0,0,1-.2.655,0.637,0.637,0,0,1-.523.247,0.611,0.611,0,0,1-.534-0.269,1.331,1.331,0,0,1-.187-0.766,1.346,1.346,0,0,1,.174-0.771,0.627,0.627,0,0,1,.548-0.242A0.6,0.6,0,0,1,99.325,184.164ZM101.69,186a0.921,0.921,0,0,0,.114-0.121,0.6,0.6,0,0,0,.106.264,0.446,0.446,0,0,0,.367.141,0.618,0.618,0,0,0,.122-0.015,0.826,0.826,0,0,0,.136-0.04V185.9a0.735,0.735,0,0,1-.083.015,0.383,0.383,0,0,1-.058,0,0.149,0.149,0,0,1-.11-0.041,0.147,0.147,0,0,1-.041-0.11v-1.478a0.764,0.764,0,0,0-.253-0.619,1.117,1.117,0,0,0-.737-0.213,1.221,1.221,0,0,0-.788.223,0.89,0.89,0,0,0-.308.665h0.412a0.571,0.571,0,0,1,.187-0.386,0.653,0.653,0,0,1,.43-0.13,0.731,0.731,0,0,1,.449.122,0.4,0.4,0,0,1,.161.338v0.023a0.3,0.3,0,0,1-.047.171,0.225,0.225,0,0,1-.134.09,1.008,1.008,0,0,1-.141.026l-0.608.077a1.051,1.051,0,0,0-.626.267,0.775,0.775,0,0,0-.214.576,0.74,0.74,0,0,0,.228.57,0.872,0.872,0,0,0,.617.211h0a1.174,1.174,0,0,0,.819-0.3h0Zm0.1-.674a0.644,0.644,0,0,1-.015.1,0.652,0.652,0,0,1-.221.306,0.925,0.925,0,0,1-.595.194,0.467,0.467,0,0,1-.345-0.122,0.472,0.472,0,0,1-.121-0.348,0.338,0.338,0,0,1,.149-0.291,1.084,1.084,0,0,1,.471-0.152l0.409-.06a0.94,0.94,0,0,0,.275-0.083v0.292h0a1.572,1.572,0,0,1-.007.16h0Zm2.535,0.621,0.057-.083v0.367H104.8v-3.7h-0.447v1.4l-0.034-.05a0.889,0.889,0,0,0-.774-0.42,0.98,0.98,0,0,0-.8.372,1.5,1.5,0,0,0-.305.978,1.725,1.725,0,0,0,.315,1.09,1.02,1.02,0,0,0,.848.4h0a0.869,0.869,0,0,0,.722-0.357h0Zm-0.163-1.781a1.6,1.6,0,0,1,.187.849,1.019,1.019,0,0,1-.2.655,0.637,0.637,0,0,1-.523.247,0.611,0.611,0,0,1-.535-0.269,1.726,1.726,0,0,1-.013-1.537,0.625,0.625,0,0,1,.548-0.242A0.6,0.6,0,0,1,104.161,184.164ZM106.526,186a0.921,0.921,0,0,0,.114-0.121,0.6,0.6,0,0,0,.107.264,0.444,0.444,0,0,0,.367.141,0.6,0.6,0,0,0,.121-0.015,0.837,0.837,0,0,0,.137-0.04V185.9a0.777,0.777,0,0,1-.083.015,0.383,0.383,0,0,1-.058,0,0.141,0.141,0,0,1-.152-0.151v-1.478a0.761,0.761,0,0,0-.253-0.619,1.114,1.114,0,0,0-.736-0.213,1.226,1.226,0,0,0-.789.223,0.892,0.892,0,0,0-.307.665h0.411a0.572,0.572,0,0,1,.188-0.386,0.651,0.651,0,0,1,.43-0.13,0.733,0.733,0,0,1,.449.122,0.4,0.4,0,0,1,.161.338v0.023a0.3,0.3,0,0,1-.047.171,0.228,0.228,0,0,1-.134.09,1.022,1.022,0,0,1-.142.026l-0.607.077a1.049,1.049,0,0,0-.626.267,0.776,0.776,0,0,0-.215.576,0.74,0.74,0,0,0,.228.57,0.873,0.873,0,0,0,.618.211h0a1.171,1.171,0,0,0,.818-0.3h0Zm0.1-.674a0.565,0.565,0,0,1-.014.1,0.659,0.659,0,0,1-.221.306,0.927,0.927,0,0,1-.595.194,0.467,0.467,0,0,1-.345-0.122,0.473,0.473,0,0,1-.122-0.348,0.341,0.341,0,0,1,.149-0.291,1.084,1.084,0,0,1,.471-0.152l0.41-.06a0.958,0.958,0,0,0,.275-0.083v0.292h0a1.555,1.555,0,0,1-.008.16h0Zm0.913,0.905h0.531v-0.545h-0.531v0.545Zm0.894,0h0.446v-1.44a1.085,1.085,0,0,1,.188-0.67,0.608,0.608,0,0,1,.511-0.247,0.548,0.548,0,0,1,.438.157,0.778,0.778,0,0,1,.135.511v1.689H110.6v-1.842a0.934,0.934,0,0,0-.239-0.686,0.993,0.993,0,0,0-1.4.1l-0.1.133v-0.4h-0.424v2.689h0ZM113,183.54h-0.488l-0.719,2.224h0l-0.708-2.224h-0.51l0.985,2.735h0l-0.008.043a1.853,1.853,0,0,1-.23.47,0.315,0.315,0,0,1-.253.125,0.768,0.768,0,0,1-.256-0.04v0.42a0.674,0.674,0,0,0,.216.027,0.721,0.721,0,0,0,.547-0.191,2.646,2.646,0,0,0,.415-0.812L113,183.54h0Zm1.645,1.722a0.866,0.866,0,0,1-.232.481,0.66,0.66,0,0,1-.966-0.089,1.366,1.366,0,0,1-.178-0.772,1.308,1.308,0,0,1,.192-0.758,0.612,0.612,0,0,1,.529-0.275,0.649,0.649,0,0,1,.457.158,0.671,0.671,0,0,1,.2.448h0.429a1.008,1.008,0,0,0-.3-0.73,1.077,1.077,0,0,0-.764-0.266,1.088,1.088,0,0,0-.876.386,1.551,1.551,0,0,0-.327,1.037,1.588,1.588,0,0,0,.315,1.036,1.035,1.035,0,0,0,.844.384,1.068,1.068,0,0,0,.758-0.266,1.248,1.248,0,0,0,.355-0.774h-0.429Z"/>
    <path id="Boris_Toledo_Doorm_Salvador_Dalí_The_Temptation_of_St._Anthony" data-name="Boris Toledo Doorm Salvador Dalí The Temptation of St. Anthony" class="cls-3" d="M97.688,172.284h0.561a0.552,0.552,0,0,0,.364-0.109,0.374,0.374,0,0,0,.131-0.3,0.323,0.323,0,0,0-.134-0.275,0.477,0.477,0,0,0-.118-0.062,0.307,0.307,0,0,0,.063-0.038,0.322,0.322,0,0,0,.127-0.271,0.3,0.3,0,0,0-.107-0.24,0.421,0.421,0,0,0-.283-0.092h-0.6v1.39h0Zm0.186-1.229h0.355a0.333,0.333,0,0,1,.2.049,0.177,0.177,0,0,1,.064.152,0.21,0.21,0,0,1-.07.175,0.356,0.356,0,0,1-.221.055H97.873v-0.431h0Zm0,0.583h0.365a0.431,0.431,0,0,1,.243.055,0.194,0.194,0,0,1,.078.171,0.242,0.242,0,0,1-.074.2,0.357,0.357,0,0,1-.234.062H97.873v-0.485h0Zm1.4,0.674a0.425,0.425,0,0,0,.337-0.148,0.65,0.65,0,0,0,0-.774,0.456,0.456,0,0,0-.672,0,0.648,0.648,0,0,0,0,.774,0.425,0.425,0,0,0,.335.148h0Zm0-.147a0.248,0.248,0,0,1-.21-0.1,0.553,0.553,0,0,1,0-.566,0.264,0.264,0,0,1,.421,0,0.55,0.55,0,0,1,0,.566,0.25,0.25,0,0,1-.211.1h0Zm0.6,0.119h0.168v-0.542a0.341,0.341,0,0,1,.074-0.235,0.267,0.267,0,0,1,.211-0.083h0.034v-0.174a0.135,0.135,0,0,0-.047-0.009,0.283,0.283,0,0,0-.235.13,0.518,0.518,0,0,0-.045.074v-0.173h-0.16v1.011h0Zm0.542,0h0.168v-1.011h-0.168v1.011h0Zm0-1.2h0.172v-0.193h-0.172v0.193Zm1.074,0.479a0.312,0.312,0,0,0-.11-0.238,0.419,0.419,0,0,0-.277-0.086,0.411,0.411,0,0,0-.272.084,0.279,0.279,0,0,0-.1.226,0.233,0.233,0,0,0,.06.171,0.41,0.41,0,0,0,.2.095l0.174,0.042a0.473,0.473,0,0,1,.154.055,0.093,0.093,0,0,1,.038.08,0.152,0.152,0,0,1-.058.127,0.285,0.285,0,0,1-.172.043,0.316,0.316,0,0,1-.192-0.048,0.22,0.22,0,0,1-.076-0.156H100.7a0.355,0.355,0,0,0,.115.266,0.492,0.492,0,0,0,.314.085,0.443,0.443,0,0,0,.289-0.088,0.294,0.294,0,0,0,.107-0.239,0.236,0.236,0,0,0-.062-0.174,0.434,0.434,0,0,0-.208-0.1l-0.174-.041a0.519,0.519,0,0,1-.152-0.055,0.1,0.1,0,0,1-.038-0.081,0.12,0.12,0,0,1,.055-0.108,0.279,0.279,0,0,1,.159-0.037,0.26,0.26,0,0,1,.162.046,0.177,0.177,0,0,1,.067.131h0.158Zm0.97,0.718h0.186v-1.223h0.464v-0.167H102v0.167h0.463v1.223h0Zm1.131,0.028a0.426,0.426,0,0,0,.337-0.148,0.649,0.649,0,0,0,0-.774,0.455,0.455,0,0,0-.672,0,0.645,0.645,0,0,0,0,.774,0.423,0.423,0,0,0,.335.148h0Zm0-.147a0.248,0.248,0,0,1-.21-0.1,0.552,0.552,0,0,1,0-.566,0.264,0.264,0,0,1,.421,0,0.552,0.552,0,0,1,0,.566,0.25,0.25,0,0,1-.211.1h0Zm0.583,0.119h0.168v-1.39h-0.168v1.39h0Zm1.039-.06a0.426,0.426,0,0,0,.15-0.254H105.2a0.222,0.222,0,0,1-.088.14,0.267,0.267,0,0,1-.168.055,0.261,0.261,0,0,1-.224-0.1,0.449,0.449,0,0,1-.068-0.231h0.729l0-.061a0.593,0.593,0,0,0-.12-0.387,0.387,0.387,0,0,0-.316-0.148,0.431,0.431,0,0,0-.345.151,0.61,0.61,0,0,0-.128.406,0.543,0.543,0,0,0,.121.376,0.423,0.423,0,0,0,.333.137h0A0.454,0.454,0,0,0,105.214,172.224Zm-0.564-.523a0.386,0.386,0,0,1,.076-0.206,0.255,0.255,0,0,1,.212-0.1,0.237,0.237,0,0,1,.2.087,0.38,0.38,0,0,1,.069.219H104.65Zm1.507,0.476,0.022-.031v0.138h0.156v-1.39h-0.168v0.525l-0.013-.019a0.336,0.336,0,0,0-.291-0.158,0.372,0.372,0,0,0-.3.14,0.566,0.566,0,0,0-.114.368,0.649,0.649,0,0,0,.118.41,0.384,0.384,0,0,0,.319.152h0a0.325,0.325,0,0,0,.271-0.135h0Zm-0.061-.669a0.6,0.6,0,0,1,.071.319,0.38,0.38,0,0,1-.075.246,0.24,0.24,0,0,1-.2.093,0.231,0.231,0,0,1-.2-0.1,0.652,0.652,0,0,1-.005-0.578,0.236,0.236,0,0,1,.206-0.092A0.224,0.224,0,0,1,106.1,171.508Zm0.8,0.8a0.426,0.426,0,0,0,.337-0.148,0.649,0.649,0,0,0,0-.774,0.455,0.455,0,0,0-.672,0,0.649,0.649,0,0,0,0,.774,0.423,0.423,0,0,0,.335.148h0Zm0-.147a0.248,0.248,0,0,1-.21-0.1,0.552,0.552,0,0,1,0-.566,0.264,0.264,0,0,1,.421,0,0.552,0.552,0,0,1,0,.566,0.249,0.249,0,0,1-.211.1h0Zm1.065,0.119h0.548a0.527,0.527,0,0,0,.427-0.188,0.762,0.762,0,0,0,.158-0.506,0.777,0.777,0,0,0-.154-0.507,0.51,0.51,0,0,0-.416-0.189h-0.563v1.39h0Zm0.185-1.229H108.5a0.347,0.347,0,0,1,.3.14,0.645,0.645,0,0,1,.105.4,0.622,0.622,0,0,1-.109.394,0.367,0.367,0,0,1-.308.139h-0.34v-1.068Zm1.494,1.257a0.427,0.427,0,0,0,.337-0.148,0.653,0.653,0,0,0,0-.774,0.457,0.457,0,0,0-.673,0,0.649,0.649,0,0,0,0,.774,0.427,0.427,0,0,0,.336.148h0Zm0-.147a0.249,0.249,0,0,1-.211-0.1,0.559,0.559,0,0,1,0-.566,0.249,0.249,0,0,1,.211-0.1,0.251,0.251,0,0,1,.211.1,0.552,0.552,0,0,1,0,.566,0.251,0.251,0,0,1-.211.1h0Zm0.986,0.147a0.427,0.427,0,0,0,.337-0.148,0.653,0.653,0,0,0,0-.774,0.455,0.455,0,0,0-.672,0,0.645,0.645,0,0,0,0,.774,0.423,0.423,0,0,0,.335.148h0Zm0-.147a0.25,0.25,0,0,1-.211-0.1,0.559,0.559,0,0,1,0-.566,0.265,0.265,0,0,1,.422,0,0.552,0.552,0,0,1,0,.566,0.251,0.251,0,0,1-.211.1h0Zm0.6,0.119H111.4v-0.542a0.337,0.337,0,0,1,.075-0.235,0.264,0.264,0,0,1,.21-0.083h0.034v-0.174a0.135,0.135,0,0,0-.047-0.009,0.28,0.28,0,0,0-.234.13,0.52,0.52,0,0,0-.046.074v-0.173h-0.159v1.011h0Zm0.536,0h0.168v-0.542a0.409,0.409,0,0,1,.071-0.248,0.221,0.221,0,0,1,.184-0.1,0.153,0.153,0,0,1,.123.05,0.217,0.217,0,0,1,.043.144v0.693h0.167v-0.568a0.381,0.381,0,0,1,.065-0.233,0.207,0.207,0,0,1,.173-0.086,0.164,0.164,0,0,1,.137.06,0.281,0.281,0,0,1,.046.175v0.652h0.168v-0.71a0.332,0.332,0,0,0-.085-0.245,0.325,0.325,0,0,0-.242-0.087,0.33,0.33,0,0,0-.259.128l-0.027.035a0.252,0.252,0,0,0-.055-0.082,0.285,0.285,0,0,0-.213-0.081,0.339,0.339,0,0,0-.27.136l-0.035.045v-0.15h-0.159v1.011h0ZM98.7,175.166a0.432,0.432,0,0,0-.146-0.324,0.548,0.548,0,0,0-.368-0.117,0.53,0.53,0,0,0-.361.117,0.4,0.4,0,0,0-.134.316,0.291,0.291,0,0,0,.077.215,0.551,0.551,0,0,0,.259.121l0.239,0.057a0.668,0.668,0,0,1,.234.09,0.182,0.182,0,0,1,.058.149,0.2,0.2,0,0,1-.089.175,0.473,0.473,0,0,1-.26.059,0.452,0.452,0,0,1-.288-0.082,0.294,0.294,0,0,1-.108-0.234H97.639v0.011a0.429,0.429,0,0,0,.147.344,0.632,0.632,0,0,0,.42.128,0.6,0.6,0,0,0,.383-0.111,0.407,0.407,0,0,0,.059-0.554,0.529,0.529,0,0,0-.274-0.137l-0.239-.058a0.693,0.693,0,0,1-.217-0.078,0.141,0.141,0,0,1-.054-0.12,0.212,0.212,0,0,1,.081-0.18,0.389,0.389,0,0,1,.238-0.061,0.377,0.377,0,0,1,.242.071,0.279,0.279,0,0,1,.1.2H98.7Zm0.741,0.9a0.4,0.4,0,0,0,.043-0.046,0.229,0.229,0,0,0,.04.1,0.168,0.168,0,0,0,.138.053,0.216,0.216,0,0,0,.046-0.006,0.384,0.384,0,0,0,.051-0.015v-0.123l-0.031.006-0.022,0a0.057,0.057,0,0,1-.041-0.016,0.055,0.055,0,0,1-.015-0.041v-0.556a0.287,0.287,0,0,0-.1-0.233,0.422,0.422,0,0,0-.277-0.08,0.46,0.46,0,0,0-.3.084,0.334,0.334,0,0,0-.116.25h0.155a0.213,0.213,0,0,1,.07-0.145,0.243,0.243,0,0,1,.162-0.049,0.272,0.272,0,0,1,.169.046,0.15,0.15,0,0,1,.061.127v0.008a0.112,0.112,0,0,1-.018.065,0.087,0.087,0,0,1-.05.034,0.427,0.427,0,0,1-.053.009l-0.229.029a0.4,0.4,0,0,0-.236.1,0.289,0.289,0,0,0-.081.216,0.279,0.279,0,0,0,.086.215,0.328,0.328,0,0,0,.232.079h0a0.442,0.442,0,0,0,.308-0.114h0Zm0.037-.254a0.2,0.2,0,0,1-.006.039,0.248,0.248,0,0,1-.083.116,0.351,0.351,0,0,1-.224.072,0.177,0.177,0,0,1-.13-0.045,0.179,0.179,0,0,1-.046-0.131,0.129,0.129,0,0,1,.056-0.11,0.415,0.415,0,0,1,.177-0.057l0.154-.023a0.34,0.34,0,0,0,.1-0.031v0.11h0c0,0.022,0,.042,0,0.06h0Zm0.382,0.341h0.168v-1.39H99.858v1.39h0Zm0.608,0h0.18l0.372-1.012h-0.185l-0.277.828h0l-0.268-.828h-0.2Zm1.186-.087a0.357,0.357,0,0,0,.042-0.046,0.238,0.238,0,0,0,.041.1,0.167,0.167,0,0,0,.138.053,0.215,0.215,0,0,0,.045-0.006,0.444,0.444,0,0,0,.052-0.015v-0.123l-0.032.006-0.021,0a0.057,0.057,0,0,1-.042-0.016,0.056,0.056,0,0,1-.015-0.041v-0.556a0.286,0.286,0,0,0-.1-0.233,0.42,0.42,0,0,0-.277-0.08,0.46,0.46,0,0,0-.3.084,0.334,0.334,0,0,0-.116.25h0.155a0.216,0.216,0,0,1,.07-0.145,0.243,0.243,0,0,1,.162-0.049,0.272,0.272,0,0,1,.169.046,0.151,0.151,0,0,1,.061.127v0.008a0.111,0.111,0,0,1-.018.065,0.089,0.089,0,0,1-.05.034,0.434,0.434,0,0,1-.054.009l-0.228.029a0.4,0.4,0,0,0-.236.1,0.292,0.292,0,0,0-.08.216,0.279,0.279,0,0,0,.085.215,0.331,0.331,0,0,0,.233.079h0a0.443,0.443,0,0,0,.308-0.114h0Zm0.037-.254a0.144,0.144,0,0,1-.006.039,0.24,0.24,0,0,1-.083.116,0.35,0.35,0,0,1-.224.072,0.175,0.175,0,0,1-.129-0.045,0.177,0.177,0,0,1-.046-0.131,0.13,0.13,0,0,1,.056-0.11,0.411,0.411,0,0,1,.177-0.057l0.154-.023a0.341,0.341,0,0,0,.1-0.031v0.11h0a0.547,0.547,0,0,1,0,.06h0Zm1.03,0.234,0.021-.031v0.138H102.9v-1.39h-0.168v0.525l-0.013-.019a0.334,0.334,0,0,0-.291-0.158,0.368,0.368,0,0,0-.3.14,0.559,0.559,0,0,0-.115.368,0.646,0.646,0,0,0,.118.409,0.383,0.383,0,0,0,.319.152h0a0.329,0.329,0,0,0,.272-0.134h0Zm-0.061-.67a0.6,0.6,0,0,1,.07.319,0.38,0.38,0,0,1-.075.246,0.236,0.236,0,0,1-.2.094,0.23,0.23,0,0,1-.2-0.1,0.5,0.5,0,0,1-.071-0.288,0.5,0.5,0,0,1,.066-0.29,0.235,0.235,0,0,1,.206-0.091A0.224,0.224,0,0,1,102.658,175.376Zm0.8,0.8a0.423,0.423,0,0,0,.336-0.147,0.651,0.651,0,0,0,0-.775,0.458,0.458,0,0,0-.672,0,0.651,0.651,0,0,0,0,.775,0.425,0.425,0,0,0,.336.147h0Zm0-.146a0.249,0.249,0,0,1-.211-0.1,0.552,0.552,0,0,1,0-.566,0.262,0.262,0,0,1,.421,0,0.546,0.546,0,0,1,0,.566,0.248,0.248,0,0,1-.21.1h0Zm0.6,0.119h0.168v-0.542a0.344,0.344,0,0,1,.074-0.236,0.27,0.27,0,0,1,.211-0.083h0.034v-0.174a0.16,0.16,0,0,0-.047-0.008,0.284,0.284,0,0,0-.235.129,0.581,0.581,0,0,0-.045.074v-0.173h-0.16v1.012h0Zm1.022,0h0.548a0.53,0.53,0,0,0,.427-0.188,0.764,0.764,0,0,0,.158-0.506,0.773,0.773,0,0,0-.154-0.507,0.51,0.51,0,0,0-.416-0.189h-0.563v1.39h0Zm0.185-1.229h0.356a0.346,0.346,0,0,1,.3.139,0.648,0.648,0,0,1,.1.4,0.624,0.624,0,0,1-.109.394,0.367,0.367,0,0,1-.308.139h-0.34v-1.068Zm1.658,1.142a0.46,0.46,0,0,0,.043-0.046,0.225,0.225,0,0,0,.04.1,0.169,0.169,0,0,0,.138.053,0.215,0.215,0,0,0,.046-0.006,0.38,0.38,0,0,0,.051-0.015v-0.123l-0.031.006-0.022,0a0.061,0.061,0,0,1-.042-0.016,0.056,0.056,0,0,1-.015-0.041v-0.556a0.288,0.288,0,0,0-.095-0.233,0.423,0.423,0,0,0-.277-0.08,0.461,0.461,0,0,0-.3.084,0.334,0.334,0,0,0-.115.25h0.154a0.212,0.212,0,0,1,.071-0.145,0.243,0.243,0,0,1,.162-0.049,0.274,0.274,0,0,1,.169.046,0.15,0.15,0,0,1,.06.127v0.008a0.111,0.111,0,0,1-.018.065,0.083,0.083,0,0,1-.05.034,0.418,0.418,0,0,1-.053.009l-0.229.029a0.4,0.4,0,0,0-.235.1,0.289,0.289,0,0,0-.081.216,0.28,0.28,0,0,0,.086.215,0.328,0.328,0,0,0,.232.079h0a0.443,0.443,0,0,0,.308-0.114h0Zm0.037-.254a0.22,0.22,0,0,1,0,.039,0.254,0.254,0,0,1-.083.116,0.352,0.352,0,0,1-.224.072,0.179,0.179,0,0,1-.13-0.045,0.182,0.182,0,0,1-.046-0.131,0.13,0.13,0,0,1,.056-0.11,0.421,0.421,0,0,1,.178-0.057l0.154-.023a0.335,0.335,0,0,0,.1-0.031v0.11h0a0.547,0.547,0,0,1,0,.06h0Zm0.382,0.341h0.168v-1.39h-0.168v1.39h0Zm0.4,0h0.168v-1.012h-0.168v1.012h0Zm0.132-1.148,0.246-.272H107.92l-0.17.272h0.13Zm-9.843,5.016h0.186V178.8h0.464v-0.166H97.573V178.8h0.464v1.223h0Zm0.724,0h0.168V179.48A0.392,0.392,0,0,1,99,179.228a0.245,0.245,0,0,1,.2-0.093,0.194,0.194,0,0,1,.155.055,0.276,0.276,0,0,1,.047.181v0.65h0.168v-0.693a0.353,0.353,0,0,0-.09-0.258,0.374,0.374,0,0,0-.528.039l-0.029.038v-0.515H98.761v1.389h0Zm1.681-.06a0.43,0.43,0,0,0,.149-0.254h-0.166a0.222,0.222,0,0,1-.088.14,0.267,0.267,0,0,1-.168.055,0.259,0.259,0,0,1-.223-0.1,0.443,0.443,0,0,1-.068-0.231h0.73l0-.06a0.6,0.6,0,0,0-.121-0.388,0.388,0.388,0,0,0-.316-0.148,0.432,0.432,0,0,0-.345.151,0.607,0.607,0,0,0-.128.406,0.549,0.549,0,0,0,.121.377,0.425,0.425,0,0,0,.333.136h0A0.453,0.453,0,0,0,100.442,179.961Zm-0.564-.523a0.386,0.386,0,0,1,.076-0.206,0.256,0.256,0,0,1,.212-0.1,0.239,0.239,0,0,1,.2.087,0.38,0.38,0,0,1,.069.219H99.878Zm1.677,0.583h0.185V178.8H102.2v-0.166H101.09V178.8h0.464v1.223h0Zm1.419-.06a0.43,0.43,0,0,0,.149-0.254h-0.166a0.222,0.222,0,0,1-.088.14,0.267,0.267,0,0,1-.168.055,0.258,0.258,0,0,1-.223-0.1,0.439,0.439,0,0,1-.069-0.231h0.73v-0.06a0.6,0.6,0,0,0-.12-0.388,0.388,0.388,0,0,0-.316-0.148,0.433,0.433,0,0,0-.345.151,0.61,0.61,0,0,0-.128.406,0.548,0.548,0,0,0,.121.377,0.426,0.426,0,0,0,.333.136h0A0.453,0.453,0,0,0,102.973,179.961Zm-0.565-.523a0.386,0.386,0,0,1,.076-0.206,0.255,0.255,0,0,1,.212-0.1,0.236,0.236,0,0,1,.2.087,0.373,0.373,0,0,1,.07.219h-0.557Zm0.856,0.583h0.168V179.48a0.4,0.4,0,0,1,.071-0.249,0.219,0.219,0,0,1,.183-0.1,0.156,0.156,0,0,1,.124.049,0.217,0.217,0,0,1,.042.144v0.693h0.168v-0.568a0.383,0.383,0,0,1,.064-0.232,0.2,0.2,0,0,1,.174-0.086,0.161,0.161,0,0,1,.136.059,0.281,0.281,0,0,1,.047.175v0.652h0.168v-0.71a0.334,0.334,0,0,0-.086-0.245,0.323,0.323,0,0,0-.242-0.087,0.328,0.328,0,0,0-.258.128l-0.027.035a0.269,0.269,0,0,0-.055-0.082,0.286,0.286,0,0,0-.214-0.081,0.341,0.341,0,0,0-.269.136l-0.035.045v-0.15h-0.159v1.011h0Zm1.5,0.4h0.167V179.91l0.006,0.007a0.32,0.32,0,0,0,.269.132,0.38,0.38,0,0,0,.319-0.15,0.664,0.664,0,0,0,.115-0.414,0.558,0.558,0,0,0-.114-0.369,0.383,0.383,0,0,0-.31-0.137,0.33,0.33,0,0,0-.285.162l-0.008.012V179.01h-0.159v1.411Zm0.236-.608a0.393,0.393,0,0,1-.069-0.249,0.642,0.642,0,0,1,.064-0.326,0.222,0.222,0,0,1,.2-0.1,0.232,0.232,0,0,1,.2.091,0.49,0.49,0,0,1,.065.281,0.528,0.528,0,0,1-.068.294,0.226,0.226,0,0,1-.2.1h0A0.235,0.235,0,0,1,105,179.813Zm1.129,0.076h-0.059a0.12,0.12,0,0,1-.072-0.02,0.062,0.062,0,0,1-.026-0.054v-0.666h0.157V179.01h-0.157v-0.284h-0.168v0.284h-0.138v0.139h0.138v0.666a0.253,0.253,0,0,0,.045.17,0.207,0.207,0,0,0,.155.049,0.927,0.927,0,0,0,.125-0.014h0v-0.131Zm0.659,0.045a0.364,0.364,0,0,0,.043-0.045,0.216,0.216,0,0,0,.04.1,0.164,0.164,0,0,0,.138.053,0.3,0.3,0,0,0,.046,0,0.276,0.276,0,0,0,.051-0.016V179.9l-0.031,0-0.022,0a0.058,0.058,0,0,1-.042-0.015,0.06,0.06,0,0,1-.015-0.042v-0.556a0.289,0.289,0,0,0-.095-0.233,0.423,0.423,0,0,0-.277-0.08,0.461,0.461,0,0,0-.3.084,0.336,0.336,0,0,0-.116.25h0.155a0.216,0.216,0,0,1,.071-0.145,0.246,0.246,0,0,1,.161-0.049,0.276,0.276,0,0,1,.169.046,0.15,0.15,0,0,1,.061.127V179.3a0.108,0.108,0,0,1-.018.064,0.081,0.081,0,0,1-.05.034,0.31,0.31,0,0,1-.053.01l-0.229.029a0.393,0.393,0,0,0-.235.1,0.293,0.293,0,0,0-.081.217,0.278,0.278,0,0,0,.086.214,0.327,0.327,0,0,0,.232.08h0a0.439,0.439,0,0,0,.308-0.115h0Zm0.037-.253a0.22,0.22,0,0,1,0,.039,0.251,0.251,0,0,1-.083.115,0.347,0.347,0,0,1-.224.073,0.173,0.173,0,0,1-.13-0.046,0.178,0.178,0,0,1-.046-0.131,0.128,0.128,0,0,1,.056-0.109,0.408,0.408,0,0,1,.178-0.057l0.153-.023a0.371,0.371,0,0,0,.1-0.031v0.11h0a0.547,0.547,0,0,1,0,.06h0Zm0.745,0.208h-0.06a0.115,0.115,0,0,1-.071-0.02,0.063,0.063,0,0,1-.027-0.054v-0.666h0.158V179.01h-0.158v-0.284h-0.168v0.284h-0.138v0.139h0.138v0.666a0.253,0.253,0,0,0,.045.17,0.208,0.208,0,0,0,.156.049,0.943,0.943,0,0,0,.125-0.014h0v-0.131Zm0.093,0.132h0.168V179.01h-0.168v1.011h0Zm0-1.2h0.172v-0.192h-0.172v0.192Zm0.751,1.225a0.423,0.423,0,0,0,.337-0.148,0.649,0.649,0,0,0,0-.774,0.455,0.455,0,0,0-.672,0,0.645,0.645,0,0,0,0,.774,0.42,0.42,0,0,0,.335.148h0Zm0-.147a0.248,0.248,0,0,1-.21-0.1,0.462,0.462,0,0,1-.078-0.282,0.469,0.469,0,0,1,.078-0.284,0.264,0.264,0,0,1,.421,0,0.469,0.469,0,0,1,.078.284,0.462,0.462,0,0,1-.078.282,0.25,0.25,0,0,1-.211.1h0Zm0.579,0.119h0.168V179.48a0.408,0.408,0,0,1,.071-0.252,0.229,0.229,0,0,1,.192-0.093,0.205,0.205,0,0,1,.165.059,0.29,0.29,0,0,1,.051.192v0.635h0.168v-0.693a0.352,0.352,0,0,0-.09-0.258,0.341,0.341,0,0,0-.254-0.091,0.345,0.345,0,0,0-.274.13l-0.037.05V179.01h-0.16v1.011h0Zm1.848,0.028a0.421,0.421,0,0,0,.336-0.148,0.649,0.649,0,0,0,0-.774,0.455,0.455,0,0,0-.672,0,0.649,0.649,0,0,0,0,.774,0.422,0.422,0,0,0,.336.148h0Zm0-.147a0.249,0.249,0,0,1-.211-0.1,0.462,0.462,0,0,1-.078-0.282,0.469,0.469,0,0,1,.078-0.284,0.264,0.264,0,0,1,.421,0,0.462,0.462,0,0,1,.079.284,0.456,0.456,0,0,1-.079.282,0.248,0.248,0,0,1-.21.1h0Zm0.955-.751V179.01h-0.167v-0.123a0.14,0.14,0,0,1,.026-0.09,0.088,0.088,0,0,1,.075-0.032l0.066,0v-0.153l-0.074,0a0.3,0.3,0,0,0-.2.056,0.216,0.216,0,0,0-.065.17v0.172h-0.138v0.141h0.138v0.87h0.168v-0.87H111.8Zm1.56-.117a0.43,0.43,0,0,0-.146-0.323,0.55,0.55,0,0,0-.369-0.117,0.534,0.534,0,0,0-.361.116,0.4,0.4,0,0,0-.134.317,0.291,0.291,0,0,0,.077.214,0.544,0.544,0,0,0,.259.121l0.239,0.058a0.637,0.637,0,0,1,.234.09,0.181,0.181,0,0,1,.058.148,0.2,0.2,0,0,1-.089.175,0.568,0.568,0,0,1-.548-0.022,0.294,0.294,0,0,1-.108-0.234H112.3v0.01a0.431,0.431,0,0,0,.148.345,0.633,0.633,0,0,0,.42.127,0.61,0.61,0,0,0,.383-0.11,0.408,0.408,0,0,0,.059-0.554,0.529,0.529,0,0,0-.274-0.138l-0.239-.057a0.666,0.666,0,0,1-.218-0.079,0.138,0.138,0,0,1-.054-0.12,0.21,0.21,0,0,1,.081-0.179,0.391,0.391,0,0,1,.238-0.062,0.381,0.381,0,0,1,.242.071,0.281,0.281,0,0,1,.1.2h0.171Zm0.537,0.855h-0.06a0.117,0.117,0,0,1-.071-0.02,0.063,0.063,0,0,1-.027-0.054v-0.666h0.158V179.01h-0.158v-0.284h-0.168v0.284h-0.138v0.139h0.138v0.666a0.247,0.247,0,0,0,.046.17,0.207,0.207,0,0,0,.155.049,0.927,0.927,0,0,0,.125-0.014h0v-0.131Zm0.13,0.132h0.2v-0.2h-0.2v0.2Zm0.769,0h0.192l0.144-.4h0.547l0.14,0.4h0.2l-0.492-1.389H115.31l-0.518,1.389h0Zm0.616-1.185h0l0.211,0.616h-0.431l0.221-.616h0Zm0.679,1.185h0.168V179.48a0.408,0.408,0,0,1,.071-0.252,0.228,0.228,0,0,1,.192-0.093,0.205,0.205,0,0,1,.165.059,0.29,0.29,0,0,1,.051.192v0.635H116.9v-0.693a0.352,0.352,0,0,0-.09-0.258,0.374,0.374,0,0,0-.528.039l-0.037.05V179.01h-0.16v1.011h0Zm1.353-.132h-0.06a0.117,0.117,0,0,1-.071-0.02,0.063,0.063,0,0,1-.027-0.054v-0.666h0.158V179.01h-0.158v-0.284h-0.168v0.284h-0.138v0.139h0.138v0.666a0.247,0.247,0,0,0,.046.17,0.205,0.205,0,0,0,.155.049,0.927,0.927,0,0,0,.125-0.014h0v-0.131Zm0.088,0.132H117.7V179.48a0.39,0.39,0,0,1,.074-0.252,0.246,0.246,0,0,1,.2-0.093,0.191,0.191,0,0,1,.154.055,0.274,0.274,0,0,1,.048.181v0.65h0.168v-0.693a0.352,0.352,0,0,0-.09-0.258,0.341,0.341,0,0,0-.254-0.091,0.345,0.345,0,0,0-.274.13l-0.028.038v-0.515h-0.168v1.389h0Zm1.392,0.028a0.421,0.421,0,0,0,.337-0.148,0.649,0.649,0,0,0,0-.774,0.455,0.455,0,0,0-.672,0,0.649,0.649,0,0,0,0,.774,0.422,0.422,0,0,0,.335.148h0Zm0-.147a0.248,0.248,0,0,1-.21-0.1,0.462,0.462,0,0,1-.078-0.282,0.469,0.469,0,0,1,.078-0.284,0.264,0.264,0,0,1,.421,0,0.469,0.469,0,0,1,.079.284,0.463,0.463,0,0,1-.079.282,0.249,0.249,0,0,1-.211.1h0Zm0.58,0.119h0.168V179.48a0.4,0.4,0,0,1,.071-0.252,0.228,0.228,0,0,1,.192-0.093,0.2,0.2,0,0,1,.164.059,0.29,0.29,0,0,1,.051.192v0.635h0.168v-0.693a0.356,0.356,0,0,0-.089-0.258,0.345,0.345,0,0,0-.255-0.091,0.342,0.342,0,0,0-.273.13l-0.038.05V179.01H119.5v1.011h0Zm1.8-1.011h-0.183l-0.271.836h0l-0.266-.836h-0.192l0.371,1.028h0l0,0.016a0.72,0.72,0,0,1-.087.176,0.117,0.117,0,0,1-.095.048,0.312,0.312,0,0,1-.1-0.015v0.157a0.256,0.256,0,0,0,.081.011,0.273,0.273,0,0,0,.206-0.072,1.033,1.033,0,0,0,.156-0.305l0.379-1.045h0Z"/>
  </g>
</svg>
