<svg id="ballet_slippers" data-name="Ballet Shoes" xmlns="http://www.w3.org/2000/svg" width="3000" height="3000" viewBox="0 0 3000 3000" shape-rendering="geometricPrecision">
  <defs>
    <style>
      .cls-1 {
        fill: #31323d;
        fill-rule: evenodd;
      }
    </style>
  </defs>
  <g id="rear">
    <g id="right">
      <path id="rear_left_shoe_base" data-name="rear left shoe base" class="cls-1" d="M2180.37,2255.91c34.79,0,43.31-19.88,42.6-42.61s-36.21-36.93-65.33-48.29c0,0-72.64,11.34-160.13,10.32-5.02,8.03-10.41,15.38-15.96,20.93-22.57,22.58-49.49,52.61-60.44,56.4,1.1,0.34,2.29.71,3.61,1.11C2014.44,2254.61,2156.83,2255.91,2180.37,2255.91Zm-261.3-2.84a6.2,6.2,0,0,0,2.04-.41c-4.96-1.53-7.72-2.43-7.72-2.43S1909.84,2253.07,1919.07,2253.07Z"/>
      <path id="rear_left_shoe_strap_1_base" data-name="rear left shoe strap 1 base" class="cls-1" d="M2038.36,2179.21s3.25-50.84-12.22-63.07c-1.78,4.65-6.26,13.16-12.48,26.32a120.41,120.41,0,0,1-3.71,36.75C2007.11,2178.5,2022.74,2182.76,2038.36,2179.21Z"/>
    </g>
    <g id="left">
      <path id="rear_left_shoe_base-2" data-name="rear left shoe base" class="cls-1" d="M771.634,2255.91c-34.792,0-43.313-19.88-42.6-42.61s36.212-36.93,65.324-48.29c0,0,72.649,11.34,160.134,10.32,5.022,8.03,10.413,15.38,15.958,20.93,22.576,22.58,49.493,52.61,60.443,56.4-1.1.34-2.3,0.71-3.61,1.11C937.558,2254.61,795.165,2255.91,771.634,2255.91Zm261.3-2.84a6.2,6.2,0,0,1-2.04-.41c4.96-1.53,7.72-2.43,7.72-2.43S1042.16,2253.07,1032.93,2253.07Z"/>
      <path id="rear_left_shoe_strap_1_base-2" data-name="rear left shoe strap 1 base" class="cls-1" d="M913.643,2179.21s-6.091-53.68,9.375-65.91c1.78,4.65,9.105,16,15.323,29.16a120.6,120.6,0,0,0,3.7,36.75C944.885,2178.5,929.264,2182.76,913.643,2179.21Z"/>
    </g>
  </g>
  <path id="Rear_shoe_left_border" data-name="Rear shoe left border" class="cls-1" d="M922.164,2113.88s21.3,58.23,45.443,82.38,53.253,56.81,62.483,56.81,5.68-2.84,5.68-2.84-35.5-27.7-62.483-59.65C951.775,2165.1,929.974,2103.22,922.164,2113.88Z"/>
  <path id="Rear_shoe_left_border_copy" data-name="Rear shoe left border copy" class="cls-1" d="M2029.84,2113.88s-21.31,58.23-45.45,82.38-53.25,56.81-62.48,56.81-5.68-2.84-5.68-2.84,35.5-27.7,62.48-59.65C2000.22,2165.1,2022.03,2103.22,2029.84,2113.88Z"/>
  <g id="front">
    <g id="left-2" data-name="left">
      <path id="front_left_shoe_base" data-name="front left shoe base" class="cls-1" d="M1069.85,2210.46c2.67,53.26-4.48,94.58,17.04,93.74,32.81-1.27,82.6-117,93.73-147.71s31.24-8.53,31.24-8.53-18.88,110.86-28.4,150.56-30.76,73.86-85.2,73.86-69.43-1.64-93.73-2.84c-13.076-.65-26.082-16.8-25.563-39.77s19.779-31,34.083-34.09,27.54-2.23,28.4-48.29-2.84-93.74-2.84-93.74S1067.19,2157.2,1069.85,2210.46Z"/>
      <path id="front_left_shoe_color" data-name="front left shoe color" class="cls-1" d="M1061.33,2227.5c-0.68,57.28,4.04,88.9,25.56,88.07,32.81-1.28,85.44-114.17,96.57-144.88s17.04-8.52,17.04-8.52-18.88,96.65-28.4,136.35-19.4,65.34-73.84,65.34-60.91-1.64-85.21-2.84c-13.076-.65-26.082-8.28-25.562-31.25s22.622-28.16,36.922-31.25,24.7-5.07,25.56-51.13,0-68.18,0-68.18S1061.97,2174.18,1061.33,2227.5Z"/>
      <path id="front_left_shoe_strap_2_base" data-name="front left shoe strap 2 base" class="cls-1" d="M1152.22,2230.35s-73.37-78.12-105.09-59.66c0,0-7.57-11.84-5.68-19.88s59.65-26.04,122.13,56.81C1163.58,2207.62,1165.95,2228.45,1152.22,2230.35Z"/>
      <path id="front_left_shoe_strap_1_base" data-name="front left shoe strap 1 base" class="cls-1" d="M1067.01,2230.35s128.15-91.91,133.49-71.02c0,0,14.69-5.89,5.68-22.73s-108.46,23.45-142.01,65.34C1064.17,2201.94,1057.64,2214.27,1067.01,2230.35Z"/>
    </g>
    <g id="right-2" data-name="right">
      <path id="front_left_shoe_base-2" data-name="front left shoe base" class="cls-1" d="M1825.34,2210.46c-2.67,53.26,4.49,94.58-17.04,93.74-32.8-1.27-82.59-117-93.72-147.71s-31.25-8.53-31.25-8.53,18.89,110.86,28.41,150.56,30.75,73.86,85.2,73.86,69.42-1.64,93.73-2.84c13.07-.65,26.08-16.8,25.56-39.77s-19.78-31-34.08-34.09-27.55-2.23-28.41-48.29,2.84-93.74,2.84-93.74S1828.01,2157.2,1825.34,2210.46Z"/>
      <path id="front_left_shoe_strap_2_base-2" data-name="front left shoe strap 2 base" class="cls-1" d="M1742.98,2230.35s73.37-78.12,105.08-59.66c0,0,7.58-11.84,5.68-19.88s-59.64-26.04-122.12,56.81C1731.62,2207.62,1729.25,2228.45,1742.98,2230.35Z"/>
      <path id="front_left_shoe_strap_1_base-2" data-name="front left shoe strap 1 base" class="cls-1" d="M1828.18,2230.35s-128.15-91.91-133.49-71.02c0,0-14.69-5.89-5.68-22.73s108.47,23.45,142.01,65.34C1831.02,2201.94,1837.56,2214.27,1828.18,2230.35Z"/>
    </g>
  </g>
</svg>
