<svg id="ballerina_costume" data-name="Ballerina" xmlns="http://www.w3.org/2000/svg" width="3000" height="3000" viewBox="0 0 3000 3000" shape-rendering="geometricPrecision">
  <defs>
    <style>
      .cls-1 {
        fill: #31323d;
      }

      .cls-1, .cls-2, .cls-3, .cls-4, .cls-5, .cls-6 {
        fill-rule: evenodd;
      }

      .cls-2 {
        fill: #feeae8;
      }

      .cls-3 {
        fill: #e3d1cf;
      }

      .cls-4 {
        fill: #ffe0de;
      }

      .cls-5 {
        fill: #e5bdc6;
      }

      .cls-6 {
        fill: #c5b2bb;
      }
    </style>
  </defs>
  <g id="rear">
    <g id="right">
      <path id="rear_left_shoe_base" data-name="rear left shoe base" class="cls-1" d="M2180.37,2255.91c34.79,0,43.31-19.88,42.6-42.61s-36.21-36.93-65.33-48.29c0,0-72.64,11.34-160.13,10.32-5.02,8.03-10.41,15.38-15.96,20.93-22.57,22.58-49.49,52.61-60.44,56.4,1.1,0.34,2.29.71,3.61,1.11C2014.44,2254.61,2156.83,2255.91,2180.37,2255.91Zm-261.3-2.84a6.2,6.2,0,0,0,2.04-.41c-4.96-1.53-7.72-2.43-7.72-2.43S1909.84,2253.07,1919.07,2253.07Z"/>
      <path id="rear_left_shoe_strap_1_base" data-name="rear left shoe strap 1 base" class="cls-1" d="M2038.36,2179.21s3.25-50.84-12.22-63.07c-1.78,4.65-6.26,13.16-12.48,26.32a120.726,120.726,0,0,1-3.71,36.75C2007.11,2178.5,2022.74,2182.76,2038.36,2179.21Z"/>
    </g>
    <g id="left">
      <path id="rear_left_shoe_base-2" data-name="rear left shoe base" class="cls-1" d="M771.634,2255.91c-34.793,0-43.313-19.88-42.6-42.61s36.212-36.93,65.324-48.29c0,0,72.649,11.34,160.134,10.32,5.022,8.03,10.412,15.38,15.958,20.93,22.576,22.58,49.493,52.61,60.443,56.4-1.1.34-2.3,0.71-3.61,1.11C937.558,2254.61,795.165,2255.91,771.634,2255.91Zm261.3-2.84a6.2,6.2,0,0,1-2.04-.41c4.96-1.53,7.72-2.43,7.72-2.43S1042.16,2253.07,1032.93,2253.07Z"/>
      <path id="rear_left_shoe_strap_1_base-2" data-name="rear left shoe strap 1 base" class="cls-1" d="M913.643,2179.21s-6.091-53.68,9.375-65.91c1.78,4.65,9.105,16,15.322,29.16a120.609,120.609,0,0,0,3.7,36.75C944.885,2178.5,929.264,2182.76,913.643,2179.21Z"/>
    </g>
  </g>
  <path id="Rear_shoe_left_border" data-name="Rear shoe left border" class="cls-1" d="M922.163,2113.88s21.3,58.23,45.444,82.38,53.253,56.81,62.483,56.81,5.68-2.84,5.68-2.84-35.5-27.7-62.483-59.65C951.775,2165.1,929.974,2103.22,922.163,2113.88Z"/>
  <path id="Rear_shoe_left_border_copy" data-name="Rear shoe left border copy" class="cls-1" d="M2029.84,2113.88s-21.31,58.23-45.45,82.38-53.25,56.81-62.48,56.81-5.68-2.84-5.68-2.84,35.5-27.7,62.48-59.65C2000.22,2165.1,2022.03,2103.22,2029.84,2113.88Z"/>
  <g id="front">
    <g id="left-2" data-name="left">
      <path id="front_left_shoe_base" data-name="front left shoe base" class="cls-1" d="M1069.85,2210.46c2.67,53.26-4.48,94.58,17.04,93.74,32.81-1.27,82.6-117,93.73-147.71s31.24-8.53,31.24-8.53-18.88,110.86-28.4,150.56-30.76,73.86-85.2,73.86-69.43-1.64-93.73-2.84c-13.076-.65-26.083-16.8-25.563-39.77s19.779-31,34.083-34.09,27.54-2.23,28.4-48.29-2.84-93.74-2.84-93.74S1067.19,2157.2,1069.85,2210.46Z"/>
      <path id="front_left_shoe_color" data-name="front left shoe color" class="cls-1" d="M1061.33,2227.5c-0.68,57.28,4.04,88.9,25.56,88.07,32.81-1.28,85.44-114.17,96.57-144.88s17.04-8.52,17.04-8.52-18.88,96.65-28.4,136.35-19.4,65.34-73.84,65.34-60.91-1.64-85.21-2.84c-13.076-.65-26.082-8.28-25.562-31.25s22.622-28.16,36.922-31.25,24.7-5.07,25.56-51.13,0-68.18,0-68.18S1061.97,2174.18,1061.33,2227.5Z"/>
      <path id="front_left_shoe_strap_2_base" data-name="front left shoe strap 2 base" class="cls-1" d="M1152.22,2230.35s-73.37-78.12-105.09-59.66c0,0-7.57-11.84-5.68-19.88s59.65-26.04,122.13,56.81C1163.58,2207.62,1165.95,2228.45,1152.22,2230.35Z"/>
      <path id="front_left_shoe_strap_1_base" data-name="front left shoe strap 1 base" class="cls-1" d="M1067.01,2230.35s128.15-91.91,133.49-71.02c0,0,14.69-5.89,5.68-22.73s-108.46,23.45-142.01,65.34C1064.17,2201.94,1057.64,2214.27,1067.01,2230.35Z"/>
    </g>
    <g id="right-2" data-name="right">
      <path id="front_left_shoe_base-2" data-name="front left shoe base" class="cls-1" d="M1825.34,2210.46c-2.67,53.26,4.49,94.58-17.04,93.74-32.8-1.27-82.59-117-93.72-147.71s-31.25-8.53-31.25-8.53,18.89,110.86,28.41,150.56,30.75,73.86,85.2,73.86,69.42-1.64,93.73-2.84c13.07-.65,26.08-16.8,25.56-39.77s-19.78-31-34.08-34.09-27.55-2.23-28.41-48.29,2.84-93.74,2.84-93.74S1828.01,2157.2,1825.34,2210.46Z"/>
      <path id="front_left_shoe_strap_2_base-2" data-name="front left shoe strap 2 base" class="cls-1" d="M1742.98,2230.35s73.37-78.12,105.08-59.66c0,0,7.58-11.84,5.68-19.88s-59.64-26.04-122.12,56.81C1731.62,2207.62,1729.25,2228.45,1742.98,2230.35Z"/>
      <path id="front_left_shoe_strap_1_base-2" data-name="front left shoe strap 1 base" class="cls-1" d="M1828.18,2230.35s-128.15-91.91-133.49-71.02c0,0-14.69-5.89-5.68-22.73s108.47,23.45,142.01,65.34C1831.02,2201.94,1837.56,2214.27,1828.18,2230.35Z"/>
    </g>
  </g>
  <g id="rear-2" data-name="rear">
    <g id="right-3" data-name="right">
      <path id="rear_left_shoe_base-3" data-name="rear left shoe base" class="cls-1" d="M2175.53,2255.84c34.66,0,43.14-19.83,42.43-42.49s-36.06-36.84-65.06-48.17c0,0-72.35,11.31-159.49,10.3-5,8-10.37,15.34-15.89,20.87-22.49,22.52-49.3,52.46-60.2,56.25,1.1,0.34,2.29.71,3.6,1.11C2010.28,2254.55,2152.1,2255.84,2175.53,2255.84Zm-260.24-2.83a6.145,6.145,0,0,0,2.03-.41c-4.94-1.52-7.69-2.42-7.69-2.42S1906.09,2253.01,1915.29,2253.01Z"/>
      <path id="rear_left_shoe_color" data-name="rear left shoe color" class="cls-2" d="M2158.56,2247.34c34.65,0,48.8-8.5,48.09-31.16s-21.92-28.33-50.92-39.67c0,0-77.3,10.73-168.33,7.96a97.848,97.848,0,0,1-9.88,11.88c-16.8,16.82-36,37.78-49.19,48.89C2009.46,2246.08,2135.42,2247.34,2158.56,2247.34Z"/>
      <path id="rear_left_shoe_shadow" data-name="rear left shoe shadow" class="cls-3" d="M2154.87,2247.33c-32.83-.11-161.99-1.54-226.28-2.32,13.19-11.17,32.24-31.95,48.93-48.66a97.848,97.848,0,0,0,9.88-11.88c26.13,0.8,51.13.48,73.49-.38,46.32,21.52,90.24,43.29,111.81,40.59,17.12-2.14,28.23-11.14,31.76-18.85a28.178,28.178,0,0,1,2.19,10.35c0.71,22.66-13.44,31.16-48.09,31.16h-3.03C2155.32,2247.34,2155.09,2247.34,2154.87,2247.33Z"/>
      <path id="rear_left_shoe_strap_1_base-3" data-name="rear left shoe strap 1 base" class="cls-1" d="M2034.09,2179.35s6.07-53.54-9.33-65.74c-1.77,4.64-9.07,15.96-15.26,29.09a120.656,120.656,0,0,1-3.69,36.65C2002.98,2178.64,2018.54,2182.89,2034.09,2179.35Z"/>
      <path id="rear_left_shoe_strap_1_color" data-name="rear left shoe strap 1 color" class="cls-3" d="M2011.46,2187.85c0.05-.19.08-0.37,0.13-0.57C2008.49,2187.79,2009.7,2187.41,2011.46,2187.85Zm16.98-2.84s4.82-41.34-3.87-60.94c-1.24,3.05-8.42,6.67-10.17,10.68,2.01,12.61,2.59,30.54-2.81,52.53C2013.46,2186.98,2022.57,2186.35,2028.44,2185.01Z"/>
    </g>
    <g id="left-3" data-name="left">
      <path id="rear_left_shoe_base-4" data-name="rear left shoe base" class="cls-1" d="M772.467,2255.84c-34.653,0-43.139-19.83-42.432-42.49s36.067-36.84,65.062-48.17c0,0,72.356,11.31,159.49,10.3,5,8,10.37,15.34,15.893,20.87,22.486,22.52,49.3,52.46,60.2,56.25-1.1.34-2.29,0.71-3.6,1.11C937.723,2254.55,795.9,2255.84,772.467,2255.84Zm260.243-2.83a6.145,6.145,0,0,1-2.03-.41c4.94-1.52,7.69-2.42,7.69-2.42S1041.91,2253.01,1032.71,2253.01Z"/>
      <path id="rear_left_shoe_color-2" data-name="rear left shoe color" class="cls-2" d="M789.439,2247.34c-34.652,0-48.8-8.5-48.089-31.16s21.923-28.33,50.918-39.67c0,0,77.3,10.73,168.336,7.96a97.649,97.649,0,0,0,9.876,11.88c16.8,16.82,36,37.78,49.19,48.89C938.543,2246.08,812.582,2247.34,789.439,2247.34Z"/>
      <path id="rear_left_shoe_shadow-2" data-name="rear left shoe shadow" class="cls-3" d="M973.651,2199.54c0.132,0.13.267,0.27,0.4,0.41,15.783,16,33.11,34.68,45.36,45.06h0c-64.291.78-193.455,2.21-226.282,2.32-0.214.01-.449,0.01-0.655,0.01h-3.034c-34.652,0-48.8-8.5-48.089-31.16,0.639-20.47,18-27.07,42.715-36.51,0.42,9.88-3.215,26.23,11.032,28.01,19.942,2.5,90.324-.2,103.956-23.2,19.188,0.54,39.973.65,61.551-.01h0c0.8,1.12-.814-1.06,0,0s4.053,5.35,4.877,6.34q2.472,3,5,5.54Q972.052,2197.925,973.651,2199.54Z"/>
      <path id="rear_left_shoe_strap_1_base-4" data-name="rear left shoe strap 1 base" class="cls-1" d="M913.905,2179.35s-8.424-53.07,9.337-65.74c1.773,4.64,11.9,18.79,18.09,31.92-0.624,10.15-2.692,19.59.86,33.82C945.021,2178.64,929.463,2182.89,913.905,2179.35Z"/>
      <path id="rear_left_shoe_strap_1_color-2" data-name="rear left shoe strap 1 color" class="cls-3" d="M936.535,2187.85c-0.048-.19-0.077-0.37-0.124-0.57C939.506,2187.79,938.3,2187.41,936.535,2187.85Zm-16.973-2.84s-4.822-41.34,3.867-60.94c1.244,3.05,8.421,6.67,10.173,10.68-2.014,12.61-2.594,30.54,2.809,52.53C934.537,2186.98,925.43,2186.35,919.562,2185.01Z"/>
    </g>
  </g>
  <path id="Rear_shoe_left_border-2" data-name="Rear shoe left border" class="cls-1" d="M922.391,2114.19s21.216,58.08,45.26,82.16,53.039,56.66,62.229,56.66,5.66-2.83,5.66-2.83-35.36-27.63-62.231-59.5C951.884,2165.27,930.17,2103.56,922.391,2114.19Z"/>
  <path id="Rear_shoe_left_border_copy-2" data-name="Rear shoe left border copy" class="cls-1" d="M2025.61,2114.19s-21.22,58.08-45.26,82.16-53.04,56.66-62.23,56.66-5.66-2.83-5.66-2.83,35.36-27.63,62.23-59.5C1996.12,2165.27,2017.83,2103.56,2025.61,2114.19Z"/>
  <g id="front-2" data-name="front">
    <g id="left-4" data-name="left">
      <path id="front_left_shoe_base-3" data-name="front left shoe base" class="cls-1" d="M1069.49,2210.51c2.65,53.12-4.47,94.33,16.97,93.5,32.67-1.28,82.26-116.7,93.35-147.33s31.11-8.5,31.11-8.5-18.8,110.56-28.28,150.16S1152,2372,1097.77,2372s-69.14-1.63-93.34-2.83c-13.028-.65-25.981-16.76-25.464-39.67s19.7-30.91,33.944-33.99,27.43-2.23,28.29-48.17-2.83-93.49-2.83-93.49S1066.83,2157.39,1069.49,2210.51Z"/>
      <path id="front_left_shoe_color-2" data-name="front left shoe color" class="cls-2" d="M1061,2227.51c-0.68,57.13,4.02,88.66,25.46,87.83,32.67-1.27,85.09-113.86,96.18-144.49s16.97-8.5,16.97-8.5-18.81,96.39-28.29,135.99-19.32,65.16-73.55,65.16-60.65-1.63-84.86-2.83c-13.021-.65-25.975-8.26-25.457-31.17s22.527-28.08,36.777-31.16,24.6-5.06,25.46-51,0-67.99,0-67.99S1061.63,2174.33,1061,2227.51Z"/>
      <path id="front_left_shoe_color_copy" data-name="front left shoe color copy" class="cls-3" d="M1171.32,2298.34c-9.48,39.59-19.32,65.16-73.55,65.16s-60.65-1.63-84.86-2.83c-13.021-.65-25.975-8.26-25.457-31.17,0.392-17.34,13.117-24.52,25.447-28.32-0.07.11-15.993,21.74-5.65,31.16,10.38,9.44,129.18,46.27,169.73-62.33,0.55-1.48,1.09-2.91,1.63-4.31C1175.93,2278.23,1173.4,2289.65,1171.32,2298.34Z"/>
      <path id="front_left_shoe_strap_2_base-3" data-name="front left shoe strap 2 base" class="cls-1" d="M1151.52,2230.34s-73.08-77.91-104.66-59.49c0,0-7.55-11.81-5.66-19.83s59.4-25.97,121.64,56.66C1162.84,2207.68,1165.19,2228.46,1151.52,2230.34Z"/>
      <path id="front_left_shoe_strap_2_color" data-name="front left shoe strap 2 color" class="cls-2" d="M1160.01,2230.34s-81.57-83.57-113.15-65.16c0,0-1.89-.47,0-8.5s53.74-23.13,115.98,59.5C1162.84,2216.18,1173.68,2228.46,1160.01,2230.34Z"/>
      <path id="front_left_shoe_strap_2_shadow" data-name="front left shoe strap 2 shadow" class="cls-3" d="M1137.5,2187.07c-3.74,2.76-10.57,7.5-15.41,9.13a265.267,265.267,0,0,0-30.37-21.44c-0.12-1.61.3-4.13,3.23-6.74,2.63-2.36,6.27-4.94,10.54-5.77C1115.37,2167.9,1126.14,2175.93,1137.5,2187.07Z"/>
      <path id="front_left_shoe_strap_1_base-3" data-name="front left shoe strap 1 base" class="cls-1" d="M1066.66,2230.34s127.63-91.66,132.95-70.82c0,0,14.63-5.88,5.66-22.67s-108.03,23.39-141.44,65.16C1063.83,2202.01,1057.32,2214.31,1066.66,2230.34Z"/>
      <path id="front_left_shoe_strap_1_color" data-name="front left shoe strap 1 color" class="cls-2" d="M1058.17,2230.34s105.3-86.64,132.95-73.66c0,0,12.4,16.33,8.49-11.33-2.36-16.69-105.2,23.39-138.61,65.16C1061,2210.51,1048.84,2214.31,1058.17,2230.34Z"/>
    </g>
    <g id="right-4" data-name="right">
      <path id="front_left_shoe_base-4" data-name="front left shoe base" class="cls-1" d="M1821.94,2210.51c-2.66,53.12,4.47,94.33-16.97,93.5-32.68-1.28-82.27-116.7-93.35-147.33s-31.12-8.5-31.12-8.5,18.81,110.56,28.29,150.16,30.63,73.66,84.86,73.66,69.14-1.63,93.35-2.83c13.02-.65,25.98-16.76,25.46-39.67s-19.7-30.91-33.95-33.99-27.43-2.23-28.28-48.17,2.82-93.49,2.82-93.49S1824.6,2157.39,1821.94,2210.51Z"/>
      <path id="front_left_shoe_color-3" data-name="front left shoe color" class="cls-2" d="M1830.42,2227.51c0.68,57.13-4.01,88.66-25.45,87.83-32.68-1.27-85.1-113.86-96.18-144.49s-16.98-8.5-16.98-8.5,18.81,96.39,28.29,135.99,19.32,65.16,73.55,65.16,60.66-1.63,84.86-2.83c13.03-.65,25.98-8.26,25.46-31.17s-22.53-28.08-36.77-31.16-24.6-5.06-25.46-51,0-67.99,0-67.99S1829.79,2174.33,1830.42,2227.51Z"/>
      <path id="front_left_shoe_color_copy-2" data-name="front left shoe color copy" class="cls-3" d="M1902.98,2322.4a30.486,30.486,0,0,1,.99,7.1c0.52,22.91-12.43,30.52-25.46,31.17-24.2,1.2-30.63,2.83-84.86,2.83s-64.07-25.57-73.55-65.16-28.29-135.99-28.29-135.99,1.22-4.55,3.58-6.67c7.79,10.21,19.25,42.51,36.03,111.49,27.39,112.66,145.21,80.28,155.58,70.83C1891.29,2334.1,1897.34,2328.1,1902.98,2322.4Z"/>
      <path id="front_left_shoe_strap_2_base-4" data-name="front left shoe strap 2 base" class="cls-1" d="M1739.9,2230.34s73.08-77.91,104.67-59.49c0,0,7.54-11.81,5.66-19.83s-59.41-25.97-121.64,56.66C1728.59,2207.68,1726.23,2228.46,1739.9,2230.34Z"/>
      <path id="front_left_shoe_strap_2_color-2" data-name="front left shoe strap 2 color" class="cls-2" d="M1731.42,2230.34s81.56-83.57,113.15-65.16c0,0,1.88-.47,0-8.5s-53.75-23.13-115.98,59.5C1728.59,2216.18,1717.74,2228.46,1731.42,2230.34Z"/>
      <path id="front_left_shoe_strap_2_shadow-2" data-name="front left shoe strap 2 shadow" class="cls-3" d="M1753.92,2187.07c3.74,2.76,10.58,7.5,15.42,9.13a265.159,265.159,0,0,1,30.36-21.44c0.13-1.61-.29-4.13-3.22-6.74-2.64-2.36-6.27-4.94-10.55-5.77C1776.05,2167.9,1765.29,2175.93,1753.92,2187.07Z"/>
      <path id="front_left_shoe_strap_1_base-4" data-name="front left shoe strap 1 base" class="cls-1" d="M1824.77,2230.34s-127.64-91.66-132.96-70.82c0,0-14.63-5.88-5.65-22.67s108.02,23.39,141.44,65.16C1827.6,2202.01,1834.1,2214.31,1824.77,2230.34Z"/>
      <path id="front_left_shoe_strap_1_color-2" data-name="front left shoe strap 1 color" class="cls-2" d="M1833.25,2230.34s-105.29-86.64-132.95-73.66c0,0-12.4,16.33-8.49-11.33,2.37-16.69,105.2,23.39,138.61,65.16C1830.42,2210.51,1842.59,2214.31,1833.25,2230.34Z"/>
    </g>
  </g>
  <path id="Color_Fill_718" data-name="Color Fill 718" class="cls-1" d="M915,1932s-9.389-27.06,11-33c19.224-5.6,421.47-151.65,1069-63,0,0,11.71,16.23,6,40,0,0,111.41,72.95,219,92,96.81,17.15,223.51,136.67,144.2,179.2s-229.89-22.54-379.89,21l31.05-63.1s-81.98,53-104.36,34.7l-24.8-51s-235.73,101.24-239.2,57l-16.8-51s-175.89,128.89-159.2,79c11.93-35.69,11.2-57,11.2-57s-48.06-40.45-117.4-14c-22.99,8.76,8.44,79.44,3.2,80-50.03,5.27-79.54-9.85-109-26s-88.1-59.96-120-53l-26.36,59.36s-52.02,11.64-98.64-18.36-59-40-71-36,4,34,4,34,26.308,42.38,32,52c0,0-198.154-53.54-281-55C698,2139.8,680.538,2053.85,915,1932Z"/>
  <path id="Color_Fill_734" data-name="Color Fill 734" class="cls-4" d="M924,1919c1.441,9.29,3,13.05,21,18s1031-65,1031-65,14.92-10.6,7-20c-17.88-21.23-385.22-38.13-548-30-156.68,7.82-354.51,45.08-490,84C924.872,1911.78,922.559,1909.71,924,1919Z"/>
  <path id="Color_Fill_735" data-name="Color Fill 735" class="cls-5" d="M945,1937c-18-4.95-19.559-8.71-21-18s0.872-7.22,21-13c17.244-4.95,35.5-9.88,54.551-14.72C992.841,1899.95,989,1909.7,1011,1905c36.95-7.9,264.65-62.16,453-62,186.26,0.16,562.43-.09,511.85,29.01C1962.74,1872.92,962.887,1941.91,945,1937Z"/>
  <path id="Color_Fill_718_copy" data-name="Color Fill 718 copy" class="cls-5" d="M2354.27,2139.27c-71.61,32.74-220.55-19.79-347.78,15.37l27.39-69.7s-101.67,57.65-114.24,42.97c0,0-23.68-37.55-23.64-53.91-95.67,36.96-202.01,80.66-237.55,65.36,0,0-3.08,7.17-20.45-61.36-149.04,103.04-158.04,94.6-155,85,14.55-45.99,12-55,12-55s-66.88-63.34-150-10c-0.37,46.87,11,72,11,72s-60.32,1.3-47-13c7.33-7.87-169.75-82.29-178-66-22.76,44.94-29,62-29,62s-61.62,8.27-88-31c-30.909-46.02-68-30-80-26s-11,20-11,20,25.308,52.38,31,62c0,0-206.459-56-242-50,10.108-56.18,90.888-121.41,220-196,0,0,51.007-6.1,68.89-12.03,101.89-21.38,287.58-55.65,449.11-59.97,180.81-4.84,398.27,5.27,491.23,10.34A23.632,23.632,0,0,0,1939,1876s-10.62,74.95,248,114C2284.22,2004.68,2436.12,2101.85,2354.27,2139.27Z"/>
  <path id="Color_Fill_733" data-name="Color Fill 733" class="cls-6" d="M1483,2163c8.89-28.1,11.4-42.39,12-49.26v52.58C1482.57,2170.85,1481.72,2167.03,1483,2163Zm-350.84-73.2a3.092,3.092,0,0,0-1.16,1.2c-22.76,44.94-29,62-29,62s-1.38.18-3.79,0.37C1029.2,2124.92,1047,2106,1047,2106,1073.88,2077.85,1125.06,2088.2,1132.16,2089.8ZM1927,2087c3.64,16.79-5.7,27.95-11.93,33.3-6.62-11.39-18.17-32.82-19.02-44.91Zm-225-9c-1.35,6.49-35.87,32.38-48.4,54.91-2.63-7.26-8.37-27.38-13.65-47.49C1653.52,2070.01,1702.22,2076.92,1702,2078Zm-360.97,46.23L1344,2099l1,3.04c0.29,44.27,12,65.96,12,65.96v2l-22.84-.53Zm-413.658-23.6c-0.114.14-.224,0.28-0.332,0.43q-0.09.12-.177,0.24c-0.108.16-.215,0.31-0.317,0.46-0.036.06-.07,0.11-0.105,0.17-0.227.35-.44,0.7-0.639,1.07-0.016.03-.034,0.06-0.05,0.09-0.094.17-.183,0.34-0.27,0.52-0.035.07-.07,0.14-0.1,0.21-0.084.17-.165,0.35-0.244,0.52-0.028.06-.055,0.13-0.083,0.19q-0.392.9-.69,1.8c-0.012.04-.026,0.08-0.038,0.11-0.061.19-.118,0.37-0.174,0.56-0.018.06-.035,0.12-0.053,0.18-0.054.18-.106,0.36-0.154,0.54-0.01.04-.02,0.08-0.029,0.12-0.158.59-.289,1.18-0.4,1.75-0.008.04-.017,0.09-0.026,0.13q-0.048.27-.091,0.51c-0.008.06-.017,0.11-0.025,0.16-0.028.17-.055,0.34-0.079,0.5,0,0.01,0,.01,0,0.02-0.055.37-.1,0.74-0.139,1.09l0,0.03c-0.016.15-.03,0.29-0.043,0.43,0,0.06-.01.11-0.014,0.16-0.012.13-.022,0.26-0.032,0.39,0,0.05-.007.1-0.01,0.15-0.028.4-.046,0.77-0.057,1.1,0,0.04,0,.09,0,0.14,0,0.09,0,.17-0.006.25,0,0.05,0,.11,0,0.16,0,0.07,0,.14,0,0.21v0.15c0,0.08,0,.16,0,0.24,0,0.06,0,.11,0,0.16s0,0.08,0,.11,0,0.07,0,.11c0,0.02,0,.05,0,0.07s0,0.05,0,.07,0,0.03,0,.04,0,0.03,0,.03l0.154,0.32,0.028,0.06a1.522,1.522,0,0,1,.073.15c0.017,0.03.034,0.07,0.053,0.11s0.044,0.09.067,0.14c0.05,0.1.105,0.21,0.165,0.34,0.012,0.02.023,0.05,0.036,0.07,0.036,0.08.074,0.15,0.114,0.24,0.023,0.04.047,0.09,0.071,0.14,0.136,0.28.289,0.6,0.458,0.95,0.015,0.03.028,0.06,0.043,0.09,0.457,0.94,1.028,2.12,1.691,3.48,0.006,0.01.011,0.03,0.017,0.04l2.259,4.64c0.017,0.04.035,0.07,0.053,0.11,0.338,0.69.688,1.41,1.048,2.15,0.025,0.05.051,0.1,0.076,0.16,0.116,0.23.232,0.47,0.349,0.71l0.072,0.15q0.345,0.7.7,1.44c0.017,0.03.034,0.07,0.052,0.1h0c7.938,16.26,19.751,40.21,23.419,46.41,0,0-202.593-54.94-240.931-50.14h0c0.536-.92,4.972-6.02,36.931-4.86,35.076,1.28,135.371-4.05,127-14,0,0-13.205-5.27-10-8,2.074-1.77,40.116-4.42,60.932-1.04h0c-0.124.14-.242,0.28-0.36,0.42C927.505,2100.46,927.437,2100.55,927.372,2100.63Zm1090.3,25.57,16.21-41.26-0.42.24h0c-0.14.08-.31,0.17-0.51,0.28a0.01,0.01,0,0,1-.01.01c-0.2.12-.44,0.25-0.7,0.39l0.76-.86c219.28-78.69,176,42,176,42,112.88-37.31,153.81-27.64,168.62-16.41v0.01a24.638,24.638,0,0,1-.22,3.44c-0.03.29-.06,0.59-0.11,0.88-0.07.44-.17,0.87-0.27,1.31-0.07.32-.14,0.64-0.23,0.96-0.11.41-.23,0.83-0.37,1.24-0.11.34-.23,0.68-0.36,1.01-0.15.39-.29,0.79-0.46,1.17-0.2.47-.44,0.93-0.68,1.39-0.26.5-.54,1-0.83,1.49-0.25.41-.49,0.81-0.76,1.21-0.22.32-.46,0.63-0.69,0.95-0.28.38-.58,0.76-0.89,1.14-0.25.31-.5,0.61-0.77,0.91-0.35.4-.73,0.8-1.12,1.2-0.26.26-.5,0.52-0.77,0.77-0.66.64-1.35,1.26-2.09,1.88-0.14.11-.3,0.23-0.45,0.35-0.64.51-1.3,1.02-2,1.52-0.3.22-.62,0.42-0.93,0.64-0.59.4-1.2,0.8-1.83,1.19-0.35.22-.7,0.43-1.06,0.65-0.67.4-1.38,0.79-2.1,1.18-0.33.18-.66,0.37-1,0.55-1.08.56-2.19,1.11-3.36,1.64-71.61,32.74-220.55-19.79-347.78,15.37l11.18-28.44h0Z"/>
  <path id="Color_Fill_724" data-name="Color Fill 724" class="cls-4" d="M1896.28,2077.44a25.35,25.35,0,0,1-.27-2.74C1898.06,2076.13,1898.16,2076.97,1896.28,2077.44ZM1573,1879c197.32,144.95,305.65,184.63,322.35,195.25-90.93,35.14-201.52,80.95-237.32,64.91,40.17-59.11,64.94-54.95,61.97-64.16-16.16-22.47-148.91-167.64-193.44-216.2q7.515-.045,15.06-0.06h0.5C1557.62,1868.43,1573,1879,1573,1879Z"/>
  <path id="Color_Fill_725" data-name="Color Fill 725" class="cls-4" d="M1514.02,1858.89C1567.2,1909.62,1706,2072,1706,2072c-39.76-3.14-54.08-3.98-67.47,5.48C1593.38,2109.36,1506,2162,1506,2162c0-67.3-25.66-220.33-45.4-302.26C1478.14,1859.32,1496,1859.05,1514.02,1858.89Z"/>
  <path id="Color_Fill_726" data-name="Color Fill 726" class="cls-4" d="M1450,1860c1.37-.04,2.76-0.07,4.14-0.1a6.1,6.1,0,0,1,.86,1.1s33.88,158.46,41,252c0,0-68.46-61.99-151-14,0,0,28.35-202.19,60.7-237.12Q1428.065,1860.605,1450,1860Z"/>
  <path id="Color_Fill_727" data-name="Color Fill 727" class="cls-4" d="M1394.5,1862.55C1356.87,1935.87,1335,2102,1335,2102l-11,66s0.58,4.04-34-10-154.32-109.87-230-75c-54.54,25.13,107.85-131.71,236.76-211.7C1329.26,1867.64,1362.11,1864.61,1394.5,1862.55Z"/>
  <path id="Color_Fill_728" data-name="Color Fill 728" class="cls-4" d="M1089,2154s-41.31.25-70-23-66.484-47.49-150-38c-70.144,7.97,352.44-203.81,369-200,0,0-220.76,172.75-209,211S1089,2154,1089,2154Z"/>
  <path id="Color_Fill_729" data-name="Color Fill 729" class="cls-4" d="M1231.59,1879.5C1071.47,1955.1,787.146,2095.4,859,2106c19.4,2.86-29.41,13.72-115,6-51.807-4.67,153.08-142.88,255.28-191.69C1056.3,1908.31,1140.21,1892.15,1231.59,1879.5ZM1238,1893s-220.76,172.75-209,211,60,50,60,50-41.31.25-70-23-66.484-47.49-150-38C798.856,2100.97,1221.44,1889.19,1238,1893Z"/>
  <path id="Color_Fill_723" data-name="Color Fill 723" class="cls-4" d="M1594.15,1885.08S1836,2050,1938,2080c0,0,8,32-12,42,0,0,162-85,240-73C2166,2049,1934.17,2022.78,1594.15,1885.08Z"/>
  <path id="Color_Fill_722" data-name="Color Fill 722" class="cls-4" d="M2220,2114s16-62-28-66c0,0-485.04-103.57-634.67-188.91,169.13,0.92,369.03,10.76,418.28,13.31,10.03,6.48,140.58,90.14,224.39,102.6,55.18,8.21,168.2,68.6,176,128C2376,2103,2352.3,2066.4,2220,2114Z"/>
</svg>
