<svg id="bellhop_red_shirt_2" data-name="bellhop red shirt 2" xmlns="http://www.w3.org/2000/svg" xmlns:xlink="http://www.w3.org/1999/xlink" width="3000" height="3000" viewBox="0 0 3000 3000" shape-rendering="geometricPrecision">
  <defs>
    <style>
      .cls-1 {
        fill: #31323d;
      }

      .cls-1, .cls-2, .cls-3, .cls-4, .cls-5, .cls-6, .cls-7 {
        fill-rule: evenodd;
      }

      .cls-2 {
        fill: #f7bc56;
      }

      .cls-3 {
        fill: #ea5f5a;
      }

      .cls-4 {
        fill: #d56561;
      }

      .cls-5 {
        fill: url(#linear-gradient);
      }

      .cls-6 {
        fill: #ffdb9c;
      }

      .cls-7 {
        fill: url(#linear-gradient-2);
      }
    </style>
    <linearGradient id="linear-gradient" x1="1949.249" y1="1724.22" x2="1995.601" y2="2101.72" gradientUnits="userSpaceOnUse">
      <stop offset="0" stop-color="#ee7e7a"/>
      <stop offset="1" stop-color="#ee7e7a" stop-opacity="0"/>
    </linearGradient>
    <linearGradient id="linear-gradient-2" x1="1591.535" y1="856.5" x2="1591.535" y2="576.719" xlink:href="#linear-gradient"/>
  </defs>
  <g id="rear_sleeves" data-name="rear sleeves">
    <g>
      <path id="Color_Fill_40" data-name="Color Fill 40" class="cls-1" d="M929.544,2089.2s-84.835,18.05-81.969,33.89S842,2244.51,875.841,2244.51s192.2-2.82,192.2-2.82S969.548,2205.26,929.544,2089.2Z"/>
      <path id="Color_Fill_40_copy" data-name="Color Fill 40 copy" class="cls-2" d="M878.667,2117.44s-17,1.1-14.132,16.94-5.573,96.01,28.265,96.01h14.132S870.974,2229.65,878.667,2117.44Z"/>
    </g>
    <g id="Group_11_copy" data-name="Group 11 copy">
      <path id="Color_Fill_40-2" data-name="Color Fill 40" class="cls-1" d="M2006.45,2092.03s84.83,18.04,81.97,33.88,5.57,118.6-28.27,118.6-192.2-2.82-192.2-2.82S1966.45,2208.08,2006.45,2092.03Z"/>
      <path id="Color_Fill_40_copy-2" data-name="Color Fill 40 copy" class="cls-2" d="M2057.33,2120.26s17,1.11,14.13,16.95,5.57,93.18-28.27,93.18h-14.13S2065.02,2232.47,2057.33,2120.26Z"/>
    </g>
  </g>
  <g id="shirt">
    <g id="Group_10_copy" data-name="Group 10 copy">
      <path id="Color_Fill_33" data-name="Color Fill 33" class="cls-1" d="M1892.68,1535.04s53.63-23.39,82.82-16.95,14.61,203.22-1.13,208.97-3.64,22.59-3.64,22.59Z"/>
      <path id="Color_Fill_34" data-name="Color Fill 34" class="cls-1" d="M1985.24,1532.21c-11.34,4.34-255.85,142.23-339.45,155.31s-135.74,41.11-116.96,114.63c0,0,373.21-41.38,435.2-74.96,1.84-.99,2.89-3.26,4.43-2.96C2019.81,1734.17,1996.58,1527.87,1985.24,1532.21Z"/>
      <path id="Color_Fill_34_copy" data-name="Color Fill 34 copy" class="cls-2" d="M1975.59,1552.03c-10.16,6.41-245.24,135.34-328.54,149.61-76.38,13.09-100.96,24.2-99.7,86.39,0,0-3.57-51.39,64.72-66.62,173.12-38.61,341.75-143.49,343.17-143.97C1999.23,1562.66,1980.83,1548.72,1975.59,1552.03Z"/>
      <path id="Color_Fill_35" data-name="Color Fill 35" class="cls-1" d="M1981.84,1715.76s-551.21,81.71-545.59,125.92-71.05,436.72-28.55,436.72h440.93c48.32,0,245.73-79.12,180.18-324.74S1981.84,1715.76,1981.84,1715.76Z"/>
      <path id="Color_Fill_35_copy" data-name="Color Fill 35 copy" class="cls-3" d="M1962.81,1724.23s-516.78,87.36-511.16,131.57-73.83,405.66-31.33,405.66,358.45-2.83,406.76-2.83,252.95-59.83,184.77-304.97C1968.49,1797.76,1962.81,1724.23,1962.81,1724.23Z"/>
      <path id="Color_Fill_44" data-name="Color Fill 44" class="cls-4" d="M1718.01,2259.3c-37.45.28-79.96,0.61-121.04,0.94,3.06-.56,6.66-1.09,10.94-1.61,47.68-5.74,56.53-242.85,56.53-242.85Z"/>
      <path id="Color_Fill_38" data-name="Color Fill 38" class="cls-1" d="M1492.02,1981.43s85.36,0.57,93.28,0,9.04-24.85,0-25.41-96.1,0-96.1,0Z"/>
      <path id="Color_Fill_38_copy" data-name="Color Fill 38 copy" class="cls-1" d="M1486.37,2136.97s85.36,0.57,93.27,0,9.05-24.85,0-25.41-96.1,0-96.1,0Z"/>
      <path id="Color_Fill_47" data-name="Color Fill 47" class="cls-5" d="M2024.19,2017.85c-19.33,53.77-37.11,74.54-57.98,83.88,11.14-57.75,5.52-209.44-45.56-370.13,26.22-4.67,42.16-7.37,42.16-7.37s5.68,73.53,49.04,229.43A377.37,377.37,0,0,1,2024.19,2017.85Z"/>
      <path id="Color_Fill_48" data-name="Color Fill 48" class="cls-4" d="M1904.69,2221.92a18.225,18.225,0,0,0,.75,15.18c-32.67,15.64-63.2,21.53-78.36,21.53-1.64,0-3.62.01-5.86,0.01,2.54-107.89,11.26-268.77,74.99-197.68,0,0,2.83,53.91,42.4,48.01,9.94-1.48,19.03-3.4,27.6-7.24C1953.17,2169.33,1917.25,2190.56,1904.69,2221.92Z"/>
    </g>
    <g id="left_shirt" data-name="left shirt">
      <path id="left_collar_back" data-name="left collar back" class="cls-1" d="M1001.71,1535.04s-40.725-23.39-69.339-16.95,3.531,203.22,19.786,208.97,5.653,22.59,5.653,22.59Z"/>
      <path id="left_collar_front" data-name="left collar front" class="cls-1" d="M923.892,1532.21c11.725,4.34,268.548,142.23,353.318,155.31s139.4,41.11,127.19,114.63c0,0-376.91-41.38-441.9-74.96-1.929-.99-3.181-3.26-4.694-2.96C907.346,1734.17,912.165,1527.87,923.892,1532.21Z"/>
      <path id="left_collar_stripe" data-name="left collar stripe" class="cls-2" d="M935.315,1552.03c10.732,6.41,257.315,135.34,341.9,149.61,77.55,13.09,103.12,24.2,107.4,86.39,0,0-22.54-57.32-70.66-65.12-161.68-26.21-327.522-127.47-356.022-145.47S929.777,1548.72,935.315,1552.03Z"/>
      <path id="Color_Fill_35-2" data-name="Color Fill 35" class="cls-1" d="M943.677,1715.76s558.493,81.71,556.823,125.92-8.38,436.72-50.88,436.72H1121.75c-48.32,0-252.792-79.12-209.165-324.74S943.677,1715.76,943.677,1715.76Z"/>
      <path id="Color_Fill_35_copy-2" data-name="Color Fill 35 copy" class="cls-3" d="M963.463,1724.23s524.577,87.36,522.907,131.57-8.39,405.66-50.88,405.66-245.64-2.83-293.96-2.83-258.286-59.83-211.986-304.97C958.991,1797.76,963.463,1724.23,963.463,1724.23Z"/>
      <path id="Color_Fill_43" data-name="Color Fill 43" class="cls-4" d="M1015.72,1733.27c-7.5,61.79-26.819,282.51-26.819,282.51,60.669,61.48,60.829,182.97,59.739,215.11-71.5-37.37-149.1-118.39-119.1-277.23,29.447-155.9,33.919-229.43,33.919-229.43S983.5,1727.57,1015.72,1733.27Z"/>
      <path id="Color_Fill_37" data-name="Color Fill 37" class="cls-1" d="M1489.2,1958.84s-107.98,2.26-115.89,0-5.65,22.59,0,22.59,110.23,3.95,113.06,2.82S1489.2,1958.84,1489.2,1958.84Z"/>
      <path id="Color_Fill_37_copy" data-name="Color Fill 37 copy" class="cls-1" d="M1483.54,2114.38s-107.97,2.26-115.88,0-5.66,22.59,0,22.59,110.23,3.96,113.06,2.83S1483.54,2114.38,1483.54,2114.38Z"/>
    </g>
    <g id="top_button" data-name="top button">
      <path id="Color_Fill_36" data-name="Color Fill 36" class="cls-1" d="M1432.67,1845.66c26.05,1.19,38.96,26.72,36.74,45.18s-25.73,37.61-45.22,33.88-37.28-22.25-33.92-45.18S1406.61,1844.46,1432.67,1845.66Z"/>
      <path id="Color_Fill_36_copy" data-name="Color Fill 36 copy" class="cls-2" d="M1458.67,1873.51c8.13,18.6-5.28,36.41-18.97,41.22s-35.18-4.98-39.29-19.87,2.73-33.68,19.93-39.24S1450.53,1854.92,1458.67,1873.51Z"/>
      <path id="Color_Fill_46" data-name="Color Fill 46" class="cls-6" d="M1421.24,1855.35c16.76-5.1,29.43-.1,37.43,18.16a28.314,28.314,0,0,1-.22,23.56C1458.44,1886.79,1454.51,1863.76,1421.24,1855.35Z"/>
    </g>
    <g id="middle_button" data-name="middle button">
      <path id="Color_Fill_36_copy_2" data-name="Color Fill 36 copy 2" class="cls-1" d="M1370.65,2044.15c3.75-25.79,30.45-36.12,48.61-32.1s34.94,29.27,29.32,48.29-25.82,34.87-48.33,29.29S1366.9,2069.94,1370.65,2044.15Z"/>
      <path id="Color_Fill_36_copy_2-2" data-name="Color Fill 36 copy 2" class="cls-2" d="M1400.95,2021.04c19.32-6.27,35.75,8.82,39.2,22.89s-8.41,34.5-23.65,37.12-33.28-6.02-37.14-23.67S1381.63,2027.3,1400.95,2021.04Z"/>
      <path id="Color_Fill_36_copy_4" data-name="Color Fill 36 copy 4" class="cls-6" d="M1435.86,2065.85c-0.2-12.06-4.15-35.47-30.04-45.91,17.15-2.55,31.17,11.12,34.33,23.99C1441.8,2050.67,1439.92,2058.85,1435.86,2065.85Z"/>
    </g>
    <g id="bottom_button" data-name="bottom button">
      <path id="Color_Fill_36_copy_3" data-name="Color Fill 36 copy 3" class="cls-1" d="M1353.69,2206.87c3.75-25.79,30.45-36.12,48.61-32.1s34.94,29.27,29.32,48.29-25.82,34.87-48.33,29.29S1349.94,2232.66,1353.69,2206.87Z"/>
      <path id="Color_Fill_36_copy_3-2" data-name="Color Fill 36 copy 3" class="cls-2" d="M1383.99,2183.76c19.32-6.27,35.75,8.82,39.2,22.89s-8.41,34.49-23.64,37.12-33.29-6.02-37.15-23.67S1364.67,2190.02,1383.99,2183.76Z"/>
      <path id="Color_Fill_36_copy_5" data-name="Color Fill 36 copy 5" class="cls-6" d="M1423.19,2206.65c1.47,6,.15,13.13-3.02,19.56-2.83-16.67-12.46-43.37-45.07-38.61a47.9,47.9,0,0,1,8.89-3.84C1403.31,2177.49,1419.74,2192.58,1423.19,2206.65Z"/>
    </g>
  </g>
  <g id="front_sleeves" data-name="front sleeves">
    <path id="Color_Fill_39" data-name="Color Fill 39" class="cls-1" d="M1860.07,2256.83s9.18,20.49-3.92,25.11-140.06,25.15-149.83,25.26-13.14-33.41-10.23-44.46-18.15-59.61-20.04-103.85,94.61-19.04,115.15-15.85c-40.6-6.32,9.95-36.6,71.61-28.94C1871.05,2115.12,1860.07,2256.83,1860.07,2256.83Z"/>
    <path id="Color_Fill_39_copy" data-name="Color Fill 39 copy" class="cls-2" d="M1847.01,2254.28s9.18,14.85-3.92,19.47-107.64,19.21-117.4,19.31-22-7.39-12.23-13.33c37.26-9.88,58.43-10.26,76.33-14.02S1847.01,2254.28,1847.01,2254.28Z"/>
    <path id="Color_Fill_41" data-name="Color Fill 41" class="cls-1" d="M1028.47,2148.5s8.48-62.12-36.742-129.89c-19.407-29.08,232.962-7,231.772,8.47-1.88,24.47-7.53,112.95-16.96,152.48S1028.47,2148.5,1028.47,2148.5Z"/>
    <path id="Color_Fill_41_copy" data-name="Color Fill 41 copy" class="cls-3" d="M1042.61,2148.5s12.9-62.66-50.882-129.89c-30.738-32.4,236.832-15.55,231.772,8.47-22.61,107.3-18.84,112.95-28.26,152.48S1042.61,2148.5,1042.61,2148.5Z"/>
    <path id="Color_Fill_41_copy_2" data-name="Color Fill 41 copy 2" class="cls-1" d="M1865.22,2151.38s0.38-61.28,56.96-130.19c26.1-31.79-257.4-26.47-256.68-8.84,1.37,33.41,4.03,127.58,12.64,167.35C1686.44,2218.1,1865.22,2151.38,1865.22,2151.38Z"/>
    <path id="Color_Fill_41_copy_2-2" data-name="Color Fill 41 copy 2" class="cls-3" d="M1851.49,2151.14s-3.19-60.84,70.69-129.95c68.32-63.91-261.57-36.81-256.68-8.84,22.25,127.09,16.39,125.69,25.08,167.41C1698.55,2218.07,1851.49,2151.14,1851.49,2151.14Z"/>
    <path id="Color_Fill_39-2" data-name="Color Fill 39" class="cls-1" d="M1031.3,2244.51s-12.24,18.84,0,25.42,134.52,46.39,144.15,48,18.13-30.98,16.96-42.36,19.79-118.6,19.79-118.6-58.36-5.64-93.28-8.47c-20.71-1.67-79.32-19.51-87.62-19.76S1031.3,2244.51,1031.3,2244.51Z"/>
    <path id="Color_Fill_39_copy-2" data-name="Color Fill 39 copy" class="cls-2" d="M1048.26,2244.51c-12.25-1.88-12.24,13.2,0,19.77s100.6,35.1,110.23,36.71,24.64-6.78,14.14-11.3a409.038,409.038,0,0,0-59.36-19.76S1060.51,2246.4,1048.26,2244.51Z"/>
    <g id="Group_14_copy" data-name="Group 14 copy">
      <path id="Color_Fill_36-2" data-name="Color Fill 36" class="cls-1" d="M1203.51,2183.05c9.91,2.64,11.26,28.43,7.77,46.43s-15.32,35.49-22.33,30.74-11.25-23.94-6.68-46.27S1193.6,2180.41,1203.51,2183.05Z"/>
      <path id="Color_Fill_36_copy_6" data-name="Color Fill 36 copy 6" class="cls-1" d="M1695.69,2190.95c10.18,1.29,14.99,26.66,13.95,44.97s-10.41,37.22-18,33.45-14.36-22.21-12.84-44.95S1685.52,2189.67,1695.69,2190.95Z"/>
      <path id="Color_Fill_36_copy-2" data-name="Color Fill 36 copy" class="cls-2" d="M1207.82,2211.91c-0.37,18.59-6.67,35.53-11.19,39.71s-9.15-6.32-8.18-21.11,5.57-32.96,11.18-37.73S1208.19,2193.32,1207.82,2211.91Z"/>
      <path id="Color_Fill_46-2" data-name="Color Fill 46" class="cls-6" d="M1197.37,2236.23c2.99-7.13,7.28-22.35-2.14-36.58a23.7,23.7,0,0,1,3.23-5.51c5.5,3.72,8.1,10.96,7.33,22.45A32.018,32.018,0,0,1,1197.37,2236.23Z"/>
    </g>
  </g>
  <path id="Color_Fill_42" data-name="Color Fill 42" class="cls-1" d="M1213.26,865.924c7.88,7.474,345.11,9.722,397.69-4.462,0,0,38.06-175.9,30.62-242.8-7.74-69.64-212.65-60.405-292.97-53.888-89.48,7.259-193.26,42.05-188.9,71.657C1174.85,739.173,1206.54,859.561,1213.26,865.924Z"/>
  <path id="Color_Fill_42_copy" data-name="Color Fill 42 copy" class="cls-3" d="M1219.08,855.919c7.71,7.279,323.62,11.982,376.67-2.662,0,0,40.99-162.35,33.46-229.043-7.76-68.789-198.98-52.725-280.05-46.613-86.61,6.53-185.11,35.874-180.71,65.895C1183.38,745.481,1212.27,849.5,1219.08,855.919Z"/>
  <path id="Color_Fill_49" data-name="Color Fill 49" class="cls-7" d="M1595.75,853.257a136.562,136.562,0,0,1-18.22,3.243c11.32-39.14,55.75-234.233-24.29-279.593-0.11-.061-0.2-0.122-0.3-0.183,37.91,6.064,66.8,18.113,74.48,39.734,0.1,0.3.22,0.6,0.32,0.911,0.14,0.455.27,0.918,0.4,1.381,0.15,0.523.28,1.051,0.4,1.584,0.08,0.352.16,0.7,0.23,1.058,0.18,0.926.34,1.863,0.44,2.822C1636.74,690.907,1595.75,853.257,1595.75,853.257Z"/>
  <path id="Color_Fill_45" data-name="Color Fill 45" class="cls-4" d="M1168.32,641.924c-0.01-.4-0.01-0.81.01-1.215a0.079,0.079,0,0,0,.01-0.047c0.72-10.984,14.8-21.781,36.56-31.305-13.62,17.243,60.41,236.792,65.27,251.133-14.94-.617-27.35-1.33-36.21-2.111-8.16-1.032-14.38-1.988-14.88-2.46-6.81-6.419-35.7-110.438-50.63-212.423a11.928,11.928,0,0,1-.12-1.329A1.975,1.975,0,0,1,1168.32,641.924Z"/>
  <path id="Color_Fill_42_copy_3" data-name="Color Fill 42 copy 3" class="cls-2" d="M1211.08,836.615c-1.3-4.024-2.7-8.589-4.17-13.635,25.29,4.526,101.18,14.047,176.38,11.32,88.77-3.22,154.12-11.6,220.89-16.915-1.09,4.853-2.11,9.339-3.04,13.36C1505.5,851.34,1259.58,848.311,1211.08,836.615Z"/>
  <path id="Color_Fill_42_copy_2" data-name="Color Fill 42 copy 2" class="cls-2" d="M1630.04,637.052c0.15,6,.05,12.5-0.28,19.379-32.57-68.811-437.7-70.639-456.44,17.566-1.2-6.992-2.35-13.992-3.43-20.959,13.14-27.5,101.51-57.213,179.84-62.671C1426.11,585.045,1600.13,581.06,1630.04,637.052Z"/>
</svg>
