<svg id="Rose" xmlns="http://www.w3.org/2000/svg" width="3000" height="3000" viewBox="0 0 3000 3000">
  <defs>
    <style>
      .cls-1 {
        fill: #31323d;
      }

      .cls-1, .cls-2, .cls-3, .cls-4 {
        fill-rule: evenodd;
      }

      .cls-2 {
        fill: #ef4b62;
      }

      .cls-3 {
        fill: #940426;
      }

      .cls-4 {
        fill: #d72d51;
      }
    </style>
  </defs>
  <path id="Color_Fill_68_copy" data-name="Color Fill 68 copy" class="cls-1" d="M1134.56,952.364s11.35-24.179,27.39-8.5,26.83,40.22,84.47,30.51,73.34-46.266,70.51-69.078-8.6-21.841-8.6-21.841,29.28-27.508,17.56-60.569-24.79-34.23-24.79-34.23,3.52-67.5-85.62-25.21c0,0-31.69-35.724-80.06.413s-17.97,72.69-17.97,72.69S1073.21,907.439,1134.56,952.364Z"/>
  <path id="Color_Fill_68" data-name="Color Fill 68" class="cls-2" d="M1135.22,943.384s16.32-21.021,31.09-6.565,24.71,37.073,77.81,28.114,67.57-42.661,64.96-63.69-7.91-20.133-7.91-20.133,26.98-25.361,16.19-55.838-23.84-30.55-23.84-30.55,4.25-63.224-77.87-24.228c0,0-29.19-32.927-73.76.392s-16.56,67.012-16.56,67.012S1087.5,903.884,1135.22,943.384Z"/>
  <path id="Color_Fill_69" data-name="Color Fill 69" class="cls-3" d="M1308.69,898.386c-7.05,12.114-22.52,25.9-54.3,38.074-43.52,16.664-68.03-2.459-75-8.063s-24.24-10.88-30.98-12.851c-3.52-1.031-3.9,9.253-3.45,19.3a39.491,39.491,0,0,0-9.74,8.539c-47.72-39.5-9.89-105.486-9.89-105.486s1.43,4.024-.26,1l9.98-8.1c13.03-79.033,75.63-56.262,75.63-56.262l4-4.061c1.64,1.433.97,0.021,0.97,0.021a172.305,172.305,0,0,1,20.34-8.238c-20.77,15.431-34.17,39.008-34.17,39.008,113.51-51.636,74.13,49.826,74.13,49.826,20.74,3.47,17.38-56.6,17.38-56.6,1.52-.609-0.18-0.766,1.2-1.179,0,0.268-.01.413-0.01,0.413s12.05,1.075,22.84,31.551-16.19,55.838-16.19,55.838S1305.98,880.313,1308.69,898.386Z"/>
  <path id="Color_Fill_70" data-name="Color Fill 70" class="cls-4" d="M1139.22,839.885s34.01-41.235,53.94-36.406c0,0-1.16-13.552,8.14-18.7S1149.03,766.292,1139.22,839.885Zm46.64-21.615s-54.58,15.8-49.24,61.978,45.1,37.4,50.15,28.261c0,0,2.91-3.974-8.29-8.959s-19.81-12.477-20.33-28.961S1185.86,818.27,1185.86,818.27Zm2.34,74.178c-1.18.923,9.18,21.428,33.76,23.684s51.63-9.277,48.08-14.139-26.34,3.5-38.07.961S1194.36,887.643,1188.2,892.448Zm20.56-9.871s107.89,23.887,101.25-51.734c0,0-5.53-9.895-9.93,8.08S1259.85,882.9,1208.76,882.577Zm-4.94-71.67s51.73-33.3,66.1-12.282,2.46,42.994-32.75,61.457-50.07-2.663-52.99-10.457,8.12-23.309,16.34-28.179,71.46-34.655,45.72,10.929c0,0,3.22-17.209-10.59-12.526s-43.02,16.77-30.99,25,58.22-4.269,55.93-26.763S1249.36,796.727,1203.82,810.907Z"/>
</svg>
