<svg id="Gold_Medal_-_411" data-name="Gold Medal - 411" xmlns="http://www.w3.org/2000/svg" width="3000" height="3000" viewBox="0 0 3000 3000" shape-rendering="geometricPrecision">
  <defs>
    <style>
      .cls-1 {
        fill: #38383c;
        fill-opacity: 0.2;
      }

      .cls-1, .cls-10, .cls-11, .cls-12, .cls-2, .cls-3, .cls-4, .cls-5, .cls-7, .cls-8, .cls-9 {
        fill-rule: evenodd;
      }

      .cls-2 {
        fill: #31323d;
      }

      .cls-3 {
        fill: #7fc7af;
      }

      .cls-4 {
        fill: #5fa18b;
      }

      .cls-5 {
        fill: #cfa54d;
      }

      .cls-6 {
        fill: #f5c55f;
      }

      .cls-7 {
        fill: #f6d58f;
      }

      .cls-8 {
        fill: #fff;
      }

      .cls-9 {
        fill: #c19f44;
      }

      .cls-10 {
        fill: #fdf4c6;
      }

      .cls-11 {
        fill: #b6912e;
      }

      .cls-12 {
        fill: #fffbe8;
      }
    </style>
  </defs>
  <g id="Ribbon">
    <path id="Color_Fill_1166_copy_3" data-name="Color Fill 1166 copy 3" class="cls-1" d="M1454.33,1792s-73.2-17.57-163.97-32.45c-105.33-17.27-234.32-57.84-300.03-152.55,0,0-6.333-44,5.667-56,50.093,51.09,148.073,120.68,295,153.93,48.62,11,102.61,38.02,162,39.07,61.01-3.79,114.47-33.98,161.63-48.14,141.13-42.36,225.74-120.23,286.71-168.2,6.66,0,8.66,33.67,7.66,45.67,0,0-51.94,117.11-295.72,174.08C1567.41,1758.13,1514.73,1786.72,1454.33,1792Z"/>
    <path id="Color_Fill_1166_copy" data-name="Color Fill 1166 copy" class="cls-2" d="M1453,1788a1344.769,1344.769,0,0,0-162.1-43.06c-112.93-22.38-252.51-64.52-305.905-140.61,0,0-1-41.33,11-53.33,49.813,50.81,147,114.34,292.6,144.97,49.25,10.37,104.03,36.96,164.4,38.03,60.85-3.78,114.2-33.31,161.27-46.47,141.34-39.53,226.05-111.86,287.07-159.87,6.66,0,16.66,33.67,15.66,45.67,0,0-93.89,107.19-303.34,164.88C1566.14,1751.3,1512.67,1781.84,1453,1788Z"/>
    <path id="Color_Fill_1166" data-name="Color Fill 1166" class="cls-3" d="M1453,1780a1345.985,1345.985,0,0,0-163.4-43.84c-108.06-21.6-239.49-60.64-293.935-127.83,0,0-5-32,7-44,48.98,54.98,143.4,113.78,288.25,141.54,48.35,9.27,102.31,35.07,162.08,36.13,60.83-3.78,113.83-32.96,160.39-45.62,139.87-38.03,221.59-107.36,282.61-155.38,6.67,0,14,19,13,31,0,0-99.37,99.37-296.02,156.2C1565.35,1741.97,1512.01,1773.24,1453,1780Z"/>
    <path id="Color_Fill_1166_copy_2" data-name="Color Fill 1166 copy 2" class="cls-4" d="M1909,1572s-99.75,99.75-297.14,156.53c-47.35,13.62-97.31,48.76-155.86,55.47,0,0-75.87-29.84-164.98-47.56-108.33-21.54-240.67-60.62-295.355-128.11,0,0-5-32,7-44a279.765,279.765,0,0,0,40.08,36.58A145.421,145.421,0,0,0,1048,1621c11.8,34.59,64.16,70.26,242.46,108.06,43.34,9.18,114.11,28.49,173.54,37.94,0,0,50.11-13.19,148.53-44.96,66.63-21.51,189.51-67.38,276.47-137.04,8.45-6.79,15.02-11.84,20.09-15.53C1909.1,1570.34,1909.07,1571.19,1909,1572Z"/>
  </g>
  <g id="Gold_copy" data-name="Gold copy">
    <path id="Ellipse_1143_copy_4" data-name="Ellipse 1143 copy 4" class="cls-1" d="M1569.86,1936.71c-24.69,45.91-72.18,78.79-126.36,81.03-79.71,3.3-141.19-60.61-136.37-141.15a151.837,151.837,0,0,1,28.07-78.86c26.26-44.07,73.8-74.01,126.19-74.76,75.26-1.07,134.28,58.84,132.75,135.27A150.1,150.1,0,0,1,1569.86,1936.71Z"/>
    <path id="Color_Fill_1168" data-name="Color Fill 1168" class="cls-2" d="M1573,1930c-18.67,32.14-74.84,87.52-154,69s-102.15-89.67-103-131,28.65-94.95,52-114,77.67-45.41,126-28,84.99,48.18,97,103C1600.43,1872.06,1584.84,1909.62,1573,1930Z"/>
    <path id="Color_Fill_1148" data-name="Color Fill 1148" class="cls-5" d="M1442,1740c16.57-.2,32.08-0.18,45,4,43.33,14.02,70.56,40.83,86,83,5.24,14.3,10.85,39.68,6,60-2.5,10.48-4.89,21.52-9,31-13.37,30.81-39.56,55.21-71,68-10.64,4.33-22.79,5.36-35,8-20.47,4.42-46.68-4.79-59-10-50.9-21.51-101.81-87.64-71-163,12.84-31.4,37.15-57.68,68-71q13.005-4.005,26-8C1432.38,1740.85,1438.57,1742.12,1442,1740Z"/>
    <circle id="Ellipse_1143_copy_3" data-name="Ellipse 1143 copy 3" class="cls-6" cx="1457" cy="1856" r="127"/>
    <circle id="Ellipse_1143_copy_5" data-name="Ellipse 1143 copy 5" class="cls-6" cx="1457" cy="1856" r="127"/>
    <path class="cls-7" d="M1383.91,1959.86c-1.5-1.05-2.98-2.15-4.43-3.27l119.15-220.6q2.61,0.9,5.16,1.91Zm50.67-228.89a128.315,128.315,0,0,1,44.74-.01l-114.64,212.25a127.167,127.167,0,0,1-24.53-37.4Zm40.04,250.81A128,128,0,0,1,1457,1983c-3.48,0-6.93-.15-10.34-0.42l110.52-204.64a127.2,127.2,0,0,1,14.67,23.81Z"/>
    <path id="Color_Fill_1150" data-name="Color Fill 1150" class="cls-8" d="M1534,1763c-68.62-46.33-106.42-31.46-143.73-15.07a127.05,127.05,0,0,1,186.18,151.29C1582.58,1860.29,1583.49,1796.41,1534,1763Z"/>
    <path id="Color_Fill_1158" data-name="Color Fill 1158" class="cls-9" d="M1477.62,1885.21v-2.89c7.44-.29,8.67-1.67,8.67-8.46v-26.22c0-5.57,0-9.4-.36-10.55-0.58-2.1-3.18-2.31-8.67-2.31v-2.89c5.13-.22,14.45-1.38,19.65-3.04v44.51c0,7.44,1.01,8.74,7.88,8.96v2.89h-27.17Zm-28.61-2.89c7.44-.29,8.67-1.67,8.67-8.46v-26.22c0-5.57,0-9.4-.36-10.55-0.58-2.1-3.18-2.31-8.67-2.31v-2.89c5.13-.22,14.45-1.38,19.65-3.04v44.51c0,7.44,1.01,8.74,7.88,8.96v2.89h-27.17v-2.89Zm-13.8-12.43v2.24c0,6.72,1.08,9.97,6.72,10.19v2.89h-24.78v-2.89c6.79-.29,7.87-3.62,7.87-9.68v-2.46h-23.04v-4.34l26.37-36.99h6.86v36.78c7.01-.22,8.53-1.38,8.53-6.94h2.67v17.56h-2.67C1443.74,1870.97,1442.22,1870.03,1435.21,1869.89Zm-10.19-27.67h-0.29l-16.61,23.41h16.9v-23.41Z"/>
    <path id="Color_Fill_1158_copy" data-name="Color Fill 1158 copy" class="cls-10" d="M1478.62,1883.21v-2.89c7.44-.29,8.67-1.67,8.67-8.46v-26.22c0-5.57,0-9.4-.36-10.55-0.58-2.1-3.18-2.31-8.67-2.31v-2.89c5.13-.22,14.45-1.38,19.65-3.04v44.51c0,7.44,1.01,8.74,7.88,8.96v2.89h-27.17Zm-28.61-2.89c7.44-.29,8.67-1.67,8.67-8.46v-26.22c0-5.57,0-9.4-.36-10.55-0.58-2.1-3.18-2.31-8.67-2.31v-2.89c5.13-.22,14.45-1.38,19.65-3.04v44.51c0,7.44,1.01,8.74,7.88,8.96v2.89h-27.17v-2.89Zm-13.8-12.43v2.24c0,6.72,1.08,9.97,6.72,10.19v2.89h-24.78v-2.89c6.79-.29,7.87-3.62,7.87-9.69v-2.45h-23.04v-4.34l26.37-36.99h6.86v36.78c7.01-.22,8.53-1.38,8.53-6.94h2.67v17.56h-2.67C1444.74,1868.97,1443.22,1868.03,1436.21,1867.89Zm-10.19-27.67h-0.29l-16.61,23.41h16.9v-23.41Z"/>
    <path id="Color_Fill_1155_copy" data-name="Color Fill 1155 copy" class="cls-11" d="M1477.17,1750c2.13,0.59,4.25,1.18,6.38,1.76,7.29,2.22,14.6,4.43,15.22,12.96q5.34,3,10.68,5.98c-3.53-4.29-7.72-10.24-7.76-17.79,3.87-.28,14.9,11.39,16.44,14.8,0.69,1.54,2.03,9.03-.77,8.9,9.23,9.56,20.06,18.43,25.36,31.82-0.46-8.88-1.15-15.03,1.92-22.39,0.45-1.08.81-2.91,2-2.99,3.52,8.75,7.45,19.38,3.15,29.06-0.59,1.34-1.23,3.16-2.76,3.53-1.19-.75-2.19-2.76-2.69-4.14,0.76,1.81,1.53,3.63,2.3,5.44,1.96,4.83,4.15,10.41,4.84,16.1h0.08c-0.17-14.26,5.84-17.02,9.84-26.14h0.07c0.21,2.37.41,4.75,0.62,7.13,1.21,10.61.04,25.6-8.46,27.3-0.25-.26-0.51-0.52-0.76-0.77a96.193,96.193,0,0,1,1.07,16.79c2.98-7.18,6.89-10.97,11.45-16.25,1.27-1.47,3.26-4.15,5.3-4.68,0.08,0.1.16,0.2,0.23,0.3q-0.72,3.27-1.46,6.52c-2.19,11.09-4.14,19.37-12.37,24.31-1.1.66-2.46,1.9-4.07,1.53a55.7,55.7,0,0,1-3.31,15.8c1.64-1.87,2.72-4.07,4.62-5.68a108.852,108.852,0,0,1,12.98-8.89q2.31-1.3,4.61-2.61l0.08,0.08c-1.08,2.43-2.15,4.86-3.23,7.28-3.67,7.28-6.6,14.06-13.22,18.41-1.37.9-8.22,4.89-10.06,3.14-0.03.05-.05,0.1-0.08,0.15-1.96,6.08-6.76,10.89-8.76,16.26,4.33-5.21,12.24-9.32,19.83-11.12,1.51-.36,8.54-2.73,8.83-1.53-3.37,2.78-5.32,6.17-8.06,9.58a32.832,32.832,0,0,1-19.06,11.81c-2.1.44-5.39,0.8-7.23-.15,0.03-.38.06-0.77,0.08-1.15v0.08c-11.59,11.82-23.31,24.27-41.26,29.67,3.18-.09,7.18-1.51,11.06-1.92,3.93-.4,25.28,3.26,25.97,4.45l-0.15.15q-3.795,1.3-7.61,2.61c-9.57,2.91-20.81,4.58-29.51-.61-1.16-.7-3.31-1.58-3.22-3.22,0.25-.13.51-0.26,0.77-0.39q-2.355.69-4.69,1.38-5.235,1.125-10.45,2.23l0.07,0.07c4.44,0.79,27.2,10.83,27.98,12.89-0.06.05-.11,0.1-0.16,0.15q-3.3-.2-6.61-0.38c-9.89-1.11-18.32-1.3-24.97-5.45-4.03-2.51-4.41-6.21-11.22-6.21h-2.84c-1.71.86-3.79,4.46-5.84,5.75-6.57,4.12-14.6,4.75-24.44,5.83l-7.53.15c-0.03-.07-0.05-0.15-0.08-0.23q3-1.605,5.99-3.22c6.75-3.77,13.41-6.29,21.14-9.35-2.42-.13-12.68-3.17-13.22-2.99-0.82.76-1.64,1.53-2.46,2.3a18.034,18.034,0,0,1-5.92,2.99c-9.74,3-20.65-.39-28.35-2.76q-2.925-.885-5.84-1.77v-0.23c11.72-1.37,21.56-4.93,34.96-3.22q-4.995-2.37-9.99-4.75c-2.43-1.48-4.87-2.97-7.3-4.45l0.77,0.62v0.15c-2.38.68-4.4,1.8-7.3,2.22-11.71,1.69-20.27-4.8-26.67-9.35-2.2-1.66-4.4-3.33-6.6-4.99,0.02-.05.05-0.1,0.07-0.15,5.29-.99,21.06,1.29,25.59,2.68,2.38,1.2,4.77,2.41,7.15,3.61-4.22-4.51-9.51-7.92-13.14-13.04-12.18,3.81-23.93-8.49-28.51-14.64-0.91-1.23-5.79-6.49-5.53-7.52q2.76,0.885,5.53,1.77c8.6,2.46,14.27,5.01,20.44,9.43-2.63-4.28-5.5-8.82-7.3-13.81-1.67.41-3.37-.57-4.69-1.07-9.43-3.59-13.8-11.38-17.83-20.32q-2.145-4.41-4.3-8.82c7.6,3.44,16.83,10.2,21.9,16.34-1.04-4.37-1.59-9.22-2.84-13.88-10.39-2.38-13.63-15.25-15.68-26.38l-1.23-6.06c0.05-.02.1-0.05,0.16-0.08,0.1,0.03.2,0.06,0.3,0.08,6.53,3.55,12.82,11.44,15.53,18.71q0.45-7.2.92-14.41c-10.21-2.75-9.49-21.3-7.84-33.67,0.15-.02.31-0.05,0.46-0.07l0.15,0.15c4.38,6.23,7.83,12.13,9.92,20.78,1.74-4.43,2.68-9,4.53-13.11a0.6,0.6,0,0,0-.08-0.08c-0.28.36-.56,0.72-0.84,1.07-0.08-.05-0.15-0.1-0.23-0.15-1.29-3.01-3.3-5.37-4-9.12-1.01-5.46,3.48-22.86,5.69-25.61,1.11,5.06,3.43,9.38,4.23,14.95,0.49,3.45-.69,7.32-0.47,10.04,1.68-4.75,5.54-9.38,8.46-13.19,0.38-.53.77-1.07,1.15-1.61-5.43,6.54-5.36-5.76-4.23-10.58,1.63-6.88,7.08-13.18,11.45-17.63,0.5,9.92.91,16.47-3.15,23.46,3.45-3.3,6.53-6.9,10.3-9.89-4.22-11.12,9.94-21.31,17.14-24.46-1.98,6.58-3.2,12.21-6.84,16.87q4.755-3.03,9.53-6.06c1.33-1.86,1.3-4.12,2.69-5.75,1.8-2.13,14.73-7.73,18.44-7.29a0.6,0.6,0,0,0,.08.08c-0.28,4.34-10.29,12.91-13.99,14.49-1.96.84-4.17,0.25-6.69,1.08l-7.53,5.82h-0.07c1.43-.2,2.87-0.41,4.3-0.61a31.329,31.329,0,0,1,19.13,4.37c0.03,0.1.06,0.21,0.08,0.31-1.51.92-4.59,0.57-6.68,0.84-7.35.96-16.88,2.61-23.83,0.23l-7.83,6.6c0.17-.06.35-0.11,0.53-0.16,1.11-.43,19.67-4.44,19.91-0.76l-6.3,2.91c-4.46,2-8.58,4.43-13.91,5.67-1.59.37-7.17,0.29-8.38,0.85q-3.69,5.055-7.38,10.12c3.08-1.93,15.72-10.16,21.14-8.28v0.46c-1.8,1.51-3.59,3.01-5.38,4.52-4.93,4.05-9.44,8.2-15.22,11.5-1.51.72-3.02,1.43-4.53,2.15-0.62.1-1.23,0.2-1.85,0.31-1.43.96-4.09,10.44-4.92,12.73,1.8-2.03,3.09-4.39,5.15-6.14s12.6-9.09,15.37-8.74c-1.43,1.99-2.87,3.99-4.3,5.98-3.57,5.06-12.78,20.12-19.14,20.78-0.45,4.62-2.74,12.43-1.53,17.56,0.81-8.82,10.06-19.55,16.06-23.23,0.77,1.87-5.39,18.45-6.46,20.85l-3.99,6.21c-0.86,1.2-4.01,6.61-5.31,5.68,0.07,6.16,1.81,11.65,2.85,16.95a0.572,0.572,0,0,1,.07-0.08,30.609,30.609,0,0,1,1.16-9.59c0.99-3.21,7.2-15.51,9.76-16.25l0.07,0.07c-0.12,3.22-.25,6.45-0.38,9.67-1.4,10.41-.54,21.17-7.53,25.84,0.25,0.64.51,1.27,0.77,1.91,1.97,4.76,3.93,10.01,6.91,13.88-0.69-2.73-1.62-6.12-1.23-9.58,0.43-3.69,3.14-18.45,5.23-18.71,1.27,7.9,8.12,31.14,2.07,37.26a51.692,51.692,0,0,0,8.92,10.13c-2.25-4.47-2.79-12.92-2-19.79,0.1-1.61.21-3.22,0.31-4.83,0.05,0.03.1,0.05,0.15,0.08,3.95,10.83,13.95,18.05,11.76,33.43,3.76,1.97,6.87,5.08,10.91,6.9-2.51-3.29-8.66-15.64-7.61-21.62,5.64,6.7,13.41,11.86,18.06,19.48,1.43,2.33,1.13,5.81,2.31,7.89l11.37,3.15c-3.75-3.48-11.81-10.5-11.99-16.72,6.74,3.27,16.95,5.68,21.52,11.27,1.67,2.05,2.63,4.61,3.76,7.21q6-.03,11.99-0.08c-0.68-1.66.62-3.1,1.31-4.14,5.48-8.18,14.07-9.72,23.13-14.11-0.98,7.13-6.65,12.5-11.22,16.26q5.385-1.575,10.76-3.14c1.7-13.26,13.47-18.75,20.44-26.99,1.15,5.78-4.97,17.6-7.22,20.93q5.1-3.33,10.22-6.67c0.05-1.31.1-2.61,0.15-3.91,0.38-3.28.41-6.46,1.23-9.2,1.1-3.69,3.31-6.3,5.07-9.28q2.925-5.49,5.84-10.97c1.28,4.99,1.03,12.51.23,17.71q-0.54,2.775-1.07,5.53l7.6-8.98c-3.56-10.61-1.46-17.67,1-28.06,0.46-2.68.93-5.37,1.39-8.05,4.01-.02,5.17,19.86,4.45,25.53,2.81-3.46,5.13-9.27,6.53-13.8-5.99-5.18-5.72-15.58-6.83-25.76-0.13-3.43-.26-6.85-0.39-10.28,1.52,0.14,8.67,13.23,9.61,15.64a25.092,25.092,0,0,1,1.46,7.59c0.48-1.2,2.81-12.54,2.15-13.87l-4.53-5.22c-3.47-4.86-5.81-10.84-7.77-17.17-0.62-2.03-3.55-9.12-3.07-10.82h0.15c3.88,4.63,9.37,8.15,12.61,13.35,1.39,2.24,1.86,4.92,2.92,7.59,0.01-2.52-.8-13.79-1.62-14.88-0.66-.89-5.36-3.76-6.61-4.83-4.86-4.18-7.48-10.25-11.29-15.49-1.27-1.75-3.99-3.51-4.46-5.83,0.03-.02.05-0.05,0.08-0.07,4.21,0.37,11.61,5.77,14.44,8.12l4.38,4.53q-2.19-5.49-4.38-10.97c-0.86-.76-4.57-1.68-5.76-2.37-4.58-2.69-8.38-5.99-12.37-9.2-1.19-.96-8.38-6.68-8.22-7.21,0.3-.08.61-0.16,0.92-0.23,7.06,0.51,13.87,3.82,18.6,6.98q-3.24-4.335-6.46-8.67l-7.92-.84c-3.01-.7-18.99-7.24-20.05-8.74,0.02-.13.05-0.26,0.08-0.39,4.45-2.05,16.03-.28,19.51,1.23q-3.6-3.075-7.22-6.14c-4.39,2.11-25.78.45-29.74-1.3v-0.31c3.95-3.46,14.87-4.76,21.67-3.91q-4.065-2.835-8.14-5.67c-3.15-1.14-5.49-1.24-7.92-2.76-3.54-2.21-6.14-5.91-8.61-9.2C1478.64,1752.84,1476.89,1751.25,1477.17,1750Zm47.8,12.96c5.64,4.96,13.81,14.85,12.22,26.07-0.25,1.78-.29,3.89-1.46,4.75-1.66-.44-3.05-2.27-4.15-3.37C1523.7,1782.5,1526.61,1776.47,1524.97,1762.96Zm21.13,165.7c1.26,0.08,2.51.16,3.77,0.23v0.08c-1.43,3.87-19.73,12.81-25.59,13.96-3.53.68-13.52,0.29-13.3-2.84,3.21-6.08,14.81-9.37,23.37-10.51Q1540.215,1929.13,1546.1,1928.66Z"/>
    <path id="Color_Fill_1155" data-name="Color Fill 1155" class="cls-10" d="M1477.17,1749c2.13,0.59,4.25,1.18,6.38,1.76,7.29,2.22,14.6,4.43,15.22,12.96q5.34,3,10.68,5.98c-3.53-4.29-7.72-10.24-7.76-17.79,3.87-.28,14.9,11.39,16.44,14.8,0.69,1.54,2.03,9.03-.77,8.9,9.23,9.56,20.06,18.43,25.36,31.82-0.46-8.88-1.15-15.03,1.92-22.39,0.45-1.08.81-2.91,2-2.99,3.52,8.75,7.45,19.38,3.15,29.06-0.59,1.34-1.23,3.16-2.76,3.53-1.19-.75-2.19-2.76-2.69-4.14,0.76,1.81,1.53,3.63,2.3,5.44,1.96,4.83,4.15,10.41,4.84,16.1h0.08c-0.17-14.26,5.84-17.02,9.84-26.14h0.07c0.21,2.37.41,4.75,0.62,7.13,1.21,10.61.04,25.6-8.46,27.3-0.25-.26-0.51-0.52-0.76-0.77a96.193,96.193,0,0,1,1.07,16.79c2.98-7.18,6.89-10.97,11.45-16.25,1.27-1.47,3.26-4.15,5.3-4.68,0.08,0.1.16,0.2,0.23,0.3q-0.72,3.27-1.46,6.52c-2.19,11.09-4.14,19.37-12.37,24.31-1.1.66-2.46,1.9-4.07,1.53a55.7,55.7,0,0,1-3.31,15.8c1.64-1.87,2.72-4.07,4.62-5.67a107.752,107.752,0,0,1,12.98-8.9q2.31-1.3,4.61-2.61l0.08,0.08c-1.08,2.43-2.15,4.86-3.23,7.28-3.67,7.28-6.6,14.06-13.22,18.41-1.37.9-8.22,4.89-10.06,3.14-0.03.05-.05,0.1-0.08,0.15-1.96,6.08-6.76,10.89-8.76,16.26,4.33-5.21,12.24-9.32,19.83-11.12,1.51-.36,8.54-2.73,8.83-1.53-3.37,2.78-5.32,6.17-8.06,9.58a32.832,32.832,0,0,1-19.06,11.81c-2.1.44-5.39,0.8-7.23-.15,0.03-.38.06-0.77,0.08-1.15v0.08c-11.59,11.82-23.31,24.27-41.26,29.67,3.18-.09,7.18-1.51,11.06-1.92,3.93-.4,25.28,3.26,25.97,4.45l-0.15.15q-3.795,1.3-7.61,2.61c-9.57,2.91-20.81,4.58-29.51-.61-1.16-.7-3.31-1.58-3.22-3.22,0.25-.13.51-0.26,0.77-0.39q-2.355.69-4.69,1.38-5.235,1.125-10.45,2.23l0.07,0.07c4.44,0.79,27.2,10.83,27.98,12.89-0.06.05-.11,0.1-0.16,0.15q-3.3-.2-6.61-0.38c-9.89-1.11-18.32-1.3-24.97-5.45-4.03-2.51-4.41-6.21-11.22-6.21h-2.84c-1.71.86-3.79,4.46-5.84,5.75-6.57,4.12-14.6,4.75-24.44,5.83l-7.53.15c-0.03-.07-0.05-0.15-0.08-0.23q3-1.605,5.99-3.22c6.75-3.78,13.41-6.29,21.14-9.35-2.42-.13-12.68-3.17-13.22-2.99-0.82.76-1.64,1.53-2.46,2.3a18.034,18.034,0,0,1-5.92,2.99c-9.74,3-20.65-.39-28.35-2.76q-2.925-.885-5.84-1.77v-0.23c11.72-1.37,21.56-4.93,34.96-3.22q-4.995-2.37-9.99-4.75c-2.43-1.48-4.87-2.97-7.3-4.45l0.77,0.62v0.15c-2.38.68-4.4,1.8-7.3,2.22-11.71,1.69-20.27-4.8-26.67-9.35-2.2-1.66-4.4-3.33-6.6-4.99,0.02-.05.05-0.1,0.07-0.15,5.29-.99,21.06,1.29,25.59,2.68,2.38,1.2,4.77,2.41,7.15,3.61-4.22-4.51-9.51-7.92-13.14-13.04-12.18,3.81-23.93-8.49-28.51-14.64-0.91-1.23-5.79-6.49-5.53-7.52q2.76,0.885,5.53,1.77c8.6,2.46,14.27,5.01,20.44,9.43-2.63-4.28-5.5-8.82-7.3-13.81-1.67.41-3.37-.57-4.69-1.07-9.43-3.59-13.8-11.38-17.83-20.32q-2.145-4.41-4.3-8.82c7.6,3.44,16.83,10.2,21.9,16.34-1.04-4.37-1.59-9.22-2.84-13.88-10.39-2.38-13.63-15.25-15.68-26.38l-1.23-6.06c0.05-.02.1-0.05,0.16-0.08,0.1,0.03.2,0.06,0.3,0.08,6.53,3.55,12.82,11.44,15.53,18.71q0.45-7.2.92-14.41c-10.21-2.75-9.49-21.3-7.84-33.67,0.15-.02.31-0.05,0.46-0.07l0.15,0.15c4.38,6.23,7.83,12.13,9.92,20.78,1.74-4.43,2.68-9,4.53-13.11a0.6,0.6,0,0,0-.08-0.08c-0.28.36-.56,0.72-0.84,1.07-0.08-.05-0.15-0.1-0.23-0.15-1.29-3.01-3.3-5.37-4-9.12-1.01-5.46,3.48-22.86,5.69-25.61,1.11,5.06,3.43,9.38,4.23,14.95,0.49,3.45-.69,7.32-0.47,10.04,1.68-4.75,5.54-9.38,8.46-13.19,0.38-.53.77-1.07,1.15-1.61-5.43,6.54-5.36-5.76-4.23-10.58,1.63-6.88,7.08-13.18,11.45-17.63,0.5,9.92.91,16.47-3.15,23.46,3.45-3.3,6.53-6.9,10.3-9.89-4.22-11.12,9.94-21.31,17.14-24.46-1.98,6.58-3.2,12.21-6.84,16.87q4.755-3.03,9.53-6.06c1.33-1.86,1.3-4.12,2.69-5.75,1.8-2.13,14.73-7.73,18.44-7.29a0.6,0.6,0,0,0,.08.08c-0.28,4.34-10.29,12.91-13.99,14.49-1.96.84-4.17,0.25-6.69,1.08l-7.53,5.82h-0.07c1.43-.2,2.87-0.41,4.3-0.61a31.329,31.329,0,0,1,19.13,4.37c0.03,0.1.06,0.21,0.08,0.31-1.51.92-4.59,0.57-6.68,0.84-7.35.96-16.88,2.61-23.83,0.23l-7.83,6.6c0.17-.06.35-0.11,0.53-0.16,1.11-.43,19.67-4.44,19.91-0.76l-6.3,2.91c-4.46,2-8.58,4.43-13.91,5.67-1.59.37-7.17,0.29-8.38,0.85q-3.69,5.055-7.38,10.12c3.08-1.93,15.72-10.16,21.14-8.28v0.46c-1.8,1.51-3.59,3.01-5.38,4.52-4.93,4.05-9.44,8.2-15.22,11.5-1.51.72-3.02,1.43-4.53,2.15-0.62.1-1.23,0.2-1.85,0.31-1.43.96-4.09,10.44-4.92,12.73,1.8-2.03,3.09-4.39,5.15-6.14s12.6-9.09,15.37-8.74c-1.43,1.99-2.87,3.99-4.3,5.98-3.57,5.06-12.78,20.12-19.14,20.78-0.45,4.62-2.74,12.43-1.53,17.56,0.81-8.82,10.06-19.55,16.06-23.23,0.77,1.86-5.39,18.45-6.46,20.85l-3.99,6.21c-0.86,1.2-4.01,6.61-5.31,5.68,0.07,6.16,1.81,11.65,2.85,16.95a0.572,0.572,0,0,1,.07-0.08,30.609,30.609,0,0,1,1.16-9.59c0.99-3.21,7.2-15.51,9.76-16.25l0.07,0.07c-0.12,3.22-.25,6.45-0.38,9.67-1.4,10.41-.54,21.17-7.53,25.84,0.25,0.64.51,1.28,0.77,1.91,1.97,4.76,3.93,10.01,6.91,13.88-0.69-2.73-1.62-6.12-1.23-9.58,0.43-3.69,3.14-18.45,5.23-18.71,1.27,7.9,8.12,31.14,2.07,37.26a51.692,51.692,0,0,0,8.92,10.13c-2.25-4.47-2.79-12.92-2-19.79,0.1-1.61.21-3.22,0.31-4.83,0.05,0.03.1,0.05,0.15,0.08,3.95,10.83,13.95,18.05,11.76,33.43,3.76,1.97,6.87,5.08,10.91,6.9-2.51-3.29-8.66-15.64-7.61-21.62,5.64,6.7,13.41,11.86,18.06,19.48,1.43,2.33,1.13,5.81,2.31,7.89l11.37,3.15c-3.75-3.48-11.81-10.5-11.99-16.72,6.74,3.27,16.95,5.68,21.52,11.27,1.67,2.05,2.63,4.61,3.76,7.21q6-.03,11.99-0.08c-0.68-1.66.62-3.1,1.31-4.14,5.48-8.18,14.07-9.72,23.13-14.11-0.98,7.13-6.65,12.5-11.22,16.26q5.385-1.575,10.76-3.14c1.7-13.26,13.47-18.75,20.44-26.99,1.15,5.78-4.97,17.6-7.22,20.93q5.1-3.33,10.22-6.67c0.05-1.31.1-2.61,0.15-3.91,0.38-3.28.41-6.46,1.23-9.2,1.1-3.69,3.31-6.3,5.07-9.28q2.925-5.49,5.84-10.97c1.28,4.99,1.03,12.51.23,17.71q-0.54,2.775-1.07,5.53l7.6-8.98c-3.56-10.61-1.46-17.67,1-28.06,0.46-2.68.93-5.37,1.39-8.05,4.01-.02,5.17,19.86,4.45,25.53,2.81-3.46,5.13-9.27,6.53-13.8-5.99-5.18-5.72-15.58-6.83-25.76-0.13-3.43-.26-6.85-0.39-10.28,1.52,0.14,8.67,13.23,9.61,15.64a25.092,25.092,0,0,1,1.46,7.59c0.48-1.2,2.81-12.54,2.15-13.87l-4.53-5.22c-3.47-4.86-5.81-10.84-7.77-17.17-0.62-2.03-3.55-9.12-3.07-10.82h0.15c3.88,4.63,9.37,8.15,12.61,13.35,1.39,2.24,1.86,4.92,2.92,7.59,0.01-2.52-.8-13.79-1.62-14.88-0.66-.89-5.36-3.76-6.61-4.83-4.86-4.18-7.48-10.25-11.29-15.49-1.27-1.75-3.99-3.51-4.46-5.83,0.03-.02.05-0.05,0.08-0.07,4.21,0.37,11.61,5.77,14.44,8.12l4.38,4.53q-2.19-5.49-4.38-10.97c-0.86-.76-4.57-1.68-5.76-2.37-4.58-2.69-8.38-5.99-12.37-9.2-1.19-.96-8.38-6.68-8.22-7.21,0.3-.08.61-0.16,0.92-0.23,7.06,0.51,13.87,3.82,18.6,6.98q-3.24-4.335-6.46-8.67l-7.92-.84c-3.01-.7-18.99-7.24-20.05-8.74,0.02-.13.05-0.26,0.08-0.39,4.45-2.04,16.03-.28,19.51,1.23q-3.6-3.075-7.22-6.14c-4.39,2.11-25.78.45-29.74-1.3v-0.31c3.95-3.46,14.87-4.76,21.67-3.91q-4.065-2.835-8.14-5.67c-3.15-1.14-5.49-1.24-7.92-2.76-3.54-2.21-6.14-5.91-8.61-9.2C1478.64,1751.84,1476.89,1750.25,1477.17,1749Zm47.8,12.96c5.64,4.96,13.81,14.85,12.22,26.07-0.25,1.78-.29,3.89-1.46,4.75-1.66-.43-3.05-2.27-4.15-3.37C1523.7,1781.5,1526.61,1775.47,1524.97,1761.96Zm21.13,165.7c1.26,0.08,2.51.16,3.77,0.23v0.08c-1.43,3.87-19.73,12.81-25.59,13.96-3.53.68-13.52,0.29-13.3-2.84,3.21-6.08,14.81-9.37,23.37-10.51Q1540.215,1928.13,1546.1,1927.66Z"/>
    <path id="Color_Fill_1155_copy_2" data-name="Color Fill 1155 copy 2" class="cls-8" d="M1547.03,1814.64a7.066,7.066,0,0,1-2.14-2.83l6.67-12.35a23.36,23.36,0,0,1-1.77,11.65C1549.2,1812.45,1548.56,1814.27,1547.03,1814.64Zm-45.31-61.8c-0.01-.31-0.03-0.61-0.03-0.93a3.023,3.023,0,0,1,.5.05Zm-3.82,7.08-2.51,4.65c-2.02-.69-3.72-1-5.34-1.59l4.16-7.7A10.863,10.863,0,0,1,1497.9,1759.92Zm-105.87,140.29c0.05,0.03.1,0.05,0.15,0.08,0.22,0.61.46,1.2,0.72,1.79l-1.12,2.08C1391.86,1902.84,1391.94,1901.53,1392.03,1900.21Zm22.02-120.11c1.12,0.22,1.83.64,1.88,1.34-1.16.53-2.32,1.06-3.47,1.6Zm19.78-5.41c-1.51.92-4.59,0.57-6.68,0.84-3.47.45-7.42,1.05-11.35,1.32l3.74-6.92a30.892,30.892,0,0,1,14.21,4.45C1433.78,1774.48,1433.81,1774.59,1433.83,1774.69Zm-35.5,159.11c-0.11-.12-0.23-0.23-0.35-0.35l5.52-10.23a27.307,27.307,0,0,1,.44,10.5,0.435,0.435,0,0,0,.07.04l-4.37,8.09c-0.28.06-.56,0.11-0.85,0.15a25.99,25.99,0,0,1-5.53.2l4.65-8.62C1398.05,1933.66,1398.19,1933.73,1398.33,1933.8Zm-4.93,19.6c-1.78-.54-3.55-1.07-5.33-1.61l0.24-.44c2.31-.29,4.55-0.65,6.76-1.04Zm150.58-88.93-5.68,10.52c-0.41-3.49-.63-7.2-1.03-10.89-0.13-3.43-.26-6.85-0.39-10.28C1537.9,1853.91,1541.46,1859.85,1543.98,1864.47Zm-12.66,23.43c0.14-.56.27-1.13,0.41-1.72,0.46-2.68.93-5.37,1.39-8.05,0.85-.01,1.58.91,2.19,2.39Zm-13.19,23.05q2.925-5.49,5.84-10.97c0.09,0.35.16,0.74,0.23,1.11l-11.67,21.61a17.727,17.727,0,0,1,.53-2.47C1514.16,1916.54,1516.37,1913.93,1518.13,1910.95ZM1489.21,1776a45.955,45.955,0,0,1-5.66-.99l1.2-2.21a28.4,28.4,0,0,1,7.31-2.06Zm-78.99,146.25-2.13,3.94a17.2,17.2,0,0,1-.85-7.19C1408.18,1920.12,1409.19,1921.19,1410.22,1922.25Zm66.41,15.94c3.75-1.77,7.85-3.2,12.07-5.24-0.98,7.13-6.65,12.5-11.22,16.26q5.385-1.575,10.76-3.14c1.7-13.26,13.47-18.75,20.44-26.99,1.15,5.78-4.97,17.6-7.22,20.93,0.88-.58,1.77-1.16,2.66-1.74l-3.52,6.51a62.217,62.217,0,0,1-10.82,4.43c2.71-.08,6.02-1.12,9.33-1.67l-4.6,8.52a22.315,22.315,0,0,1-4.97-2.17c-1.16-.7-3.31-1.58-3.22-3.22,0.25-.13.51-0.26,0.77-0.39q-2.355.69-4.69,1.38-5.235,1.125-10.45,2.23l0.07,0.07c2.7,0.48,12.2,4.39,19.39,7.84l-2.37,4.38c-8.09-.81-15.09-1.46-20.78-5.01a14.686,14.686,0,0,1-2.79-2.32Zm-97.73-10.2-3.69,6.84c-1.08-.75-2.11-1.49-3.09-2.18-2.2-1.66-4.4-3.33-6.6-4.99,0.02-.05.05-0.1,0.07-0.15C1368.28,1927.01,1373.66,1927.35,1378.9,1927.99Zm-15.58-53.97,2.34-4.34c0.62,3.7,1.57,7.19,2.24,10.6a0.572,0.572,0,0,1,.07-0.08,30.609,30.609,0,0,1,1.16-9.59c0.99-3.21,7.2-15.51,9.76-16.25l0.07,0.07c-0.12,3.22-.25,6.45-0.38,9.67-1.4,10.41-.54,21.17-7.53,25.84,0.25,0.64.51,1.28,0.77,1.91,1.97,4.76,3.93,10.01,6.91,13.88-0.69-2.73-1.62-6.12-1.23-9.58,0.43-3.69,3.14-18.45,5.23-18.71,1.27,7.9,8.12,31.14,2.07,37.26,0.24,0.34.48,0.69,0.73,1.03l-3.03,5.61c-11.19,1.43-21.58-9.53-25.82-15.22-0.91-1.23-5.79-6.49-5.53-7.52q2.76,0.885,5.53,1.77c8.6,2.46,14.27,5.01,20.44,9.43-2.63-4.28-5.5-8.82-7.3-13.81-1.67.41-3.37-.57-4.69-1.07a24.479,24.479,0,0,1-9.56-6.55l5.54-10.25a44.9,44.9,0,0,1,3.79,4C1364.29,1879.54,1363.83,1876.8,1363.32,1874.02Zm61.29-110.3a6.593,6.593,0,0,1-1.96.46l6.86-12.72c3.63-1.43,7.3-2.51,9.01-2.31a0.6,0.6,0,0,0,.08.08C1438.32,1753.57,1428.31,1762.14,1424.61,1763.72Zm122.14,95.61c-0.39-.46-0.79-0.91-1.18-1.37-3.47-4.86-5.81-10.84-7.77-17.17-0.56-1.82-2.95-7.67-3.11-10.1l0.32-.58c3.87,4.56,9.27,8.06,12.48,13.21,1.39,2.24,1.86,4.92,2.92,7.59,0.01-2.52-.8-13.79-1.62-14.88-0.66-.89-5.36-3.76-6.61-4.83a29.194,29.194,0,0,1-4.8-5.49l3.98-7.36c1.32,1.37,2.65,2.74,3.97,4.11q-1.3-3.3-2.63-6.6l2.19-4.05c0.58,1.38,1.17,2.75,1.75,4.13,1.96,4.83,4.15,10.41,4.84,16.1h0.08c-0.17-14.26,5.84-17.02,9.84-26.14h0.07c0.21,2.37.41,4.75,0.62,7.13,1.21,10.61.04,25.6-8.46,27.3-0.25-.26-0.51-0.52-0.76-0.77a62.426,62.426,0,0,1,.81,6.95Z"/>
    <path id="Rectangle_1186_copy" data-name="Rectangle 1186 copy" class="cls-12" d="M1457.81,1834.14c-0.85-.95-2.6-1.25-5.47-1.33l1.75-3.25c2.09-.21,4.39-0.49,6.65-0.85Zm-21.6,28.52v0.97c2.97-.1,4.94-0.36,6.24-1.05l-2.96,5.49c-0.93-.1-2.01-0.15-3.28-0.18v2.24a34.053,34.053,0,0,0,.17,3.69l-5.07,9.39h-6.19Zm9.42-5.97-0.97,1.79c0.05-.54.08-1.13,0.08-1.79h0.89Zm-19.61-15.94v-0.53h-0.29l-16.61,23.41h4.55l-2.46,4.55h-8.23v-4.34l26.37-36.99h4.18Z"/>
  </g>
</svg>
