<svg id="_Pudding_Headband" data-name="&quot;Pudding&quot; Headband" xmlns="http://www.w3.org/2000/svg" width="3000" height="3000" viewBox="0 0 3000 3000" shape-rendering="geometricPrecision">
  <defs>
    <style>
      .cls-1 {
        fill: #31323d;
      }

      .cls-1, .cls-2, .cls-3, .cls-4, .cls-5, .cls-6 {
        fill-rule: evenodd;
      }

      .cls-2 {
        fill: #b8916c;
      }

      .cls-3 {
        fill: #d5b08d;
      }

      .cls-4 {
        fill: #a18973;
      }

      .cls-5 {
        fill: #ecd1eb;
      }

      .cls-6 {
        fill: #fff;
      }
    </style>
  </defs>
  <path id="headband_" data-name="headband " class="cls-1" d="M1717.39,961.513c-0.41,9.492-141.88-97.545-323.72-93.342s-266.38,93.4-274.52,93.592-6.2-14.791,1.22-24.466c5.84-7.615,104.93-100.819,271.84-104.676s291.66,72.349,311.66,91.19C1719.72,938.737,1718.28,941.128,1717.39,961.513Z"/>
  <path id="left_antennae_base" data-name="left antennae base" class="cls-1" d="M1264.97,869.7s-47.75-32.19-72.04-34.748c0,0-6.8-13.76-4.83-19.119,0,0,26.97-25.362,38.8-28.61,0,0-49.91,8.393-59.52-1.84,0,0-7.25-28.228-1.79-29.865,0,0,30.63-27.056,41.51-28.526,0,0-54.34,5.546-67.64-2.092,0,0-8.1-30.06,1.17-37.9,0,0,4.76-7.983,30.52-23.446,0,0-49.72,2.075-59.53-1.841,0,0-4.22-13.465-2.08-21.955a9.411,9.411,0,0,1,2.92-5.119c7.41-6.094,22.29-20.087,44.38-33.857,0,0-40.71-1.975-55.28-5.768a16.8,16.8,0,0,1-4.08-1.488c-7.98-4.763-3.92-19.091.67-21.659,0,0,119.13.974,127.33-1.482,0,0,5.9,13.732-.75,24.366,0,0-41.17,17.7-68.9,38.519,0,0,22.69-3.815,89.54-5.361,0,0,10.38,14.774,1.87,27.158,0,0-51.4,27.317-71.69,41.142,0,0,66.12-6.988,83.96-.113,0,0,7.53,19.2,1.87,27.157,0,0-31.2,16.2-47.17,36.481,0,0,63.16,1.05,67.56,4.8,0,0,8.46,18.328,1.87,27.158,0,0-42.13,19.473-52.25,25.484,0,0,49.21,14.168,64.02,31.789C1295.41,848.963,1301.02,871.72,1264.97,869.7Z"/>
  <path id="left_antennae_base_copy" data-name="left antennae base copy" class="cls-1" d="M1579.42,884.692s47.96-43.565,71.42-49.788c0,0,5.81-15.334,3.72-20.7,0,0-27.14-23.8-39.1-26.077,0,0,48.58,3.791,56.95-7.686,0,0,5.33-29.437.32-30.753,0,0-29.73-26.369-40.3-27.446,0,0,50.82,3.368,62.19-4.851,0,0,5.7-30.131-2.66-37.856,0,0-4.51-7.977-28.31-23.833,0,0,43.87,2.722,51.92-.983,0,0,2.93-13.012.8-21.315a10.578,10.578,0,0,0-2.65-5.078c-6.47-6.235-19.78-20.715-39.82-35.8,0,0,35.22.7,47.14-2.035a10.978,10.978,0,0,0,3.27-1.163c6.25-4.021,2.37-18.009-1.47-20.843,0,0-107.22-9.826-115.55-13.276,0,0-5.38,14.123,1.83,26.08,0,0,40.79,21.445,67.09,44.051,0,0-20.86-4.832-86.8-9.65,0,0-10.28,15.719-.75,29.566,0,0,52.67,29.771,72.36,43.952,0,0-65.03-6.635-83.53,1.142,0,0-7.26,21.554-.79,30.19,0,0,33.31,16.183,50.2,36.926,0,0-65.94,6.162-70.66,10.791,0,0-8.68,21.744-.86,31.075,0,0,46.22,16.548,56.86,21.79,0,0-51.68,22.941-67.57,45.7C1544.67,866.827,1539.25,894.322,1579.42,884.692Z"/>
  <g>
    <path id="Color_Fill_21_copy" data-name="Color Fill 21 copy" class="cls-1" d="M1170.34,610.391c-17.09-1.028-56.54,40.293-116.05,33.732-47.96-5.289-58.1-40.929-60.206-61.667-2.014-19.844.234-63.209,23.616-70.679,0,0-16.45-19.691-13.91-35.068s14.84-48.013,29.29-46.359c0,0-23.89-41.283,21.08-54.4,0,0-5.75-32.445,2.25-43.365s16.05-18.228,21.26-38.148c0,0,13.01,35.98,43.65,32.045s63.27,10.167,57.1,23.776c0,0,67.71,3.8,54.76,59.016,0,0,54.46,30.124,33.23,70.078,0,0,44.63,13.048,43.85,51C1309.07,588.157,1259.73,615.767,1170.34,610.391Z"/>
    <path id="Color_Fill_21" data-name="Color Fill 21" class="cls-2" d="M1170.22,599.557c-17.09-.867-48.42,28.5-88.98,33.446s-66.98-20.06-73.51-39.856-3.5-74.907,28.92-81.57c0,0-24.54-16.9-22-32.274s20.28-45.361,34.73-43.708c0,0-37.43-41.14,21.05-57.108,0,0-13.82-26.942-5.81-37.862s10.78-4.629,15.98-24.548c0,0,10.19,25.174,40.83,21.239s49.74,10.31,43.57,23.919c0,0,67.66-1.618,54.71,53.6,0,0,54.43,27.416,33.19,67.37,0,0,47.99,15.745,46.59,53.684S1258.7,604.04,1170.22,599.557Z"/>
    <path id="Color_Fill_27" data-name="Color Fill 27" class="cls-3" d="M1094.51,351.145c-10.97-2.94-15.73-13.2-17.55-24.2a62.676,62.676,0,0,0,3.64-10.865s10.19,25.174,40.83,21.239,49.74,10.31,43.57,23.919l-5.31.606c-2.34-.877-5.06-1.919-8.25-3.172C1114.99,344.4,1120.96,358.231,1094.51,351.145Zm70.49,10.09s70.34-4.355,57.38,50.862c0,0,51.76,30.153,30.52,70.107,0,0,47.99,15.745,46.59,53.684-0.92,24.9-18.2,46.469-54.98,57.089,49.33-40.884,15.53-88.739.39-99.854-15.53-11.4-87.83,10.5-54.2-4.845s56.79-6.017,56.79-6.017c-2.22-55.967-65.68-67.027-65.68-67.027l35.13-5.789c12.64-46.7-130.35-39.255-130.35-39.255l73.1-8.349C1184.02,370.968,1165,361.235,1165,361.235Z"/>
    <path id="Color_Fill_25" data-name="Color Fill 25" class="cls-4" d="M1232.6,595.873l19.89-5.506A141.72,141.72,0,0,1,1232.6,595.873ZM1014.65,479.3c1.2-7.222,5.76-17.645,11.74-26.52-6.72,22.89,7.52,56.114,7.52,56.114-0.06.172-.11,0.331-0.16,0.5C1027.35,504.379,1012.65,491.39,1014.65,479.3Zm31.7-47.561c-5.69-7.949-16.02-26.619-.76-40.943C1040.46,405.393,1045.09,426.6,1046.35,431.742Zm21.77-58.291c-3.55-8.319-9.36-24.839-3.5-32.826,4.93-6.726,7.88-6.935,10.63-10.749-12.21,26.215-2.14,45.874-2.14,45.874A7.492,7.492,0,0,0,1068.12,373.451ZM1081.24,633c-40.55,4.943-66.98-20.06-73.51-39.856-6.24-18.942-3.72-70.188,24.91-80.414-20.67,62.67-1.08,72.359,21.19,88.053,22.73,16.013,94.72-2.806,102.86-1.086a52.951,52.951,0,0,0,6.24.917C1144.92,605.847,1116.59,628.7,1081.24,633Z"/>
    <g id="mouth">
      <path id="mouth-2" data-name="mouth" class="cls-1" d="M1047.82,543.965c-16.74,10.716,40.19,46.528,97.79,31.472s99.62-50.714,91.31-68.685S1054.99,539.374,1047.82,543.965Z"/>
      <path id="tongue" class="cls-5" d="M1145.61,575.437c-20.61,5.388-41.12,4.245-58.21.085,2.31-4.553,8.33-12.646,22.85-15.964,20.7-4.733,26.17.626,32.48-.343s14.31-11.89,29.66-11.149a40.1,40.1,0,0,1,21.62,8.372A216.9,216.9,0,0,1,1145.61,575.437Z"/>
    </g>
    <g id="eye">
      <path id="Color_Fill_22" data-name="Color Fill 22" class="cls-6" d="M1078.87,408.2c-15.49,4.255-18.63,29.994-12.99,51.605s14.69,24.224,27.3,21.382,18.74-19.16,15.84-38.091S1095.96,403.5,1078.87,408.2Z"/>
      <path id="Color_Fill_22_copy_3" data-name="Color Fill 22 copy 3" class="cls-1" d="M1078,437.156c-10.68-.195-14.91,12.293-12.73,24.93,2.34,13.608,8.99,16.7,18.72,17.017,9.63,0.311,14.73-8.466,13.19-19.592C1095.74,449.064,1089.63,437.368,1078,437.156Z"/>
    </g>
    <g id="eye-2" data-name="eye">
      <path id="Color_Fill_22_copy" data-name="Color Fill 22 copy" class="cls-6" d="M1142.61,391.785c-15.3,3.748-18.24,27.423-11.98,48.9,6.73,23.13,16.99,26.048,30.96,22.874,13.83-3.143,18.93-20.6,13.96-39.654C1170.89,406.015,1159.26,387.7,1142.61,391.785Z"/>
      <path id="Color_Fill_22_copy_2" data-name="Color Fill 22 copy 2" class="cls-1" d="M1145.5,420.19c-10.68-.195-14.91,12.293-12.74,24.93,2.35,13.607,9,16.7,18.73,17.017,9.63,0.311,14.73-8.466,13.19-19.593C1163.24,432.1,1157.13,420.4,1145.5,420.19Z"/>
    </g>
  </g>
  <g id="Group_7_copy" data-name="Group 7 copy">
    <path id="Color_Fill_21_copy-2" data-name="Color Fill 21 copy" class="cls-1" d="M1668.13,610.879c-15.51-7.267-67.42,16.564-120.3-11.512-42.62-22.63-38.9-59.5-33.21-79.55,5.45-19.186,23.53-58.658,48.02-56.964,0,0-8.03-24.377.01-37.728s31.49-39.143,44.32-32.268c0,0-6.99-47.194,39.66-42.771,0,0,6.61-32.28,18.08-39.472s21.64-11.013,33.82-27.6c0,0-1.17,38.245,28.75,45.9s55.06,32.818,44.3,43.187c0,0,61.54,28.542,29.13,75.075,0,0,39.51,48.112,5.04,77.4,0,0,36.67,28.613,21.94,63.6C1805.26,641.454,1749.22,648.891,1668.13,610.879Z"/>
    <path id="Color_Fill_21-2" data-name="Color Fill 21" class="cls-2" d="M1672.02,600.768c-15.57-7.121-55.52,8.6-95.04-1.781s-54.86-43.384-53.62-64.192,24.38-70.91,56.96-65.13c0,0-16.58-24.768-8.54-38.119s35.57-34.67,48.4-27.8c0,0-19.62-52.059,40.63-45.3,0,0-2.91-30.144,8.56-37.336s11.73-.321,23.91-16.912c0,0,.19,27.162,30.11,34.82s42.43,27.953,31.67,38.321c0,0,63.48,23.487,31.08,70.02,0,0,40.48,45.584,6,74.873,0,0,38.8,32.36,23.5,67.1S1752.6,637.613,1672.02,600.768Z"/>
    <path id="Color_Fill_28" data-name="Color Fill 28" class="cls-3" d="M1756.91,375.1a12.669,12.669,0,0,1-1.85,2.25s63.48,23.487,31.08,70.02c0,0,38.95,43.917,7.77,73.236,19.65-54.4-44.44-82.6-44.44-82.6,14.01,1.726,35.53,9.653,35.53,9.653,19.24-60.1-115.22-87-111.29-88.427C1677.34,357.907,1746.71,372.882,1756.91,375.1Zm-43.33,123.731c44.19,4.326,79.36,24.45,79.36,24.45,0.04-.087.06-0.17,0.1-0.258,5.69,5.1,36.52,34.722,22.6,66.32a52.466,52.466,0,0,1-9.28,14.316,16.782,16.782,0,0,1,.03-2.231c3.68-37.451-23.08-65.654-35-74.716S1669.39,494.5,1713.58,498.827Zm44.04-125.052c-4.88-12.714-19.35-15.673-48.92-21.135-23.56-4.351-30.85-25.126-32.98-34.675,5.84-2.112,8.15-.944,17.56-13.76,0,0,.19,27.162,30.11,34.82C1750.19,345.883,1762.96,362.853,1757.62,373.775Z"/>
    <path id="Color_Fill_29" data-name="Color Fill 29" class="cls-4" d="M1672.02,600.768c-15.57-7.121-55.52,8.6-95.04-1.781s-54.86-43.384-53.62-64.192,24.38-70.91,56.96-65.13c0,0-.83-1.251-1.99-3.267,4.08,1.479,3.61,3.8-3.72,7.26-39.41,18.625-36.53,71.152-10.27,97.91S1673.1,584.2,1673.1,584.2s12.67,21.211,122.65,28.295C1771.72,627.7,1730.53,627.526,1672.02,600.768Z"/>
    <g id="mouth-3" data-name="mouth">
      <path id="mouth-4" data-name="mouth" class="cls-1" d="M1576.25,504.275c-18.59,3.53,12.62,57.125,68.36,65.14,59.33,8.53,109.04-10.944,104.6-31.622C1745.03,518.334,1583.23,502.95,1576.25,504.275Z"/>
      <path id="tongue-2" data-name="tongue" class="cls-5" d="M1623.55,546.98c21.15,1.869,24.71,8.653,31.01,9.672s17.27-6.907,31.65-1.477a40.146,40.146,0,0,1,17.33,13.681,187.193,187.193,0,0,1-58.93.559,100.928,100.928,0,0,1-43.7-17.535C1605.47,548.867,1612.75,546.026,1623.55,546.98Z"/>
    </g>
    <g id="eye-3" data-name="eye">
      <path id="Color_Fill_22-2" data-name="Color Fill 22" class="cls-6" d="M1645.69,393.178c-15.97-1.767-28.38,20.994-31.11,43.163s4.73,27.94,17.49,29.954,24.49-10.883,28.77-29.551S1663.31,395.128,1645.69,393.178Z"/>
      <path id="Color_Fill_22_copy_3-2" data-name="Color Fill 22 copy 3" class="cls-1" d="M1635.06,424.929c-10.16-3.271-17.82,7.462-19.38,20.189-1.68,13.706,3.79,18.59,13.02,21.7,9.13,3.081,16.54-3.849,18.28-14.946C1648.61,441.454,1646.13,428.491,1635.06,424.929Z"/>
    </g>
    <g id="eye-4" data-name="eye">
      <path id="Color_Fill_22_copy-2" data-name="Color Fill 22 copy" class="cls-6" d="M1710.98,401.468c-15.59-2.165-27.06,18.752-29.17,41.024-2.27,23.984,6.19,30.486,20.34,32.695,14.01,2.188,25.19-12.15,27.6-31.7C1732.02,425.14,1727.96,403.825,1710.98,401.468Z"/>
      <path id="Color_Fill_22_copy_2-2" data-name="Color Fill 22 copy 2" class="cls-1" d="M1701.83,433.706c-10.17-3.271-17.83,7.462-19.39,20.189-1.68,13.706,3.8,18.59,13.02,21.7,9.14,3.081,16.55-3.849,18.29-14.946C1715.38,450.231,1712.9,437.268,1701.83,433.706Z"/>
    </g>
  </g>
</svg>
