<svg id="Heart_headband" data-name="Heart headband" xmlns="http://www.w3.org/2000/svg" width="3000" height="3000" viewBox="0 0 3000 3000">
  <defs>
    <style>
      .cls-1 {
        fill: #31323d;
      }

      .cls-1, .cls-2, .cls-3, .cls-4 {
        fill-rule: evenodd;
      }

      .cls-2 {
        fill: #f14bd3;
      }

      .cls-3 {
        fill: #a93fa2;
      }

      .cls-4 {
        fill: #f8f8e0;
      }
    </style>
  </defs>
  <path id="headband" class="cls-1" d="M1113.1,968.491c0.63,9.48,139.59-100.8,321.47-100.8s268.47,87.224,276.61,87.224,5.86-14.93-1.78-24.431c-6.02-7.478-107.23-98.367-274.19-98.367s-289.9,79.069-309.47,98.367C1110.24,945.775,1111.74,948.132,1113.1,968.491Z"/>
  <path id="left_antenna" data-name="left antenna" class="cls-1" d="M1130,536s168.21,147.018,113,355l25-3S1304.84,627.582,1130,536Z"/>
  <path id="right_antenna" data-name="right antenna" class="cls-1" d="M1693,520s-168.21,147.017-113,355l-25-3S1518.16,611.582,1693,520Z"/>
  <g id="Left_Heart" data-name="Left Heart">
    <path id="Color_Fill_1264" data-name="Color Fill 1264" class="cls-1" d="M1211.75,637.114s-135.12-3.252-178.46-89.327c-42.123-83.651,51.74-96.063,97.27-71.913,13.12-55.279,77.76-122.7,121.64-35.56C1285.82,507.091,1211.75,637.114,1211.75,637.114Z"/>
    <path id="Color_Fill_1264_copy" data-name="Color Fill 1264 copy" class="cls-2" d="M1207.69,627.757s-116.92-6.169-162.1-81.14c-46.137-76.568,47.64-76.94,92.64-53.8,16.74-55.689,74.81-127.252,106.21-43.821C1268.35,512.563,1207.69,627.757,1207.69,627.757Z"/>
    <path id="Color_Fill_1268" data-name="Color Fill 1268" class="cls-3" d="M1045.59,546.617a108.268,108.268,0,0,1-8.68-17.476c54.19,60.747,55.86,54.725,162.65,97.893C1172.29,624.049,1083.58,609.657,1045.59,546.617Z"/>
    <path id="Color_Fill_1267" data-name="Color Fill 1267" class="cls-4" d="M1229.34,471.325c-20.22-53.073-58.86-25.092-58.86-25.092C1243.44,357.256,1250.71,527.431,1229.34,471.325Zm-180.38,30.729c41.96-36.314,78.11,19.051,78.11,19.051C1086.95,495.149,1048.96,502.054,1048.96,502.054Z"/>
  </g>
  <g id="Right_Heart" data-name="Right Heart">
    <path id="Color_Fill_1264-2" data-name="Color Fill 1264" class="cls-1" d="M1620.61,605.643s-70.01-115.754-20.91-198.675c47.72-80.585,108.7-8.076,112.89,43.344,53.59-18.7,145.13-.467,95.42,83.484C1769.92,598.126,1620.61,605.643,1620.61,605.643Z"/>
    <path id="Color_Fill_1264_copy-2" data-name="Color Fill 1264 copy" class="cls-2" d="M1626.3,597.183s-57.76-101.975-18.99-180.464c39.6-80.161,90.4-1.236,95.15,49.19,55.88-15.863,147.38-5.4,94.07,66.012C1755.91,586.333,1626.3,597.183,1626.3,597.183Z"/>
    <path id="Color_Fill_1268-2" data-name="Color Fill 1268" class="cls-3" d="M1607.31,416.719a108.32,108.32,0,0,1,10.03-16.738c-8.15,23.414-27.46,70.421,5.19,189.952C1610.36,565.313,1574.71,482.718,1607.31,416.719Z"/>
    <path id="Color_Fill_1267-2" data-name="Color Fill 1267" class="cls-4" d="M1783.27,518.971c11.62-49.853-55.39-47.868-55.39-47.868C1853.36,457.107,1776.71,547.1,1783.27,518.971ZM1632.09,393.139c65.71-.648,48.27,85.539,48.27,85.539C1675.94,421.589,1632.09,393.139,1632.09,393.139Z"/>
  </g>
</svg>
