<svg id="Football_Helmet_Eagles_copy" data-name="Football Helmet (Eagles) copy" xmlns="http://www.w3.org/2000/svg" width="3000" height="3000" viewBox="0 0 3000 3000" shape-rendering="geometricPrecision">
  <defs>
    <style>
      .cls-1, .cls-9 {
        fill: #31323d;
      }

      .cls-1, .cls-10, .cls-2, .cls-3, .cls-4, .cls-5, .cls-6, .cls-7, .cls-8, .cls-9 {
        fill-rule: evenodd;
      }

      .cls-2 {
        fill: #004851;
      }

      .cls-3 {
        fill: #05373d;
      }

      .cls-4 {
        fill: #166670;
      }

      .cls-5 {
        fill: #b4bcc0;
      }

      .cls-6 {
        fill: #a4acb0;
      }

      .cls-7 {
        fill: #d1dadf;
      }

      .cls-8 {
        fill: #fff;
      }

      .cls-9 {
        stroke: #31323d;
        stroke-width: 7px;
      }

      .cls-10 {
        fill: #454d51;
      }
    </style>
  </defs>
  <path id="Color_Fill_781" data-name="Color Fill 781" class="cls-1" d="M1435.63,535c284.82,6.11,596.17,248,596.08,669s-233.3,371.59-233.3,371.59,18.58-330.14-16-499.79C1728.28,1003.32,1580.16,996,1426,996H1272s-176.18,9.45-187,97-31,476-31,476-230.269,11.03-230.269-379S1150.8,528.89,1435.63,535Z"/>
  <path id="Color_Fill_793" data-name="Color Fill 793" class="cls-2" d="M1977,1453c-12.8,30.75-52.87,115.42-148,107,0,0,36.79-397.01-32-503-44.32-68.3-185.57-83.867-280.42-86.307C1488.35,985.9,1448.6,981.8,1426,983c-21.81,1.157-60.96,4.691-89.24-12.314-6.31.079-12.81,0.2-19.46,0.365a1645.192,1645.192,0,0,0-214.4,37.409A63.64,63.64,0,0,0,1089,1020c-54.61,62.43-57,536-57,536s-114.421-12.13-162-151-32.945-329.19-12-393,153.96-450.7,568-462c340.24-9.29,524.19,286.129,575,487S1989.8,1422.25,1977,1453Z"/>
  <path id="Color_Fill_798" data-name="Color Fill 798" class="cls-3" d="M1893,1524c-31.07,13.31-51.28-203.73-54-261s13.81-333.266,34-149,101.85,208.49,117,260S1928.82,1508.65,1893,1524ZM1326,915c-11.95-2.6-225.11-2.471-302,233s-17.69,378.86-82,327-111.752-302.54-82-367c8.451-18.31,74.578,407.6,92,256s22.106-409.88,272-457c89.72-16.918,105-54,105-54S1337.95,917.6,1326,915Z"/>
  <path id="Color_Fill_794" data-name="Color Fill 794" class="cls-4" d="M1942,917c127.59,240.13,47.64,466.42-13,226-13.92-55.19-39.7-95.15-71.68-124.19-75.95-26.3-185.02-51.712-329.21-56.076a64.132,64.132,0,0,1-16.56,10.407L1465.44,827.8c13.79,0.787,26.04,2.292,36.61,5.1-19.6-96.177-119.56-202.258-79.05-240.9C1514.85,504.388,1814.41,676.872,1942,917Z"/>
  <g>
    <path id="Color_Fill_1061_copy" data-name="Color Fill 1061 copy" class="cls-1" d="M1266.77,737.646c21.8,29.842-9.75,60.064.8,104.586s36.69,98.7,36.69,98.7c2.3,9.406.78,20.324-3.62,31.984a1648.108,1648.108,0,0,0-197.74,35.542A63.64,63.64,0,0,0,1089,1020c-0.65.75-1.29,1.57-1.93,2.43-14.8-85.058-91.3-28.585-117.729-36.595-28.615-8.671,16.664-28.938-64.963-85.554,5.852-11.566,12.3-23.62,19.379-36.006,20.458,3.521,38.519,7.911,38.519,7.911s-13.463-6.233-33.1-17.24c37.336-63.265,91.064-133.887,166.164-191.255C1182.4,694.823,1257.99,725.623,1266.77,737.646Z"/>
    <path id="Color_Fill_1062_copy_2" data-name="Color Fill 1062 copy 2" class="cls-5" d="M1261.68,751.581c13.48,15.73-19.17,36.82-6.64,96.865,8.63,41.343,34.12,90.8,50.34,119.958a1612.146,1612.146,0,0,0-202.48,36.3q-2.085,1.32-4.01,2.7c-3.81-13.635-9.71-22.665-18.74-34.685-23.2-30.884-108.854-5.346-108.854-5.346,16.617-25.911-32.391-67.464-57.022-86.019q1.531-2.84,3.11-5.708l38.759,8.968s82.1,11.3,9-26.526c-9.372-4.85-18.8-10.315-28.113-16.153,34.408-55.774,81.447-116.044,144.407-167.281C1172.44,709.1,1255.21,744.024,1261.68,751.581Z"/>
    <path id="Color_Fill_1062_copy_3" data-name="Color Fill 1062 copy 3" class="cls-6" d="M1065.79,921.516l-55.08-12.745s43.58,29.016,63.67,58.248c-29.06-21.714-103.084.35-103.084,0.35,16.617-25.911-32.391-67.464-57.022-86.019q1.531-2.84,3.11-5.708l38.759,8.968s82.1,11.3,9-26.526c-9.372-4.85-18.8-10.315-28.113-16.153q9.385-15.213,20.038-30.789c29.059,25.255,74,61.222,117.719,83.848C1147.89,932.814,1065.79,921.516,1065.79,921.516Zm-22.48-190.7c21.67,14.556,30.7,50.477-16.7,24.514-5.58-3.053-11.72-6.5-18.2-10.208q10.875-12.351,22.69-24.458A111.841,111.841,0,0,0,1043.31,730.816Zm-65.9,78.078-13.808-7.1q8.194-11.542,17.131-23.122,3.888,3.483,7.768,6.717C1035.83,824.762,977.408,808.894,977.408,808.894Z"/>
    <g>
      <path id="Color_Fill_1061_copy_2" data-name="Color Fill 1061 copy 2" class="cls-1" d="M1933.33,867.017c-14.67,6.585-24.09,10.129-24.09,10.129s12.02-1.957,27.56-3.716q11.085,20.726,20.59,41.425c-72.84,46.617-32.61,68.983-60.58,75.176-28.26,6.257-108.86-63.646-121.87,42.8-45.24-37.136-125.86-52.744-198.24-58.88-11.23-20.682-16.46-40.149-12.06-54.958,0,0,28.66-52.032,41.29-95.646s-17.42-76.249,5.75-104.329c8.63-10.46,75.02-32.469,154.83-54.9C1837.77,721.154,1893.1,793.543,1933.33,867.017Z"/>
      <path id="Color_Fill_1062_copy_4" data-name="Color Fill 1062 copy 4" class="cls-5" d="M1926.04,854c-6.33,3.168-12.68,6.141-18.99,8.846-74.75,32.031,7.73,27.182,7.73,27.182l28.46-4.306q2.565,5,5.03,10.006c-26.67,18.457-66.34,51.316-52.54,75.719,0,0-84.29-32.2-108.91-3.187-13.74,16.2-21.14,34.481-25.24,54.851-53.6-34.705-141.32-47.2-213.65-51.16l-1.17-1.553s56.04-80.914,71.38-139.867-16.24-82.56-2.04-97.206c6.36-6.562,80.07-31.684,164.97-57.152C1841.28,727.683,1889.42,790.108,1926.04,854Z"/>
      <path id="Color_Fill_1062_copy_5" data-name="Color Fill 1062 copy 5" class="cls-5" d="M1926.04,854c-6.33,3.168-12.68,6.141-18.99,8.846-74.75,32.031,7.73,27.182,7.73,27.182l28.46-4.306q2.565,5,5.03,10.006c-26.67,18.457-66.34,51.316-52.54,75.719,0,0-84.29-32.2-108.91-3.187a107.7,107.7,0,0,0-17.51,28.841,1522.561,1522.561,0,0,0-219.08-31.834c12.42-18.645,54.87-84.613,67.91-134.736,15.35-58.953-16.24-82.56-2.04-97.206,6.36-6.562,80.07-31.684,164.97-57.152C1841.28,727.683,1889.42,790.108,1926.04,854Z"/>
      <path id="Color_Fill_1062_copy_6" data-name="Color Fill 1062 copy 6" class="cls-6" d="M1850.56,755.47c-48.54,22.2-37.83-12.944-15.51-25.776,0.22-.129.46-0.274,0.69-0.415q10.56,11.589,20.47,23.577C1854.28,753.756,1852.38,754.637,1850.56,755.47Zm46.57,57.316s-57.22,10.914-12.19-22.688q7.695,10.682,14.91,21.534Zm10.63,11q9.57,15.015,18.28,30.214c-6.33,3.168-12.68,6.141-18.99,8.846-74.75,32.031,7.73,27.182,7.73,27.182l28.46-4.306q2.565,5,5.03,10.006c-26.67,18.457-66.34,51.316-52.54,75.719,0,0-72.84-27.819-102.87-8.42,21.44-27.6,66.31-53.155,66.31-53.155l-55.58,8.409s-82.48,4.849-7.73-27.181C1836.08,873.86,1877.8,845.918,1907.76,823.785Z"/>
    </g>
  </g>
  <g id="Group_23_copy" data-name="Group 23 copy">
    <g>
      <path id="Color_Fill_1061_copy_2-2" data-name="Color Fill 1061 copy 2" class="cls-1" d="M1942,917c1.09,2.054,2.16,4.107,3.23,6.158-56,41-22.17,61.06-48.42,66.873-24.18,5.355-86.7-45.059-112.38,7.021C1726.4,982.284,1655.76,970,1572.1,964.779c-7.96-17.218-11.2-33.19-7.46-45.787,0,0,28.66-52.032,41.29-95.646s-17.42-76.249,5.75-104.329c7.32-8.879,56.28-26.083,119.73-44.8,69.09,52.6,135.82,121.695,185.54,199.858-4.9,2.016-7.71,3.073-7.71,3.073s3.36-.547,8.82-1.322Q1930.825,896.034,1942,917Z"/>
      <path id="Color_Fill_1062_copy_4-2" data-name="Color Fill 1062 copy 4" class="cls-5" d="M1895.73,971.446s-84.29-32.2-108.91-3.187a107.269,107.269,0,0,0-16.04,25.431c-60.26-14.429-133.26-26-219.47-30.049,13.65-20.626,54.15-84.372,66.83-133.111,15.35-58.953-16.24-82.56-2.04-97.206,5.49-5.668,61.24-25.184,131.04-46.809,59.86,48.011,117.07,108.132,161.93,175.443-0.68.3-1.35,0.6-2.02,0.887-74.75,32.031,7.73,27.182,7.73,27.182l11.01-1.666q4.965,8.279,9.68,16.681C1910.8,923.96,1884.03,950.744,1895.73,971.446Z"/>
      <path id="Color_Fill_1062_copy_5-2" data-name="Color Fill 1062 copy 5" class="cls-7" d="M1895.73,971.446s-84.29-32.2-108.91-3.187a106.919,106.919,0,0,0-16.03,25.433c-60.26-14.43-133.27-26-219.48-30.051,13.62-20.579,54.14-84.338,66.83-133.111,15.35-58.953-16.24-82.56-2.04-97.206,5.49-5.668,61.24-25.184,131.04-46.809,59.86,48.011,117.07,108.132,161.93,175.443-0.68.3-1.35,0.6-2.02,0.887-74.75,32.031,7.73,27.182,7.73,27.182l11.01-1.666q4.965,8.279,9.68,16.681C1910.8,923.96,1884.03,950.744,1895.73,971.446Z"/>
      <path id="Color_Fill_1062_copy_6-2" data-name="Color Fill 1062 copy 6" class="cls-5" d="M1868.26,806.683q2.97,3.662,5.9,7.361C1869.4,813.238,1866.34,811.163,1868.26,806.683Zm-51.06-56.927q6.165,6.245,12.22,12.647C1817.19,764.013,1814.41,757.65,1817.2,749.756Zm78.53,221.69s-72.84-27.819-102.87-8.42c21.44-27.6,66.31-53.155,66.31-53.155l-55.58,8.409s-82.48,4.849-7.73-27.181c33.13-14.2,67.26-35.653,95.01-55.147q9.39,12.808,18.2,26.006c-0.68.3-1.35,0.6-2.02,0.887-74.75,32.031,7.73,27.182,7.73,27.182l11.01-1.666q4.965,8.279,9.68,16.681C1910.8,923.96,1884.03,950.744,1895.73,971.446Z"/>
    </g>
  </g>
  <path id="Color_Fill_795" data-name="Color Fill 795" class="cls-8" d="M1662,650c61.87,20.892,72.9,62.148,42,65S1553.19,613.259,1662,650Z"/>
  <path id="Color_Fill_786" data-name="Color Fill 786" class="cls-9" d="M1996.11,1300.31c10.69,4.69,16.96,11.64.61,20.89,0.55,20.22.84,35.25,0.74,41.17-0.05,2.51-.04,4.94-0.01,7.29,7.23,3.59,7.65,11.66-.16,20.28-1.12,11.11-5.67,17.32-22.29,16.06-0.81-.06-1.58-0.15-2.32-0.25-2.71,1.13-5.59,2.22-8.68,3.25-15.75,5.27-51.9,14.41-99,24.8-0.64,60.33-1.32,105.97-2.11,116.75-2.7,37.24.35,60.77-22.56,57.73s-18.67-22.43-16.3-61.1c0.64-10.48,1.05-50.76,1.36-104.9-117.92,24.52-279.02,51.83-375.39,51.72-102.19-.11-280.68-15.44-410.3-37.71-2.23,47.41-3.7,82.08-3.7,91.71,0,38.75,3.05,58.37-20,60s-18.569-21.67-19-59c-0.113-9.78,1.346-48.08,3.56-99.96-43.253-8.67-78.167-18.15-98.56-28.04-1.919-.93-3.721-1.83-5.467-2.72-2.954.1-7.271-.57-13.533-1.28-25.017-2.84-23-11.04-23-43s16-264.03,16-290q0-3.21.1-6.21a14.058,14.058,0,0,1-2.1.21c-10.791,0-39.591-10.13,9-33,48.091-22.63,93.73-42.88,141-60.326,4.87-13.372,13.11-19.968,24-20.674,9.26-.6,12.76.119,13.82,7.458,70.92-23.358,147.66-40.483,243.05-50.09A126.3,126.3,0,0,1,1303,899c0.01-61.791,55.65-71.956,125.32-72,79.89-.051,124.54,5.84,120.68,86-0.05,1.09-.13,2.156-0.21,3.212,109.07,9.183,205.95,35.638,280.27,62.657,0.98-12.9,3.83-16.856,14.95-15.45,12.91,1.632,21.55,11.379,24.59,30.67,46.78,19.031,81.02,36.721,98.95,46.981a41.675,41.675,0,0,1,4.53-.07c8.04,0.27,10.99,3.76,12.35,11.04,21.13,17.44,16.28,37.31,5.94,29.96-0.67-.48-1.94-1.37-3.78-2.6,0.12,1.49.25,3.02,0.41,4.6C1989.11,1105.25,1993.78,1224.1,1996.11,1300.31ZM902,1377c0,1.65.009,3.23,0.023,4.75,10.544,2.61,47.954,11.69,100.477,22.66,0.48-11.03.99-22.41,1.51-34.03-44.6-9-80.744-18.61-100.941-28.31C902.4,1357.45,902,1369.65,902,1377Zm16.278-312.84A92.63,92.63,0,0,0,917,1079c0,17.96-7.12,131.25-11.55,214.71,9.56,2.76,46.594,13.2,100.86,25.49,5.39-119.25,11.33-247.77,12.49-287.99C976.718,1043.74,942.839,1055.55,918.278,1064.16ZM1041.8,1412.38c117.94,23.21,285.31,49.65,408.2,42.62,126.38-7.23,270.62-29.42,375.58-49.72,0.06-13.03.11-26.56,0.17-40.42-134.84,26.4-313.99,54.8-375.75,56.14-60.97,1.32-261.74-17.61-406.51-43.18C1042.91,1389.66,1042.34,1401.22,1041.8,1412.38Zm486.3-449.641c-27.78,24.474-76.21,18.888-102.1,20.261-22.39,1.187-63.05,4.89-91.47-13.7a1649.519,1649.519,0,0,0-273.62,49.943c-1.09,34.46-8.49,178.94-14.94,308.58,107.31,22.36,259.92,46.33,404.03,41.18,138.5-4.95,276.89-26.24,375.89-45.03,0.45-133.69.78-282.18,1.98-309.44,0.08-1.82.14-3.56,0.2-5.26C1754.26,986.626,1654.71,966.571,1528.1,962.739ZM1952,1082c0.09-9.24.1-16.66,0.61-22.52a670.752,670.752,0,0,0-83.18-36.38c-1.24,23.85-2.26,163.17-3.35,292.97,41.06-8.36,72.07-15.56,88.84-19.6C1953.66,1219.32,1951.79,1103.77,1952,1082Zm4,282.66c-0.05-4.42-.21-14.58-0.44-28.55-21.82,5.97-53.17,13.12-89.83,20.71-0.12,13.82-.24,27.37-0.37,40.48,40.75-8.5,72.59-16.21,90.75-21.73C1956.06,1372.23,1956.05,1368.61,1956,1364.66Z"/>
  <path id="Color_Fill_790" data-name="Color Fill 790" class="cls-9" d="M1841,1603c-35.76,8-198.96,87.45-391,85-235.2-3.01-380.92-57.88-451-89-49.36-21.92,5-51,5-51s178.79,75.86,342.11,98.87C1326.32,1585.11,1280,1395,1280,1395s25.06-11.96,33-2c6.87,8.63,60.52,205.66,70.72,258.21A502.252,502.252,0,0,0,1450,1653c4.54-.2,9.08-0.46,13.6-0.74L1555.26,1385a38.88,38.88,0,0,1,28.74,4c12.58,7.29-64.44,207.5-85.03,260.32,169.38-17.55,317.48-81.49,343.03-90.32C1869.99,1549.33,1876.76,1595,1841,1603Z"/>
  <path id="Color_Fill_797" data-name="Color Fill 797" class="cls-10" d="M1418.59,886.292c6.57-.251,18.53-1.259,20.91,2.871h-1.45c-5.66,4.479-19.11,1.493-25.22,0v-1.436C1414.77,887.569,1417.33,887.2,1418.59,886.292Zm-5.76,4.307a59.574,59.574,0,0,0,26.67,0v0.718c-1.84,2.885-2.19,16.165-2.17,20.818l-2.16.718c-4.28,3.162-14.89,1.07-19.46,0-0.66-1.914-.76-4.976-0.72-7.9Zm42.52,27.279c-0.21,5.4-3.77,11.422-2.88,15.793,0.58,2.846,4.05,6.852,5.04,10.05,3.29,10.545,2.61,26.038,6.49,35.587-15.85.478-31.71-.043-47.57,0.436-4.39.937-13.94,0.9-19.46-.282-3.71-.8-8.51-0.368-12.97-0.436V977.59c2.64,0,5.29-2,7.93-2,1.68-10.289,3.36-21.58,5.04-31.869,0.92-3.165,4.36-7.528,5.05-10.05q-1.8-7.536-3.61-15.075a11.41,11.41,0,0,1,3.61-.718c2.43,2.229,7.45,3.973,11.53,4.307,0.82-1.109.78-.6,1.44-2.153-2.91-.563-4.11-0.942-5.04-3.59,1.84-1.062,2.26-1.721,5.04-2.153,1.47,4.077,15.74,5.743,20.9,2.871,1.78-.991.84-2.052,3.61-2.871,1.36,1.458,2.07,1.341,2.88,3.589h-0.72a13.5,13.5,0,0,1-3.61,2.154,2.629,2.629,0,0,0,1.45.717C1443.3,924.045,1449.98,918.516,1455.35,917.878Zm-46.12,10.768c-2.42,2.6-3.63,3.237-3.61,8.615a2.549,2.549,0,0,1,.72,1.435c9.48,6.784,16.66-2.1,8.65-10.05h-5.76Zm29.54,0c-1.36,1.458-2.07,1.341-2.88,3.59-3.17,4.23,2.35,11.381,7.93,9.332,3.16-1.161,4.63-4.521,4.32-9.332-1.58-1.195-1.46-2.036-3.6-2.872C1443.32,928.544,1441.01,928.6,1438.77,928.646Zm-28.82,2.872h4.32c0.99,1.825,1.38,2.515,1.44,5.743a8.319,8.319,0,0,1-5.04,1.435,2.629,2.629,0,0,0-1.44-.717C1408.23,935.192,1408.77,933.657,1409.95,931.518Zm29.55,0h4.32c0.99,1.825,1.38,2.515,1.44,5.743l-2.16.718C1438.17,941.321,1437.76,934.342,1439.5,931.518Zm-17.3,5.025c0.44,4.148,2.08,3.5,2.88,7.178,0.89,0.752-.84,1.806-1.44,3.59h1.44a6.458,6.458,0,0,1,2.16-2.154c0.91,1.874.77,1.514,2.89,2.154v-1.436c-1.67-1.159-1.7-1.049-2.17-3.589a9.162,9.162,0,0,0,4.33-5.025h-0.72v-0.718h-9.37Zm-5.77,15.793a12.679,12.679,0,0,1-2.16,2.871c-0.4,3.951-1.48,8.534.72,11.486,0.81,2.415.82,2.379,3.6,2.872,6.95-7.354,9.37-1.524,18.02,0l0.72-2.154c2.79-2.958,1.36-11.192,0-14.357a11.277,11.277,0,0,0-3.6-.718c-3.26,3.3-6.2,2.378-10.09,4.307-1.06-2.22-2.91-2.514-4.32-4.307h-2.89Z"/>
  <path id="Color_Fill_798-2" data-name="Color Fill 798" class="cls-8" d="M1476,853c-3,7,29,18,37,39s27-28-1-39S1479,846,1476,853Z"/>
</svg>
