<svg id="Football_Helmet_Pats_" data-name="Football Helmet (Pats)" xmlns="http://www.w3.org/2000/svg" width="3000" height="3000" viewBox="0 0 3000 3000" shape-rendering="geometricPrecision">
  <defs>
    <style>
      .cls-1 {
        fill: #31323d;
      }

      .cls-1, .cls-2, .cls-3, .cls-4, .cls-5, .cls-6, .cls-7, .cls-8 {
        fill-rule: evenodd;
      }

      .cls-2 {
        fill: #929ca0;
      }

      .cls-3 {
        fill: #19385e;
      }

      .cls-4 {
        fill: #7d8588;
      }

      .cls-5 {
        fill: #afb7ba;
      }

      .cls-6 {
        fill: #285287;
      }

      .cls-7 {
        fill: #fff;
      }

      .cls-8 {
        fill: #ca2641;
        stroke: #31323d;
        stroke-width: 7px;
      }
    </style>
  </defs>
  <path id="Color_Fill_781" data-name="Color Fill 781" class="cls-1" d="M1435.63,534c284.82,6.11,596.17,248,596.08,669S1814,1571,1814,1571s-10.1-369.73-33.47-496.63C1721.67,985.32,1580.16,987,1426,987H1272s-181.08,17.28-191.9,90.63C1067.23,1164.91,1042,1568,1042,1568s-218.269,11.03-218.269-379S1150.8,527.89,1435.63,534Z"/>
  <path id="Color_Fill_793" data-name="Color Fill 793" class="cls-2" d="M1977,1453c-12.8,30.75-52.87,115.42-148,107,0,0,36.79-397.01-32-503-44.32-68.3-188.04-86.338-282.89-88.777C1485.88,983.428,1448.6,981.8,1426,983c-21.81,1.157-58.49,2.221-86.77-14.784-6.31.079-17.75,0.2-24.4,0.364-80.86,8.613-148.04,22.475-209.46,37.41A89.65,89.65,0,0,0,1089,1020c-54.61,62.43-57,536-57,536s-114.421-12.13-162-151-32.945-329.19-12-393,153.96-450.7,568-462c340.24-9.29,524.19,286.129,575,487S1989.8,1422.25,1977,1453Zm-664-60c7.94,9.96,78.24,271.16,72,271s-22.48,4.26-31,2-74-271-74-271S1305.06,1383.04,1313,1393Zm271-4c14.5,8.4-90,273-90,273h-33.74l95-277A38.88,38.88,0,0,1,1584,1389Z"/>
  <path id="Color_Fill_1026" data-name="Color Fill 1026" class="cls-3" d="M1730,709c-17.26,11.406,10.27-12.748,42.47-40.045h0q17.385,14.3,33.48,29.761c0.01,0,.01.008,0.02,0.012q16.1,15.426,30.91,31.813h0C1802.98,714.194,1752.22,694.315,1730,709Z"/>
  <path id="Color_Fill_1026_copy_2" data-name="Color Fill 1026 copy 2" class="cls-3" d="M1128,709c17.25,11.406-10.27-12.748-42.47-40.045a609.532,609.532,0,0,0-64.41,61.586C1055.02,714.194,1105.78,694.315,1128,709Z"/>
  <path id="Color_Fill_798" data-name="Color Fill 798" class="cls-4" d="M1893,1524c-31.07,13.31-51.28-203.73-54-261s13.81-333.266,34-149,101.85,208.49,117,260S1928.82,1508.65,1893,1524ZM1326,915c-11.95-2.6-225.11-2.471-302,233s-17.69,378.86-82,327-111.752-302.54-82-367c8.451-18.31,74.578,407.6,92,256s22.106-409.88,272-457c89.72-16.918,105-54,105-54S1337.95,917.6,1326,915Z"/>
  <path id="Color_Fill_794" data-name="Color Fill 794" class="cls-5" d="M1929,1143c-13.92-55.19-39.7-95.15-71.68-124.19-75.95-26.3-185.02-51.712-329.21-56.076C1500.32,987.213,1451.89,981.626,1426,983c-22.39,1.187-63.05,4.89-91.47-13.7C1069.31,994.659,893.99,1078,874,1078c-10.791,0-39.591-10.13,9-33,131.21-61.749,244.18-105.737,421.87-123.63A126.324,126.324,0,0,1,1303,899c0.01-61.791,55.65-71.956,125.32-72,29.66-.019,54.46.785,73.73,5.9-19.6-96.177-119.56-202.258-79.05-240.9,91.85-87.612,391.41,84.872,519,325S1989.64,1383.42,1929,1143Z"/>
  <path id="Color_Fill_1026_copy" data-name="Color Fill 1026 copy" class="cls-6" d="M1730,709c-12.9,8.525-.77-2.819,19.62-20.491q10.62,8.583,21.09,17.665C1754.28,702.772,1739.52,702.708,1730,709Z"/>
  <path id="Color_Fill_796" data-name="Color Fill 796" class="cls-3" d="M1514.98,970.652q-6.96-.168-13.56-0.249c-35.11-1.257-73.18-.5-103.42.638-14.86-.357-34.72-0.627-57.29-0.4-10.71-130.9,20.26-371.454,26.29-416.326,19.01-2.286,38.66-3.761,59-4.316q24.255-.662,47.44.7C1492.35,614.665,1514.2,958.381,1514.98,970.652Z"/>
  <path id="Color_Fill_794_copy" data-name="Color Fill 794 copy" class="cls-6" d="M1514.98,970.652q-6.96-.168-13.56-0.249c-35.11-1.257-73.18-.5-103.42.638-14.86-.357-34.72-0.627-57.29-0.4-3.04-37.172-2.72-83.19-.56-131.056,22.57-10.046,53.64-12.564,88.17-12.586,29.66-.019,54.46.785,73.73,5.9-19.6-96.177-119.56-202.258-79.05-240.9,13.91-13.268,32.59-20.561,54.71-22.567C1495.49,664.092,1514.26,959.3,1514.98,970.652Z"/>
  <path id="Color_Fill_795" data-name="Color Fill 795" class="cls-7" d="M1662,650c61.87,20.892,72.9,62.148,42,65S1553.19,613.259,1662,650Z"/>
  <path id="Color_Fill_786" data-name="Color Fill 786" class="cls-8" d="M1996.11,1301.31c10.69,4.69,16.96,11.64.61,20.89,0.55,20.22.84,35.25,0.74,41.17-0.05,2.51-.04,4.94-0.01,7.29,7.23,3.59,7.65,11.66-.16,20.28-1.12,11.11-5.67,17.32-22.29,16.06-0.81-.06-1.58-0.15-2.32-0.25-2.71,1.13-5.59,2.22-8.68,3.25-15.75,5.27-51.9,14.41-99,24.8-0.64,60.33-1.32,105.97-2.11,116.75-2.7,37.24.35,60.77-22.56,57.73s-18.67-22.43-16.3-61.1c0.64-10.48,1.05-50.76,1.36-104.9-117.92,24.52-279.02,51.83-375.39,51.72-102.19-.11-280.68-15.44-410.3-37.71-2.23,47.41-3.7,82.08-3.7,91.71,0,38.75,3.05,58.37-20,60s-18.569-21.67-19-59c-0.113-9.78,1.346-48.08,3.56-99.96-43.253-8.67-78.167-18.15-98.56-28.04-1.919-.93-3.721-1.83-5.467-2.72-2.954.1-7.271-.57-13.533-1.28-25.017-2.84-23-11.04-23-43s16-264.03,16-290q0-3.21.1-6.21a14.058,14.058,0,0,1-2.1.21c-10.791,0-39.591-10.13,9-33,48.091-22.63,93.73-42.88,141-60.326,4.87-13.372,13.11-19.968,24-20.674,9.26-.6,12.76.119,13.82,7.458,70.92-23.358,147.66-40.483,243.05-50.09A126.3,126.3,0,0,1,1303,900c0.01-61.791,55.65-71.956,125.32-72,79.89-.051,124.54,5.84,120.68,86-0.05,1.09-.13,2.156-0.21,3.212,109.07,9.183,205.95,35.638,280.27,62.657,0.98-12.9,3.83-16.856,14.95-15.45,12.91,1.632,21.55,11.379,24.59,30.67,46.78,19.031,81.02,36.721,98.95,46.981a41.675,41.675,0,0,1,4.53-.07c8.04,0.27,10.99,3.76,12.35,11.04,21.13,17.44,16.28,37.31,5.94,29.96-0.67-.48-1.94-1.37-3.78-2.6,0.12,1.49.25,3.02,0.41,4.6C1989.11,1106.25,1993.78,1225.1,1996.11,1301.31ZM902,1378c0,1.65.009,3.23,0.023,4.75,10.544,2.61,47.954,11.69,100.477,22.66,0.48-11.03.99-22.41,1.51-34.03-44.6-9-80.744-18.61-100.941-28.31C902.4,1358.45,902,1370.65,902,1378Zm16.278-312.84A92.63,92.63,0,0,0,917,1080c0,17.96-7.12,131.25-11.55,214.71,9.56,2.76,46.594,13.2,100.86,25.49,5.39-119.25,11.33-247.77,12.49-287.99C976.718,1044.74,942.839,1056.55,918.278,1065.16ZM1041.8,1413.38c117.94,23.21,285.31,49.65,408.2,42.62,126.38-7.23,270.62-29.42,375.58-49.72,0.06-13.03.11-26.56,0.17-40.42-134.84,26.4-313.99,54.8-375.75,56.14-60.97,1.32-261.74-17.61-406.51-43.18C1042.91,1390.66,1042.34,1402.22,1041.8,1413.38Zm486.3-449.641c-27.78,24.474-76.21,18.888-102.1,20.261-22.39,1.187-63.05,4.89-91.47-13.7a1649.519,1649.519,0,0,0-273.62,49.943c-1.09,34.46-8.49,178.94-14.94,308.58,107.31,22.36,259.92,46.33,404.03,41.18,138.5-4.95,276.89-26.24,375.89-45.03,0.45-133.69.78-282.18,1.98-309.44,0.08-1.82.14-3.56,0.2-5.26C1754.26,987.626,1654.71,967.571,1528.1,963.739ZM1952,1083c0.09-9.24.1-16.66,0.61-22.52a670.752,670.752,0,0,0-83.18-36.38c-1.24,23.85-2.26,163.17-3.35,292.97,41.06-8.36,72.07-15.56,88.84-19.6C1953.66,1220.32,1951.79,1104.77,1952,1083Zm4,282.66c-0.05-4.42-.21-14.58-0.44-28.55-21.82,5.97-53.17,13.12-89.83,20.71-0.12,13.82-.24,27.37-0.37,40.48,40.75-8.5,72.59-16.21,90.75-21.73C1956.06,1373.23,1956.05,1369.61,1956,1365.66Z"/>
  <path id="Color_Fill_790" data-name="Color Fill 790" class="cls-8" d="M1841,1603c-35.76,8-198.96,87.45-391,85-235.2-3.01-380.92-57.88-451-89-49.36-21.92,5-51,5-51s178.79,75.86,342.11,98.87C1326.32,1585.11,1280,1395,1280,1395s25.06-11.96,33-2c6.87,8.63,60.52,205.66,70.72,258.21A502.252,502.252,0,0,0,1450,1653c4.54-.2,9.08-0.46,13.6-0.74L1555.26,1385a38.88,38.88,0,0,1,28.74,4c12.58,7.29-64.44,207.5-85.03,260.32,169.38-17.55,317.48-81.49,343.03-90.32C1869.99,1549.33,1876.76,1595,1841,1603Z"/>
  <path id="Color_Fill_797" data-name="Color Fill 797" class="cls-1" d="M1418.59,886.292c6.57-.251,18.53-1.259,20.91,2.871h-1.45c-5.66,4.479-19.11,1.493-25.22,0v-1.436C1414.77,887.569,1417.33,887.2,1418.59,886.292Zm-5.76,4.307a59.574,59.574,0,0,0,26.67,0v0.718c-1.84,2.885-2.19,16.165-2.17,20.818l-2.16.718c-4.28,3.162-14.89,1.07-19.46,0-0.66-1.914-.76-4.976-0.72-7.9Zm42.52,27.279c-0.21,5.4-3.77,11.422-2.88,15.793,0.58,2.846,4.05,6.852,5.04,10.05,3.29,10.545,2.61,26.038,6.49,35.587-15.85.478-31.71-.043-47.57,0.436-4.39.937-13.94,0.9-19.46-.282-3.71-.8-8.51-0.368-12.97-0.436V977.59c2.64,0,5.29-2,7.93-2,1.68-10.289,3.36-21.58,5.04-31.869,0.92-3.165,4.36-7.528,5.05-10.05q-1.8-7.536-3.61-15.075a11.41,11.41,0,0,1,3.61-.718c2.43,2.229,7.45,3.973,11.53,4.307,0.82-1.109.78-.6,1.44-2.153-2.91-.563-4.11-0.942-5.04-3.59,1.84-1.062,2.26-1.721,5.04-2.153,1.47,4.077,15.74,5.743,20.9,2.871,1.78-.991.84-2.052,3.61-2.871,1.36,1.458,2.07,1.341,2.88,3.589h-0.72a13.5,13.5,0,0,1-3.61,2.154,2.629,2.629,0,0,0,1.45.717C1443.3,924.045,1449.98,918.516,1455.35,917.878Zm-46.12,10.768c-2.42,2.6-3.63,3.237-3.61,8.615a2.549,2.549,0,0,1,.72,1.435c9.48,6.784,16.66-2.1,8.65-10.05h-5.76Zm29.54,0c-1.36,1.458-2.07,1.341-2.88,3.59-3.17,4.23,2.35,11.381,7.93,9.332,3.16-1.161,4.63-4.521,4.32-9.332-1.58-1.195-1.46-2.036-3.6-2.872C1443.32,928.544,1441.01,928.6,1438.77,928.646Zm-28.82,2.872h4.32c0.99,1.825,1.38,2.515,1.44,5.743a8.319,8.319,0,0,1-5.04,1.435,2.629,2.629,0,0,0-1.44-.717C1408.23,935.192,1408.77,933.657,1409.95,931.518Zm29.55,0h4.32c0.99,1.825,1.38,2.515,1.44,5.743l-2.16.718C1438.17,941.321,1437.76,934.342,1439.5,931.518Zm-17.3,5.025c0.44,4.148,2.08,3.5,2.88,7.178,0.89,0.752-.84,1.806-1.44,3.59h1.44a6.458,6.458,0,0,1,2.16-2.154c0.91,1.874.77,1.514,2.89,2.154v-1.436c-1.67-1.159-1.7-1.049-2.17-3.589a9.162,9.162,0,0,0,4.33-5.025h-0.72v-0.718h-9.37Zm-5.77,15.793a12.679,12.679,0,0,1-2.16,2.871c-0.4,3.951-1.48,8.534.72,11.486,0.81,2.415.82,2.379,3.6,2.872,6.95-7.354,9.37-1.524,18.02,0l0.72-2.154c2.79-2.958,1.36-11.192,0-14.357a11.277,11.277,0,0,0-3.6-.718c-3.26,3.3-6.2,2.378-10.09,4.307-1.06-2.22-2.91-2.514-4.32-4.307h-2.89Z"/>
  <path id="Color_Fill_798-2" data-name="Color Fill 798" class="cls-7" d="M1476,853c-3,7,29,18,37,39s27-28-1-39S1479,846,1476,853Z"/>
</svg>
