<svg id="Bug_Headband_Fuzzy_" data-name="Bug Headband (Fuzzy)" xmlns="http://www.w3.org/2000/svg" width="3000" height="3000" viewBox="0 0 3000 3000" shape-rendering="geometricPrecision">
  <defs>
    <style>
      .cls-1 {
        fill: #31323d;
      }

      .cls-1, .cls-2, .cls-3 {
        fill-rule: evenodd;
      }

      .cls-2 {
        fill: #ea5f5a;
      }

      .cls-3 {
        fill: #bf4844;
      }
    </style>
  </defs>
  <path id="headband_copy" data-name="headband copy" class="cls-1" d="M1717.39,961.513c-0.41,9.492-141.88-97.545-323.72-93.342s-266.38,93.4-274.52,93.592-6.2-14.791,1.22-24.466c5.84-7.615,104.93-100.819,271.84-104.676s291.66,72.349,311.66,91.19C1719.72,938.737,1718.28,941.128,1717.39,961.513Z"/>
  <path id="left_antennae_base" data-name="left antennae base" class="cls-1" d="M1269.05,869.866s-48.26-32.15-72.75-34.621c0,0-6.91-13.8-4.94-19.191,0,0,27.06-25.594,38.97-28.9,0,0-50.25,8.637-59.99-1.607,0,0-7.42-28.333-1.92-30,0,0,30.75-27.31,41.7-28.832,0,0-54.73,5.8-68.17-1.826,0,0-8.29-30.171,1.02-38.09,0,0,4.77-8.04,30.65-23.682,0,0-50.09,2.288-59.99-1.607,0,0-4.3-13.513-2.19-22.052a9.389,9.389,0,0,1,2.92-5.155c7.44-6.154,22.38-20.275,44.58-34.2,0,0-41.03-1.818-55.73-5.57a16.982,16.982,0,0,1-4.12-1.478c-8.05-4.754-4.03-19.167.59-21.766,0,0,120.05.494,128.3-2.008,0,0,6,13.774-.65,24.487,0,0-41.41,17.949-69.27,38.984,0,0,22.85-3.926,90.21-5.752,0,0,10.52,14.8,2,27.28,0,0-51.68,27.658-72.07,41.632,0,0,66.6-7.291,84.61-.456,0,0,7.67,19.264,2,27.28,0,0-31.37,16.4-47.38,36.848,0,0,63.65.8,68.1,4.547,0,0,8.6,18.381,2,27.28,0,0-42.38,19.738-52.54,25.819,0,0,49.65,14.036,64.64,31.681C1299.63,848.9,1305.38,871.747,1269.05,869.866Z"/>
  <path id="left_antennae_base_copy" data-name="left antennae base copy" class="cls-1" d="M1567.88,871.382s52.34-38.9,76.48-42.842c0,0,7.33-14.769,5.75-20.334,0,0-24.9-26.446-36.68-29.884,0,0,48.36,8.519,57.88-2.144,0,0,8.21-28.921,3.31-30.724,0,0-27.25-29.265-37.75-31.371,0,0,50.65,8.315,62.86,1.2,0,0,8.65-29.579,1.02-38.118,0,0-3.75-8.417-26.07-26.59,0,0,43.73,6.991,52.17,4.071,0,0,4.2-12.729,2.88-21.24a10.558,10.558,0,0,0-2.17-5.336c-5.88-6.865-17.81-22.641-36.45-39.673,0,0,35.26,4.127,47.48,2.553a10.993,10.993,0,0,0,3.39-.845c6.67-3.413,4.14-17.779.57-20.987,0,0-106.59-20.263-114.61-24.524,0,0-6.77,13.6-.71,26.26,0,0,38.82,25.416,63,50.584,0,0-20.45-6.862-86.11-18.1,0,0-11.85,14.719-3.64,29.5,0,0,49.93,34.9,68.29,51,0,0-64.58-12.963-83.88-6.987,0,0-9.39,20.849-3.74,30.116,0,0,31.83,19.425,46.75,41.813,0,0-66.74-.254-71.92,3.916,0,0-10.83,20.9-3.89,30.994,0,0,44.74,21.047,54.91,27.325,0,0-54.08,17.913-72.24,39.122C1534.76,850.133,1526.65,877.1,1567.88,871.382Z"/>
  <path id="left_ear_base_fuzzy" data-name="left ear base fuzzy" class="cls-1" d="M1245.73,518.019c-22.62,20.778-35.31,55.655-75.23,57.883-1.22,5.407-1.06,5.358-2.94,8.089-0.03.907-.05,1.814-0.08,2.721l-43.7,1.552c-11.56,4.031-23.2,16.567-38.68,18.022-16.5,1.55-29.04-15.9-40.4-20.141-14.33-5.345-26.13,3.828-38.24,1.7-4.32-7.017-15.726-13.539-18.582-19.556q-1.037-12.278-2.071-24.559l-18.651-16.836c-7.832-16.3,6.358-27.912,3.82-40.737L960.361,474.98c-7.483-18.255,11.26-36.372,17.673-48.534,17.352-32.913,14.558-73.992,64.686-71.779,2.8-1.69,2.85-1.506,8.25-2.5q0.15-5.442.29-10.883c8.14-4.86,8.13-7.053,22.04-7.578,4.64,1.859,9.93-4.338,19.16-2.209,2.1,0.483,10.67,7.849,13.41,8.527q19.17-2.208,38.32-4.419c2.07,4.242,4.89,12.367,7.75,16.544,6.1-8.088,12.34-11.4,24.9-12.946,10.67,11.581,41.53,40.176,47.7,53.008,4.9,10.17.06,18.591,4.73,27.353q5.34,4.227,10.69,8.454c5.11,13.1-4.03,33.279-6.62,43.385C1241.01,486.945,1243.24,498.144,1245.73,518.019Z"/>
  <path id="left_ear_color_fuzzy" data-name="left ear color fuzzy" class="cls-2" d="M1089.82,345.8c-0.12,6.717-2.28,9.209-2.68,15.175l0.76,0.02c0-.254.01-0.508,0.02-0.762,1.02-.487,1.03-1.144,1.55-1.483,2.31-1.492,3.8-1.366,4.66-4.449,2.39-.461,3.28-1.222,5.36-2.143,0.01-.254.02-0.508,0.02-0.762l6.81,0.182c0.46,1.791.91,3.582,1.37,5.373,0.5,0.268,1,.535,1.49.8-0.03,1.269-.06,2.539-0.1,3.809l0.76,0.02c1.51-2.37,4.43-3.137,6.93-4.388l1.51,0.04c0.79-1,1.57-1.991,2.35-2.986,0.52-.241,1.03-0.481,1.54-0.722,0.01-.253.01-0.508,0.02-0.761l1.51,0.04c0.01-.254.02-0.508,0.02-0.762l1.52,0.041c0.52-.748,1.05-1.5,1.57-2.245l7.59-.559a6.11,6.11,0,0,1-1.6,3.007l-0.76-.021c-0.27,1.009-.55,2.018-0.83,3.027-0.51.241-1.03,0.481-1.54,0.721l-0.81,2.266-0.76-.021c-1.09,1.321-1.23,1.486-1.62,3.769l6.06,0.162c0-.254.01-0.508,0.02-0.762l0.75,0.02c0,0.254-.01.508-0.02,0.762l3.79,0.1c-0.01.254-.02,0.508-0.02,0.761l1.51,0.041c-0.01.254-.02,0.508-0.02,0.762l3.78,0.1c-0.01.254-.01,0.508-0.02,0.762l1.51,0.04c0,0.254-.01.508-0.02,0.762,3.14,1.8,4.33.44,4.4,5.454-2.1.5-1.7,0.168-2.33,2.225l-0.76-.02c-0.92,1.542,1.7,6.717,2.09,6.917l2.27,0.061c0.82-.971,1.57-1.094,2.33-2.225,1.43-1.572.65-5.05,1.7-6.816q1.92-1.473,3.86-2.946c0.01-.507.03-1.015,0.04-1.523l3.09-2.205c0.01-.507.03-1.015,0.04-1.523l1.53-.721c0.02-.508.03-1.016,0.04-1.524l0.76,0.02c0.27-.755.55-1.51,0.82-2.265,2.1-.5,1.7-0.167,2.33-2.224,3.43-.8,4.18-3.2,8.42-3.586-0.64,2.685-2.06,3.375-3.17,5.251-0.27,1.009-.55,2.018-0.83,3.027-1.54,2.188-2.42.246-3.15,4.49l18.2-1.037c-0.01.253-.02,0.507-0.02,0.761l4.49,1.646-0.06,2.285c-1.89,1.11-.49.915-1.57,2.245l-1.53.721-0.03.762c-3.31,2.316-7.96,2.111-9.26,6.613l0.76,0.02c1.16,1.185,4.63,2.42,7.52,1.726,0.01-.254.02-0.507,0.02-0.761l4.54,0.121c0,0.254-.01.508-0.02,0.762l1.52,0.041c-0.01.253-.02,0.507-0.02,0.761l2.27,0.061c1.39,0.607,3.67,1.739,5.23,2.427,0.23,0.769.46,1.538,0.7,2.306-1.97,1.168-2.89,3.975-4.69,5.211l-1.51-.041c-0.52.749-1.05,1.5-1.57,2.245l-1.52-.04c0,0.254-.01.508-0.02,0.762-1.15,1.013-1.01.356-1.57,2.244l0.75,0.021c1.6,1.891,6.3,2.543,9.04,1.766,0.01-.253.02-0.508,0.02-0.761l5.3,0.142c0.01-.254.01-0.508,0.02-0.762,3.49-.873,5.82,1.211,8.28,1.746-0.01.254-.01,0.508-0.02,0.762l-0.76-.02c-1.82,2.9-2.45,1.4-4.62,2.925-0.56.4-.62,1.537-1.57,2.245,0.39,1.543-.11.657,0.71,1.544,1.54,6.843,9.43,7.385,10.21,14.758-0.89.845-.3,0-0.8,1.5l-7.58.559a9.509,9.509,0,0,0-.86,3.789,1.311,1.311,0,0,1,.73.782c3,0.28,5.21,1.707,7.51,2.488,4.99,1.7,7.69-1.355,10.51,3.331a1.314,1.314,0,0,1,.73.782c-5.27.194-8.74,2.963-9.3,8.137,1.84,1.146,2.05,2.447,4.46,3.169,0.63,2.61,2.29,3.508,3.64,5.433l0.75,0.021q0.3,3.438.58,6.876l-9.08-.243c-0.01.254-.01,0.508-0.02,0.762a19.1,19.1,0,0,1-6.1,1.361l-0.06,2.286c1.73,1.316,3.47,2.634,5.2,3.95,0.48,0.776.97,1.551,1.45,2.326,2.93,1.746,3.18-1.7,3.7,3.149l-0.76-.02c0.22,1.53.43,3.06,0.64,4.591l-0.76-.021c-0.01.508-.03,1.016-0.04,1.524-3,.131-7.92,2.416-9.2,4.328l-0.76-.021c0,0.254-.01.508-0.02,0.762l0.76,0.02c1.94,1.73,4.81.692,7.52,1.727,0,0.254-.01.507-0.02,0.761l2.27,0.061c0,0.254-.01.508-0.02,0.762l1.52,0.04c-0.01.254-.02,0.508-0.02,0.762l2.27,0.061c0.23,0.515.47,1.029,0.71,1.544,2.3,1.631,3.33,1.018,3.66,4.672-1.47.714-3.16,2.378-4.62,2.926l-6.83.579c-0.01.254-.01,0.508-0.02,0.762l-1.51-.041a8.783,8.783,0,0,1-1.56,1.483c0.24,0.769.47,1.538,0.7,2.306,1.58,0.887,3.43,2.5,5.21,3.189l3.79,0.1c-0.01.254-.02,0.508-0.02,0.762,0.49,0.268.99,0.535,1.49,0.8-0.02.508-.03,1.016-0.04,1.524q2.955,2.367,5.93,4.733c-1.91,6.479-10.78,4.409-16.83,6.41,0.39,1.543-.11.657,0.72,1.544s-0.01.3,1.49,0.8a22.594,22.594,0,0,1-.9,5.313l-1.51-.041c-0.27.5-.54,1-0.8,1.5-0.77.233-1.53,0.467-2.29,0.7l-0.15,5.332,0.76,0.02c0.85,3.445-.57,8.248-1.04,10.645-0.76.234-1.53,0.468-2.29,0.7-0.6-3.908-2.39-6.357-2.74-10.746l-3.03-.081c-0.27.755-.54,1.51-0.82,2.265l-0.75-.02c-0.02.508-.03,1.016-0.04,1.523-0.51.241-1.03,0.481-1.54,0.722-0.28,1.262-.57,2.526-0.86,3.788l-2.31,1.463-0.06,2.285-0.75-.02c-0.02.508-.03,1.016-0.04,1.524l-0.76-.021c-1.44,3.152,1.55,3.245-3.13,3.728,0.01-.254.01-0.507,0.02-0.761l-4.54-.122-2.88-5.414-3.03-.081a6.829,6.829,0,0,1-1.55,1.483c-0.3,1.517-.59,3.034-0.88,4.551l-0.76-.02c-0.05,2.031-.11,4.063-0.16,6.094l-0.76-.02-1.65,5.292-3.79-.1c-1.37-2.537-3.61-3.719-4.35-6.977l-1.52-.041c-0.23-.515-0.47-1.029-0.71-1.544l-3.03-.081c-0.29,1.636-.79,1.476-0.79,1.5q-0.105,3.429-.19,6.857l-0.76-.021-0.12,4.571-0.75-.02c-0.02.761-.04,1.523-0.07,2.285l-0.75-.02c-0.02.508-.03,1.016-0.04,1.524l-0.76-.021c-0.03,1.27-.07,2.54-0.1,3.809l-0.76-.02c0,0.254-.01.508-0.02,0.762l-2.27-.061c-1.19-2.172-2.98-2.674-3.64-5.434l-6.79-.944c-1.97,3.627-4.61,6.549-10.02,6.592l-0.69-2.3c-0.84-.891-0.3-0.011-0.72-1.544-2.61.66-1.44,0.934-3.08,2.2l-0.03.762-9.07-.243c-0.01.254-.02,0.508-0.02,0.762l-1.52-.041c-0.26.5-.53,1-0.8,1.5l-3.04.681c-0.27.5-.53,1-0.8,1.5l-1.51-.04c-0.53.748-1.05,1.5-1.58,2.245l-1.51-.041c-0.27.5-.53,1-0.8,1.5-2.79.688-5.59,1.376-8.38,2.063-0.27.5-.53,1-0.8,1.5l-1.51-.04c-0.01.254-.02,0.508-0.02,0.761l-1.51-.04-0.03.762-1.51-.041c-0.01.254-.01,0.508-0.02,0.762l-1.51-.04c-0.01.253-.02,0.507-0.02,0.761l-1.52-.04c-0.26.5-.53,1-0.79,1.5l-7.59.559c-0.27.5-.53,1-0.8,1.5l-2.25-.823c0.01-.254.02-0.508,0.02-0.762a1.3,1.3,0,0,0-1.53.721l-4.54-.121a10.255,10.255,0,0,1,2.39-4.51l0.76,0.02,0.06-2.285,0.76,0.02c0.27-.755.54-1.51,0.82-2.265l0.75,0.02c-0.24-.515-0.47-1.029-0.71-1.544l-12.95,2.7c0.01-.254.02-0.508,0.02-0.762l-2.27-.061c-0.23-.514-0.47-1.029-0.71-1.544l-3.79-.1,0.03-.762c-2.33-.765-5.17-0.284-6.79-0.944l0.81-2.265a5.114,5.114,0,0,0,2.34-2.225c-1.83-.748-4.67-0.915-7.55-0.964l0.12-4.571c-8.15-.305-10.82,3.768-18.28,4.084a9.721,9.721,0,0,1-.65-3.829c-4.82.414-13.41,8.9-16.83,6.41a1.357,1.357,0,0,1-.74-0.782c2.49-1.368,3.05-3.692,4.71-5.972l2.31-1.463,0.06-2.286-14.34-1.908c0.01-.254.02-0.508,0.02-0.762l-1.51-.041-0.72-1.543c-0.74-.275-1.49-0.549-2.24-0.823l0.06-2.285,2.31-1.463c0-.254.01-0.508,0.02-0.762l1.51,0.04c0.01-.253.01-0.507,0.02-0.761l1.51,0.04c0.01-.254.02-0.508,0.02-0.762l2.27,0.061,0.03-.762,2.26,0.061,0.03-.762c0.76-.233,1.52-0.467,2.29-0.7l0.06-2.286-4.5-1.645c0-.254.01-0.508,0.02-0.762l-5.3-.142c0.01-.254.02-0.508,0.02-0.762l-1.51-.04-2.19-3.108-1.512-.041,0.021-.762q-0.747-.4-1.493-0.8,0.03-1.143.061-2.285c1.228-1,1.358-1.617,1.615-3.769l-2.229-1.584,0.021-.762-2.27-.061q-0.358-.771-0.716-1.543l-4.5-1.646q0.009-.381.02-0.761c-1.529-1.313-2.231-2.48-4.458-3.169-0.609-2.583-.88-1.515-2.188-3.108l-0.757-.021c-0.916-1.5.45-2.153-1.411-3.849a1.333,1.333,0,0,1,.777-0.742c0.886-.844.011-0.3,1.534-0.721a8.267,8.267,0,0,0-2.127-5.393l-0.756-.02q0.019-.762.04-1.524l-2.229-1.584c-0.129-.243-0.494-2.613-0.675-3.068l1.514,0.041-0.021.761,3.027,0.082-0.021.761c1.618,0.776,2.926.811,5.276,0.9a8.109,8.109,0,0,0,.838-3.027c-0.932-.839-0.755-1.368-1.452-2.326l-0.756-.02q0.02-.762.04-1.524l-1.493-.8c-0.85-.981-1.2-2.251-2.188-3.108q0.819-2.265,1.636-4.53l1.513,0.04,1.636-4.53,1.513,0.041c-0.03-3.84-1.436-5.143-2.045-8.441l-1.514-.04q-0.357-.773-0.715-1.544l-2.25-.823q-0.346-1.152-.7-2.306l-5.173-4.712a33.553,33.553,0,0,1-4.234-11.549l2.27,0.061q-0.021.762-.041,1.524c2.075,0.607,1.687.257,2.209,2.346,2.313,0.539,2.587,1.286,5.255,1.665a20.66,20.66,0,0,0,.94-6.836c-3.952-4.04-1.442-16.833.572-21.33,1.774,0.912,3.334,2.4,4.5,1.645l0.757,0.021,0.1-3.809a6.961,6.961,0,0,0,1.554-1.483,13.4,13.4,0,0,0,6.768,1.706q0.021-.762.041-1.524l0.757,0.02L993,427.064q0.113-4.188.224-8.379l-0.756-.02q0.009-.381.02-0.762l0.757,0.02q0.03-1.143.061-2.285,1.155-.732,2.311-1.463l0.2-7.618,1.533-.721q0.409-1.132.818-2.266l0.756,0.021q0.032-1.143.062-2.286l0.756,0.021q0.021-.762.041-1.524l0.761,0.02c0.01-.508.02-1.015,0.04-1.523l1.53-.721c0.29-1.263.57-2.526,0.86-3.789l0.76,0.02c0.01-.508.02-1.016,0.04-1.524l2.31-1.462c0.01-.508.02-1.016,0.04-1.524l2.31-1.463c0-.254.01-0.508,0.02-0.762,1.15-1.06,1.58-.806,3.07-1.442,0-.254.01-0.508,0.02-0.762,1.5,0.3,3.01.589,4.52,0.884l0.81-2.265c2.37-2.181.51-2.888,1.68-6.054l0.76,0.02,0.06-2.285,0.75,0.02c0.02-.508.03-1.016,0.04-1.524l0.76,0.021c1.4-2.871.38-4.316,3.93-5.232,1.05-1.181,1.67-1.279,3.82-1.422l2.01,9.964,1.51,0.041c0.76-.918,2.48-1.434,3.09-2.2,0.01-.507.02-1.015,0.04-1.523l1.53-.722c0.78-1,1.57-1.99,2.35-2.986l1.51,0.041c0.53-.749,1.05-1.5,1.58-2.245,1.01-.227,2.03-0.454,3.05-0.681,0-.254.01-0.508,0.02-0.762l5.29,0.142q-1.35,8.349-2.72,16.7l2.27,0.061c1.15-1.835,2.85-2.383,3.89-3.708,0.27-.755.54-1.51,0.82-2.265l1.51,0.041c0.52-.749,1.05-1.5,1.57-2.245l1.52,0.04c0.26-.5.53-1,0.79-1.5,1.8-1.234,1.34.849,2.34-2.225,1.08-1.195,1.31-5.907.98-8.359-0.76-5.486-.78-11.379,1.18-15.977,0.76-.234,1.53-0.468,2.29-0.7q0.945,7.267,1.88,14.535l0.76,0.021c0.89-.845.01-0.3,1.53-0.722,1.21-4.476,4.84-6.092,5.61-11.285,0.76-.233,1.52-0.467,2.29-0.7a1.091,1.091,0,0,0,1.49.8c0.26-.5.53-1,0.8-1.5l6.87-2.1c-0.01.254-.02,0.508-0.02,0.762Zm46.09,3.521-1.51-.04c0-.254.01-0.508,0.02-0.762l0.75,0.021c0.01-.254.02-0.508,0.02-0.762C1136.03,348.67,1135.49,347.789,1135.91,349.322ZM1182.66,469.5l-0.06,2.286,4.44,3.93c0.23,0.515.47,1.029,0.71,1.544l2.27,0.061,0.72,1.544,1.51,0.04,0.72,1.544,2.25,0.823c0-.254.01-0.508,0.02-0.762,1.47-.918,1.27-0.739,1.59-3.007l1.51,0.041c0.02-.508.03-1.016,0.04-1.524l-2.22-1.584c0-.254.01-0.508,0.02-0.762l-3.77-.863c0.01-.254.02-0.508,0.02-0.762l-1.51-.04c0.01-.254.01-0.508,0.02-0.762l-2.27-.061c0.01-.254.02-0.508,0.02-0.762C1186.97,469.571,1185.21,469.616,1182.66,469.5Z"/>
  <path id="left_ear_color_fuzzy_shadow" data-name="left ear color fuzzy shadow" class="cls-3" d="M1084.94,346.036l3.39-1.038c-0.01.254-.02,0.508-0.02,0.762l1.51,0.041c-0.01.265-.03,0.485-0.04,0.737C1088.16,346.371,1086.55,346.2,1084.94,346.036Zm-20.62,17.378-0.62-.017c-0.02-.266-0.04-0.533-0.07-0.764-0.76-5.486-.78-11.379,1.18-15.977,0.76-.234,1.53-0.468,2.29-0.7q0.69,5.344,1.39,10.69C1067.69,358.531,1066.45,360.134,1064.32,363.414Zm-1.67,7.578a3.034,3.034,0,0,0,.2-0.337c0.37,2.121.73,4.242,1.1,6.362l-5.45-.146-0.15,5.441-7.53-.2c1.08-1.241,2.41-1.849,3.28-2.962,0.27-.755.54-1.51,0.82-2.265l1.51,0.041c0.52-.749,1.05-1.5,1.57-2.245l1.52,0.04c0.26-.5.53-1,0.79-1.5C1062.11,371.983,1061.65,374.066,1062.65,370.992Zm-20.59,8.161c-0.02.907-.05,1.814-0.07,2.721l-2.73-.073q-0.1,4.08-.22,8.162l-8.18-.219c-0.04,1.813-.09,3.628-0.14,5.441-5.49,1.491-2.34-.44-5.53,2.575l-2.73-.073-0.21,8.162,8.1,2.94c-0.02.907-.04,1.814-0.07,2.721l-10.91-.293q-0.21,8.162-.43,16.325c0.13,0.693,3.46.986,2.58,5.514l-2.73-.073q-1.65,10.845-3.31,21.692l5.45,0.146c-0.82,6.4-1.33,6.695-3.01,10.81,4.15,2.067,9.48,3.452,10.68,8.454l-2.72-.073c-0.03.907-.05,1.814-0.08,2.721l13.64,0.365q1.245,4.118,2.51,8.236l5.45,0.146-2.94,8.089,13.56,3.086q-1.485,4.044-2.95,8.089l16.36,0.438c0.03-.907.05-1.814,0.08-2.721l2.72,0.073-3.09,13.531,8.18,0.219c-0.02.907-.05,1.814-0.07,2.721,2.13,1.2,6.01,5.092,10.83,3.012,0.03-.906.05-1.813,0.08-2.72,0,0,10.54.551,5.38,2.867l-2.73-.073c-0.07,2.72-.15,5.441-0.22,8.162,6.08-2.228,11.88-6.189,16.43-2.283-0.04,1.814-.09,3.628-0.14,5.442l8.25-2.5c0.01,0-.07,1.673,5.38,2.867,0.98-2.7,1.97-5.393,2.95-8.089l5.45,0.146c-0.05,1.814-.09,3.628-0.14,5.441,7.47-1.876,6.22-.48,8.4-7.943,5.4,1.783,2.35-.314,5.38,2.867l8.18,0.219c0.02-.906.05-1.813,0.07-2.72l2.73,0.073q0.1-4.082.22-8.162,9.57-1.106,19.16-2.21c-0.03.907-.05,1.814-0.08,2.721l13.56,3.086q0.12-4.08.22-8.162l-2.72-.073c0.04-1.814.09-3.628,0.14-5.441,4.12,1.7,4.38,2.291,10.84,3.012q0.105-4.08.22-8.162,10.86,1.653,21.74,3.305v-0.1a12.594,12.594,0,0,0,2.25,1.246l3.79,0.1c-0.01.254-.02,0.508-0.02,0.762,0.49,0.268.99,0.535,1.49,0.8-0.02.508-.03,1.016-0.04,1.524q2.955,2.367,5.93,4.733c-1.91,6.479-10.78,4.409-16.83,6.41,0.39,1.543-.11.657,0.72,1.544s-0.01.3,1.49,0.8a22.594,22.594,0,0,1-.9,5.313l-1.51-.041c-0.27.5-.54,1-0.8,1.5-0.77.233-1.53,0.467-2.29,0.7l-0.15,5.332,0.76,0.02c0.85,3.445-.57,8.248-1.04,10.645-0.76.234-1.53,0.468-2.29,0.7-0.6-3.908-2.39-6.357-2.74-10.746l-3.03-.081c-0.27.755-.54,1.51-0.82,2.265l-0.75-.02c-0.02.508-.03,1.016-0.04,1.523-0.51.241-1.03,0.481-1.54,0.722-0.28,1.262-.57,2.526-0.86,3.788l-2.31,1.463-0.06,2.285-0.75-.02c-0.02.508-.03,1.016-0.04,1.524l-0.76-.021c-1.44,3.152,1.55,3.245-3.13,3.728,0.01-.254.01-0.507,0.02-0.761l-4.54-.122-2.88-5.414-3.03-.081a6.829,6.829,0,0,1-1.55,1.483c-0.3,1.517-.59,3.034-0.88,4.551l-0.76-.02c-0.05,2.031-.11,4.063-0.16,6.094l-0.76-.02-1.65,5.292-3.79-.1c-1.37-2.537-3.61-3.719-4.35-6.977l-1.52-.041c-0.23-.515-0.47-1.029-0.71-1.544l-3.03-.081c-0.29,1.636-.79,1.476-0.79,1.5q-0.105,3.429-.19,6.857l-0.76-.021-0.12,4.571-0.75-.02c-0.02.761-.04,1.523-0.07,2.285l-0.75-.02c-0.02.508-.03,1.016-0.04,1.524l-0.76-.021c-0.03,1.27-.07,2.54-0.1,3.809l-0.76-.02c0,0.254-.01.508-0.02,0.762l-2.27-.061c-1.19-2.172-2.98-2.674-3.64-5.434l-6.79-.944c-1.97,3.627-4.61,6.549-10.02,6.592l-0.69-2.3c-0.84-.891-0.3-0.011-0.72-1.544-2.61.66-1.44,0.934-3.08,2.2l-0.03.762-9.07-.243c-0.01.254-.02,0.508-0.02,0.762l-1.52-.041c-0.26.5-.53,1-0.8,1.5l-3.04.681c-0.27.5-.53,1-0.8,1.5l-1.51-.04c-0.53.748-1.05,1.5-1.58,2.245l-1.51-.041c-0.27.5-.53,1-0.8,1.5-2.79.688-5.59,1.376-8.38,2.063-0.27.5-.53,1-0.8,1.5l-1.51-.04c-0.01.254-.02,0.508-0.02,0.761l-1.51-.04-0.03.762-1.51-.041c-0.01.254-.01,0.508-0.02,0.762l-1.51-.04c-0.01.253-.02,0.507-0.02,0.761l-1.52-.04c-0.26.5-.53,1-0.79,1.5l-7.59.559c-0.27.5-.53,1-0.8,1.5l-2.25-.823c0.01-.254.02-0.508,0.02-0.762a1.3,1.3,0,0,0-1.53.721l-4.54-.121a10.255,10.255,0,0,1,2.39-4.51l0.76,0.02,0.06-2.285,0.76,0.02c0.27-.755.54-1.51,0.82-2.265l0.75,0.02c-0.24-.515-0.47-1.029-0.71-1.544l-12.95,2.7c0.01-.254.02-0.508,0.02-0.762l-2.27-.061c-0.23-.514-0.47-1.029-0.71-1.544l-3.79-.1,0.03-.762c-2.33-.765-5.17-0.284-6.79-0.944l0.81-2.265a5.114,5.114,0,0,0,2.34-2.225c-1.83-.748-4.67-0.915-7.55-0.964l0.12-4.571c-8.15-.305-10.82,3.768-18.28,4.084a9.721,9.721,0,0,1-.65-3.829c-4.82.414-13.41,8.9-16.83,6.41a1.357,1.357,0,0,1-.74-0.782c2.49-1.368,3.05-3.692,4.71-5.972l2.31-1.463,0.06-2.286-14.34-1.908c0.01-.254.02-0.508,0.02-0.762l-1.51-.041-0.72-1.543c-0.74-.275-1.49-0.549-2.24-0.823l0.06-2.285,2.31-1.463c0-.254.01-0.508,0.02-0.762l1.51,0.04c0.01-.253.01-0.507,0.02-0.761l1.51,0.04c0.01-.254.02-0.508,0.02-0.762l2.27,0.061,0.03-.762,2.26,0.061,0.03-.762c0.76-.233,1.52-0.467,2.29-0.7l0.06-2.286-4.5-1.645c0-.254.01-0.508,0.02-0.762l-5.3-.142c0.01-.254.02-0.508,0.02-0.762l-1.51-.04-2.19-3.108-1.512-.041,0.021-.762q-0.747-.4-1.493-0.8,0.03-1.143.061-2.285c1.228-1,1.358-1.617,1.615-3.769l-2.229-1.584,0.021-.762-2.27-.061q-0.358-.771-0.716-1.543l-4.5-1.646q0.009-.381.02-0.761c-1.529-1.313-2.231-2.48-4.458-3.169-0.609-2.583-.88-1.515-2.188-3.108l-0.757-.021c-0.916-1.5.45-2.153-1.411-3.849a1.333,1.333,0,0,1,.777-0.742c0.886-.844.011-0.3,1.534-0.721a8.267,8.267,0,0,0-2.127-5.393l-0.756-.02q0.019-.762.04-1.524l-2.229-1.584c-0.129-.243-0.494-2.613-0.675-3.068l1.514,0.041-0.021.761,3.027,0.082-0.021.761c1.618,0.776,2.926.811,5.276,0.9a8.109,8.109,0,0,0,.838-3.027c-0.932-.839-0.755-1.368-1.452-2.326l-0.756-.02q0.02-.762.04-1.524l-1.493-.8c-0.85-.981-1.2-2.251-2.188-3.108q0.819-2.265,1.636-4.53l1.513,0.04,1.636-4.53,1.513,0.041c-0.03-3.84-1.436-5.143-2.045-8.441l-1.514-.04q-0.357-.773-0.715-1.544l-2.25-.823q-0.346-1.152-.7-2.306l-5.173-4.712a33.553,33.553,0,0,1-4.234-11.549l2.27,0.061q-0.021.762-.041,1.524c2.075,0.607,1.687.257,2.209,2.346,2.313,0.539,2.587,1.286,5.255,1.665a20.66,20.66,0,0,0,.94-6.836c-3.952-4.04-1.442-16.833.572-21.33,1.774,0.912,3.334,2.4,4.5,1.645l0.757,0.021,0.1-3.809a6.961,6.961,0,0,0,1.554-1.483,13.4,13.4,0,0,0,6.768,1.706q0.021-.762.041-1.524l0.757,0.02L993,427.064q0.113-4.188.224-8.379l-0.756-.02q0.009-.381.02-0.762l0.757,0.02q0.03-1.143.061-2.285,1.155-.732,2.311-1.463l0.2-7.618,1.533-.721q0.409-1.132.818-2.266l0.756,0.021q0.032-1.143.062-2.286l0.756,0.021q0.021-.762.041-1.524l0.761,0.02c0.01-.508.02-1.015,0.04-1.523l1.53-.721c0.29-1.263.57-2.526,0.86-3.789l0.76,0.02c0.01-.508.02-1.016,0.04-1.524l2.31-1.462c0.01-.508.02-1.016,0.04-1.524l2.31-1.463c0-.254.01-0.508,0.02-0.762,1.15-1.06,1.58-.806,3.07-1.442,0-.254.01-0.508,0.02-0.762,1.5,0.3,3.01.589,4.52,0.884l0.81-2.265c2.37-2.181.51-2.888,1.68-6.054l0.76,0.02,0.06-2.285,0.75,0.02c0.02-.508.03-1.016,0.04-1.524l0.76,0.021c1.4-2.871.38-4.316,3.93-5.232,1.05-1.181,1.67-1.279,3.82-1.422l2.01,9.964,1.51,0.041c0.76-.918,2.48-1.434,3.09-2.2,0.01-.507.02-1.015,0.04-1.523l1.53-.722c0.78-1,1.57-1.99,2.35-2.986l1.51,0.041c0.53-.749,1.05-1.5,1.58-2.245,1.01-.227,2.03-0.454,3.05-0.681,0-.254.01-0.508,0.02-0.762l5.29,0.142q-1.08,6.613-2.15,13.229Zm179.43,106.634,0.1,0V486.1C1221.55,486,1221.52,485.892,1221.49,485.787Zm-10.41,1.355,10.91,0.292-0.27-.878,1.37,0.036c-0.01.254-.02,0.508-0.02,0.762l2.27,0.061c0.23,0.515.47,1.029,0.71,1.544,2.3,1.631,3.33,1.018,3.66,4.672-1.47.714-3.16,2.378-4.62,2.926l-6.09.516c0.02-.516.03-1.033,0.05-1.55q-4.065-1.469-8.11-2.939C1210.99,490.77,1211.04,488.956,1211.08,487.142Z"/>
  <path id="right_ear_color_base" data-name="right ear color base" class="cls-1" d="M1886.55,481.115c-0.45,17.068-16.49,23.066-19.48,34.861q2.04,6.252,4.03,12.4c-1.17,16.9-22.1,26.174-31.21,33.9-23.84,20.217-34.26,49.849-70.38,36.507-2.53.515-2.53,0.373-6.81-.218-1.01,2.515-2.03,5.016-3.03,7.5-7.25,1.434-7.79,2.94-18.22.043-3.02-2.379-8.42.654-14.83-2.989-1.46-.833-6.26-8.044-8.18-9.185l-30.31-6.16c-0.75-3.569-1.3-10.2-2.7-14.01-6.4,4.442-11.93,5.319-22.09,3.313-6.4-11.348-26.68-41.916-29.74-54.17-2.49-9.952,3.08-15.763.54-24.759q-3.945-5.317-7.94-10.716c-2.38-13.518,9.31-29.6,13.52-38.516-4.21-17.976-4.23-30.195-2.85-52.1,26.15-14.483,46.88-49.713,86.7-36.684,2.79-5.837,2.62-5.84,5.27-8.318q0.45-1.593.9-3.191,21.525,7.692,42.67,15.253c12.4-.2,28.09-10.292,43.33-5.937,16.1,4.6,20.53,29.125,29.08,37.942,10.59,10.924,25.01,5.327,34.79,11.954,0.67,8.93,7.66,19.638,7.45,26.731q-4.485,12.64-8.83,24.862Q1882.445,470.43,1886.55,481.115Z"/>
  <path id="right_ear_color_fuzzy" data-name="right ear color fuzzy" class="cls-2" d="M1731.95,593.71c1.68-4.766,3.94-6.027,5.69-10.246-0.19-.067-0.38-0.134-0.58-0.2-0.06.183-.13,0.366-0.2,0.549a5.383,5.383,0,0,0-1.55.693c-2.12.512-3.23,0.054-4.63,2.071a17.244,17.244,0,0,0-4.59.231c-0.07.181-.13,0.363-0.2,0.544q-2.58-.9-5.17-1.8c0.06-1.41.12-2.825,0.19-4.244-0.33-.32-0.65-0.639-0.97-0.959q0.48-1.383.96-2.772c-0.2-.068-0.39-0.136-0.58-0.205-1.72,1.367-4.15,1.2-6.37,1.5l-1.17-.407c-0.83.535-1.66,1.07-2.48,1.6l-1.35.146c-0.06.184-.12,0.369-0.19,0.553-0.38-.136-0.77-0.271-1.16-0.406l-0.18.552c-0.39-.136-0.78-0.271-1.16-0.406l-1.71,1.248q-3-.736-6.01-1.476a4.448,4.448,0,0,1,1.88-1.808c0.2,0.068.39,0.136,0.59,0.2,0.43-.672.87-1.345,1.3-2.019l1.35-.147c0.38-.49.76-0.98,1.13-1.47,0.2,0.068.39,0.137,0.59,0.205a4.128,4.128,0,0,0,2.09-2.391q-2.355-.826-4.7-1.656c-0.07.188-.13,0.376-0.19,0.564-0.19-.069-0.39-0.138-0.58-0.207l0.18-.564c-0.99-.346-1.97-0.692-2.95-1.038l0.18-.567-1.19-.416,0.18-.568c-0.98-.348-1.97-0.7-2.96-1.044l0.18-.57c-0.4-.139-0.79-0.279-1.19-0.419l0.18-.571c-2.11-2.176-3.33-1.446-2.34-5.29,1.78,0.169,1.39.314,2.33-1.1l0.6,0.213c1.06-.946.08-5.637-0.19-5.894-0.6-.216-1.2-0.431-1.81-0.647-0.86.539-1.5,0.435-2.34,1.116-1.48.843-1.58,3.738-2.79,4.823l-3.69,1.255c-0.11.385-.23,0.77-0.34,1.155l-2.91.883c-0.11.383-.22,0.767-0.34,1.15l-1.36.152c-0.11.383-.23,0.765-0.34,1.147l-0.6-.211c-0.36.5-.73,1-1.09,1.506-1.77-.166-1.39-0.31-2.29,1.082-2.88-.277-3.93,1.339-7.39.546,1.02-1.863,2.29-2.018,3.52-3.156q0.63-1.041,1.26-2.085c1.65-1.272,1.97.436,3.39-2.616q-7.41-1.973-14.85-3.957c0.05-.2.11-0.39,0.16-0.585-1.11-.819-2.23-1.64-3.35-2.463,0.16-.588.31-1.178,0.47-1.768,1.74-.365.57-0.584,1.69-1.34l1.38-.158c0.06-.2.11-0.4,0.16-0.593,3.14-.937,6.88.463,8.81-2.738-0.2-.073-0.41-0.146-0.61-0.219a8.733,8.733,0,0,0-5.83-3.4c-0.05.2-.1,0.4-0.16,0.6-1.23-.441-2.47-0.882-3.7-1.324,0.05-.2.11-0.4,0.16-0.6l-1.24-.442c0.05-.2.11-0.4,0.16-0.605l-1.86-.665c-1.04-.868-2.72-2.4-3.89-3.384q-0.075-1.029-.15-2.06c1.84-.407,3.13-2.442,4.85-2.956,0.41,0.151.83,0.3,1.25,0.452,0.58-.467,1.15-0.934,1.73-1.4,0.42,0.15.84,0.3,1.25,0.452,0.06-.206.11-0.412,0.16-0.618,1.15-.513.92-0.011,1.75-1.407l-0.63-.227c-0.97-2-4.78-3.862-7.22-3.988-0.06.209-.11,0.418-0.16,0.626q-2.22-.8-4.42-1.605c-0.06.209-.11,0.419-0.16,0.628-3.09-.256-4.68-2.649-6.67-3.793l0.15-.633c0.21,0.077.43,0.154,0.64,0.232,2.06-1.918,2.32-.478,4.43-1.145,0.55-.173.81-1.116,1.74-1.442-0.04-1.415.22-.523-0.32-1.508-0.05-6.272-6.7-9.03-6.05-15.665,0.92-.478.26,0.094,0.97-1.081l6.65,1.752a8.123,8.123,0,0,0,1.46-3.069,1.417,1.417,0,0,1-.49-0.908c-2.54-1.138-4.19-3.062-6.05-4.446-4.05-3.018-6.96-1.1-8.59-6.157a1.487,1.487,0,0,1-.51-0.93c4.67,1.43,8.23-.013,9.68-4.54-1.4-1.613-1.35-2.869-3.35-4.279-0.07-2.6-1.39-3.957-2.23-6.169-0.23-.086-0.45-0.171-0.67-0.256q0.375-3.3.75-6.64c2.71,1.038,5.4,2.074,8.1,3.109,0.05-.237.11-0.474,0.16-0.71a16.466,16.466,0,0,1,5.71.647q0.255-1.065.51-2.134c-1.28-1.8-2.58-3.6-3.87-5.41-0.29-.9-0.57-1.8-0.85-2.695-2.31-2.628-3.2.609-2.74-4.236l0.69,0.266c0.1-1.552.21-3.11,0.32-4.673,0.23,0.09.46,0.179,0.68,0.268,0.12-.491.23-0.984,0.34-1.477,2.76,0.859,7.71.24,9.27-1.213,0.23,0.089.46,0.179,0.68,0.269l0.18-.742c-0.23-.09-0.46-0.18-0.68-0.27-1.42-2.348-4.25-2.274-6.53-4.2,0.06-.249.12-0.5,0.17-0.749l-2.07-.819c0.06-.25.11-0.5,0.17-0.751l-1.38-.547c0.05-.252.11-0.5,0.17-0.754l-2.08-.823-0.36-1.789c-1.8-2.42-2.88-2.151-2.47-5.962,1.51-.225,3.42-1.342,4.88-1.4,2.16,0.581,4.31,1.162,6.47,1.742,0.06-.256.12-0.512,0.17-0.768,0.47,0.186.93,0.372,1.4,0.558a6.819,6.819,0,0,1,1.75-.979q-0.075-1.295-.15-2.593c-1.29-1.454-2.68-3.758-4.2-5.081-1.17-.473-2.34-0.945-3.52-1.418l0.18-.784c-0.41-.451-0.83-0.9-1.24-1.355,0.12-.524.23-1.049,0.35-1.575q-2.31-3.518-4.64-7.068c3.14-6.223,11.14-.849,17.3-0.822-0.03-1.78.25-.658-0.34-1.9s0.07-.322-1.24-1.389a25.556,25.556,0,0,1,2.03-5.381l1.44,0.59c0.36-.445.73-0.89,1.09-1.335l2.35,0.07q0.675-2.861,1.36-5.744l-0.72-.3c-0.02-4.1,2.46-8.889,3.48-11.386l2.38,0.072c-0.35,4.574.79,7.939,0.08,12.878,0.96,0.4,1.91.794,2.87,1.191q0.66-1.085,1.32-2.172l0.72,0.3c0.13-.55.27-1.1,0.41-1.652l1.64-.229c0.58-1.281,1.16-2.565,1.75-3.852,0.86-.254,1.71-0.509,2.57-0.763,0.21-.836.42-1.673,0.64-2.512l0.72,0.3q0.21-.839.42-1.68l0.72,0.3c2.19-2.983-.67-4.208,3.96-3-0.07.282-.14,0.564-0.22,0.845q2.175,0.916,4.33,1.83c0.44,2.364.89,4.718,1.33,7.061,0.95,0.4,1.91.8,2.86,1.2a5.986,5.986,0,0,1,1.87-1.058c0.68-1.562,1.37-3.13,2.05-4.7l0.72,0.3q0.9-3.356,1.82-6.741l0.72,0.307q1.515-2.665,3.06-5.348l3.6,1.546c0.6,3.378,2.4,5.544,2.18,9.454,0.47,0.2.95,0.4,1.43,0.606,0.07,0.659.15,1.318,0.23,1.975,0.95,0.4,1.9.805,2.84,1.207,0.75-1.7,1.17-1.338,1.19-1.366q1.08-3.765,2.17-7.569c0.24,0.1.48,0.2,0.71,0.306q0.735-2.544,1.47-5.105l0.72,0.309c0.25-.855.49-1.712,0.74-2.57l0.72,0.311c0.16-.573.33-1.146,0.49-1.719l0.72,0.311c0.42-1.436.84-2.877,1.25-4.321,0.24,0.1.49,0.209,0.73,0.314,0.08-.289.16-0.579,0.25-0.868l2.16,0.941c0.47,2.943,2.03,4.2,1.81,7.582q3.09,1.816,6.16,3.625c3.01-3.349,6.45-5.664,11.6-3.663-0.04.957-.07,1.913-0.1,2.867,0.5,1.318.28,0.126,0.17,2,2.68,0.241,1.67-.508,3.64-1.318l0.27-.85q4.23,1.845,8.46,3.681l0.27-.846,1.41,0.613,1.26-1.388,3.09,0.379,1.26-1.39,1.41,0.615c0.75-.645,1.5-1.29,2.26-1.936,0.47,0.2.94,0.411,1.4,0.616,0.43-.465.86-0.93,1.28-1.4l8.59,0.834,1.29-1.4c0.47,0.2.93,0.411,1.4,0.617l0.3-.854c0.47,0.206.93,0.412,1.4,0.618l0.3-.854c0.46,0.206.93,0.412,1.4,0.618l0.3-.855c0.46,0.206.93,0.412,1.39,0.618,0.11-.285.21-0.57,0.31-0.855,0.46,0.206.93,0.413,1.39,0.619,0.44-.467.88-0.935,1.31-1.4q3.645,1.12,7.28,2.238l1.32-1.4,1.77,1.781c-0.1.285-.21,0.569-0.31,0.853,1.07,0.783,1.51-.267,1.7-0.236,1.39,0.616,2.77,1.232,4.16,1.847a12.359,12.359,0,0,1-3.96,4.157l-0.69-.305c-0.32.842-.63,1.684-0.94,2.523l-0.69-.3c-0.54.738-1.08,1.475-1.61,2.21l-0.69-.3c0.02,0.658.05,1.315,0.07,1.971l12.89,1.792c-0.11.276-.21,0.553-0.32,0.83,0.68,0.3,1.37.6,2.05,0.9,0.01,0.652.03,1.3,0.04,1.952,1.13,0.5,2.27,1,3.4,1.491-0.11.275-.22,0.548-0.32,0.822,1.8,1.677,4.56,2.186,5.76,3.487-0.55.716-1.1,1.432-1.64,2.147a5.216,5.216,0,0,0-2.98,1.551c1.35,1.456,3.83,2.65,6.39,3.731q-0.975,2.407-1.93,4.8c7.12,3.195,11.13-.151,17.87,2.149a12.983,12.983,0,0,1-1,4.237c4.4,1.249,15.52-4.617,17.46-.8a1.4,1.4,0,0,1,.31,1.073c-2.77.556-4.24,2.777-6.65,4.561-0.87.237-1.75,0.474-2.62,0.71-0.34.778-.67,1.555-1.01,2.33q5.835,3.44,11.62,6.848c-0.11.255-.22,0.509-0.34,0.764l1.29,0.554c-0.02.6-.03,1.2-0.04,1.8,0.53,0.529,1.05,1.057,1.58,1.585q-0.51,1.135-1.02,2.267c-0.87.229-1.73,0.457-2.59,0.686-0.12.25-.23,0.5-0.34,0.752-0.42-.182-0.85-0.364-1.28-0.547l-0.33.752c-0.43-.182-0.85-0.364-1.28-0.546l-0.33.752-1.92-.82-0.33.752-1.92-.819-0.33.751-2.25-.067q-0.5,1.125-.99,2.248,1.59,1.561,3.17,3.116c-0.11.248-.22,0.5-0.32,0.743q2.22,0.944,4.44,1.884l-0.33.739c0.42,0.179.84,0.358,1.27,0.536q0.285,1.875.57,3.74l1.26,0.532-0.33.73c0.31,0.42.62,0.84,0.92,1.259q-0.495,1.092-.99,2.179c-1.44.562-1.8,1.113-2.89,3.086q0.615,1.112,1.23,2.221l-0.33.717c0.62,0.26,1.25.52,1.87,0.78l-0.03,1.687c1.02,0.992,2.05,1.982,3.07,2.97l-0.33.708c0.73,1.707.83,3.014,2.39,4.351-0.55,2.579.11,1.677,0.54,3.554,0.2,0.084.4,0.169,0.61,0.253,0.14,1.665-1.24,1.839-.41,3.964a1.343,1.343,0,0,1-.94.437c-1.06.5-.13,0.274-1.54,0.187a8.353,8.353,0,0,0-.43,5.536c0.2,0.083.4,0.166,0.61,0.248-0.22.453-.43,0.905-0.64,1.358q0.585,1.047,1.17,2.092c0.01,0.255-.64,2.477-0.68,2.936l-1.2-.49c0.1-.224.21-0.448,0.32-0.672-0.81-.327-1.62-0.654-2.42-0.982,0.1-.224.21-0.449,0.32-0.673-1.01-1.182-2.06-1.609-3.93-2.4a9.219,9.219,0,0,0-1.87,2.457c0.43,1.029.08,1.447,0.27,2.509,0.21,0.081.41,0.163,0.61,0.244l-0.63,1.339,0.9,1.155c0.3,1.119.09,2.34,0.55,3.385q-1.53,1.741-3.06,3.475l-1.2-.48c-1.01,1.153-2.03,2.3-3.03,3.452l-1.2-.477c-1.42,3.319-.79,4.845-1.54,7.835,0.4,0.156.79,0.313,1.19,0.469,0,0.506-.01,1.011-0.01,1.515,0.49,0.447.98,0.893,1.48,1.339-0.11.715-.21,1.429-0.32,2.141q1.17,2.711,2.32,5.4a29.893,29.893,0,0,1-.98,10.658l-1.74-.674c0.2-.409.4-0.818,0.59-1.228-1.39-1.068-1.21-.676-0.85-2.528-1.61-1.084-1.55-1.774-3.5-2.83a20.455,20.455,0,0,0-3.21,5.341c1.61,4.36-4.87,13.889-7.98,16.889-1.05-1.188-1.73-2.776-2.89-2.492l-0.57-.218c-0.47.991-.93,1.98-1.39,2.966a6.45,6.45,0,0,0-1.7.749,9.906,9.906,0,0,0-4.63-3.14l-0.54,1.187c-0.19-.072-0.38-0.145-0.58-0.217q0.51,3.312,1.01,6.593-1.485,3.206-2.95,6.38l0.57,0.211-0.27.575c-0.18-.07-0.37-0.141-0.56-0.211-0.27.574-.53,1.148-0.8,1.721-0.74.172-1.49,0.343-2.23,0.514q-1.305,2.853-2.61,5.681l-1.39.15c-0.44.5-.89,0.989-1.34,1.482-0.18-.069-0.37-0.137-0.56-0.206-0.26.562-.51,1.123-0.77,1.684-0.19-.069-0.37-0.138-0.56-0.206l-0.51,1.119c-0.19-.068-0.38-0.137-0.56-0.205l-0.51,1.117-1.38.147c-0.61.86-1.22,1.719-1.82,2.575-0.19-.068-0.38-0.136-0.56-0.2-0.17.37-.34,0.739-0.5,1.108-0.73.165-1.46,0.33-2.18,0.5-0.17.368-.33,0.736-0.5,1.1-0.72.165-1.45,0.329-2.17,0.494-0.09.183-.17,0.366-0.25,0.549-1.18.487-1.43,0.2-2.73,0.291l-0.24.548q-1.56-.879-3.12-1.762l-1.29,1.447c-2.42,1-1.23,1.968-3.03,3.966-0.19-.067-0.38-0.133-0.56-0.2-0.24.543-.48,1.086-0.71,1.628-0.19-.067-0.38-0.133-0.56-0.2l-0.48,1.083c-0.18-.067-0.37-0.133-0.55-0.2-1.87,1.71-1.53,2.988-4.43,2.78-1.12.584-1.6,0.5-3.24,0.085,0.43-2.532.88-5.079,1.32-7.641-0.38-.134-0.75-0.269-1.13-0.4-0.83.477-2.27,0.426-2.94,0.836-0.15.363-.31,0.727-0.46,1.09l-1.35.144c-0.87.525-1.73,1.05-2.6,1.574l-1.12-.4-1.8,1.228-2.47-.256c-0.08.18-.15,0.361-0.23,0.541-1.31-.465-2.62-0.93-3.94-1.4q3.285-5.694,6.62-11.494l-1.71-.615c-1.38,1.068-2.83,1.045-3.98,1.761-0.42.488-.83,0.975-1.24,1.461l-1.14-.407-1.8,1.254c-0.38-.136-0.77-0.271-1.15-0.407-0.33.3-.67,0.6-1,0.9-1.69.456-.79-0.954-2.37,1.047-1.14.6-2.54,3.964-2.92,5.816-0.85,4.113-2.35,8.3-4.98,11.06l-1.88-.055q1.11-5.341,2.25-10.775l-0.57-.2c-0.88.391-.08,0.216-1.34,0.143-2.05,2.914-5.19,3.186-7.05,6.691l-1.9-.056a0.845,0.845,0,0,0-.93-0.929l-0.96.873-5.69-.168c0.06-.178.13-0.357,0.19-0.535C1732.7,593.973,1732.33,593.841,1731.95,593.71Zm-34.57-13.848c0.39,0.136.78,0.271,1.16,0.407-0.05.184-.11,0.368-0.17,0.552-0.2-.068-0.39-0.136-0.59-0.2-0.05.184-.11,0.367-0.17,0.551C1697.14,580.31,1697.38,581.087,1697.38,579.862Zm-12.51-112.827,0.57-2.133q-1.515-2.564-3.05-5.146c-0.1-.568-0.2-1.137-0.29-1.706-0.68-.263-1.35-0.526-2.02-0.789-0.1-.571-0.2-1.142-0.29-1.714l-1.35-.529-0.3-1.721c-0.61-.509-1.23-1.019-1.84-1.529-0.06.244-.13,0.488-0.19,0.732-1.52.41-1.31,0.3-2.09,2.386l-1.35-.529c-0.13.484-.25,0.969-0.37,1.453q0.825,1.122,1.65,2.239l-0.18.722c1.06,0.678,2.12,1.354,3.17,2.03l-0.18.718c0.45,0.174.89,0.348,1.34,0.522-0.06.239-.13,0.477-0.19,0.716l2.01,0.781c-0.07.238-.13,0.476-0.19,0.714C1681.07,465.6,1682.64,466.12,1684.87,467.035Z"/>
  <path id="right_ear_color_shadow" data-name="right ear color shadow" class="cls-3" d="M1715.88,386.315c-0.44-1.271-3.77-2.114-7.07-2.6q0.825-3.039,1.65-6.1l0.72,0.307q1.515-2.665,3.06-5.348c0.66,0.285,1.32.57,1.99,0.855Q1716.05,379.872,1715.88,386.315Zm-13.92,10.517c-4.12-1.7-4.38-2.292-10.84-3.013q-0.105,4.082-.22,8.163c-1.03,2.3-8.46,1.635-5.74,10.736,1.79,0.956,3.59,1.911,5.38,2.867l-0.15,5.441-5.45-.146q-1.47,4.044-2.95,8.089l-2.72-.073c0.78,5.185,3.99,7.333,5.09,13.75l-5.46-.146q2.52,8.233,5.02,16.47l-1.68-.045c-0.05-.291-0.09-0.583-0.14-0.875-0.68-.263-1.35-0.526-2.02-0.789-0.1-.571-0.2-1.142-0.29-1.714l-1.35-.529-0.3-1.721c-0.61-.509-1.23-1.019-1.84-1.529-0.06.244-.13,0.488-0.19,0.732-1.52.41-1.31,0.3-2.09,2.386l-1.35-.529c-0.13.484-.25,0.969-0.37,1.453q0.825,1.122,1.65,2.239l-0.18.722c1.06,0.678,2.12,1.354,3.17,2.03l-0.18.718c0.45,0.174.89,0.348,1.34,0.522-0.06.239-.13,0.477-0.19,0.716l2.01,0.781c-0.07.238-.13,0.476-0.19,0.714,1.34,1.352,2.91,1.868,5.14,2.783l0.57-2.133c-0.63-1.069-1.27-2.146-1.91-3.22l3.04,0.082c-0.04,1.813-.09,3.627-0.14,5.441l-5.46-.146c-0.02.907-.04,1.814-0.07,2.721-0.17,3.845,3.3-1,2.66,2.793q-1.485,4.046-2.95,8.089l2.73,0.073-0.15,5.442,2.73,0.073c-1.55,5.363-3.03,3.574-8.33,5.222,4.08,7.473,7.5,6.872,7.67,19.264l10.91,0.292c-2.34,3.466-1.96,3.19-5.6,5.3,3.54,4.327,5.79,5.032,13.49,5.806-1.71,4.111-2.3,4.369-3.02,10.81,6.1-2.133,14.93-2.518,24.61-2.063q-1.5,5.4-3.01,10.81l13.63,0.365c0.02-.907.05-1.814,0.07-2.721l2.73,0.073-3.09,13.531,5.45,0.146c1.5,5.475-.44,2.331,2.58,5.514-0.02.907-.05,1.814-0.07,2.721,8.94-4.577,12.79,3.2,19.16-2.21,13.81,0.821,19.25.717,22.11-10.3l10.83,3.013q1.515-5.4,3.02-10.81c3.43,1.775,5.75,2.8,8.03,5.661,5.23-4.258,5.84-8.96,5.97-18.9,5.69,4.784,1.35,5.674,10.69,8.454l3.09-13.53,8.18,0.219q0.21-8.162.44-16.324l2.72,0.073c0.03-.907.05-1.814,0.08-2.721l16.36,0.439c0.02-.907.05-1.814,0.07-2.721l2.73,0.073c3.1-5.131-1.78-11.313-2.37-13.676l11.13-7.87c1.5-2.882,1.99-6.85,1.92-11.127,0.55,0.534,1.11,1.068,1.66,1.6l-0.33.708c0.73,1.707.83,3.014,2.39,4.351-0.55,2.579.11,1.677,0.54,3.554,0.2,0.084.4,0.169,0.61,0.253,0.14,1.665-1.24,1.839-.41,3.964a1.343,1.343,0,0,1-.94.437c-1.06.5-.13,0.274-1.54,0.187a8.353,8.353,0,0,0-.43,5.536c0.2,0.083.4,0.166,0.61,0.248-0.22.453-.43,0.905-0.64,1.358q0.585,1.047,1.17,2.092c0.01,0.255-.64,2.477-0.68,2.936l-1.2-.49c0.1-.224.21-0.448,0.32-0.672-0.81-.327-1.62-0.654-2.42-0.982,0.1-.224.21-0.449,0.32-0.673-1.01-1.182-2.06-1.609-3.93-2.4a9.219,9.219,0,0,0-1.87,2.457c0.43,1.029.08,1.447,0.27,2.509,0.21,0.081.41,0.163,0.61,0.244l-0.63,1.339,0.9,1.155c0.3,1.119.09,2.34,0.55,3.385q-1.53,1.741-3.06,3.475l-1.2-.48c-1.01,1.153-2.03,2.3-3.03,3.452l-1.2-.477c-1.42,3.319-.79,4.845-1.54,7.835,0.4,0.156.79,0.313,1.19,0.469,0,0.506-.01,1.011-0.01,1.515,0.49,0.447.98,0.893,1.48,1.339-0.11.715-.21,1.429-0.32,2.141q1.17,2.711,2.32,5.4a29.893,29.893,0,0,1-.98,10.658l-1.74-.674c0.2-.409.4-0.818,0.59-1.228-1.39-1.068-1.21-.676-0.85-2.528-1.61-1.084-1.55-1.774-3.5-2.83a20.455,20.455,0,0,0-3.21,5.341c1.61,4.36-4.87,13.889-7.98,16.889-1.05-1.188-1.73-2.776-2.89-2.492l-0.57-.218c-0.47.991-.93,1.98-1.39,2.966a6.45,6.45,0,0,0-1.7.749,9.906,9.906,0,0,0-4.63-3.14l-0.54,1.187c-0.19-.072-0.38-0.145-0.58-0.217q0.51,3.312,1.01,6.593-1.485,3.206-2.95,6.38l0.57,0.211-0.27.575c-0.18-.07-0.37-0.141-0.56-0.211-0.27.574-.53,1.148-0.8,1.721-0.74.172-1.49,0.343-2.23,0.514q-1.305,2.853-2.61,5.681l-1.39.15c-0.44.5-.89,0.989-1.34,1.482-0.18-.069-0.37-0.137-0.56-0.206-0.26.562-.51,1.123-0.77,1.684-0.19-.069-0.37-0.138-0.56-0.206l-0.51,1.119c-0.19-.068-0.38-0.137-0.56-0.205l-0.51,1.117-1.38.147c-0.61.86-1.22,1.719-1.82,2.575-0.19-.068-0.38-0.136-0.56-0.2-0.17.37-.34,0.739-0.5,1.108-0.73.165-1.46,0.33-2.18,0.5-0.17.368-.33,0.736-0.5,1.1-0.72.165-1.45,0.329-2.17,0.494-0.09.183-.17,0.366-0.25,0.549-1.18.487-1.43,0.2-2.73,0.291l-0.24.548q-1.56-.879-3.12-1.762l-1.29,1.447c-2.42,1-1.23,1.968-3.03,3.966-0.19-.067-0.38-0.133-0.56-0.2-0.24.543-.48,1.086-0.71,1.628-0.19-.067-0.38-0.133-0.56-0.2l-0.48,1.083c-0.18-.067-0.37-0.133-0.55-0.2-1.87,1.71-1.53,2.988-4.43,2.78-1.12.584-1.6,0.5-3.24,0.085,0.43-2.532.88-5.079,1.32-7.641-0.38-.134-0.75-0.269-1.13-0.4-0.83.477-2.27,0.426-2.94,0.836-0.15.363-.31,0.727-0.46,1.09l-1.35.144c-0.87.525-1.73,1.05-2.6,1.574l-1.12-.4-1.8,1.228-2.47-.256c-0.08.18-.15,0.361-0.23,0.541-1.31-.465-2.62-0.93-3.94-1.4q3.285-5.694,6.62-11.494l-1.71-.615c-1.38,1.068-2.83,1.045-3.98,1.761-0.42.488-.83,0.975-1.24,1.461l-1.14-.407-1.8,1.254c-0.38-.136-0.77-0.271-1.15-0.407-0.33.3-.67,0.6-1,0.9-1.69.456-.79-0.954-2.37,1.047-1.14.6-2.54,3.964-2.92,5.816-0.85,4.113-2.35,8.3-4.98,11.06l-1.88-.055q1.11-5.341,2.25-10.775l-0.57-.2c-0.88.391-.08,0.216-1.34,0.143-2.05,2.914-5.19,3.186-7.05,6.691l-1.9-.056a0.845,0.845,0,0,0-.93-0.929l-0.96.873-5.69-.168c0.06-.178.13-0.357,0.19-0.535-0.38-.131-0.75-0.263-1.13-0.394,1.68-4.766,3.94-6.027,5.69-10.246-0.19-.067-0.38-0.134-0.58-0.2-0.06.183-.13,0.366-0.2,0.549a5.383,5.383,0,0,0-1.55.693c-2.12.512-3.23,0.054-4.63,2.071a17.244,17.244,0,0,0-4.59.231c-0.07.181-.13,0.363-0.2,0.544q-2.58-.9-5.17-1.8c0.06-1.41.12-2.825,0.19-4.244-0.33-.32-0.65-0.639-0.97-0.959q0.48-1.383.96-2.772c-0.2-.068-0.39-0.136-0.58-0.205-1.72,1.367-4.15,1.2-6.37,1.5l-1.17-.407c-0.83.535-1.66,1.07-2.48,1.6l-1.35.146c-0.06.184-.12,0.369-0.19,0.553-0.38-.136-0.77-0.271-1.16-0.406l-0.18.552c-0.39-.136-0.78-0.271-1.16-0.406l-1.71,1.248q-3-.736-6.01-1.476a4.448,4.448,0,0,1,1.88-1.808c0.2,0.068.39,0.136,0.59,0.2,0.43-.672.87-1.345,1.3-2.019l1.35-.147c0.38-.49.76-0.98,1.13-1.47,0.2,0.068.39,0.137,0.59,0.205a4.128,4.128,0,0,0,2.09-2.391q-2.355-.826-4.7-1.656c-0.07.188-.13,0.376-0.19,0.564-0.19-.069-0.39-0.138-0.58-0.207l0.18-.564c-0.99-.346-1.97-0.692-2.95-1.038l0.18-.567-1.19-.416,0.18-.568c-0.98-.348-1.97-0.7-2.96-1.044l0.18-.57c-0.4-.139-0.79-0.279-1.19-0.419l0.18-.571c-2.11-2.176-3.33-1.446-2.34-5.29,1.78,0.169,1.39.314,2.33-1.1l0.6,0.213c1.06-.946.08-5.637-0.19-5.894-0.6-.216-1.2-0.431-1.81-0.647-0.86.539-1.5,0.435-2.34,1.116-1.48.843-1.58,3.738-2.79,4.823l-3.69,1.255c-0.11.385-.23,0.77-0.34,1.155l-2.91.883c-0.11.383-.22,0.767-0.34,1.15l-1.36.152c-0.11.383-.23,0.765-0.34,1.147l-0.6-.211c-0.36.5-.73,1-1.09,1.506-1.77-.166-1.39-0.31-2.29,1.082-2.88-.277-3.93,1.339-7.39.546,1.02-1.863,2.29-2.018,3.52-3.156q0.63-1.041,1.26-2.085c1.65-1.272,1.97.436,3.39-2.616q-7.41-1.973-14.85-3.957c0.05-.2.11-0.39,0.16-0.585-1.11-.819-2.23-1.64-3.35-2.463,0.16-.588.31-1.178,0.47-1.768,1.74-.365.57-0.584,1.69-1.34l1.38-.158c0.06-.2.11-0.4,0.16-0.593,3.14-.937,6.88.463,8.81-2.738-0.2-.073-0.41-0.146-0.61-0.219a8.733,8.733,0,0,0-5.83-3.4c-0.05.2-.1,0.4-0.16,0.6-1.23-.441-2.47-0.882-3.7-1.324,0.05-.2.11-0.4,0.16-0.6l-1.24-.442c0.05-.2.11-0.4,0.16-0.605l-1.86-.665c-1.04-.868-2.72-2.4-3.89-3.384q-0.075-1.029-.15-2.06c1.84-.407,3.13-2.442,4.85-2.956,0.41,0.151.83,0.3,1.25,0.452,0.58-.467,1.15-0.934,1.73-1.4,0.42,0.15.84,0.3,1.25,0.452,0.06-.206.11-0.412,0.16-0.618,1.15-.513.92-0.011,1.75-1.407l-0.63-.227c-0.97-2-4.78-3.862-7.22-3.988-0.06.209-.11,0.418-0.16,0.626q-2.22-.8-4.42-1.605c-0.06.209-.11,0.419-0.16,0.628-3.09-.256-4.68-2.649-6.67-3.793l0.15-.633c0.21,0.077.43,0.154,0.64,0.232,2.06-1.918,2.32-.478,4.43-1.145,0.55-.173.81-1.116,1.74-1.442-0.04-1.415.22-.523-0.32-1.508-0.05-6.272-6.7-9.03-6.05-15.665,0.92-.478.26,0.094,0.97-1.081l6.65,1.752a8.123,8.123,0,0,0,1.46-3.069,1.417,1.417,0,0,1-.49-0.908c-2.54-1.138-4.19-3.062-6.05-4.446-4.05-3.018-6.96-1.1-8.59-6.157a1.487,1.487,0,0,1-.51-0.93c4.67,1.43,8.23-.013,9.68-4.54-1.4-1.613-1.35-2.869-3.35-4.279-0.07-2.6-1.39-3.957-2.23-6.169-0.23-.086-0.45-0.171-0.67-0.256q0.375-3.3.75-6.64c2.71,1.038,5.4,2.074,8.1,3.109,0.05-.237.11-0.474,0.16-0.71a16.466,16.466,0,0,1,5.71.647q0.255-1.065.51-2.134c-1.28-1.8-2.58-3.6-3.87-5.41-0.29-.9-0.57-1.8-0.85-2.695-2.31-2.628-3.2.609-2.74-4.236l0.69,0.266c0.1-1.552.21-3.11,0.32-4.673,0.23,0.09.46,0.179,0.68,0.268,0.12-.491.23-0.984,0.34-1.477,2.76,0.859,7.71.24,9.27-1.213,0.23,0.089.46,0.179,0.68,0.269l0.18-.742c-0.23-.09-0.46-0.18-0.68-0.27-1.42-2.348-4.25-2.274-6.53-4.2,0.06-.249.12-0.5,0.17-0.749l-2.07-.819c0.06-.25.11-0.5,0.17-0.751l-1.38-.547c0.05-.252.11-0.5,0.17-0.754l-2.08-.823-0.36-1.789c-1.8-2.42-2.88-2.151-2.47-5.962,1.51-.225,3.42-1.342,4.88-1.4,2.16,0.581,4.31,1.162,6.47,1.742,0.06-.256.12-0.512,0.17-0.768,0.47,0.186.93,0.372,1.4,0.558a6.819,6.819,0,0,1,1.75-.979q-0.075-1.295-.15-2.593c-1.29-1.454-2.68-3.758-4.2-5.081-1.17-.473-2.34-0.945-3.52-1.418l0.18-.784c-0.41-.451-0.83-0.9-1.24-1.355,0.12-.524.23-1.049,0.35-1.575q-2.31-3.518-4.64-7.068c3.14-6.223,11.14-.849,17.3-0.822-0.03-1.78.25-.658-0.34-1.9s0.07-.322-1.24-1.389a25.556,25.556,0,0,1,2.03-5.381l1.44,0.59c0.36-.445.73-0.89,1.09-1.335l2.35,0.07q0.675-2.861,1.36-5.744l-0.72-.3c-0.02-4.1,2.46-8.889,3.48-11.386l2.38,0.072c-0.35,4.574.79,7.939,0.08,12.878,0.96,0.4,1.91.794,2.87,1.191q0.66-1.085,1.32-2.172l0.72,0.3c0.13-.55.27-1.1,0.41-1.652l1.64-.229c0.58-1.281,1.16-2.565,1.75-3.852,0.86-.254,1.71-0.509,2.57-0.763,0.21-.836.42-1.673,0.64-2.512l0.72,0.3q0.21-.839.42-1.68l0.72,0.3c2.19-2.983-.67-4.208,3.96-3-0.07.282-.14,0.564-0.22,0.845q2.175,0.916,4.33,1.83c0.44,2.364.89,4.718,1.33,7.061l1.77,0.743A41.678,41.678,0,0,0,1701.96,396.832Zm-4.18,183.786c-0.05.184-.11,0.367-0.17,0.551-0.47-.859-0.23-0.082-0.23-1.307,0.39,0.136.78,0.271,1.16,0.407-0.05.184-.11,0.368-0.17,0.552C1698.17,580.753,1697.98,580.685,1697.78,580.618Zm169.46-125.585-0.33.73c0.31,0.42.62,0.84,0.92,1.259-0.24.537-.48,1.073-0.73,1.609-0.21-1.359-.44-2.674-0.68-3.945C1866.69,454.8,1866.97,454.917,1867.24,455.033Zm1.24-14.5c-0.12.25-.23,0.5-0.34,0.752-0.25-.106-0.5-0.212-0.74-0.318,0.94-1.773,1.57-3.465,2.67-4.238l1.2,0.032c0.27,0.273.55,0.546,0.82,0.819q-0.51,1.135-1.02,2.267C1870.2,440.078,1869.34,440.306,1868.48,440.535Z"/>
  <path id="right_ear_spots_fuzzy" data-name="right ear spots fuzzy" class="cls-1" d="M1886.55,481.115c-0.45,17.068-16.49,23.066-19.48,34.861,0.27,0.81.52,1.6,0.79,2.41-1.96-.656-2.16-2.716-2.63-2.828-6.71-1.6-9.98,1.137-13.7,2.355q0.135-5.441.29-10.883l-13.71,2.356c-0.4-6.4-.6-6.859-2.43-10.956l-2.73-.073c0.7-4.483,3.57-2.827,5.6-5.3q-3.915-6.911-7.82-13.823l8.18,0.219q-1.185-6.837-2.36-13.676c5.14-1.785,10.73-2.416,19.16-2.21q-1.185-6.837-2.36-13.676l8.18,0.219q5.265,6.946,10.54,13.9,4.335,0.987,8.68,1.973C1882.69,471.057,1884.64,476.146,1886.55,481.115Zm-103.92,62.179c-5.63-8.608-11.6-2.656-21.82-.585,0.07-2.72.15-5.441,0.22-8.162l-10.83-3.013q1.5-5.4,3.01-10.809c-4.17-2.525-5.6-4.144-7.96-8.382,9.54-4.945,7.73-8.39,5.97-18.9l8.18,0.219c0.02-.907.05-1.814,0.07-2.721,3.19-3.016,1.09.019,2.87-5.368,10.11-1.64,14.51-4.664,27.42-4.711l-0.15,5.441,13.63,0.366c1.01,2.219,5.31,5.587,5.31,5.587,1.8,4.3-3.59,10.273-3.02,10.81l5.46,0.146q1.245,4.118,2.51,8.235l-8.18-.219c1.08,6.539,2.92,8.64,5.08,13.749l-16.5,5q-0.15,5.442-.29,10.883l-2.73-.073c-0.02.907-.05,1.814-0.07,2.721Zm-74.28,22.514c6.62,1.739,5.93,3.009,10.76,5.733,1.75-8.493,2.96-11.328,11.27-13.311q1.245,4.118,2.51,8.235c4.21-1.458,4.53-1.954,10.98-2.428q1.245,4.116,2.51,8.235c8.62-.078,5.25-5.182,8.1,2.94l2.73,0.073-0.15,5.441c2.11,2.625,5.48,2.244,8.04,5.661-4.77,2.939-3.74,1.622-5.67,8.016l13.63,0.365a21.25,21.25,0,0,1-1.62,4.666c-0.64-.215-1.27-0.414-1.93-0.657-2.53.515-2.53,0.373-6.81-.218-1.01,2.515-2.03,5.016-3.03,7.5-7.25,1.434-7.79,2.94-18.22.043-3.02-2.379-8.42.654-14.83-2.989-1.46-.833-6.26-8.044-8.18-9.185-6.2-1.26-12.44-2.529-18.68-3.795q-1.26-8.229-2.54-16.456,4.05,1.469,8.11,2.939Q1706.83,571.213,1708.35,565.808Zm-71.79-135.979a16.922,16.922,0,0,0,4.31,6.207c1.5-2.41,9.01-10.021,13.86-7.8-0.03.907-.05,1.814-0.08,2.72,3.03,3.183,1.09.039,2.58,5.515,7.17,0.405,9.25,1.307,13.57,3.086-1.69,4.115-2.2,4.408-3.02,10.81l8.18,0.219q-1.725,13.566-3.46,27.134l-5.45-.147q1.185,6.838,2.36,13.677l-13.63-.365c0.02,7.164.81,9.285,2.36,13.676,8.6-2.52,4.18-1.4,13.63.366q-0.105,4.08-.22,8.162l8.04,5.66c-0.07,2.721-.15,5.442-0.22,8.162l2.73,0.073c1.92,5.336.13,7.137,2.43,10.956l-2.72-.073c-3.19,3.015-.04,1.084-5.53,2.575,1.56,7.5,3.4,6.288,5.09,13.749l-32.65-3.6-0.06,2.157c-6.77-11.356-13.42-23.256-15.06-29.852a22.681,22.681,0,0,1-.34-9.161q1.575-6.241,3.14-12.482l-1.69-.045a17.832,17.832,0,0,0-.57-3.071c-0.13-.165-0.25-0.334-0.37-0.5,0.01-.633.03-1.265,0.05-1.9l-1.49-.04c-0.4-.537-0.8-1.079-1.2-1.617q0.165-6.009.32-12.02a29.351,29.351,0,0,1-5.32-1.779c1.5-11.69,10.1-23.994,13.59-31.378A132.563,132.563,0,0,1,1636.56,429.829ZM1775,420.57l-5.45-.146,5.01,16.47-10.91-.292,2.37,13.677-16.29-3.159c-0.98,2.7-1.97,5.393-2.95,8.089-8.27-3.1-16.56-.718-29.99-0.8-1.51-3.129-4.68-4.439-5.31-5.587l0.15-5.442-2.73-.073q1.5-5.4,3.02-10.809c-0.01-.032-6.72-6.022-7.96-8.382,9.9-6.307,1.08-4.872,5.81-13.457l2.73,0.073c3.66-5,4.6-5.054,5.82-13.457l19.09,0.511,5.67-8.016,2.73,0.073-0.15,5.441c7.18-.021,9.31-0.81,13.71-2.355,0.61,6.95-.61,9.13,5.16,11.029,2.42-1.545-.82-3.972,2.8-2.648,0.38,0.139-.11,1.988,5.38,2.867Q1773.85,412.371,1775,420.57Zm79.51-14.2c0.86,1.838,1.73,3.676,2.59,5.514l-2.73-.073c-3.19,3.015-.04,1.084-5.53,2.575q-1.575,8.124-3.16,16.251l-2.73-.073c-3.19,3.014-.04,1.083-5.53,2.574l0.15-5.441q-6.93,3.9-13.85,7.8c0.02-.907.05-1.814,0.07-2.721l-2.73-.073q0.12-4.082.22-8.162l-2.72-.073c-1.38,1.126-3.55,4.951-8.26,2.5,0.03-.906.05-1.813,0.07-2.72-6.56-8.212,2.8-11.6-2.21-19.118-2.52-3.786-6.96-.237-10.84-3.013l-2.58-5.515c3.65-2.105,3.27-1.83,5.6-5.3l-5.45-.146c0.02-.907.05-1.814,0.07-2.721l-8.18-.219c2.17-7.463.92-6.066,8.4-7.943,3.28-3.618,5.09-4.024,11.05-5.149l-2.43-10.956,13.56,3.086c0.02-.907.05-1.814,0.07-2.721l-2.72-.073,0.18-6.718c0.28,0.072.56,0.114,0.85,0.195,16.1,4.6,20.53,29.125,29.08,37.942a23.92,23.92,0,0,0,12.52,6.7c-0.03,1.287-.06,2.574-0.1,3.861Z"/>
  <path id="left_ear_spots_fuzzy" data-name="left ear spots fuzzy" class="cls-1" d="M1159.27,485.754c3.78,0.8-1.1,1.942,2.66,2.794q5.52-2.574,11.05-5.149-0.105,4.08-.22,8.162c7.59-1.766,6.12-.6,8.4-7.943l5.46,0.146c-0.03.907-.05,1.814-0.08,2.721l11.13-7.87c-0.03.907-.05,1.814-0.07,2.72q2.685,1.434,5.38,2.867,3.645,16.433,7.3,32.868l-2.72-.073-0.15,5.441c-1.84.858-3.69,1.717-5.53,2.575q-0.21,8.161-.43,16.324l-2.73-.073c-0.03.907-.05,1.814-0.07,2.72l-16.37-.438c-0.02.907-.04,1.814-0.07,2.721,0,0-14.76-2.905-19.01-3.232q0.1-4.082.22-8.162l-10.91-.293c0.02-.906.05-1.813,0.07-2.72,2.87-2.284,3.9-4.591,5.67-8.016l-5.45-.146,0.15-5.442-8.18-.219q1.5-5.4,3.01-10.81l-10.9-.292c0.04-1.813.09-3.627,0.14-5.441q9.615-2.465,19.24-4.93C1156.98,490.123,1157.57,489.865,1159.27,485.754ZM1043.65,523.5q2.775-1.287,5.53-2.574l13.56,3.086c0.84,2.745,1.67,5.49,2.51,8.235l8.25-2.5c-0.02.907-.05,1.814-0.07,2.721,3.1,2.85,8.28,13.461,7.67,19.264a5.061,5.061,0,0,0-2.87,5.368l2.72,0.074c-0.04,1.813-.09,3.627-0.14,5.441l-8.18-.219,2.43,10.956-8.18-.22c-4.58,7.231-11.37,10.188-15.81,16.481a31.253,31.253,0,0,0-6.37-3.462c-9.47-3.533-17.84-.729-25.92.967-0.45-.565-0.9-1.131-1.34-1.7-6.91-4.468-5.22,2.78-10.77-5.734l-2.72-.073q0.135-5.44.29-10.882c-1.79-.956-3.59-1.912-5.382-2.867q0.437-16.323.874-32.649l8.178,0.219q2.955-8.088,5.89-16.178c3.04,2.38.41-.334,2.66,2.794l2.72,0.073-0.21,8.162,2.72,0.073c4.2-15.678,10.66-5.7,19.46-13.092C1041.98,518.006,1042.82,520.752,1043.65,523.5Zm-11.37-84.706c-6.03.934-4.99,2.408-5.53,2.574L1013.12,441q-1.44,2.683-2.87,5.368c-4.45-.64-4.6-5.309-5.31-5.587-5.767-2.244-8.381,3.5-10.983,2.428q-1.29-2.757-2.581-5.514l-16.215-5.88c0.006-.207.011-0.414,0.017-0.621,1.089-1.664,2.067-3.252,2.856-4.747,5.621-10.663,9.131-22.176,13.008-32.8a104.124,104.124,0,0,0,12.408.812c2.37-3.589,3.92-6.6,8.4-7.943l-0.15,5.441c1.05,0.2,5.88-2.558,10.98-2.428l-2.94,8.089,10.91,0.292q-1.515,5.4-3.02,10.81l8.18,0.219c-0.98,2.7-1.97,5.393-2.95,8.089l2.73,0.073,2.43,10.956-5.45-.146C1032.47,431.534,1032.38,435.162,1032.28,438.79Zm71.99-38.911c-0.07,2.72-.15,5.441-0.22,8.162l13.71-2.356c-0.03.907-.05,1.814-0.07,2.721-3.19,3.016-1.09-.019-2.88,5.368l10.91,0.292c1.82,11.077,1.71,13.536-.66,24.487l5.46,0.146c-1.16,10-2.54,11.394-11.27,13.311q1.17,6.837,2.36,13.677c-2.7-.98-5.41-1.96-8.11-2.94q-0.105,4.08-.22,8.162c3.02,3.183,1.09.039,2.58,5.514l-8.18-.219-2.58-5.514-8.18-.22c0.03-.906.05-1.813,0.07-2.72l-2.72-.073c-0.03.907-.05,1.814-0.08,2.72q-4.155,2.611-8.32,5.223c0.54-8.59,5.47-4.956-2.51-8.236-0.02.907-.05,1.814-0.07,2.721l-10.91-.292c0.02-.907.05-1.814,0.07-2.721,3.65-2.1,3.27-1.83,5.6-5.295-7.17-.405-9.25-1.307-13.56-3.086,0.03-.907.05-1.814,0.07-2.721l2.73,0.073c0.02-.906.05-1.813,0.07-2.72l-2.72-.073q1.5-5.4,3.01-10.81l-10.9-.292c0.02-.907.05-1.814,0.07-2.721,8.44-4.236,13.38-8.566,14.22-21.4l8.18,0.219c0.1-3.627.19-7.256,0.29-10.883,6.62,1.739,5.94,3.01,10.76,5.734,0.72-6.441,1.31-6.7,3.02-10.81,2.7,0.98,5.41,1.96,8.11,2.94,0.05-1.814.09-3.628,0.14-5.442Zm117.25,3.141c-2.76,3.988-2.35,6.648-3.09,13.53l-5.45-.146q-1.47,4.044-2.95,8.089l-8.1-2.94q-1.515,5.4-3.02,10.81c-3.15-.2-10.84-3.013-10.84-3.013q-1.425,2.683-2.87,5.368l-5.45-.146c0.05-1.813.09-3.627,0.14-5.441l-13.63-.365c2.23-9.412,5.38-11.7,6.11-24.34l-5.46-.147c1.58-6.5,3.75-8.276,5.82-13.457l-2.72-.073c-3.03-3.181.01-1.084-5.39-2.867q1.485-4.044,2.95-8.089l13.71-2.355q1.425-2.685,2.87-5.369l10.91,0.293q6.045-1.04,12.1-2.08c0.52,0.559,1.04,1.116,1.55,1.671,0,0.258-.01.516-0.02,0.774,0.29,0.044.58,0.087,0.86,0.131,6.89,7.515,12.68,14.541,14.99,19.352a23.02,23.02,0,0,1,1.84,5.5l-1.98-.054-0.15,5.442Z"/>
</svg>
