<svg id="Viking_Helmet" data-name="Viking Helmet" xmlns="http://www.w3.org/2000/svg" width="3000" height="3000" viewBox="0 0 3000 3000" shape-rendering="geometricPrecision">
  <defs>
    <style>
      .cls-1 {
        fill: #31323d;
      }

      .cls-1, .cls-10, .cls-11, .cls-12, .cls-13, .cls-14, .cls-2, .cls-3, .cls-4, .cls-5, .cls-6, .cls-7, .cls-8, .cls-9 {
        fill-rule: evenodd;
      }

      .cls-2 {
        fill: #b8916c;
      }

      .cls-3 {
        fill: #ffebe9;
      }

      .cls-4 {
        fill: #ac8d6f;
      }

      .cls-5 {
        fill: #756650;
      }

      .cls-6 {
        fill: #7b7061;
      }

      .cls-7 {
        fill: #776b59;
      }

      .cls-8 {
        fill: #d1dadf;
      }

      .cls-9 {
        fill: #dfe5e9;
      }

      .cls-10 {
        fill: #afb7bb;
      }

      .cls-11 {
        fill: #eee9e8;
      }

      .cls-12 {
        fill: #d2d2d2;
      }

      .cls-13 {
        fill: #f4f4f4;
      }

      .cls-14 {
        fill: #cdcdcd;
      }
    </style>
  </defs>
  <g id="helmet_horns" data-name="helmet horns">
    <path id="right_horn_base" data-name="right horn base" class="cls-1" d="M1659.41,781.944s38.58-11.632,65.1-25.9,117.9-81.181,111.59-174.036-62.71-240.283-173.8-304.291c-4.68-2.693-11.54-4.6-12.24-8.62s117.04,5.306,184.05,112.251c64.08,102.267,133.02,233.672,75.22,379.047C1848.96,912.23,1739,932.655,1678.74,928.119S1659.41,781.944,1659.41,781.944Z"/>
    <path id="right_horn_color" data-name="right horn color" class="cls-2" d="M1653.41,793.905s41.58-8.632,68.1-22.9S1851.39,680.85,1845.07,588s-45.86-224.783-149.85-297.31c-4.43-3.086-11.54-4.6-12.24-8.62s80.81,10.437,147.14,111.258,127.7,224.362,68.25,369.073C1842.58,898.223,1739,911.7,1678.74,907.164S1653.41,793.905,1653.41,793.905Z"/>
    <path id="right_horn_highlight" data-name="right horn highlight" class="cls-3" d="M1866.37,616.45s36.17-10.906,47.62-36.745q2.265,11.61,3.73,23.47C1907.11,611.54,1887.76,622.918,1866.37,616.45Zm-65.84-230.506s6.37-11.1,8.1-21.8c2.62,3.19,5.24,6.474,7.84,9.9C1814.09,379.437,1809.32,386.406,1800.53,385.944Zm29.93,59.871s13.04-12.624,17.35-24.619q3.345,5.461,6.6,11C1850.91,438.6,1843.8,446.736,1830.46,445.815Zm29.93,80.827s23.22-11.1,27.1-30.177q4.23,9.7,8.03,19.6C1890.93,521.958,1881.06,528.89,1860.39,526.642Z"/>
    <path id="right_horn_shadow" data-name="right horn shadow" class="cls-4" d="M1919.79,653.254c-1.4,34.916-5.87,71.3-21.42,109.142-55.79,135.827-170.36,161.305-230.63,156.769-16.18-1.218-17.02-15.541-21.36-27.02,31.64-.986,99-15.01,151.16-60.157C1857.41,780.166,1903.17,734.649,1919.79,653.254Z"/>
    <path id="left_horn_base" data-name="left horn base" class="cls-1" d="M1195,797.938s-38.83-7.93-66-19.252C1101.43,767.2,1004.6,709,1004.6,615.517c0-113.34,59.02-265.608,187.18-341.719,5.33-3.167,13.15-5.4,13.96-10.152S1067.15,279.118,993.893,397.8c-73.47,119.026-136.9,263.653-62.968,400.045,73.455,135.508,189.385,138.194,245.385,129.609C1234.25,918.576,1195,797.938,1195,797.938Z"/>
    <path id="left_horn_color" data-name="left horn color" class="cls-2" d="M1194.99,814.145s-35.65-10.76-62.7-21.912c-25.01-10.315-142.611-75.446-140.635-170,1.97-94.242,39.915-241.724,159.535-327.854,5.05-3.635,19.17-11.4,19.94-16.143s-99.51,18.209-172.583,136.131c-73.012,117.818-125.887,249.9-51.308,385.182C1013.97,920.6,1119.32,918.232,1176.22,909.633,1234.45,900.834,1194.99,814.145,1194.99,814.145Z"/>
    <path id="left_horn_highlight" data-name="left horn highlight" class="cls-3" d="M1031.77,442.916q-2.685,6.017-5.15,12.054c-8.88-2.189-26.712-10.1-22.17-38.1C1004.45,416.873,1011.25,448.053,1031.77,442.916Zm-30.32,294.271s25.92-6.1,35.31-12.861q5.1,5.646,10.44,10.9C1036.29,739.949,1016.52,746.092,1001.45,737.187Zm66.35-358.9q-3.885,5.661-7.53,11.418c-4.94-8.486-11.83-23.992-4.95-35.7C1055.32,354.008,1060.04,371.482,1067.8,378.291Z"/>
    <path id="left_horn_shadow" data-name="left horn shadow" class="cls-4" d="M1085.17,913.53c-45.92-11.5-100.136-48.418-137.931-116.978-74.579-135.286-21.7-264.364,51.308-382.182a363.674,363.674,0,0,1,47.313-61.115c-116.3,148.492-98.677,263.843-68.348,370.964,32.748,115.663,202.518,165.654,202.518,165.654l-38.91,30.949Z"/>
  </g>
  <g id="Helmet">
    <path id="helmet_top_base" data-name="helmet top base" class="cls-1" d="M1157.08,763.135s18.29-35.971,53.87-68.852,118.02-94.829,203.51-89.808,183.91,71.8,206.5,101.782,41.9,66.535,41.9,77.834-139.6,44.9-248.4,44.9S1157.08,763.135,1157.08,763.135Z"/>
    <path id="helmet_top_color" data-name="helmet top color" class="cls-5" d="M1169.05,763.135s15.3-26.99,50.88-59.871,109.04-91.836,194.53-86.814,174.93,68.8,197.52,98.788,38.91,57.554,38.91,68.853-127.63,44.9-236.43,44.9S1169.05,763.135,1169.05,763.135Z"/>
    <path id="helmet_top_highlight" data-name="helmet top highlight" class="cls-6" d="M1611.98,715.238c19.88,26.378,34.88,50.875,38.21,64.082l-26.24,4.771s-41.61-93.671-113.72-125.731c-44.35-19.716-35.28-24.233-21.72-24.793C1546.43,655.826,1595.98,694,1611.98,715.238Z"/>
    <path id="helmet_top_shadow" data-name="helmet top shadow" class="cls-7" d="M1568.99,798.481C1569.31,798.384,1569.25,798.4,1568.99,798.481Zm-0.35.107c0.13-.042.25-0.077,0.35-0.107C1568.9,798.507,1568.78,798.543,1568.64,798.588Zm-0.54.163c0.2-.062.4-0.12,0.54-0.163C1568.46,798.641,1568.29,798.693,1568.1,798.751Zm-273.35,9.288c-4.31-.54-9.73-1.553-15.93-2.912a858.568,858.568,0,0,1-109.77-41.992s12.11-21.333,39.78-49.168c7.16,17.822,50.24,71.374,53,37.194,2.55-31.706,13.14-78.433,16.74-93.719a301.566,301.566,0,0,1,44.2-23.557c7.34,16.183,51.82,107.77,130.6,135.238,86.52,30.169,113.72,29.936,113.72,29.936-4.85,1.479-16.52,7.352-59.85,14.968S1329.21,812.368,1294.75,808.039Zm273.35-9.288-1.01.308S1567.59,798.908,1568.1,798.751Z"/>
    <path id="top_stripe_base" data-name="top stripe base" class="cls-1" d="M1288.76,817.02s5.84-79.137,11.97-113.756,17.96-89.808,17.96-89.808,38.09-35.44,92.78-26.942,87.32,16.368,98.76,29.936c0,0,8.93,51.325,8.98,92.8s-5.99,110.763-5.99,110.763-64.58,8.98-110.73,8.98S1288.76,817.02,1288.76,817.02Z"/>
    <path id="top_stripe_color" data-name="top stripe color" class="cls-8" d="M1300.73,817.02s5.84-79.137,11.97-113.756,17.96-80.827,17.96-80.827,26.12-32.447,80.81-23.949,75.35,16.368,86.79,29.936c0,0,8.93,39.351,8.98,80.827s-5.99,110.763-5.99,110.763-52.61,8.98-98.76,8.98S1300.73,817.02,1300.73,817.02Z"/>
    <path id="top_stripe_highlight" data-name="top stripe highlight" class="cls-9" d="M1462.34,616.45s12.72,38.916,11.98,50.891c0,0,11.97.748,20.94,5.987,0,0-6.73-45.652-14.96-50.891Z"/>
    <path id="top_stripe_shadow" data-name="top stripe shadow" class="cls-10" d="M1414.46,718.232l-5.99,44.9s-43.89,20.279-56.86-8.98,9.98-75.168,17.96-71.846,20.36,23.531,29.93,23.948-17.96-41.91-17.96-41.91-0.56,16.132-20.95-2.993c-15.93-14.944-8.18-43.586-1.65-57.863a88.388,88.388,0,0,1,12.12-3.79,91.7,91.7,0,0,1,7.49,13.755l20.95,41.91Z"/>
    <path id="brim_base" data-name="brim base" class="cls-1" d="M1130.14,936.764s126.47,69.146,281.33,62.865,274.9-49.443,290.3-62.865c0,0-2.85-158.9-29.93-167.641,0,0-136.75,44.228-242.42,44.9s-192.74-20.231-278.33-59.872C1151.09,754.155,1130.14,817.262,1130.14,936.764Z"/>
    <path id="brim_color" data-name="brim color" class="cls-8" d="M1145.11,927.783s111.5,66.148,266.36,59.872S1671.4,944.2,1686.8,930.776c0,0,3.14-137.946-23.94-146.685,0,0-127.77,41.234-233.44,41.91s-186.76-17.237-272.34-56.878C1157.08,769.123,1145.11,808.281,1145.11,927.783Z"/>
    <path id="brim_shadow" data-name="brim shadow" class="cls-10" d="M1411.47,987.655c-154.86,6.276-266.36-59.872-266.36-59.872,0-119.5,11.97-158.66,11.97-158.66,2.47,1.142,4.92,2.2,7.37,3.309-4.31,13.849,1.61,53.569,1.61,53.569s56.19,72.386,71.82,98.788c14.16,23.9,98.29,31.51,114.14,32.741,1.86,1.187,2.58.189,2.58,0.189s-0.92-.06-2.58-0.189c-2.87-1.827-8.46-8.843-18.37-32.741-16.35-39.428,41.9-71.846,41.9-71.846s0.26,80.3,47.89,95.8c42.96,13.981,137.45-4.564,155.55-8.331a3.432,3.432,0,0,0,3.07-.65s-1.1.241-3.07,0.65c-4.18-.867-12.47-8.233-23.87-45.554-16.84-55.165,32.92-71.846,32.92-71.846s17.48,99.905,44.89,104.776c22.3,3.96,45.93-6.436,53.98-10.46,0.01,8.324-.11,13.453-0.11,13.453C1671.4,944.2,1566.32,981.378,1411.47,987.655Z"/>
    <path id="top_spike_base" data-name="top spike base" class="cls-1" d="M1408.47,688.3c-36.44,0-38.81-14.968-47.88-26.942,0,0,1.64-72.667,50.88-101.783,0,0,39.82,13.568,50.87,101.783C1462.34,661.354,1444.92,688.3,1408.47,688.3Z"/>
    <path id="top_spike_color" data-name="top spike color" class="cls-11" d="M1408.47,676.321c-36.44,0-26.83-2.993-35.91-14.967,0,0-4.14-60.589,38.91-92.8,0,0,26.61,5.207,38.9,92.8C1450.37,661.354,1444.92,676.321,1408.47,676.321Z"/>
    <path id="top_spike_shadow" data-name="top spike shadow" class="cls-12" d="M1411.47,670.334a68.9,68.9,0,0,0,15.33,4.41,97.3,97.3,0,0,1-18.33,1.577c-36.44,0-26.83-2.993-35.91-14.967,0,0-4.14-60.589,38.91-92.8l0.03,0.008C1379.71,603.086,1401.38,665.744,1411.47,670.334Z"/>
    <path id="top_spike_highlight" data-name="top spike highlight" class="cls-13" d="M1414.46,580.527c-2.65,3.71,21.55,44.9,14.96,74.839,0,0,8.98.6,11.97-2.993S1420.44,572.145,1414.46,580.527Z"/>
    <path id="front_spike_base" data-name="front spike base" class="cls-1" d="M1408.47,790.078c-40.45,0-55.15-21.631-56.86-35.923,0,0,20.54-75.075,56.86-86.814,0,0,45.41,28.577,56.87,86.814C1465.34,754.155,1448.92,790.078,1408.47,790.078Z"/>
    <path id="front_spike_color" data-name="front spike color" class="cls-11" d="M1408.47,778.1c-40.45,0-43.17-9.656-44.89-23.948,0,0,14.07-57.654,44.89-77.834,0,0,29.04,20.7,44.9,77.834C1453.37,754.155,1448.92,778.1,1408.47,778.1Z"/>
    <path id="front_spike_shadow" data-name="front spike shadow" class="cls-12" d="M1363.68,753.752c0.02-.058.03-0.1,0.05-0.174,0.03-.136.08-0.317,0.13-0.5,0.02-.069.03-0.128,0.05-0.2,0.06-.214.13-0.466,0.2-0.729,0.02-.076.04-0.145,0.06-0.224,0.08-.291.17-0.616,0.26-0.958a1.833,1.833,0,0,0,.07-0.229c0.1-.368.22-0.767,0.34-1.188q0.03-.1.06-0.213c0.13-.447.27-0.923,0.42-1.424,0.02-.055.03-0.112,0.05-0.168,0.16-.532.33-1.089,0.51-1.675a0.24,0.24,0,0,0,.02-0.082c4.66-15.075,16.43-47.324,36.21-64.759-15.47,26-15.12,79.031-8.6,87.9,4.15,5.634,21.38,6.681,34.65,6.607-0.05.013-.09,0.03-0.14,0.043-0.55.15-1.17,0.27-1.75,0.407-1.07.253-2.17,0.492-3.32,0.7-0.69.123-1.39,0.23-2.11,0.335-1.24.183-2.53,0.334-3.86,0.461-0.67.064-1.32,0.136-2.01,0.185-2.06.145-4.21,0.243-6.5,0.243-40.45,0-43.17-9.656-44.89-23.948,0,0,.02-0.061.04-0.145C1363.63,753.952,1363.66,753.845,1363.68,753.752Z"/>
    <path id="front_spike_highlight" data-name="front spike highlight" class="cls-13" d="M1408.47,685.3c-7.18,3.593,27.54,35.325,23.95,65.859,0,0,11.37-1.8,11.97-5.987S1415.66,681.71,1408.47,685.3Z"/>
    <path id="center_brim_circle_base" data-name="center brim circle base" class="cls-1" d="M1465.67,861.6c33.04,38.7,12.03,76.328-7.32,92.85s-65.95,28.769-91.22-.828-20.46-76.994,3.44-97.4S1432.64,822.893,1465.67,861.6Z"/>
    <path id="center_brim_circle_color" data-name="center brim circle color" class="cls-11" d="M1458.84,867.428c33.04,38.7,13.03,63.667-6.32,80.189s-53.3,29.768-78.56.17-21.46-64.332,2.44-84.742S1425.81,828.724,1458.84,867.428Z"/>
    <path id="center_brim_circle_shadow" data-name="center brim circle shadow" class="cls-12" d="M1447.18,951.8c-19.82,14.3-50.14,23.024-73.22-4.014-11.34-13.285-16.78-27.6-17.22-41.193l1.9-16.107a55.612,55.612,0,0,1,17.76-27.442q2.28-1.948,4.59-3.806c-5.42,14.656-4.93,46.117,6.53,68.544C1399.02,950.264,1436.06,951.846,1447.18,951.8Z"/>
    <path id="center_brim_circle_color_highlight_2" data-name="center brim circle color highlight 2" class="cls-13" d="M1395.89,858.213s28.98-10.366,42.52-.891,22.31,25.036,22.66,35.761a58.565,58.565,0,0,0-27.54-27.653C1413.55,856.054,1416.25,859.82,1395.89,858.213Z"/>
    <path id="right_brim_circle_base" data-name="right brim circle base" class="cls-1" d="M1558.13,856.287c-10.39,35.189,14.07,68.717,44.49,81.658s79.95-9.724,89.54-40.249-13.67-82.1-53.61-89.959S1568.53,821.1,1558.13,856.287Z"/>
    <path id="right_brim_circle_color" data-name="right brim circle color" class="cls-11" d="M1566.04,860.536c-10.39,35.189,8.99,59.193,39.41,72.134s69.21-8.7,78.8-39.222-11.42-67.3-51.36-75.162S1576.44,825.346,1566.04,860.536Z"/>
    <path id="right_brim_circle_shadow" data-name="right brim circle shadow" class="cls-12" d="M1646.4,932.174a57.391,57.391,0,0,1-28.95,3.8l-7.49-1.728a46.769,46.769,0,0,1-4.51-1.578,90.525,90.525,0,0,1-21.27-12.474l-5.99-5.449c-13.1-13.431-18.87-31.471-12.15-54.211,6.3-21.306,14.87-35.127,29.49-41.015C1586.49,842.287,1562.21,920.049,1646.4,932.174Z"/>
    <path id="center_brim_circle_highlight_1_copy" data-name="center brim circle highlight 1 copy" class="cls-13" d="M1636.03,835.284s28.93,10.52,33.31,26.459,1.21,33.518-5.37,41.993a58.582,58.582,0,0,0-3.56-38.868C1651.01,844.894,1650.69,849.523,1636.03,835.284Z"/>
    <path id="left_brim_circle_base" data-name="left brim circle base" class="cls-1" d="M1141,852.589c7.29-46.528,67.73-44.836,86.31-37.843s49.37,31.622,37.96,72.348-46.93,58.857-82.59,45.367S1133.72,899.118,1141,852.589Z"/>
    <path id="left_brim_circle_color" data-name="left brim circle color" class="cls-11" d="M1149,855.216c6.91-46.6,58.11-41.69,76.7-34.7s42.99,23.223,31.57,63.949-36.81,45.126-71.36,36.449C1149.11,911.674,1143.47,892.538,1149,855.216Z"/>
    <path id="left_brim_circle_shadow" data-name="left brim circle shadow" class="cls-14" d="M1185.91,920.916c-36.8-9.242-42.44-28.378-36.91-65.7,1.83-12.36,6.8-21.069,13.43-27.1-4.81,19.912-14.02,84.953,68.28,92.881C1218.54,926.323,1203.4,925.31,1185.91,920.916Z"/>
    <path id="left_brim_circle_highlight_1_copy_2" data-name="left brim circle highlight 1 copy 2" class="cls-13" d="M1216.65,826.021s26.82,10.9,30.75,27.008,0.79,33.78-5.41,42.249a63.565,63.565,0,0,0-2.94-39.2C1230.49,835.86,1230.15,840.521,1216.65,826.021Z"/>
  </g>
</svg>
