<?xml version="1.0" encoding="utf-8"?>
<svg id="Background" viewBox="0 0 1500 1500" xmlns="http://www.w3.org/2000/svg">
  <defs>
    <style>.cls-1{fill:#404040;}.cls-2{fill:#fefefe;}</style>
  </defs>
  <title>converse</title>
  <path class="cls-2" d="M 430.804 1017.251 C 430.804 1026.459 440.772 1032.214 448.746 1027.61 C 456.72 1023.006 456.72 1011.497 448.746 1006.893 C 446.928 1005.843 444.865 1005.29 442.766 1005.29 C 436.16 1005.29 430.804 1010.646 430.804 1017.251 Z"/>
  <path class="cls-2" d="M 243.106 703.662 C 238.506 708.377 238.506 715.902 243.106 720.617 C 244.003 721.544 244.87 722.501 245.707 723.608 C 247.608 726.322 249.26 729.205 250.641 732.219 C 251.636 734.794 252.495 737.419 253.213 740.083 C 255.664 748.992 266.84 751.905 273.329 745.328 C 276.34 742.276 277.495 737.849 276.357 733.714 C 273.586 722.518 267.984 712.221 260.09 703.811 C 257.861 701.567 254.821 700.318 251.657 700.343 C 248.468 700.316 245.4 701.565 243.136 703.811 Z"/>
  <path class="cls-1" d="M 690.44 546.293 C 691.795 546.296 693.141 546.476 694.448 546.832 C 695.898 547.232 697.28 547.846 698.544 548.656 C 699.22 548.35 699.919 548.103 700.638 547.908 L 704.674 547.37 C 707.362 547.366 710.006 548.079 712.329 549.433 C 723.513 554.379 734.688 559.361 745.85 564.384 C 772.433 576.345 799.944 588.546 827.215 600.058 L 825.899 599.52 C 850.001 609.597 871.83 618.209 892.612 625.804 C 913.395 633.399 936.749 640.995 965.007 649.398 C 1019.878 665.665 1066.227 678.373 1114.042 687.434 C 1126.751 689.856 1139.698 691.979 1152.497 693.743 C 1165.295 695.508 1177.286 696.734 1189.247 697.571 C 1200.072 698.408 1209.79 699.394 1218.94 700.561 C 1235.452 702.397 1251.498 707.2 1266.306 714.735 C 1281.195 722.826 1293.177 735.374 1300.575 750.618 C 1304.89 759.592 1308.006 769.092 1309.845 778.876 C 1311.982 789.139 1313.469 799.527 1314.3 809.975 C 1314.602 814.678 1314.509 819.4 1314.031 824.089 C 1313.57 829.935 1312.311 835.688 1310.293 841.194 C 1309.184 844.12 1307.852 846.959 1306.315 849.686 C 1304.719 852.239 1302.919 854.658 1300.934 856.922 C 1297.97 860.211 1294.651 863.16 1291.036 865.714 L 1291.036 865.714 C 1284.774 870.336 1277.989 874.2 1270.821 877.226 C 1261.901 881.15 1252.754 884.534 1243.431 887.363 C 1227.517 892.031 1211.365 895.843 1195.048 898.786 L 1186.077 900.46 C 1179.858 901.627 1173.428 902.823 1167.119 904.078 C 1158.597 905.784 1149.925 907.577 1141.552 909.312 L 1131.056 911.494 C 1108.42 916.159 1081.687 921.393 1054.834 925.011 C 1036.238 927.615 1017.485 928.975 998.707 929.078 C 993.026 929.078 987.404 929.078 981.932 928.629 C 964.708 927.702 947.185 927.013 930.23 926.326 C 895.633 924.95 859.869 923.546 824.823 920.137 C 815.493 919.24 806.045 918.133 796.894 917.146 L 785.531 915.83 C 773.241 914.425 760.293 912.989 745.91 911.465 C 717.234 908.474 688.467 905.484 666.608 903.302 L 636.018 900.311 L 627.047 899.414 L 623.818 899.085 C 620.827 898.756 617.837 898.427 614.846 898.277 C 611.857 898.128 609.225 898.277 606.922 898.277 C 601.212 898.277 595.41 898.277 589.788 898.457 C 584.167 898.636 578.096 898.636 572.235 898.636 C 568.766 898.636 565.626 898.636 562.637 898.636 C 555.849 898.487 549.749 898.128 544.067 897.59 C 537.623 897.061 531.227 896.059 524.929 894.599 C 522.779 894.064 520.671 893.377 518.62 892.536 L 517.812 892.207 C 515.274 891.272 512.848 890.057 510.576 888.589 C 504.473 884.665 500.032 878.628 498.107 871.634 L 496.91 871.634 C 488.519 871.634 481.72 864.835 481.72 856.444 C 481.696 852.413 483.302 848.54 486.175 845.709 C 526.062 811.946 562.475 774.281 594.871 733.274 C 619.126 702.322 639.417 668.461 655.275 632.473 C 662.813 614.4 668.677 595.672 672.798 576.525 C 672.242 574.949 671.961 573.292 671.961 571.62 C 671.979 568.113 673.217 564.719 675.459 562.022 C 675.669 560.617 675.877 559.211 676.087 557.776 L 676.865 555.952 L 677.642 554.158 C 680.36 549.487 685.363 546.616 690.769 546.622 Z"/>
  <path class="cls-2" d="M 1293.996 738.926 L 1293.996 738.926 C 1289.69 738.824 1285.686 741.13 1283.62 744.906 C 1281.87 748.291 1279.87 751.539 1277.64 754.625 C 1274.61 758.312 1271.225 761.685 1267.532 764.703 C 1262.356 768.449 1256.791 771.627 1250.936 774.182 C 1236.185 779.593 1220.958 783.598 1205.455 786.142 C 1195.856 788.026 1185.897 790.001 1176.3 792.661 L 1168.016 794.994 L 1167.716 794.994 C 1162.425 796.489 1156.983 797.984 1151.539 799.419 C 1142.389 801.752 1133.299 803.845 1124.627 805.639 C 1107.822 809.108 1089.911 812.158 1071.34 814.61 C 1053.4 816.972 1034.62 818.886 1015.453 820.351 C 1007.588 820.95 1000.501 821.428 993.803 821.816 L 992.547 821.816 C 991.65 821.816 990.759 821.918 989.886 822.116 L 989.437 822.116 L 986.447 822.265 L 984.144 822.265 L 983.636 822.265 C 975.024 822.713 966.143 823.192 957.412 823.371 L 950.683 823.371 C 923.768 822.884 896.894 820.958 870.186 817.6 L 869.289 817.6 C 857.745 816.345 845.845 815.089 834.093 814.072 C 796.176 810.812 757.512 809.676 720.104 808.599 L 719.865 808.599 C 708.302 808.262 696.741 807.903 685.178 807.523 C 661.495 806.715 636.945 805.34 610.092 803.367 C 597.892 802.47 585.683 801.524 573.461 800.526 C 560.992 799.539 548.103 798.522 535.276 797.535 L 534.708 797.535 C 529.436 797.753 524.929 801.396 523.614 806.507 C 522.836 807.702 522.029 808.899 521.162 810.064 C 516.565 815.477 511.566 820.537 506.211 825.195 L 505.253 826.063 L 505.253 826.063 C 503.22 827.887 501.126 829.801 499.273 831.774 C 496.599 834.456 494.13 837.336 491.887 840.386 C 487.306 846.487 484.752 853.872 484.59 861.498 C 484.938 870.782 487.536 879.842 492.156 887.901 C 494.226 891.681 498.226 893.987 502.532 893.882 C 503.286 893.885 504.037 893.816 504.775 893.672 C 507.239 895.616 510.008 897.141 512.968 898.188 C 518.016 899.722 523.273 900.467 528.547 900.401 L 531.538 900.401 C 535.425 900.58 539.372 900.849 543.2 901.088 L 543.888 901.088 C 547.984 901.357 552.201 901.627 556.357 901.836 C 563.683 902.195 571.577 902.494 581.206 902.793 L 592.569 903.151 C 604.919 903.541 618.943 903.959 632.34 904.646 C 650.61 905.604 667.236 907.039 683.174 909.102 C 735.893 915.951 780.029 920.585 822.102 923.665 C 846.922 925.489 869.767 926.655 891.895 927.432 C 907.953 927.941 924.159 928.21 941.503 928.21 C 947.813 928.21 954.481 928.21 961.359 928.21 C 987.942 927.941 1009.801 927.254 1030.135 926.116 C 1042.664 925.399 1053.878 924.592 1064.374 923.605 C 1069.756 923.127 1075.228 922.498 1080.491 921.93 L 1080.67 921.93 C 1085.485 921.393 1090.927 920.794 1096.309 920.286 C 1104.772 919.509 1113.653 918.85 1121.548 918.282 C 1132.97 917.445 1144.812 916.608 1156.384 915.292 C 1175.761 913.109 1196.364 910.029 1215.98 902.315 C 1216.458 902.185 1216.928 902.028 1217.385 901.836 C 1235.13 898.203 1252.602 893.358 1269.685 887.333 C 1274.022 885.778 1277.908 884.343 1281.646 882.758 C 1285.962 881.113 1290.13 879.112 1294.115 876.778 C 1302.429 871.96 1309.097 864.748 1313.254 856.085 C 1315.236 851.776 1316.877 847.318 1318.157 842.748 C 1319.183 838.914 1319.972 835.019 1320.52 831.086 C 1321.902 821.655 1322.391 812.113 1321.985 802.589 C 1321.527 793.053 1320.278 783.571 1318.247 774.241 C 1316.363 765.791 1313.615 757.555 1310.053 749.661 C 1308.882 747.467 1306.976 745.753 1304.671 744.816 C 1302.566 740.972 1298.529 738.585 1294.146 738.597 Z M 944.374 904.736 L 930.678 904.736 C 886.542 904.468 840.971 902.164 791.123 897.709 C 768.815 895.706 745.431 893.284 721.628 890.473 C 709.668 889.068 697.946 887.482 686.972 886.197 C 676.715 884.882 664.605 883.417 652.614 882.489 C 632.43 880.934 611.916 880.306 592.06 879.678 L 583.599 879.409 C 572.624 879.05 560.903 878.661 549.12 878.004 L 541.496 877.495 L 540.987 877.495 C 537.997 877.286 535.006 877.076 532.016 876.927 L 529.027 876.927 C 527.142 876.927 524.989 876.778 522.896 876.568 C 521.885 876.388 520.886 876.149 519.906 875.85 L 519.457 875.581 L 519.188 875.313 C 518.948 874.923 518.709 874.535 518.5 874.116 C 517.89 872.328 516.864 870.71 515.51 869.391 L 514.284 868.435 L 513.058 867.508 C 511.614 866.656 510.002 866.126 508.333 865.953 C 508.333 865.565 508.154 865.146 508.094 864.756 C 508.016 863.513 508.016 862.266 508.094 861.019 C 508.303 860.008 508.572 859.009 508.901 858.029 C 509.643 856.572 510.493 855.173 511.443 853.843 L 511.922 853.274 L 512.251 853.872 C 513.788 856.617 516.381 858.618 519.428 859.404 C 527.92 860.72 536.951 862.125 545.981 863.262 C 555.011 864.398 562.966 865.385 570.8 866.252 C 587.276 868.165 604.022 869.93 620.528 871.514 C 651.776 874.505 683.952 877.076 718.908 879.409 C 780.866 883.505 843.931 886.257 904.932 888.947 C 929.901 890.054 955.767 891.19 981.094 892.387 C 981.094 896.842 981.094 900.789 981.423 904.348 C 969.462 904.587 957.292 904.736 944.015 904.736 Z" style="stroke: rgb(191, 191, 191); stroke-width: 2;"/>
  <path class="cls-2" d="M 985.843 922.406 C 987.449 924.052 987.449 926.679 985.843 928.326 C 985.53 928.65 985.227 928.984 984.935 929.37 C 984.271 930.318 983.694 931.325 983.212 932.377 C 982.864 933.276 982.564 934.193 982.314 935.123 C 981.458 938.234 977.556 939.252 975.29 936.955 C 974.238 935.889 973.835 934.343 974.232 932.899 C 975.2 928.99 977.156 925.394 979.912 922.458 C 980.691 921.674 981.752 921.237 982.857 921.247 C 983.971 921.237 985.042 921.673 985.833 922.458 Z"/>
  <path class="cls-2" d="M 1193.976 868.589 L 1193.976 868.589 C 1199.674 868.831 1205.345 869.498 1210.944 870.584 C 1213.523 871.022 1216.165 871.471 1218.827 871.826 L 1218.691 871.826 L 1219.955 871.983 C 1224.052 872.452 1228.122 873.128 1232.151 874.009 C 1234.397 874.523 1236.597 875.222 1238.729 876.097 C 1239.802 876.533 1240.848 877.031 1241.861 877.59 L 1242.415 877.914 C 1242.929 878.116 1243.422 878.368 1243.887 878.666 C 1244.654 879.173 1245.329 879.809 1245.881 880.545 C 1246.922 881.899 1247.441 883.581 1247.343 885.286 C 1247.299 886.138 1247.093 886.974 1246.738 887.75 C 1246.411 888.437 1245.957 889.057 1245.401 889.577 C 1244.226 890.58 1242.868 891.345 1241.402 891.832 C 1240.013 892.386 1238.583 892.877 1237.225 893.44 L 1235.993 893.9 C 1233.905 894.683 1231.817 895.445 1229.843 896.166 C 1225.332 897.795 1221.26 899.152 1217.407 900.342 L 1214.995 901.063 C 1214.31 901.244 1213.612 901.374 1212.907 901.449 C 1212.56 901.493 1212.212 901.514 1211.863 901.512 C 1211.14 901.511 1210.42 901.416 1209.722 901.23 C 1208.746 900.95 1207.839 900.47 1207.059 899.82 C 1206.328 899.22 1205.688 898.517 1205.159 897.732 C 1204.62 896.925 1204.158 896.068 1203.781 895.174 C 1203.384 894.265 1202.987 893.273 1202.559 892.041 C 1202.34 891.404 1202.121 890.767 1201.901 890.12 C 1201.442 888.731 1200.961 887.301 1200.387 885.943 C 1199.896 884.852 1199.313 883.804 1198.643 882.811 C 1197.965 881.767 1197.203 880.723 1196.472 879.783 L 1195.95 879.083 C 1194.331 876.911 1192.504 874.458 1191.773 871.607 C 1191.596 870.936 1191.945 870.239 1192.587 869.978 C 1192.636 869.272 1193.216 868.719 1193.924 868.704 Z"/>
  <path class="cls-2" d="M 1253.065 884.283 C 1253.852 884.88 1254.589 885.54 1255.268 886.257 C 1255.953 887.001 1256.588 887.789 1257.169 888.616 C 1258.27 890.191 1259.221 891.865 1260.009 893.618 C 1260.183 893.937 1260.232 894.309 1260.145 894.662 C 1260.05 895.005 1259.825 895.297 1259.518 895.477 C 1259.203 895.661 1258.826 895.709 1258.474 895.612 C 1258.128 895.524 1257.834 895.297 1257.66 894.986 C 1256.774 893.014 1255.682 891.142 1254.402 889.4 C 1253.995 888.878 1253.566 888.355 1253.107 887.917 C 1252.773 889.264 1252.491 890.621 1252.115 891.958 C 1251.909 892.982 1250.671 893.399 1249.887 892.709 C 1249.471 892.343 1249.32 891.76 1249.505 891.237 C 1250.079 889.149 1250.444 887.061 1251.071 885.087 C 1251.17 884.749 1251.394 884.462 1251.697 884.283 C 1252.119 884.034 1252.643 884.034 1253.065 884.283 Z"/>
  <path class="cls-2" d="M 1251.593 883.448 C 1252.012 883.725 1252.413 884.028 1252.794 884.356 C 1253.224 884.748 1253.606 885.19 1253.932 885.672 C 1254.122 885.985 1254.171 886.364 1254.068 886.716 C 1253.87 887.44 1253.121 887.866 1252.397 887.666 C 1252.229 887.619 1252.072 887.538 1251.938 887.426 C 1251.729 888.434 1251.425 889.42 1251.029 890.371 C 1250.628 891.338 1250.153 892.274 1249.609 893.169 C 1249.047 894.07 1248.43 894.935 1247.761 895.759 C 1246.466 897.355 1245.019 898.82 1243.438 900.134 C 1241.892 901.435 1240.263 902.635 1238.562 903.725 C 1237.694 904.308 1236.521 903.734 1236.45 902.691 C 1236.413 902.146 1236.706 901.632 1237.194 901.387 C 1238.238 900.708 1239.282 900.008 1240.233 899.298 C 1242.376 897.661 1244.315 895.771 1246.007 893.67 C 1246.987 892.378 1247.814 890.977 1248.471 889.494 C 1248.924 888.379 1249.246 887.216 1249.432 886.027 C 1249.484 885.557 1249.515 885.087 1249.526 884.617 C 1249.53 884.138 1249.783 883.695 1250.194 883.448 C 1250.41 883.324 1250.655 883.259 1250.904 883.26 C 1251.137 883.257 1251.365 883.323 1251.562 883.448 Z"/>
  <path class="cls-2" d="M 1251.917 883.375 L 1251.917 883.375 C 1251.386 882.844 1250.526 882.844 1249.995 883.375 C 1249.75 883.636 1249.609 883.977 1249.599 884.335 L 1249.599 884.69 C 1249.371 886.17 1248.968 887.618 1248.398 889.003 C 1247.64 890.704 1246.684 892.31 1245.547 893.785 C 1243.745 896.023 1241.68 898.035 1239.397 899.779 C 1235.116 902.957 1230.459 905.594 1225.531 907.631 L 1225.635 907.631 L 1225.458 907.704 L 1225.311 907.766 L 1225.426 907.766 C 1220.931 909.672 1216.272 911.167 1211.508 912.235 C 1210.483 912.441 1210.066 913.679 1210.756 914.463 C 1211.123 914.879 1211.705 915.031 1212.228 914.846 C 1215.256 914.173 1218.241 913.319 1221.166 912.288 C 1224.645 911.081 1228.042 909.651 1231.336 908.007 C 1233.904 906.73 1236.381 905.279 1238.75 903.663 C 1241.095 902.083 1243.281 900.279 1245.276 898.275 C 1247.16 896.395 1248.764 894.253 1250.037 891.916 C 1250.658 890.757 1251.172 889.545 1251.572 888.293 C 1251.959 887.03 1252.221 885.733 1252.355 884.419 C 1252.363 884.057 1252.219 883.709 1251.959 883.458 Z M 1249.599 884.419 L 1249.599 884.419 L 1249.599 884.419 Z M 1225.468 907.683 L 1225.468 907.683 L 1225.541 907.683 L 1225.426 907.683 L 1225.426 907.683 Z"/>
  <path class="cls-2" d="M 1245.547 879.282 L 1245.547 879.282 C 1245.287 879.036 1244.945 878.895 1244.587 878.885 C 1243.837 878.885 1243.229 879.493 1243.229 880.242 C 1243.223 880.604 1243.366 880.951 1243.626 881.203 C 1244.029 881.513 1244.4 881.863 1244.733 882.247 C 1244.9 882.481 1245.047 882.729 1245.171 882.988 C 1245.249 883.199 1245.308 883.415 1245.349 883.636 C 1245.368 883.869 1245.368 884.103 1245.349 884.335 C 1245.29 884.645 1245.202 884.95 1245.088 885.244 C 1244.843 885.76 1244.546 886.25 1244.2 886.706 C 1243.366 887.714 1242.421 888.625 1241.381 889.42 C 1238.239 891.713 1234.827 893.61 1231.221 895.069 C 1228.757 896.104 1226.237 897 1223.672 897.753 C 1221.395 898.438 1219.07 898.958 1216.718 899.309 C 1215.363 899.513 1213.989 899.555 1212.625 899.434 C 1212.313 899.385 1212.006 899.311 1211.706 899.215 C 1210.682 899.009 1209.818 899.989 1210.152 900.979 C 1210.285 901.374 1210.593 901.686 1210.985 901.825 C 1211.527 901.986 1212.083 902.091 1212.646 902.138 C 1213.214 902.197 1213.787 902.218 1214.358 902.201 C 1216.181 902.129 1217.994 901.898 1219.777 901.512 C 1221.855 901.085 1223.908 900.544 1225.927 899.893 C 1228.183 899.173 1230.386 898.338 1232.568 897.419 C 1234.638 896.549 1236.656 895.562 1238.614 894.464 C 1240.42 893.455 1242.135 892.291 1243.741 890.987 C 1245.06 889.957 1246.19 888.706 1247.082 887.29 C 1247.464 886.669 1247.749 885.993 1247.928 885.286 C 1248.105 884.529 1248.126 883.743 1247.991 882.978 C 1247.649 881.483 1246.782 880.16 1245.547 879.25 Z M 1241.371 889.483 L 1241.371 889.483 L 1241.245 889.588 L 1241.371 889.483 Z M 1216.99 899.33 L 1216.99 899.33 L 1216.843 899.33 L 1216.99 899.33 Z"/>
  <path class="cls-2" d="M 1252.46 884.033 L 1252.46 884.033 C 1252.257 883.915 1252.026 883.854 1251.791 883.855 C 1251.309 883.86 1250.863 884.112 1250.611 884.523 C 1249.649 886.109 1248.604 887.643 1247.479 889.118 C 1245.461 891.698 1243.141 894.026 1240.567 896.051 C 1236.805 898.823 1232.712 901.114 1228.381 902.869 C 1221.933 905.541 1215.303 907.753 1208.542 909.489 C 1201.801 911.258 1194.96 912.622 1188.056 913.572 L 1188.212 913.572 L 1187.941 913.572 L 1187.941 913.572 L 1185.581 913.864 C 1185.223 913.873 1184.881 914.015 1184.62 914.261 C 1184.09 914.788 1184.09 915.645 1184.62 916.172 C 1184.871 916.432 1185.219 916.576 1185.581 916.569 C 1191.342 915.89 1197.064 914.917 1202.726 913.655 C 1208.532 912.381 1214.265 910.799 1219.903 908.915 C 1223.589 907.672 1227.212 906.294 1230.804 904.738 C 1233.876 903.429 1236.829 901.853 1239.627 900.029 C 1242.287 898.285 1244.739 896.243 1246.936 893.942 C 1249.235 891.464 1251.271 888.756 1253.013 885.86 C 1253.386 885.21 1253.167 884.382 1252.522 884.001 Z M 1240.535 896.072 L 1240.535 896.072 L 1240.4 896.176 L 1240.535 896.072 Z M 1228.266 902.911 L 1228.266 902.911 L 1228.183 902.911 L 1228.266 902.911 Z M 1187.962 913.582 L 1187.962 913.582 L 1188.077 913.582 L 1187.92 913.582 Z"/>
  <path class="cls-2" d="M 986.417 651.97 L 987.912 651.97 C 989.949 652.178 991.955 652.621 993.893 653.285 C 995.089 653.674 996.285 654.182 997.451 654.66 L 998.977 655.378 L 999.963 655.378 C 1001.339 655.397 1002.709 655.537 1004.06 655.797 C 1007.2 656.472 1010.082 658.031 1012.372 660.282 C 1013.344 661.2 1014.236 662.202 1015.034 663.273 C 1014.974 661.341 1015.384 659.421 1016.23 657.681 C 1017.055 656.165 1018.422 655.013 1020.057 654.452 C 1020.805 654.185 1021.594 654.054 1022.39 654.062 C 1023.276 654.075 1024.158 654.173 1025.021 654.362 C 1026.717 654.789 1028.347 655.444 1029.866 656.305 C 1031.885 657.394 1033.821 658.623 1035.667 659.984 C 1039.405 662.578 1042.772 665.668 1045.684 669.163 C 1048.432 672.54 1050.741 676.247 1052.562 680.198 C 1056.841 690.053 1059.176 700.645 1059.44 711.386 C 1059.828 721.678 1059.308 731.986 1057.884 742.185 C 1057.884 742.485 1057.884 742.784 1057.884 743.053 C 1057.478 744.816 1055.899 746.061 1054.087 746.043 L 1053.4 746.043 C 1052.87 746.408 1052.248 746.617 1051.605 746.642 L 1051.365 746.642 C 1047.542 746.402 1043.81 745.386 1040.391 743.651 C 1037.67 742.057 1035.475 739.695 1034.082 736.863 C 1032.817 734.136 1031.968 731.232 1031.57 728.251 C 1031.241 726.038 1030.972 723.675 1030.703 721.493 C 1030.553 720.117 1030.404 718.862 1030.255 717.636 C 1029.955 715.393 1029.566 713.3 1029.119 711.236 C 1028.454 708.348 1027.647 705.492 1026.696 702.685 C 1025.44 698.857 1023.915 694.91 1022.689 691.709 L 1021.134 687.643 C 1020.847 687.679 1020.554 687.679 1020.267 687.643 L 1019.25 687.643 C 1017.917 687.631 1016.587 687.512 1015.273 687.284 C 1013.515 686.947 1011.804 686.384 1010.19 685.609 C 1008.692 684.925 1007.277 684.072 1005.974 683.068 C 1004.87 682.248 1003.811 681.372 1002.803 680.437 C 1002.056 682.59 1001.249 684.743 1000.471 686.896 C 997.783 694.395 994.671 701.733 991.141 708.874 C 989.679 711.87 987.96 714.732 985.999 717.426 C 984.38 719.836 982.272 721.875 979.809 723.407 C 978.155 724.253 976.313 724.665 974.456 724.603 C 972.761 724.57 971.074 724.408 969.403 724.124 C 967.587 723.843 965.796 723.413 964.049 722.839 C 962.16 722.265 960.351 721.451 958.668 720.417 C 957.259 719.573 956.096 718.377 955.288 716.948 C 954.556 715.47 954.11 713.868 953.972 712.223 C 953.829 710.931 953.829 709.627 953.972 708.336 C 954.158 706.446 954.457 704.568 954.87 702.714 C 955.728 699.057 956.828 695.463 958.159 691.95 C 959.684 687.762 961.418 683.726 962.764 680.706 C 964.11 677.685 965.216 675.264 966.831 671.885 L 967.22 671.047 C 968.476 668.416 969.791 665.665 971.227 663.063 C 972.111 661.526 973.111 660.058 974.217 658.668 C 974.785 657.95 975.383 657.173 976.071 656.454 C 976.759 655.77 977.497 655.142 978.283 654.571 L 978.433 654.571 C 980.807 652.87 983.675 651.987 986.596 652.059 Z"/>
  <path class="cls-2" d="M 913.006 629.572 L 913.246 629.572 C 918.595 630.021 923.87 631.137 928.944 632.892 C 931.193 633.717 933.37 634.718 935.464 635.881 C 937.455 636.994 939.353 638.265 941.145 639.68 C 944.527 642.395 947.67 645.397 950.534 648.65 C 952.148 650.444 953.733 652.268 955.318 654.062 L 955.677 654.481 C 957.471 656.544 959.265 658.578 961.089 660.462 C 962.058 661.505 962.421 662.976 962.047 664.349 C 962.13 664.786 962.13 665.232 962.047 665.665 C 961.586 667.385 960.055 668.598 958.278 668.655 C 957.922 668.652 957.57 668.593 957.232 668.476 C 953.671 667.381 950.043 666.502 946.377 665.844 L 944.583 665.485 C 940.382 664.749 936.336 663.302 932.622 661.209 C 930.41 659.863 928.393 658.213 926.641 656.305 L 925.894 657.561 L 925.685 657.92 L 923.413 661.747 L 922.006 664.11 C 919.436 668.476 916.026 674.217 912.139 679.838 C 908.595 685.212 904.529 690.22 899.998 694.79 C 898.004 696.763 895.785 698.501 893.39 699.963 C 892.254 700.615 891.064 701.165 889.831 701.608 C 888.596 702.041 887.308 702.311 886.004 702.415 L 884.957 702.415 C 882.852 702.359 880.795 701.772 878.976 700.71 C 877.879 700.038 876.874 699.221 875.987 698.289 C 874.938 697.254 874.022 696.088 873.266 694.82 C 872.087 692.601 871.471 690.128 871.471 687.613 C 871.421 684.778 871.71 681.946 872.339 679.18 C 873.792 672.561 876.124 666.164 879.276 660.162 C 882.368 653.853 886.268 647.975 890.878 642.669 C 893.623 639.41 896.936 636.674 900.656 634.596 C 902.304 633.689 904.095 633.062 905.949 632.741 C 906.807 632.595 907.677 632.515 908.55 632.502 L 908.969 632.502 L 909.747 632.502 C 909.732 632.353 909.732 632.204 909.747 632.054 C 909.914 631.4 910.255 630.801 910.733 630.32 C 911.415 629.648 912.319 629.243 913.275 629.184 Z"/>
  <path class="cls-2" d="M 838.937 605.41 C 840.082 605.441 841.218 605.62 842.316 605.949 C 843.766 606.376 845.169 606.947 846.503 607.653 C 847.22 608.013 847.968 608.431 848.745 608.909 C 849.284 608.638 849.876 608.494 850.48 608.491 C 851.472 608.371 852.471 608.311 853.47 608.311 C 856.789 608.329 860.081 608.937 863.189 610.106 C 867.593 611.831 871.647 614.343 875.15 617.522 C 878.525 620.53 881.456 624.005 883.85 627.838 C 886.028 631.241 887.709 634.937 888.845 638.812 C 889.153 639.383 889.317 640.02 889.323 640.667 C 889.571 642.6 888.36 644.421 886.483 644.942 C 886.145 644.987 885.804 644.987 885.466 644.942 C 884.129 644.942 882.879 644.267 882.146 643.148 C 880.083 642.011 877.9 640.935 875.658 639.978 L 871.352 638.273 L 867.136 636.629 C 864.262 635.541 861.523 634.126 858.972 632.412 C 857.859 631.626 856.81 630.756 855.833 629.811 C 854.965 631.844 853.948 633.998 852.842 636.42 C 849.852 642.221 846.442 648.142 842.406 654.362 C 838.868 660.094 834.868 665.524 830.445 670.599 C 828.863 672.432 827.042 674.04 825.033 675.383 C 824.213 675.909 823.313 676.304 822.371 676.549 C 821.746 676.711 821.104 676.791 820.457 676.788 C 818.691 676.732 816.956 676.292 815.374 675.503 C 813.448 674.558 811.606 673.445 809.872 672.184 C 808.171 670.951 806.371 669.863 804.489 668.924 L 804.101 668.745 C 803.52 668.404 803.039 667.919 802.695 667.34 C 802.462 666.945 802.3 666.508 802.217 666.053 C 801.639 665.396 801.349 664.534 801.41 663.661 C 801.702 659.604 802.456 655.591 803.652 651.7 C 804.994 647.574 806.696 643.572 808.736 639.739 C 812.761 632.377 817.41 625.374 822.641 618.807 L 824.345 616.564 C 825.72 614.711 827.156 612.797 828.651 611.003 C 830.149 609.023 832.081 607.417 834.302 606.307 C 834.882 606.039 835.484 605.808 836.097 605.62 C 836.742 605.453 837.403 605.341 838.07 605.291 L 839.027 605.291 Z"/>
  <path class="cls-2" d="M 779.67 577.96 L 780.268 577.96 C 782.765 578.008 785.247 578.37 787.654 579.037 C 791.939 580.295 795.871 582.538 799.137 585.585 C 802.345 588.62 805.066 592.131 807.21 595.991 C 809.597 600.255 811.675 604.682 813.43 609.238 C 813.448 609.409 813.448 609.579 813.43 609.747 C 813.645 610.09 813.807 610.464 813.908 610.853 C 814.187 611.863 814.046 612.94 813.52 613.843 C 813.003 614.719 812.169 615.362 811.187 615.638 C 810.858 615.682 810.526 615.682 810.201 615.638 C 809.489 615.617 808.795 615.431 808.168 615.099 C 805.925 614.023 803.563 612.946 800.93 611.84 L 796.714 610.106 C 794.681 609.298 792.648 608.46 790.734 607.594 C 788.103 606.535 785.615 605.16 783.319 603.497 L 781.973 602.45 C 778.982 605.829 775.992 609.179 773.001 612.438 C 767.291 618.627 761.4 624.997 756.077 631.725 C 755.093 633.113 754.184 634.548 753.355 636.032 C 752.877 636.839 752.399 637.646 751.921 638.453 C 750.258 641.447 747.95 644.03 745.163 646.019 C 743.73 646.86 742.097 647.293 740.438 647.274 L 740.258 647.274 C 739.317 647.245 738.38 647.096 737.478 646.826 C 736.443 646.533 735.441 646.133 734.487 645.63 C 732.971 644.769 731.539 643.767 730.211 642.64 L 729.673 642.251 C 728.177 641.082 726.599 640.02 724.948 639.081 L 724.261 639.081 C 723.922 639.126 723.582 639.126 723.244 639.081 C 722.263 638.806 721.429 638.164 720.911 637.288 C 720.418 636.372 720.277 635.308 720.523 634.297 C 721.533 629.037 723.151 623.909 725.337 619.017 C 728.082 612.322 731.404 605.88 735.264 599.759 C 737.25 596.637 739.427 593.642 741.783 590.788 C 743.808 588.309 746.071 586.037 748.542 584.001 C 752.647 580.242 757.934 578.031 763.493 577.751 L 765.078 577.751 C 766.086 577.853 767.087 578.035 768.068 578.289 C 768.971 578.546 769.85 578.875 770.699 579.276 C 771.136 578.782 771.725 578.445 772.374 578.319 C 774.751 577.888 777.164 577.658 779.58 577.632 Z"/>
  <path class="cls-2" d="M 698.335 543.692 L 697.827 543.692 C 694.161 543.808 690.626 545.077 687.719 547.31 C 686.547 548.21 685.456 549.208 684.46 550.301 C 683.5 551.356 682.6 552.462 681.769 553.619 C 680.175 555.853 678.781 558.225 677.613 560.707 C 674.921 566.486 672.739 572.491 671.093 578.648 C 669.449 584.628 668.104 590.609 666.907 596.111 L 666.369 598.742 C 665.681 602.002 664.993 605.351 664.006 608.581 C 663.546 610.285 664.282 612.083 665.8 612.976 C 666.44 613.335 667.162 613.52 667.894 613.514 C 668.555 613.548 669.206 613.355 669.748 612.976 C 677.971 606.816 685.716 599.849 693.192 593.091 C 699.831 587.11 706.707 580.951 713.914 575.329 L 713.914 575.329 L 714.123 575.15 L 714.333 574.97 L 715.05 575.538 C 716.716 576.847 718.487 578.017 720.343 579.037 C 722.108 579.993 723.961 580.89 725.666 581.698 C 729.912 583.621 734.056 585.765 738.075 588.128 C 738.649 588.48 739.313 588.668 739.989 588.665 C 741.147 588.647 742.238 588.121 742.98 587.229 C 744.639 586.743 745.781 585.224 745.79 583.492 C 745.521 571.86 742.8 563.308 737.059 557.357 C 731.317 551.406 723.603 547.997 712.419 546.383 C 712.072 546.338 711.719 546.338 711.373 546.383 C 711.026 546.335 710.673 546.335 710.325 546.383 C 709.809 546.529 709.33 546.784 708.92 547.131 C 707.204 546.129 705.377 545.327 703.478 544.738 C 701.753 544.206 699.962 543.925 698.156 543.901 Z M 706.648 571.113 L 706.648 571.113 L 708.172 569.886 L 706.648 571.113 Z"/>
  <path class="cls-1" d="M 547.874 342.467 C 536.384 342.492 525.012 344.79 514.412 349.225 C 508.769 351.545 503.37 354.421 498.295 357.808 C 495.206 359.921 491.934 361.752 488.517 363.28 C 480.291 366.385 471.791 368.708 463.129 370.217 C 459.332 370.965 455.444 371.653 451.706 372.341 C 445.996 373.357 440.105 374.433 434.363 375.69 C 424.846 377.591 415.604 380.674 406.852 384.87 C 402.62 387.018 398.656 389.657 395.041 392.734 C 391.455 395.801 388.35 399.389 385.831 403.38 C 383.246 407.502 381.291 411.987 380.03 416.686 C 379.552 418.36 379.163 420.125 378.834 421.919 L 376.322 422.218 L 375.066 422.368 L 374.737 422.368 C 364.989 423.594 355.45 424.85 346.121 426.823 C 344.895 427.062 343.608 427.361 342.323 427.78 C 340.416 428.341 338.679 429.369 337.269 430.77 C 333.917 434.595 332.237 439.603 332.604 444.675 C 332.927 449.877 333.932 455.015 335.594 459.956 C 337.329 465.667 339.512 471.199 341.575 476.551 L 342.742 479.542 L 342.742 479.871 C 344.266 483.728 345.731 487.735 347.226 491.832 C 348.064 494.164 348.692 496.257 349.23 498.23 C 349.915 501.037 350.425 503.883 350.756 506.753 C 352.623 521.536 352.623 536.495 350.756 551.278 C 346.689 580.224 336.312 607.525 325.727 632.733 C 314.782 658.538 302.194 684.106 289.993 708.836 C 286.375 716.191 282.787 723.428 279.258 730.694 L 277.015 735.389 C 275.102 739.456 273.158 743.552 271.035 747.35 C 268.912 751.147 266.459 754.796 264.157 758.205 C 260.838 763.138 257.399 768.043 254.08 772.797 C 251.569 776.386 248.697 780.482 245.976 784.49 C 239.547 793.938 234.613 801.683 230.516 808.949 C 227.945 813.524 225.762 817.771 223.878 821.898 C 217.153 831.24 211.039 841.009 205.577 851.141 C 198.75 863.472 193.715 876.712 190.626 890.464 C 189.418 896.245 188.687 902.116 188.444 908.017 C 188.253 914.145 188.684 920.276 189.729 926.317 C 190.229 928.229 191.48 929.857 193.198 930.833 C 194.362 931.504 195.682 931.855 197.026 931.849 C 197.702 931.851 198.377 931.76 199.029 931.581 C 200.927 931.053 202.546 929.81 203.544 928.111 L 203.933 927.214 L 204.322 926.317 C 204.682 925.006 204.682 923.622 204.322 922.31 L 204.322 921.892 L 204.172 920.905 C 203.373 914.1 203.373 907.227 204.172 900.422 C 205.689 890.647 208.401 881.097 212.246 871.984 C 213.652 868.695 215.236 865.375 216.88 862.086 C 218.254 867.93 221.165 873.299 225.313 877.636 C 225.206 879.151 225.561 880.662 226.33 881.971 C 227.334 883.665 228.95 884.908 230.845 885.44 C 231.538 885.623 232.253 885.714 232.969 885.709 C 234.284 885.758 235.58 885.392 236.677 884.663 C 238.052 883.646 239.428 882.6 240.773 881.524 C 241.61 882.539 242.507 883.526 243.435 884.514 C 245.722 886.769 248.204 888.821 250.85 890.643 C 253.369 892.425 256.029 893.994 258.805 895.338 C 269.982 900.372 281.701 904.103 293.731 906.462 L 295.136 906.791 L 303.12 908.734 C 307.814 909.901 312.659 911.097 317.444 912.113 C 325.756 913.848 334.728 915.314 345.672 916.748 C 364.022 918.98 382.478 920.217 400.962 920.456 C 407.51 920.456 414.537 920.666 422.402 920.666 C 431.852 920.666 441.42 920.666 450.72 920.486 L 453.112 920.486 C 463.009 920.486 471.711 920.188 479.695 919.888 C 502.837 919.173 525.89 916.684 548.652 912.442 C 564.521 909.666 579.948 904.778 594.522 897.909 C 601.095 894.714 607.234 890.695 612.792 885.949 L 614.167 884.723 L 614.915 886.308 L 615.274 887.085 C 617.491 892.463 620.662 897.397 624.634 901.648 C 626.928 903.797 629.677 905.401 632.677 906.342 C 634.32 906.865 636.037 907.118 637.761 907.09 C 639.7 907.068 641.633 906.858 643.532 906.462 C 645.133 906.108 646.696 905.597 648.197 904.937 C 649.601 904.395 650.961 903.745 652.264 902.993 C 654.658 901.51 656.814 899.675 658.663 897.551 C 662.563 892.862 665.655 887.557 667.813 881.852 C 670.005 876.397 671.764 870.778 673.076 865.047 C 674.96 857.272 676.365 849.019 677.621 841.752 C 678.16 838.762 678.698 835.503 679.266 832.363 C 682.256 816.783 684.888 801.294 687.938 784.1 L 689.283 776.625 C 696.072 738.737 702.74 701.658 710.216 664.998 C 714.012 646.338 717.242 630.789 721.489 614.911 C 724.479 603.458 727.977 591.885 731.267 580.702 L 731.476 579.985 C 732.672 575.997 733.868 571.941 735.065 567.814 C 744.573 535.28 753.215 503.404 754.86 470.989 C 755.379 463.34 755.148 455.659 754.172 448.054 C 753.413 442.255 751.369 436.698 748.192 431.787 C 745.025 427.068 740.769 423.18 735.782 420.454 C 730.465 417.669 724.805 415.598 718.947 414.294 C 716.913 413.786 714.88 413.396 712.608 412.918 L 712.278 412.918 L 710.126 412.47 C 706.986 411.812 703.876 411.094 700.407 410.257 L 694.247 408.792 C 689.373 407.625 684.319 406.43 679.296 405.294 C 671.043 403.469 663.627 402.124 656.629 401.196 C 652.291 400.577 647.915 400.247 643.532 400.21 C 641.618 400.21 639.735 400.21 637.911 400.479 C 633.058 400.903 628.299 402.062 623.797 403.917 L 621.195 405.055 C 620.687 402.064 620.148 399.552 619.55 397.219 C 618.444 393.197 617.024 389.268 615.305 385.468 C 608.96 370.949 597.953 358.963 584.026 351.409 C 572.845 345.53 560.386 342.5 547.754 342.587 Z"/>
  <path class="cls-1" d="M 629.388 1015.457 C 621.16 1020.767 612.364 1025.14 603.164 1028.495 C 582.769 1035.82 561.091 1038.751 539.561 1040.635 C 520.572 1042.22 501.555 1043.327 482.506 1043.625 C 472.34 1043.625 462.143 1043.625 451.976 1043.625 C 443.692 1043.625 435.439 1043.625 427.157 1043.625 C 408.796 1043.625 390.436 1044.493 372.075 1044.732 C 351.921 1045.001 331.766 1044.493 311.642 1043.775 C 294.608 1043.423 277.619 1041.853 260.808 1039.08 C 248.242 1036.863 236.012 1033.045 224.416 1027.718 L 224.416 1027.718 L 222.502 1026.79 C 222.502 1026.79 222.502 1026.79 222.502 1026.79 C 235.464 1040.063 251.301 1050.181 268.792 1056.364 C 277.9 1059.785 287.271 1062.465 296.811 1064.378 C 307.476 1066.593 318.274 1068.111 329.135 1068.923 C 339.212 1069.67 349.35 1069.67 359.427 1069.67 C 369.505 1069.67 379.013 1069.461 388.791 1069.222 C 406.733 1068.803 424.375 1068.385 442.197 1068.505 C 461.246 1068.505 480.324 1068.864 499.371 1068.176 C 510.106 1067.786 520.841 1067.189 531.517 1065.784 C 541.131 1064.497 550.636 1062.498 559.955 1059.803 C 586.687 1052.177 612.643 1038.363 629.358 1015.517 L 629.358 1015.517 Z M 261.585 1039.021 L 262.034 1039.021 L 261.585 1039.021 Z"/>
  <path class="cls-2" d="M 664.225 856.674 C 660.303 856.69 656.544 858.248 653.759 861.01 C 651.652 861.271 649.618 861.953 647.778 863.014 C 645.685 864.03 643.532 865.017 641.439 866.004 C 625.575 872.179 609.016 876.398 592.129 878.562 C 576.879 880.506 561.299 881.553 546.199 882.39 L 543.538 882.57 C 533.79 883.168 523.891 883.945 514.323 884.693 C 506.159 885.321 497.727 886.008 489.414 886.547 C 456.043 888.76 419.621 890.075 374.796 890.703 L 358.858 890.943 C 348.393 891.121 337.568 891.301 326.923 891.362 L 323.634 891.362 C 310.137 891.486 296.644 890.777 283.235 889.238 C 272.64 887.85 262.243 885.231 252.256 881.434 C 247.582 879.356 243.125 876.822 238.949 873.868 C 236.182 871.584 233.63 869.052 231.324 866.303 L 231.174 866.093 L 231.025 865.884 L 228.722 862.893 C 226.91 861.091 224.666 859.784 222.204 859.096 C 220.938 858.743 219.631 858.561 218.316 858.558 C 215.682 858.553 213.092 859.244 210.811 860.562 C 207.439 865.3 203.656 869.733 199.508 873.808 C 197.776 876.113 196.322 878.611 195.171 881.254 C 193.348 885.245 191.877 889.387 190.776 893.634 C 188.976 901.423 187.896 909.36 187.547 917.347 C 187.157 923.775 187.157 930.145 187.188 937.202 L 187.188 939.834 C 187.188 944.917 187.188 950.15 187.396 955.323 C 187.576 961.662 187.995 967.284 188.593 972.427 C 189.245 978.745 190.384 985.004 192.002 991.146 C 195.052 1002.635 201.112 1013.102 209.555 1021.467 C 219.664 1030.66 232.057 1036.97 245.438 1039.738 C 248.578 1040.486 251.837 1041.054 254.977 1041.622 L 256.891 1041.951 C 261.137 1042.698 265.861 1043.476 270.886 1044.314 C 279.856 1045.779 289.724 1047.303 300.788 1048.62 C 329.54 1052.404 358.505 1054.351 387.506 1054.45 C 395.34 1054.45 403.175 1054.301 410.8 1053.972 C 418.425 1053.643 426.289 1053.075 433.854 1052.506 L 437.174 1052.267 C 443.992 1051.758 451.288 1051.37 460.917 1050.982 C 469.439 1050.653 478.111 1050.383 486.483 1050.174 C 494.348 1049.965 502.482 1049.726 510.406 1049.427 C 530.471 1048.649 545.81 1047.513 560.194 1045.719 C 577.15 1043.864 593.897 1040.44 610.22 1035.491 C 617.674 1033.186 624.892 1030.182 631.78 1026.521 C 637.732 1023.193 643.271 1019.18 648.287 1014.56 C 653.074 1010.08 657.328 1005.064 660.966 999.609 C 664.07 995.137 666.704 990.357 668.829 985.346 C 671.512 979.305 673.721 973.067 675.439 966.686 C 676.855 961.154 677.933 955.543 678.667 949.881 C 680.373 937.196 681.132 924.402 680.941 911.606 C 680.791 899.196 679.924 886.606 679.116 874.437 L 678.907 871.446 C 678.847 867.533 677.296 863.789 674.571 860.98 C 671.786 858.218 668.027 856.661 664.106 856.644 Z" style="stroke: rgb(191, 191, 191); stroke-width: 2;"/>
  <path class="cls-2" d="M 429.609 812.06 L 428.771 812.06 C 398.311 811.986 367.975 815.948 338.555 823.841 C 308.697 831.859 280.289 844.534 254.378 861.398 L 252.824 862.415 C 251.143 863.432 249.904 865.043 249.355 866.93 C 248.82 868.887 249.089 870.975 250.103 872.732 C 250.859 874.017 251.97 875.055 253.303 875.722 C 254.694 877.393 256.75 878.367 258.924 878.384 C 286.883 877.994 315.201 877.935 342.652 877.904 L 374.199 877.904 C 396.656 877.904 414.956 877.665 431.821 877.397 C 446.235 877.157 460.857 877.157 475.031 877.128 L 487.829 877.128 C 523.025 877.128 563.902 876.32 603.612 868.934 C 605.086 868.584 606.401 867.752 607.35 866.572 C 610.187 864.81 611.527 861.39 610.639 858.169 C 610.136 856.259 608.886 854.632 607.171 853.654 C 551.808 826.85 491.177 812.693 429.668 812.209 Z"/>
  <path class="cls-2" d="M 485.437 751.985 C 467.315 752.254 449.224 753.45 431.194 754.975 C 413.162 756.5 395.31 758.115 377.368 760.955 C 365.173 762.915 353.169 765.916 341.486 769.927 C 338.495 770.973 335.505 772.109 332.514 773.335 C 330.391 774.202 328.298 775.07 326.265 776.146 C 323.274 777.701 320.285 779.405 317.294 780.781 L 316.726 780.99 C 315.699 775.281 308.877 772.824 304.446 776.567 C 302.724 778.022 301.744 780.172 301.775 782.426 C 301.731 784.507 302.044 786.58 302.701 788.555 C 303.526 791.079 305.167 793.257 307.366 794.745 C 310.849 796.85 315.08 797.32 318.939 796.032 C 320.806 795.48 322.626 794.781 324.381 793.938 C 325.846 793.311 327.372 792.563 328.717 791.815 C 331.288 790.439 333.801 788.974 336.491 787.779 C 345.152 784.256 354.056 781.366 363.135 779.136 C 372.102 776.983 381.174 775.297 390.317 774.082 C 403.085 772.409 415.883 771.093 428.712 770.106 C 442.138 768.94 455.624 767.982 469.05 767.414 C 495.376 766.089 521.768 767.029 547.933 770.225 C 561.872 772.142 575.683 774.898 589.289 778.478 C 594.883 780.02 600.048 774.929 598.587 769.314 C 597.909 766.708 595.891 764.662 593.296 763.946 C 575.324 759.253 557.019 755.935 538.544 754.018 C 523.563 752.471 508.511 751.724 493.451 751.776 L 485.167 751.776 Z"/>
  <path class="cls-2" d="M 421.385 743.791 C 400.989 744.54 380.702 747.131 360.772 751.536 C 351.432 753.651 342.267 756.47 333.352 759.968 C 324.245 763.559 315.529 768.068 307.336 773.424 C 305.659 774.432 304.421 776.033 303.868 777.91 C 302.342 783.507 307.448 788.657 313.057 787.179 C 313.714 787.006 314.345 786.745 314.931 786.402 C 321.443 782.163 328.305 778.492 335.445 775.428 C 352.663 768.608 370.68 764.005 389.061 761.733 C 414.978 758.704 441.086 757.615 467.166 758.473 C 479.427 758.713 491.686 759.192 503.947 759.67 C 517.044 760.148 530.111 760.716 543.089 762.361 C 555.177 763.881 567.029 766.894 578.375 771.332 C 581.934 772.893 585.39 774.681 588.72 776.684 C 593.773 779.677 600.17 776.078 600.236 770.205 C 600.267 767.48 598.84 764.946 596.495 763.557 C 582.938 755.847 568.044 750.773 552.598 748.606 C 537.299 746.297 521.868 744.978 506.398 744.659 C 487.171 743.971 467.914 743.223 448.687 743.223 C 439.716 743.223 430.565 743.403 421.505 743.821 Z"/>
  <path class="cls-2" d="M 394.981 723.518 C 388.755 723.801 382.552 724.48 376.412 725.551 C 366.394 727.166 356.527 729.558 346.509 731.232 C 345.195 727.569 341.308 725.508 337.539 726.478 C 335.627 726.978 333.999 728.229 333.023 729.947 C 331.285 732.975 330.387 736.412 330.422 739.904 C 330.459 741.894 331.25 743.796 332.634 745.227 C 334.025 746.67 335.953 747.471 337.957 747.439 C 346.151 746.574 354.295 745.285 362.357 743.582 C 369.624 742.117 376.89 740.592 384.217 739.546 C 392.265 738.445 400.416 738.304 408.498 739.127 C 415.586 740.306 422.51 742.313 429.13 745.107 C 436.636 748.336 443.812 752.195 451.109 755.842 C 459.382 760.17 468.03 763.743 476.945 766.517 C 482.538 768.06 487.704 762.968 486.243 757.353 C 485.564 754.746 483.547 752.701 480.951 751.985 C 477.137 750.856 473.384 749.529 469.708 748.008 C 460.737 744.18 452.425 739.515 443.782 735.329 C 434.193 730.386 423.94 726.851 413.342 724.833 C 408.399 724.029 403.398 723.629 398.39 723.637 L 395.191 723.637 Z"/>
  <path class="cls-2" d="M 380.479 715.204 C 366.166 715.972 352.054 718.895 338.615 723.876 C 336.737 724.443 335.131 725.677 334.099 727.345 C 331.992 730.936 333.197 735.557 336.791 737.661 C 338.536 738.709 340.639 738.98 342.591 738.409 C 351.76 734.971 361.276 732.544 370.97 731.172 C 384.45 729.544 398.079 729.595 411.548 731.322 C 416.511 732.01 421.445 732.907 426.32 734.073 C 431.279 735.303 436.139 736.912 440.852 738.888 C 457.179 746.004 471.711 756.41 487.141 765.202 C 492.052 768.29 498.464 764.904 498.683 759.108 C 498.792 756.24 497.261 753.559 494.736 752.195 C 483.523 745.825 472.818 738.618 461.544 732.369 C 455.657 729.125 449.576 726.249 443.334 723.757 C 436.895 721.231 430.225 719.338 423.419 718.105 C 412.46 715.996 401.326 714.924 390.167 714.905 C 386.897 714.905 383.638 715.005 380.389 715.204 Z"/>
  <path class="cls-2" d="M 536.271 706.622 C 513.789 710.029 491.884 716.519 471.174 725.91 C 465.581 728.302 460.049 730.844 454.727 733.744 C 449.816 736.832 450.091 744.078 455.22 746.787 C 457.445 747.962 460.109 747.948 462.322 746.751 C 467.854 743.762 473.566 741.13 479.366 738.678 C 488.517 734.85 497.847 731.412 507.356 728.511 C 517.126 725.427 527.125 723.118 537.259 721.604 C 544.085 720.65 551.001 720.511 557.861 721.185 C 560.78 721.627 563.647 722.368 566.414 723.398 C 567.951 724.113 569.422 724.964 570.809 725.939 C 571.774 726.756 572.673 727.645 573.5 728.601 C 574.188 729.553 574.808 730.552 575.354 731.591 C 578.293 736.592 585.544 736.536 588.406 731.491 C 588.709 730.956 588.945 730.388 589.11 729.797 C 589.615 727.839 589.348 725.762 588.362 723.996 C 587.261 721.869 585.937 719.864 584.415 718.015 C 582.8 716.144 580.962 714.477 578.943 713.051 C 577.448 711.887 575.834 710.884 574.128 710.062 C 571.691 709.038 569.169 708.228 566.592 707.639 C 561.706 706.386 556.686 705.723 551.641 705.666 L 549.698 705.666 C 545.186 705.704 540.681 706.034 536.211 706.652 Z M 480.861 738.02 L 479.964 738.409 L 480.861 738.02 Z"/>
  <path class="cls-2" d="M 578.015 719.6 C 559.265 719.782 540.585 721.917 522.277 725.969 C 504.009 730.159 486.171 736.035 468.99 743.523 C 467.263 744.488 466.009 746.12 465.522 748.038 C 464.414 752.05 466.77 756.202 470.784 757.308 L 472.788 757.576 C 474.121 757.579 475.432 757.228 476.586 756.56 L 477.303 756.261 C 499.482 746.875 522.764 740.343 546.588 736.824 C 557.011 735.48 567.506 734.761 578.015 734.671 C 583.77 733.942 586.578 727.256 583.068 722.637 C 581.844 721.025 580.023 719.974 578.015 719.72 Z M 478.559 755.484 L 477.423 755.962 L 478.559 755.484 Z"/>
  <path class="cls-2" d="M 552.299 713.859 C 537.455 715.116 522.723 717.465 508.223 720.886 C 500.763 722.643 493.406 724.808 486.185 727.375 C 479.235 729.79 472.502 732.792 466.06 736.345 C 460.956 739.104 460.754 746.352 465.695 749.392 C 468.139 750.897 471.226 750.881 473.656 749.353 C 476.945 747.504 480.329 745.827 483.792 744.33 C 492.73 740.735 501.927 737.815 511.303 735.598 C 520.753 733.311 530.314 731.514 539.949 730.216 C 544.056 729.697 548.172 729.249 552.299 728.87 C 554.288 728.824 556.186 728.035 557.622 726.657 C 561.729 722.528 559.825 715.502 554.196 714.01 C 553.703 713.879 553.198 713.798 552.688 713.769 Z"/>
  <path class="cls-2" d="M 535.703 664.46 C 526.707 666.081 517.811 668.219 509.06 670.859 C 489.654 676.702 470.613 683.691 452.035 691.791 C 437.729 697.752 423.754 704.481 410.172 711.945 C 407.43 713.422 404.783 715.069 402.247 716.879 L 400.723 718.045 C 396.642 722.128 398.479 729.094 404.042 730.635 C 405.995 731.212 408.101 730.941 409.843 729.887 C 412.21 728.195 414.676 726.647 417.229 725.252 C 421.146 723.009 425.153 720.946 429.19 718.913 C 439.716 713.62 450.451 708.716 461.305 703.962 C 475.36 697.981 489.594 692.628 504.096 687.963 C 517.161 683.551 530.575 680.25 544.196 678.096 C 550.304 677.201 556.497 677.031 562.645 677.587 C 564.684 677.902 566.686 678.413 568.626 679.112 C 569.476 679.52 570.296 679.99 571.078 680.517 C 571.52 680.901 571.939 681.311 572.334 681.744 C 572.628 682.187 572.897 682.646 573.141 683.119 C 573.475 684.092 573.726 685.093 573.889 686.11 L 573.889 686.468 C 574.237 687.725 574.906 688.869 575.833 689.787 C 578.774 692.722 583.537 692.722 586.478 689.787 C 587.927 688.4 588.73 686.47 588.691 684.465 C 588.52 682.703 588.189 680.963 587.704 679.262 C 587.176 677.579 586.453 675.962 585.551 674.447 C 583.759 671.587 581.361 669.158 578.524 667.33 C 575.927 665.675 573.08 664.454 570.091 663.712 C 566.655 662.842 563.137 662.332 559.595 662.187 C 558.359 662.187 557.113 662.187 555.857 662.187 C 549.072 662.313 542.31 663.014 535.643 664.28 Z M 462.831 703.513 L 461.844 703.931 L 462.831 703.513 Z"/>
  <path class="cls-2" d="M 576.251 677.377 C 550.27 677.791 524.497 682.095 499.79 690.146 C 475.066 698.156 451.284 708.824 428.861 721.962 C 423.95 725.051 424.225 732.297 429.355 735.005 C 431.579 736.179 434.243 736.167 436.456 734.97 C 449.592 727.356 463.172 720.536 477.124 714.546 C 500.004 704.779 524.043 697.986 548.652 694.332 C 557.795 693.156 567.002 692.526 576.222 692.449 C 581.976 691.719 584.784 685.034 581.274 680.415 C 580.049 678.802 578.23 677.752 576.222 677.497 Z"/>
  <path class="cls-2" d="M 560.044 670.021 C 536.122 675.254 512.2 680.249 488.906 687.125 C 465.092 693.671 442.263 703.377 421.027 715.982 C 415.924 718.741 415.72 725.989 420.661 729.029 C 423.106 730.532 426.192 730.518 428.622 728.989 C 438.126 723.174 448.052 718.077 458.315 713.739 C 492.195 699.685 528.347 692.418 564.051 684.555 C 569.638 682.996 571.445 675.974 567.301 671.913 C 566.863 671.484 566.374 671.11 565.845 670.799 C 564.712 670.137 563.419 669.796 562.108 669.812 C 561.413 669.818 560.721 669.898 560.044 670.051 Z"/>
  <path class="cls-2" d="M 405.118 685.75 C 400.184 686.229 395.281 686.827 390.376 687.395 C 380.524 688.786 370.6 689.624 360.653 689.907 C 359.218 689.907 357.663 689.907 356.377 689.728 L 356.377 689.728 C 354.439 687.783 351.614 687.02 348.961 687.724 C 344.979 688.871 342.643 692.987 343.698 696.994 C 344.122 698.617 344.993 700.087 346.21 701.24 C 347.551 702.435 349.131 703.333 350.845 703.872 C 351.688 704.157 352.561 704.348 353.446 704.44 C 355.27 704.719 357.106 704.898 358.948 704.978 C 366.058 705.017 373.161 704.568 380.209 703.632 C 387.835 702.825 395.43 701.868 403.055 701.061 C 406.045 700.732 409.036 700.463 412.026 700.313 C 415.146 700.23 418.268 700.42 421.356 700.881 C 437.433 703.378 453.135 707.878 468.093 714.278 C 480.765 719.772 493.062 726.096 504.903 733.205 C 509.91 736.232 516.316 732.705 516.434 726.856 C 516.489 724.141 515.091 721.603 512.768 720.198 C 497.52 711.045 481.513 703.221 464.923 696.814 C 456.739 693.679 448.359 691.081 439.835 689.039 C 435.798 688.083 431.731 687.305 427.635 686.647 C 423.677 685.945 419.684 685.456 415.674 685.182 L 413.969 685.182 C 410.979 685.182 408.139 685.511 405.268 685.781 Z"/>
  <path class="cls-2" d="M 393.426 672.803 C 385.442 673.222 377.519 674.433 369.773 676.421 C 361.177 678.701 352.847 681.889 344.924 685.93 C 343.206 686.905 341.955 688.534 341.455 690.445 C 340.347 694.459 342.704 698.609 346.718 699.715 C 348.677 700.217 350.753 699.95 352.519 698.967 C 354.633 697.911 356.766 696.914 358.919 695.977 C 367.473 692.466 376.418 689.996 385.562 688.621 C 395.559 687.448 405.662 687.509 415.644 688.8 C 432.871 691.668 449.668 696.691 465.642 703.752 C 483.314 711.317 500.388 720.139 517.732 728.421 C 519.502 729.395 521.574 729.663 523.533 729.169 C 527.547 728.063 529.904 723.912 528.796 719.899 C 528.299 717.987 527.047 716.357 525.327 715.384 C 497.039 701.838 469.08 686.617 438.609 678.304 C 425.875 674.732 412.721 672.872 399.496 672.772 C 397.503 672.772 395.459 672.823 393.367 672.922 Z"/>
  <path class="cls-2" d="M 555.199 617.273 C 549.757 617.99 544.405 618.977 539.082 620.264 C 535.314 621.101 531.576 622.027 527.749 622.686 C 519.795 624.092 511.841 625.676 503.827 627.35 C 488.535 630.661 473.527 635.17 458.943 640.837 C 448.771 644.831 438.899 649.547 429.399 654.951 C 419.405 660.747 409.913 667.369 401.022 674.746 C 399.582 676.14 398.781 678.065 398.809 680.069 C 398.809 684.23 402.183 687.604 406.345 687.604 L 408.347 687.335 C 409.604 686.986 410.747 686.315 411.667 685.391 L 415.704 682.162 C 429.167 671.96 443.829 663.444 459.362 656.804 C 477.805 649.373 496.922 643.734 516.446 639.969 C 523.772 638.474 531.158 637.338 538.424 635.724 C 544.405 634.408 550.386 633.092 556.366 632.225 C 560.704 631.616 565.096 631.485 569.464 631.836 C 570.803 632.056 572.124 632.386 573.411 632.823 C 573.914 633.074 574.403 633.354 574.876 633.66 L 575.503 634.288 L 575.952 635.035 C 576.124 635.585 576.263 636.144 576.371 636.71 L 576.371 636.71 C 576.414 638.699 577.204 640.599 578.583 642.032 C 581.525 644.967 586.287 644.967 589.229 642.032 C 590.665 640.637 591.466 638.713 591.442 636.71 C 591.335 635.153 591.125 633.605 590.814 632.075 C 590.468 630.668 589.967 629.304 589.318 628.008 C 588.29 625.83 586.8 623.903 584.953 622.356 C 583.909 621.463 582.787 620.664 581.604 619.964 C 580.351 619.302 579.052 618.733 577.717 618.26 C 575.171 617.406 572.529 616.873 569.852 616.675 C 568.264 616.49 566.666 616.399 565.068 616.407 C 561.806 616.443 558.549 616.693 555.32 617.153 Z"/>
  <path class="cls-2" d="M 575.564 628.517 C 574.424 629.187 573.492 630.16 572.872 631.328 L 572.543 631.507 C 570.597 632.15 568.595 632.611 566.563 632.882 C 557.436 633.682 548.265 633.882 539.112 633.481 C 535.643 633.481 532.175 633.301 528.706 633.481 C 525.237 633.66 521.738 634.408 518.33 634.976 C 514.143 635.663 510.016 636.5 505.861 637.397 C 489.483 641.038 473.408 645.927 457.777 652.02 C 441.951 658.132 426.477 665.12 411.428 672.952 C 406.426 675.891 406.483 683.142 411.529 686.003 C 412.063 686.306 412.631 686.543 413.222 686.707 C 415.179 687.22 417.259 686.951 419.023 685.959 C 429.429 680.578 440.015 675.594 450.78 671.008 C 475.585 660.324 501.635 652.799 528.318 648.612 C 532.102 648.384 535.896 648.384 539.68 648.612 C 545.661 648.612 551.373 648.79 557.233 648.612 C 563.047 648.577 568.84 647.926 574.516 646.667 C 576.85 646.132 579.082 645.223 581.125 643.977 C 582.237 643.334 583.246 642.527 584.115 641.584 C 585.277 640.269 586.161 638.733 586.717 637.068 C 587.292 635.116 587.02 633.011 585.97 631.268 C 584.972 629.569 583.352 628.326 581.454 627.799 C 579.498 627.264 577.41 627.533 575.654 628.547 Z"/>
  <path class="cls-2" d="M 569.134 625.287 C 559.413 625.374 549.709 626.153 540.099 627.62 C 538.194 628.118 536.575 629.37 535.613 631.089 C 533.506 634.68 534.711 639.3 538.305 641.405 L 540.099 642.152 C 541.41 642.516 542.795 642.516 544.106 642.152 L 546.767 641.763 C 554.203 640.904 561.68 640.444 569.164 640.388 C 574.92 639.659 577.726 632.973 574.217 628.354 C 572.993 626.743 571.172 625.691 569.164 625.436 Z"/>
  <path class="cls-2" d="M 378.535 645.053 C 374.528 645.562 370.521 645.95 366.574 646.159 C 367.227 640.395 361.397 636.085 356.078 638.401 C 353.928 639.337 352.335 641.221 351.772 643.498 C 350.947 646.891 350.633 650.389 350.845 653.874 C 350.878 658.023 354.233 661.377 358.38 661.41 C 379.013 661.41 399.108 656.326 419.411 653.486 C 430.31 651.944 441.358 651.743 452.305 652.887 C 474.104 656.087 494.558 664.399 515.1 672.115 C 517.054 672.686 519.157 672.414 520.902 671.367 C 524.495 669.263 525.701 664.643 523.593 661.051 C 522.561 659.383 520.955 658.149 519.078 657.582 C 507.685 653.306 496.352 648.82 484.749 645.113 C 472.856 641.173 460.559 638.575 448.088 637.368 C 445.098 637.099 441.929 636.979 438.848 636.979 C 418.604 636.979 398.599 642.212 378.624 644.992 Z"/>
  <path class="cls-2" d="M 374.14 629.892 C 367.472 632.018 360.982 634.668 354.732 637.816 C 353.017 638.794 351.766 640.422 351.263 642.332 C 350.156 646.345 352.513 650.496 356.527 651.601 C 358.485 652.104 360.561 651.837 362.327 650.853 C 364.321 649.837 366.394 648.84 368.547 647.864 C 378.891 643.697 389.707 640.815 400.752 639.282 C 417.837 637.335 435.099 637.565 452.125 639.969 C 457.707 640.767 463.259 641.714 468.781 642.81 C 472.04 643.438 475.329 643.887 478.619 644.395 C 486.186 645.283 493.628 647.018 500.807 649.568 C 502.658 650.402 504.429 651.404 506.1 652.559 C 506.855 653.196 507.564 653.886 508.223 654.622 C 508.608 655.198 508.957 655.798 509.269 656.416 C 509.501 657.102 509.691 657.8 509.837 658.509 L 509.837 659.018 C 509.871 661.008 510.663 662.911 512.05 664.34 C 516.156 668.437 523.158 666.553 524.654 660.948 C 524.822 660.319 524.907 659.669 524.908 659.018 C 524.813 657.37 524.603 655.732 524.281 654.113 C 523.91 652.596 523.38 651.122 522.696 649.717 C 521.517 647.198 519.896 644.908 517.911 642.96 C 515.979 641.07 513.808 639.441 511.452 638.116 C 508.762 636.613 505.939 635.361 503.019 634.378 C 493.57 630.968 483.433 630.251 473.625 628.397 C 470.097 627.769 466.598 627.052 463.04 626.453 C 458.464 625.676 453.83 625.048 449.224 624.48 C 440.94 623.458 432.603 622.898 424.256 622.805 L 422.253 622.805 C 405.945 622.679 389.712 625.028 374.109 629.773 Z"/>
  <path class="cls-2" d="M 401.559 634.257 C 395.379 634.696 389.241 635.606 383.2 636.979 C 377.571 638.219 372.185 640.382 367.262 643.378 C 362.351 646.467 362.626 653.712 367.755 656.421 C 369.98 657.596 372.643 657.582 374.857 656.385 C 376.323 655.464 377.852 654.645 379.431 653.934 C 384.588 652.018 389.945 650.694 395.4 649.987 C 408.518 648.743 421.703 648.354 434.871 648.82 C 440.627 649.55 445.012 643.776 442.767 638.428 C 441.457 635.308 438.228 633.444 434.871 633.869 C 430.266 633.869 425.662 633.869 421.056 633.869 C 414.537 633.869 408.019 633.869 401.53 634.497 Z"/>
  <path class="cls-2" d="M 425.362 608.961 C 424.844 607.286 424.375 605.602 423.957 603.907 C 422.414 598.313 415.396 596.487 411.322 600.619 C 409.432 602.537 408.709 605.317 409.424 607.913 C 410.823 613.378 412.694 618.711 415.016 623.851 C 415.983 625.576 417.615 626.829 419.531 627.32 C 421.486 627.874 423.582 627.603 425.333 626.574 C 433.181 621.604 441.41 617.265 449.943 613.596 C 467.07 606.671 485.005 601.939 503.318 599.511 C 533.121 596.159 563.197 596.029 593.026 599.123 C 595.03 599.15 596.955 598.35 598.349 596.91 C 601.285 593.969 601.285 589.206 598.349 586.264 C 596.914 584.887 595.015 584.097 593.026 584.051 C 577.746 582.735 562.167 581.869 546.558 581.869 C 504.485 581.869 462.232 588.178 425.482 608.99 Z"/>
  <path class="cls-2" d="M 545.093 563.449 C 532.264 563.957 519.436 564.644 506.668 566.439 C 489.779 568.519 473.114 572.132 456.88 577.234 C 440.853 582.253 425.483 589.17 411.099 597.836 C 405.996 600.595 405.792 607.843 410.733 610.883 C 413.178 612.388 416.264 612.372 418.694 610.844 C 426.801 605.902 435.256 601.554 443.992 597.836 C 464.001 589.761 484.948 584.235 506.339 581.391 C 513.655 580.433 521.001 579.725 528.377 579.267 C 533.072 578.968 537.796 578.819 542.521 578.58 C 551.69 577.992 560.892 578.171 570.032 579.117 C 573.776 579.63 577.456 580.543 581.006 581.839 C 582.254 582.409 583.454 583.079 584.594 583.842 C 585.089 584.273 585.557 584.733 585.999 585.217 C 586.239 585.596 586.457 585.975 586.657 586.353 L 586.896 587.191 C 588.439 592.784 595.458 594.612 599.531 590.479 C 601.421 588.561 602.145 585.78 601.43 583.184 C 600.836 580.895 599.822 578.734 598.439 576.815 C 597.611 575.656 596.691 574.566 595.688 573.555 C 594.496 572.456 593.216 571.455 591.86 570.565 C 589.66 569.193 587.313 568.069 584.863 567.216 C 582.474 566.322 580.013 565.633 577.507 565.153 C 570.079 563.721 562.524 563.051 554.96 563.149 C 551.671 563.149 548.382 563.149 545.093 563.359 Z"/>
  <path class="cls-2" d="M 544.704 573.914 C 530.465 574.382 516.272 575.77 502.212 578.071 C 474.507 582.726 447.247 589.729 420.727 599.002 C 418.852 599.558 417.252 600.795 416.242 602.471 C 413.322 607.483 416.922 613.777 422.722 613.8 C 423.402 613.803 424.079 613.714 424.735 613.535 C 453.642 603.431 483.437 596.072 513.724 591.557 C 536.527 588.396 559.638 588.155 582.501 590.839 L 582.681 590.839 L 584.683 591.109 C 586.018 591.113 587.328 590.762 588.481 590.092 C 592.075 587.988 593.28 583.367 591.173 579.775 C 590.217 578.052 588.595 576.798 586.687 576.306 C 579.719 575.35 572.782 574.602 565.755 574.213 C 561.27 573.945 556.784 573.855 552.269 573.855 C 549.698 573.855 547.117 573.855 544.525 573.855 Z M 581.784 590.66 L 581.784 590.66 Z"/>
  <path class="cls-2" d="M 355.569 591.348 C 355.532 594.7 355.842 598.047 356.496 601.335 C 357.004 603.235 358.254 604.852 359.965 605.821 C 363.557 607.928 368.177 606.723 370.281 603.129 C 371.262 601.361 371.529 599.286 371.029 597.329 L 370.88 596.491 C 370.699 594.783 370.619 593.065 370.641 591.348 C 371.369 585.593 365.596 581.207 360.247 583.453 C 357.128 584.762 355.263 587.991 355.689 591.348 Z"/>
  <path class="cls-2" d="M 400.364 579.297 C 393.555 580.307 386.856 581.959 380.359 584.231 C 373.913 586.422 367.804 589.502 362.208 593.381 C 361.072 594.189 359.995 595.055 358.919 595.893 C 357.473 597.282 356.671 599.211 356.706 601.215 C 356.706 605.377 360.08 608.751 364.241 608.751 L 366.245 608.482 C 367.447 608.15 368.547 607.523 369.444 606.658 C 373.113 604.023 377.053 601.787 381.196 599.989 C 389.234 596.867 397.617 594.719 406.165 593.591 C 422.235 591.691 438.48 591.822 454.517 593.979 C 461.639 594.977 468.691 596.425 475.629 598.315 C 481.928 600.08 488.109 602.237 494.139 604.774 C 503.857 608.961 513.217 613.894 522.546 618.918 C 527.456 622.006 533.868 618.62 534.088 612.824 C 534.196 609.956 532.666 607.275 530.142 605.911 C 516.471 598.155 502.178 591.553 487.41 586.175 C 473.044 581.51 458.142 578.686 443.065 577.771 C 438.261 577.413 433.456 577.234 428.651 577.234 C 419.183 577.231 409.727 577.941 400.364 579.357 Z M 405.417 593.65 L 404.879 593.65 L 405.417 593.65 Z"/>
  <path class="cls-2" d="M 402.487 566.768 C 395.22 568.354 388.092 570.515 381.166 573.226 C 373.871 576.029 366.862 579.523 360.235 583.663 C 355.324 586.751 355.598 593.997 360.727 596.705 C 362.952 597.88 365.616 597.866 367.83 596.671 C 372.833 593.53 378.072 590.781 383.498 588.447 C 394.63 583.964 406.27 580.861 418.156 579.207 C 430.304 577.665 442.596 577.615 454.756 579.058 C 460.322 579.944 465.824 581.184 471.233 582.766 C 478.703 584.849 486.041 587.376 493.212 590.331 C 499.642 592.957 505.752 596.307 511.422 600.318 C 513.025 601.605 514.506 603.037 515.848 604.595 C 516.312 605.264 516.731 605.964 517.104 606.687 C 517.277 607.217 517.416 607.756 517.522 608.303 C 518.025 610.213 519.275 611.839 520.992 612.818 C 524.582 614.926 529.203 613.72 531.308 610.127 C 532.287 608.359 532.555 606.283 532.056 604.326 C 530.88 599.737 528.409 595.586 524.939 592.365 C 523.076 590.53 521.076 588.841 518.958 587.311 C 516.814 585.741 514.577 584.303 512.259 583.005 C 506.936 580.068 501.421 577.491 495.753 575.289 C 490.46 573.167 485.078 571.312 479.636 569.638 C 475.031 568.233 470.365 566.977 465.671 565.931 C 460.406 564.801 455.072 564.022 449.704 563.598 C 445.716 563.259 441.729 563.09 437.742 563.09 C 425.954 563.147 414.206 564.461 402.696 567.007 Z"/>
  <path class="cls-2" d="M 413.491 536.476 C 412.042 537.864 411.24 539.793 411.278 541.799 C 411.758 545.447 411.987 549.124 411.965 552.803 C 411.237 558.558 417.011 562.944 422.359 560.698 C 425.479 559.389 427.343 556.159 426.917 552.803 C 426.939 549.124 426.709 545.447 426.23 541.799 L 425.96 539.795 C 424.42 534.233 417.454 532.396 413.372 536.476 Z"/>
  <path class="cls-2" d="M 512.768 507.292 C 500.938 508.335 489.191 510.163 477.603 512.763 C 470.889 514.318 464.285 516.315 457.837 518.744 C 451.006 521.235 444.443 524.412 438.25 528.223 C 432.584 531.717 427.456 536.019 423.03 540.992 C 420.674 543.682 418.572 546.585 416.751 549.664 C 414.948 552.817 413.465 556.143 412.325 559.591 C 410.772 565.18 415.852 570.354 421.468 568.904 C 422.142 568.73 422.788 568.464 423.389 568.113 C 425.069 567.094 426.306 565.484 426.857 563.598 C 427.127 562.85 427.396 562.103 427.664 561.385 C 429.03 558.389 430.704 555.542 432.659 552.893 C 435.243 549.756 438.149 546.9 441.33 544.371 C 446.701 540.454 452.499 537.164 458.614 534.562 C 472.663 529.104 487.339 525.428 502.302 523.618 C 511.273 522.482 520.004 521.734 528.886 521.285 C 539.206 520.655 549.561 520.925 559.834 522.093 C 566.324 522.983 572.686 524.629 578.793 526.997 C 582.056 528.438 585.163 530.212 588.062 532.29 C 590.17 534.011 592.102 535.933 593.833 538.032 C 595.183 539.923 596.373 541.923 597.392 544.012 C 598.359 545.725 599.976 546.976 601.878 547.48 C 605.891 548.588 610.042 546.232 611.148 542.218 C 611.65 540.26 611.383 538.183 610.4 536.416 C 607.634 530.829 603.733 525.88 598.948 521.884 C 596.533 519.865 593.952 518.055 591.232 516.472 C 588.226 514.792 585.098 513.343 581.873 512.135 C 576.214 510.008 570.338 508.514 564.35 507.68 C 557.873 506.702 551.341 506.142 544.793 506.005 L 540.248 506.005 C 531.098 506.005 521.918 506.634 512.827 507.47 Z"/>
  <path class="cls-2" d="M 501.106 491.682 C 486.664 493.349 472.495 496.855 458.943 502.118 C 450.05 505.593 441.566 510.035 433.645 515.365 C 425.551 520.841 418.264 527.424 411.996 534.921 C 410.624 536.36 409.835 538.256 409.783 540.244 C 409.783 544.405 413.157 547.779 417.319 547.779 C 419.323 547.81 421.25 547.009 422.641 545.566 C 427.055 540.283 432.005 535.472 437.413 531.213 C 444.972 525.572 453.173 520.844 461.844 517.129 C 474.477 512.044 487.698 508.558 501.195 506.753 C 517.193 504.684 533.386 504.624 549.399 506.573 C 557.013 507.58 564.481 509.487 571.646 512.254 C 575.539 513.97 579.238 516.095 582.681 518.595 C 585.286 520.71 587.671 523.085 589.797 525.681 C 591.85 528.486 593.613 531.492 595.06 534.652 L 595.508 535.848 C 596.082 537.715 597.315 539.309 598.977 540.334 C 602.569 542.441 607.189 541.236 609.293 537.642 C 610.345 535.899 610.615 533.794 610.041 531.841 C 608.749 528.347 607.168 524.967 605.317 521.734 C 603.359 518.525 601.086 515.519 598.529 512.763 C 596.2 510.261 593.636 507.988 590.873 505.976 C 588.263 504.013 585.492 502.272 582.591 500.773 C 570.151 494.314 556.157 491.801 542.311 490.696 C 536.969 490.237 531.617 490.017 526.254 490.038 C 517.856 490.042 509.467 490.571 501.136 491.622 Z"/>
  <path class="cls-2" d="M 498.474 498.918 C 482.481 501.105 466.925 505.765 452.364 512.734 C 450.646 513.709 449.396 515.338 448.895 517.249 C 447.789 521.262 450.145 525.413 454.159 526.519 C 456.117 527.021 458.193 526.754 459.959 525.771 C 461.694 524.914 463.458 524.096 465.252 523.319 C 478.048 518.284 491.416 514.85 505.053 513.092 C 518.933 511.317 532.935 510.697 546.917 511.238 C 552.672 510.509 555.478 503.823 551.97 499.205 C 550.745 497.592 548.924 496.542 546.917 496.287 C 543.747 496.167 540.587 496.108 537.437 496.108 C 524.424 496.14 511.43 497.139 498.564 499.098 Z"/>
  <path class="cls-2" d="M 465.552 480.379 C 457.515 480.784 449.519 481.784 441.629 483.369 C 430.902 485.313 420.337 488.062 410.022 491.593 C 396.902 495.8 384.718 502.5 374.14 511.328 C 369.41 515.455 365.46 520.397 362.477 525.92 C 359.196 532.188 357.395 539.123 357.214 546.195 C 356.485 551.949 362.259 556.336 367.607 554.09 C 370.727 552.78 372.591 549.551 372.165 546.195 C 372.165 545.138 372.235 544.082 372.375 543.025 C 372.804 540.43 373.495 537.886 374.438 535.43 C 375.625 532.86 377.069 530.416 378.744 528.133 C 381.284 525.061 384.141 522.265 387.267 519.79 C 393.213 515.482 399.634 511.87 406.404 509.026 C 413.993 505.957 421.787 503.42 429.728 501.431 C 437.756 499.351 445.891 497.713 454.098 496.526 C 463.52 495.268 473.058 495.157 482.506 496.197 C 489.528 497.244 496.403 499.11 502.989 501.76 C 508.073 504.032 512.888 506.813 517.762 509.504 C 522.198 511.883 526.472 514.55 530.56 517.488 C 532.745 519.281 534.748 521.283 536.54 523.469 C 537.375 524.655 538.114 525.905 538.753 527.206 C 539.156 528.338 539.476 529.497 539.71 530.676 C 539.791 531.84 539.791 533.009 539.71 534.174 C 539.71 534.802 539.441 535.43 539.292 536.057 C 537.749 541.651 542.841 546.817 548.456 545.355 C 551.063 544.678 553.108 542.66 553.824 540.065 C 554.432 537.657 554.783 535.191 554.871 532.709 C 554.877 530.227 554.566 527.755 553.943 525.352 C 553.423 523.423 552.712 521.55 551.821 519.761 C 551.081 518.196 550.179 516.712 549.13 515.335 C 547.081 512.537 544.713 509.988 542.072 507.74 C 539.119 505.265 535.991 503.006 532.713 500.982 C 530.052 499.307 527.27 497.752 524.52 496.228 C 521.768 494.702 518.3 492.729 515.13 491.084 C 507.449 487.126 499.258 484.248 490.789 482.531 C 483.896 481.17 476.884 480.499 469.858 480.529 L 465.432 480.529 Z"/>
  <path class="cls-2" d="M 434.213 490.067 C 425.924 491.757 417.885 494.5 410.292 498.23 C 397.483 504.147 385.541 511.783 374.796 520.927 C 371.545 523.719 368.543 526.791 365.826 530.107 C 363.077 533.343 360.773 536.933 358.978 540.782 L 358.231 542.576 C 356.686 548.167 361.774 553.335 367.388 551.876 C 367.426 551.867 367.463 551.856 367.501 551.846 C 369.408 551.351 371.028 550.098 371.987 548.377 C 373.207 545.678 374.721 543.121 376.502 540.753 C 380.368 536.123 384.73 531.932 389.509 528.253 C 399.498 520.746 410.339 514.443 421.804 509.474 C 428.344 506.847 435.168 504.99 442.138 503.942 C 450.588 503.002 459.121 503.072 467.555 504.152 C 479.117 505.815 490.433 508.878 501.255 513.271 C 509.23 516.709 516.776 521.064 523.742 526.249 C 528.787 530.258 533.442 534.733 537.647 539.616 C 539.042 541.052 540.967 541.853 542.969 541.828 C 547.131 541.828 550.505 538.455 550.505 534.294 C 550.464 532.303 549.675 530.402 548.292 528.97 C 538.066 517.216 525.444 507.785 511.273 501.311 C 495.506 494.078 478.575 489.713 461.275 488.422 C 458.863 488.243 456.451 488.153 454.039 488.153 C 447.397 488.177 440.771 488.808 434.244 490.038 Z"/>
  <path class="cls-2" d="M 533.49 362.682 C 530.271 362.677 527.055 362.878 523.862 363.28 C 520.843 363.636 517.849 364.165 514.891 364.865 C 511.991 365.622 509.144 366.571 506.368 367.706 L 502.989 369.022 C 497.009 371.294 491.028 373.657 485.048 375.839 C 471.527 381.046 457.495 384.814 443.185 387.082 C 438.16 387.711 432.988 388.099 427.815 388.218 C 423.666 388.251 420.311 391.606 420.279 395.754 C 420.284 396.688 420.467 397.611 420.817 398.475 C 420.817 399.034 420.768 399.591 420.668 400.15 C 420.01 404.336 419.023 408.552 418.036 412.619 C 417.409 415.281 416.751 418.002 416.212 420.723 C 415.405 424.567 414.874 428.465 414.627 432.385 C 414.552 435.29 414.772 438.196 415.285 441.057 L 415.285 441.207 C 415.285 441.566 415.285 441.894 415.285 442.253 L 415.285 442.463 C 414.86 443.927 414.86 445.482 415.285 446.947 C 416.301 450.368 419.493 452.677 423.06 452.569 L 423.599 452.569 C 424.406 452.569 425.213 452.569 426.02 452.569 L 426.409 452.569 C 427.614 452.635 428.822 452.635 430.027 452.569 C 431.862 452.391 433.676 452.03 435.439 451.493 C 437.102 450.944 438.729 450.295 440.313 449.549 L 440.822 449.31 C 444.877 447.387 448.785 445.168 452.514 442.672 L 456.909 439.92 C 459.422 438.396 462.083 436.93 464.655 435.734 L 465.372 435.375 C 468.692 433.671 472.1 432.057 475.568 430.561 C 482.582 427.607 489.92 425.49 497.428 424.251 C 500.217 423.932 503.023 423.772 505.83 423.773 C 508.579 423.776 511.324 423.936 514.053 424.251 C 517.827 424.858 521.525 425.86 525.088 427.242 C 531.991 430.657 538.498 434.818 544.495 439.652 L 547.994 442.253 C 551.894 445.185 556.012 447.814 560.313 450.117 C 562.313 451.221 564.369 452.219 566.473 453.108 C 567.676 453.621 568.964 453.905 570.271 453.944 L 570.929 453.944 C 572.407 453.902 573.855 453.503 575.145 452.779 C 575.9 452.345 576.594 451.812 577.208 451.194 C 578.606 449.665 579.63 447.833 580.199 445.842 C 580.557 444.765 580.857 443.658 581.125 442.582 L 581.574 440.907 C 582.322 438.216 583.278 435.525 584.175 433.013 C 585.073 430.501 586.269 427.212 587.345 424.341 C 590.809 415.56 593.725 406.572 596.076 397.429 C 596.802 394.492 595.779 391.399 593.445 389.475 C 593.124 388.139 592.442 386.918 591.472 385.946 C 582.668 377.083 571.841 370.495 559.924 366.748 C 553.985 364.906 547.873 363.674 541.684 363.071 C 538.963 362.77 536.228 362.621 533.49 362.622 Z"/>
  <path class="cls-2" d="M 857.693 792.115 C 856.179 792.115 854.634 792.178 853.088 792.292 C 846.763 792.836 840.538 794.215 834.575 796.396 C 833.999 796.396 833.531 796.864 833.531 797.44 C 833.461 799.466 833.287 801.488 833.009 803.496 L 833.009 803.58 C 832.884 804.509 832.738 805.48 832.529 806.712 C 832.513 806.841 832.513 806.97 832.529 807.099 C 832.479 807.345 832.52 807.601 832.644 807.819 C 833.166 808.863 833.688 809.907 834.273 810.952 C 835.254 812.768 836.267 814.658 837.102 816.59 C 837.301 817.07 837.499 817.561 837.677 818.042 L 837.677 818.125 C 837.751 818.379 837.919 818.596 838.146 818.731 C 838.309 818.824 838.492 818.874 838.679 818.877 C 838.762 818.893 838.847 818.893 838.93 818.877 C 844.512 816.47 850.368 814.755 856.367 813.771 C 858.063 813.546 859.772 813.431 861.484 813.426 C 862.824 813.425 864.163 813.505 865.493 813.667 C 867.794 813.978 870.046 814.578 872.197 815.452 C 873.565 816.037 874.891 816.747 876.185 817.436 L 877.334 818.042 C 878.931 818.877 880.832 819.848 882.774 820.683 C 885.942 822.188 889.386 823.024 892.892 823.137 C 893.471 823.136 894.05 823.105 894.625 823.043 C 894.803 823.034 894.978 822.988 895.137 822.907 L 895.262 822.907 C 895.543 822.903 895.81 822.787 896.004 822.584 C 896.184 822.4 896.281 822.151 896.275 821.895 C 896.056 815.755 896.275 809.521 896.567 803.496 L 896.651 801.544 C 896.766 801.424 896.849 801.277 896.891 801.116 C 896.963 800.843 896.921 800.553 896.776 800.312 C 896.648 800.086 896.433 799.924 896.181 799.863 C 894.721 799.561 893.242 799.366 891.754 799.278 C 890.95 799.215 890.125 799.142 889.321 799.038 C 887.838 798.805 886.37 798.484 884.925 798.077 C 883.411 797.67 881.918 797.19 880.54 796.73 L 878.556 796.062 C 876.342 795.321 874.066 794.548 871.769 793.974 C 868.689 793.172 865.544 792.645 862.371 792.397 C 860.826 792.272 859.239 792.199 857.693 792.199 Z"/>
</svg>