<svg xmlns="http://www.w3.org/2000/svg" viewBox="0 0 1500 1500"><defs><style>.cls-1{fill:#2c2c2c;}.cls-2{fill:#fff9e9;}</style></defs><title>nerd glasses for marketplace</title><g id="Draw_Layer" data-name="Draw Layer"><path d="M252.79,983.45c11.15,68.06,110-94.83,158.61-167.22s103.09-82.07,103.09-82.07L1359.07,595.8l-10-60.85L526.27,669.75a76.79,76.79,0,0,0-39.18,18.95c-19.88,18-57.1,52.93-113.27,110.17C284.52,889.86,241.65,915.4,252.79,983.45Z"/><path d="M1236.45,977.67c-11.15,68.06-110-94.83-158.61-167.22s-103.09-82.07-103.09-82.07L130.18,590l10-60.85L963,664a76.79,76.79,0,0,1,39.18,18.95c19.88,18,57.1,52.93,113.27,110.17C1204.72,884.08,1247.6,909.62,1236.45,977.67Z"/><path class="cls-1" d="M1384.4,519.43a4.21,4.21,0,0,0-2.92-1.49h-.26a4.11,4.11,0,0,0-.86.09h-.11c-18.35-1.72-37-3.78-55-5.79-41.27-4.58-83.93-9.31-126.18-10.14-4-.07-8.1-.11-12.32-.11-9.82,0-20.4.21-32.33.64-14.09.51-28.89,1.34-44,2.5-28.21,2.15-58.11,5.52-88.85,10l-7.61,1.14c-56.11,3.22-112.32,4.77-168.52,5.13C748,522,650.6,519,553.27,515q-58.75-2.42-117.51-5.2c-11.66-1.09-23.23-1.93-34.57-2.53-13.51-.7-27.33-1.05-42.26-1.05-3.14,0-6.3,0-9.44.05-36.39.35-71.8,2.82-101.63,5.2-13.53,1.08-27.29,2.25-40.59,3.39-27.83,2.39-56.61,4.85-85,6.53a4.41,4.41,0,0,0-2.75,1,4.06,4.06,0,0,0-.79-.08,4.26,4.26,0,0,0-3,1.31,3.86,3.86,0,0,0-1.13,2.83c.86,25.16,5.07,50.58,9.3,74.47a4,4,0,0,0,2,4.17,76,76,0,0,1,10.9,6.82,77.15,77.15,0,0,1,12.71,12.8A113,113,0,0,1,163,648.49a315.54,315.54,0,0,1,10.67,31.15,4.1,4.1,0,0,0,.43,1c2.32,10.62,4.14,21.52,5.9,32.07,1.7,10.11,3.44,20.57,5.62,30.77,1.19,5.55,2.62,11.15,4,16.56l.34,1.31c1.51,6,2.81,11,4.21,16a239.91,239.91,0,0,0,10.59,31,134.53,134.53,0,0,0,7.16,14.29,119.38,119.38,0,0,0,9.38,13.75c6.26,8,14.25,15.68,25.13,24,17.57,13.49,38.38,24.19,61.87,31.8,15.52,5,33,8.93,53.48,11.93,15.84,2.33,32.57,4,51.19,5a3.65,3.65,0,0,0,1.56.4h.23l1.89-.18h.45a3.83,3.83,0,0,0,.9-.11c6-.55,12.1-1,18.15-1.54,14.38-1.18,29.25-2.4,43.82-4.23,25.68-3.24,45.89-7.85,63.61-14.5a173.59,173.59,0,0,0,29.56-14.36,175.41,175.41,0,0,0,27-20.94,301,301,0,0,0,44-51.68,395.92,395.92,0,0,0,32.65-58.73c4.49-9.8,8.84-20.15,13.28-31.61,2.21-5.69,4.37-11.51,6.45-17.14,2.17-5.86,4.42-11.93,6.73-17.86l.87-2.2a4.4,4.4,0,0,0,2.53-2.53c.6-1.52,1.25-3,2-4.48a57.37,57.37,0,0,1,7.36-11,51.42,51.42,0,0,1,8.48-7.53,47.13,47.13,0,0,1,9.43-4.75A46.09,46.09,0,0,1,744.2,642c.91-.05,1.85-.08,2.79-.08A63.89,63.89,0,0,1,758.47,643a58,58,0,0,1,13.15,4.47,57.15,57.15,0,0,1,10.94,7.39,73.14,73.14,0,0,1,11.07,12.76l.51.78c10.93,34.53,21.4,62.16,33,87a378.8,378.8,0,0,0,27.15,49.11c11.06,16.74,22.38,30.5,34.63,42a168.67,168.67,0,0,0,23.59,18.69,138.65,138.65,0,0,0,19.1,10.36A304.85,304.85,0,0,0,962,889.77a328.6,328.6,0,0,0,63.37,18,333.22,333.22,0,0,0,59.75,5.39c2,0,3.92,0,5.87-.05a310.71,310.71,0,0,0,64.89-7.89c6.06-1.42,12.29-3.1,18.51-5a4.87,4.87,0,0,0,2.1-1.16,215,215,0,0,0,35.29-13.36,169.7,169.7,0,0,0,30.11-18.79A161.52,161.52,0,0,0,1264.64,845c12.24-14.14,22.65-31.14,31.84-51.95,7.32-16.57,13.52-35.18,19.53-58.55,4.57-17.79,8.36-36.07,12-53.76l1-4.75a4.66,4.66,0,0,0,1.06-2.53c.24-1.46.51-2.95.82-4.56a124.53,124.53,0,0,1,9.8-29.48,72.67,72.67,0,0,1,9.64-14.7,47.41,47.41,0,0,1,7.9-7.05,38.16,38.16,0,0,1,7.42-3.74c.64-.22,1.28-.4,1.93-.58a4.35,4.35,0,0,0,2.58-1.75l.12-.19a4.59,4.59,0,0,0,1.1-2.51c1.51-13.9,4.19-27.87,6.77-41.38,2.82-14.72,5.74-30,7.15-45.17A3.84,3.84,0,0,0,1384.4,519.43ZM634.51,672.59c-4.4,31.78-11.49,59.1-21.66,83.51a192.61,192.61,0,0,1-24.06,42.21,187.05,187.05,0,0,1-16.33,18.08,243.33,243.33,0,0,1-21.19,18.43c-6.48,5-13.16,9.59-19.85,13.76a155.5,155.5,0,0,1-20.76,11.12,136.29,136.29,0,0,1-33.26,8.66,256.66,256.66,0,0,1-33.35,1.88c-9.06,0-18.27-.3-27.17-.59l-1.05,0c-4.59-.14-9.18-.3-13.77-.39-1.65-.2-3.32-.4-5-.63a382,382,0,0,1-41.3-8.1,236.32,236.32,0,0,1-33.24-10.59,158.86,158.86,0,0,1-34.14-19.72,145.61,145.61,0,0,1-25-25,154.54,154.54,0,0,1-15.08-24.14,6.57,6.57,0,0,0-.52-1.57c-.69-1.55-1.36-3.11-2-4.68a275.2,275.2,0,0,1-18.56-139.1l0-.14v-.09a.18.18,0,0,0,0-.07l0-.13v-.08c.58-4.14,1.26-8.25,2-12.24a5.06,5.06,0,0,0,.72-2.33c.05-.53.1-1,.18-1.57.16-1,.33-2,.52-2.93s.48-2.09.72-3.13a61.4,61.4,0,0,1,2.64-7.89,72.44,72.44,0,0,1,8.57-14.48,96.52,96.52,0,0,1,16.42-16.14,126.18,126.18,0,0,1,26.56-15.31,122.69,122.69,0,0,1,30-8.34,3.31,3.31,0,0,0,1.63-.86c3.11-.57,6.36-1.1,9.65-1.55,18.42-2.43,36.77-2.93,58.66-2.93l8.57,0c10.12,0,20.89.11,31.59.52,11.09.42,22.32,1.15,33.36,2.16,7.66.69,15.48,1.58,23.22,2.62l-.48-.08a438.18,438.18,0,0,1,45.27,8.51A280.87,280.87,0,0,1,569.33,573c1.25.53,2.49,1.08,3.73,1.63l.13.07.26.1.14.06,3.48,1.62.33.14a121.45,121.45,0,0,1,20.64,12.66,115.83,115.83,0,0,1,19.62,19.54,104.23,104.23,0,0,1,12.76,21.69,95.41,95.41,0,0,1,6.24,22.58c-.6,6.56-1.34,13.18-2.21,19.65ZM787.94,560.72a1.77,1.77,0,0,1,.51-.14c1.39-.2,2.77-.37,4.17-.54Zm15.64-1.7a.59.59,0,0,0,0-.13l1.83,0Zm24.68-5.63h0l.21,0ZM1276.32,670.1c-.56,5.6-1.21,11.29-1.84,16.79q-.39,3.33-.76,6.69c-.34,2.95-.64,5.89-1,8.83-.57,5.38-1.15,10.94-1.87,16.39-3.24,23.4-8.24,43.07-15.31,60.1a166.6,166.6,0,0,1-17.52,31.36,4,4,0,0,0-.79,1l-.13.24-.13.26c-.73,1-1.48,2-2.23,3a141.91,141.91,0,0,1-14.11,15.66c-4.24,4-8.66,7.75-13.59,11.86a132.45,132.45,0,0,1-17.81,9.2c-16.63,6.91-35.69,11.65-60,14.94l1.11-.12c-7.17.93-14.72,1.76-23.08,2.5-9.66.86-18.41,1.46-26.76,1.84-6.55.29-13,.43-19.15.43a324.37,324.37,0,0,1-42.94-2.67c-19.29-2.68-36.19-7.1-51.68-13.52-3.7-1.58-7.32-3.28-10.77-5.06-1.75-.89-3.49-1.86-5.18-2.79l-.4-.22-.17-.09c-2.19-1.21-4.46-2.46-6.62-3.79a3.67,3.67,0,0,0-.44-.24l-1.67-1.26a164.68,164.68,0,0,1-28-28.51c-12.05-15.71-22.67-34.29-31.54-55.22a308.88,308.88,0,0,1-21.24-77.42c-.53-4-1-8.05-1.29-12.08-.14-1.84-.28-3.79-.39-6.15a232.91,232.91,0,0,1,1.63-25.84A99.47,99.47,0,0,1,866.79,612a59.11,59.11,0,0,1,15.54-21.9,166.25,166.25,0,0,1,31-17c17.32-7.27,37.23-13.1,62.64-18.36,11.3-2.33,22.72-4.31,31.41-5.79,10.31-1.75,21.36-3.58,32.4-5.08,0,0,.05,0,.05,0h.23l.16,0,.14,0h.23l.13,0a550.39,550.39,0,0,1,72.53-5.15c8.93,0,17.73.28,26.33.82s17,1.36,25.14,2.45a298.12,298.12,0,0,1,30.67,5.84,199.71,199.71,0,0,1,28.3,9A120.77,120.77,0,0,1,1249,571.22a87.69,87.69,0,0,1,14.69,14.52l.87,1.16a3,3,0,0,0,.5,1.28,58.25,58.25,0,0,1,6.33,11.11,87.81,87.81,0,0,1,5.45,21.21C1279,637.42,1277.86,654.33,1276.32,670.1Z"/></g><g id="Draw_Layer-2" data-name="Draw Layer"><path class="cls-2" d="M718.37,500.3a240.9,240.9,0,0,0-50.65,5.56c-4.28,1-8.79,2.25-11.73,5.52-2.66,3-3.57,7.07-4.12,11-2.29,16.58.15,33.4,2.65,50,2.9,19.2,14.71,154.1,35.42,150.18,5.17-1,9.2-4.89,13.12-8.39,13.69-12.22,31.31-21.85,49.57-20,24.25,2.4,41.8,23.41,56.57,42.8,14.4-23.44,16.35-52.36,15.3-79.84s-4.65-55.24.11-82.33c2-11.1,5.3-22,5.46-33.32S826.49,518,817.2,511.61c-6.63-4.55-15-5.52-23-6.36C769.06,502.61,743.6,500,718.37,500.3ZM674.55,648.69l-.19-1.41-.05-.5.24,1.9Z"/></g></svg>