<?xml version="1.0" encoding="utf-8"?>
<!-- Generator: Adobe Illustrator 21.1.0, SVG Export Plug-In . SVG Version: 6.00 Build 0)  -->
<svg version="1.1" id="Layer_1" xmlns="http://www.w3.org/2000/svg" xmlns:xlink="http://www.w3.org/1999/xlink" x="0px" y="0px"
	 viewBox="0 0 360 360" style="enable-background:new 0 0 360 360;" xml:space="preserve">
<style type="text/css">
	.st0{fill:#00596F;}
	.st1{fill:#007F9E;}
	.st2{fill:#007491;}
	.st3{fill:#006C87;}
	.st4{fill:#FFD34E;}
	.st5{fill:#FFFFFF;}
	.st6{fill:#2C2C2C;}
	.st7{fill:#BEBEBE;}
</style>
<path class="st0" d="M265.3-163.5L265.3-163.5c-0.2,0-0.3-0.1-0.5-0.1c-0.3,0-0.6,0.1-0.9,0.2c-0.4,0.2-0.7,0.6-0.8,1.1
	c-0.1,0.5-0.1,1,0.2,1.4c0.2,0.4,0.6,0.7,1.1,0.8c6.6,1.3,13.2,2.6,19.8,4c7,1.5,14,3.2,21,4.9c4.2,1.1,8.4,2.3,12.4,3.9
	c1.7,0.7,3.4,1.6,4.9,2.7c0.4,0.3,0.8,0.7,1.1,1.1c0.1,0.2,0.2,0.3,0.3,0.5c0,0.1,0.1,0.2,0.1,0.3c0,0.1,0,0.1,0,0.2
	c0,0.1,0,0.2-0.1,0.3c-0.1,0.2-0.2,0.3-0.3,0.4c-0.3,0.3-0.6,0.6-0.9,0.9c-0.3,0.3-0.7,0.5-1.1,0.7c-0.8,0.5-1.2,1.6-0.7,2.5
	c0.5,0.8,1.6,1.2,2.5,0.7c0.4-0.3,0.9-0.6,1.3-0.9c0.4-0.3,0.9-0.7,1.2-1.1c0.4-0.4,0.7-0.8,1-1.3c0.2-0.4,0.4-0.8,0.5-1.3
	c0.1-0.5,0.2-0.9,0.1-1.4c0-0.3-0.1-0.6-0.1-0.8c-0.1-0.3-0.2-0.5-0.3-0.8c-0.1-0.3-0.3-0.6-0.6-0.9c-0.3-0.4-0.6-0.8-1-1.1
	c-0.8-0.7-1.6-1.3-2.5-1.8c-2-1.2-4.2-2.1-6.4-3c-2.2-0.8-4.4-1.5-6.7-2.2c-1.7-0.5-3.4-0.9-5.1-1.3c-3-0.7-6.1-1.5-9.1-2.2
	C285.5-159.5,275.4-161.5,265.3-163.5L265.3-163.5z M317.2-147.2L317.2-147.2c0,0,0.1,0,0.1,0C317.2-147.2,317.2-147.2,317.2-147.2
	L317.2-147.2z"/>
<path class="st1" d="M110.4-139.1c0.2,0.7,0.6,1.5,1.2,2c0,0.1,0,0.1,0,0.2c0,1.2,0.5,2.2,1.3,3.1c1.2,1.4,2.6,2.6,4.2,3.6
	c0.9,0.7,2.4,0.7,3.4,0.4c0.7-0.2,1.3-0.5,1.8-1c1.7,0.7,3.5,1.2,5.3,1.7c0.4,0.1,0.7,0.2,1.1,0.3c1.8,1.2,3.8,2.1,5.9,2.8
	c2,0.7,4.1,1.1,6.2,1.4c1.3,0.2,2.6,0.3,3.8,0.5c0.8,0.2,1.7,0.4,2.5,0.5c4.1,0.8,8.3,1.3,12.5,1.4c1.2,0,2.3-0.5,3.2-1.3
	c1.8,0.5,3.5,0.9,5.3,1.4c5.5,1.4,11.1,2.7,16.7,3.3c5.3,0.6,10.6,0.6,15.8-0.6c0.5-0.1,1-0.4,1.4-0.7c3.3,0.5,6.7,1,10,1.5
	c8.6,1.1,17.4,1.5,25.9-0.5c1.7-0.4,2.9-2,3.2-3.6c8,0.4,16.1,0.2,24.1-0.9c0.8,0,1.5-0.2,2.2-0.6c0.3-0.2,0.6-0.5,0.9-0.7
	c0.4-0.4,0.8-1,1-1.6c4.3,0.2,8.6,0.4,12.8,0c2.5-0.2,5.1-0.6,7.6-1.3c2.3-0.7,4.5-1.6,6.5-2.9c0.7-0.4,1.2-0.9,1.6-1.6
	c0-0.1,0.1-0.2,0.1-0.3c4.8-0.5,9.6-1.4,14.2-2.9c0.7-0.2,1.3-0.5,1.8-1c0.9-0.2,1.7-0.7,2.3-1.4c1.2,0.1,2.4,0.3,3.6,0.3
	c2,0,3.8-1.4,4.3-3.2c0.3-1.1,0.2-2.4-0.4-3.4c-0.4-0.7-0.9-1.2-1.6-1.6c-1.5-1-3.1-1.9-4.8-2.6c-2-0.9-3.9-1.6-6-2.3
	c-4-1.3-8.1-2.1-12.2-3.1c-2.3-0.5-4.6-1-6.9-1.5c-2.5-0.5-5-0.9-7.5-1.4c-2.5-0.4-5-0.9-7.5-1.3c-2-0.4-3.9-0.8-5.9-1.3
	c-1.7-0.5-3.5-1-5.3-1.4c-1.1-0.2-2.2-0.4-3.4-0.4h0c-0.2,0-0.5,0-0.7,0c0.1-2.1,0.1-4.2,0.2-6.3c0.3-0.6,0.6-1.2,0.8-1.9
	c0.6-1.9,0.8-3.9,1-5.8c0.2-1.2,0.2-2.5,0.2-3.7c0-2.7-0.2-5.4-0.6-8.1c-0.1-0.8-0.2-1.6-0.3-2.4c0-0.6,0-1.2-0.1-1.8
	c-0.4-5.9-1.3-11.7-2.3-17.5c-0.6-3.4-1.1-6.8-1.9-10.1c0-0.1,0-0.1,0-0.2c-0.1-2.2-0.4-4.4-0.7-6.6c-0.4-2.8-1.2-5.6-2.3-8.2
	c-0.9-2.1-1.7-4.2-2.8-6.2c-0.7-1.3-1.5-2.6-2.4-3.9c-2.2-3.1-4.6-6.1-7.4-8.8c-2.8-2.8-5.9-5.2-9.1-7.6c-2.6-1.9-5.4-3.7-8.2-5.3
	c-2.9-1.6-5.8-3.1-8.8-4.5c-3.7-1.6-7.4-3.2-11.2-4.5c-5.7-2-11.5-3.6-17.5-4.6c-1.7-0.5-3.4-0.5-5,0c-0.8,0.3-1.5,0.6-2.3,1
	c-0.3,0.2-0.7,0.4-1,0.6c-0.6-0.6-1.2-1.1-1.9-1.5c-0.5-0.3-1-0.6-1.5-0.8c-1.3-0.6-2.7-1.2-4-1.6c-1.4-0.4-2.9-0.6-4.4-0.8
	c-0.3,0-0.7-0.1-1-0.1c-1.1,0-2.2,0.2-3.2,0.4c-1.9,0.5-4,1.6-5.4,3.2c-0.3,0.4-0.6,0.7-0.9,1.1c-0.2,0-0.3,0-0.5,0
	c-1.7,0-3.3,0.4-4.8,1.3c-0.6,0.5-1.3,1-1.9,1.5c-1.3,1-2.4,2.1-3.5,3.4c-1.5,1.8-2.9,3.6-4.2,5.5c-1.5,2.3-2.9,4.6-4.5,6.8
	c-2,2.3-4.2,4.4-6.2,6.7c-1,1.2-1.9,2.4-2.9,3.6c-0.5,0.7-1,1.3-1.4,2c-0.4,0.7-0.9,1.5-1.2,2.3c-0.7,1.5-1.4,3-1.8,4.6
	c-0.8,2.6-1.1,5.3-1.3,8c-0.2,1.9-0.2,3.7-0.2,5.6c0,2.1,0.1,4.1,0.1,6.2c-0.4,2.4-0.6,4.8-0.7,7.3c-0.1,1.6,0.4,3.3,1.2,4.7
	c-1.3,0.5-2.5,1.2-3.5,2.2c-0.5,0.6-1,1.3-1.5,1.9c-0.9,1.5-1.3,3.1-1.3,4.8c0.1,0.8,0.2,1.7,0.3,2.5c0.2,1.2,0.7,2.4,1.2,3.6
	c-0.5,0.4-1,0.8-1.5,1.2c-0.3,0.2-0.5,0.5-0.8,0.8c-1.2,1.2-2,2.6-2.4,4.2c-0.1,0.8-0.2,1.7-0.3,2.5c0,0.8,0.1,1.6,0.3,2.4
	c-0.2,0.2-0.5,0.4-0.7,0.6c-1.2,1.2-2,2.6-2.4,4.2c-0.5,1.7-0.5,3.4,0,5c0.8,2.3,1.7,4.6,3.2,6.5c0.6,0.7,1.1,1.5,1.7,2.2
	c-0.7,0.5-1.4,1-2,1.6c-0.2,0.2-0.4,0.3-0.5,0.5c-0.6,0.7-1.3,1.5-1.8,2.3c-0.5,0.8-0.9,1.9-1.2,2.6c-0.1,0.2-0.1,0.3-0.1,0.5
	c-0.1,1-0.4,1.9-0.4,2.9c0,1.1,0.1,2.2,0.5,3.2c0.4,0.9,0.7,2.1,1.3,3c0.6,0.8,1.1,1.6,1.8,2.4c0.1,0,0.2,0,0.2,0
	c0.8,0,1.5,0.2,2.2,0.6c0.2,0.1,0.5,0.2,0.7,0.3c1.1,0.1,2,0.5,2.8,1.3c0,0,0.1,0.1,0.1,0.1c-1-0.5-2-0.9-3-1.4c-0.1,0-0.2,0-0.3,0
	c-0.6,0-1.1,0.1-1.6,0.3c-0.4-0.3-0.8-0.7-1.1-1c0,0-0.1-0.1-0.1-0.1c-0.3,0-0.6,0.1-0.9,0.1c-1.1,0.3-2.1,1-2.6,2
	C110.2-141.5,110.1-140.2,110.4-139.1z"/>
<path class="st1" d="M117.6-143.7c1,0.5,2,0.9,3,1.4c0,0-0.1-0.1-0.1-0.1C119.6-143.2,118.6-143.7,117.6-143.7z"/>
<path class="st1" d="M114.4-144.6c0,0.1,0.1,0.1,0.1,0.1c0.3,0.4,0.7,0.7,1.1,1c0.5-0.2,1.1-0.3,1.6-0.3c0.1,0,0.2,0,0.3,0
	c-0.2-0.1-0.5-0.2-0.7-0.3c-0.7-0.4-1.4-0.6-2.2-0.6C114.6-144.7,114.5-144.6,114.4-144.6z"/>
<path class="st1" d="M117.6-143.7c1,0.5,2,0.9,3,1.4c0,0-0.1-0.1-0.1-0.1C119.6-143.2,118.6-143.7,117.6-143.7z"/>
<path class="st1" d="M114.4-144.6c0,0.1,0.1,0.1,0.1,0.1c0.3,0.4,0.7,0.7,1.1,1c0.5-0.2,1.1-0.3,1.6-0.3c0.1,0,0.2,0,0.3,0
	c-0.2-0.1-0.5-0.2-0.7-0.3c-0.7-0.4-1.4-0.6-2.2-0.6C114.6-144.7,114.5-144.6,114.4-144.6z"/>
<path class="st2" d="M121.7-180.9c0.8,0.8,1.4,2,1.3,3.1c-0.1,2.2-0.5,4.3-1,6.4c0.2,1.2,0.5,2.4,0.7,3.6c0.3,1.9,0.5,3.9,0.5,5.8
	c0,1.1-0.2,2.2-0.4,3.3c-0.2,1-0.6,2-1,2.9c-0.4,0.7-0.9,1.2-1.6,1.6c-0.7,0.4-1.4,0.6-2.2,0.6c-1.5,0-3.1-0.8-3.8-2.2
	c-1.1-2.1-2-4.4-2.3-6.7c-0.1-0.4-0.1-0.8-0.2-1.2c0-0.8,0.2-1.5,0.6-2.2c0.4-0.7,0.9-1.2,1.6-1.6c0-0.2-0.1-0.4-0.1-0.6
	c-0.3-0.4-0.6-0.9-0.7-1.5c-0.4-2.1-0.8-4.3-0.9-6.5c0-1.8,1.1-3.4,2.7-4.1c0.2-0.3,0.4-0.6,0.6-0.8c0.8-0.8,2-1.3,3.1-1.3
	C119.7-182.2,120.9-181.7,121.7-180.9L121.7-180.9L121.7-180.9z"/>
<path class="st2" d="M123.7-190.3L123.7-190.3c-0.7-0.4-1.5-0.6-2.2-0.6c-0.4,0-0.8,0.1-1.2,0.2c-1.1,0.3-2.1,1-2.6,2
	c-0.3,0.5-0.5,1.1-0.6,1.7c-0.7,0.4-1.3,1-1.8,1.7c-0.3,0.6-0.5,1.2-0.6,1.9c-0.8,0.4-1.5,1-1.9,1.7c-0.6,1-0.8,2.3-0.4,3.4
	c0.6,1.8,1,3.7,1.3,5.7c0.4,3.3,0.5,6.7,0.6,10c0.1,1.1,0.1,2.2,0.2,3.3c-0.3,0-0.6-0.1-0.9-0.1c-0.8,0-1.5,0.2-2.2,0.6
	c-0.5,0.3-0.9,0.7-1.3,1.1c-0.3,0.1-0.5,0.2-0.8,0.4c-0.7,0.4-1.2,0.9-1.6,1.6c-0.4,0.7-0.6,1.4-0.6,2.2c-0.1,0.8-0.1,1.6-0.1,2.4
	c0.1,1.1,0.2,2.3,0.6,3.4c0.2,0.7,0.5,1.4,0.8,2c0.3,0.6,0.8,1.2,1.2,1.7c0.7,0.8,1.6,1.6,2.6,2.1c1,0.5,1.9,0.7,3,0.5
	c0.6,0.8,1.2,1.5,1.9,2.2c1.1,1.1,2.8,1.5,4.3,1.1c0.7-0.2,1.4-0.6,2-1.1c0.2-0.3,0.5-0.6,0.7-0.9c0.7-1,1.2-2.1,1.6-3.2
	c0.4-1.1,0.5-2.2,0.6-3.4c0.2-1.7,0-3.5-0.2-5.2c-0.2-1.8-0.4-3.7-0.5-5.5c0-0.5,0-0.9,0-1.4c0.2-2.2,0.3-4.4,0.2-6.7
	c0.2-3.2,0.4-6.4,0.6-9.6c0.1-2,0.1-4,0-6.1c-0.1-2.2-0.3-4.4-0.6-6.7c-0.2-0.7-0.6-1.4-1.1-2C124.3-189.9,124-190.1,123.7-190.3
	L123.7-190.3z M107.9-152.8L107.9-152.8C107.9-152.8,107.9-152.8,107.9-152.8C107.9-152.8,107.9-152.8,107.9-152.8
	C107.9-152.8,107.9-152.8,107.9-152.8L107.9-152.8z"/>
<path class="st3" d="M73.4-150.4c0.3,1.1,1,2.1,2,2.6c1,0.6,2.3,0.8,3.4,0.4c0.1,0,0.3-0.1,0.4-0.1c0.9,0.8,1.8,1.5,2.8,2.1
	c1.2,0.8,2.4,1.5,3.7,2.2c6.2,3.1,13,4.9,19.8,5.9c3.4,0.5,6.9,0.8,10.3,0.7c1.7-0.1,3.4-0.2,5-0.5c1.1-0.2,2.2-0.4,3.3-0.8
	c1.1-0.4,2-1,2.6-2c0.4-0.7,0.6-1.4,0.6-2.2c0-0.8-0.2-1.6-0.6-2.3c0.1-0.5,0.1-1.1,0.2-1.6c0.1-2.9-0.2-5.8-0.6-8.7
	c0-0.1,0-0.3-0.1-0.4c0-1.4-0.1-2.8-0.1-4.2c0.6-0.8,0.8-1.6,0.9-2.6c0.5-7.7,0.9-15.5,0.4-23.3c-0.1-1-0.3-1.9-0.9-2.7
	c0.8-2.9,1.3-5.8,1.8-8.8c0.8-5.2,1.3-10.4,1.3-15.6c0-0.6-0.1-1.1-0.3-1.7c0.4-1.4,0.8-2.7,1.1-4.1c0.9-3.9,1.4-8,1.9-11.9
	c0.6-3.9,1.2-7.8,2.4-11.5c0.7-2,1.4-4,2.1-6c0.7-1.9,1.3-3.8,2.1-5.7c0.8-1.7,1.6-3.4,2.6-5c0.9-1.4,1.8-2.8,2.9-4.1
	c1.3-1.6,2.6-3.2,4.1-4.6c1.6-1.2,3.1-2.5,4.6-3.7c0.9-0.7,1.3-2,1.3-3.1c0-0.3,0-0.5-0.1-0.8c0.6-0.2,1.1-0.5,1.7-0.7
	c0.7-0.3,1-1.3,0.8-2c-0.1-0.4-0.4-0.8-0.8-1c-0.3-0.2-0.6-0.2-0.9-0.2c-0.1,0-0.3,0-0.4,0c0,0-0.1,0-0.1,0c-0.6,0-1.1,0.3-1.4,0.7
	c0,0-0.1,0-0.1,0c-0.1,0-0.1,0-0.2-0.1c-0.3-0.1-0.6-0.1-0.9,0c-0.1,0-0.1,0-0.2,0.1c-0.6-0.3-1.3-0.4-1.9-0.4
	c-0.8,0-1.5,0.2-2.2,0.6c-2,1.2-3.8,2.8-5.5,4.4c-0.1,0.1-0.2,0.1-0.3,0.2c-0.1,0-0.1,0-0.2-0.1c-0.7-0.4-1.5-0.6-2.3-0.6
	c-0.7,0-1.5,0.2-2.1,0.6c-0.7,0.4-1.3,0.8-2,1.3c-0.2,0.1-0.3,0.2-0.5,0.3c-1-0.6-2.3-0.8-3.5-0.5c-2.3,0.6-4.5,1.4-6.7,2.4
	c-2,0.9-4,1.9-5.8,3c-3.5,2.1-6.8,4.6-10,7.3c-0.4,0.1-0.8,0.2-1.1,0.4c-1.3,0.7-2.5,1.6-3.7,2.5c-1.4,1.1-2.8,2.2-4.1,3.5
	c-2.5,2.4-4.7,5.1-6.8,7.9c-3.7,5-6.9,10.4-9.6,16c-0.4,0.7-0.6,1.4-0.6,2.2c0.1,0.4,0.1,0.8,0.2,1.2c0,0.1,0.1,0.3,0.1,0.4
	c-0.9,1.9-1.6,3.9-2.2,5.8c-0.9,2.8-1.6,5.7-2.2,8.6c-0.6,3.1-1,6.3-1.1,9.5c0,1.3,0,2.5,0.1,3.7c0.1,0.7,0.1,1.3,0.3,2
	c0,0.1,0,0.3,0,0.4c-0.1,0.9-0.1,1.8-0.1,2.7c-0.1,1-0.2,2.1-0.3,3.1c-0.7,2.8-1.3,5.5-1.7,8.3c-0.9,5.6-1.5,11.3-1.7,17
	c0,0.8,0.2,1.6,0.6,2.3c-0.1,0.3-0.2,0.5-0.3,0.8c-0.2,0.5-0.3,0.9-0.4,1.4c-0.1,0.7-0.3,1.4-0.2,2.1c0,0.7,0.1,1.4,0.2,2.1
	c0,0.2,0.1,0.4,0.2,0.7c-0.2,0.3-0.3,0.5-0.5,0.8C73.1-152.8,73.1-151.4,73.4-150.4z"/>
<path class="st0" d="M174.2-281.1L174.2-281.1c0,0-0.1,0-0.1,0c-0.4,0-0.9,0.3-1.2,0.5c-0.3,0.3-0.5,0.8-0.5,1.3
	c0,0.5,0.2,0.9,0.5,1.3c0.2,0.2,0.5,0.4,0.8,0.5c0.2,0,0.3,0,0.5,0.1c1.3,0.1,2.5,0.3,3.7,0.5c13.4,1.8,26.7,4.6,39.2,9.8
	c6.2,2.6,12.1,5.9,17.5,10c4,3.1,7.6,6.7,10.7,10.6c2.9,3.8,5.3,7.9,7.2,12.3c2.8,6.7,4.3,13.8,5.3,20.9c0.5,4.1,0.9,8.3,1.3,12.5
	c0.4,4.5,0.7,8.9,1.1,13.4c0.8,9.3,1.5,18.7,1,28c-0.1,1,0.9,1.8,1.8,1.8c0.5,0,0.9-0.2,1.3-0.5c0.4-0.4,0.5-0.8,0.5-1.3
	c0.6-10.6-0.4-21.1-1.3-31.7c-0.8-9.5-1.3-19-3-28.4c-0.8-4.5-1.9-9-3.5-13.4c-1.5-3.9-3.3-7.7-5.5-11.3c-2-3.1-4.3-6.1-6.8-8.8
	c-2.5-2.7-5.2-5.1-8.1-7.3c-5.8-4.4-12.2-7.9-18.9-10.6c-6.8-2.8-13.8-4.9-20.9-6.5C189.2-279,181.7-280.2,174.2-281.1L174.2-281.1z
	 M177.5-277.1L177.5-277.1c0.1,0,0.1,0,0.2,0C177.6-277,177.6-277,177.5-277.1L177.5-277.1z"/>
<path class="st0" d="M175.2-280.8L175.2-280.8c-1.8-0.4-3.7-0.7-5.6-0.7c-0.2,0-0.5,0-0.7,0c-2,0.1-4.1,0.4-6,1
	c-3.1,0.9-6.1,2.4-8.7,4.3c-2.8,2-5.4,4.3-7.6,6.9c-4.6,5.2-8.3,11.2-11.2,17.5c-1.3,2.9-2.5,5.8-3.4,8.8c-1.4,4.7-2.5,9.4-3.3,14.2
	c-1.7,9.8-2.5,19.7-2.9,29.6c-0.4,9.9-0.3,19.7-0.6,29.6c-0.2,10.4-0.8,20.7-0.2,31.1c0,0.5,0.2,0.9,0.5,1.3
	c0.3,0.3,0.8,0.5,1.3,0.5c0.9,0,1.9-0.8,1.8-1.8c-0.5-8-0.2-16,0-23.9c0.2-5.1,0.3-10.1,0.3-15.2c0.1-4.9,0.1-9.8,0.2-14.8
	c0.2-9.7,0.7-19.4,1.9-29.1c0.7-5.3,1.7-10.7,3-15.9c0.6-2.2,1.2-4.4,1.9-6.5c0.5-1.5,1.1-3,1.7-4.5c2.4-5.6,5.4-10.9,9-15.7
	c2.4-3.1,5.1-5.9,8.1-8.3c2-1.5,4.1-2.8,6.4-3.8c1.8-0.7,3.7-1.3,5.6-1.5c1.7-0.2,3.5-0.2,5.2,0c0.7,0.1,1.4,0.2,2.1,0.4
	c1,0.2,2-0.3,2.2-1.3C176.8-279.5,176.2-280.6,175.2-280.8L175.2-280.8z M146.7-263.9L146.7-263.9c0,0.1-0.1,0.1-0.1,0.2
	C146.7-263.8,146.7-263.9,146.7-263.9L146.7-263.9z M131.2-222L131.2-222c0,0.1,0,0.1,0,0.2C131.2-221.8,131.2-221.9,131.2-222
	L131.2-222z"/>
<path class="st0" d="M165.9-281.2L165.9-281.2c-0.6,0-1.2,0-1.8,0c-2.4,0-4.8,0.2-7.2,0.6c-3.1,0.5-6.1,1.2-9.1,2
	c-5.9,1.7-11.7,3.9-17.4,6.1c-4.1,1.6-8.1,3.1-12.1,5c-4,1.9-7.8,4.1-11.4,6.7c-3.7,2.6-7.2,5.4-10.4,8.5c-2.8,2.8-5.4,5.7-7.6,9
	c-4.2,6.2-7.1,13.3-9.1,20.5c-2.1,7.6-3.4,15.3-4.3,23.1c-0.9,7.6-1.4,15.2-1.9,22.8c-0.2,3.7-0.5,7.4-0.8,11.1
	c-0.4,5.2-0.8,10.4-0.5,15.6c0,0.5,0.2,0.9,0.5,1.3c0.3,0.3,0.8,0.5,1.3,0.5c0.5,0,0.9-0.2,1.3-0.5c0.3-0.3,0.6-0.8,0.5-1.3
	c-0.1-1.7-0.2-3.3-0.1-5c0.1-4.8,0.6-9.6,0.9-14.4c0.3-3.6,0.5-7.2,0.7-10.8c0.5-7.6,1.1-15.3,2.1-22.8c1.3-9.5,3.3-19,7-27.9
	c1.9-4.5,4.3-8.9,7.3-12.8c3.3-4.3,7.4-8,11.6-11.3c5.8-4.5,12.3-8.1,19.1-11c2.6-1.1,5.3-2.1,8-3.1c2.8-1.1,5.6-2.2,8.5-3.1
	c5.7-2,11.5-3.7,17.4-4.5c2.5-0.3,5.1-0.5,7.6-0.4c1,0,1.8-0.9,1.8-1.8c0-0.5-0.2-0.9-0.5-1.3C166.9-281,166.4-281.1,165.9-281.2
	L165.9-281.2z M79.5-203.1L79.5-203.1c0,0,0,0.1,0,0.1C79.5-203,79.5-203.1,79.5-203.1L79.5-203.1z"/>
<path class="st0" d="M264.5-160.5L264.5-160.5c-0.2,0-0.3-0.1-0.5-0.1c-0.3,0-0.6,0.1-0.9,0.2c-1.5,1.1-3.2,1.9-4.8,2.8
	c-1.4,0.7-2.8,1.4-4.2,2c-10.2,4.2-21.1,5.8-31.9,7.6c-5.8,0.9-11.6,2-17.5,2.9c-5.7,0.9-11.5,1.8-17.2,2.6
	c-7.9,1.1-15.8,1.9-23.7,2.5c-5,0.4-10,0.6-15.1,0.8c-4.5,0.2-9,0.4-13.5,0.5c-9.5,0.2-19,0-28.3-1.3c-7.3-1-14.5-2.6-21.3-5.5
	c-3.6-1.5-7-3.4-10.2-5.7c-0.4-0.3-1-0.3-1.4-0.2c-0.5,0.1-0.8,0.4-1.1,0.8c-0.2,0.4-0.3,0.9-0.2,1.4c0.1,0.5,0.4,0.8,0.8,1.1
	c1.6,1.2,3.3,2.2,5,3.2c8,4.4,16.9,6.8,25.9,8.2c9.5,1.4,19.1,1.8,28.6,1.7c4.6-0.1,9.1-0.2,13.6-0.4c4.7-0.2,9.4-0.4,14.2-0.7
	c12.4-0.8,24.8-2.3,37.2-4.2c6.1-0.9,12.3-1.9,18.4-3c5.6-0.9,11.2-1.8,16.8-2.8c5.5-1,11-2.1,16.4-3.9c2.7-0.9,5.3-1.9,7.9-3.1
	c1.3-0.6,2.7-1.3,4-2c1.2-0.6,2.4-1.3,3.6-2.2c0.3-0.2,0.5-0.4,0.7-0.7c0.1-0.1,0.1-0.3,0.2-0.4c0.1-0.5,0.1-1-0.2-1.4
	C265.3-160.1,264.9-160.4,264.5-160.5L264.5-160.5z M253.9-155.5L253.9-155.5c0,0-0.1,0-0.1,0.1
	C253.8-155.4,253.8-155.4,253.9-155.5L253.9-155.5z M187.2-142.4L187.2-142.4c-0.1,0-0.1,0-0.2,0
	C187.1-142.4,187.2-142.4,187.2-142.4L187.2-142.4z"/>
<path class="st0" d="M172.2-282.9L172.2-282.9c-0.1-0.1-0.3-0.1-0.4-0.1c-0.3,0-0.7,0.1-1,0.3c-0.4,0.2-0.7,0.6-0.8,1.1
	c-0.1,0.5-0.1,1,0.2,1.4c0.2,0.3,0.4,0.5,0.7,0.7c0.1,0.1,0.3,0.1,0.4,0.2c1.7,0.7,3.5,1.4,5.2,2.1c4.3,1.8,8.6,3.8,12.7,6.1
	c4.1,2.3,8,4.8,11.7,7.6c5.6,4.4,10.6,9.4,15,15.1c5.3,6.9,9.6,14.5,13,22.5c4.6,11.1,7.6,22.8,9.2,34.7c1.7,13.3,1.8,26.7,0.2,40
	c-0.1,0.5,0.2,1,0.5,1.3c0.3,0.3,0.8,0.5,1.3,0.5s0.9-0.2,1.3-0.5c0.2-0.2,0.4-0.5,0.5-0.8c0-0.2,0-0.3,0.1-0.5
	c0.6-5.3,1-10.6,1.1-15.9c0.1-7.8-0.2-15.6-1.2-23.4c-1-7.9-2.5-15.7-4.8-23.3c-4.4-14.9-11.4-29.2-21.7-41
	c-5.5-6.4-12-11.9-19.2-16.4C188.6-276.1,180.5-279.7,172.2-282.9L172.2-282.9z M228.9-225.9L228.9-225.9c0,0,0,0.1,0.1,0.1
	C229-225.8,228.9-225.8,228.9-225.9L228.9-225.9z M238-191.7L238-191.7c0,0,0,0.1,0,0.1C238-191.6,238-191.7,238-191.7L238-191.7z"
	/>
<path class="st0" d="M169.2-286.1c0.8,0.1,1.7,0.2,2.5,0.5c1.4,0.4,2.7,1,3.7,1.9c0.7,0.7,1.2,1.7,1.2,2.7c0,1-0.8,1.8-1.8,1.8
	c-0.6,0-1.1-0.3-1.4-0.7c-0.2,0.1-0.5,0.2-0.8,0.2c-0.2,0-0.5,0-0.7,0c-0.4,0-0.9,0.1-1.3,0.1c-1.1,0.1-2.2,0.1-3.4,0.1
	c-1.1,0-2.3,0-3.4-0.3c-0.4-0.1-0.9-0.3-1.3-0.5c-0.5-0.3-1-0.9-1.1-1.5c-0.1-0.5-0.1-0.7,0-1.2c0.1-0.3,0.2-0.5,0.3-0.8
	c0.4-0.6,0.9-1.1,1.5-1.5c0.3-0.2,0.6-0.3,0.9-0.5c0.2-0.1,0.5-0.2,0.7-0.2c0.7-0.2,1.5-0.3,2.3-0.3c0.1,0,0.2,0,0.3,0
	C168.1-286.2,168.6-286.2,169.2-286.1L169.2-286.1L169.2-286.1z"/>
<path class="st0" d="M324.3-140.3L324.3-140.3c-0.3-0.3-0.8-0.5-1.3-0.5c-0.3,0-0.6,0.1-0.9,0.2c-0.1,0.1-0.2,0.2-0.4,0.3
	c0,0-0.1,0.1-0.1,0.1c-2.5,1.8-5.2,3.3-8,4.5c-8.2,3.4-17,5-25.7,6.9c-2,0.4-4.1,0.9-6.1,1.4c-2.7,0.7-5.5,1.3-8.3,1.9
	c-5.5,1.2-11.1,2.1-16.7,2.9c-3.5,0.5-7,0.8-10.5,1.2c-6.7,0.6-13.5,0.9-20.2,1.1c-6.9,0.1-13.7,0-20.6-0.2
	c-13.7-0.4-27.5-1.4-41.1-3.2c-2.1-0.3-4.1-0.6-6.2-0.9c-3.6-0.6-7.2-1.3-10.9-1.8c-3.1-0.5-6.2-1-9.2-1.6c-3.7-0.7-7.4-1.4-11-2.4
	c-3.2-0.8-6.3-1.7-9.3-2.9c-1.1-0.5-2.3-1-3.3-1.8c-0.2-0.2-0.5-0.4-0.7-0.6c-0.1-0.1-0.1-0.2-0.2-0.3c0,0,0,0,0-0.1c0,0,0,0,0,0
	c0-0.3,0-0.5,0-0.8c-0.1-0.1-0.1-0.3-0.2-0.4c-0.2-0.4-0.6-0.7-1.1-0.8c-0.5-0.1-1-0.1-1.4,0.2c-0.4,0.2-0.8,0.6-0.8,1.1
	c-0.1,0.3-0.1,0.7-0.1,1c0,0.4,0.1,0.7,0.2,1c0.3,0.7,0.6,1.3,1.1,1.8c1,1,2.2,1.8,3.5,2.4c3.7,1.8,7.7,2.9,11.7,3.8
	c6.6,1.6,13.4,2.8,20.1,3.9c3.8,0.6,7.6,1.3,11.4,1.9c6.8,1.1,13.7,1.9,20.6,2.5c6.9,0.6,13.7,1.1,20.6,1.4
	c6.9,0.3,13.8,0.5,20.7,0.5c13.5,0,27.1-0.8,40.5-2.8c6.7-1,13.4-2.3,20-3.9c2.5-0.6,5-1.2,7.5-1.8c2.5-0.5,5-1.1,7.5-1.6
	c5.2-1.1,10.4-2.3,15.5-4.1c2.4-0.9,4.9-1.8,7.2-3c1.1-0.6,2.2-1.2,3.3-1.9c1-0.6,1.9-1.3,2.9-2.1c0.4-0.3,0.5-0.9,0.5-1.3
	C324.8-139.5,324.6-140,324.3-140.3L324.3-140.3z M321.5-140.1L321.5-140.1c-0.1,0.1-0.2,0.1-0.2,0.2
	C321.3-140,321.4-140.1,321.5-140.1L321.5-140.1z M257.2-122.7L257.2-122.7c0,0-0.1,0-0.1,0C257.1-122.7,257.1-122.7,257.2-122.7
	L257.2-122.7z"/>
<path class="st0" d="M323.3-140.6L323.3-140.6c-0.2,0-0.3-0.1-0.5-0.1c-0.3,0-0.6,0.1-0.9,0.2c-1.1,0.5-2.2,1-3.3,1.5
	c-5,2.1-10.2,3.5-15.4,4.8c-4.6,1.1-9.2,2.1-13.8,3.1c-4.7,1-9.4,2-14.2,3c-9.5,1.9-19,3.5-28.6,4.8c-2.5,0.3-5,0.6-7.5,0.9
	c-19.2,2.2-38.8,2.8-58,0.2c-1.6-0.2-3.1-0.5-4.7-0.7c-0.3-0.1-0.6-0.1-1,0c-0.1,0.1-0.3,0.1-0.4,0.2c-0.4,0.2-0.7,0.6-0.8,1.1
	c-0.1,0.5-0.1,1,0.2,1.4c0.2,0.4,0.6,0.8,1.1,0.8c11.3,1.9,22.7,2.6,34.1,2.5c19.7-0.2,39.3-2.7,58.6-6.3c9.5-1.7,18.9-3.7,28.4-5.9
	c9.3-2.1,18.7-4.1,27.2-8.4c0.9-0.4,1.1-1.7,0.7-2.5C324.2-140.1,323.8-140.4,323.3-140.6L323.3-140.6z M246.4-123.1L246.4-123.1
	c-0.1,0-0.1,0-0.2,0C246.3-123.1,246.3-123.1,246.4-123.1L246.4-123.1z"/>
<path class="st0" d="M280.6-128.1c0.3,0.3,0.5,0.8,0.5,1.3c0,0.5-0.2,0.9-0.5,1.3c-0.1,0.1-0.2,0.2-0.4,0.3
	c-0.3,0.2-0.6,0.2-0.9,0.2c-20.5,2.7-41.1,5.6-61.7,6.7c-12.1,0.7-24.2,0.7-36.3-0.2c-0.5,0-0.9-0.2-1.3-0.5
	c-0.3-0.3-0.5-0.8-0.5-1.3s0.2-0.9,0.5-1.3c0.3-0.3,0.8-0.6,1.3-0.5c20.7,1.6,41.4,0.2,62-2c12-1.3,24-3,36-4.5c0,0,0.1,0,0.1,0
	C279.9-128.6,280.3-128.4,280.6-128.1L280.6-128.1L280.6-128.1z"/>
<path class="st0" d="M134.8-141.7c0,0.7,0,1.3,0,2c0,0.3-0.1,0.6-0.4,0.9c-0.2,0.2-0.6,0.4-0.9,0.4c-0.7,0-1.3-0.6-1.3-1.3
	c0-0.7,0.1-1.3,0-2c0-0.7,0.6-1.3,1.3-1.3C134.3-142.9,134.8-142.4,134.8-141.7L134.8-141.7L134.8-141.7z"/>
<path class="st0" d="M134.7-148.7L134.7-148.7c0-0.7-0.6-1.3-1.3-1.3c-0.7,0-1.2,0.6-1.3,1.3c0,0.4,0,0.8-0.1,1.2c0,0,0,0,0,0
	c-0.1,0.2-0.1,0.4,0,0.7c0,0.1,0.1,0.2,0.1,0.3c0.2,0.3,0.4,0.5,0.8,0.6c0.3,0.1,0.7,0,1-0.1c0.3-0.1,0.5-0.5,0.6-0.8
	C134.6-147.5,134.7-148.1,134.7-148.7L134.7-148.7z M132.1-147.7L132.1-147.7c0,0,0,0.1,0,0.1C132.1-147.7,132.1-147.7,132.1-147.7
	L132.1-147.7z"/>
<path class="st0" d="M134.7-155.5c0,0.7-0.1,1.4-0.1,2c0,0.3-0.1,0.6-0.4,0.9c-0.2,0.2-0.6,0.4-0.9,0.4c-0.3,0-0.7-0.1-0.9-0.4
	c-0.2-0.2-0.4-0.6-0.4-0.9c0.1-0.7,0.1-1.4,0.1-2c0-0.7,0.6-1.3,1.3-1.3C134.1-156.8,134.7-156.2,134.7-155.5L134.7-155.5
	L134.7-155.5z"/>
<path class="st0" d="M134.6-162.7c0,0.8-0.1,1.6-0.1,2.3c0,0.3-0.1,0.6-0.4,0.9c-0.2,0.2-0.6,0.4-0.9,0.4c-0.7,0-1.3-0.6-1.3-1.3
	c0-0.8,0.1-1.6,0.1-2.3c0-0.7,0.6-1.3,1.3-1.3C134-164,134.6-163.4,134.6-162.7L134.6-162.7L134.6-162.7z"/>
<path class="st0" d="M134.5-169.5c0,0.7,0,1.5,0,2.2c0,0.7-0.6,1.3-1.3,1.3c-0.7,0-1.3-0.6-1.3-1.3c0-0.7,0-1.5,0-2.2
	c0-0.7,0.6-1.3,1.3-1.3C133.9-170.8,134.5-170.2,134.5-169.5L134.5-169.5L134.5-169.5z"/>
<path class="st0" d="M134.6-176.2c0,0.6-0.1,1.2-0.2,1.8c0,0.1,0,0.2,0,0.3c-0.1,0.2-0.2,0.4-0.3,0.6c-0.2,0.2-0.6,0.4-0.9,0.4
	c-0.3,0-0.7-0.1-0.9-0.4c-0.2-0.2-0.4-0.6-0.4-0.9c0.1-0.6,0.1-1.2,0.2-1.8c0-0.3,0.1-0.6,0.4-0.9c0.2-0.2,0.6-0.4,0.9-0.4
	C134-177.4,134.6-176.9,134.6-176.2L134.6-176.2L134.6-176.2z"/>
<path class="st0" d="M134.8-182.6c0,0.8-0.1,1.6-0.3,2.4c0,0.3-0.3,0.6-0.6,0.8c-0.3,0.2-0.6,0.2-1,0.1c-0.3-0.1-0.6-0.3-0.8-0.6
	c0-0.1-0.1-0.2-0.1-0.3c-0.1-0.2-0.1-0.4,0-0.7c0,0,0-0.1,0-0.1c0.1-0.5,0.1-1,0.1-1.6c0-0.7,0.5-1.3,1.3-1.3
	C134.2-183.9,134.9-183.3,134.8-182.6L134.8-182.6L134.8-182.6z"/>
<path class="st0" d="M134.3-190.8c0.3,0.1,0.6,0.3,0.8,0.6c0,0.1,0.1,0.2,0.1,0.3c0.1,0.2,0.1,0.4,0,0.7c-0.1,0.7-0.2,1.3-0.2,2
	c0,0.3-0.1,0.6-0.4,0.9c-0.2,0.2-0.6,0.4-0.9,0.4c-0.3,0-0.7-0.1-0.9-0.4c-0.2-0.2-0.4-0.6-0.4-0.9c0.1-0.9,0.2-1.8,0.3-2.7
	c0-0.3,0.3-0.6,0.6-0.8c0.2-0.1,0.4-0.2,0.6-0.2C134-190.8,134.1-190.8,134.3-190.8L134.3-190.8L134.3-190.8z"/>
<path class="st0" d="M135.3-195.7c0,0.7-0.1,1.4-0.2,2.1c0,0.3-0.1,0.6-0.4,0.9c-0.2,0.2-0.6,0.4-0.9,0.4c-0.3,0-0.7-0.1-0.9-0.4
	c-0.2-0.2-0.4-0.6-0.4-0.9c0.1-0.7,0.1-1.4,0.2-2.1c0-0.3,0.1-0.6,0.4-0.9c0.2-0.2,0.6-0.4,0.9-0.4
	C134.7-197,135.3-196.4,135.3-195.7L135.3-195.7L135.3-195.7z"/>
<path class="st0" d="M135.2-202.8c0,1-0.1,1.9-0.2,2.9c0,0.3-0.1,0.6-0.4,0.9c-0.2,0.2-0.6,0.4-0.9,0.4c-0.3,0-0.7-0.1-0.9-0.4
	c-0.2-0.2-0.4-0.6-0.4-0.9c0.1-1,0.2-1.9,0.2-2.9c0-0.7,0.6-1.3,1.3-1.3C134.6-204.1,135.2-203.5,135.2-202.8L135.2-202.8
	L135.2-202.8z"/>
<path class="st0" d="M135.4-210.7c-0.1,0.8-0.1,1.6-0.3,2.4c0,0.3-0.3,0.6-0.6,0.8c-0.3,0.2-0.6,0.2-1,0.1c-0.3-0.1-0.6-0.3-0.8-0.6
	c0-0.1-0.1-0.2-0.1-0.3c-0.1-0.2-0.1-0.4,0-0.7c0-0.1,0-0.1,0-0.2c0.1-0.5,0.1-1,0.1-1.5c0-0.3,0.1-0.6,0.4-0.9
	c0.2-0.2,0.6-0.4,0.9-0.4C134.8-212,135.5-211.4,135.4-210.7L135.4-210.7L135.4-210.7z"/>
<path class="st0" d="M135.4-219.7c0.3,0.1,0.6,0.3,0.8,0.6c0,0.1,0.1,0.2,0.1,0.3c0.1,0.2,0.1,0.4,0,0.7c-0.1,0.8-0.3,1.5-0.5,2.2
	c-0.2,0.7-0.9,1.1-1.6,0.9c-0.7-0.2-1.1-0.9-0.9-1.6c0.2-0.7,0.4-1.5,0.5-2.2c0-0.3,0.3-0.6,0.6-0.8c0.2-0.1,0.4-0.2,0.6-0.2
	C135.2-219.7,135.3-219.7,135.4-219.7L135.4-219.7L135.4-219.7z"/>
<path class="st0" d="M136.8-226.7c0.3,0.1,0.6,0.3,0.8,0.6c0,0.1,0.1,0.2,0.1,0.3c0.1,0.2,0.1,0.4,0,0.7c-0.1,0.7-0.2,1.4-0.3,2.1
	c0,0.3-0.3,0.6-0.6,0.8c-0.3,0.2-0.6,0.2-1,0.1c-0.3-0.1-0.6-0.3-0.8-0.6c0-0.1-0.1-0.2-0.1-0.3c-0.1-0.2-0.1-0.4,0-0.7
	c0.1-0.7,0.2-1.4,0.3-2.1c0-0.3,0.3-0.6,0.6-0.8c0.2-0.1,0.4-0.2,0.6-0.2C136.6-226.7,136.7-226.7,136.8-226.7L136.8-226.7
	L136.8-226.7z"/>
<path class="st0" d="M137.8-232.9c0.3,0.1,0.6,0.3,0.8,0.6c0.2,0.3,0.2,0.6,0.1,1c-0.1,0.7-0.2,1.4-0.4,2.1c0,0.3-0.3,0.6-0.6,0.8
	c-0.3,0.2-0.6,0.2-1,0.1c-0.3-0.1-0.6-0.3-0.8-0.6c-0.2-0.3-0.2-0.6-0.1-1c0.1-0.7,0.2-1.4,0.4-2.1c0.1-0.3,0.3-0.6,0.6-0.8
	c0.2-0.1,0.4-0.2,0.6-0.2C137.5-232.9,137.6-232.9,137.8-232.9L137.8-232.9L137.8-232.9z"/>
<path class="st0" d="M139.7-240.4c0.3,0.1,0.6,0.3,0.8,0.6c0.2,0.3,0.2,0.6,0.1,1c-0.1,0.6-0.3,1.2-0.5,1.7
	c-0.1,0.3-0.3,0.6-0.6,0.8c-0.3,0.2-0.6,0.2-1,0.1c-0.3-0.1-0.6-0.3-0.8-0.6c-0.2-0.3-0.2-0.7-0.1-1c0.2-0.6,0.4-1.1,0.5-1.7
	c0.1-0.6,0.7-0.9,1.2-0.9C139.5-240.4,139.6-240.4,139.7-240.4L139.7-240.4L139.7-240.4z"/>
<path class="st0" d="M142.1-247.1c0.3,0.2,0.5,0.4,0.6,0.8c0,0.1,0,0.2,0,0.3c0,0.2-0.1,0.4-0.2,0.6c-0.2,0.6-0.5,1.1-0.8,1.7
	c-0.3,0.6-1.2,0.8-1.7,0.5c-0.6-0.4-0.8-1.1-0.5-1.7c0.3-0.5,0.6-1.1,0.8-1.7c0.1-0.3,0.5-0.5,0.8-0.6c0.1,0,0.2,0,0.3,0
	C141.7-247.3,141.9-247.2,142.1-247.1L142.1-247.1L142.1-247.1z"/>
<path class="st0" d="M145.1-253c0.6,0.3,0.8,1.1,0.5,1.7c-0.2,0.4-0.4,0.7-0.6,1.1c-0.3,0.6-1.1,0.8-1.7,0.5
	c-0.6-0.3-0.8-1.1-0.5-1.7c0.2-0.4,0.4-0.7,0.6-1.1c0.2-0.4,0.7-0.6,1.1-0.6C144.7-253.2,144.9-253.1,145.1-253L145.1-253L145.1-253
	z"/>
<path class="st0" d="M149.2-260c0.6,0.3,0.8,1.2,0.5,1.7c-0.4,0.6-0.8,1.2-1.2,1.7c-0.1,0.1-0.1,0.2-0.2,0.3
	c-0.2,0.2-0.3,0.3-0.6,0.3c-0.3,0.1-0.7,0-1-0.1c-0.3-0.2-0.5-0.4-0.6-0.8c-0.1-0.3-0.1-0.7,0.1-1c0.4-0.6,0.8-1.1,1.2-1.7
	c0.3-0.4,0.7-0.6,1.1-0.6C148.8-260.2,149-260.2,149.2-260L149.2-260L149.2-260z"/>
<path class="st0" d="M153.5-264.9c0.5,0.5,0.5,1.3,0,1.8c-0.2,0.3-0.5,0.5-0.7,0.8c-0.1,0.1-0.2,0.2-0.2,0.3
	c-0.2,0.3-0.4,0.5-0.8,0.6c-0.3,0.1-0.7,0-1-0.1c-0.3-0.2-0.5-0.4-0.6-0.8c-0.1-0.3-0.1-0.7,0.1-1c0.4-0.6,0.9-1.1,1.4-1.7
	c0.2-0.2,0.6-0.4,0.9-0.4C152.9-265.3,153.3-265.2,153.5-264.9L153.5-264.9L153.5-264.9z"/>
<path class="st0" d="M157.2-269.6c0.5,0.5,0.5,1.3,0,1.8c-0.3,0.2-0.5,0.5-0.8,0.7c-0.3,0.2-0.5,0.4-0.9,0.4c-0.3,0-0.7-0.1-0.9-0.4
	c-0.5-0.5-0.5-1.3,0-1.8c0.3-0.2,0.5-0.5,0.8-0.7c0.3-0.2,0.5-0.4,0.9-0.4C156.7-270,157-269.8,157.2-269.6L157.2-269.6L157.2-269.6
	z"/>
<path class="st0" d="M162.9-274.1c0.5,0.5,0.5,1.3,0,1.8c-0.7,0.6-1.4,1.1-2.2,1.6c-0.6,0.3-1.4,0.2-1.7-0.5
	c-0.3-0.6-0.2-1.4,0.5-1.7c0.4-0.2,0.8-0.5,1.2-0.7c0.2-0.1,0.3-0.3,0.5-0.4c0.3-0.2,0.6-0.4,0.9-0.4
	C162.4-274.4,162.7-274.3,162.9-274.1L162.9-274.1L162.9-274.1z"/>
<path class="st0" d="M166.7-277.7c0.3,0.1,0.6,0.3,0.8,0.6c0.2,0.3,0.2,0.6,0.1,1c-0.1,0.3-0.3,0.6-0.6,0.8
	c-0.7,0.3-1.3,0.7-1.9,1.1c-0.3,0.2-0.7,0.2-1,0.1c-0.3-0.1-0.6-0.3-0.8-0.6c-0.2-0.3-0.2-0.6-0.1-1c0.1-0.3,0.3-0.6,0.6-0.8
	c0.6-0.4,1.2-0.8,1.9-1.1c0.2-0.1,0.4-0.2,0.7-0.2C166.4-277.7,166.6-277.7,166.7-277.7L166.7-277.7L166.7-277.7z"/>
<path class="st0" d="M121.5-141.6c0,0.5,0,1.1,0,1.6c0,0.7-0.6,1.3-1.3,1.3c-0.7,0-1.3-0.6-1.3-1.3c0-0.5,0-1.1,0-1.6
	c0-0.7,0.6-1.3,1.3-1.3C120.9-142.8,121.5-142.3,121.5-141.6L121.5-141.6L121.5-141.6z"/>
<path class="st0" d="M121.8-148.7c-0.1,0.8-0.1,1.6,0,2.4c0,0.7-0.6,1.3-1.3,1.3c-0.7,0-1.2-0.6-1.3-1.3c0-0.8,0-1.6,0-2.4
	c0-0.3,0.1-0.6,0.4-0.9c0.2-0.2,0.6-0.4,0.9-0.4C121.2-150,121.8-149.4,121.8-148.7L121.8-148.7L121.8-148.7z"/>
<path class="st0" d="M121.5-157c0,0.7-0.1,1.4-0.1,2.1c0,0.3-0.1,0.6-0.4,0.9c-0.2,0.2-0.6,0.4-0.9,0.4c-0.3,0-0.7-0.1-0.9-0.4
	c-0.2-0.2-0.4-0.6-0.4-0.9c0.1-0.7,0.1-1.4,0.1-2.1c0-0.7,0.6-1.3,1.3-1.3C120.9-158.3,121.5-157.7,121.5-157L121.5-157L121.5-157z"
	/>
<path class="st0" d="M121.9-165.1c0,0.8,0,1.5,0,2.3c0,0.7-0.6,1.3-1.3,1.3c-0.7,0-1.3-0.6-1.3-1.3c0-0.8,0-1.5,0-2.3
	c0-0.7,0.6-1.3,1.3-1.3C121.4-166.4,121.9-165.8,121.9-165.1L121.9-165.1L121.9-165.1z"/>
<path class="st0" d="M122-171.8c0,0.6,0,1.2,0.1,1.9c0,0.7-0.6,1.3-1.3,1.3c-0.7,0-1.2-0.6-1.3-1.3c0-0.6,0-1.2-0.1-1.9
	c0-0.7,0.6-1.3,1.3-1.3C121.4-173.1,122-172.5,122-171.8L122-171.8L122-171.8z"/>
<path class="st0" d="M121.5-178.4c0,0.6-0.1,1.2-0.1,1.7c0,0.3-0.1,0.6-0.4,0.9c-0.2,0.2-0.6,0.4-0.9,0.4c-0.3,0-0.7-0.1-0.9-0.4
	c-0.2-0.2-0.4-0.6-0.4-0.9c0.1-0.6,0.1-1.2,0.1-1.7c0-0.3,0.1-0.6,0.4-0.9c0.2-0.2,0.6-0.4,0.9-0.4
	C120.9-179.7,121.6-179.1,121.5-178.4L121.5-178.4L121.5-178.4z"/>
<path class="st0" d="M121.8-185.4c0,0.6,0,1.2,0,1.8c0,0.7-0.6,1.3-1.3,1.3c-0.7,0-1.3-0.6-1.3-1.3c0-0.6,0-1.2,0-1.8
	c0-0.7,0.6-1.3,1.3-1.3C121.2-186.7,121.8-186.1,121.8-185.4L121.8-185.4L121.8-185.4z"/>
<path class="st0" d="M122-193.2c0,0.8-0.1,1.6-0.1,2.3c0,0.3-0.1,0.6-0.4,0.9c-0.2,0.2-0.6,0.4-0.9,0.4c-0.3,0-0.7-0.1-0.9-0.4
	c-0.2-0.2-0.4-0.6-0.4-0.9c0.1-0.8,0.1-1.6,0.1-2.3c0-0.7,0.6-1.3,1.3-1.3C121.4-194.5,122-193.9,122-193.2L122-193.2L122-193.2z"/>
<path class="st0" d="M122-201.5c0.2,0.2,0.4,0.6,0.4,0.9c-0.1,0.8-0.2,1.5-0.2,2.3c0,0.3-0.1,0.6-0.4,0.9c-0.2,0.2-0.6,0.4-0.9,0.4
	c-0.7,0-1.3-0.6-1.3-1.3c0-0.8,0.1-1.5,0.2-2.3c0-0.1,0-0.2,0-0.3c0.1-0.2,0.2-0.4,0.3-0.6c0.2-0.2,0.6-0.4,0.9-0.4
	C121.4-201.8,121.7-201.7,122-201.5L122-201.5L122-201.5z"/>
<path class="st0" d="M122.9-210.1c-0.1,1-0.1,2-0.1,3c0,0.7-0.6,1.3-1.3,1.3c-0.7,0-1.3-0.6-1.3-1.3c0-1,0.1-2,0.1-3
	c0-0.3,0.1-0.6,0.4-0.9c0.2-0.2,0.6-0.4,0.9-0.4C122.2-211.4,122.9-210.8,122.9-210.1L122.9-210.1L122.9-210.1z"/>
<path class="st0" d="M123.2-218.8c0.3,0.1,0.6,0.3,0.8,0.6c0.2,0.3,0.2,0.6,0.1,1c-0.2,0.8-0.3,1.5-0.5,2.3
	c-0.1,0.7-0.9,1.1-1.6,0.9c-0.3-0.1-0.6-0.3-0.8-0.6c-0.2-0.3-0.2-0.6-0.1-1c0.2-0.8,0.3-1.5,0.5-2.3c0.1-0.6,0.7-0.9,1.2-0.9
	C123-218.9,123.1-218.9,123.2-218.8L123.2-218.8L123.2-218.8z"/>
<path class="st0" d="M124.8-226.8c0.7,0.2,1,0.9,0.9,1.6c-0.2,1-0.5,2-0.6,3c-0.1,0.3-0.3,0.6-0.6,0.8c-0.3,0.2-0.6,0.2-1,0.1
	c-0.3-0.1-0.6-0.3-0.8-0.6c-0.2-0.3-0.2-0.6-0.1-1c0.2-1,0.4-2,0.6-3c0.1-0.6,0.7-0.9,1.2-0.9C124.6-226.8,124.7-226.8,124.8-226.8
	L124.8-226.8L124.8-226.8z"/>
<path class="st0" d="M126.9-234.5c0.7,0.2,1,0.9,0.9,1.6c-0.2,0.7-0.5,1.4-0.8,2.1c-0.3,0.6-1.2,0.8-1.7,0.5
	c-0.3-0.2-0.5-0.4-0.6-0.8c-0.1-0.3,0-0.7,0.1-1c0.1-0.1,0.1-0.3,0.2-0.4c0.1-0.4,0.3-0.7,0.4-1.1c0.1-0.6,0.7-0.9,1.2-0.9
	C126.7-234.6,126.8-234.5,126.9-234.5L126.9-234.5L126.9-234.5z"/>
<path class="st0" d="M128.9-242.5c0.3,0.1,0.6,0.3,0.8,0.6c0.2,0.3,0.2,0.7,0.1,1c-0.3,0.9-0.7,1.9-1,2.8c-0.2,0.7-0.9,1.1-1.6,0.9
	c-0.6-0.2-1.1-0.9-0.9-1.6c0.3-0.9,0.6-1.9,1-2.8c0.1-0.3,0.3-0.6,0.6-0.8c0.2-0.1,0.4-0.2,0.6-0.2
	C128.7-242.5,128.8-242.5,128.9-242.5L128.9-242.5L128.9-242.5z"/>
<path class="st0" d="M131.9-250.3c0.3,0.2,0.5,0.4,0.6,0.8c0,0.1,0,0.2,0,0.3c0,0.2-0.1,0.4-0.2,0.6c-0.4,0.8-0.8,1.7-1.1,2.5
	c-0.1,0.3-0.5,0.5-0.8,0.6c-0.3,0.1-0.7,0-1-0.1c-0.3-0.2-0.5-0.4-0.6-0.8c0-0.1,0-0.2,0-0.3c0-0.2,0.1-0.4,0.2-0.6
	c0.4-0.8,0.7-1.7,1.1-2.5c0.1-0.3,0.5-0.5,0.8-0.6c0.1,0,0.2,0,0.3,0C131.5-250.5,131.7-250.4,131.9-250.3L131.9-250.3L131.9-250.3z
	"/>
<path class="st0" d="M134.9-258.5c0.3,0.1,0.6,0.3,0.8,0.6c0.2,0.3,0.2,0.7,0.1,1c-0.4,1.1-0.9,2.2-1.6,3.2
	c-0.2,0.3-0.4,0.5-0.8,0.6c-0.3,0.1-0.7,0-1-0.1c-0.6-0.3-0.8-1.2-0.5-1.7c0.4-0.6,0.8-1.3,1.1-2c0.1-0.2,0.1-0.4,0.2-0.6
	c0.1-0.3,0.3-0.6,0.6-0.8c0.2-0.1,0.4-0.2,0.6-0.2C134.6-258.6,134.8-258.5,134.9-258.5L134.9-258.5L134.9-258.5z"/>
<path class="st0" d="M139.1-264.6c0.6,0.3,0.8,1.1,0.5,1.7c-0.6,1-1.3,2-2.1,2.9c-0.5,0.5-1.3,0.5-1.8,0c-0.2-0.2-0.4-0.6-0.4-0.9
	c0-0.3,0.1-0.6,0.4-0.9c0.2-0.2,0.4-0.5,0.6-0.8c0.4-0.5,0.7-1,1-1.6c0.2-0.4,0.7-0.6,1.1-0.6C138.7-264.8,138.9-264.7,139.1-264.6
	L139.1-264.6L139.1-264.6z"/>
<path class="st0" d="M144.4-270.5c0.2,0.2,0.4,0.6,0.4,0.9c0,0.3-0.1,0.7-0.4,0.9c-0.7,0.5-1.3,1.1-1.9,1.7c-0.5,0.5-1.3,0.5-1.8,0
	c-0.5-0.5-0.5-1.3,0-1.8c0.6-0.6,1.2-1.1,1.9-1.7c0.1-0.1,0.2-0.1,0.3-0.2c0.2-0.1,0.4-0.2,0.6-0.2
	C143.8-270.9,144.1-270.7,144.4-270.5L144.4-270.5L144.4-270.5z"/>
<path class="st0" d="M150.8-276.3c0.4,0.6,0.1,1.4-0.5,1.7c-0.3,0.2-0.6,0.4-0.8,0.6c-0.4,0.4-0.9,0.8-1.3,1.2
	c-0.5,0.5-1.3,0.5-1.8,0c-0.5-0.5-0.5-1.3,0-1.8c0.8-0.8,1.6-1.5,2.6-2.1c0.2-0.1,0.4-0.2,0.6-0.2
	C150.2-276.9,150.6-276.7,150.8-276.3L150.8-276.3L150.8-276.3z"/>
<path class="st0" d="M235-153.8c0.3,0.1,0.6,0.3,0.8,0.6c0.2,0.3,0.2,0.6,0.1,1c-0.1,0.6-0.2,1.1-0.4,1.7c-0.2,0.7-0.9,1.1-1.6,0.9
	c-0.7-0.2-1.1-0.9-0.9-1.6c0.1-0.6,0.3-1.1,0.4-1.7c0-0.3,0.3-0.6,0.6-0.8c0.2-0.1,0.4-0.2,0.6-0.2
	C234.8-153.8,234.9-153.8,235-153.8L235-153.8L235-153.8z"/>
<path class="st0" d="M237.2-160.1c0,1-0.2,2-0.5,3c-0.2,0.7-0.9,1.1-1.6,0.9c-0.6-0.2-1.1-0.9-0.9-1.6c0.2-0.5,0.3-1,0.4-1.5
	c0-0.3,0-0.5,0.1-0.8c0-0.7,0.6-1.3,1.3-1.3C236.6-161.4,237.2-160.8,237.2-160.1L237.2-160.1L237.2-160.1z"/>
<path class="st0" d="M236.5-168.3c0.3,0.1,0.6,0.3,0.8,0.6c0.2,0.3,0.2,0.6,0.1,1c-0.1,0.7-0.3,1.4-0.5,2c-0.2,0.7-0.9,1.1-1.6,0.9
	c-0.7-0.2-1.1-0.9-0.9-1.6c0.2-0.7,0.3-1.3,0.5-2c0.1-0.3,0.3-0.6,0.6-0.8c0.2-0.1,0.4-0.2,0.6-0.2
	C236.3-168.4,236.4-168.3,236.5-168.3L236.5-168.3L236.5-168.3z"/>
<path class="st0" d="M237.4-174.5c0,0.7,0,1.4-0.1,2.1c0,0.3-0.1,0.6-0.4,0.9c-0.2,0.2-0.6,0.4-0.9,0.4c-0.7,0-1.3-0.6-1.3-1.3
	c0-0.7,0.1-1.4,0.1-2.1c0-0.7,0.6-1.3,1.3-1.3C236.8-175.7,237.4-175.1,237.4-174.5L237.4-174.5L237.4-174.5z"/>
<path class="st0" d="M236.6-183.1c0,0.7,0,1.5-0.1,2.2c0,0.3-0.1,0.6-0.4,0.9c-0.2,0.2-0.6,0.4-0.9,0.4c-0.7,0-1.3-0.6-1.3-1.3
	c0-0.7,0.1-1.5,0.1-2.2c0-0.7,0.6-1.3,1.3-1.3C236-184.4,236.6-183.8,236.6-183.1L236.6-183.1L236.6-183.1z"/>
<path class="st0" d="M235.1-192.8c0.3,0.1,0.5,0.4,0.6,0.8c0.1,0.6,0.1,1.1,0.2,1.7c0,0.5,0,1.1,0,1.6c0,0.3-0.1,0.6-0.4,0.9
	c-0.2,0.2-0.6,0.4-0.9,0.4c-0.3,0-0.7-0.1-0.9-0.4c-0.2-0.2-0.4-0.6-0.4-0.9c0.1-0.8,0.1-1.7,0-2.5c0,0,0,0,0-0.1c0-0.1,0-0.2,0-0.3
	c0-0.2,0.1-0.4,0.2-0.6c0.2-0.3,0.4-0.5,0.8-0.6c0.1,0,0.2,0,0.3,0C234.7-193,234.9-193,235.1-192.8L235.1-192.8L235.1-192.8z"/>
<path class="st0" d="M234.2-199.9c0.2,0.8,0.2,1.6,0.2,2.4c0,0.7-0.6,1.3-1.3,1.3c-0.7,0-1.3-0.6-1.3-1.3c0-0.4,0-0.8-0.1-1.2
	c0-0.2-0.1-0.3-0.1-0.5c-0.1-0.3-0.1-0.7,0.1-1c0.2-0.3,0.4-0.5,0.8-0.6c0.1,0,0.2,0,0.3,0C233.6-200.8,234.1-200.5,234.2-199.9
	L234.2-199.9L234.2-199.9z"/>
<path class="st0" d="M232.7-207.9c0.2,0.7,0.4,1.5,0.5,2.2c0.1,0.3,0.1,0.7-0.1,1c-0.2,0.3-0.4,0.5-0.8,0.6c-0.3,0.1-0.7,0-1-0.1
	c-0.3-0.2-0.5-0.4-0.6-0.8c-0.1-0.8-0.3-1.5-0.5-2.2c-0.2-0.7,0.2-1.4,0.9-1.6c0.1,0,0.2,0,0.3,0C232-208.8,232.6-208.4,232.7-207.9
	L232.7-207.9L232.7-207.9z"/>
<path class="st0" d="M229.5-216.6c0.1,0.1,0.2,0.1,0.3,0.2c0.2,0.2,0.3,0.3,0.3,0.6c0.3,0.8,0.5,1.7,0.6,2.6c0,0.7-0.6,1.3-1.3,1.3
	c-0.3,0-0.7-0.1-0.9-0.4c-0.2-0.2-0.4-0.6-0.4-0.9c0-0.2,0-0.3,0-0.4c-0.1-0.5-0.2-1-0.4-1.5c-0.1-0.3,0-0.7,0.1-1
	c0.2-0.3,0.4-0.5,0.8-0.6c0.1,0,0.2,0,0.3,0C229.1-216.7,229.3-216.7,229.5-216.6L229.5-216.6L229.5-216.6z"/>
<path class="st0" d="M226.5-225c0.3,0.2,0.5,0.4,0.6,0.8c0.4,1,0.7,2,1,3c0.2,0.7-0.2,1.4-0.9,1.6c-0.7,0.2-1.3-0.2-1.6-0.9
	c-0.3-1-0.7-2-1-3c-0.1-0.3,0-0.7,0.1-1c0.2-0.3,0.4-0.5,0.8-0.6c0.1,0,0.2,0,0.3,0C226.1-225.2,226.3-225.2,226.5-225L226.5-225
	L226.5-225z"/>
<path class="st0" d="M223.1-231.9c0.5,0.8,0.9,1.6,1.2,2.5c0.2,0.7-0.2,1.4-0.9,1.6c-0.3,0.1-0.7,0-1-0.1c-0.3-0.2-0.5-0.4-0.6-0.8
	c-0.1-0.2-0.1-0.4-0.2-0.6c-0.2-0.5-0.4-0.9-0.7-1.3c-0.4-0.6-0.1-1.4,0.5-1.7c0.2-0.1,0.4-0.2,0.6-0.2
	C222.5-232.6,222.9-232.3,223.1-231.9L223.1-231.9L223.1-231.9z"/>
<path class="st0" d="M219.4-238.9c0.5,0.8,0.9,1.6,1.2,2.5c0.1,0.3,0,0.7-0.1,1c-0.2,0.3-0.4,0.5-0.8,0.6c-0.3,0.1-0.7,0-1-0.1
	c-0.3-0.2-0.5-0.4-0.6-0.8c-0.1-0.2-0.1-0.3-0.2-0.4c-0.2-0.5-0.5-1-0.8-1.5c-0.4-0.6-0.1-1.4,0.5-1.7c0.2-0.1,0.4-0.2,0.6-0.2
	C218.8-239.5,219.2-239.3,219.4-238.9L219.4-238.9L219.4-238.9z"/>
<path class="st0" d="M214.6-246.1c0.5,0.7,1,1.3,1.4,2.1c0.1,0.3,0.2,0.6,0.1,1c-0.1,0.3-0.3,0.6-0.6,0.8c-0.3,0.2-0.6,0.2-1,0.1
	c-0.3-0.1-0.6-0.3-0.8-0.6c-0.2-0.5-0.5-1-0.8-1.4c0-0.1-0.1-0.1-0.1-0.2c-0.2-0.3-0.4-0.5-0.4-0.9c0-0.3,0.1-0.7,0.4-0.9
	c0.2-0.2,0.6-0.4,0.9-0.4C214-246.5,214.4-246.3,214.6-246.1L214.6-246.1L214.6-246.1z"/>
<path class="st0" d="M210.5-251.3c0.3,0.4,0.6,0.8,0.9,1.2c0.2,0.3,0.4,0.5,0.4,0.9c0,0.3-0.1,0.7-0.4,0.9c-0.2,0.2-0.6,0.4-0.9,0.4
	c-0.3,0-0.7-0.1-0.9-0.4c-0.3-0.4-0.6-0.8-0.9-1.2c-0.2-0.3-0.4-0.5-0.4-0.9c0-0.3,0.1-0.7,0.4-0.9c0.2-0.2,0.6-0.4,0.9-0.4
	C209.9-251.7,210.3-251.6,210.5-251.3L210.5-251.3L210.5-251.3z"/>
<path class="st0" d="M205.4-256.9c0.4,0.3,0.7,0.7,1,1.1c0.2,0.3,0.4,0.5,0.4,0.9c0,0.3-0.1,0.7-0.4,0.9c-0.5,0.5-1.3,0.5-1.8,0
	c-0.3-0.4-0.7-0.7-1-1.1c-0.5-0.5-0.5-1.3,0-1.8c0.2-0.2,0.6-0.4,0.9-0.4C204.8-257.3,205.1-257.2,205.4-256.9L205.4-256.9
	L205.4-256.9z"/>
<path class="st0" d="M199.3-262c0.2,0.1,0.4,0.2,0.6,0.3c0.5,0.4,0.9,0.8,1.3,1.2c0.2,0.3,0.4,0.5,0.4,0.9c0,0.3-0.1,0.7-0.4,0.9
	c-0.5,0.5-1.3,0.5-1.8,0c-0.4-0.5-0.8-0.9-1.3-1.2c-0.2-0.2-0.4-0.6-0.4-0.9c0-0.3,0.1-0.7,0.4-0.9c0.2-0.2,0.6-0.4,0.9-0.4
	C199-262.1,199.2-262,199.3-262L199.3-262L199.3-262z"/>
<path class="st0" d="M192.4-267.1c0.7,0.5,1.4,1,2.1,1.4c0.6,0.3,0.8,1.1,0.5,1.7c-0.3,0.6-1.1,0.8-1.7,0.5
	c-0.7-0.4-1.4-0.9-2.1-1.4c-0.1-0.1-0.2-0.1-0.3-0.2c-0.2-0.2-0.3-0.3-0.3-0.6c-0.1-0.3,0-0.7,0.1-1c0.2-0.3,0.4-0.5,0.8-0.6
	c0.1,0,0.2,0,0.4,0C192-267.3,192.3-267.2,192.4-267.1L192.4-267.1L192.4-267.1z"/>
<path class="st0" d="M185.7-271.2c0.7,0.4,1.3,0.8,1.9,1.2c0.3,0.2,0.5,0.4,0.6,0.8c0.1,0.3,0,0.7-0.1,1c-0.3,0.6-1.2,0.8-1.7,0.5
	c-0.6-0.4-1.3-0.8-1.9-1.2c-0.6-0.3-0.8-1.1-0.5-1.7c0.2-0.4,0.7-0.6,1.1-0.6C185.3-271.4,185.5-271.3,185.7-271.2L185.7-271.2
	L185.7-271.2z"/>
<path class="st0" d="M177.9-274.9c0.2,0.1,0.4,0.2,0.6,0.3c0.4,0.2,0.9,0.3,1.3,0.4c0.7,0.1,1.1,0.9,0.9,1.6
	c-0.1,0.3-0.3,0.6-0.6,0.8c-0.3,0.2-0.6,0.2-1,0.1c-0.9-0.2-1.7-0.5-2.5-0.9c-0.6-0.3-0.8-1.1-0.5-1.7c0.2-0.4,0.7-0.6,1.1-0.6
	C177.5-275.1,177.7-275,177.9-274.9L177.9-274.9L177.9-274.9z"/>
<path class="st0" d="M170.7-278.4c0.8,0.2,1.6,0.5,2.2,0.9c0.3,0.2,0.5,0.4,0.6,0.8c0.1,0.3,0,0.7-0.1,1c-0.3,0.6-1.2,0.8-1.7,0.5
	c-0.2-0.2-0.5-0.3-0.8-0.4c-0.3-0.1-0.6-0.2-0.9-0.2c-0.7-0.1-1.1-0.9-0.9-1.6c0.1-0.3,0.3-0.6,0.6-0.8c0.2-0.1,0.4-0.2,0.6-0.2
	C170.4-278.4,170.6-278.4,170.7-278.4L170.7-278.4L170.7-278.4z"/>
<path class="st0" d="M177.8-246.4L177.8-246.4c-0.8-0.6-1.8-0.8-2.8-0.8c0,0,0,0,0,0c-0.3,0-0.6,0.1-0.8,0.3c-0.3,0-0.5,0-0.7,0.2
	c-0.3,0.2-0.6,0.3-0.9,0.6c-0.2,0.1-0.3,0.3-0.5,0.4c-0.2,0.2-0.4,0.4-0.5,0.7c-0.1,0.2-0.2,0.5-0.3,0.7c-0.1,0.2-0.1,0.4-0.2,0.7
	c0,0.3-0.1,0.5-0.1,0.8c0,0.3,0,0.5,0.1,0.8c0.1,0.3,0.2,0.5,0.3,0.7c0.4,0.9,1.3,1.6,2.2,2c0.5,0.2,1.1,0.3,1.6,0.2
	c0.5,0,1.1-0.1,1.6-0.3c0.5-0.2,1-0.5,1.5-0.9c0.3-0.3,0.6-0.6,0.8-1c0.1-0.2,0.2-0.4,0.3-0.7c0.1-0.2,0.1-0.5,0.1-0.7
	c0.1-0.4,0-0.8-0.1-1.3c-0.1-0.3-0.2-0.5-0.3-0.8c-0.1-0.2-0.1-0.3-0.2-0.5c-0.1-0.2-0.3-0.4-0.5-0.6
	C178.2-246.1,178-246.3,177.8-246.4L177.8-246.4z M174.9-244.8L174.9-244.8C175-244.8,175-244.8,174.9-244.8c0.2,0,0.4,0,0.5,0
	c0.2,0,0.4,0.1,0.5,0.1c0.1,0.1,0.3,0.1,0.4,0.2c0.1,0.1,0.2,0.2,0.3,0.3c0.1,0.1,0.1,0.2,0.2,0.3c0,0.1,0.1,0.2,0.1,0.4
	c0,0.1,0,0.3,0,0.4c0,0.1-0.1,0.2-0.1,0.3c-0.1,0.1-0.1,0.2-0.2,0.3c-0.1,0.1-0.2,0.2-0.2,0.2c-0.1,0.1-0.2,0.1-0.3,0.2
	c-0.2,0.1-0.4,0.1-0.6,0.2c-0.3,0-0.5,0-0.8,0c-0.2,0-0.3-0.1-0.5-0.1c-0.1-0.1-0.2-0.1-0.3-0.2c-0.1-0.1-0.1-0.1-0.2-0.2
	c-0.1-0.1-0.1-0.2-0.1-0.3c0-0.1-0.1-0.2-0.1-0.3c0-0.1,0-0.2,0-0.4c0-0.1,0.1-0.2,0.1-0.4c0.1-0.1,0.1-0.2,0.2-0.4
	c0.1-0.1,0.2-0.2,0.4-0.4c0.2-0.1,0.3-0.2,0.5-0.3C174.8-244.7,174.9-244.7,174.9-244.8L174.9-244.8z"/>
<path class="st0" d="M241.5-253.6c0.3,0.2,0.5,0.4,0.6,0.8c0.1,0.3,0.1,0.7-0.1,1c-0.2,0.2-0.3,0.4-0.4,0.7
	c-0.1,0.2-0.1,0.4-0.2,0.6c0,0.2,0,0.4,0,0.6c0,0.2,0.1,0.3,0.1,0.5c0.1,0.2,0.2,0.3,0.3,0.5c0.1,0.1,0.2,0.2,0.3,0.3
	c0.1,0.1,0.2,0.2,0.4,0.2c0.1,0,0.3,0.1,0.4,0.1c0.2,0,0.3,0,0.5,0c0.2,0,0.4-0.1,0.6-0.2c0.1,0,0.1-0.1,0.2-0.1
	c0.6-0.3,1.4-0.2,1.7,0.5c0.3,0.6,0.2,1.4-0.5,1.7c-0.5,0.2-0.9,0.4-1.4,0.5c-0.6,0.1-1.1,0.1-1.7,0c-0.9-0.2-1.8-0.7-2.4-1.4
	c-0.3-0.4-0.6-0.9-0.8-1.4c-0.2-0.5-0.2-0.9-0.3-1.4c0-0.5,0.1-1,0.2-1.5c0.1-0.5,0.4-1,0.7-1.5c0.2-0.3,0.4-0.5,0.8-0.6
	c0.1,0,0.2,0,0.3,0C241.1-253.7,241.3-253.7,241.5-253.6L241.5-253.6L241.5-253.6z"/>
<path class="st0" d="M247.2-155.5c0.3,0.1,0.6,0.3,0.8,0.6c0,0.1,0.1,0.2,0.1,0.3c0.1,0.2,0.1,0.4,0,0.7c-0.1,0.4-0.1,0.8-0.2,1.3
	c-0.1,0.3-0.3,0.6-0.6,0.8c-0.3,0.2-0.6,0.2-1,0.1c-0.3-0.1-0.6-0.3-0.8-0.6c-0.2-0.3-0.2-0.6-0.1-1c0.1-0.4,0.1-0.8,0.2-1.3
	c0-0.3,0.3-0.6,0.6-0.8c0.2-0.1,0.4-0.2,0.6-0.2C247-155.5,247.1-155.5,247.2-155.5L247.2-155.5L247.2-155.5z"/>
<path class="st0" d="M248.2-161.6c0.2,0.2,0.3,0.6,0.4,0.9c0,0.4,0.1,0.7,0.1,1.1c0,0.3-0.2,0.7-0.4,0.9c-0.2,0.2-0.6,0.4-0.9,0.4
	c-0.3,0-0.7-0.1-0.9-0.4c-0.3-0.3-0.3-0.5-0.4-0.9c0-0.4-0.1-0.7-0.1-1.1c0-0.7,0.6-1.3,1.3-1.3C247.6-162,248-161.9,248.2-161.6
	L248.2-161.6L248.2-161.6z"/>
<path class="st0" d="M248.1-168.3L248.1-168.3c-0.2-0.2-0.6-0.4-0.9-0.4c-0.3,0-0.7,0.1-0.9,0.4c-0.3,0.3-0.3,0.5-0.4,0.9
	c0,0.4-0.1,0.8-0.1,1.1c0,0,0,0.1,0,0.1c-0.1,0.2-0.1,0.4,0,0.7c0,0.1,0.1,0.2,0.1,0.3c0.2,0.3,0.4,0.5,0.8,0.6c0.3,0.1,0.7,0,1-0.1
	c0.3-0.1,0.5-0.5,0.6-0.8c0.1-0.6,0.2-1.3,0.2-1.9C248.5-167.8,248.3-168.1,248.1-168.3L248.1-168.3z M245.8-166.4L245.8-166.4
	C245.8-166.4,245.8-166.4,245.8-166.4C245.8-166.4,245.8-166.4,245.8-166.4L245.8-166.4z"/>
<path class="st0" d="M248.6-173.8c0,0.7-0.1,1.3-0.1,2c0,0.3-0.1,0.6-0.4,0.9c-0.2,0.2-0.6,0.4-0.9,0.4c-0.3,0-0.7-0.1-0.9-0.4
	c-0.2-0.2-0.4-0.6-0.4-0.9c0.1-0.7,0.1-1.3,0.1-2c0-0.7,0.6-1.3,1.3-1.3C248.1-175.1,248.7-174.5,248.6-173.8L248.6-173.8
	L248.6-173.8z"/>
<path class="st0" d="M248.1-182.3c0.2,0.2,0.3,0.6,0.4,0.9c0,0.8,0.1,1.5,0.1,2.3c0,0.7-0.6,1.3-1.3,1.3c-0.7,0-1.3-0.6-1.3-1.3
	c0-0.8,0-1.6-0.1-2.3c0-0.7,0.6-1.3,1.3-1.3C247.5-182.7,247.8-182.6,248.1-182.3L248.1-182.3L248.1-182.3z"/>
<path class="st0" d="M247.1-188.8c0.1,0.1,0.1,0.2,0.2,0.3c0.1,0.2,0.2,0.4,0.2,0.6c0.1,0.6,0.1,1.3,0.1,1.9c0,0.7-0.6,1.3-1.3,1.3
	c-0.7,0-1.3-0.6-1.3-1.3c0-0.6,0-1.3-0.1-1.9c0-0.3,0.2-0.7,0.4-0.9c0.2-0.2,0.6-0.4,0.9-0.4C246.5-189.1,246.9-189,247.1-188.8
	L247.1-188.8L247.1-188.8z"/>
<path class="st0" d="M246-195.8c0.1,0.1,0.1,0.2,0.2,0.3c0.1,0.2,0.2,0.4,0.2,0.6c0.1,0.6,0.1,1.3,0.1,1.9c0,0.7-0.6,1.3-1.3,1.3
	c-0.7,0-1.3-0.6-1.3-1.3c0-0.6,0-1.3-0.1-1.9c0-0.3,0.2-0.7,0.4-0.9c0.2-0.2,0.6-0.4,0.9-0.4C245.5-196.2,245.8-196.1,246-195.8
	L246-195.8L246-195.8z"/>
<path class="st0" d="M245-203.7c0.2,0.9,0.4,1.9,0.4,2.8c0,0.7-0.6,1.3-1.3,1.3c-0.7,0-1.2-0.6-1.3-1.3c0-0.3,0-0.6-0.1-1
	c-0.1-0.4-0.1-0.8-0.2-1.2c-0.2-0.7,0.2-1.4,0.9-1.6c0.1,0,0.2,0,0.3,0C244.3-204.6,244.9-204.2,245-203.7L245-203.7L245-203.7z"/>
<path class="st0" d="M242.1-212.1c0.3,0.2,0.5,0.4,0.6,0.8c0.3,0.9,0.5,1.8,0.5,2.7c0,0.7-0.6,1.3-1.3,1.3c-0.7,0-1.2-0.6-1.3-1.3
	c0-0.2,0-0.5,0-0.7c-0.1-0.5-0.2-0.9-0.4-1.4c-0.1-0.3,0-0.7,0.1-1c0.2-0.3,0.4-0.5,0.8-0.6c0.1,0,0.2,0,0.3,0
	C241.7-212.3,241.9-212.2,242.1-212.1L242.1-212.1L242.1-212.1z"/>
<path class="st0" d="M239.5-220.4c0.3,0.2,0.5,0.4,0.6,0.8c0.3,0.8,0.6,1.6,0.9,2.5c0.2,0.7-0.2,1.4-0.9,1.6
	c-0.7,0.2-1.3-0.2-1.6-0.9c-0.3-0.8-0.6-1.7-0.9-2.5c-0.1-0.3,0-0.7,0.1-1c0.2-0.3,0.4-0.5,0.8-0.6c0.1,0,0.2,0,0.3,0
	C239.1-220.6,239.3-220.5,239.5-220.4L239.5-220.4L239.5-220.4z"/>
<path class="st0" d="M236.3-228.2c0.3,0.2,0.5,0.4,0.6,0.8c0.2,0.6,0.4,1.2,0.5,1.8c0.2,0.7-0.2,1.4-0.9,1.6
	c-0.6,0.2-1.4-0.2-1.6-0.9c-0.1-0.6-0.3-1.2-0.5-1.8c-0.1-0.3,0-0.7,0.1-1c0.2-0.3,0.4-0.5,0.8-0.6c0.1,0,0.2,0,0.3,0
	C235.9-228.3,236.1-228.3,236.3-228.2L236.3-228.2L236.3-228.2z"/>
<path class="st0" d="M233.5-235.4c0.5,0.9,0.9,1.9,1.2,2.9c0.2,0.7-0.2,1.4-0.9,1.6c-0.7,0.2-1.4-0.2-1.6-0.9
	c-0.1-0.5-0.3-1-0.5-1.5c-0.1-0.3-0.3-0.6-0.4-0.9c-0.3-0.6-0.2-1.4,0.5-1.7c0.2-0.1,0.4-0.2,0.6-0.2
	C232.8-236,233.3-235.8,233.5-235.4L233.5-235.4L233.5-235.4z"/>
<path class="st0" d="M228.5-243.7c0.6,0.7,1.1,1.4,1.5,2.2c0.3,0.6,0.2,1.4-0.5,1.7c-0.6,0.3-1.4,0.2-1.7-0.5
	c-0.3-0.5-0.6-1-0.9-1.4c-0.1-0.1-0.2-0.2-0.2-0.3c-0.2-0.3-0.4-0.5-0.4-0.9c0-0.3,0.1-0.7,0.4-0.9c0.2-0.2,0.6-0.4,0.9-0.4
	C227.9-244.1,228.3-243.9,228.5-243.7L228.5-243.7L228.5-243.7z"/>
<path class="st0" d="M223-252c0.6,0.6,1.1,1.3,1.6,1.9c0.2,0.3,0.2,0.7,0.1,1c-0.1,0.3-0.3,0.6-0.6,0.8c-0.3,0.2-0.6,0.2-1,0.1
	c-0.1,0-0.2-0.1-0.3-0.1c-0.2-0.1-0.3-0.3-0.5-0.5c0,0,0,0,0,0c-0.4-0.5-0.8-1-1.2-1.4c-0.2-0.3-0.4-0.5-0.4-0.9
	c0-0.3,0.1-0.7,0.4-0.9c0.2-0.2,0.6-0.4,0.9-0.4C222.4-252.3,222.8-252.2,223-252L223-252L223-252z"/>
<path class="st0" d="M216.5-259.4c0.6,0.5,1.1,1.1,1.6,1.8c0.2,0.3,0.4,0.5,0.4,0.9c0,0.3-0.1,0.7-0.4,0.9c-0.2,0.2-0.6,0.4-0.9,0.4
	c-0.3,0-0.7-0.1-0.9-0.4c-0.5-0.6-1.1-1.2-1.6-1.8c-0.5-0.5-0.5-1.3,0-1.8c0.2-0.2,0.6-0.4,0.9-0.4
	C215.9-259.8,216.2-259.7,216.5-259.4L216.5-259.4L216.5-259.4z"/>
<path class="st0" d="M208.6-266.7c0.9,0.7,1.8,1.4,2.6,2.2c0.5,0.5,0.5,1.3,0,1.8c-0.5,0.5-1.3,0.5-1.8,0c-0.6-0.6-1.3-1.2-2-1.7
	c0,0-0.1-0.1-0.1-0.1c-0.3-0.2-0.5-0.4-0.6-0.8c-0.1-0.3,0-0.7,0.1-1c0.2-0.3,0.4-0.5,0.8-0.6c0.1,0,0.2,0,0.4,0
	C208.2-266.8,208.4-266.8,208.6-266.7L208.6-266.7L208.6-266.7z"/>
<path class="st0" d="M200.9-272.3c0.9,0.5,1.7,1.1,2.5,1.8c0.2,0.2,0.4,0.6,0.4,0.9c0,0.3-0.1,0.7-0.4,0.9c-0.2,0.2-0.6,0.4-0.9,0.4
	c-0.4,0-0.6-0.1-0.9-0.4c-0.2-0.1-0.3-0.3-0.5-0.4c-0.5-0.4-1-0.7-1.5-1c-0.6-0.4-0.8-1.1-0.5-1.7c0.2-0.4,0.7-0.6,1.1-0.6
	C200.5-272.5,200.8-272.4,200.9-272.3L200.9-272.3L200.9-272.3z"/>
<path class="st0" d="M193.2-277.3L193.2-277.3c-0.1,0-0.2-0.1-0.3-0.1c-0.2,0-0.5,0.1-0.7,0.2c-0.3,0.2-0.5,0.4-0.6,0.8
	c-0.1,0.3,0,0.7,0.1,1c0.1,0.2,0.3,0.3,0.5,0.5c0.1,0,0.1,0,0.2,0.1c0.5,0.2,1,0.5,1.5,0.8c0.1,0,0.1,0.1,0.2,0.1
	c0.3,0.2,0.5,0.4,0.9,0.4c0.3,0,0.7-0.1,0.9-0.4c0.2-0.2,0.4-0.6,0.4-0.9c0-0.3-0.1-0.7-0.4-0.9c-0.4-0.3-0.8-0.7-1.3-0.9
	C194.1-276.9,193.6-277.1,193.2-277.3L193.2-277.3z M192.6-274.8L192.6-274.8C192.6-274.8,192.6-274.8,192.6-274.8
	C192.6-274.8,192.6-274.8,192.6-274.8L192.6-274.8z"/>
<g>
	<g>
		<path class="st4" d="M577.4-297.2L577.4-297.2c0.1,0,0.1,0,0.1,0C577.5-297.2,577.5-297.2,577.4-297.2z"/>
	</g>
</g>
<g>
	<g>
		<path class="st4" d="M577.4-297.2L577.4-297.2c0.1,0,0.1,0,0.1,0C577.5-297.2,577.5-297.2,577.4-297.2z"/>
	</g>
</g>
<g>
	<g>
		<path class="st4" d="M577.4-297.2L577.4-297.2c0.1,0,0.1,0,0.1,0C577.5-297.2,577.5-297.2,577.4-297.2z"/>
	</g>
</g>
<g>
	<g>
		<path class="st4" d="M482.1-216.1c0.4,0.4,0.8,0.8,1.2,1.2C483-215.4,482.6-215.8,482.1-216.1z"/>
	</g>
</g>
<g>
	<g>
		<g>
			<path class="st4" d="M652.5-223.4c0,0.1,0,0.2,0,0.3c0.5-0.2,1-0.6,1.4-1C653.4-223.8,652.9-223.5,652.5-223.4z"/>
			<polygon class="st4" points="646.3,-228.4 646.3,-228.4 646.3,-228.4 			"/>
			<path class="st4" d="M651.5-227C651.5-227,651.5-226.9,651.5-227c0.1,0,0.1,0,0.2-0.1c0,0,0-0.1-0.1-0.1
				C651.6-227.1,651.6-227,651.5-227z"/>
			<path class="st4" d="M652.5-225.4c-0.1,0-0.1,0.1-0.2,0.1c0,0,0,0.1,0,0.1c0.1-0.1,0.3-0.2,0.4-0.4
				C652.6-225.5,652.6-225.4,652.5-225.4z"/>
		</g>
	</g>
</g>
<g>
	<g>
		<g>
			<path class="st4" d="M651.5-227C651.5-227,651.5-226.9,651.5-227c0.1,0,0.1,0,0.2-0.1c0,0,0-0.1-0.1-0.1
				C651.6-227.1,651.6-227,651.5-227z"/>
			<path class="st4" d="M652.5-225.4c-0.1,0-0.1,0.1-0.2,0.1c0,0,0,0.1,0,0.1c0.1-0.1,0.3-0.2,0.4-0.4
				C652.6-225.5,652.6-225.4,652.5-225.4z"/>
			<polygon class="st4" points="646.3,-228.4 646.3,-228.4 646.3,-228.4 			"/>
		</g>
	</g>
</g>
<g>
	<g>
		<g>
			<polygon class="st4" points="646.3,-228.4 646.3,-228.4 646.3,-228.4 			"/>
			<path class="st4" d="M651.7-227.2c0,0.1-0.1,0.1-0.1,0.2c0,0,0,0,0,0c0.1,0,0.2-0.1,0.2-0.1C651.7-227.1,651.7-227.1,651.7-227.2
				z"/>
		</g>
	</g>
</g>
<g>
	<g>
		<g>
			<path class="st4" d="M693.1-177.7l-0.9-0.8l-0.1-0.1c-1.1-5.1-2.4-9.9-4.4-14.5c-1.3-2.8-2.8-5.3-4.6-7.5c-1.4-1.7-3.2-3.3-5.4-5
				c-1.6-1.2-3.3-2.3-5.4-3.3c-1.9-0.9-3.9-1.5-6-1.7c-0.4-0.1-0.8-0.1-1.3-0.1c-0.1,0-0.1,0-0.2,0c0-0.9-0.1-1.8-0.2-2.5
				c-0.1-1-0.3-1.9-0.6-2.8c-0.4-1.1-0.8-2.2-1.5-3.3c-0.5-0.7-1.2-1.8-2.2-2.8c-0.9-0.9-1.8-1.6-2.7-2.3c-1.1-0.7-2.3-1.3-3.2-1.7
				c-0.8-0.3-1.7-0.6-2.6-0.8c-1.3-0.3-2.5-0.5-3.7-0.6c-1.5-0.1-3.1,0-4.9,0.2c-0.8,0.1-1.6,0.3-2.3,0.5c0-0.1,0-0.2,0-0.4
				c-0.1-0.9-0.3-1.8-0.6-2.8c-0.4-1.2-0.8-2.4-1.3-3.4c-0.4-0.8-0.8-1.6-1.4-2.4c-0.6-0.8-1.3-1.9-2.2-2.9c-0.6-0.7-1.3-1.3-2-2
				c-1.1-1-2-1.7-2.9-2.3c-1.7-1.2-3.6-2.2-5.9-3.2c-1.8-0.8-3.9-1.3-6.5-1.8c-1.9-0.4-3.9-0.5-5.9-0.4h0c-2,0.1-3.4,0.3-4.9,0.7
				c-0.9,0.2-1.9,0.5-2.8,0.9c0.1-1.8,0-3.6-0.2-5.6c-0.2-2.1-0.8-4.3-1.7-6.6c-0.8-2-2-4-3.6-5.9c-0.6-0.8-1.4-1.6-2.3-2.3
				c-1.3-1.1-2.3-1.9-3.3-2.6c-1.2-0.8-2.5-1.5-4.1-2.2c-1.2-0.5-2.4-0.9-3.7-1.2c-1.2-0.3-2.7-0.5-4.4-0.5h0
				c-1.5,0-2.9,0.2-4.3,0.5c-0.2,0-0.3,0.1-0.5,0.1h0c-0.3,0.1-0.7,0.2-1,0.3c0.6-0.4,1.2-0.8,1.6-1.4c0.1-0.1,0.2-0.2,0.2-0.3
				c0.8-1.2,1.1-2.8,0.8-4.2l-0.4-1.1l-0.1-0.2c-0.4-0.8-1-1.5-1.8-2l0,0c-1.9-1.6-3.6-3.5-5.4-5.2l-0.2-0.2c-2-2-4.3-4.4-7-6.6
				l-0.2-0.1l-1.1-0.5l-0.2-0.1c-0.9-0.3-1.9-0.4-2.9-0.2l0,0c-1.4,0.3-2.6,1.2-3.4,2.3c-0.1,0.1-0.2,0.3-0.3,0.4
				c-2.4,2.1-4.6,4.4-6.8,6.6c-1.8,1.8-3.7,3.7-5.6,5.5c-0.7,0.6-1.2,1.4-1.5,2.3c0,0,0,0,0,0.1c-0.2,0.6-0.4,1.2-0.4,1.9
				c-0.1,1.5,0.5,2.9,1.4,3.9c0.3,0.4,0.7,0.7,1.1,1.1c0.3,0.3,0.5,0.5,0.8,0.8c-0.4-0.1-0.7-0.2-1.1-0.3c-0.4-0.1-0.8-0.2-1.1-0.2
				c-1.2-0.2-2.4-0.3-3.6-0.3c-0.2,0-0.4,0-0.6,0c-1.8,0.1-3.4,0.3-4.8,0.6c-1.5,0.4-3,0.9-4.5,1.6c-1.4,0.6-2.6,1.4-4.1,2.4
				c-2.2,1.5-4.3,3.6-6.1,6.2c-0.8,1-1.5,2.2-2.1,3.4c-0.9,1.7-1.4,3.1-1.9,4.4c-0.6,1.8-0.9,3.7-1.1,5.7c-2.4-1.3-5.5-2.8-9-3.6
				c-2.1-0.5-3.9-0.7-5.5-0.7c-1.7,0-3.4,0.3-5,0.7c-1.4,0.4-2.9,0.9-4.4,1.6c-1.2,0.5-2.3,1.2-3.5,2c-1.4,0.9-2.4,1.7-3.3,2.5
				c-1.1,1-2,2-2.9,3c-1.6,1.8-2.9,4-3.8,6.4c-0.6,1.4-0.8,2.8-1,4c-0.1,0.3-0.1,0.7-0.1,1c-1.2-0.2-2.4-0.3-3.5-0.3
				c-0.3,0-0.6,0-0.9,0c-0.7,0-1.4,0-2,0.1c-1.4,0.1-2.6,0.2-3.8,0.4c-0.9,0.2-1.9,0.4-2.8,0.7c-1,0.4-2.2,0.8-3.4,1.4
				c-1,0.5-2,1.2-3,2c-1,0.8-1.8,1.8-2.5,2.6c-0.8,1-1.4,2.1-1.9,3.2c-0.6,1.2-0.8,2.5-1.1,3.7c-0.2,1-0.3,2.1-0.2,3.2
				c0.1,1.6,0.2,3,0.6,4.4c0,0.1,0,0.2,0.1,0.2c-1.1,0-2.2,0.1-3.1,0.2c-2.4,0.2-5,0.9-7.6,2.1c-1,0.5-2.1,1-3.1,1.7
				c-1.4,0.9-2.5,1.8-3.5,2.6c-1.4,1.3-2.8,2.8-4.3,4.7c-1.1,1.5-2.2,3.1-3.1,5c-1.1,2.2-2,4.3-2.7,6.3c-0.5,1.5-0.9,3.1-1.3,4.9
				c-0.6,0.8-0.9,1.8-1,2.8c0,0.1,0,0.2,0,0.3c0,1.4,0.5,2.7,1.4,3.7c0.9,1.1,2.2,1.7,3.7,1.8l1.4,0.1c1.2,0.1,2.3,0.2,3.5,0.3
				l1.6,0.2c3.4,0.3,6.8,0.7,10.2,1l6.4,0.5c4.3,0.4,8.6,0.7,12.9,1l3,0.2c23.2,1.6,47.5,2.7,74.2,3.1h0.1
				c7.4,0.1,14.9,0.2,22.4,0.3l1.1,0c3,0,6.1,0,9.3,0c2,0,4,0,6,0l3.8,0c0.4,0,0.8,0,1.2,0c0,0,0,0,0,0l4.4,0c0,0,0,0,0,0
				c4.3,0,8.7-0.1,13-0.1l0.8,0h0.1c12.2-0.2,24.8-0.4,37.4-0.8l0.5,0c1.1,0,2.3-0.1,3.4-0.1l2-0.1c5-0.2,10-0.3,15-0.5l3.5-0.1
				l0.3,0c5.3-0.2,10.8-0.4,16.3-0.7l1.2-0.1c2.8-0.1,5.6-0.3,8.4-0.4l1-0.1l0.3,0c0.9-0.2,1.8-0.6,2.5-1.3c1.1-1,1.8-2.4,1.8-3.8
				C694.6-175.2,694-176.6,693.1-177.7z M560.4-284.9C560.4-284.9,560.4-284.9,560.4-284.9l-0.1,0
				C560.3-284.9,560.4-284.9,560.4-284.9z M553.4-266.1c0.4-0.2,0.7-0.4,1.1-0.6c0.7-0.2,1.4-0.4,2.2-0.5c1.2-0.1,2.4,0,3.7,0.2
				c1.4,0.3,2.7,0.7,3.9,1.3c0.1,0,0.1,0.1,0.2,0.1c-0.2,0.2-0.4,0.5-0.6,0.7c-1.4,1.7-2.7,3.7-3.8,5.9c-0.2,0.4-0.4,0.7-0.5,1.1
				c-0.8-1.2-1.6-2.4-2.5-3.6c-1.2-1.6-2.6-3.1-4-4.4C553.2-265.9,553.3-266,553.4-266.1z M464-180.1l-1.7-0.1
				c-4.3-0.3-8.6-0.7-13-1l-0.2,1.8l0.1-1.8l-6-0.5c-3.3-0.3-6.7-0.6-10-0.9c0.4-1.3,0.9-2.5,1.5-3.7c1-2,2.2-3.8,3.5-5.4
				c1.1-1.2,2.3-2.3,3.6-3.2c1.1-0.7,2.3-1.3,3.4-1.8c1.1-0.4,2.3-0.6,3.4-0.7c1.2-0.1,2.5,0,3.7,0.2c1.5,0.3,3,0.9,4.6,1.6
				c0.4,0.2,0.8,0.4,1.2,0.6l0,0c1.9,1.8,4,3.5,6.3,4.9c1.8,1.2,3.9,2.3,6.3,3.5c2.3,1.1,4.7,2.2,7.1,3.3c1.6,0.7,3.2,1.3,4.7,1.9
				l1.3,0.5c1.8,0.7,3.7,1.5,5.5,2.3C480.7-179,472.3-179.5,464-180.1z M540.1-176.9c-19.2-0.3-36.2-7.8-54-15
				c-3.4-1.4-6.7-2.7-9.8-4.2c-3.9-2-7-3.9-9.5-6c-0.2-0.2-0.4-0.3-0.5-0.5c0,0,0,0,0,0c-0.4-0.4-0.8-0.8-1.2-1.2
				c-0.7-0.7-1.3-1.5-1.9-2.3c-0.7-1.1-1.3-2.3-1.8-3.5c-0.4-1.1-0.6-2.3-0.7-3.4c0-0.7,0-1.3,0.1-1.9c0.1-0.4,0.2-0.8,0.4-1.1
				c0.2-0.3,0.4-0.6,0.6-0.9c0.3-0.3,0.6-0.6,1-0.9c0.6-0.4,1.3-0.7,2-1c1.2-0.4,2.5-0.6,3.8-0.8c1.8-0.1,3.7,0,5.5,0.3
				c1,0.2,2,0.5,2.9,0.8l0,0.2c-0.1,0.6-0.3,1.3-0.3,2c0,0.9,0.1,1.6,0.3,2.3c0.2,0.7,0.4,1.4,0.7,2c0.2,0.4,0.4,0.8,0.7,1.2
				c0.4,0.7,0.8,1.3,1.2,1.7c0.5,0.6,1,1,1.5,1.4l0.2,0.2c0.8,0.7,1.8,1.3,3.1,1.8c0.6,0.3,1.3,0.4,1.9,0.5l0.3,0.1
				c0.3,0.1,0.7,0.1,1,0.1c0.4,0,0.8,0,1.2-0.1l0.2,0c0.8-0.1,1.4-0.3,2-0.5l0.2-0.1c0.7-0.3,1.3-0.7,1.8-1l0.2-0.2
				c0.3-0.2,0.6-0.5,0.9-0.8c0.5-0.5,0.9-1.1,1.3-1.6c0.2-0.3,0.5-0.7,0.7-1.1l0.1-0.2c0.3-0.6,0.7-1.3,0.8-2.2l0-0.1
				c0.1-0.6,0.3-1.4,0.3-2.2c0-0.9-0.1-1.7-0.3-2.4c-0.2-0.8-0.5-1.5-0.7-2.1c-0.3-0.7-0.7-1.3-1.1-1.8l-0.1-0.2
				c-0.6-0.9-1.5-1.7-2.5-2.5c-0.6-0.4-1.3-0.7-1.8-1l0,0c-0.7-0.3-1.5-0.4-2.1-0.5l-0.2,0c-0.5-0.1-1.1-0.1-1.7,0
				c-0.2-0.4-0.4-0.8-0.6-1.2c-0.2-0.5-0.3-1.1-0.3-1.6c0-0.6,0-1.2,0.1-1.7c0.2-0.7,0.4-1.5,0.7-2.2c0.5-0.9,1.1-1.8,1.8-2.7
				c0.9-1,2-2,3.2-2.8c1.2-0.8,2.5-1.5,3.9-2c1-0.3,2.1-0.6,3-0.7c0.9,0,1.9,0,2.8,0.2c1.7,0.4,3.4,1,5.4,1.9c2.6,1.3,5.2,3,7.7,4.6
				l0.8,0.5c0.7,2.4,1.7,4.9,2.9,7.6c1.1,2.5,2.5,5.2,4.2,8c3.2,5.5,6.9,10.7,10.1,15c0.8,1.1,1.6,2.1,2.3,3.2
				c1,1.4,2.1,2.8,3.1,4.2c0.8,1.2,1.7,2.3,2.5,3.5c1.1,1.6,2.3,3.1,3.4,4.7c2.3,3.2,4.9,6.6,7.7,10.1
				C547.5-176.8,543.8-176.8,540.1-176.9z M558.9-184.8c-3.8-4.9-7.5-9.9-11-14.8c-2-2.7-4-5.5-6-8.3c-2.1-2.8-3.7-5-5.1-7.2
				c-5-7.4-8.2-13.3-10.3-19c-1.1-3.2-1.8-6.1-2-8.9c-0.1-1.8,0-3.4,0.2-4.9c0.3-1.3,0.7-2.7,1.3-4c0.7-1.3,1.5-2.5,2.4-3.7
				c0.9-1,1.9-1.9,3-2.7c1-0.6,2.1-1.2,3.1-1.6c1-0.3,2-0.5,3.1-0.7c1,0,2,0,3,0.2c1,0.2,1.9,0.5,2.7,0.9c0.8,0.5,1.7,1,2.5,1.7
				c1.3,1.2,2.5,2.6,3.8,4.4c1.1,1.6,2.1,3.4,3.1,5c0.5,0.8,0.9,1.6,1.4,2.4c-0.9,0.5-1.3,1-1.9,1.8c-1,1.2-1.2,2.6-1.3,3.5
				c-0.1,0.3-0.1,0.7-0.1,0.9c0,0.7,0.1,1.3,0.2,1.8c0.2,0.9,0.5,1.7,0.7,2.4l0,0.1c0.6,1.6,1.6,2.9,2.3,3.9c0.4,0.5,0.8,1,1.3,1.4
				c0.5,0.5,1.3,1.2,2.1,1.7c0.9,0.6,1.7,0.9,2.5,1.2c0.8,0.2,1.6,0.3,2.4,0.3c0.5,0,1,0,1.5-0.1c1.5-0.2,2.7-1,3.5-1.7
				c0.5-0.4,0.8-0.8,1.1-1.2c0.1-0.1,0.1-0.2,0.2-0.2c0.2-0.3,0.5-0.6,0.7-1c0.6-1.1,1-2.1,1.3-3.2c0.4-1.5,0.6-2.8,0.7-4
				c0-0.7,0-1.4-0.1-2l0-0.3c0-0.5-0.1-0.9-0.3-1.3l0-0.1c-0.2-0.5-0.4-1.2-0.8-1.8c-0.2-0.3-0.5-0.8-0.8-1.2
				c-0.3-0.4-0.7-0.7-0.9-0.9c-0.1-0.1-0.1-0.1-0.2-0.2c-0.3-0.2-0.6-0.4-0.9-0.6c0.6-2.2,1.3-4.4,2.3-6.6c1-2.1,2.2-3.9,3.6-5.5
				c0.9-1,1.9-2,3-2.7c0.8-0.5,1.6-0.9,2.4-1.2c0.7-0.2,1.4-0.4,2.1-0.5c0.7,0,1.5,0,2.3,0.1c1,0.2,2,0.6,3,1
				c1.3,0.7,2.4,1.4,3.5,2.3c0.8,0.7,1.5,1.5,2.1,2.3c0.5,0.8,1,1.8,1.4,2.7c0.4,1.2,0.7,2.6,0.8,4c0.1,2.2,0,4.5-0.5,7
				c-0.9,4.5-2.7,9.4-5.3,14.8c-1.7,3.4-3.6,6.8-5.8,10.4c-2.2,3.6-4.7,7.1-7.1,10.4c-0.8,1.1-1.5,2.1-2.3,3.2
				C567.9-198.2,563.1-191.7,558.9-184.8z M615.3-185.4c-1.7,0.5-3.5,1.1-5.3,1.6c-1.9,0.6-3.8,1.2-5.7,1.8
				c-1.1,0.4-2.3,0.8-3.4,1.1c-4.8,1.6-9.9,3.1-15.1,4.1h0c-1.9,0-3.9,0-5.8,0l-1.6,0c-3.8,0-7.7,0-11.5,0
				c4.6-7.5,9.8-14.8,14.8-21.8c1.3-1.8,2.6-3.7,4-5.5c2.6-3.6,4.7-6.7,6.5-9.7c2.4-3.9,4.6-8,6.5-12.1c0.9-1.9,1.7-3.7,2.4-5.5
				l0.3-0.1l0.2-0.1c0.8-0.4,1.4-1,2-1.7c0.7-0.8,1.5-1.5,2.3-2.1c0.9-0.6,1.8-1.1,2.8-1.4c1.2-0.4,2.4-0.6,3.6-0.8
				c1.5-0.1,3,0,4.5,0.3c1.7,0.4,3.3,0.9,4.9,1.6c1.4,0.7,2.8,1.6,4,2.6c1,0.9,1.8,1.8,2.5,2.8c0.5,0.8,1,1.7,1.3,2.6
				c0.3,0.8,0.4,1.6,0.5,2.4c0,0.8,0,1.6-0.1,2.5c-0.2,0.8-0.4,1.5-0.7,2.3c0,0-0.1,0-0.1-0.1l-0.2-0.1c-0.8-0.4-1.6-0.5-2.3-0.6
				l-0.2,0c-0.8-0.1-1.8-0.1-2.6,0l-0.2,0c-0.8,0.1-1.5,0.4-2.2,0.6l-0.3,0.1c-0.9,0.3-1.6,0.8-2.2,1.3l-0.1,0.1
				c-0.8,0.6-1.3,1.3-1.8,1.9c-0.5,0.7-0.9,1.5-1.3,2.5c-0.3,0.8-0.5,1.8-0.5,2.8c0,0.5,0,1,0.1,1.5c0,0.1,0,0.2,0,0.4
				c0,0.3,0.1,0.7,0.2,1.1c0.5,1.8,1.4,3.4,2.7,4.6c0.6,0.5,1.2,1.1,2,1.5c0.9,0.5,1.6,0.8,2.4,1.1c1,0.3,2.1,0.5,3.2,0.5
				c0.7,0,1.3-0.1,2-0.2c0.8-0.1,1.6-0.4,2.3-0.7c0.9-0.4,1.7-1,2.2-1.4c0.6-0.5,1.2-1.2,1.8-2c0.5-0.8,1-1.8,1.2-2.7
				c0.2-0.8,0.3-1.5,0.4-2.2c0-0.1,0-0.2,0-0.3c0.5-0.2,1-0.4,1.4-0.7c0,0,0,0,0,0c0.2-0.2,0.4-0.3,0.6-0.5c0.7-0.7,1.5-1.4,2.3-2
				c0.9-0.6,1.9-1.1,2.9-1.5c1-0.3,2.1-0.6,3.2-0.7c1,0,1.9,0,2.9,0.2c0.7,0.2,1.5,0.4,2.1,0.7c0.5,0.3,0.9,0.6,1.4,0.9
				c0.3,0.3,0.6,0.6,0.8,0.9c0.2,0.3,0.4,0.7,0.5,1c0.1,0.4,0.2,0.9,0.3,1.4c0,0.7,0,1.4-0.1,2.2c-0.3,1.2-0.7,2.4-1.2,3.6
				c-0.7,1.3-1.5,2.5-2.5,3.7c-1.5,1.7-3.3,3.2-5.4,4.7c-4.2,2.8-9.2,5.2-16.1,7.7c-4.2,1.5-8.4,2.8-12.6,4L615.3-185.4z
				 M662.8-178.4l-0.6,0l-0.1,0c-1.3,0-2.5,0.1-3.8,0.1h-0.1c-4.6,0.2-9.2,0.3-13.7,0.5l-1.6,0.1c-1.4,0-2.8,0.1-4.2,0.1l-0.5,0
				c-3.9,0.1-7.8,0.2-11.7,0.3c2.6-0.9,5-1.7,7.2-2.5c5.2-1.9,9.4-3.8,13.1-6c4.1-2.4,7.8-5.3,11.3-8.4c1.7-1.5,3.4-3.4,5.3-4.7
				c1.5-1.1,2.8-0.7,4.5,0.1c1.4,0.8,2.9,1.8,4.3,2.9c1.3,1.2,2.4,2.4,3.3,3.6c1.2,1.8,2.2,4,3.2,6.5c0.7,2.1,1.3,4.4,1.9,6.6
				C674.6-178.9,668.6-178.7,662.8-178.4z"/>
		</g>
	</g>
	<polygon class="st5" points="559.7,-292.1 561.4,-284.6 567.9,-288.7 563.8,-282.2 571.3,-280.5 563.8,-278.8 567.9,-272.3 
		561.4,-276.4 559.7,-268.9 558,-276.4 551.5,-272.3 555.6,-278.8 548.1,-280.5 555.6,-282.2 551.5,-288.7 558,-284.6 	"/>
</g>
<path class="st6" d="M333.9,205.4c-0.3-3.2-0.9-6.4-2-9.5c-0.5-1.5-1.1-3-1.8-4.4c-0.5-1-1-2-1.7-2.9c-2.5-3.6-6.1-6.4-9.9-8.5
	c-2.1-1.2-4.4-2.1-6.7-3c-2.1-0.8-4.3-1.4-6.4-1.9c1.6,0.5,3.2,1,4.7,1.7c1.1,0.4,2.1,0.9,3.1,1.4c0.3,0.1,0.5,0.3,0.8,0.4
	c0.5,0.3,1.1,0.6,1.6,0.8h0c0.3,0.1,0.5,0.3,0.8,0.4c0,0,0,0,0,0c-0.2-0.1-0.4-0.1-0.6-0.2c-0.4-0.1-0.8-0.3-1.2-0.4
	c-0.2-0.1-0.4-0.1-0.6-0.2c-0.8-0.2-1.5-0.4-2.3-0.6c-0.4-0.1-0.9-0.2-1.3-0.3c-1-0.2-2.1-0.4-3.1-0.6c0,0,0,0-0.1,0l-0.1,0
	c-0.6-0.1-1.3-0.2-1.9-0.2c-2.9-0.3-5.7-0.3-8.6-0.3c-0.6,0-1.2,0-1.8,0c0,0,0,0,0,0c-1.2,0-2.5,0.1-3.7,0.1
	c-1.7,0.1-3.4,0.3-5.1,0.5c-1.7,0.2-3.5,0.5-5.2,0.8c-2.4,0.5-4.8,1.1-7.2,1.6c-0.2,0.1-0.5,0.1-0.7,0.2c-1.6,0.4-3.2,0.8-4.8,1.2
	c-0.2,0.1-0.5,0.1-0.7,0.2c-0.3,0.1-0.7,0.2-1,0.3c-0.2,0-0.3,0.1-0.5,0.1c-2.3,0.6-4.5,1.2-6.8,1.8c-1.4,0.4-2.7,0.7-4.1,1
	c-0.3-0.1-0.6-0.1-0.9-0.1c-0.1,0-0.2,0-0.3,0c-0.2,0-0.4,0-0.6,0.1c-1.1,0.2-2.2,0.5-3.3,0.7c-2.2,0.5-4.5,0.9-6.7,1.4
	c-3.8,0.8-7.7,1.3-11.6,2c0-0.2,0-0.3,0-0.5c-0.1,0-0.2,0-0.2,0c0.1,0,0.1,0,0.2-0.1c0,0,0,0,0.1,0c0.5-0.2,1-0.3,1.5-0.5
	c1.5-0.5,2.9-1.1,4.3-1.7c3.6-1.5,7.2-3,10.9-4.4c1.9-0.7,3.7-1.4,5.6-2.1c1.8-0.6,3.7-1.2,5.6-1.8c2.4-0.7,4.8-1.3,7.3-1.9
	c0.6-0.1,1.1-0.2,1.7-0.4c0.6-0.1,1.1-0.2,1.7-0.3c0.7-0.2,1.5-0.3,2.2-0.4c-0.9-2.3-1.9-4.6-2.8-6.9c-1.1-2.6-2.1-5.3-3.2-7.9
	c-2.1-5.3-4.2-10.7-6.1-16.1c-1.9-5.4-3.7-10.8-5.2-16.3c-1.6-5.6-2.9-11.2-3.7-16.9c-1-8-1.2-16.1-1.6-24.1
	c0.6-3.1,0.5-6.3-0.2-9.4c-0.1-0.6-0.3-1.2-0.5-1.8c0,0,0,0,0,0c-0.2-0.3-0.3-0.7-0.5-1c0,0,0,0,0,0c-0.4-0.9-0.9-1.8-1.4-2.7
	c-0.8-1.5-1.8-2.9-2.9-4.2c-1.3-1.5-2.8-2.8-4.5-3.7c-0.4-0.2-0.8-0.4-1.3-0.6c-1.1-0.6-2.1-1.1-3.3-1.6c0,0-0.1,0-0.1,0
	c0,0,0,0,0,0c0,0,0,0,0,0c-1.5-0.6-3-1.2-4.4-1.7c0,0,0,0-0.1,0c-0.2-0.1-0.4-0.1-0.5-0.2c-3.2-1.1-6.4-2-9.6-2.7
	c-7.8-1.8-15.8-2.6-23.8-2.7c-0.8-0.1-1.7-0.1-2.5-0.1c-1.1,0-2.1-0.1-3.2-0.1c-2.8,0-5.7,0.1-8.5,0.4c-0.1,0-0.2,0-0.3,0
	c-0.1,0-0.3-0.1-0.4-0.1h-0.1c-6.2,0.3-12.5,1-18.6,2.2c-2,0.4-4,0.9-6,1.3c-1.8,0.4-3.5,0.8-5.3,1.3c-7.8,1.9-15.6,4-23.3,6.4
	c-8.3,2.6-16.5,5.6-24.5,9.1c-7.8,3.4-15.3,7.4-22.3,12.3c-2.9,2-5.6,4.1-8.3,6.5c0,0,0,0,0,0c-3.4,2-6.5,4.4-9.3,7.1
	c-1.6,1.5-2.9,3.2-4.2,4.9c-1.3,1.7-2.2,3.6-3,5.7c0,0,0,0.1,0,0.1c-0.3,0.8-0.6,1.6-0.8,2.4c-0.2,0.9-0.3,1.8-0.2,2.6
	c-0.2,1.2-0.4,2.4-0.4,3.6c-0.1,1.8,0,3.7,0.3,5.4c0.1,1,0.3,2.1,0.5,3.1c0,0,0,0.1,0,0.1c0.3,1.5,0.6,3,0.9,4.5
	c0.5,2.1,1.2,4.2,1.9,6.2c0.8,2.4,1.8,4.8,2.8,7.2c0,0,0,0.1,0,0.1c1.4,3,2.8,6,4.3,9c1.4,2.9,2.8,5.9,4.1,8.9c0,0,0,0.1,0,0.1
	c0.8,1.7,1.6,3.4,2.4,5.2c1.1,2.6,2,5.1,3,7.7c0,0.1,0.1,0.1,0.1,0.2c0,0,0,0.1,0,0.1c3.6,10,6.3,20.2,8.8,30.5c0,0,0,0,0,0.1
	c0.2,0.9,0.4,1.8,0.6,2.7c1.1,5,2,9.9,2.7,15c0.3,2.2,0.5,4.4,0.7,6.6c0.6-0.2,1.3-0.3,1.9-0.5c0.6-0.2,1.3-0.3,1.9-0.4
	c2.2-0.5,4.5-0.9,6.8-1.3c1.2-0.2,2.4-0.4,3.7-0.6c0.1,0,0.3,0,0.4-0.1h0c0,0,0,0,0,0c-0.1,0-0.2,0.1-0.3,0.1
	c-1.6,0.7-3.1,1.4-4.7,2.1c-0.3,0.1-0.5,0.2-0.8,0.3c-1.6,0.7-3.2,1.4-4.8,2.1c-0.4,0.2-0.7,0.3-1.1,0.5c0,0,0,0,0,0
	c-0.1,0-0.2,0.1-0.3,0.1c-0.4,0.2-0.8,0.3-1.2,0.5c-2.8,1.2-5.7,2.4-8.5,3.6c-0.1,0-0.1,0.1-0.2,0.1c0,0-0.1,0-0.1,0c0,0,0,0,0,0
	c0,0,0,0-0.1,0c-1.7,0.7-3.5,1.6-5.2,2.4c-5.5,2.5-10.9,5.3-15.7,9c-0.4,0.3-0.8,0.6-1.1,0.9c-0.2,0.2-0.4,0.3-0.6,0.5
	c-0.2,0.2-0.4,0.3-0.5,0.5c0,0,0,0,0,0c1.7-2.5,3.6-4.7,5.8-6.7c-1.7,1.3-3.4,2.8-5,4.2c-4.3,4-8.6,8.8-9.5,14.9
	c-0.2,1.4-0.3,2.7-0.1,4.1c0.1,1.5,0.5,2.9,0.9,4.3c1,2.8,2.6,5.2,4.4,7.5c2.7,3.3,6.1,5.9,9.6,8.3c3.8,2.5,7.8,4.5,12,6.2
	c4.7,1.9,9.7,2.9,14.7,3.4c0.8,0.1,1.7,0.1,2.6,0.2c0,0,1.2-4.6,1.3-4.9c0.8-2.7,1.5-5.4,2.4-8.1c1.8-5.3,4.2-10.3,7.2-15
	c2.7-4.3,6-7.9,9.4-11.6c3.3-3.5,6.7-7.2,10.9-9.7c28.2-17.2,62.4-25.3,94.8-30.4c18-2.8,37.1-2.7,53.5,5.1
	c13.6,6.4,24.8,16.8,35.4,27.3c0.7,0.7,1.3,1.4,1.9,2.1c1,1.3,2,2.8,3.4,3.6c0.9,0.5,1.8,0.4,2.4-0.4c1.2-1.6,2.3-3.3,3.5-5
	c1.9-2.9,4-5.8,5.7-8.8c1.6-2.8,2.9-5.7,4.1-8.7c1.2-3,2.2-6.1,2.9-9.2c0.8-3.3,1.3-6.6,1.7-9.9
	C334.2,211.8,334.2,208.6,333.9,205.4z M240.3,176.9c-0.6-0.9-1.3-1.8-1.9-2.7c-1-1.6-2-3.3-2.7-5c-0.8-1.9-1.6-3.9-2-6
	c-0.7-3.9-0.9-7.9-0.8-11.9c0,0,0,0,0,0c0,0,0,0,0,0c0.6,0.9,1.1,1.9,1.6,2.9c0.9,1.7,1.7,3.4,2.5,5.1c0.8,1.9,1.6,3.9,2,6
	c0.4,2,0.7,4.1,0.9,6.1C240.1,173.2,240.2,175.1,240.3,176.9C240.3,176.9,240.3,176.9,240.3,176.9z M244.3,69.1
	C244.3,69.1,244.3,69.1,244.3,69.1c-0.1,0-0.1-0.1-0.1-0.1C244.3,69,244.3,69.1,244.3,69.1z M236.6,84.2c0-1.8,0.1-3.5,0.1-5.3
	c0,0,0,0,0,0c0,0,0,0,0,0c0.4,1.5,0.8,3,1.2,4.5c0.7,2.6,1.3,5.2,2,7.8c0.5,2.1,1,4.2,1.5,6.3c0.4,1.6,0.7,3.1,1,4.7
	c0.1,0.6,0.2,1.1,0.3,1.7c1.6,7.9,3.6,15.7,5.7,23.5c0,0.1,0.1,0.2,0.1,0.3c0.1,0.2,0.1,0.4,0.2,0.6c0.8,2.8,1.6,5.5,2.4,8.3
	c0.1,0.4,0.3,0.9,0.4,1.3v0c0.2,0.6,0.3,1.1,0.5,1.7c0.3,1,0.6,1.9,0.9,2.9v0c0.2,0.7,0.5,1.5,0.7,2.2c0.9,2.7,1.6,5.4,2.1,8.1
	c0.6,2.8,1,5.7,1.4,8.6c0.3,2.6,0.5,5.2,0.8,7.8c0,0,0,0,0,0c-1.2-1.8-2.4-3.6-3.5-5.4c-1.1-1.8-2.1-3.7-3-5.6c-1-2.1-2-4.3-2.8-6.5
	c-0.8-2.1-1.4-4.1-1.9-6.3c-0.6-2.3-1.2-4.6-1.7-6.9c-0.6-2.3-1.1-4.7-1.7-7.1c-1.4-6.4-2.7-12.7-3.9-19.2c-0.3-1.7-0.6-3.4-0.9-5.1
	c-0.7-4-1.3-7.9-1.6-11.9C236.6,91.6,236.5,87.9,236.6,84.2z M230.5,107.4C230.5,107.4,230.5,107.4,230.5,107.4L230.5,107.4
	c0.7,1.8,1.4,3.7,2.1,5.5c1.8,4.9,3.4,9.8,4.8,14.8c1.1,4.1,2.2,8.3,3.4,12.4c1.2,4.1,2.4,8.2,3.8,12.3c0.7,2,1.3,4.1,1.9,6.1
	c0.6,2,1.1,4.1,1.7,6.2c1,4.1,1.9,8.3,2.8,12.4c0,0,0,0,0,0c-2.1-2.9-4-6-5.6-9.2c-1.7-3.3-3.1-6.8-4.2-10.3c-0.7-2-1.2-4.1-1.7-6.2
	c-0.5-2.1-1.1-4.1-1.6-6.2c-1-4.2-1.9-8.4-2.9-12.5c-0.5-2.1-1-4.2-1.4-6.3c-0.4-2.1-0.8-4.2-1.1-6.3c-0.4-2.1-0.7-4.2-1-6.3
	C231.2,111.7,230.9,109.6,230.5,107.4z M261.5,189.5L261.5,189.5C261.6,189.5,261.6,189.5,261.5,189.5
	C261.6,189.5,261.6,189.5,261.5,189.5z M307.7,250.5h0.2c0,0.1,0,0.1,0,0.2C307.8,250.6,307.7,250.6,307.7,250.5z"/>
<path class="st7" d="M315.8,179.5L315.8,179.5c-0.6-0.3-1.1-0.6-1.6-0.8c-0.3-0.1-0.5-0.3-0.8-0.4c-1-0.5-2.1-1-3.1-1.4
	c-1.5-0.6-3.1-1.2-4.7-1.7c-0.6-0.2-1.2-0.4-1.9-0.5c-2.3-0.6-4.8-1-7.2-1.2c-1.5-0.2-3-0.2-4.5-0.2c-0.9,0-1.7,0-2.6,0
	c-2.4,0.1-4.8,0.2-7.2,0.5c-2.6,0.3-5.2,0.6-7.8,1c-0.6,0.1-1.2,0.2-1.8,0.3h0c-0.7,0.1-1.5,0.3-2.2,0.4c-0.6,0.1-1.1,0.2-1.7,0.3
	c-0.6,0.1-1.1,0.2-1.7,0.4c-2.4,0.6-4.9,1.2-7.3,1.9c-1.9,0.5-3.7,1.1-5.6,1.8c-1.9,0.6-3.7,1.4-5.6,2.1c-3.7,1.4-7.3,2.9-10.9,4.4
	c-1.4,0.6-2.9,1.2-4.3,1.7c-0.5,0.2-1,0.4-1.5,0.5c0,0,0,0-0.1,0c-0.1,0-0.1,0-0.2,0.1c0.1,0,0.1,0,0.2,0c0,0.2,0,0.3,0,0.5
	c3.9-0.7,7.8-1.2,11.6-2c2.2-0.4,4.5-0.9,6.7-1.4c1.1-0.2,2.2-0.4,3.3-0.7c4.2-0.9,8.4-1.8,12.6-2.8c0.5-0.1,1-0.2,1.5-0.4
	c0.2,0,0.4-0.1,0.6-0.2c1.6-0.4,3.2-0.8,4.8-1.2c0.2-0.1,0.5-0.1,0.7-0.2c2.4-0.6,4.8-1.2,7.2-1.6c1.7-0.3,3.5-0.6,5.2-0.8
	c1.7-0.2,3.4-0.4,5.1-0.5c1.2-0.1,2.5-0.1,3.7-0.1c0,0,0,0,0,0c0.6,0,1.2,0,1.8,0c2.9-0.1,5.8,0,8.6,0.3c0.7,0.1,1.3,0.1,1.9,0.2
	l0.1,0c0,0,0,0,0.1,0c1,0.2,2.1,0.3,3.1,0.6c0.4,0.1,0.9,0.2,1.3,0.3c0.8,0.2,1.5,0.4,2.3,0.6c0.2,0.1,0.4,0.1,0.6,0.2
	c0.4,0.1,0.8,0.3,1.2,0.4c0.2,0.1,0.4,0.1,0.5,0.2c0,0,0.1,0,0.1,0C316.3,179.7,316.1,179.6,315.8,179.5z"/>
<path class="st7" d="M103.1,229.5c-0.1,0-0.3,0-0.4,0.1c-1.2,0.2-2.4,0.4-3.7,0.6c-2.3,0.4-4.5,0.8-6.8,1.3
	c-0.6,0.1-1.3,0.3-1.9,0.4c-0.7,0.2-1.3,0.3-1.9,0.5c-1,0.3-2,0.6-3,0.9c-3.1,1-6.1,2.3-9.1,3.7c-2.8,1.3-5.5,2.9-8,4.7
	c-1.6,1.2-3.1,2.4-4.6,3.8c0,0,0,0,0,0c-2.2,2-4.2,4.3-5.8,6.7c0,0,0,0,0,0c0.2-0.2,0.4-0.3,0.5-0.5c0.2-0.2,0.4-0.3,0.6-0.5
	c0.4-0.3,0.8-0.6,1.1-0.9c4.8-3.7,10.2-6.4,15.7-9c1.7-0.8,3.4-1.6,5.2-2.4c0,0,0,0,0.1,0c0,0,0,0,0,0c0,0,0.1,0,0.1,0
	c0.1,0,0.1-0.1,0.2-0.1c2.8-1.2,5.7-2.4,8.5-3.6c0.4-0.2,0.8-0.3,1.2-0.5c0.1,0,0.2-0.1,0.3-0.1c0,0,0,0,0,0
	c0.4-0.2,0.7-0.3,1.1-0.5c1.6-0.7,3.2-1.4,4.8-2.1c0.3-0.1,0.5-0.2,0.8-0.3c1.6-0.7,3.1-1.4,4.7-2.1
	C103,229.6,103.1,229.6,103.1,229.5C103.1,229.5,103.1,229.5,103.1,229.5L103.1,229.5z"/>
<path class="st7" d="M240.3,176.9C240.3,176.9,240.3,176.9,240.3,176.9c-0.7-0.9-1.3-1.8-1.9-2.7c-1-1.6-2-3.3-2.7-5
	c-0.8-1.9-1.6-3.9-2-6c-0.7-3.9-0.9-7.9-0.8-11.9c0,0,0,0,0,0c0,0,0,0,0,0c0.6,0.9,1.1,1.9,1.6,2.9c0.9,1.7,1.7,3.4,2.5,5.1
	c0.8,1.9,1.6,3.9,2,6c0.4,2,0.7,4.1,0.9,6.1C240.1,173.2,240.2,175.1,240.3,176.9z"/>
<path class="st7" d="M251,177.1C251,177.1,251,177.1,251,177.1c-2.1-2.9-4-6-5.6-9.2c-1.7-3.3-3.1-6.8-4.2-10.3
	c-0.7-2-1.2-4.1-1.7-6.2c-0.5-2.1-1.1-4.1-1.6-6.2c-1-4.2-1.9-8.4-2.9-12.5c-0.5-2.1-1-4.2-1.4-6.3c-0.4-2.1-0.8-4.2-1.1-6.3
	c-0.4-2.1-0.7-4.2-1-6.3c-0.3-2.1-0.7-4.3-1-6.4c0,0,0,0,0,0l0,0c0.7,1.8,1.4,3.7,2.1,5.5c1.8,4.9,3.4,9.8,4.8,14.8
	c1.1,4.1,2.2,8.3,3.4,12.4c1.2,4.1,2.4,8.2,3.8,12.3c0.7,2,1.3,4.1,1.9,6.1c0.6,2,1.1,4.1,1.7,6.2C249.2,168.9,250.1,173,251,177.1z
	"/>
<path class="st7" d="M257.9,169.2C257.9,169.2,257.9,169.2,257.9,169.2c-1.2-1.8-2.4-3.6-3.5-5.4c-1.1-1.8-2.1-3.7-3-5.6
	c-1-2.1-2-4.3-2.8-6.5c-0.8-2.1-1.4-4.1-1.9-6.3c-0.6-2.3-1.2-4.6-1.7-6.9c-0.6-2.3-1.1-4.7-1.7-7.1c-1.4-6.4-2.7-12.7-3.9-19.2
	c-0.3-1.7-0.6-3.4-0.9-5.1c-0.7-4-1.3-7.9-1.6-11.9c-0.3-3.7-0.4-7.4-0.4-11.1c0-1.8,0.1-3.5,0.1-5.3c0,0,0,0,0,0c0,0,0,0,0,0
	c0.4,1.5,0.8,3,1.2,4.5c0.7,2.6,1.3,5.2,2,7.8c0.5,2.1,1,4.2,1.5,6.3c0.4,1.6,0.7,3.1,1,4.7c0.1,0.6,0.2,1.1,0.3,1.7
	c1.6,7.9,3.6,15.7,5.7,23.5c0,0.1,0.1,0.2,0.1,0.3c0.1,0.2,0.1,0.4,0.2,0.6c0.8,2.8,1.6,5.5,2.4,8.3c0.1,0.4,0.3,0.9,0.4,1.3v0
	c0.2,0.6,0.3,1.1,0.5,1.7c0.3,1,0.6,1.9,0.9,2.9v0c0.2,0.7,0.5,1.5,0.7,2.2c0.9,2.7,1.6,5.4,2.1,8.1c0.6,2.8,1,5.7,1.4,8.6
	C257.5,164,257.7,166.6,257.9,169.2z"/>
</svg>
