<?xml version="1.0" encoding="utf-8"?>
<svg viewBox="0 0 3000 3000" xmlns="http://www.w3.org/2000/svg">
  <g id="highlight">
    <defs>
      <clipPath id="highlightClipPath">
        <path fill="none" d="M1211.5 866.4a240.2 240.2 0 0 1 129.5-37.8h158.2A240.5 240.5 0 0 1 1607 854c24.5-19.2 89.4-68.2 129.3-66.3a15 15 0 0 1 12.1 22.9L1684 914.8a240.5 240.5 0 0 1 47.2 89.2l295.1 960.1a248.1 248.1 0 0 1-6.4 155.9l.8.3c47.5 13.8 136.8 46.1 179.8 75.5 26.1 17.8 10.1 55.9-23.2 55.3l-261.6-5a246.8 246.8 0 0 1-65.3 28c2.8 13.3 12.3 21 28.1 21.9 18.2 1 23.7 18.6 24.5 25.5 2.3 21.2-5.8 34.7-27.9 36.9l-91.8 3a53.5 53.5 0 0 1-22.3-4 71.6 71.6 0 0 1-43.1-54.3l-3.5-20.7h-533.5l-5 26.6a71.4 71.4 0 0 1-8.8 23.9c-13.4 22.8-38.9 35.7-65.3 34.1l-84.3-5c-21.4-1.6-31.9-18.9-27.2-40.4 2.5-11.1 15.1-20.3 30.6-21.1 23.3-1.2 30.3-20.2 29.9-43.6v-3.3q-7.1-3.7-13.9-7.9L770 2251c-33.3.6-49.7-38.2-23.2-55.3 54-34.9 146.4-69.2 184.5-78.3l.6-.2a248.9 248.9 0 0 1-12.6-117.6l182.9-961.4a240.3 240.3 0 0 1 33-93.8l-60.5-108.1a15 15 0 0 1 .9-16c24.9-34.9 89.3 8.5 130.8 42.6z"/>
      </clipPath>
      <linearGradient id="highlightLinearGradient" x1="1844.99" x2="1844.99" y1="2256.39" y2="835.98" gradientUnits="userSpaceOnUse">
        <stop offset="0" stop-color="#fff" stop-opacity="0"/>
        <stop offset="0.72" stop-color="#fff"/>
      </linearGradient>
    </defs>
    <g clip-path="url(#highlightClipPath)" opacity=".2" style="mix-blend-mode:overlay">
      <path fill="url(#highlightLinearGradient)" d="M1547.8 836.6s29 33.5 51 64.8 44.1 86.3 65.6 181c58.9 258.7 229.4 683.2 275.5 888s-51.2 286-51.2 286l61.1-35.5s63-74.8 72.5-107.6c20.8-71.9 139-33 117.2-147.7-31.7-166.5-305.7-970.5-305.7-970.5s-123.4-29.9-151.2-79.3c-20.7-36.8-73.2-64.7-124.1-79.9z"/>
    </g>
  </g>
  <g id="Draw_Layer-3" data-name="Draw Layer" transform="matrix(2.255144, 0, 0, 2.255144, -270.300781, -213.557495)">
    <path class="cls-1" d="M1117.28,328.49c-.1-4.63-.21-9.25-.29-13.87a7.77,7.77,0,0,0-1.58-4.59c.07-.19.14-.41.2-.63a7.74,7.74,0,0,0-5.31-9.35,202.24,202.24,0,0,0-41.3-7.61c-6-.49-12.17-.73-18.87-.73-6.12,0-12.65.2-20,.63-10.9.63-21.94,1.67-32.62,2.69-14.77,1.4-30.06,2.85-45.16,3.22-2.36.06-4.74.08-7.08.08-5.2,0-10.44-.14-15.55-.43h-.35a6.53,6.53,0,0,0-1.85.28c-.87-.44-1.75-.9-2.62-1.36-1.31-.66-2.6-1.33-3.92-2-2.79-1.36-5.78-2.71-9.15-4.16-6.51-2.78-12.57-5.09-18.53-7.06a222.48,222.48,0,0,0-34.38-8.28c-22.55-3.63-45-4.1-62-4.1q-4.91,0-9.81,0c-4.92.05-9.92.14-14.75.23-6.57.12-13.36.24-20,.27H750.9c-6.24,0-12.59-.12-18.73-.23l-4.79-.09c-5.23-.07-11.43-.17-17.8-.17-14.74,0-26.71.5-37.67,1.56a221.59,221.59,0,0,0-26.07,4,139.63,139.63,0,0,0-24.52,7.92,87.33,87.33,0,0,0-21.16,12.74,75.62,75.62,0,0,0-16.27,18.11c-20.88-3.48-40.18-5.85-59-7.28-12.13-.91-23.32-1.35-34.21-1.35s-21.42.47-31.38,1.39c-29.84,2.76-52.48,9-71.21,19.68a7.47,7.47,0,0,0-3.53,4.77,4.73,4.73,0,0,0-1.39,2.41,53.51,53.51,0,0,0-.91,10.1,74.23,74.23,0,0,0,1,10.51,152.25,152.25,0,0,0,4.15,17.48l.14.51c.91,3.24,1.65,6,2.28,8.77.48,2.08.86,4.21,1.23,6.28.2,1.09.39,2.18.61,3.27,1.12,5.83,2.38,11.68,3.72,17.4a331.24,331.24,0,0,0,22,64.13c11.41,24.39,27,47.84,47.71,71.71a177.37,177.37,0,0,0-6.75,18.34,160.72,160.72,0,0,0-4.43,19,207.59,207.59,0,0,0-2.75,38.54c.17,12.86,1.33,25.86,2.55,38q.63,6.2,1.28,12.39c.92,8.57,1.84,17.44,2.58,26.17.37,4.23.63,8.52.89,12.68.13,1.92.25,3.85.38,5.78.34,5,1,10,1.47,13.77a228.7,228.7,0,0,0,5.68,28.4,194.24,194.24,0,0,0,10.09,28.74,125.15,125.15,0,0,0,14.6,25c1,1.34,2.07,2.64,3.14,3.89-6.49,25-10.4,50.65-13.44,76.3-3.16,26.64-5.23,53.4-7.84,80.09-1.18,12.07-2.62,24.11-3.93,36.16-1.39,12.78-2.57,25.59-3.67,38.4s-2.11,25.62-3.15,38.44q-.77,9.4-1.55,18.8c-.39,4.69-.73,9.38-1.32,14-2,14.49-5.1,28.82-6,43.44a89.64,89.64,0,0,0,1.1,22.07,20.4,20.4,0,0,0-6.17,3.7,10.4,10.4,0,0,0-1.45,1.52,21.93,21.93,0,0,0-2.11,3,18.46,18.46,0,0,0-2.09,5.88,24.86,24.86,0,0,0-.37,6.15,28.3,28.3,0,0,0,8,17.84,23.92,23.92,0,0,0,5,3.85,20.37,20.37,0,0,0,6.34,2.43,22.2,22.2,0,0,0,14.75-2,17,17,0,0,0,7.92-10.12,20.17,20.17,0,0,0,.79-5.73,25.44,25.44,0,0,0-.84-6.32,30.1,30.1,0,0,0-2.22-5.69,19.79,19.79,0,0,0-1.59-2.65c8.69-54.5,12-109.65,17.33-164.55,1.3-13.31,2.82-26.6,4-39.93,1.18-13,2.18-26,3.17-39,2-26.43,4-52.87,7.16-79.19.37-3.12.77-6.22,1.18-9.33,1.59-11.65,3.46-23.26,5.77-34.78a6.63,6.63,0,0,0,.58-.81.41.41,0,0,0,0-.09.6.6,0,0,0,.06-.11c1.65-3.15,21.52-41.54,16.4-57.53,0,0-28-27.33-19.33-74s50-55.33,50-55.33,41.33-58,176.67-58,192,44,192,44,64.66,22,64.66,64.67-22,70-22,70l24.91,43.37c4.95,65,5.18,132.36,15.07,196.72q3.84,50.16,7.67,100.33c.57,7.47-.45,44.09,5.67,62.86a21.64,21.64,0,0,0-3.14,5.78c-3.61,10.52,6.11,21.89,14.75,26.59,6.09,3.31,13.92,4,19.88.43a18.74,18.74,0,0,0,8.32-11.85,20.12,20.12,0,0,0,.39-2.17,27.64,27.64,0,0,0-3.48-16.44,26.65,26.65,0,0,0-10.81-11.17,18.28,18.28,0,0,0-1.8-.81c.32-1.9.54-3.79.69-5.7,1-12.85-1.51-26.08-3.77-38.92,0-25.49-8.28-53.22-11-78.75-2.95-27.43-5.06-54.93-6.6-82.47-2.59-45.89-3.48-91.82-4.16-137.77a171.46,171.46,0,0,0,20.06-28.27,225,225,0,0,0,15.9-35.07c6.89-19,11.6-40.64,14.84-68,1.39-11.71,2.26-23.6,2.59-35.32a224.23,224.23,0,0,0-1.08-33.48c-1.61-13.6-4.93-27.07-8.27-39.6-.5-1.89-1-3.77-1.52-5.66-2.86-10.67-5.83-21.69-7.9-32.74-.46-2.44-.87-5-1.25-7.64a126.46,126.46,0,0,1-1-19.24,2.4,2.4,0,0,0,.52-.33,128.88,128.88,0,0,0,12.9-11,123.19,123.19,0,0,0,25.55-37.51,164.76,164.76,0,0,0,9.61-29.14,240.44,240.44,0,0,0,4.83-31C1118.32,374.73,1117.79,351.22,1117.28,328.49Zm-650.92,857h-.22a7.63,7.63,0,0,1-5.37-2.22,7.31,7.31,0,0,1-.51-.57h0l.72,0a18.24,18.24,0,0,1,5.57,1.34,8.15,8.15,0,0,1,1.45.84l.33.25A7.4,7.4,0,0,1,466.36,1185.53Z" style="fill: rgb(217, 0, 0);"/>
    <path class="cls-2" d="M601.54,514a55,55,0,0,0-2.67,42.22,58.68,58.68,0,0,0,7.25,14,65.2,65.2,0,0,0,12.7,13.28s0,0,0,0a99,99,0,0,1-5.7-11.15l.2.45a207.76,207.76,0,0,1-10-27.76,82.41,82.41,0,0,1-2.92-14.48,49.7,49.7,0,0,1,1.06-16.26h0l.06-.26h0Zm-1.08,16.69,0,.18,0-.18Z" style="fill: rgb(180, 0, 0);"/>
    <path class="cls-2" d="M638.36,511.56a46.56,46.56,0,0,0-2.48,52.08,42.66,42.66,0,0,0,12.21,12.77s0,0,0,0a36,36,0,0,1-1.93-3.77c-3.55-8-5.33-16.57-6.59-25-.66-4.43-1.34-8.86-1.79-13.31-.7-7.57-1-15.29.58-22.79h0Zm7.82,61.07.08.18-.08-.18Z" style="fill: rgb(180, 0, 0);"/>
    <path class="cls-2" d="M674.3,494.34c-5,4.46-8.31,10.16-10.92,15.72a76.35,76.35,0,0,0-6.54,23,52.8,52.8,0,0,0,2.87,24.43c2.47,6.78,6.45,13.49,13.07,18.39a45.89,45.89,0,0,0,5.28,3.29s0,0,0,0a16.42,16.42,0,0,1-2.21-3.69,42.12,42.12,0,0,1-2.53-8.61c-.71-3.46-1.18-6.94-1.59-10.42-.1-.83-.19-1.66-.27-2.49-.7-7.58-1-15.2-1.42-22.8a132.89,132.89,0,0,1,.41-22.36,60.32,60.32,0,0,1,1.28-7.29,34.42,34.42,0,0,1,2.58-7.18h0Z" style="fill: rgb(180, 0, 0);"/>
    <path class="cls-2" d="M692.81,499.94c-2.57,11.36-4.87,22.86-5.49,34.41a73.6,73.6,0,0,0,6.53,35c1.07,2.31,2.32,4.55,3.62,6.78,0,0,0,0,0,0s0-.11,0-.17h0c-.53-5.57-.61-11.17-.85-16.75q-.37-8.65-.83-17.3c-.31-5.85-.86-11.7-1.32-17.55s-.83-11.62-1.2-17.43q-.22-3.52-.44-7h0Z" style="fill: rgb(180, 0, 0);"/>
    <path class="cls-2" d="M725.92,494.4A123.31,123.31,0,0,0,720,520.49a98.07,98.07,0,0,0,.74,30.83,79.65,79.65,0,0,0,3.84,13.86,80.65,80.65,0,0,0,6,12.15l1.29,2.13s0,0,0,0c.29-4,.84-8.06,1.14-12.09.34-4.6.33-9.2.22-13.81q-.2-8-1-16c-.49-4.91-1.32-9.81-2.12-14.7-1.43-8.76-3-17.51-4-26.3-.08-.71-.16-1.42-.23-2.13h0Z" style="fill: rgb(180, 0, 0);"/>
    <path class="cls-2" d="M750.62,498.16a335.53,335.53,0,0,1-.42,35.77,173.15,173.15,0,0,0,2.13,36.49c.2,1.22.41,2.44.56,3.66h0c1.17-2.82,2.46-5.6,3.51-8.45a86.29,86.29,0,0,0,2.77-9.29,67.94,67.94,0,0,0,1.93-17.89,87.49,87.49,0,0,0-2.76-18.65,116.65,116.65,0,0,0-5.9-17.59q-.87-2-1.83-4.06h0Z" style="fill: rgb(180, 0, 0);"/>
    <path class="cls-2" d="M790.79,499.6l-.2.8v0c-2.63,10.67-6.72,21.06-9.43,31.72-3,11.68-3.22,24,2.08,35.34A54.05,54.05,0,0,0,791,578.83s0,0,0,0a37,37,0,0,1-.84-5.15l0,.3a102.47,102.47,0,0,1,.13-16c.35-5.52.94-11,1.42-16.54s.61-11.2.7-16.8a159.73,159.73,0,0,0-.51-16.75,83.24,83.24,0,0,0-1.11-8.27h0Z" style="fill: rgb(180, 0, 0);"/>
    <path class="cls-2" d="M821.86,500.65a206.28,206.28,0,0,1-4.8,25.87l.21-.86c-1.5,6.12-3.19,12.21-4.37,18.38a131.25,131.25,0,0,0-2.2,17.79,109.21,109.21,0,0,0,.37,12.8s0,0,0,0c1.61-2.72,3.27-5.42,4.73-8.19A82.19,82.19,0,0,0,819.6,558a85,85,0,0,0,4.93-18.37,89.68,89.68,0,0,0,.62-17.92,102,102,0,0,0-2.54-18.23c-.22-1-.47-1.91-.72-2.86h0Z" style="fill: rgb(180, 0, 0);"/>
    <path class="cls-2" d="M857.35,513.14c.27,11.52-2.74,22.8-3.09,34.27-.24,7.82.85,15.51,2.12,23.25h0c2.08-5.38,4.75-10.6,6.45-16.07a48.51,48.51,0,0,0,2.46-18.17,46.19,46.19,0,0,0-7.94-23.29h0Z" style="fill: rgb(180, 0, 0);"/>
    <path class="cls-2" d="M889.88,515.39a244.65,244.65,0,0,1-4.24,30.32c-1.94,10.2-3,20.49-3.93,30.78-.15,1.58-.28,3.17-.53,4.75,0,0,0,0,0,0a60.76,60.76,0,0,0,8.86-13.16A55.29,55.29,0,0,0,894.74,552a66.44,66.44,0,0,0-.21-16.55,91,91,0,0,0-2.95-14.87q-.75-2.59-1.66-5.14h0Z" style="fill: rgb(180, 0, 0);"/>
    <path class="cls-2" d="M926,524.37a139.16,139.16,0,0,0-15.72,31.93,71.59,71.59,0,0,0-2.2,35.64c.18,1,.38,1.92.58,2.88h0c2.12-4.9,4.33-9.77,6.15-14.75a153,153,0,0,0,4.67-15.74l-.05.21c1.5-6,2.43-12.14,3.37-18.25.86-5.61,1.67-11.23,2.48-16.85l.72-5.07h0Zm-6.5,40,.23-1-.23,1Z" style="fill: rgb(180, 0, 0);"/>
    <path class="cls-2" d="M944.72,534.06q-.92,5.17-2.16,10.29c-1.3,5.23-2.89,10.41-4.56,15.57-1.75,5.39-3.4,10.77-4.91,16.2q-2.86,10.21-5.37,20.48l.07-.3q-.27,1.13-.55,2.25l0-.17-.15.62,0-.14c-.17.69-.34,1.38-.53,2.06,0,0,0,0,0,0a68.69,68.69,0,0,0,11.24-13.3,62.38,62.38,0,0,0,7.36-16.26c3.09-11.07,2.65-22.87.27-34-.23-1.1-.5-2.19-.78-3.29h0Z" style="fill: rgb(180, 0, 0);"/>
    <path class="cls-2" d="M965.66,547.26q-.42,2.3-1,4.59l0-.11c-2.82,11.49-8.48,22.26-12.73,33.42a120.44,120.44,0,0,0-6.84,24.27h0c8.08-9.79,14.78-20.59,18.05-32.07a72.61,72.61,0,0,0,2.46-30.1h0Z" style="fill: rgb(180, 0, 0);"/>
    <path class="cls-2" d="M994.43,565.24c-1.29,1.47-2.72,2.88-4.1,4.29,0,0,0,0,0,0,.68-.53,1.34-1.09,2-1.63-1.08,1.5-2.1,3-3.13,4.54-1.65,2.41-3.28,4.83-4.86,7.27a168.75,168.75,0,0,0-9.28,15.59c-2.49,4.93-4.82,9.93-7.07,14.94s-4,10.14-6.32,15.13c0,0,0,0,0,0a64.67,64.67,0,0,0,13.62-12.79,78.78,78.78,0,0,0,9.25-15.72A140.26,140.26,0,0,0,990,581.4c.81-2.61,1.63-5.23,2.53-7.83s2-5.28,2.91-7.94c.11-.32-.21-.58-.54-.59a.57.57,0,0,0-.45.19Z" style="fill: rgb(180, 0, 0);"/>
    <path class="cls-2" d="M1021.21,578.92c-7.52,9.62-14.95,19.37-21.52,29.43a184,184,0,0,0-16.58,32.51l-1,2.61s0,0,0,0a93.77,93.77,0,0,0,25.81-28.62,99.35,99.35,0,0,0,7.18-16.15c2-5.57,3.75-11.2,5.34-16.85.27-1,.55-1.95.81-2.92h0Z" style="fill: rgb(180, 0, 0);"/>
    <path class="cls-2" d="M1040.22,603.41c-6.73,9.4-14.22,18.4-21.65,27.46a207.21,207.21,0,0,0-19.78,29c-1.48,2.61-2.85,5.26-4.23,7.91,0,0,0,0,0,0,10.9-6.91,20.41-15,27.8-24.41s12-20.23,15.36-30.94q1.42-4.48,2.51-9h0Z" style="fill: rgb(180, 0, 0);"/>
    <path class="cls-2" d="M1063.3,630.73c-8.9,8.52-17.73,17.18-25.44,26.41s-13.84,19.46-19.71,29.55l-.81,1.38s0,0,0,0a98,98,0,0,0,15.5-10.46,90.6,90.6,0,0,0,13.5-13.9,95.86,95.86,0,0,0,9.62-15.91c2.52-5,4.67-10.2,6.69-15.39l.65-1.68s0,0,0,0Z" style="fill: rgb(180, 0, 0);"/>
    <path class="cls-2" d="M1077.71,653.15q-5.79,6.86-11.57,13.72c-3.79,4.5-7.62,9-11.15,13.64s-6.75,9.54-9.89,14.4-6.23,10-9.09,15.11c0,0,0,0,0,0,10.92-6.85,20.45-15.43,27.2-25.12s11.12-20.72,14.45-31.57l.05-.17h0Z" style="fill: rgb(180, 0, 0);"/>
    <path class="cls-2" d="M573,527.38a97,97,0,0,0,.88,29.69A52.53,52.53,0,0,0,589.58,585c1.44,1.33,3,2.59,4.57,3.81,0,0,0,0,0,0l-.24-.52h0c-1.94-4.36-3.4-8.86-4.9-13.32-1.62-4.84-3.16-9.7-4.8-14.54-3.25-9.64-7-19.16-9.94-28.87q-.63-2.07-1.23-4.15h0Z" style="fill: rgb(180, 0, 0);"/>
    <path class="cls-2" d="M544.72,542.92c-2.25,9.5-.36,19.47,3.26,28.65a74.82,74.82,0,0,0,7.88,14.93A100.31,100.31,0,0,0,567.1,600a147.87,147.87,0,0,0,15.12,13s0,0,0,0c-2.37-4.32-4.73-8.63-7.32-12.87-2.81-4.59-5.76-9.13-8.76-13.65-6-9-12.51-17.88-16.91-27.47l-.12-.27a50,50,0,0,1-4.35-15.39v0l0-.41h0Zm4.43,15.84.06.14-.06-.14Z" style="fill: rgb(180, 0, 0);"/>
    <path class="cls-2" d="M512.7,557.93l.44.51h0c7.27,8.49,12.14,18,17.07,27.41,5,9.63,10.91,19.13,18.69,27.6a80.32,80.32,0,0,0,6.93,6.61s0,0,0,0c-4.84-9.62-9-19.44-14.39-28.89a115.4,115.4,0,0,0-20.72-26.42,93.57,93.57,0,0,0-8-6.8h0s0,0,0,0Z" style="fill: rgb(180, 0, 0);"/>
    <path class="cls-2" d="M501.69,583.52a65.35,65.35,0,0,0,12.69,28.59c6.82,8.83,16.63,16.28,27.56,21.9,1.66.86,3.36,1.67,5.06,2.47,0,0,0,0,0,0-6.73-8.57-14-16.81-21.54-25-4.37-4.74-8.95-9.35-13.15-14.19a161.65,161.65,0,0,1-10.63-13.81h0Zm10.21,13.3.42.49-.42-.49Z" style="fill: rgb(180, 0, 0);"/>
    <path class="cls-2" d="M484,604.3a59.68,59.68,0,0,0,13.66,28.35c7.29,8.63,17.15,15.83,27.7,21.92l2.62,1.5s0,0,0,0c-6.47-8.81-14.29-16.85-22.19-24.88-3.91-4-7.91-7.88-11.5-12A87.06,87.06,0,0,1,484,604.3h0Zm10.33,14.87.21.24-.21-.24Z" style="fill: rgb(180, 0, 0);"/>
    <path class="cls-2" d="M461.41,617.63c2.28,10,7.4,19.54,14.23,28.11a92.17,92.17,0,0,0,12.18,12.63,163.13,163.13,0,0,0,14.5,10.9c4.89,3.32,10.05,6.33,15.19,9.39,0,0,0,0,0,0a124.29,124.29,0,0,0-10-13.17c-3.65-4.18-7.57-8.2-11.6-12.15-7.94-7.77-16.77-15-24.26-23q-1.63-1.75-3.18-3.55c-2.52-3-4.88-6-7-9.13h0Zm7,9,.08.09-.08-.09Zm.08.09.21.25-.21-.25Z" style="fill: rgb(180, 0, 0);"/>
    <path class="cls-2" d="M454.79,649.07c-.32.53.1,1.27.3,1.78a16,16,0,0,0,1.8,3.06c.9,1.32,1.88,2.61,2.88,3.88,4.2,5.36,8.77,10.56,13.55,15.61a93.2,93.2,0,0,0,14.83,12.49,94.28,94.28,0,0,0,17.46,9.52s0,0,0,0c-8.87-9.08-19.37-17.14-29.31-25.48-5.27-4.42-10.64-8.8-15.58-13.46a56.74,56.74,0,0,1-4-4.11h0a10.63,10.63,0,0,1-1.64-2.29h0a2.23,2.23,0,0,1-.19-.62h0a.85.85,0,0,1,0-.26h0a.66.66,0,0,1,.05-.13h0a.44.44,0,0,1,.09-.11h0l.1-.07h0l.19-.08h0l.28,0h0a3.33,3.33,0,0,1,.7,0s0,0,0,0a3.37,3.37,0,0,0-.67-.1.87.87,0,0,0-.82.34Zm2,3.35,0-.05,0,.05Zm-1.87-3.21h0Z" style="fill: rgb(180, 0, 0);"/>
    <path class="cls-2" d="M455.53,673.84C459.37,683.38,464.21,693,472,701a58.74,58.74,0,0,0,23.69,14.95s0,0,0,0c-9-6.92-16.17-15-23.45-23.09-5.67-6.28-11.12-12.68-16.7-19h0Z" style="fill: rgb(180, 0, 0);"/>
    <path class="cls-2" d="M646.63,300.37c-5.59,2.55-11.13,5.17-16.48,8q-8.35,4.45-16.19,9.44a226.22,226.22,0,0,0-55.32,49.81A193.48,193.48,0,0,0,538.57,399a167.67,167.67,0,0,0-12.29,32.13,170.22,170.22,0,0,0-5.88,33.79c-1.44,21.27,1.11,42.87,8.9,63.31q.74,1.94,1.55,3.87s0,0,0,0a125.16,125.16,0,0,1-3.44-18l0,.27a144.57,144.57,0,0,1,2.86-47.4,214.53,214.53,0,0,1,10-31.6,295.26,295.26,0,0,1,15.1-31.4q3.27-6,6.8-12a323.45,323.45,0,0,1,42.47-56.25q5.3-5.57,11-10.91c4.66-4.34,9.5-8.56,14.57-12.6a184.87,184.87,0,0,1,16.42-11.84s0,0,0,0ZM530.49,466.2l-.08.38.08-.38Z" style="fill: rgb(180, 0, 0);"/>
    <path class="cls-2" d="M686.42,308.12a287.29,287.29,0,0,0-30.19,21.11,244.54,244.54,0,0,0-26.48,24.72c-16.1,17.46-28.93,37-37.06,57.61A151.16,151.16,0,0,0,582.08,475a139.45,139.45,0,0,0,7.53,38.31s0,0,0,0q-.95-5.14-1.55-10.31l0,.17a160.54,160.54,0,0,1,3.11-53.5C596,429,604.53,409,615.36,389.84q1.39-2.47,2.85-4.92a281.72,281.72,0,0,1,42.42-54q3-3,6.14-5.95l-.08.08.14-.13.15-.15-.07.06c6.19-5.79,12.67-11.39,19.52-16.7,0,0,0,0,0,0ZM591.21,449.74l-.16.72.16-.72Zm75.62-124.83-.05.05.14-.13-.09.08Z" style="fill: rgb(180, 0, 0);"/>
    <path class="cls-2" d="M738.3,303.37a224.67,224.67,0,0,0-24.3,19,203.37,203.37,0,0,0-21.81,23.2,200.32,200.32,0,0,0-17.74,26.46,140.24,140.24,0,0,0-12,27.26,126.89,126.89,0,0,0-4.39,57.56,110.4,110.4,0,0,0,7.33,25.73s0,0,0,0q-1.17-5.39-1.8-10.83c0,.07,0,.14,0,.22a122.92,122.92,0,0,1,2.59-40.43,195.79,195.79,0,0,1,8.57-27c3.58-9.19,7.65-18.28,12.15-27.22,2.87-5.69,6-11.31,9.29-16.86a400.79,400.79,0,0,1,34.51-48.32c2.46-3,5-5.93,7.57-8.82,0,0,0,0,0,0Zm-42.22,57.43-.36.6.36-.6Z" style="fill: rgb(180, 0, 0);"/>
    <path class="cls-2" d="M797.83,307.7a135.54,135.54,0,0,1,8.8,15.86l-.24-.5c7.82,16.68,11.76,34.25,14.07,51.88q.16,1.22.31,2.45c1,8.77,1.63,17.57,2.27,26.36q1,13.82,1.49,27.65.47,13.5.37,27c-.07,8.5-.26,17-1,25.51,0,.49-.08,1-.14,1.46,0,0,0,0,0,0a254.69,254.69,0,0,0,10.08-24.11,177.93,177.93,0,0,0,7-27.39,135.18,135.18,0,0,0-1.76-56.72,143.19,143.19,0,0,0-24.28-50.86,129.4,129.4,0,0,0-17-18.61h0s0,0,0,0Z" style="fill: rgb(180, 0, 0);"/>
    <path class="cls-2" d="M847.48,306.77q4.34,4.35,8.39,8.87l-.18-.21a175.51,175.51,0,0,1,27.59,41.26c8.78,18.92,13.28,38.77,16.64,58.69,1.68,10,3,20,4.12,30l-.07-.63.14,1.24.05.47,0-.24,0,.22v-.13l.09.83v.05c1.17,10.24,2.2,20.48,3.29,30.73,1.14,10.75,2.41,21.5,3.38,32.26,0,0,0,0,0,0,2.08-10.75,4.41-21.47,6.11-32.27a251.16,251.16,0,0,0,3.12-31.69c.64-21-2.09-42.29-9.92-62.45a156.23,156.23,0,0,0-15.12-29.33A165.29,165.29,0,0,0,873,327.77a193.91,193.91,0,0,0-25.54-21h0s0,0,0,0Zm56.65,139.44,0-.23-.07-.62.1.85Z" style="fill: rgb(180, 0, 0);"/>
    <path class="cls-2" d="M891.77,316a198.76,198.76,0,0,1,24.61,23,159.69,159.69,0,0,1,25.07,37,260.2,260.2,0,0,1,12.75,34c1.8,5.92,3.36,11.88,5,17.84s3.28,12,4.93,18c6.68,24.23,12.76,48.56,19.76,72.74,3.66,12.65,7.61,25.23,11.74,37.79,0,0,0,0,0,0-.43-12.36-.56-24.72-1-37.08-.47-12.87-1.36-25.71-2.86-38.53A271.12,271.12,0,0,0,985,443.91a158.38,158.38,0,0,0-5.7-17.84,204.52,204.52,0,0,0-8.51-18.62A211.13,211.13,0,0,0,950.23,375,346.6,346.6,0,0,0,924,344.26,283.36,283.36,0,0,0,891.79,316h0s0,0,0,0Z" style="fill: rgb(180, 0, 0);"/>
    <path class="cls-2" d="M437.48,364.38a140.79,140.79,0,0,0,.43,25.43,87.48,87.48,0,0,0,8.22,28.75c4,8,9.29,15.8,16.34,21.45a30.49,30.49,0,0,0,7.81,4.62s0,0,0,0a34.38,34.38,0,0,1-5-5.66,71.16,71.16,0,0,1-7.91-15.78c-1.6-4.32-3-8.73-4.31-13.13-1.43-4.65-3-9.26-4.51-13.87-2.88-8.57-5.89-17.09-8.92-25.6-.74-2.06-1.46-4.13-2.15-6.2h0Z" style="fill: rgb(180, 0, 0);"/>
    <path class="cls-2" d="M483.53,340.26A105.66,105.66,0,0,0,465,346.32,159.46,159.46,0,0,0,447,355.59a0,0,0,1,0,0,0l2.27-.21h-.14c12.8-1.15,25.62-2,38.4-3.3,12.12-1.21,24.12-3.42,36.18-5.09,5.79-.8,11.6-1.46,17.41-2.1,0,0,0,0,0,0-12.31-3.68-25.21-6.29-38.08-6.52l-1.66,0a83.37,83.37,0,0,0-17.89,1.9Z" style="fill: rgb(180, 0, 0);"/>
    <path class="cls-2" d="M1001.1,329.88c-7.88,3.62-15.21,9.14-20,16.42a29.25,29.25,0,0,0-5,14.31s0,0,0,0a31.14,31.14,0,0,1,3.5-5.18,33.92,33.92,0,0,1,5.87-5.35,56.16,56.16,0,0,1,12-6.06c3.78-1.37,7.65-2.48,11.52-3.54,4.26-1.17,8.49-2.43,12.73-3.64,8-2.29,15.95-4.67,23.91-7,2.25-.67,4.51-1.35,6.8-1.89a0,0,0,0,0,0,0c-7.56-1.92-15.11-3.48-22.95-3.6h-1.18a65.14,65.14,0,0,0-27.27,5.6Z" style="fill: rgb(180, 0, 0);"/>
    <path class="cls-2" d="M1054.75,335.67a59.54,59.54,0,0,1,1.14,7.3v0l0,.27v-.13a95.31,95.31,0,0,1-1.39,24.33c-.91,5-2.1,9.88-3.46,14.75-1.42,5.1-2.9,10.19-4.74,15.16q-1.95,5.27-4.36,10.35a101.17,101.17,0,0,1-13.48,21.43h0c-.49.58-1,1.15-1.49,1.71a0,0,0,0,0,0,0,86.89,86.89,0,0,0,20.39-21.27,100.7,100.7,0,0,0,7.88-13.56,74.66,74.66,0,0,0,5.72-15.76c2.39-10.4,2.78-21.55-.26-31.87a46.59,46.59,0,0,0-5.95-12.75h0a0,0,0,0,0,0,0Zm-12.55,71.52-.18.38.18-.38Zm13.7-64V343l0,.17Z" style="fill: rgb(180, 0, 0);"/>
  </g>
</svg>