<svg id="bellhop_red_shirt_2" data-name="bellhop red shirt 2" xmlns="http://www.w3.org/2000/svg" xmlns:xlink="http://www.w3.org/1999/xlink" width="360" height="360" viewBox="0 0 360 360" shape-rendering="geometricPrecision">
  <defs>
    <style>
      .cls-1 {
        fill: #fff;
      }

      .cls-2 {
        fill: #e5e5e5;
      }

      .cls-10, .cls-2, .cls-3, .cls-4, .cls-5, .cls-6, .cls-7, .cls-8, .cls-9 {
        fill-rule: evenodd;
      }

      .cls-3 {
        fill: #31323d;
      }

      .cls-4 {
        fill: #f7bc56;
      }

      .cls-5 {
        fill: #2b2b33;
      }

      .cls-6 {
        fill: #ea5f5a;
      }

      .cls-7 {
        fill: #d56561;
      }

      .cls-8 {
        fill: url(#linear-gradient);
      }

      .cls-9 {
        fill: #ffdb9c;
      }

      .cls-10 {
        fill: url(#linear-gradient-2);
      }
    </style>
    <linearGradient id="linear-gradient" x1="285.49" y1="128.781" x2="297.073" y2="223.125" gradientUnits="userSpaceOnUse">
      <stop offset="0" stop-color="#ee7e7a"/>
      <stop offset="1" stop-color="#ee7e7a" stop-opacity="0"/>
    </linearGradient>
    <linearGradient id="linear-gradient-2" x1="331.656" y1="314.563" x2="331.656" y2="237.531" xlink:href="#linear-gradient"/>
  </defs>
  <rect id="White" class="cls-1" width="360" height="360"/>
  <g id="Shadows_copy" data-name="Shadows copy">
    <path class="cls-2" d="M51.611,249.863c24.086,0,43.611,4.277,43.611,9.553s-19.526,9.553-43.611,9.553S8,264.692,8,259.416,27.526,249.863,51.611,249.863Z"/>
    <path id="Ellipse_1_copy_2" data-name="Ellipse 1 copy 2" class="cls-2" d="M277.846,249.863c24.086,0,43.611,4.277,43.611,9.553s-19.525,9.553-43.611,9.553-43.612-4.277-43.612-9.553S253.76,249.863,277.846,249.863Z"/>
    <path id="Ellipse_1_copy" data-name="Ellipse 1 copy" class="cls-2" d="M168.363,252.592c69,0,124.928,7.128,124.928,15.922s-55.932,15.921-124.928,15.921S43.434,277.307,43.434,268.514,99.367,252.592,168.363,252.592Z"/>
  </g>
  <g id="rear_sleeves" data-name="rear sleeves">
    <g>
      <path id="Color_Fill_40" data-name="Color Fill 40" class="cls-3" d="M32.453,219.986S11.4,224.5,12.11,228.454s-1.383,30.34,7.015,30.34,47.7-.7,47.7-0.7S42.382,248.985,32.453,219.986Z"/>
      <path id="Color_Fill_40_copy" data-name="Color Fill 40 copy" class="cls-4" d="M19.826,227.042s-4.219.276-3.508,4.234-1.383,23.99,7.015,23.99h3.508S17.917,255.081,19.826,227.042Z"/>
    </g>
    <g id="Group_11_copy" data-name="Group 11 copy">
      <path id="Color_Fill_40-2" data-name="Color Fill 40" class="cls-3" d="M299.728,220.692s21.055,4.509,20.344,8.467,1.383,29.635-7.015,29.635-47.7-.7-47.7-0.7S289.8,249.69,299.728,220.692Z"/>
      <path id="Color_Fill_40_copy-2" data-name="Color Fill 40 copy" class="cls-4" d="M312.355,227.748s4.219,0.276,3.508,4.234,1.383,23.284-7.015,23.284H305.34S314.264,255.786,312.355,227.748Z"/>
    </g>
  </g>
  <g id="shirt">
    <path id="background" class="cls-5" d="M40.709,97.926S27.518,72.867,50.7,81.549s75.588,18.2,93.583,18.2h45.428c12.956,0,77.74-16.763,85.406-19.106s3.634,28.2,3.634,28.2-92.144,51.542-109.937,54.588S40.709,97.926,40.709,97.926Z"/>
    <g id="Group_10_copy" data-name="Group 10 copy">
      <path id="Color_Fill_33" data-name="Color Fill 33" class="cls-5" d="M271.491,81.515s13.312-5.844,20.556-4.234,3.625,50.778-.281,52.214-0.9,5.645-.9,5.645Z"/>
      <path id="Color_Fill_34" data-name="Color Fill 34" class="cls-3" d="M294.464,80.809c-2.814,1.084-63.5,35.538-84.248,38.808s-33.688,10.272-29.028,28.643c0,0,92.627-10.339,108.013-18.73,0.456-.249.717-0.815,1.1-0.74C303.045,131.274,297.279,79.725,294.464,80.809Z"/>
      <path id="Color_Fill_34_copy" data-name="Color Fill 34 copy" class="cls-4" d="M292.068,85.76c-2.522,1.6-60.864,33.819-81.539,37.385-18.957,3.27-25.057,6.048-24.743,21.587,0,0-.887-12.842,16.061-16.648,42.966-9.648,84.819-35.854,85.172-35.974C297.936,88.416,293.369,84.933,292.068,85.76Z"/>
      <path id="Color_Fill_35" data-name="Color Fill 35" class="cls-3" d="M293.62,126.673s-136.8,20.417-135.408,31.465-17.633,109.123-7.087,109.123H260.56c11.991,0,60.987-19.768,44.718-81.143S293.62,126.673,293.62,126.673Z"/>
      <path id="Color_Fill_35_copy" data-name="Color Fill 35 copy" class="cls-6" d="M288.9,128.79s-128.259,21.828-126.864,32.876-18.322,101.362-7.776,101.362,88.963-.706,100.955-0.706,62.778-14.951,45.857-76.2C290.306,147.161,288.9,128.79,288.9,128.79Z"/>
      <path id="Color_Fill_44" data-name="Color Fill 44" class="cls-7" d="M228.141,262.489c-9.3.07-19.846,0.154-30.041,0.234,0.758-.138,1.653-0.272,2.715-0.4,11.834-1.435,14.03-60.681,14.03-60.681Z"/>
      <path id="Color_Fill_38" data-name="Color Fill 38" class="cls-3" d="M172.053,193.057s21.186,0.141,23.15,0,2.245-6.209,0-6.35-23.851,0-23.851,0Z"/>
      <path id="Color_Fill_38_copy" data-name="Color Fill 38 copy" class="cls-3" d="M170.65,231.923s21.186,0.141,23.15,0,2.245-6.209,0-6.35-23.851,0-23.851,0Z"/>
      <path id="Color_Fill_47" data-name="Color Fill 47" class="cls-8" d="M304.131,202.157c-4.8,13.436-9.21,18.626-14.389,20.961,2.765-14.43,1.37-52.334-11.309-92.486,6.508-1.169,10.464-1.842,10.464-1.842s1.409,18.371,12.172,57.328A94.988,94.988,0,0,1,304.131,202.157Z"/>
      <path id="Color_Fill_48" data-name="Color Fill 48" class="cls-7" d="M274.474,253.149a4.577,4.577,0,0,0,.185,3.792c-8.108,3.909-15.686,5.381-19.447,5.381l-1.455,0c0.63-26.96,2.8-67.16,18.612-49.395,0,0,.7,13.471,10.523,12a25.665,25.665,0,0,0,6.85-1.808C286.505,240.008,277.59,245.312,274.474,253.149Z"/>
    </g>
    <g id="left_shirt" data-name="left shirt">
      <path id="left_collar_back" data-name="left collar back" class="cls-5" d="M50.363,81.515S40.256,75.67,33.155,77.281s0.877,50.778,4.911,52.214,1.4,5.645,1.4,5.645Z"/>
      <path id="left_collar_front" data-name="left collar front" class="cls-3" d="M31.05,80.809c2.91,1.084,66.65,35.538,87.689,38.808s34.6,10.272,31.568,28.643c0,0-93.544-10.339-109.674-18.73-0.479-.249-0.79-0.815-1.165-0.74C26.944,131.274,28.14,79.725,31.05,80.809Z"/>
      <path id="left_collar_stripe" data-name="left collar stripe" class="cls-4" d="M33.886,85.76c2.663,1.6,63.862,33.819,84.854,37.385,19.247,3.27,25.593,6.048,26.657,21.587,0,0-5.595-14.324-17.538-16.273C87.732,121.909,46.571,96.608,39.5,92.11S32.511,84.933,33.886,85.76Z"/>
      <path id="Color_Fill_35-2" data-name="Color Fill 35" class="cls-3" d="M35.961,126.673s138.612,20.417,138.2,31.465-2.081,109.123-12.627,109.123H80.156c-11.991,0-62.739-19.768-51.912-81.143S35.961,126.673,35.961,126.673Z"/>
      <path id="Color_Fill_35_copy-2" data-name="Color Fill 35 copy" class="cls-6" d="M40.871,128.79s130.195,21.828,129.779,32.876-2.081,101.362-12.627,101.362-60.965-.706-72.957-0.706-64.1-14.951-52.613-76.2C39.762,147.161,40.871,128.79,40.871,128.79Z"/>
      <path id="Color_Fill_43" data-name="Color Fill 43" class="cls-7" d="M53.842,131.047c-1.862,15.44-6.657,70.594-6.657,70.594,15.058,15.362,15.1,45.718,14.826,53.75-17.745-9.338-37-29.583-29.558-69.273,7.309-38.957,8.418-57.328,8.418-57.328S45.844,129.623,53.842,131.047Z"/>
      <path id="Color_Fill_37" data-name="Color Fill 37" class="cls-3" d="M171.352,187.412s-26.8.565-28.762,0-1.4,5.645,0,5.645,27.359,0.988,28.06.706S171.352,187.412,171.352,187.412Z"/>
      <path id="Color_Fill_37_copy" data-name="Color Fill 37 copy" class="cls-3" d="M169.949,226.279s-26.8.564-28.762,0-1.4,5.644,0,5.644,27.359,0.988,28.06.706S169.949,226.279,169.949,226.279Z"/>
    </g>
    <g id="top_button" data-name="top button">
      <path id="Color_Fill_36" data-name="Color Fill 36" class="cls-3" d="M157.322,159.13c6.467,0.3,9.671,6.678,9.119,11.29s-6.385,9.4-11.224,8.467-9.25-5.56-8.418-11.29S150.855,158.831,157.322,159.13Z"/>
      <path id="Color_Fill_36_copy" data-name="Color Fill 36 copy" class="cls-4" d="M163.775,166.091c2.019,4.646-1.311,9.1-4.706,10.3s-8.733-1.244-9.753-4.965,0.678-8.415,4.948-9.807S161.755,161.445,163.775,166.091Z"/>
      <path id="Color_Fill_46" data-name="Color Fill 46" class="cls-9" d="M154.487,161.554c4.158-1.276,7.3-.027,9.288,4.537a7.116,7.116,0,0,1-.054,5.885C163.718,169.409,162.743,163.654,154.487,161.554Z"/>
    </g>
    <g id="middle_button" data-name="middle button">
      <path id="Color_Fill_36_copy_2" data-name="Color Fill 36 copy 2" class="cls-3" d="M141.93,208.73c0.931-6.444,7.557-9.026,12.065-8.021s8.672,7.313,7.276,12.066-6.408,8.714-11.995,7.318S141,215.174,141.93,208.73Z"/>
      <path id="Color_Fill_36_copy_2-2" data-name="Color Fill 36 copy 2" class="cls-4" d="M149.45,202.954c4.8-1.566,8.873,2.2,9.73,5.721s-2.088,8.618-5.869,9.275-8.26-1.5-9.218-5.915S144.655,204.52,149.45,202.954Z"/>
      <path id="Color_Fill_36_copy_4" data-name="Color Fill 36 copy 4" class="cls-9" d="M158.115,214.151c-0.05-3.012-1.031-8.864-7.457-11.472,4.257-.637,7.738,2.779,8.522,6A7.769,7.769,0,0,1,158.115,214.151Z"/>
    </g>
    <g id="bottom_button" data-name="bottom button">
      <path id="Color_Fill_36_copy_3" data-name="Color Fill 36 copy 3" class="cls-3" d="M137.721,249.389c0.931-6.444,7.557-9.026,12.065-8.021s8.672,7.313,7.276,12.066-6.408,8.714-12,7.319S136.791,255.833,137.721,249.389Z"/>
      <path id="Color_Fill_36_copy_3-2" data-name="Color Fill 36 copy 3" class="cls-4" d="M145.241,243.613c4.8-1.566,8.873,2.2,9.73,5.721s-2.088,8.619-5.869,9.275-8.26-1.5-9.218-5.915S140.446,245.179,145.241,243.613Z"/>
      <path id="Color_Fill_36_copy_5" data-name="Color Fill 36 copy 5" class="cls-9" d="M154.971,249.334a7.483,7.483,0,0,1-.749,4.887c-0.7-4.166-3.093-10.838-11.188-9.647a11.915,11.915,0,0,1,2.207-.961C150.037,242.047,154.114,245.817,154.971,249.334Z"/>
    </g>
  </g>
  <g id="front_sleeves" data-name="front sleeves">
    <path id="Color_Fill_39" data-name="Color Fill 39" class="cls-3" d="M263.4,261.871s2.28,5.122-.972,6.275-34.763,6.285-37.187,6.311-3.261-8.347-2.539-11.109-4.5-14.894-4.972-25.948,23.481-4.759,28.578-3.961c-10.078-1.579,2.47-9.144,17.773-7.232C266.125,226.463,263.4,261.871,263.4,261.871Z"/>
    <path id="Color_Fill_39_copy" data-name="Color Fill 39 copy" class="cls-4" d="M260.156,261.236s2.28,3.711-.972,4.863-26.714,4.8-29.138,4.827-5.46-1.848-3.034-3.332c9.246-2.468,14.5-2.563,18.944-3.5S260.156,261.236,260.156,261.236Z"/>
    <path id="Color_Fill_41" data-name="Color Fill 41" class="cls-3" d="M57.006,234.8s2.1-15.523-9.12-32.458c-4.817-7.266,57.82-1.749,57.524,2.117-0.468,6.115-1.871,28.224-4.209,38.1S57.006,234.8,57.006,234.8Z"/>
    <path id="Color_Fill_41_copy" data-name="Color Fill 41 copy" class="cls-6" d="M60.514,234.8s3.2-15.657-12.627-32.458c-7.629-8.1,58.78-3.884,57.524,2.117-5.612,26.813-4.677,28.224-7.015,38.1S60.514,234.8,60.514,234.8Z"/>
    <path id="Color_Fill_41_copy_2" data-name="Color Fill 41 copy 2" class="cls-3" d="M264.676,235.522s0.1-15.311,14.138-32.53c6.478-7.944-63.884-6.615-63.705-2.209,0.339,8.347,1,31.879,3.136,41.816C220.306,252.194,264.676,235.522,264.676,235.522Z"/>
    <path id="Color_Fill_41_copy_2-2" data-name="Color Fill 41 copy 2" class="cls-6" d="M261.268,235.463s-0.79-15.2,17.546-32.471c16.956-15.97-64.92-9.2-63.705-2.209,5.521,31.755,4.068,31.406,6.224,41.83C223.312,252.186,261.268,235.463,261.268,235.463Z"/>
    <path id="Color_Fill_39-2" data-name="Color Fill 39" class="cls-3" d="M57.708,258.794s-3.037,4.708,0,6.351,33.386,11.593,35.777,12,4.5-7.743,4.209-10.584,4.91-29.635,4.91-29.635S88.12,235.51,79.454,234.8c-5.141-.419-19.687-4.875-21.747-4.939S57.708,258.794,57.708,258.794Z"/>
    <path id="Color_Fill_39_copy-2" data-name="Color Fill 39 copy" class="cls-4" d="M61.917,258.794c-3.04-.47-3.037,3.3,0,4.939s24.968,8.771,27.359,9.173,6.116-1.693,3.507-2.822a100.972,100.972,0,0,0-14.732-4.939S64.956,259.265,61.917,258.794Z"/>
    <g id="Group_14_copy" data-name="Group 14 copy">
      <path id="Color_Fill_36-2" data-name="Color Fill 36" class="cls-3" d="M100.447,243.437c2.46,0.659,2.8,7.1,1.929,11.6s-3.8,8.868-5.541,7.681-2.791-5.981-1.657-11.561S97.988,242.777,100.447,243.437Z"/>
      <path id="Color_Fill_36_copy_6" data-name="Color Fill 36 copy 6" class="cls-3" d="M222.6,245.411c2.525,0.321,3.719,6.662,3.46,11.235s-2.582,9.3-4.465,8.36-3.565-5.55-3.187-11.232S220.077,245.091,222.6,245.411Z"/>
      <path id="Color_Fill_36_copy-2" data-name="Color Fill 36 copy" class="cls-4" d="M101.518,250.647c-0.092,4.645-1.656,8.88-2.778,9.922s-2.271-1.579-2.03-5.274,1.382-8.236,2.776-9.428S101.61,246,101.518,250.647Z"/>
      <path id="Color_Fill_46-2" data-name="Color Fill 46" class="cls-9" d="M98.925,256.725a9.749,9.749,0,0,0-.532-9.142,5.935,5.935,0,0,1,.8-1.375c1.365,0.93,2.01,2.737,1.82,5.609A8.042,8.042,0,0,1,98.925,256.725Z"/>
    </g>
  </g>
  <g id="Shadows_copy_2" data-name="Shadows copy 2">
    <path class="cls-2" d="M281.909,309.343c37.605,0,68.091,4.4,68.091,9.828S319.514,329,281.909,329s-68.092-4.4-68.092-9.829S244.3,309.343,281.909,309.343Z"/>
  </g>
  <path id="Color_Fill_42" data-name="Color Fill 42" class="cls-3" d="M227.748,317.159c2.166,2.058,94.779,2.677,109.222-1.228,0,0,10.451-48.436,8.409-66.854-2.126-19.176-58.4-16.633-80.461-14.839-24.573,2-53.077,11.579-51.878,19.731C217.2,282.258,225.9,315.407,227.748,317.159Z"/>
  <path id="Color_Fill_42_copy" data-name="Color Fill 42 copy" class="cls-6" d="M229.347,314.4c2.119,2,88.877,3.3,103.448-.733,0,0,11.257-44.7,9.19-63.068-2.132-18.941-54.648-14.518-76.912-12.835-23.788,1.8-50.838,9.878-49.631,18.145C219.542,284,227.478,312.637,229.347,314.4Z"/>
  <path id="Color_Fill_49" data-name="Color Fill 49" class="cls-10" d="M332.8,313.672a37.486,37.486,0,0,1-5,.892c3.11-10.777,15.311-64.5-6.671-76.986l-0.083-.05c10.414,1.67,18.346,4.987,20.456,10.941,0.029,0.083.06,0.166,0.087,0.25,0.04,0.126.076,0.253,0.111,0.381,0.04,0.144.076,0.289,0.109,0.436,0.022,0.1.045,0.193,0.064,0.291,0.049,0.255.092,0.513,0.122,0.777C344.052,268.968,332.8,313.672,332.8,313.672Z"/>
  <path id="Color_Fill_45" data-name="Color Fill 45" class="cls-7" d="M215.407,255.481c0-.112,0-0.223,0-0.335v-0.013c0.2-3.024,4.066-6,10.042-8.62-3.741,4.748,16.592,65.2,17.925,69.15-4.1-.17-7.51-0.366-9.945-0.581a25.651,25.651,0,0,1-4.086-.677c-1.869-1.768-9.805-30.41-13.9-58.491-0.018-.122-0.028-0.244-0.034-0.366C215.407,255.525,215.407,255.5,215.407,255.481Z"/>
  <path id="Color_Fill_42_copy_3" data-name="Color Fill 42 copy 3" class="cls-4" d="M227.151,309.089c-0.358-1.108-.742-2.365-1.147-3.754a261.976,261.976,0,0,0,48.442,3.117c24.379-.887,42.325-3.194,60.663-4.658-0.3,1.336-.578,2.572-0.834,3.679C308.008,313.144,240.47,312.31,227.151,309.089Z"/>
  <path id="Color_Fill_42_copy_2" data-name="Color Fill 42 copy 2" class="cls-4" d="M342.212,254.139c0.042,1.651.012,3.441-.078,5.336-8.945-18.947-120.208-19.45-125.354,4.837-0.331-1.925-.646-3.853-0.943-5.771,3.609-7.571,27.879-15.754,49.391-17.257C286.205,239.819,334,238.722,342.212,254.139Z"/>
</svg>
