<svg id="birdy_copy" data-name="birdy copy" xmlns="http://www.w3.org/2000/svg" width="150" height="150" viewBox="0 0 150 150">
  <defs>
    <style>
      .cls-1, .cls-6 {
        fill: #fff;
      }

      .cls-17, .cls-2 {
        fill: #31323d;
      }

      .cls-10, .cls-11, .cls-12, .cls-13, .cls-14, .cls-15, .cls-16, .cls-17, .cls-2, .cls-3, .cls-4, .cls-5, .cls-6, .cls-7, .cls-8, .cls-9 {
        fill-rule: evenodd;
      }

      .cls-2 {
        opacity: 0.2;
      }

      .cls-3 {
        fill: #c5c6d9;
      }

      .cls-4 {
        fill: #999aa9;
      }

      .cls-5 {
        fill: #757682;
      }

      .cls-7 {
        fill: #f4d47e;
      }

      .cls-8 {
        fill: #f2f4ff;
      }

      .cls-9 {
        fill: #e08dc7;
      }

      .cls-10 {
        fill: #d2d3df;
      }

      .cls-11 {
        fill: #b0b1bd;
      }

      .cls-12 {
        fill: #fffdb9;
      }

      .cls-13 {
        fill: #9294a2;
      }

      .cls-14 {
        fill: #62636c;
      }

      .cls-15 {
        fill: #787988;
      }

      .cls-16 {
        fill: #bebebe;
      }
    </style>
  </defs>
  <rect class="cls-1" x="-7" y="-10" width="167" height="173"/>
  <path class="cls-2" d="M35.744,95.294s-20.13-.218-22.633,2.36c-1.34,2.111,6.184,2.4,9.037,2.691,0.538,0.055,7.43.154,12.59,0.783C49.08,106.288,66.03,106.962,81.754,107c15,0.036,31-1.383,39.935-5.284,7.82,0.549,15.843-1.058,16.524-3.523,0.216-2.236-5.344-1.879-7.475-1.957"/>
  <path class="cls-3" d="M104.18,63.944c7.938,6.238,19.561,18.744,15.839,33.683-3.739,1.753-4.628-1.922-8.905-.788-5.447,1.445-13.563.788-19.985,0.788l-30.473.394c-3.25,0-18.474.492-18.8-.2,2.989,0.584,18.777-10.931,20.183-13.392-0.591-.614-0.626-0.54-1.583-0.394C63.681,78.8,72.87,76.992,77.673,73.206L77.08,72.024l0.2-.2,10.883-1.969c7.484-.74,11.014,3.421,17.215-0.394C105.934,66.2,104.566,66.529,104.18,63.944ZM68.571,75.766h0Zm-2.374.2,2.374,0.2h-0.4l-5.738,3.151,0.4-.591Zm-4.155,3.348h0.4l-4.353,3.742c-0.424.954-.026,1.934-0.989,2.757l-4.749,2.363a1.834,1.834,0,0,0-.4-1.772C55.41,85.3,59.754,81.816,62.041,79.311ZM49.575,87.583h0Zm-0.4.2h0Zm-0.594.394c0.548,0.228.1,0.061,0,.591C44.65,90.057,41.725,93.8,37.9,94.673l0.989-2.166-3.562-.394C40.36,91.986,45.221,90.989,48.586,88.174ZM37.109,95.461c0.434,0.23-.228,1.036-0.4,1.969h-0.4V96.445Z"/>
  <path class="cls-4" d="M105.169,65.118l0.2,0.4Zm0.2,0.8v0Zm-0.2,2.2,0.2,0.4Zm-0.2.6,0.2,0.4Zm-17.808.8h0.791v0.2Zm1.583,0,4.155,0.2Zm-2.968.2H86.57v0.2Zm7.519,0,1.187,0.2Zm18.2,0v0Zm-26.712.2h0Zm-0.791.2h0Zm-0.791.2h0Zm12.664,0h0Zm-13.851.2h0Zm14.444,0h0Zm5.936,0h0Zm-21.37.2h0Zm16.225,0h0Zm4.551,0h0Zm20.183,0c3.249,0.018,6.05.444,8.31,1.8a10.907,10.907,0,0,0,.791,3.2c1.615,1.066,2.408,1.185,5.739,3.2,1.714,8.091-2.3,15.965-7.915,17.977-4.118,1.475-4.009-1.218-7.519,1.4a1.568,1.568,0,0,1-1.583-.8c1.419-3.815-.015-12.638-1.467-16.115-0.875-2.1-3.844-5-4.271-7.455C116.194,71.91,119.248,72.26,121.988,70.711Zm-42.146.2h0Zm18.006,0,0.989,0.2Zm-19.589.2,1.187,0.2Zm-0.989.2h0Zm-0.791.4a2.292,2.292,0,0,1,.989,1c-0.066.2,0.221,0.43,0.155,0.629C74.53,76.111,63.667,79.906,60.9,83.319c0.654-.274,0,0.413.737,0.575,0.849-.6,7.413-3.222-15.688,13.32-2.038.794-8.122,1.9-9.639,0.463l1.187-3c1.59-.139,12.986-7.434,14.048-8.389l0.792,0.6c-0.066.4,0.17,0.726,0.1,1.125,1.583-.8,2.864-1.525,4.447-2.324,1-.834.654-2.084,1.187-3L63.221,78.5C66.868,76.234,73.754,74.465,76.478,71.71Zm36.012,0.4h0Zm-46.5,3.4h0Zm1.979,0h0Zm-1.385.2,0.989,0.2ZM55.9,83.495h0Zm-1.979,1.4h0Zm-7.915,4.395h0Zm-0.791.2h0Zm-2.374,1h0Zm-0.4.2h0Zm-0.4.2h0Zm-1.781.8h0Zm-1.385.2,1.187,0.2Z"/>
  <path class="cls-5" d="M82.386,60.312c9.182-.422,18.824.619,23.036,5.545a3.784,3.784,0,0,1-.455,4.153c-4.82,1.919-6.983.918-12.039,0.006-4.127-.745-10.666.86-14.321,1.756a56.128,56.128,0,0,0-6.763,3.2c-1.749.706-3.312,1.125-5.041,1.7-1.106,1.056-2.443,1.406-3.549,2.462C57.095,83.794,49.438,90.1,41.194,92.2c-1.171-.066-3.711-0.006-4.882-0.072-6.587.1-9.98-.586-15.541-1.37a24.344,24.344,0,0,1-9.446-3.113l-0.39-1.782a3.436,3.436,0,0,1,1.757-1.98c2.485-.748,4.678,1.26,7.028.4-1.715-.32-2.472-1.393-2.538-3.367,0.624-.986.756-1.535,1.952-1.98,2.011-.836,5.3.425,6.833,0.792,3.322,0.794,25.8-.146,27.526-0.99,2.039-1,4.706-5.543,7.028-7.13a68.165,68.165,0,0,1,11.518-7.724C75.358,62.689,78.5,60.959,82.386,60.312Zm29.283,10.1L113.426,72l-0.39.792h-0.2l-1.172-.99V70.412ZM19.915,84.474l0.586,0.2Z"/>
  <path class="cls-6" d="M95.328,70.206V71a48.875,48.875,0,0,0-8.35,1.589v0.4a1.588,1.588,0,0,1,1.392,1.191l-0.4.2c-0.591.433-5.995,1.756-6.958,1.986v0.2h0.2l2.187,0.6v0.4l-0.4.2c-0.971.737-4.788,1.768-6.163,1.986a1.08,1.08,0,0,1-.2-1.191c-0.781-.067-3.139.021-3.777-0.4a1.011,1.011,0,0,1-.2-0.6c2.929-1.257,5.774-2.5,8.748-3.773v-0.2H80.019a3.88,3.88,0,0,0-1.988,0l-0.2-.4C81.076,71.361,90.426,70.278,95.328,70.206Zm-16.5,10.524h1.193v0.2h-0.2c-1.39,1.024-6.178,1.741-6.561,3.376h0.2v0.2a21.874,21.874,0,0,1,4.175.4v0.4c-1.535.069-7.391,2.37-7.754,3.376h0.2c0.727,0.443,2.7.3,3.38,0.6a0.717,0.717,0,0,1-.4.2c-1.484,1.1-4.286.968-5.766,1.986a1.011,1.011,0,0,0-.2.6h0.2v0.2c1.558,0.081,2.409.673,3.777,0.993v0.2a10.508,10.508,0,0,0-6.76,3.177c-1.572.027-5.073,0.145-6.163-.6a0.716,0.716,0,0,1-.2-0.4,40.023,40.023,0,0,1,4.97-1.787v-0.2c-0.976-.033-2.894-0.122-3.579-0.6a1.013,1.013,0,0,1-.2-0.6h0.4c1.506-.947,4.51-1.053,5.368-2.581h-0.8c-0.622-.42-1.777-0.355-2.386-0.794a0.716,0.716,0,0,1-.2-0.4l0.6-.2c1.073-.7,3.517-0.5,4.175-1.588a7.836,7.836,0,0,1-2.783-.794,0.716,0.716,0,0,1-.2-0.4c3.242-1.39,6.193-3.064,9.742-4.17C74.659,81.027,77.616,81.515,78.826,80.731ZM65.108,96.219c0.843,0.282,1.629.581,2.386,0.794a0.718,0.718,0,0,1-.4.2v0.2l-1.789-.6Z"/>
  <path class="cls-7" d="M135.656,78.035s-7.975-.147-5.508-4.893c0,0,4.309-3.488,5.7-2.668S136.178,77.111,135.656,78.035Z"/>
  <path class="cls-8" d="M105.361,67.271a17.854,17.854,0,0,1,2.95,1.979,35.082,35.082,0,0,1,2.951,1.935c0.211-.149.383,0.915,0.787,0.836,0.381,0.566.968,0.524,1.377,0.99,2.13,2.421,5.177,7.764,5.7,11.677h-0.2v0.2c-1-1.309-1.773-2.739-2.754-4.306a23.94,23.94,0,0,0-3.541-4.5c-0.313-.339-1.442-1.636-1.77-1.957a50.6,50.6,0,0,0-5.508-4.5C105.708,69.147,105.359,68.107,105.361,67.271ZM92.967,71.229c2.717-.045,10.249.761,11.017,2.375h0.2v0.2h-0.787a14.286,14.286,0,0,0-4.721-1.051,30.968,30.968,0,0,0-10.623.783,5.049,5.049,0,0,1-1.377-.783,3.98,3.98,0,0,1,1.18-.587A10.46,10.46,0,0,1,92.967,71.229Zm-8.066,9.1c2.545-.042,9.17,1.118,10.23,2.375h0.2v0.2h-0.59C85.892,81.424,83.721,81.981,79,82.341c0-.132-4.131.523-4.131,0.391a38.69,38.69,0,0,1,4.525-1.761A20.366,20.366,0,0,1,84.9,80.333Z"/>
  <path class="cls-9" d="M130.148,75.882s-2.27-.45-2.823.369c-0.568.841,1.888,1.759,3.019,1.784S135.865,77.295,130.148,75.882Z"/>
  <path class="cls-10" d="M121.7,70.6c2.56-.04,1.735.62,2.956,1.185h2.167c0.847,0.236,2.2.633,3.153,0.988a3.352,3.352,0,0,1,.394,1.185,3.546,3.546,0,0,0-.788.593c-5.311-.1-7.15-1.8-11.626.79-0.684.4-1.616,0.295-2.167,0.79a0.793,0.793,0,0,1,.394.79h-0.2v-0.2a3.7,3.7,0,0,1-1.183-2.568c0.665-.737.7-1.6,1.774-1.975C117.889,71.179,120.28,71.552,121.7,70.6Zm11.4,7.046c1.939-1.242,4.987,5.276,3.774,9.153q-1.28,2.469-2.561,4.939h-0.2v-0.2a2.132,2.132,0,0,1-.2-1.185c0.874-1.291,1-4.274.952-6.446S132.187,78.785,133.1,77.643Z"/>
  <path class="cls-11" d="M105.36,69.6c-2.114-1.053-6.882-3.148-9.089-3.946C96.329,65.679,86,62.346,81.056,62.9a31.26,31.26,0,0,0-13.239,4.34c-1.49.91-5.259,4.166-6.916,4.34,0.456-1.311-1.7.162,4.94-4.34a64.1,64.1,0,0,1,6.125-3.354c-1.213.151,3.385-1.73,6.916-2.762,2-.584,5.38-0.237,7.311.2H90.54c2.72,0.632,5.711,1.118,7.9,2.17,3.5,1.681,7.145,2.727,7.113,4.566A4.122,4.122,0,0,1,105.36,69.6Z"/>
  <path class="cls-12" d="M135.008,69.424c0.251,0.307.13,0.1,0,.391-0.593,1.705-3.014,3.629-4.86,4.11V72.946A22.033,22.033,0,0,0,135.008,69.424Zm0.81,2.544a2.27,2.27,0,0,1,1.215,2.153q-0.709,1.957-1.418,3.914l-0.607.2c-0.433-.272-1.228-0.291-1.62-0.587,0.638-.829.562-2.1,1.012-3.131A21,21,0,0,0,135.818,71.968Z"/>
  <path class="cls-13" d="M120.31,96.823c-7.119.281-14.659,0.391-21.945,0.391H87.294c-4.411.939-12.015,0.158-17,.2L40.836,97.8V97.41c0.4-.45.425-1.26,0.791-1.761,1.357-.831,3.582-0.152,5.338-0.587,0.774-.192,1.675-0.79,2.372-0.979H60.606l39.539-.587c16.606,0,18.781-.392,18.781-0.391a2.57,2.57,0,0,0,1.581-1.957h0.2v4.5A2.013,2.013,0,0,0,120.31,96.823Z"/>
  <path class="cls-14" d="M17.449,79.209c1.654,0.18,2.326.75,3.947,1.17,0.789,0.065,2.127.722,2.916,0.787a24,24,0,0,0,5.964.968h2.171c2.016,0.449,4.555.517,6.512,0.975,0.994,0.233,2.05-.074,2.763.39-2.669.039-13.832,0.267-15,0-1.979-.454-7.043-0.078-10.281-2.92A14.66,14.66,0,0,0,17.449,79.209Zm-6.512,5.265c0.757,0.178,4.288.969,6.315,1.56,1.381,0.65,2.763.91,4.144,1.56,1.644,0.675,3.616,1.007,5.131,1.56,3.343,1.22,7.008,1.353,10.262,2.535v0.195c-0.2,0-.476.437-0.673,0.437-2.489-.309-5.288-0.1-7.221-0.632-3.881-1.067-8.413-1.613-12.058-3.086-2.159-.873-4.493-1.432-6.492-2.764V85.254A3.724,3.724,0,0,0,10.936,84.474Zm125.113,4.875c-0.276,1.746-1.774,2.994-2.96,3.9-0.531.406-.658,1.389-1.184,1.755l-1.973.585a8.234,8.234,0,0,1-1.382,1.17c-1.662.038-3.652-.635-5.328-0.585-1.176.035-1.31,0.937-3.157,0.78a21.7,21.7,0,0,0,.592-2.535c-0.076-2.1-.364-2.862-0.346-3.859,0.772,2.027,1.4,2.542,2.319,3.079,2.589,1.865,8.8-.833,10.459-1.95C134.205,90.937,134.387,89.661,136.049,89.349Z"/>
  <path class="cls-15" d="M36.9,94.083h13.18a21.591,21.591,0,0,1-6.1,2.74,20.834,20.834,0,0,1-7.082.2V94.083Z"/>
  <path class="cls-16" d="M62.654,93.887h5.92v0.193H68.166c-0.945.525-2.867,1.43-3.675,2.512H60a14.231,14.231,0,0,0-2.041-.58l-0.2-.386C58.982,95.133,61.6,94.591,62.654,93.887Z"/>
  <path class="cls-17" d="M73.2,34l1.182,0.2v0.392c0.554,0.953-2.4,6-2.955,7.058-0.99,1.894-1.522,4.151-2.758,5.882,1.323-1.852-12.619,11.851-13.4,12.352v0.2c0.066,0,1.043.932,1.108,0.932a53.681,53.681,0,0,0,5.2,4.362,9.575,9.575,0,0,0,2.167,1.569c0.753-.927,2.408-1.274,2.955-2.353-0.984-.478-4.764-3.214-5.122-4.117a2.116,2.116,0,0,1-.2-1.176c5-2.71,11.355-3.767,16.549-6.274C78.379,48.5,78.6,43.45,79.5,39.1a2.279,2.279,0,0,1,1.379-.392,0.712,0.712,0,0,0,.394.2v0.392c0.715,1.112-.544,7.456-0.591,9.411h0.2v-0.2c1.536-1.572,3.114-6.4,5.713-6.47l0.2,0.588a1.317,1.317,0,0,1,.2.784l-5.713,8.431c0.2,0,1.069-.228,1.266-0.228A13.466,13.466,0,0,1,86.4,50.469a2.253,2.253,0,0,1,.394,1.373,0.706,0.706,0,0,0-.2.392c-5.154,2.143-10.766,3.929-15.958,5.882-1.354.509-5.148,1.375-6.107,2.353,1.465,1.128,3.422,2.1,4.137,3.137A59.64,59.64,0,0,1,79.5,59.488C91.25,56.437,102.383,62.8,108.66,67.33c2.013,1.452,4.548,3.027,5.91,5.1,2.634-1.32,6.524-4.041,11.23-2.941,1.538,0.359,2.7,1.3,4.137,1.568,0.9-.9,6.976-4.412,8.472-4.509A2.647,2.647,0,0,1,139,68.507c-0.464.672-.328,1.633-0.591,2.549-0.378,1.318-1.916,5.644-1.576,7.058,0.46,1.913,2.223,4.339,1.576,7.254-1,4.5-2.771,7.881-5.91,10.2a15.328,15.328,0,0,1-4.926,2.745H105.507a35.516,35.516,0,0,1-6.3.2H82.26a34.464,34.464,0,0,1-6.108.2H59.6c-4.977.453-10.846,0.2-16.155,0.2-3.148,0-6.97.277-9.26-.2V98.308a19.4,19.4,0,0,1,2.364-4.313c0.147,0,.418.088-0.241,0.088-1.681-.35-4.919-0.528-7.443-1.069C22.487,91.647,16.33,90.9,11.334,88.309,9.62,87.421,7.123,86.623,7,84.192A1.651,1.651,0,0,1,7.591,83.8c1.913-1.4,8.155.508,10.245-.784-1.881-.56-2.915-1.925-4.137-3.137V78.506a2.115,2.115,0,0,1,1.379-.588c0.753-.354,8.509,0,10.442,0l26.4,0.2a42.393,42.393,0,0,1,6.7-7.254,11.848,11.848,0,0,0,2.955-2.549c-2.5-2.027-3.754-3.178-5.983-5.15-0.981-.868-2.823-1.811-2.883-3.673a23.065,23.065,0,0,0,2.758-2.745c4.884-4.52,11.1-10.233,11.23-10.587,0.359-1.264-3.406-6.885-3.546-9.607a2.612,2.612,0,0,1,1.576-.392A19.824,19.824,0,0,1,67.09,41.45h0.2V40.47c0.665-1.1.422-4.065,0.985-5.294,0.854-.059,1.224-0.28,1.576.588,0.6,0.9-.041,3.426-0.2,4.51h0.2V39.882C71.321,38.27,71.758,35.621,73.2,34ZM84.624,61.056a21.7,21.7,0,0,0-4.925.588,51.137,51.137,0,0,0-8.078,2.745c-7.711,3.527-13.481,10-18.913,15.881-11.282.542-23.774-.192-35.66-0.2v0.2h0.394C20.9,84.44,32.231,82.82,39.7,82.819c2.019,0,7.4-.451,8.275.2H47.585c-4.995.9-8.365,0.993-11.274,1.282-7.86.781-16.378,1.227-25.371,1.266v0.2h0.2c2.409,2.374,7.945,2.892,11.821,3.921,2.787,0.74,6.306.879,9.26,1.568,0.657,0,1.863.289,2.52,0.289a19.278,19.278,0,0,0,4.77.3c1.711-.434,4.238-1.938,5.853-2.648,2.447-1.075,4.3-1.956,6.756-3.234,2.35-1.225,3.836-3.752,5.91-5.294a61.127,61.127,0,0,1,13.988-7.45,51.694,51.694,0,0,1,16.624-3.4c3.988,0.014,8.829.328,10.367,1.633h-0.2c-0.673-.437-2.516-0.2-3.546-0.2a60.719,60.719,0,0,0-8.984.52,41.4,41.4,0,0,0-5.989,1.244,95.606,95.606,0,0,0-12.018,4.117,36.669,36.669,0,0,0-3.436,1.684c-1.651,1-2.673,1.583-4.248,2.629-3.415,2.269-3.031,3-3.031,2.655-1.17.29,3.438-.848,7.168-2.067a57.515,57.515,0,0,1,17.14-2.549c1.857,0.072,5.886.2,7.167,1.093-0.066,0-3.279-.2-3.344-0.2-1.43.152-2.5,0.02-4.131,0.2a48.431,48.431,0,0,0-7.572,1.26c-6.8,1.688-13.736,2.956-19.9,5.49-2.345.964-4.819,2.339-7.093,3.333-3.728,1.631-7.6,2.793-9.654,6.078h19.9c0.908-.554,3.423-0.2,4.728-0.2H74.182l39.009-.392c6.108,0,13.762.784,17.337-1.765a14.182,14.182,0,0,0,5.714-9.215c0.569-2.646-1.112-4.938-1.576-6.666-0.479-1.784.684-3.992,0.985-5.49h-0.2v0.392c-1.286,1.339-1.281,5.025-3.153,5.686-1.2.8-6.171-1.4-6.5-2.353-2.041-3.2,5.366-1.991,6.7-1.764,0.355-1.685,1.323-2.628,1.97-4.117h-0.2a9.59,9.59,0,0,1-5.123,2.549c-5.427-3.453-9.975-.888-13.4.784a0.669,0.669,0,0,0,.2.392,16.079,16.079,0,0,0,1.018,1.885,19.732,19.732,0,0,1,1.543,5.37h-0.2v-0.2h-0.2A37.325,37.325,0,0,0,84.624,61.056Zm43.343,15.1c0.467,0.606,2.944,1.467,3.546,1.176a0.987,0.987,0,0,0,.2-0.588l-0.591-.2A7,7,0,0,0,127.967,76.153Zm2.758,10.2-3.546.392a2.37,2.37,0,0,1-.591-1.764c0.676-.348,2.347-0.4,2.955-0.784a0.7,0.7,0,0,0,.2-0.392,6.192,6.192,0,0,1-.788-2.157,1.957,1.957,0,0,1,1.786-.672,16.746,16.746,0,0,1,.983,2.74c0.119,0.426.9,0.141,1.377,0.2a3.486,3.486,0,0,1,1.765-.107,2.256,2.256,0,0,1,.394,1.372,0.7,0.7,0,0,0-.2.392c-1.662.4-2.285-.127-2.158,0.886a11.352,11.352,0,0,1,.385,3.427,2.283,2.283,0,0,1-1.38.392,2.1,2.1,0,0,1-.591-1.372A4.933,4.933,0,0,1,130.725,86.348Z"/>
</svg>
