<svg id="Box" xmlns="http://www.w3.org/2000/svg" width="360" height="360" viewBox="0 0 360 360" shape-rendering="geometricPrecision">
  <defs>
    <style>
      .cls-1 {
        fill: #fff;
      }

      .cls-2, .cls-3 {
        fill: #31323d;
      }

      .cls-2 {
        fill-opacity: 0.2;
      }

      .cls-2, .cls-3, .cls-4, .cls-5, .cls-6 {
        fill-rule: evenodd;
      }

      .cls-4 {
        fill: #ca9340;
      }

      .cls-5 {
        fill: #edb84e;
      }

      .cls-6 {
        fill: #a47631;
      }
    </style>
  </defs>
  <rect class="cls-1" width="360" height="360"/>
  <path id="Color_Fill_998" data-name="Color Fill 998" class="cls-2" d="M247.335,329.6s-42.031-22.33-50.122-22.376-63.68,19.135-79.221,14.886c0,0-80.564-22.379-93.541-19.724,0,0,58.209-4.376,63.529-17.689s153.414-27.214,153.414-27.214,86.194,53.939,95.827,56.091C337.221,313.576,267.254,318.917,247.335,329.6Z"/>
  <path id="Color_Fill_989" data-name="Color Fill 989" class="cls-3" d="M312.314,288.073s14.275-35.195,11.47-37.319l-58.812-20.033,9.125,40.365Z"/>
  <path id="Color_Fill_989_copy" data-name="Color Fill 989 copy" class="cls-4" d="M310.791,285.654s13.231-31.412,10.426-33.537l-56.245-21.4,9.125,40.365Z"/>
  <path id="Color_Fill_1" data-name="Color Fill 1" class="cls-3" d="M195.3,301.7s-31.072,21.609-59,20L17,288.023s51.722,0.639,62.693-6.32c0,0-11.48-226.421-24.616-245.209,0,0,130.457-1.925,132.388-7.492,0,0,121.384,10.88,138.069,8.1,0,0-5.634,231.189-11.4,248.585,0,0,22.127,16.207,29.738,17.123,0,0,.72.682-1.175,1.119C326.769,307.6,250.912,324.78,248.6,331,248.6,331,214.863,301.7,195.3,301.7Zm38.357-171.186c-7.969.8-18.411-.888-20.177-16.489-1.771-15.65,10.9-18.315,16.469-18.6,5.781-.3,15.288,3.7,16.7,15.194C248.059,122.022,242.677,129.615,233.658,130.515Zm-84.914,2.063c7.886,0.893,18.609-.562,20.432-16.151,1.831-15.657-11.222-18.115-16.731-18.313A16.442,16.442,0,0,0,135.958,113.1C134.6,124.117,139.8,131.564,148.744,132.578Z"/>
  <path id="Color_Fill_1278" data-name="Color Fill 1278" class="cls-3" d="M259.828,143.642h-136.5V89.82h136.5"/>
  <path id="Color_Fill_1_copy_5" data-name="Color Fill 1 copy 5" class="cls-4" d="M191.347,301.324s-28.519,19.112-53.718,18.4l-109.1-30.094s42.353,0.7,53.324-6.263c0,0,0-.058-0.008-0.17l0.043,0.026c15.736,9.642,109.769,17.982,109.769,17.982l0.058,0.066c0,0.018.006,0.036,0.01,0.054C191.6,301.325,191.473,301.324,191.347,301.324Z"/>
  <path id="Color_Fill_1_copy_9" data-name="Color Fill 1 copy 9" class="cls-5" d="M81.675,283.479l0.058,0.011s-11.22,8.123-33.412,11.383l-19.789-5.24S70.435,290.32,81.675,283.479Z"/>
  <path id="Color_Fill_1_copy_8" data-name="Color Fill 1 copy 8" class="cls-4" d="M194.566,299.681l-0.058-.066s-92.986-6.187-112.361-18.058l-0.043-.026c-0.32-6.959-10.265-223.824-23.192-242.312,0,0,126.148-2.328,128.078-7.895,0,0-1.605-.075-0.066.063-0.582,10.456-10.007,174.332,7.576,267.924C194.523,299.436,194.544,299.557,194.566,299.681Zm-45.822-166.8c7.886,0.893,18.914-.864,20.737-16.453,1.831-15.657-11.527-18.417-17.036-18.615A16.875,16.875,0,0,0,135.806,113.1C134.444,124.117,139.8,131.867,148.744,132.88Z"/>
  <path id="Color_Fill_1_copy_6" data-name="Color Fill 1 copy 6" class="cls-5" d="M248.929,328.265s-21.773-20.27-46.406-27.7c-0.007-.033-0.013-0.076-0.019-0.121,1.477-.049,29.678-0.222,109.1-14.459-0.016.051-.032,0.1-0.048,0.15,0,0,22.013,15.738,27.623,16.433C339.175,302.572,251.516,321.306,248.929,328.265Z"/>
  <path id="Color_Fill_1_copy_7" data-name="Color Fill 1 copy 7" class="cls-5" d="M196.381,299.461c-0.021-.149-0.042-0.344-0.062-0.453-17.584-93.593-8.607-257.165-8.025-267.621,17.066,1.532,118.922,10.689,134.228,8.136,0,0-4.9,226.745-10.654,245.252C232.451,299.013,197.858,299.413,196.381,299.461Zm37.277-168.643c-7.969.795-18.715-1.191-20.481-16.792-1.772-15.65,11.207-18.617,16.773-18.906a17.056,17.056,0,0,1,17.009,15.5C248.364,122.022,242.677,129.917,233.658,130.818Z"/>
  <g id="TIME_MACHINE" data-name="TIME MACHINE">
    <path id="Color_Fill_1006" data-name="Color Fill 1006" class="cls-3" d="M204.678,193.08c1.388-1.181,8.227-4.384,8.227-4.384s-2.145-16.4-1.524-19.655,3.5,18.747,3.5,18.747,9.211-4.661,11.579-4.686-8.9,6.9-10.055,6.954,3.32,26.5,1.523,21.771-4.113-20.259-4.113-20.259S200.545,196.6,204.678,193.08Zm32.755,12.246c-2.106.311-7.692-40.043-5.637-40.669S239.538,205.016,237.433,205.326Zm10.055-3.78c-1.562,0,1.234-38.738,4.723-39.006s12.34,19.655,12.34,19.655,2.335-23.743,4.418-23.737,13.863,36.587,13.863,36.587c-1.771,1.172-13.27-29.289-13.559-32.2s-2.291,22.476-3.5,22.526-12.8-19.654-12.8-19.654S249.554,201.546,247.488,201.546Zm44.79-46.867c-1.444.269-12.9,4.263-12.34,6.954s7.681,29.6,9.141,29.33,21.378-4.263,20.719-6.954c-0.079-.322-15.18,4.184-17.52,4.384-2.921.25-2.9-5.291-2.9-5.291s16.019-6.615,15.083-7.862-15.742,6.737-16.606,3.477-5.637-16.177-5.637-16.177S293.722,154.409,292.278,154.679Z"/>
    <path id="Color_Fill_1007" data-name="Color Fill 1007" class="cls-3" d="M196.908,263.684s-1.59-39.708,3.5-40.82,6.856,19.654,6.856,19.654,2.387-21.3,5.332-21.62,10.631,38.256,9.446,40.065-9.141-34.773-9.141-34.773-4.171,18.558-5.637,19.805-4.827-20.348-6.246-19.805S198.385,263.977,196.908,263.684Zm30.47-6.2s-2.007-31,.609-31.9,17.234,27.92,15.387,29.33-13.711-24.038-13.711-24.038l-0.305,9.978s1.03-.8,3.352.3-2.742,1.966-2.742,1.966S229.74,255.435,227.378,257.485Zm19.2-38.1c-5.414,4.775-5.477,16.858-3.047,21.771s4.963,13.448,14.473,7.862,4.577-4.819-1.371-2.419-8.847-2.189-10.055-6.047-4.917-11.68,1.218-19.05S251.592,214.961,246.574,219.386Zm12.34-4.082c0.179,5.058,3.385,30.317,4.113,24.644a73.1,73.1,0,0,0,.305-11.188l4.723-1.209s1.62,12,3.047,14.967-1.616-31.078-3.047-32.807,0,14.06,0,14.06l-5.332,2.116S258.451,202.209,258.914,215.3Zm13.559-2.116c-0.488-1.165,3.142,28.33,3.961,27.969S276.644,223.159,272.473,213.188Zm9.141,24.946c-0.63,1.248-5.028-26.108-3.809-28.423s11.366,19.923,12.492,19.351-1.044-28.012,4.876-31.3c4.058-2.251-.966,4.98-2.133,8.769s-1.174,27.765-2.133,26.911-10.665-17.538-10.665-17.538S283.385,234.618,281.614,238.134Zm22.857-32.842s-8.556,3.3-8.222,6.544-0.849,18.552,1.973,19.141,16.609-3.736,15.292-4.745-12.183,3.622-13.739,1.775a6.029,6.029,0,0,1-1.48-3.787l4.367-4.041-4.483.932,0.092-9.528S308.613,202.755,304.471,205.292Z"/>
  </g>
  <path id="Color_Fill_991" data-name="Color Fill 991" class="cls-3" d="M233.714,131.663c-12.427.568-21.421-4.92-21.421-18.845,0-13.9,9.531-18.783,20.287-18.291,10.625,0.486,16.886,8.647,16.886,18.317S244.529,131.168,233.714,131.663Zm-0.056-1.148c-7.969.8-18.411-.888-20.177-16.489-1.771-15.65,10.9-18.315,16.469-18.6,5.781-.3,15.288,3.7,16.7,15.194C248.059,122.022,242.677,129.615,233.658,130.515Z"/>
  <path id="Color_Fill_993" data-name="Color Fill 993" class="cls-4" d="M239.92,129.256s10.809-4.726,8.448-19.6c-1.152-7.259-5.84-11.766-10.652-13.33a19.04,19.04,0,0,1,9.731,15.127C248.7,125.112,239.92,129.256,239.92,129.256Z"/>
  <path id="Color_Fill_991_copy" data-name="Color Fill 991 copy" class="cls-3" d="M148.689,133.7c12.386,0.754,21.713-4.514,21.713-18.481,0-13.93-9.858-18.6-20.584-17.946-10.555.643-16.589,8.669-16.589,17.981S137.974,133.049,148.689,133.7Zm0.055-1.124c7.886,0.893,18.609-.562,20.432-16.151,1.831-15.657-11.222-18.115-16.731-18.313A16.442,16.442,0,0,0,135.958,113.1C134.6,124.117,139.8,131.564,148.744,132.578Z"/>
  <path id="Color_Fill_993_copy" data-name="Color Fill 993 copy" class="cls-6" d="M142.548,131.257S132,126.578,134.293,112.17c1.119-7.038,5.694-11.465,10.428-13.055a18.708,18.708,0,0,0-9.534,14.793C133.96,127.212,142.548,131.257,142.548,131.257Z"/>
</svg>
