<?xml version="1.0" encoding="UTF-8" standalone="no"?>
<!DOCTYPE svg PUBLIC "-//W3C//DTD SVG 1.1//EN" "http://www.w3.org/Graphics/SVG/1.1/DTD/svg11.dtd">
<svg width="100%" height="100%" viewBox="0 0 360 360" version="1.1" xmlns="http://www.w3.org/2000/svg" xmlns:xlink="http://www.w3.org/1999/xlink" xml:space="preserve" xmlns:serif="http://www.serif.com/" style="fill-rule:evenodd;clip-rule:evenodd;stroke-linecap:round;stroke-linejoin:round;stroke-miterlimit:1.5;">
    <g transform="matrix(1,0,3.46945e-18,0.581395,2.66667,128.054)">
        <ellipse cx="178" cy="286" rx="161.333" ry="57.333" style="fill:rgb(49,50,61);fill-opacity:0.301961;"/>
    </g>
    <g transform="matrix(1,0,0,1,-1258.64,-996.343)">
        <g transform="matrix(0.249149,0,0,0.249149,1082.92,881.38)">
            <g transform="matrix(0.986037,0.0198657,-0.0199853,0.991973,41.5443,-23.0896)">
                <path d="M1435.08,713.552C1467.66,699.642 1501.26,685.781 1536.26,678.963C1573.63,671.682 1612.26,667.069 1650.33,665.751C1679.41,664.744 1700.47,666.058 1730.22,670.479C1831.09,685.469 1935.04,727.044 1985.14,821.672C1994.31,838.977 2000.54,857.719 2004.71,876.807C2009.62,899.275 2009.94,921.78 2009.44,944.682C2009.21,955.375 2008.37,979.48 2005.97,989.554C2003.98,997.915 2000.56,1005.89 1997.22,1013.81C1988.87,1033.63 1981.74,1043.47 1966.41,1057.12C1963.34,1059.85 1948.94,1068.49 1951.49,1075.74C1954.79,1085.13 1966.8,1088.42 1970.44,1097.66C1975.91,1111.51 1981.26,1125.44 1985.66,1139.67C1999.56,1184.53 2009.15,1231.87 2014.45,1278.38C2016.43,1295.69 2025.8,1323.25 2026.22,1340.69C2027.76,1405.1 2019,1482.85 2008.31,1538.67C2004.56,1558.26 2001.69,1577.22 1995.44,1596.59C1986.22,1625.18 1971.98,1647.25 1948.13,1665.92C1909.44,1696.21 1863.28,1687.16 1818.5,1678.2C1789.78,1672.45 1761.26,1665.7 1732.44,1660.5C1657.84,1647.06 1582.2,1637.82 1506.33,1637.13C1446.62,1636.58 1393.33,1641.22 1332.17,1643.91C1233.9,1648.25 1136.09,1652.96 1037.95,1659.61C989.824,1662.87 969.379,1664.35 920.649,1664.28C907.514,1664.26 893.937,1663.86 882.99,1655.7C857.272,1636.52 860.848,1598.38 860.42,1570.34C859.662,1520.72 862.683,1471.19 861.586,1421.59C860.841,1387.92 859.481,1354.26 858.361,1320.6C855.606,1237.73 854.099,1237.92 855.671,1155.01C856.063,1134.31 855.903,1107.25 859.425,1085.5C862.63,1065.69 866.935,1048.3 884.786,1037.22C887.915,1035.28 891.266,1033.64 894.744,1032.43C899.709,1030.7 913.036,1031.04 912.817,1022.03C912.441,1006.54 899.409,993.918 892.995,981.185C889.768,974.778 886.173,959.465 884.651,952.56C879.229,927.969 873.482,903.334 877.928,878.08C882.608,851.505 893.736,823.574 909.387,801.417C924.916,779.432 941.588,755.239 963.24,738.385C993.793,714.6 1028.39,700.719 1065.54,690.962C1080.37,687.067 1108.2,679.805 1126.01,677.285C1153.38,673.415 1199.95,674.259 1218.84,674.269C1237.25,674.279 1255.68,674.309 1274.06,675.427C1329.43,678.797 1385.27,687.902 1435.08,713.552M1436.23,819.053C1505.08,819.053 1572.39,832.794 1636.23,858.35C1683.39,877.234 1726.65,905.103 1764.42,938.928C1790.83,962.586 1813.65,991.243 1830.86,1022.23C1847.63,1052.45 1859.94,1086.53 1863.88,1121C1867.04,1148.68 1866.97,1165.06 1863.88,1192.74C1850.12,1316.11 1752.74,1416.77 1646.28,1470.61C1618.68,1484.57 1589.56,1495.81 1559.75,1504.08C1519.54,1515.24 1477.96,1520.98 1436.23,1521.05C1406.63,1521.11 1382.08,1518.6 1352.89,1513.92C1322.96,1509.11 1293.29,1500.59 1264.95,1489.91C1142.34,1443.67 1027.54,1342.44 1011.2,1205.92C1008.02,1179.34 1008.22,1160.76 1011.2,1134.19C1015.14,1099.14 1027.32,1064.49 1043.84,1033.48C1060.86,1001.55 1083.36,971.771 1109.61,946.838C1146.8,911.529 1189.64,881.815 1236.84,861.443C1300.04,834.167 1367.24,819.053 1436.23,819.053" style="fill:rgb(196,126,51);stroke:rgb(49,50,61);stroke-width:21.07px;"/>
            </g>
            <g transform="matrix(0.938539,0.0189088,-0.0188514,0.935691,108.439,43.5085)">
                <path d="M1435.08,713.552C1467.9,699.541 1501.26,686.44 1536.26,678.963C1561.75,673.518 1592.43,670.459 1617.16,668.053C1637.67,666.056 1662.97,664.678 1683.58,665.753C1724.85,667.904 1766.79,676.145 1806.24,687.28C1844,697.935 1875.23,711.78 1907.63,734.37C1928.28,748.768 1956.93,778.802 1971.13,798.901C1992.68,829.396 2002,858.556 2008.15,895.971C2010.99,913.261 2009.48,977.381 2005.97,989.554C2001.38,1005.44 1993.89,1022.52 1985.98,1037.01C1979.9,1048.16 1951.54,1067.68 1950.98,1072.38C1950.02,1080.43 1967.94,1091.66 1970.44,1097.66C1986.29,1135.59 1986.35,1143.23 1996.87,1182.94C1999.9,1194.38 2002.89,1205.86 2004.87,1217.53C2008.66,1239.96 2016.97,1313.46 2017.28,1333.49C2017.69,1359.62 2020.63,1432.76 2018.85,1458.79C2017.19,1483.19 2011.09,1509.08 2009,1533.45C2006.63,1561.16 2002.5,1586.67 1989.81,1612.04C1979.49,1632.66 1965.69,1652.19 1948.13,1665.92C1926.16,1683.11 1901.81,1690.36 1873.39,1686.71C1857.63,1684.69 1834.18,1680.74 1818.5,1678.2C1788.53,1673.34 1762.41,1665.35 1732.44,1660.5C1661.82,1649.1 1635.84,1644.64 1564.42,1639.11C1527.94,1636.28 1459.27,1637.52 1422.89,1638.76C1402.21,1639.47 1267.17,1648.77 1226.31,1647.83C1212.33,1647.51 1081.75,1655.63 1037.95,1659.61C1002.14,1662.87 914.281,1667.34 895.508,1661.87C876.863,1656.44 865.967,1638.72 863.608,1621.66C860.794,1601.31 859.193,1542.04 859.792,1511C860.366,1481.25 861.811,1451.08 861.586,1421.59C861.329,1387.91 855.455,1253.29 854.869,1219.61C854.495,1198.08 855.268,1176.54 855.671,1155.01C856.247,1124.23 855.63,1092.7 864.384,1062.8C868.548,1048.58 881.072,1037.34 894.744,1032.43C899.357,1030.78 913.202,1030.79 912.817,1022.03C912.159,1007.07 899.061,993.515 892.995,981.185C889.856,974.805 886.085,959.438 884.651,952.56C879.791,929.247 872.875,903.697 877.663,879.53C883.313,851.019 894.73,825.776 909.387,801.417C916.791,789.111 951.286,747.589 963.24,738.385C995.629,713.446 1024.88,699.685 1065.54,690.962C1085.45,686.691 1126.1,675.513 1146.35,675.358C1196.1,674.975 1241.64,672.398 1291.12,676.679C1338.42,680.772 1392.03,691.383 1435.08,713.552ZM1427.12,960.88C1436.19,960.66 1445.99,960.392 1456.3,960.087C1554.15,957.203 1699.13,951.128 1722.48,953.454C1809.59,962.135 1880.45,1025.44 1863.03,1151.98C1859.27,1179.29 1837.91,1210.39 1828.16,1231.72C1757.85,1385.6 1629.65,1528.14 1450.93,1530.09C1224.41,1532.56 1060.15,1307.43 1045.99,1265.69C1036.55,1237.87 1007.02,1203.3 1000.2,1166.6C987.169,1096.52 1026.54,1002.77 1107.41,981.813C1142.28,972.78 1313.89,963.62 1427.12,960.88Z" style="fill:url(#_Linear1);"/>
            </g>
            <g transform="matrix(0.944692,0.0190327,-0.0191408,0.950059,99.8865,28.4815)">
                <path d="M1427.12,960.88C1485.02,959.478 1542.89,957.104 1600.78,955.339C1675.59,953.059 1764.12,938.969 1822.76,998.062C1851.11,1026.63 1864.55,1067.87 1865.57,1107.47C1866.02,1125.03 1864.15,1145.31 1857.73,1162.31C1848.43,1186.91 1841.41,1197.41 1829.3,1220.43C1802.27,1271.76 1796.98,1281.85 1767.55,1327.26C1720.03,1400.57 1656.5,1466.27 1575.85,1502.64C1537.52,1519.93 1493.39,1531.72 1450.93,1530.09C1416.91,1528.78 1395.57,1526.8 1362.53,1518.42C1248.46,1489.5 1146.74,1408.74 1083.26,1310.56C1077.37,1301.45 1062.6,1286.95 1057.99,1275.28C1053.14,1263.03 1020.09,1208.21 1008.6,1182.65C1000.74,1165.15 997.89,1136.62 999.562,1118.36C1003.47,1075.72 1023.52,1039.37 1055.38,1010.1C1082.62,985.085 1120.54,978.173 1156.15,975.117C1183.37,972.781 1210.61,970.688 1237.88,968.987C1295.09,965.416 1369.81,962.267 1427.12,960.88" style="fill:none;stroke:rgb(49,50,61);stroke-width:14.48px;"/>
            </g>
            <g transform="matrix(0.999998,-0.00191764,0.00191764,0.999998,-2.25742,2.75124)">
                <path d="M898.441,1063.39C873.783,1111.64 884.751,1244.44 888.562,1361.57C891.458,1450.54 879.496,1535.91 889.108,1605.72C899.119,1634.98 1174.88,1620.47 1430.44,1605.05C1514.18,1603.51 1626.85,1619.25 1840.11,1664.72C1915.27,1672.74 1965.01,1612.23 1970.44,1489.06C1984.88,1417.65 1982.74,1330.11 1970.78,1258.39C1953.18,1359.81 1968.73,1475.79 1923.38,1534.72C1902.89,1561.36 1871.11,1592.64 1809.4,1582.99C1796.15,1580.92 1674.76,1578.86 1639.78,1580.72C1413.57,1587.95 1177.39,1594.52 988.775,1568.7C880.245,1535.09 923.131,1305.62 898.441,1063.39Z" style="fill:rgb(49,50,61);fill-opacity:0.14902;"/>
            </g>
            <g transform="matrix(0.999998,-0.00191764,0.00191764,0.999998,-2.25742,2.75124)">
                <path d="M918.775,918.719C900.7,901.011 927.571,844.488 930.775,832.719C937.559,807.793 998.661,727.612 1100.11,705.719C1153.07,694.29 1258.96,681.516 1376.44,712.719C1399.24,718.774 1447.11,736.719 1447.11,736.719C1446.37,731.886 1526.89,705.388 1566.78,701.053C1614.88,695.823 1697.58,691.987 1751.11,707.719C1760.77,710.559 1819.65,725.372 1864.5,751.072C1892.94,767.366 1905.59,790.084 1928.23,804.796C1951.22,819.727 1889.03,777.317 1791.17,742.737C1698.94,710.149 1570.82,699.797 1447.44,764.053C1446.86,761.814 1345.01,736.711 1295.18,731.031C1241.08,724.864 1181.08,720.333 1125.44,731.386C1092.16,737.997 1046.68,752.706 1012.87,779.721C951.97,828.393 928.344,876.378 918.775,918.719Z" style="fill:rgb(49,50,61);fill-opacity:0.152941;"/>
            </g>
            <g transform="matrix(0.995074,-0.099138,0.099138,0.995074,-153.581,109.304)">
                <ellipse cx="1082.44" cy="874.053" rx="20" ry="25" style="fill:rgb(208,152,92);"/>
            </g>
            <g transform="matrix(0.995074,-0.099138,0.099138,0.995074,-166.33,142.732)">
                <ellipse cx="1157.44" cy="799.053" rx="20" ry="10" style="fill:rgb(208,152,92);"/>
            </g>
            <g transform="matrix(0.995074,-0.099138,0.099138,0.995074,-173.879,107.306)">
                <ellipse cx="1164.94" cy="909.053" rx="12.5" ry="25" style="fill:rgb(208,152,92);"/>
            </g>
        </g>
    </g>
    <g transform="matrix(0.752089,0,0,0.808383,34.5961,36.1078)">
        <rect x="-46" y="-44.667" width="478.667" height="445.333" style="fill:rgb(49,50,61);fill-opacity:0;"/>
    </g>
    <defs>
        <linearGradient id="_Linear1" x1="0" y1="0" x2="1" y2="0" gradientUnits="userSpaceOnUse" gradientTransform="matrix(-154.166,1516.79,-1512.19,-154.635,1824.91,718.527)"><stop offset="0" style="stop-color:rgb(247,235,218);stop-opacity:1"/><stop offset="0.65" style="stop-color:rgb(243,226,201);stop-opacity:1"/><stop offset="0.84" style="stop-color:rgb(233,201,155);stop-opacity:1"/><stop offset="1" style="stop-color:rgb(221,171,100);stop-opacity:1"/></linearGradient>
    </defs>
</svg>
