<svg xmlns="http://www.w3.org/2000/svg" width="300" height="300" viewBox="0 0 300 300">
  <defs>
    <style>
      .cls-1, .cls-13, .cls-14, .cls-9 {
        fill: #fff;
      }

      .cls-2, .cls-6 {
        fill: #31323d;
      }

      .cls-10, .cls-11, .cls-12, .cls-13, .cls-15, .cls-2, .cls-3, .cls-4, .cls-5, .cls-6, .cls-7, .cls-8, .cls-9 {
        fill-rule: evenodd;
      }

      .cls-3 {
        fill: #f44f6c;
      }

      .cls-4 {
        fill: #dc4560;
      }

      .cls-5 {
        fill: #ffebe9;
      }

      .cls-6 {
        fill-opacity: 0.4;
      }

      .cls-7 {
        fill: #ffef85;
      }

      .cls-8 {
        fill: #d5c873;
      }

      .cls-14, .cls-9 {
        fill-opacity: 0.33;
      }

      .cls-10 {
        fill: #dec8ff;
      }

      .cls-10, .cls-11, .cls-12 {
        fill-opacity: 0.5;
      }

      .cls-11 {
        fill: #c0ddff;
      }

      .cls-12 {
        fill: #c4ffcb;
      }

      .cls-15 {
        fill: #dbdbdb;
      }
    </style>
  </defs>
  <rect class="cls-1" x="-1" width="301" height="300"/>
  <path id="Color_Fill_2" data-name="Color Fill 2" class="cls-2" d="M224.108,161c4.553-.064,7.663,1.148,11.021,1.618l3.692-.174a29.5,29.5,0,0,1,8.482,2.2c2.5,1.1,4.4,3.016,6.635,4.16,2.554,1.3,5.24,1.556,7.5,2.889,2.357,1.388,3.662,3.419,5.655,5.026,5.405,4.36,10.594,8.962,14.309,14.965,1.523,2.46,1.541,5.313,2.943,8.262,3.438,7.233,8.784,16.147,7.443,27.56A36.733,36.733,0,0,1,290,236.113q-0.807,1.7-1.615,3.409-0.058,2.339-.116,4.68a38.83,38.83,0,0,1-2.538,9.533c-3.371,8.029-8.976,12.3-14.771,17.795-2.222,2.106-3.451,4.918-5.886,6.876-4.5,3.615-9.209,5.087-15.348,7.338-6.567,2.408-11.444,5.1-20.194,6.124a23.677,23.677,0,0,1-12.348-2.195l-2.654-1.618-5.943-.636a47.931,47.931,0,0,1-14.136-5.084c-8.22-4.723-11.52-10.183-16.906-17.622q-2.193-2.283-4.385-4.565a44.842,44.842,0,0,1-8.136-18.142,35.808,35.808,0,0,1-.865-11.44q0.2-2.542.4-5.084a44.185,44.185,0,0,1,1.384-19.645,45.194,45.194,0,0,1,8.194-14.617l4.1-4.392c5.687-8.182,10.092-13.8,20.08-17.737,2.748-1.083,5.749-1.4,8.77-2.485,2.319-.83,4.553-2.573,7.1-3.524C217.252,161.935,220.466,161.892,224.108,161Z"/>
  <path id="Color_Fill_3_copy_2" data-name="Color Fill 3 copy 2" class="cls-3" d="M275.068,189.558s5.261,4.877,5.836,11.575c0,0,13.324,21.3,3.856,37.726,0,0,2.4,16.5-16.508,30.28,0,0-4.519,9.64-19.965,13.326,0,0-20.068,11.455-32.86,2.027a40.661,40.661,0,0,1-35.054-22.085s-15.295-11.612-12.121-36.661c0,0-5.358-19.048,12.923-36.732,0,0,6.2-15.091,27.306-19.077,0,0,12.516-8.805,26.337-3.654,0,0,7.967-1.935,17.592,5.792,0,0,8.285,1.556,12.31,7.394C264.72,179.469,268.923,181.469,275.068,189.558Z"/>
  <path id="Color_Fill_1" data-name="Color Fill 1" class="cls-4" d="M181.175,189.014S185.5,178.5,199.2,172.705c-4.038,3.077-6.819,6.881-10.3,12.03l-4.583,4.929a42.327,42.327,0,0,0-9,22.125c-0.428,3.472.439,6.838,0.67,9.691,0.266,3.281-.75,7.492-0.279,11.146,1.136,8.821,3.808,15.475,8.105,21.062l4.3,4.425,3.242,5.321a39.239,39.239,0,0,0,15.6,12.939,46.381,46.381,0,0,0,10.564,3.305l5.646,0.5,2.683,1.68a20.933,20.933,0,0,0,11.347,2.017,50.193,50.193,0,0,0,13.862-3.361l4.974-2.409c2.057-.726,3.987-1.191,5.849-1.849a35.8,35.8,0,0,1-13.6,6.2s-20.068,11.455-32.86,2.027a40.661,40.661,0,0,1-35.054-22.085s-15.295-11.612-12.121-36.661C168.252,225.746,162.894,206.7,181.175,189.014Z"/>
  <path id="K4C" class="cls-5" d="M214.891,251.415a1.62,1.62,0,0,0-.618.89c-0.042.123-.124,0.338-0.248,0.645a3.616,3.616,0,0,1-.525.89,2.943,2.943,0,0,1-.8.706,1.435,1.435,0,0,1-1.144.092q-1.362-.369-1.578-2.364a47.619,47.619,0,0,1-.092-6.046,64.408,64.408,0,0,0-.124-6.906,22.5,22.5,0,0,0-1.33-6.293,15.353,15.353,0,0,0-3.092-5.064,12.393,12.393,0,0,0-5.411-3.284,36,36,0,0,0,3-3.5q1.7-2.211,3.247-4.635t2.69-4.666a12.626,12.626,0,0,0,1.33-3.468,1.966,1.966,0,0,0-.247-1.6,2.3,2.3,0,0,0-1.021-.767,2.615,2.615,0,0,0-1.175-.154,0.961,0.961,0,0,0-.773.368q-1.98,3.561-3.8,6.968A47.633,47.633,0,0,1,199,219.708v-2.67q0-1.626.031-3.254t0.031-2.977v-1.9a2.654,2.654,0,0,0-.65-2.118,5.1,5.1,0,0,0-2.071-.828,17.991,17.991,0,0,0-2.2-.307q-1.762-.185-3.773-0.369t-3.772-.307a15.978,15.978,0,0,0-2.258-.061,2.933,2.933,0,0,0-1.391.491,4.911,4.911,0,0,0-1.082.952,4.123,4.123,0,0,0-.65,1.043,2.317,2.317,0,0,0-.216.829q0.184,4.543.34,8.471t0.031,8.472q-0.124,4.419-.124,9.085t0.062,9.208a11.976,11.976,0,0,0-.031,1.535c0.02,0.574.062,1.1,0.124,1.6s0.133,0.921.216,1.289a1.131,1.131,0,0,0,.309.675,3.713,3.713,0,0,0,1.547.338q1.173,0.092,2.752.123t3.37,0q1.794-.03,3.4-0.123t2.783-.153a14.247,14.247,0,0,0,1.484-.123,1.3,1.3,0,0,0,1.175-.982,6.629,6.629,0,0,0,.248-1.842q0-4.175-.093-7.7t-0.155-7.7a3.2,3.2,0,0,0-.031-0.461q-0.031-.215.279-0.276a1.443,1.443,0,0,1,.711.123,6.576,6.576,0,0,1,1.391.675,8.85,8.85,0,0,1,1.67,1.381,7.713,7.713,0,0,1,1.485,2.3,18.736,18.736,0,0,1,1.577,6.845,70.908,70.908,0,0,1-.093,8.564,11.454,11.454,0,0,0,1.082,6.2,5.963,5.963,0,0,0,4.3,3.131,3.874,3.874,0,0,0,2.876-.338,6.735,6.735,0,0,0,2.01-1.78,8.105,8.105,0,0,0,1.175-2.118,10.437,10.437,0,0,0,.433-1.412,1.631,1.631,0,0,0-1.732-1.965A0.972,0.972,0,0,0,214.891,251.415Zm0.247-39.472q-1.485,1.689-2.876,3.407t-2.5,3.223a11.384,11.384,0,0,0-1.422,2.3,6.57,6.57,0,0,0-.124.829,11.717,11.717,0,0,0-.062,1.228c0,0.429.021,0.85,0.062,1.258a2.25,2.25,0,0,0,.248.921,2.6,2.6,0,0,0,1.762,1.013,19.524,19.524,0,0,0,3.34.46q1.948,0.125,4.2.062t4.33-.154q2.07-.091,3.71-0.184a19.574,19.574,0,0,1,2.381-.031,1.041,1.041,0,0,1,.928,1.2q0.061,1.137-.062,4.021v8.1a2.467,2.467,0,0,0,1.3,1.566,4.308,4.308,0,0,0,2.1.583,4.832,4.832,0,0,0,1.36-.246,12.67,12.67,0,0,0,1.546-.583,6.568,6.568,0,0,0,1.268-.736,1.057,1.057,0,0,0,.526-0.706,7.757,7.757,0,0,0,.216-1.811q0.093-1.566.155-3.868t0.062-4.972q0-2.67.031-5.157t0.031-4.481v-2.854q0-.859.093-3.438t0.092-5.525q0-2.946-.092-5.678a16.159,16.159,0,0,0-.464-3.9,8.183,8.183,0,0,0-1.237-.369,15.862,15.862,0,0,0-2.289-.368,18.832,18.832,0,0,0-2.628-.062,4.886,4.886,0,0,0-2.195.553,25.416,25.416,0,0,0-2.227,1.872q-0.927.891-2.1,2.087t-2.783,2.978q-1.608,1.78-4.205,4.665Q216.622,210.255,215.138,211.943Zm4.236,4.267q1.453-1.781,3.031-3.53t3.309-3.591q1.729-1.842,3.834-3.929,0,0.737.031,1.78t0.031,2.026q0,0.983-.031,1.78t-0.031,1.044c-0.042.451-.062,1.023-0.062,1.719s0.01,1.433.031,2.21,0.031,1.555.031,2.332a14.481,14.481,0,0,1-.124,2.026q-1.608.125-3.525,0.215t-3.711.092q-1.794,0-3.339-.092a18.968,18.968,0,0,1-2.474-.276Q217.92,217.99,219.374,216.21Zm55.413,19.152a3.632,3.632,0,0,0-1.051.092,3.8,3.8,0,0,0-.928.337,1.076,1.076,0,0,0-.525.522,9.327,9.327,0,0,1-.526,1.2,9.93,9.93,0,0,1-1.237,1.9,7.677,7.677,0,0,1-1.825,1.627,3.337,3.337,0,0,1-2.35.491q-1.052-.185-1.762-2.179a24.879,24.879,0,0,1-1.113-4.758q-0.4-2.762-.557-5.74t-0.093-5.064q0.123-2.517.093-5.709a49.832,49.832,0,0,1,.278-5.985,15.436,15.436,0,0,1,1.144-4.635,2.446,2.446,0,0,1,2.629-1.658,2.817,2.817,0,0,1,2.01,1.228,19.049,19.049,0,0,1,1.206,2.824q0.123,0.308.309,0.921a11.7,11.7,0,0,0,.464,1.258q0.278,0.645.556,1.2a1.742,1.742,0,0,0,.588.737,2.555,2.555,0,0,0,1.422.46A1.5,1.5,0,0,0,274.54,214a2.132,2.132,0,0,0,.556-1.044,2.881,2.881,0,0,0,.031-1.258q-0.433-1.657-1.175-3.653a8.356,8.356,0,0,0-2.041-3.223,13.8,13.8,0,0,0-4.978-3.223,16.649,16.649,0,0,0-6.092-.951,13.78,13.78,0,0,0-7.916,2.3,19.424,19.424,0,0,0-5.628,5.862,27.879,27.879,0,0,0-3.34,7.889,33.821,33.821,0,0,0-1.113,8.44,35.346,35.346,0,0,0,1.422,9.393,20.169,20.169,0,0,0,4.948,8.1,11.248,11.248,0,0,0,5.566,3.161,20.948,20.948,0,0,0,6.772.553,23.049,23.049,0,0,0,6.463-1.443,12.774,12.774,0,0,0,4.639-2.824,8.448,8.448,0,0,0,1.608-1.688,12.325,12.325,0,0,0,1.206-2,5.151,5.151,0,0,0,.525-1.749,0.813,0.813,0,0,0-.433-0.952A1.019,1.019,0,0,0,274.787,235.362Z"/>
  <path class="cls-6" d="M62.5,271.608c22.92,0,41.5,4.565,41.5,10.2S85.42,292,62.5,292,21,287.435,21,281.8,39.58,271.608,62.5,271.608Z"/>
  <path id="Color_Fill_2-2" data-name="Color Fill 2" class="cls-2" d="M66.681,159.979s2.9,110.482,2.9,116.4-1.743,5.834-6.97,5.834c-8.132,0-7.551-6.909-7.551-6.909L51.579,160.857s-20.329-11.635-20.91-39.6C30.066,92.216,48.094,75,56.807,75s31.365,5.916,31.365,41.952S66.681,159.979,66.681,159.979ZM54.225,86.747c-3.255,0-10.844,3.144-10.844,30.071s4.611,31.553,8.015,31.951,18.388-3.154,18.388-31.011S57.481,86.747,54.225,86.747Z"/>
  <path id="Color_Fill_2_copy_3" data-name="Color Fill 2 copy 3" class="cls-2" d="M46.21,117.758c0,21.833,4.859,29.6,8.6,31.747a5.908,5.908,0,0,1-2,.674c-3.4.4-13.673-4.564-13.673-32.421S51.442,84.867,54.7,84.867a4.8,4.8,0,0,1,2.447.785C52.809,87.876,46.21,95.582,46.21,117.758Z"/>
  <path id="Color_Fill_2_copy" data-name="Color Fill 2 copy" class="cls-7" d="M62.909,158.1s2.9,113.131,2.9,119.047,0.589,5.234-3.2,5.234S58.836,280,58.836,280L54.88,158.507a43.5,43.5,0,0,1-20.439-37.253c0-26.773,15.016-42.5,22.366-42.5,8.561,0,27.593,6.535,27.593,38.193C84.4,152.987,62.909,158.1,62.909,158.1ZM57.054,84.867c-3.255,0-12.73,5.024-12.73,31.951s6.5,32.963,9.9,33.361,18.388-4.564,18.388-32.421S60.309,84.867,57.054,84.867Z"/>
  <path id="Color_Fill_3" data-name="Color Fill 3" class="cls-8" d="M69.313,86.747c-0.876-1.042.079-2.616,0.918-3.65a26.639,26.639,0,0,1,3.64,2.944C72.512,86.833,70.26,87.874,69.313,86.747Zm0,62.022c0.159-.907,2.742,1.407,4.016,2.613q-0.711.741-1.415,1.381C71.211,152.032,69.137,149.773,69.313,148.769ZM77.8,104.6c-0.153-1.483,3.139-2.05,4.96-2.251q0.4,1.613.715,3.364C81.458,105.916,77.95,106.054,77.8,104.6ZM75.914,128.1c0.046-1.965,5.274-1.782,7.924-1.563q-0.251,2.033-.6,3.9C80.444,130.346,75.871,129.925,75.914,128.1Zm4.722,11.563c-0.424,1.08-.874,2.095-1.344,3.056-2.553-.053-6.271-0.526-5.735-2.872C74.144,137.269,78.38,138.7,80.636,139.658ZM74.5,96.144c-0.271-1.3,2.92-3.232,4.2-3.948A33.626,33.626,0,0,1,80.3,95.268C78.334,96.056,74.744,97.318,74.5,96.144Zm2.829,19.264c-0.243-1.127,4.308-1.365,7.015-1.408q0.053,1.343.056,2.752C81.912,117.194,77.8,117.58,77.328,115.408Z"/>
  <path id="Color_Fill_2_copy_2" data-name="Color Fill 2 copy 2" class="cls-2" d="M41.5,117.758c0,23.411,7.917,30.649,12.466,32.128a5.035,5.035,0,0,1-1.15.293c-3.4.4-13.673-4.564-13.673-32.421S51.442,84.867,54.7,84.867a4.2,4.2,0,0,1,1.512.314C51.433,86.624,41.5,93.628,41.5,117.758Z"/>
  <g id="bubble_copy_14" data-name="bubble copy 14">
    <path id="Ellipse_2_copy_2" data-name="Ellipse 2 copy 2" class="cls-9" d="M55.52,87.057c9.386,1.776,14.826,14.943,14.064,30.5C68.242,144.914,56.825,148.224,52,148.968c-7.064,1.088-12.978-10.834-12.9-30.26C39.187,93.575,46.324,85.316,55.52,87.057Z"/>
    <path class="cls-10" d="M59.653,94.571c2.153,6.4.272,16.344-4.382,22.648-4.92,6.665-11.184,6.958-13.788.155-0.089-.233-0.172-0.472-0.25-0.714C42.216,102.4,49.1,92.233,56.147,92.89a7.656,7.656,0,0,1,3.292,1.133C59.51,94.206,59.588,94.378,59.653,94.571Z"/>
    <path id="Ellipse_3_copy" data-name="Ellipse 3 copy" class="cls-11" d="M59.439,94.023a10.558,10.558,0,0,1,1.9,1.5c0.154,0.436.3,0.887,0.428,1.361,2.252,8.235.241,19.854-4.539,27.1-5.137,7.791-12.193,8.615-15.647.36-0.125-.3-0.241-0.6-0.352-0.914-0.109-1.557-.146-3.17-0.1-4.835,0.02-.657.056-1.3,0.1-1.944,0.078,0.242.161,0.481,0.25,0.714,2.6,6.8,8.869,6.51,13.788-.155,4.654-6.3,6.535-16.252,4.382-22.648C59.588,94.378,59.51,94.206,59.439,94.023Z"/>
    <path id="Ellipse_3_copy_2" data-name="Ellipse 3 copy 2" class="cls-12" d="M60.819,132.905c4.987-7.9,7-20.374,4.586-29.977a25.543,25.543,0,0,0-.953-3.007c2.287,4.474,3.605,10.678,3.463,17.444-0.268,12.752-5.686,24.68-13.044,26.057-3.54.662-6.8-1.294-9.258-5.048C50.4,142.335,56.548,139.669,60.819,132.905Z"/>
    <path id="Color_Fill_1-2" data-name="Color Fill 1" class="cls-13" d="M65.855,125.122c-2.621.5-2.641-9.77-4.451-13.7-1.274-2.77-5.517-7.651-5.271-12.028,0.36-6.38,6.864,1.652,8.792,5.394C66.814,108.447,68.4,124.636,65.855,125.122Zm-21.207,1.939c2.857-4.638,9.067,6.607,7.427,11.051C49.738,144.444,41.7,131.85,44.648,127.061Z"/>
  </g>
  <circle id="Ellipse_2_copy_2-2" data-name="Ellipse 2 copy 2" class="cls-14" cx="152" cy="120" r="44"/>
  <path class="cls-15" d="M152,164a44,44,0,1,1,44-44A44,44,0,0,1,152,164Zm0-82.583A38.583,38.583,0,1,0,190.583,120,38.583,38.583,0,0,0,152,81.417Z"/>
  <path class="cls-10" d="M151.342,119.082c-12.193,8.761-27.327,8.513-33.8-.554-0.221-.308-0.425-0.624-0.62-0.944a35.2,35.2,0,0,1,44.132-31.563c0.214,0.26.443,0.5,0.641,0.779C168.168,95.868,163.535,110.321,151.342,119.082Z"/>
  <path id="Ellipse_3_copy-2" data-name="Ellipse 3 copy" class="cls-11" d="M161.051,86.021a34.893,34.893,0,0,1,5.406,1.92,21.408,21.408,0,0,1,1.33,1.98c7.03,11.917,2,28.883-10.774,38.822-12.944,10.074-30.2,10.037-38.775-1.167-0.3-.392-0.582-0.794-0.852-1.2a35.489,35.489,0,0,1-.567-6.27c0-.848.041-1.687,0.1-2.52,0.2,0.32.4,0.636,0.62,0.944,6.476,9.067,21.61,9.315,33.8.554s16.826-23.214,10.35-32.282C161.494,86.524,161.265,86.281,161.051,86.021Z"/>
  <path id="Ellipse_3_copy_2-2" data-name="Ellipse 3 copy 2" class="cls-12" d="M152.028,155.361a35.039,35.039,0,0,1-23.334-8.864c11.858,6.194,27.36,4.206,38.785-4.565,13.9-10.669,19.164-29.095,11.272-43.413a28.56,28.56,0,0,0-3.225-4.664A35.263,35.263,0,0,1,152.028,155.361Z"/>
  <path id="Color_Fill_1-3" data-name="Color Fill 1" class="cls-13" d="M181.528,131.441c-7.651.38-8.379-14.6-13.812-20.379-3.762-4-15.647-10.836-15.283-17.024,0.532-9.07,19.152,1.852,25.021,7.26S189.179,131.06,181.528,131.441Zm-56,0c6.512-5.841,22.841,10.238,18.925,15.993C139,155.441,119.014,137.281,125.526,131.441Z"/>
  <g id="bubble_copy_20" data-name="bubble copy 20">
    <circle id="Ellipse_2_copy_2-3" data-name="Ellipse 2 copy 2" class="cls-14" cx="211.5" cy="35.5" r="26.5"/>
    <path class="cls-15" d="M211.5,62A26.5,26.5,0,1,1,238,35.5,26.5,26.5,0,0,1,211.5,62Zm0-49.738A23.238,23.238,0,1,0,234.738,35.5,23.238,23.238,0,0,0,211.5,12.262Z"/>
    <path class="cls-10" d="M211.1,34.947c-7.344,5.277-16.459,5.127-20.359-.334-0.133-.186-0.256-0.376-0.373-0.569a21.2,21.2,0,0,1,26.579-19.009c0.129,0.157.267,0.3,0.386,0.469C221.238,20.966,218.447,29.67,211.1,34.947Z"/>
    <path id="Ellipse_3_copy-3" data-name="Ellipse 3 copy" class="cls-11" d="M216.951,15.035a21.012,21.012,0,0,1,3.256,1.156,12.891,12.891,0,0,1,.8,1.192c4.234,7.177,1.2,17.4-6.489,23.381-7.8,6.068-18.186,6.045-23.353-.7-0.18-.236-0.351-0.478-0.513-0.724a21.355,21.355,0,0,1-.341-3.776c0-.511.024-1.016,0.06-1.518,0.117,0.193.24,0.383,0.373,0.569,3.9,5.461,13.015,5.611,20.359.334s10.134-13.981,6.233-19.442C217.218,15.338,217.08,15.192,216.951,15.035Z"/>
    <path id="Ellipse_3_copy_2-3" data-name="Ellipse 3 copy 2" class="cls-12" d="M211.517,56.8a21.1,21.1,0,0,1-14.054-5.339c7.142,3.73,16.478,2.534,23.36-2.749,8.369-6.425,11.541-17.523,6.788-26.146a17.191,17.191,0,0,0-1.942-2.809A21.237,21.237,0,0,1,211.517,56.8Z"/>
    <path id="Color_Fill_1-4" data-name="Color Fill 1" class="cls-13" d="M229.284,42.39c-4.608.229-5.046-8.791-8.319-12.273-2.266-2.411-9.423-6.527-9.2-10.253,0.32-5.463,11.534,1.115,15.069,4.372S233.892,42.161,229.284,42.39Zm-33.729,0c3.922-3.518,13.757,6.166,11.4,9.632C203.671,56.845,191.633,45.908,195.555,42.39Z"/>
  </g>
</svg>
