<?xml version="1.0" encoding="UTF-8" standalone="no"?>
<svg version="1.1" xmlns="http://www.w3.org/2000/svg" xmlns:xlink="http://www.w3.org/1999/xlink" xmlns:i="http://ns.adobe.com/AdobeIllustrator/10.0/" width="360" height="360">
	<g id="dp_dp001" transform="matrix(1,0,0,1,-7673.96,-2504.36)">
		<path id="dp_path002" fill="white" fill-rule="evenodd" d="M 7676.41,2507.15 L 8036.41,2507.15 L 8036.41,2867.15 L 7676.41,2867.15 Z "/>
		<path id="dp_path003" fill="#e5e5e5" fill-rule="evenodd" stroke="#e5e5e5" stroke-width="8" d="M 7919.5,2743 C 7944.08,2743 7964,2749.04 7964,2756.5 C 7964,2763.95 7944.08,2770 7919.5,2770 C 7894.92,2770 7875,2763.95 7875,2756.5 C 7875,2749.04 7894.92,2743 7919.5,2743 Z "/>
		<path id="dp_path004" fill="#e5e5e5" fill-rule="evenodd" stroke="#e5e5e5" stroke-width="8" d="M 7789.5,2768 C 7814.08,2768 7834,2774.04 7834,2781.5 C 7834,2788.95 7814.08,2795 7789.5,2795 C 7764.92,2795 7745,2788.95 7745,2781.5 C 7745,2774.04 7764.92,2768 7789.5,2768 Z "/>
		<path id="dp_path005" fill="#e5e5e5" fill-rule="evenodd" stroke="#e5e5e5" stroke-width="8" d="M 7843.5,2702 C 7868.08,2702 7888,2708.04 7888,2715.5 C 7888,2722.95 7868.08,2729 7843.5,2729 C 7818.92,2729 7799,2722.95 7799,2715.5 C 7799,2708.04 7818.92,2702 7843.5,2702 Z "/>
		<path id="dp_path006" fill="#ffccd8" fill-rule="evenodd" stroke="#31323d" stroke-width="7.33333" stroke-linejoin="round" stroke-linecap="round" d="M 7851.94,2629.58 C 7863.79,2611.97 7892,2611.16 7903.11,2622.84 S 7913.29,2651.02 7901.44,2668.63 C 7893.16,2681.83 7866.66,2712.96 7854.53,2713.58 S 7813.07,2683.38 7804.36,2670.51 C 7791.95,2653.37 7791.98,2637.19 7802.42,2625.74 S 7839.52,2612.43 7851.94,2629.58 Z "/>
		<path id="dp_path007" fill="#31323d" fill-rule="evenodd" fill-opacity="0.501961" d="M 7854.53,2713.58 C 7855.19,2716.67 7812.62,2686.67 7804.36,2670.51 C 7787.14,2645.99 7799.93,2628.63 7802.42,2625.74 S 7794.89,2636.04 7804.48,2654.94 C 7818.1,2681.79 7853.88,2710.49 7854.53,2713.58 Z "/>
		<path id="dp_path008" fill="#31323d" fill-rule="evenodd" fill-opacity="0.501961" d="M 7857.73,2710.05 C 7870.19,2687.98 7883.96,2682.47 7878.99,2683.96 C 7874.75,2685.23 7874.43,2707.16 7862.06,2709.62 C 7860.28,2709.97 7856.79,2711.7 7857.73,2710.05 Z "/>
		<path id="dp_path009" fill="#e75f5a" fill-rule="evenodd" stroke="#e75f5a" stroke-width="1.2" d="M 7832.44,2663.88 C 7832.83,2663.88 7833.33,2663.81 7833.94,2663.68 L 7834.45,2665.49 L 7829.23,2667.48 C 7828.55,2666.48 7827.97,2665.7 7827.5,2665.14 C 7826.62,2664.08 7825.56,2663.12 7824.32,2662.25 C 7823.96,2661.99 7823.56,2661.73 7823.12,2661.45 C 7820.47,2659.74 7819.15,2657.19 7819.15,2653.8 C 7819.15,2651.66 7819.64,2649.82 7820.61,2648.27 C 7821.65,2646.59 7823.12,2645.56 7824.99,2645.16 C 7825.41,2645.07 7825.87,2645.03 7826.39,2645.03 C 7828.57,2645.03 7830.33,2645.86 7831.66,2647.52 C 7832.93,2649.1 7833.57,2651.07 7833.57,2653.45 C 7833.57,2655.59 7833.09,2657.41 7832.13,2658.9 C 7831.12,2660.51 7829.66,2661.52 7827.77,2661.93 C 7828.77,2662.6 7829.51,2663.04 7829.97,2663.26 C 7830.84,2663.67 7831.66,2663.88 7832.44,2663.88 Z M 7826.33,2659.66 C 7827.42,2659.66 7828.22,2658.86 7828.76,2657.25 C 7829.14,2656.1 7829.33,2654.8 7829.33,2653.37 C 7829.33,2652.05 7829.14,2650.82 7828.74,2649.7 C 7828.2,2648.18 7827.42,2647.42 7826.39,2647.42 C 7825.04,2647.42 7824.12,2648.63 7823.63,2651.05 C 7823.46,2651.95 7823.37,2652.8 7823.37,2653.59 C 7823.37,2656.27 7823.9,2658.1 7824.96,2659.08 C 7825.36,2659.47 7825.82,2659.66 7826.33,2659.66 Z "/>
		<path id="dp_path010" fill="#e75f5a" fill-rule="evenodd" stroke="#e75f5a" stroke-width="1.2" d="M 7834.04,2645.27 C 7835.22,2645.39 7836.33,2645.45 7837.36,2645.45 L 7843.1,2645.45 C 7844.29,2645.45 7845.56,2645.36 7846.9,2645.18 L 7846.9,2650.33 L 7845.22,2650.33 L 7844.99,2649.67 C 7844.54,2648.33 7843.75,2647.66 7842.61,2647.66 L 7842.43,2647.66 L 7842.45,2656.91 C 7842.45,2657.96 7842.58,2658.65 7842.84,2658.97 C 7843.13,2659.34 7843.74,2659.52 7844.68,2659.52 L 7844.68,2661.36 L 7836.26,2661.36 L 7836.28,2659.52 L 7836.59,2659.5 C 7836.81,2659.48 7837.04,2659.46 7837.3,2659.43 C 7837.55,2659.42 7837.74,2659.37 7837.88,2659.28 C 7838.27,2659.01 7838.47,2658.29 7838.47,2657.12 L 7838.47,2647.69 L 7838.35,2647.69 C 7837.01,2647.69 7836.13,2648.57 7835.72,2650.33 L 7834.04,2650.33 Z "/>
		<path id="dp_path011" fill="#e75f5a" fill-rule="evenodd" stroke="#e75f5a" stroke-width="1.2" d="M 7865.63,2650.33 L 7863.9,2650.33 C 7863.83,2649.52 7863.54,2648.81 7863.02,2648.21 C 7862.5,2647.62 7861.87,2647.32 7861.13,2647.32 C 7858.73,2647.32 7857.53,2649.37 7857.53,2653.47 C 7857.53,2655.04 7857.76,2656.33 7858.23,2657.37 C 7858.85,2658.74 7859.8,2659.43 7861.09,2659.43 C 7861.98,2659.43 7862.68,2659.1 7863.2,2658.45 C 7863.68,2657.86 7863.98,2657.07 7864.11,2656.08 L 7865.89,2656.08 L 7865.87,2660.42 C 7864.23,2661.34 7862.49,2661.8 7860.65,2661.8 C 7858.35,2661.8 7856.54,2661.01 7855.23,2659.43 C 7853.95,2657.91 7853.31,2655.89 7853.31,2653.39 C 7853.31,2650.81 7854.02,2648.77 7855.43,2647.26 C 7856.84,2645.76 7858.75,2645.01 7861.15,2645.01 C 7861.68,2645.01 7862.09,2645.03 7862.36,2645.08 C 7862.59,2645.15 7862.99,2645.22 7863.57,2645.28 L 7864,2645.32 C 7864.51,2645.32 7865.05,2645.17 7865.63,2644.87 Z "/>
		<path id="dp_path012" fill="#e75f5a" fill-rule="evenodd" stroke="#e75f5a" stroke-width="1.2" d="M 7865.91,2659.48 C 7866.65,2659.48 7867.22,2659.2 7867.62,2658.64 C 7867.84,2658.33 7868.12,2657.69 7868.46,2656.72 L 7870.97,2649.67 C 7871.27,2648.82 7871.42,2648.27 7871.42,2648.02 C 7871.42,2647.55 7871.07,2647.31 7870.37,2647.31 L 7869.92,2647.31 L 7869.92,2645.45 L 7876.65,2645.45 L 7876.61,2645.98 C 7876.61,2646.02 7876.61,2646.07 7876.61,2646.11 C 7876.61,2646.6 7876.78,2647.32 7877.12,2648.28 L 7880.29,2657.07 C 7880.86,2658.68 7881.66,2659.48 7882.69,2659.48 L 7882.69,2661.36 L 7874.63,2661.36 L 7874.63,2659.46 C 7875.75,2659.46 7876.32,2659.15 7876.32,2658.53 C 7876.32,2658.28 7876.27,2657.97 7876.18,2657.59 C 7876.13,2657.42 7875.95,2656.86 7875.64,2655.9 L 7871.49,2655.9 L 7871.03,2657.23 C 7870.84,2657.79 7870.74,2658.25 7870.74,2658.6 C 7870.74,2659.01 7870.93,2659.27 7871.3,2659.37 C 7871.45,2659.42 7871.8,2659.44 7872.35,2659.44 L 7872.35,2661.36 L 7865.91,2661.36 Z M 7873.6,2649.25 C 7873.57,2649.46 7873.36,2650.18 7872.97,2651.42 L 7872.26,2653.61 L 7874.85,2653.61 L 7874.12,2651.47 C 7873.87,2650.74 7873.7,2650.01 7873.6,2649.25 Z "/>
		<path id="dp_path013" fill="#e75f5a" fill-rule="evenodd" stroke="#e75f5a" stroke-width="1.2" d="M 7880.48,2645.27 C 7881.66,2645.39 7882.76,2645.45 7883.8,2645.45 L 7889.54,2645.45 C 7890.73,2645.45 7891.99,2645.36 7893.34,2645.18 L 7893.34,2650.33 L 7891.66,2650.33 L 7891.43,2649.67 C 7890.98,2648.33 7890.19,2647.66 7889.05,2647.66 L 7888.87,2647.66 L 7888.89,2656.91 C 7888.89,2657.96 7889.02,2658.65 7889.28,2658.97 C 7889.56,2659.34 7890.18,2659.52 7891.12,2659.52 L 7891.12,2661.36 L 7882.7,2661.36 L 7882.72,2659.52 L 7883.03,2659.5 C 7883.24,2659.48 7883.48,2659.46 7883.74,2659.43 C 7883.99,2659.42 7884.18,2659.37 7884.32,2659.28 C 7884.71,2659.01 7884.91,2658.29 7884.91,2657.12 L 7884.91,2647.69 L 7884.79,2647.69 C 7883.45,2647.69 7882.57,2648.57 7882.16,2650.33 L 7880.48,2650.33 Z "/>
		<path id="dp_path014" fill="#9eeec5" fill-rule="evenodd" stroke="#31323d" stroke-width="7.33333" stroke-linejoin="round" stroke-linecap="round" d="M 7919.84,2676.59 C 7931.69,2658.97 7959.9,2658.17 7971.01,2669.85 S 7981.19,2698.03 7969.34,2715.64 C 7961.06,2728.84 7934.56,2759.97 7922.43,2760.59 S 7880.97,2730.39 7872.27,2717.52 C 7859.85,2700.37 7859.88,2684.2 7870.32,2672.75 S 7907.42,2659.44 7919.84,2676.59 Z "/>
		<path id="dp_path015" fill="#e75f5a" fill-rule="evenodd" d="M 7921.53,2693.31 C 7922.46,2693.59 7923.21,2694.12 7923.77,2694.9 C 7924.32,2695.68 7924.6,2696.6 7924.6,2697.64 C 7924.6,2699.01 7924.12,2700.1 7923.17,2700.91 C 7922.3,2701.68 7921.21,2702.06 7919.9,2702.06 L 7910.84,2702.06 L 7910.84,2700.2 L 7911.25,2700.2 C 7911.9,2700.2 7912.32,2699.95 7912.53,2699.45 C 7912.67,2699.13 7912.73,2698.57 7912.73,2697.77 L 7912.73,2689.93 C 7912.73,2689.18 7912.6,2688.68 7912.35,2688.43 C 7912.08,2688.2 7911.59,2688.08 7910.88,2688.08 L 7910.88,2686.15 L 7919.74,2686.15 C 7920.84,2686.15 7921.76,2686.49 7922.5,2687.19 C 7923.3,2687.91 7923.69,2688.85 7923.69,2690.02 C 7923.69,2691.54 7922.97,2692.63 7921.53,2693.31 Z M 7917.29,2692.54 C 7918.83,2692.54 7919.61,2691.84 7919.61,2690.45 C 7919.61,2689.06 7918.83,2688.37 7917.29,2688.37 L 7916.73,2688.37 L 7916.73,2692.54 Z M 7918.03,2700.02 C 7919.6,2700.02 7920.38,2699.08 7920.38,2697.2 C 7920.38,2696.29 7920.09,2695.64 7919.51,2695.25 C 7919.06,2694.96 7918.37,2694.82 7917.45,2694.82 L 7916.73,2694.82 L 7916.73,2697.84 C 7916.73,2698.51 7916.79,2699.01 7916.92,2699.31 C 7917.11,2699.79 7917.48,2700.02 7918.03,2700.02 Z "/>
		<path id="dp_path016" fill="#e75f5a" fill-rule="evenodd" d="M 7925.11,2700.17 L 7925.25,2700.17 L 7925.56,2700.15 C 7926.13,2700.1 7926.5,2699.97 7926.69,2699.75 C 7926.83,2699.59 7926.91,2699.17 7926.94,2698.48 L 7926.98,2697.49 L 7926.94,2689.58 C 7926.94,2688.96 7926.77,2688.53 7926.45,2688.29 C 7926.2,2688.12 7925.76,2688.03 7925.13,2688.03 L 7925.13,2686.15 L 7934.88,2686.13 C 7936.01,2686.13 7937.02,2686.04 7937.92,2685.86 L 7937.92,2691.03 L 7936.16,2691.03 C 7936.01,2689.98 7935.66,2689.27 7935.13,2688.89 C 7934.67,2688.57 7933.94,2688.41 7932.91,2688.41 L 7930.96,2688.41 L 7930.96,2692.47 L 7931.84,2692.47 C 7932.61,2692.47 7933.11,2692.35 7933.36,2692.12 C 7933.61,2691.88 7933.82,2691.35 7934,2690.53 L 7935.73,2690.53 L 7935.73,2696.99 L 7933.94,2696.98 C 7933.94,2695.91 7933.67,2695.24 7933.14,2694.98 C 7932.9,2694.86 7932.51,2694.8 7931.95,2694.8 L 7930.94,2694.8 L 7930.96,2698.29 C 7930.96,2698.94 7931.15,2699.38 7931.53,2699.62 C 7931.82,2699.79 7932.29,2699.88 7932.93,2699.88 C 7934.01,2699.88 7934.83,2699.69 7935.38,2699.31 C 7936.02,2698.85 7936.42,2698.06 7936.59,2696.97 L 7938.33,2696.97 L 7938.33,2702.3 C 7937.46,2702.14 7936.34,2702.06 7934.98,2702.06 L 7925.11,2702.06 Z "/>
		<path id="dp_path017" fill="#e75f5a" fill-rule="evenodd" d="M 7899.96,2712.63 L 7899.83,2714.79 L 7899.67,2719.99 C 7899.67,2720.06 7899.67,2720.13 7899.67,2720.21 C 7899.67,2721.81 7900.23,2722.61 7901.36,2722.61 C 7901.49,2722.61 7901.63,2722.65 7901.77,2722.73 L 7901.77,2724.47 L 7894.97,2724.47 L 7894.97,2722.61 L 7895.18,2722.64 C 7895.63,2722.64 7895.98,2722.56 7896.23,2722.41 C 7896.46,2722.27 7896.65,2721.98 7896.8,2721.55 C 7897.01,2720.97 7897.11,2720.19 7897.11,2719.23 C 7897.11,2718.68 7897.2,2717.25 7897.38,2714.95 C 7897.46,2713.89 7897.5,2713.03 7897.5,2712.37 C 7897.5,2711.06 7896.91,2710.41 7895.73,2710.41 L 7895.73,2708.54 L 7902.89,2708.54 C 7902.95,2709.2 7903.07,2709.85 7903.24,2710.46 C 7903.37,2710.89 7903.58,2711.49 7903.88,2712.28 C 7904.11,2712.88 7904.55,2714.04 7905.19,2715.77 C 7905.61,2716.92 7905.83,2718.15 7905.83,2719.45 C 7906.02,2718.41 7906.34,2717.23 7906.79,2715.92 C 7906.94,2715.55 7907.37,2714.42 7908.09,2712.52 C 7908.47,2711.52 7908.7,2710.87 7908.78,2710.58 C 7908.97,2709.94 7909.07,2709.27 7909.07,2708.54 L 7916.03,2708.54 L 7916.03,2710.45 L 7915.93,2710.47 C 7915.24,2710.47 7914.79,2710.62 7914.57,2710.91 C 7914.35,2711.22 7914.24,2711.76 7914.24,2712.52 C 7914.24,2713.2 7914.31,2714.62 7914.44,2716.77 C 7914.51,2717.84 7914.55,2718.69 7914.55,2719.3 C 7914.55,2720.23 7914.62,2720.92 7914.75,2721.36 C 7915,2722.15 7915.46,2722.56 7916.13,2722.59 L 7916.69,2722.61 L 7916.69,2724.47 L 7908.55,2724.47 L 7908.55,2722.64 L 7908.7,2722.66 C 7910,2722.66 7910.65,2722.17 7910.65,2721.2 L 7910.65,2720.72 C 7910.65,2720.04 7910.61,2718.91 7910.53,2717.34 C 7910.46,2716.1 7910.43,2715.11 7910.43,2714.36 C 7910.43,2714.22 7910.43,2714.1 7910.43,2713.98 L 7910.45,2712.97 C 7910.18,2713.95 7909.75,2715.26 7909.13,2716.9 L 7907.68,2720.74 C 7907.19,2722.01 7906.87,2723.27 7906.69,2724.52 L 7904.1,2724.94 L 7903.67,2723.3 L 7900.53,2714.49 C 7900.29,2713.79 7900.1,2713.17 7899.96,2712.63 Z "/>
		<path id="dp_path018" fill="#e75f5a" fill-rule="evenodd" d="M 7916.51,2722.57 L 7916.86,2722.57 C 7917.44,2722.57 7917.84,2722.47 7918.07,2722.26 C 7918.31,2722.06 7918.44,2721.65 7918.48,2721.03 L 7918.52,2720.34 L 7918.52,2712.63 C 7918.52,2711.72 7918.4,2711.12 7918.15,2710.84 C 7917.91,2710.56 7917.37,2710.42 7916.53,2710.42 L 7916.53,2708.54 L 7924.47,2708.54 L 7924.47,2710.44 L 7924.29,2710.44 C 7923.48,2710.44 7922.96,2710.59 7922.72,2710.89 C 7922.49,2711.19 7922.37,2711.8 7922.37,2712.7 L 7922.37,2720.63 C 7922.37,2721.43 7922.54,2721.96 7922.89,2722.24 C 7923.19,2722.48 7923.72,2722.6 7924.47,2722.6 L 7924.47,2724.46 L 7916.51,2724.46 Z "/>
		<path id="dp_path019" fill="#e75f5a" fill-rule="evenodd" d="M 7928.94,2712.88 C 7928.94,2713.07 7928.95,2713.35 7928.96,2713.73 C 7928.98,2714.12 7928.98,2714.41 7928.98,2714.6 L 7928.98,2719.99 C 7928.98,2720.82 7929.03,2721.38 7929.13,2721.69 C 7929.32,2722.31 7929.72,2722.62 7930.32,2722.62 C 7930.53,2722.62 7930.75,2722.58 7931,2722.51 L 7931,2724.47 L 7924.61,2724.47 L 7924.63,2722.56 L 7924.98,2722.58 C 7925.02,2722.58 7925.06,2722.58 7925.1,2722.58 C 7925.69,2722.58 7926.09,2722.3 7926.3,2721.74 C 7926.4,2721.43 7926.47,2720.84 7926.48,2719.97 L 7926.59,2712.73 C 7926.59,2712.65 7926.59,2712.59 7926.59,2712.52 C 7926.59,2711.93 7926.53,2711.49 7926.42,2711.2 C 7926.24,2710.69 7925.88,2710.43 7925.33,2710.43 L 7924.73,2710.49 L 7924.73,2708.54 L 7930.99,2708.54 C 7931.14,2709.22 7931.33,2709.75 7931.55,2710.13 C 7931.64,2710.3 7931.93,2710.77 7932.41,2711.55 L 7934.87,2715.57 C 7935.43,2716.48 7935.86,2717.52 7936.16,2718.69 C 7936.09,2718.03 7936.06,2717.08 7936.06,2715.84 L 7936.06,2714.42 C 7936.06,2714.36 7936.06,2714.19 7936.08,2713.91 C 7936.08,2713.91 7936.08,2713.61 7936.08,2713.01 L 7936.08,2712.19 C 7936.06,2712.1 7936.03,2711.94 7936,2711.71 C 7935.9,2711.12 7935.67,2710.74 7935.32,2710.58 C 7935.1,2710.47 7934.66,2710.42 7934.01,2710.42 L 7934.01,2708.54 L 7940.43,2708.54 L 7940.43,2710.38 C 7939.58,2710.38 7939.04,2710.64 7938.79,2711.16 C 7938.63,2711.48 7938.54,2712.16 7938.54,2713.19 L 7938.5,2722.56 C 7938.5,2722.81 7938.52,2723.12 7938.56,2723.51 C 7938.59,2723.8 7938.63,2724.13 7938.68,2724.48 L 7935.57,2725.01 C 7935.3,2724.27 7935,2723.57 7934.64,2722.89 C 7934.38,2722.4 7934,2721.74 7933.49,2720.9 L 7929.84,2714.84 C 7929.52,2714.3 7929.22,2713.64 7928.94,2712.88 Z "/>
		<path id="dp_path020" fill="#e75f5a" fill-rule="evenodd" d="M 7940.7,2722.57 L 7940.84,2722.57 L 7941.15,2722.55 C 7941.71,2722.5 7942.09,2722.37 7942.28,2722.14 C 7942.42,2721.98 7942.5,2721.56 7942.53,2720.88 L 7942.57,2719.88 L 7942.53,2711.97 C 7942.53,2711.35 7942.36,2710.93 7942.03,2710.69 C 7941.79,2710.51 7941.35,2710.42 7940.72,2710.42 L 7940.72,2708.54 L 7950.47,2708.52 C 7951.6,2708.52 7952.61,2708.44 7953.51,2708.26 L 7953.51,2713.43 L 7951.75,2713.43 C 7951.59,2712.38 7951.25,2711.67 7950.72,2711.29 C 7950.26,2710.96 7949.53,2710.8 7948.5,2710.8 L 7946.55,2710.8 L 7946.55,2714.86 L 7947.43,2714.86 C 7948.2,2714.86 7948.7,2714.74 7948.95,2714.51 C 7949.2,2714.27 7949.41,2713.74 7949.59,2712.92 L 7951.32,2712.92 L 7951.32,2719.38 L 7949.53,2719.37 C 7949.53,2718.3 7949.26,2717.64 7948.73,2717.37 C 7948.49,2717.25 7948.09,2717.2 7947.53,2717.2 L 7946.53,2717.2 L 7946.55,2720.68 C 7946.55,2721.33 7946.74,2721.78 7947.12,2722.01 C 7947.41,2722.19 7947.88,2722.28 7948.52,2722.28 C 7949.6,2722.28 7950.42,2722.09 7950.97,2721.7 C 7951.61,2721.24 7952.01,2720.46 7952.18,2719.36 L 7953.92,2719.36 L 7953.92,2724.7 C 7953.05,2724.54 7951.93,2724.46 7950.57,2724.46 L 7940.7,2724.46 Z "/>
		<path id="dp_path021" fill="#31323d" fill-rule="evenodd" fill-opacity="0.501961" d="M 7921.43,2760.59 C 7922.09,2763.68 7879.52,2733.68 7871.27,2717.52 C 7854.04,2693 7866.83,2675.64 7869.32,2672.75 S 7861.79,2683.05 7871.38,2701.95 C 7885,2728.8 7920.78,2757.5 7921.43,2760.59 Z "/>
		<path id="dp_path022" fill="#afd0f7" fill-rule="evenodd" stroke="#31323d" stroke-width="7.33333" stroke-linejoin="round" stroke-linecap="round" d="M 7788.26,2702.25 C 7800.11,2684.64 7828.32,2683.84 7839.44,2695.51 S 7849.61,2723.69 7837.76,2741.31 C 7829.48,2754.51 7802.98,2785.63 7790.85,2786.25 S 7749.39,2756.05 7740.69,2743.19 C 7728.27,2726.04 7728.31,2709.87 7738.74,2698.42 S 7775.85,2685.11 7788.26,2702.25 Z "/>
		<path id="dp_path023" fill="#e75f5a" fill-rule="evenodd" d="M 7771.39,2723.72 L 7772.56,2723.5 C 7772.81,2723.38 7772.98,2723.14 7773.08,2722.77 C 7773.1,2722.67 7773.14,2722.34 7773.2,2721.8 C 7773.21,2721.67 7773.22,2721.47 7773.22,2721.2 L 7773.22,2713.98 C 7773.22,2713.04 7773.14,2712.42 7772.97,2712.13 C 7772.74,2711.71 7772.22,2711.51 7771.41,2711.51 L 7771.41,2709.61 L 7779.09,2709.61 L 7779.09,2711.51 C 7778.23,2711.51 7777.68,2711.69 7777.45,2712.06 C 7777.27,2712.34 7777.18,2712.97 7777.18,2713.94 L 7777.18,2715.98 L 7781.45,2715.98 L 7781.45,2713.94 C 7781.45,2712.97 7781.37,2712.34 7781.19,2712.06 C 7780.95,2711.69 7780.4,2711.51 7779.54,2711.51 L 7779.54,2709.61 L 7787.24,2709.61 L 7787.24,2711.51 L 7786.99,2711.53 L 7786.87,2711.53 C 7786.37,2711.62 7786.03,2711.75 7785.84,2711.93 C 7785.61,2712.15 7785.48,2712.51 7785.45,2713.01 L 7785.4,2713.98 L 7785.39,2721.18 C 7785.39,2721.49 7785.43,2721.97 7785.53,2722.61 C 7785.6,2723.06 7785.78,2723.34 7786.07,2723.48 C 7786.53,2723.57 7786.92,2723.65 7787.24,2723.72 L 7787.24,2725.52 L 7779.56,2725.52 L 7779.56,2723.68 L 7779.91,2723.68 C 7780.59,2723.68 7781.02,2723.49 7781.23,2723.11 C 7781.38,2722.83 7781.45,2722.3 7781.45,2721.54 L 7781.45,2718.29 L 7777.18,2718.29 L 7777.18,2721.52 C 7777.18,2722.35 7777.31,2722.92 7777.57,2723.21 C 7777.82,2723.52 7778.33,2723.68 7779.09,2723.68 L 7779.09,2725.52 L 7771.39,2725.52 Z "/>
		<path id="dp_path024" fill="#e75f5a" fill-rule="evenodd" d="M 7795.36,2709.13 C 7797.63,2709.13 7799.41,2709.94 7800.7,2711.58 C 7801.92,2713.11 7802.53,2715.12 7802.53,2717.61 C 7802.53,2720.1 7801.92,2722.11 7800.7,2723.64 C 7799.41,2725.27 7797.63,2726.09 7795.36,2726.09 C 7793.05,2726.09 7791.27,2725.28 7789.99,2723.66 C 7788.78,2722.14 7788.18,2720.13 7788.18,2717.61 C 7788.18,2715.12 7788.79,2713.11 7790.01,2711.58 C 7791.3,2709.94 7793.08,2709.13 7795.36,2709.13 Z M 7795.35,2723.71 C 7796.04,2723.71 7796.63,2723.35 7797.14,2722.63 C 7797.55,2722.05 7797.84,2721.36 7798.02,2720.53 C 7798.2,2719.7 7798.29,2718.69 7798.29,2717.5 C 7798.29,2714.89 7797.77,2713.1 7796.73,2712.12 C 7796.26,2711.7 7795.81,2711.48 7795.35,2711.48 C 7794.25,2711.48 7793.44,2712.25 7792.93,2713.78 C 7792.59,2714.83 7792.42,2716.1 7792.42,2717.59 C 7792.42,2719.06 7792.59,2720.33 7792.93,2721.39 C 7793.42,2722.94 7794.23,2723.71 7795.35,2723.71 Z "/>
		<path id="dp_path025" fill="#e75f5a" fill-rule="evenodd" d="M 7802.13,2709.43 C 7803.3,2709.55 7804.41,2709.61 7805.45,2709.61 L 7811.19,2709.61 C 7812.38,2709.61 7813.64,2709.52 7814.99,2709.34 L 7814.99,2714.49 L 7813.31,2714.49 L 7813.08,2713.83 C 7812.63,2712.49 7811.83,2711.81 7810.7,2711.81 L 7810.51,2711.81 L 7810.53,2721.07 C 7810.53,2722.12 7810.67,2722.8 7810.93,2723.13 C 7811.21,2723.49 7811.83,2723.68 7812.77,2723.68 L 7812.77,2725.52 L 7804.34,2725.52 L 7804.37,2723.68 L 7804.67,2723.65 C 7804.89,2723.64 7805.13,2723.62 7805.39,2723.59 C 7805.64,2723.57 7805.83,2723.52 7805.97,2723.43 C 7806.36,2723.17 7806.56,2722.45 7806.56,2721.27 L 7806.56,2711.84 L 7806.44,2711.84 C 7805.09,2711.84 7804.22,2712.73 7803.81,2714.49 L 7802.13,2714.49 Z "/>
		<path id="dp_path026" fill="#e75f5a" fill-rule="evenodd" d="M 7760.7,2742.82 L 7762.48,2742.84 C 7762.58,2743.75 7762.9,2744.51 7763.43,2745.11 C 7763.95,2745.72 7764.63,2746.02 7765.46,2746.02 C 7766.07,2746.02 7766.56,2745.83 7766.96,2745.44 C 7767.36,2745.08 7767.55,2744.58 7767.55,2743.94 C 7767.55,2743.19 7766.99,2742.48 7765.85,2741.8 C 7763.9,2740.62 7762.83,2739.97 7762.67,2739.84 C 7761.52,2738.83 7760.94,2737.57 7760.94,2736.05 C 7760.94,2734.56 7761.47,2733.41 7762.53,2732.6 C 7763.44,2731.88 7764.62,2731.52 7766.06,2731.52 C 7766.4,2731.52 7767.33,2731.65 7768.85,2731.89 C 7769.03,2731.93 7769.19,2731.94 7769.32,2731.94 C 7769.74,2731.94 7770.06,2731.9 7770.31,2731.81 C 7770.38,2731.79 7770.58,2731.71 7770.91,2731.58 L 7770.91,2736.9 L 7769.16,2736.9 C 7769.07,2736 7768.82,2735.28 7768.44,2734.74 C 7767.99,2734.07 7767.38,2733.74 7766.6,2733.74 C 7766.09,2733.74 7765.67,2733.89 7765.33,2734.18 C 7764.98,2734.49 7764.81,2734.91 7764.81,2735.44 C 7764.81,2736.12 7765.39,2736.77 7766.55,2737.4 C 7768.42,2738.42 7769.51,2739.07 7769.84,2739.35 C 7771.02,2740.38 7771.61,2741.69 7771.61,2743.28 C 7771.61,2744.94 7771.08,2746.22 7770.03,2747.1 C 7769.05,2747.92 7767.78,2748.34 7766.21,2748.34 C 7765.42,2748.34 7764.59,2748.24 7763.7,2748.05 L 7763.08,2747.92 C 7762.88,2747.87 7762.67,2747.85 7762.46,2747.85 C 7762.22,2747.85 7761.91,2747.9 7761.54,2747.99 L 7760.7,2748.17 Z "/>
		<path id="dp_path027" fill="#e75f5a" fill-rule="evenodd" d="M 7770.8,2731.82 C 7771.98,2731.94 7773.09,2732 7774.13,2732 L 7779.86,2732 C 7781.05,2732 7782.32,2731.91 7783.66,2731.73 L 7783.66,2736.88 L 7781.98,2736.88 L 7781.75,2736.22 C 7781.3,2734.88 7780.51,2734.21 7779.37,2734.21 L 7779.19,2734.21 L 7779.21,2743.47 C 7779.21,2744.51 7779.34,2745.2 7779.6,2745.52 C 7779.89,2745.89 7780.5,2746.07 7781.44,2746.07 L 7781.44,2747.91 L 7773.02,2747.91 L 7773.04,2746.07 L 7773.35,2746.05 C 7773.57,2746.04 7773.8,2746.01 7774.07,2745.98 C 7774.31,2745.97 7774.5,2745.92 7774.64,2745.83 C 7775.03,2745.56 7775.23,2744.84 7775.23,2743.67 L 7775.23,2734.24 L 7775.11,2734.24 C 7773.77,2734.24 7772.89,2735.12 7772.49,2736.88 L 7770.8,2736.88 Z "/>
		<path id="dp_path028" fill="#e75f5a" fill-rule="evenodd" d="M 7783.62,2732 L 7791.48,2732 L 7791.48,2733.96 L 7791.07,2733.96 C 7790.39,2733.96 7789.92,2734.19 7789.67,2734.66 C 7789.51,2735.01 7789.43,2735.58 7789.43,2736.39 L 7789.45,2741.8 C 7789.46,2744.46 7790.3,2745.79 7791.97,2745.79 C 7793.15,2745.79 7793.99,2745.38 7794.48,2744.57 C 7794.88,2743.9 7795.08,2742.9 7795.08,2741.56 L 7795.08,2735.91 C 7795.08,2735.13 7794.95,2734.61 7794.69,2734.36 C 7794.41,2734.1 7793.91,2733.98 7793.17,2733.98 L 7793.17,2732 L 7799.64,2732 L 7799.64,2733.98 L 7799.27,2733.98 C 7798.18,2733.98 7797.64,2734.79 7797.64,2736.41 L 7797.64,2741.93 C 7797.64,2743.95 7797.17,2745.54 7796.22,2746.7 C 7795.22,2747.94 7793.79,2748.56 7791.94,2748.56 C 7791.36,2748.56 7790.75,2748.49 7790.1,2748.36 C 7788.46,2748.02 7787.27,2747.34 7786.54,2746.33 C 7785.8,2745.31 7785.43,2743.89 7785.43,2742.07 L 7785.45,2736.05 C 7785.45,2735.23 7785.33,2734.68 7785.1,2734.4 C 7784.87,2734.12 7784.37,2733.98 7783.62,2733.98 Z "/>
		<path id="dp_path029" fill="#e75f5a" fill-rule="evenodd" d="M 7799.86,2746.06 C 7800.66,2746.06 7801.18,2745.89 7801.44,2745.55 C 7801.65,2745.25 7801.76,2744.66 7801.76,2743.78 L 7801.76,2736.33 C 7801.76,2735.55 7801.73,2735.05 7801.67,2734.85 C 7801.51,2734.21 7800.92,2733.9 7799.9,2733.9 L 7799.9,2732 L 7809.2,2732 C 7810.74,2732 7811.9,2731.92 7812.68,2731.76 L 7812.68,2736.89 L 7810.93,2736.91 C 7810.77,2735.88 7810.43,2735.17 7809.93,2734.78 C 7809.49,2734.46 7808.76,2734.3 7807.75,2734.3 L 7805.72,2734.3 L 7805.72,2738.37 L 7806.66,2738.37 C 7807.38,2738.37 7807.9,2738.23 7808.22,2737.95 C 7808.54,2737.67 7808.69,2737.15 7808.69,2736.38 L 7810.48,2736.38 L 7810.48,2742.92 L 7808.67,2742.92 C 7808.67,2742.16 7808.54,2741.61 7808.26,2741.24 C 7807.99,2740.89 7807.51,2740.71 7806.82,2740.71 L 7805.72,2740.71 L 7805.72,2743.58 C 7805.72,2744.54 7805.81,2745.15 7806,2745.44 C 7806.26,2745.81 7806.79,2746.01 7807.59,2746.06 L 7808.05,2746.08 L 7808.05,2747.91 L 7799.86,2747.91 Z "/>
		<path id="dp_path030" fill="#e75f5a" fill-rule="evenodd" d="M 7812.83,2746.06 C 7813.62,2746.06 7814.15,2745.89 7814.41,2745.55 C 7814.62,2745.25 7814.72,2744.66 7814.72,2743.78 L 7814.72,2736.33 C 7814.72,2735.55 7814.69,2735.05 7814.64,2734.85 C 7814.47,2734.21 7813.88,2733.9 7812.87,2733.9 L 7812.87,2732 L 7822.17,2732 C 7823.71,2732 7824.86,2731.92 7825.64,2731.76 L 7825.64,2736.89 L 7823.9,2736.91 C 7823.73,2735.88 7823.4,2735.17 7822.9,2734.78 C 7822.46,2734.46 7821.73,2734.3 7820.71,2734.3 L 7818.68,2734.3 L 7818.68,2738.37 L 7819.63,2738.37 C 7820.35,2738.37 7820.87,2738.23 7821.19,2737.95 C 7821.5,2737.67 7821.66,2737.15 7821.66,2736.38 L 7823.45,2736.38 L 7823.45,2742.92 L 7821.64,2742.92 C 7821.64,2742.16 7821.5,2741.61 7821.23,2741.24 C 7820.95,2740.89 7820.48,2740.71 7819.79,2740.71 L 7818.68,2740.71 L 7818.68,2743.58 C 7818.68,2744.54 7818.78,2745.15 7818.97,2745.44 C 7819.23,2745.81 7819.76,2746.01 7820.55,2746.06 L 7821.02,2746.08 L 7821.02,2747.91 L 7812.83,2747.91 Z "/>
		<path id="dp_path031" fill="#31323d" fill-rule="evenodd" fill-opacity="0.501961" d="M 7790.85,2786.25 C 7791.51,2789.34 7748.95,2759.35 7740.69,2743.19 C 7723.46,2718.67 7736.25,2701.3 7738.74,2698.42 S 7731.22,2708.71 7740.81,2727.62 C 7754.42,2754.46 7790.2,2783.16 7790.85,2786.25 Z "/>
	</g>
</svg>