<svg id="Layer_1" data-name="Layer 1" xmlns="http://www.w3.org/2000/svg" viewBox="0 0 432 432"><defs><style>.cls-1{fill:#f8f8f8;}.cls-2{fill:#5e74b5;}.cls-3{fill:#08080a;}.cls-4{fill:#e3d0f9;}.cls-5{fill:#8597ca;}</style></defs><title>collar</title><path class="cls-1" d="M21.39,99.33l-.39.39Z"/><path class="cls-1" d="M21,234.8l.39.39Z"/><path class="cls-1" d="M159.95,235.19l.39-.39Z"/><path class="cls-2" d="M200.8,207.28c-69.85,0-152.12-16.86-169.34-20.56A3.17,3.17,0,0,1,29,182.91l3.41-15.23a3.17,3.17,0,0,1,3.76-2.43c17.11,3.63,102.26,20.93,169.93,20,66.68-.9,143.1-28.71,158.85-34.71a3.19,3.19,0,0,1,4.1,1.79l5.84,14.48a3.17,3.17,0,0,1-1.79,4.16c-16.46,6.35-95.25,35.29-166.7,36.26C204.57,207.27,202.69,207.28,200.8,207.28Z"/><rect class="cls-3" x="198.19" y="181.95" width="6.8" height="32.1" rx="0.43" ry="0.43"/><circle class="cls-4" cx="173.38" cy="194.94" r="3.14"/><circle class="cls-4" cx="152.57" cy="193.63" r="3.14"/><circle class="cls-4" cx="132.03" cy="191.48" r="3.14"/><circle class="cls-4" cx="226.19" cy="194.24" r="3.14" transform="translate(-6.46 7.78) rotate(-1.94)"/><circle class="cls-4" cx="246.94" cy="192.22" r="3.14" transform="translate(-6.38 8.49) rotate(-1.94)"/><circle class="cls-4" cx="267.4" cy="189.37" r="3.14" transform="translate(-6.27 9.18) rotate(-1.94)"/><path class="cls-3" d="M219.92,228.59a3.25,3.25,0,0,0-.38-3.13c-2.19-3.74-4.36-7.5-6.54-11.24q-4.36-7.51-8.71-15a3,3,0,0,0-2.56-1.82A2.9,2.9,0,0,0,199,199q-3.22,5.6-6.47,11.17-4.33,7.47-8.68,14.93c-.66,1.13-1.18,2.25-.5,3.56a.85.85,0,0,1-.06.63,2.9,2.9,0,0,0,.39,3q7.73,11.3,15.45,22.59c1.35,2,3.59,1.94,5,0,1.1-1.56,2.16-3.15,3.24-4.72q6-8.85,12.11-17.7a3.12,3.12,0,0,0,.48-3.19A1,1,0,0,1,219.92,228.59Zm-3.24,3a.1.1,0,0,1-.09.07h0c-1.25,1.88-2.49,3.78-3.77,5.64q-5.34,7.82-10.72,15.62c-.13.18-.17,1.06-.79.36l-13.43-19.61-1.65-2.4.22-.26,15.2,9.24,12.68-7.74c.65-.4,1.31-.79,2-1.17a.09.09,0,0,1,.06-.08l.4-.08Zm0-3.74q-7.35,4.53-14.73,9a.94.94,0,0,1-.27.07c-1-.55-2-1.07-3-1.66q-6-3.65-12-7.35a5.28,5.28,0,0,1-.68-.62,6.15,6.15,0,0,1,.34-.88q7.35-12.7,14.73-25.38a6.6,6.6,0,0,1,.45-.61l.14-.16.07.15.21.39a4.5,4.5,0,0,1,.47.57q7.23,12.44,14.44,24.88a7.74,7.74,0,0,1,.39,1A2.79,2.79,0,0,1,216.66,227.85Z"/><path class="cls-4" d="M186,227.32a5.94,5.94,0,0,1,.34-.88q7.35-12.69,14.73-25.38a7.07,7.07,0,0,1,.45-.62h.2l.21.39a4.46,4.46,0,0,0-.23,1c0,3,0,6,0,9s0,6.13-.05,9.19Z"/><path class="cls-5" d="M201.59,220c0-3.06,0-6.13.05-9.19s0-6,0-9a4.46,4.46,0,0,1,.23-1,4.3,4.3,0,0,1,.47.57q7.23,12.43,14.44,24.88a6.88,6.88,0,0,1,.38,1l-1.65-.8-13-6.13a4.85,4.85,0,0,0-.83-.22Z"/><path class="cls-5" d="M186,227.32,201.59,220l.08.09q0,8.44,0,16.88c-1-.55-2-1.07-3-1.66q-6-3.65-12-7.35A4.86,4.86,0,0,1,186,227.32Z"/><path class="cls-2" d="M201.65,237q0-8.44,0-16.88a4.86,4.86,0,0,1,.83.22l13,6.13,1.65.8a2.63,2.63,0,0,1-.53.62q-7.35,4.53-14.73,9A.93.93,0,0,1,201.65,237Z"/><path class="cls-4" d="M201.32,253.29l-13.43-19.6-1.65-2.4.21-.26,15.21,9.24c0,4,0,8,0,12A3.76,3.76,0,0,1,201.32,253.29Z"/><path class="cls-5" d="M216.74,231.23a2.76,2.76,0,0,1-.29.65c-1.1,1.86-2.4,3.64-3.62,5.43q-5.34,7.82-10.72,15.62c-.13.18-.17,1.06-.79.36a4,4,0,0,0,.31-1c0-4,0-8,0-12l12.68-7.74c.41-.25.8-.52,1.21-.77S216.38,231.13,216.74,231.23Z"/><path class="cls-5" d="M90.5,114.74l-.4,0,.27-.32Z"/></svg>