<svg id="sign" xmlns="http://www.w3.org/2000/svg" width="625" height="625" viewBox="0 0 625 625">
  <defs>
    <style>
      .cls-1 {
        fill: #fff;
      }

      .cls-2 {
        fill: #4c4b51;
      }

      .cls-10, .cls-11, .cls-12, .cls-13, .cls-14, .cls-2, .cls-3, .cls-4, .cls-5, .cls-6, .cls-7, .cls-8, .cls-9 {
        fill-rule: evenodd;
      }

      .cls-3, .cls-9 {
        fill: #32323b;
      }

      .cls-3 {
        opacity: 0.2;
      }

      .cls-4 {
        fill: #b5b4b9;
      }

      .cls-5 {
        fill: #d3d2d8;
      }

      .cls-6 {
        fill: #66656c;
      }

      .cls-7 {
        fill: #f9e137;
      }

      .cls-8 {
        fill: #fceb65;
      }

      .cls-10 {
        fill: #fbf243;
      }

      .cls-11 {
        fill: #ebbd38;
      }

      .cls-12 {
        fill: #fada3c;
      }

      .cls-13 {
        fill: #fdfdc9;
      }

      .cls-14 {
        fill: #f2d67a;
      }
    </style>
  </defs>
  <rect class="cls-1" x="-36" y="-45" width="721" height="700"/>
  <path class="cls-2" d="M603.448,287.008v33.843l-0.879,18.9-8.357,7.912H573.1l-32.987-.44L530,341.948l-107.318,5.714H301.724l-249.384-.44H29.469s-9.017-5.494-6.6-14.064-0.88-88.344-.88-88.344l0.88-38.239,7.037-9.23,92.364,0.879,126.671-.879,117.435,0.879,156.58-1.318,67.294,1.318,12.316,10.549,0.879,44.831v33.4Z"/>
  <path class="cls-3" d="M514.163,525.668s43.543,13.186,1.319,27.69L-14.954,549.4s-36.946-19.778,6.6-29.008Z"/>
  <path class="cls-4" d="M499.648,348.98l-25.07.879V534.9s5.718,9.889,11.435,10.549,12.975-6.593,13.635-10.109S499.648,348.98,499.648,348.98Z"/>
  <path id="Shape_78_copy" data-name="Shape 78 copy" class="cls-4" d="M137.227,348.98l-25.07.879V534.9s5.718,9.889,11.436,10.549,12.975-6.593,13.634-10.109S137.227,348.98,137.227,348.98Z"/>
  <path class="cls-5" d="M499.648,347.662l-6.158.879V535.777a10.215,10.215,0,0,1-5.277,7.472c-4.839,2.637,5.277.879,5.277,0.879l4.4-4.835,2.2-4.395Z"/>
  <path id="Shape_77_copy" data-name="Shape 77 copy" class="cls-5" d="M139.866,347.662l-6.157.879V535.777a10.218,10.218,0,0,1-5.278,7.472c-4.838,2.637,5.278.879,5.278,0.879l4.4-4.835,2.2-4.395Z"/>
  <path class="cls-6" d="M23.819,318.527c0.123-36.045.372-108.436,0.372-108.436V201.3l6.6-4.395,179.891-.879,354.944,1.318,26.39,0.879,7.917,1.319,2.639,15.823L603.008,335.8l-5.387,5.384c-1.825,1.823-12.206,6.043-12.206,6.043s9.205-6.576,8.714-14.723c-0.218-32.141-.8-117.524-0.8-121.089,0-4.4-5.278-6.153-5.278-6.153H36.506c-5.938,0-6.6,5.713-6.6,5.713s-0.18,80.056,0,114.716l-5.718,4.834S23.778,330.477,23.819,318.527Z"/>
  <path class="cls-7" d="M594.212,199.982L416.08,347.222,539.233,345.9l62.9-52.3,1.319-83.51-3.958-7.911Z"/>
  <path class="cls-7" d="M499.648,197.785L321.077,346.343l-113.917.44L385.732,198.224Z"/>
  <path class="cls-7" d="M292.048,196.906L108.638,347.222l-79.169.44-5.278-4.395-1.319-11.428L189.127,194.708l43.544,2.2h59.377Z"/>
  <path class="cls-7" d="M88.846,198.224l-67.294,52.3-0.88-32.085,2.2-11.867,2.639-5.714,7.037-4.834,35.626,0.879Z"/>
  <path class="cls-8" d="M599.93,295.359l-6.158,5.274V209.212s-0.66-3.955-6.158-3.955l7.038-5.714,7.037,6.593,3.079,31.206-1.32,58.456Z"/>
  <path class="cls-8" d="M490.412,205.257l7.917-6.154-113.917-1.758,0.44,1.758-7.917,6.154H490.412Z"/>
  <path class="cls-8" d="M290.289,197.785l-7.917,7.032-106,.44,9.237-8.351Z"/>
  <path class="cls-8" d="M89.286,197.785l-9.676,7.472h-43.1s-6.158-1.539-6.158,4.834v33.844l-5.718,4.4L21.992,218l1.759-13.625,8.357-8.791Z"/>
  <path class="cls-8" d="M24.191,330.52l5.718-4.395,0.88,8.791s0.22,5.494,7.037,9.23-5.718,2.2-5.718,2.2l-7.477-2.2L21.992,333.6Z"/>
  <path class="cls-9" d="M80.378,191.938L440.956,192.4l106.422,0.233h30.107c6.55,0,13.686-.457,18.437,1.4,9.573,3.741,9.613,11.518,11.436,23.325v10.5q0.117,39.765.233,79.539c0,12.546,1.709,29.242-3.734,36.62-6.17,8.365-16.855,6.765-31.04,6.764l-69.781.234q-0.234,75.915-.467,151.846c0,11.661.305,27.5,0.158,32.916-0.88,9.67-8.49,13.067-14.954,13.625-1.513.131-12.731-2.937-15.077-11.141v-41q-0.351-73.234-.7-146.482l-328.371.467q-0.233,76.265-.466,152.546c-0.078,11.506-.576,17.4-0.654,28.906a17.343,17.343,0,0,1-16.713,14.065c-6.312.2-13.538-5.3-14.955-13.186-1.339-6.022-.873-133.353-1.106-182.331H47.7c-8.6,0-20.1,1.3-24.972-2.566-6.867-5.449-5.135-23.457-5.134-35.454Q17.482,273,17.365,232.757c0-12.3-1.548-27.425,3.734-34.522C26.073,189.06,48.849,191.36,80.378,191.938Zm10.736,7L44.9,199.4c-5.935,0-13.06.013-16.315,2.778-5.45,4.63-4.223,18.9-4.223,28.71q0.233,40.349.467,80.705c0,8.659-1.858,30.071,3.734,32.422l417.756-.233H561.615c14.059,0,34.445,3.409,38.275-7.231,2.734-7.595-.816-18.951.466-27.524V236.255c-0.683-11.2,2.284-27.58-3.734-33.588-4.808-4.8-24.9-2.8-35.007-2.8l-94.054-.466ZM115.1,351.248q0.115,75.8.233,151.613c0,11.2-.449,27.407.783,31.6a10.132,10.132,0,0,0,11.436,7.471c5.121-.883,8.557-3.054,10.116-7.911,1.422-9.321.591-22.482,0.59-33.957q0.117-74.4.234-148.814H115.1Zm383.269,0.933-21.471.233q0.233,73.7.466,147.414c0,11.9-.586,33.2,0,36.567s6.865,9.058,12.37,7.7c2.716-.671,8.022-4.887,8.168-7.231s0-27.16,0-40.3Q498.135,424.379,498.368,352.181Z"/>
  <path class="cls-10" d="M198.7,222.964S174.314,121.256,243.183,85.713l2.667-.2s2.188,16.995,7.444,45.235c0,0,14.4,15.628,14.253-1.378l-7.413-50.527s4.378-8.54,21.6-9.549l11.841,55.335s9.132,11.7,14.253-1.378l-10.848-56.57a56.236,56.236,0,0,1,22.255-1.989s12.063,28.6,12.952,52.786c0,0,8.051,13,13.814-1.417,0,0,2.958-8.59-9.759-48.971,0,0,70.03,6.693,95.392,108.674l1.166,6.724s1.7-14.927,12.618-2.847c0,0,13.178,11.346-3.432,18.669,0,0-27.337,32.193-104.248,44.99s-97.992,14.694-147.245,2.325C173.486,228.31,190.519,221.193,198.7,222.964Z"/>
  <path class="cls-11" d="M288.381,227.425l-5.064-27.37s-2.919-6.88,15.4-4.365l36.061-8.26s6.407-2.518,7.972,4.682l3.828,26.378-35.146,7.9Z"/>
  <path class="cls-11" d="M245.733,86.823s2.123,30.639,11.113,48.65c0,0,8.41,4.721,11.664-2.05l-8.078-43.084L259.14,80.074,250.9,83.312Z"/>
  <path class="cls-11" d="M283.773,71.237s10.032-7.545,13.337-1.018c4.361,8.612,9.823,35.724,11.009,52.252-3.2,10.252-13.021,4.937-15.3.763S283.773,71.237,283.773,71.237Z"/>
  <path class="cls-11" d="M320.359,67s12.6,32.013,12.67,51c0.038,10.119,12.587,2.445,13.455-2.332,0,0-4.322-35.689-12.545-47.454l-6.055-1.422Z"/>
  <path class="cls-12" d="M212.684,249.364s-2.333-13.447,7.734-17.4,2.425-2.432,2.425-2.432-13.855-92.141,13.621-137.794c0,0-59.363,26.925-37.762,131.23,0,0-1.8-4.573-8.644-2.094s-12.992,16.935-4.66,22.532S212.684,249.364,212.684,249.364Z"/>
  <path class="cls-13" d="M418.678,187.4s10.874-67.432-70.439-116.159c0,0,54.125,7.029,85.074,105.548,0,0,17.467-7.711,17.626,15.251l-19.047,15.513S434.1,192.75,418.678,187.4Z"/>
  <path class="cls-14" d="M331.957,189.385s3.214-6.333,8.956-1.408,5.268,30.036,5.268,30.036l-6.766,1.6-2.269.681Z"/>
  <path class="cls-9" d="M314.743,60.82c2.032,0.163,5.026.154,6.375,1.064,0.942,0.635.958,2.032,2.148,2.425,2.944-1.05,6.034-.059,9.033.557,2.025-2.86,8.744-.806,12.286.35,10.264,3.351,19.383,7.352,27.367,12.613,24.943,16.436,40.421,39.21,53.1,65.9,4.2,8.855,6.477,18.607,10.062,28.069,10.3-.3,13.616,4.117,17.209,10.715,1.677,3.079,2.9,8.1.652,12.217-1.472,2.7-4.575,4.47-7.012,6.075-4.1,2.7-7.993,5.852-12.2,8.467-33.163,20.6-73.693,33.08-117.383,41.031-17.154,3.122-34.859,3.854-53.485,5.408-7.573.631-15.289-.7-23.248-0.211a60.881,60.881,0,0,1-16.069-1.183l-10.953-1.349c-9.267-2.316-18.727-3.11-26.929-6.37-6.461-2.567-10.014-14.494-5.72-22.346,2.764-5.055,7.075-5.915,13.766-6.466,0.014-.164.029-0.329,0.044-0.493-2.169-8.254-2.17-17.576-3.081-26.826-0.454-4.607.575-8.953,0.243-13.875a48.952,48.952,0,0,1,1.186-13.294l0.552-4.79c1.706-6.582,2.48-13.138,4.687-19.062,5.052-13.564,10.95-25.314,19.175-35.017,2.62-3.092,5.607-5.808,8.364-8.685,4.823-5.032,13.521-12.117,19.887-15.1,1.662-.779,3.218.985,4.051,0.609l2.768-1.739,4.351-1.349c0.642-6.618,13.87-11.558,19.689-12.886,1.723-.394,7.894-1.395,9.356-0.283q0.709,1.118,1.418,2.236a24.511,24.511,0,0,1,4.743-1.563l3.624-.173,1.635-1.591c2.812-1.694,7.186-2.378,10.833-2.881Zm0.313,4.867-4.848-.06c-2.461.216-9.173,0.844-10.284,2.31-0.428,1.18,2.053,10.61,2.5,12.382l8.107,38.813c1.107,8.023-4.365,11.251-10.153,12-8.7,1.125-9.025-7.984-10.214-13.814q-3.21-17.716-6.419-35.437c-0.506-2.684-.933-10.936-2.368-12.494-6.939,1.337-11.809,2.546-16.819,5.822-1.281.838-3.33,1.778-3.684,3.642q1.239,9.105,2.48,18.212,3.006,14.99,6.608,29.127c1.3,5.1.594,11.052-4.1,12.537-10.737,3.4-12.6-3.925-14.675-11.233-3.525-12.426-5.1-26.362-6.843-40.438l-0.236-.145c-1.561.441-2.7,1.8-3.967,2.624a78.605,78.605,0,0,0-14.394,12.118c-13.49,14.337-20.445,27.729-26.92,50.705-1.467,5.2-1.563,10.5-2.46,16.407a76.025,76.025,0,0,0-.934,16.046c0.389,5.1.252,10.456,0.882,15.216,1,7.529,1.164,17.566,3.86,23.67,5.5,1.309,11.466,2.32,17.33,3.777l15.677,1.4,10.66,0.454c6.724-.5,13.706-0.171,20.1-0.814,5.469-.55,10.769-0.693,15.919-1.311,1.868-.225,3.85-0.037,5.407-0.635,0-.041.007-0.082,0.011-0.123L281.65,204.4c-0.4-2.973-1.449-6.789.6-9.5,3.09-4.091,10.911-1.787,17-2.331,11.932-1.066,22.566-2.161,31.672-6.36,2.655-1.224,7.287-3.753,10.814-1.269,4.436,3.124,4.773,17.148,6,23.364,0.395,1.994.068,5.508,1.248,6.935l4.979-1.417c5.482-1.626,10.7-3.412,15.888-5.16a243.609,243.609,0,0,0,44.079-19.895c4.669-2.7,9.112-5.481,13.56-8.345,1.315-.847,3.047-1.6,3.989-2.871-0.162-3.06-1.811-6.83-2.756-9.551-2.382-6.855-4.463-13.4-7.2-19.748-11.206-26.031-25.947-47.248-48.558-63.759-7.4-5.4-15.534-9.217-25.09-13.03-1.383-.552-8.48-3.147-9.733-2.48,3.638,12.545,7.667,25.01,10.217,38.878,1.506,8.184-1.978,15.634-9.539,16.272-9.579.809-8.064-9.136-9.051-15.7a190.215,190.215,0,0,0-7.8-32.459c-0.691-2.056-2.483-8.843-3.979-9.784ZM327.087,67.5c-1.011.292-1.994,0.107-2.68,0.754q2.606,7.738,5.213,15.478c2.34,7.613,3.469,15.748,4.949,24.016,0.646,3.611-.856,13.182,5.2,11.382,5.533-1.643,4.207-9.965,3.068-14.864-2.2-9.469-4.376-18.7-7.255-27.446C334.116,72.358,333.19,68.031,327.087,67.5ZM292.7,69.4c-2.255.852-3.907,0.779-5.549,2.235-0.308,3.694,1.606,10.53,2.349,14.106q2.519,14.305,5.037,28.614c0.662,3.491.721,12.93,5.778,11.929,7.975-1.578,5.307-8.769,3.842-15.167Q299.71,90.563,295.261,70A5.772,5.772,0,0,0,292.7,69.4ZM255.723,82.237c-2.55,1.359-5.076,1.844-6.611,4.374q0.627,5.515,1.255,11.03c1.369,9.227,2.581,18.759,5.045,27.125,1.466,4.981,2.276,13.233,9.789,8.814,1.757-4.285-1.486-11.842-2.465-15.605-2.939-11.3-4.712-23.238-6.283-35.549Zm182.458,94.177-1.5.114-0.268.225c0.891,4.583-4.14,6.383-6.818,8.077a288.133,288.133,0,0,1-27,15.337,311.614,311.614,0,0,1-85.544,27.242C299,230.493,280.689,231.7,261.5,233.626l-20.946.491-4.826-.306a82.729,82.729,0,0,1-23.173-2.437c-3.845-1-13.92-2-16.075-3.914-1.113-.987-1.114-3.318-1.826-4.63-5.476-.565-9.128.649-10.852,4.493-2.154,4.8.26,12.956,3.18,14.552,3.7,2.021,8.776,2.337,13.123,3.526,9.856,2.7,21.584,4.168,33.153,4.94,32.514,2.168,62.806-.9,89.747-6.023,37.969-7.218,74.024-19.1,103.781-36.412,5.293-3.078,10.16-6.854,15.217-10.183,2.133-1.4,5.3-3.032,6.689-5.235C452.468,186.51,443.767,177.116,438.181,176.414ZM337.416,188.776a128.225,128.225,0,0,1-17.468,6.136c-5.342,1.351-11.146,1.694-17,2.331-2.8.3-15.87-.648-16.862,0.731-1.235,1.714.366,5.864,0.7,7.506q1.639,10.2,3.281,20.393c2.041,0.724,12.146-1.221,14.583-1.678,10.556-1.983,20.821-2.981,30.6-5.463,2.923-.742,6.2-0.973,8.781-2.195q-1.675-10.509-3.35-21.019c-0.427-2.171-.017-5.446-1.785-6.487Z"/>
</svg>
