<svg id="Deal_with_it" data-name="Deal with it" xmlns="http://www.w3.org/2000/svg" width="150" height="150" viewBox="0 0 150 150">
  <defs>
    <style>
      .cls-1, .cls-3 {
        fill: #fff;
      }

      .cls-2 {
        fill: #31323d;
      }

      .cls-2, .cls-3 {
        fill-rule: evenodd;
      }
    </style>
  </defs>
  <rect class="cls-1" x="-4" y="-3" width="160" height="156"/>
  <path id="glasses" class="cls-2" d="M13,65H141v9.672h-4.885v4.776h-4.886v4.776h-4.885V89H93.122c-0.352-.934-0.128-3.643-0.122-4.9H88.115V79.328H83.229V69.9c2.425,0-7.293,0-14.534,0v9.552H63.809v4.776H58.924V89H27.657V84.224H22.771V79.448H17.886V74.672H13V65Zm9.893,4.9v4.657h4.763V69.9H22.893Zm9.893,0v4.657H37.55V69.9H32.786Zm59.6,0v4.657h4.885V69.9H92.389Zm9.893,0v4.657h4.764V69.9h-4.764Zm-74.5,4.776v4.657h4.885V74.672H27.779Zm9.893,0v4.657h4.763V74.672H37.672Zm59.725,0v4.657h4.763V74.672H97.4Zm9.771,0v4.657h4.885V74.672h-4.885ZM32.786,79.448V84.1H37.55V79.448H32.786Zm9.771,0V84.1h4.885V79.448H42.557Zm59.725,0V84.1h4.764V79.448h-4.764Zm9.894,0V84.1h4.763V79.448h-4.763Z"/>
  <path id="reflections" class="cls-3" d="M22.893,69.9h4.763v4.657H22.893V69.9Zm9.893,0H37.55v4.657H32.786V69.9Zm59.6,0h4.885v4.657H92.389V69.9Zm9.893,0h4.764v4.657h-4.764V69.9Zm-74.5,4.776h4.885v4.657H27.779V74.672Zm9.893,0h4.763v4.657H37.672V74.672Zm59.725,0h4.763v4.657H97.4V74.672Zm9.771,0h4.885v4.657h-4.885V74.672ZM32.786,79.448H37.55V84.1H32.786V79.448Zm9.771,0h4.885V84.1H42.557V79.448Zm59.725,0h4.764V84.1h-4.764V79.448Zm9.894,0h4.763V84.1h-4.763V79.448Z"/>
</svg>
