<svg xmlns="http://www.w3.org/2000/svg" viewBox="0 0 2021.6 1916.26"><defs><style>.cls-1{fill:#00596f;}.cls-2{fill:#007f9e;}.cls-3{fill:#007491;}.cls-4{fill:#006c87;}</style></defs><title>Baseball Hat</title><g id="Draw_Layer-2" data-name="Draw Layer"><path class="cls-1" d="M1435.25,1106.67h0a16.2,16.2,0,0,0-3.1-.33,10.56,10.56,0,0,0-5.48,1.45,11.13,11.13,0,0,0-4,15.21,10.81,10.81,0,0,0,6.65,5.11c40.37,8,80.72,16,120.95,24.68q64.48,13.87,128.41,30.07c25.82,6.5,51.6,13.89,76.2,24.16,10.4,4.48,20.74,9.52,29.85,16.27a50.85,50.85,0,0,1,6.81,6.53,26.76,26.76,0,0,1,1.92,3.18q.28.85.48,1.71c0,.39,0,.78,0,1.17s-.27,1.05-.45,1.57a25.39,25.39,0,0,1-1.64,2.7,44.54,44.54,0,0,1-5.52,5.31c-2.12,1.56-4.32,3-6.57,4.36A11.12,11.12,0,1,0,1791,1269a82.91,82.91,0,0,0,7.88-5.34,59.42,59.42,0,0,0,7.58-6.53,39.73,39.73,0,0,0,6-7.92,28.36,28.36,0,0,0,3.06-7.75,26.23,26.23,0,0,0,.58-8.4,32.72,32.72,0,0,0-.88-5.18,42.76,42.76,0,0,0-1.91-4.87,27.21,27.21,0,0,0-3.38-5.62,53.91,53.91,0,0,0-6-6.87,92.89,92.89,0,0,0-15.16-11.31c-12.35-7.49-25.84-13.14-39.35-18.19s-27.17-9.37-41-13.29c-10.44-3-20.93-5.69-31.47-8.26-18.65-4.55-37.26-9.27-55.95-13.64-61.62-14.44-123.66-26.95-185.74-39.21ZM1753,1206.23h0l.71.3-.71-.3Z"/><path class="cls-2" d="M487.08,1256.26a28.77,28.77,0,0,0,7.15,12.34q0,.62,0,1.23c0,7.56,3.09,13.6,7.94,19.15,7.47,8.57,16.18,15.72,25.42,22.32,5.66,4,14.4,4.51,20.87,2.73a27.25,27.25,0,0,0,11.13-6.19,266.13,266.13,0,0,0,32.37,10.3c2.22.57,4.44,1.11,6.67,1.64a146.84,146.84,0,0,0,36.24,17.34A210.63,210.63,0,0,0,673,1345.6c7.85,1.07,15.7,2,23.57,2.78,5.17,1.2,10.36,2.33,15.58,3.35,25.14,5,50.79,8.24,76.43,8.38a26.75,26.75,0,0,0,19.3-8.23c10.82,2.9,21.63,5.81,32.48,8.61,33.74,8.7,67.68,16.29,102.32,20.43,32.34,3.86,65.08,3.77,97-3.58a23.5,23.5,0,0,0,8.74-4c20.4,3.3,40.82,6.42,61.34,8.93,52.63,6.46,106.52,9.09,158.61-2.86,10.41-2.39,18.06-12,19.59-22.34,49.24,2.27,98.59.94,147.61-5.47a27,27,0,0,0,13.66-3.7l5.48-4.23a27.18,27.18,0,0,0,6.15-9.52c26.1,1.5,52.38,2.53,78.44.08,15.58-1.46,31.39-3.5,46.43-8,13.86-4.12,27.66-9.8,39.6-18a27.27,27.27,0,0,0,9.72-9.72l.9-2.14c29.49-3.23,58.8-8.73,87-18a30.83,30.83,0,0,0,10.93-6.06,28.36,28.36,0,0,0,13.87-8.48c7.39.61,14.76,1.56,22.19,1.72,12,.27,23-8.46,26.11-19.88a27.08,27.08,0,0,0-12.44-30.57,174.84,174.84,0,0,0-29.28-16.2,360.16,360.16,0,0,0-36.64-14c-24.47-7.69-49.54-13.07-74.54-18.69-14.08-3.15-28.13-6.39-42.3-9.13-15.34-3-30.73-5.67-46.12-8.32s-30.78-5.31-46.12-8.25c-12.07-2.32-24-4.76-35.87-8.13-10.64-3-21.28-6.33-32.16-8.41-6.77-1.29-13.75-2.59-20.67-2.61h-.14c-1.4,0-2.78.08-4.15.2.47-13,.79-25.91,1.11-38.86a62.23,62.23,0,0,0,4.91-11.75c3.47-11.54,4.78-23.62,6.24-35.54a197.7,197.7,0,0,0,1.43-22.67,360.38,360.38,0,0,0-3.44-49.67c-.64-4.83-1.29-9.66-2-14.49,0-3.65-.18-7.3-.42-11-2.36-36-8-71.78-14.16-107.25-3.57-20.69-7-41.51-11.53-62l0-1.09c-.41-13.65-2.24-27.15-4.25-40.65a215.39,215.39,0,0,0-13.83-50.42c-5.26-12.8-10.58-25.64-17.26-37.78a260.16,260.16,0,0,0-14.67-23.6c-13.45-19.2-28.32-37.63-45-54.11-17.16-16.95-36-32-55.45-46.31a509.08,509.08,0,0,0-50.45-32.71q-26.41-15-54.17-27.39c-22.44-10-45.21-19.41-68.41-27.53a699.58,699.58,0,0,0-107.06-28.42,58.3,58.3,0,0,0-30.85,0l-13.86,5.84a61.11,61.11,0,0,0-5.83,3.92,59.23,59.23,0,0,0-11.7-9,70.38,70.38,0,0,0-9.36-5c-8-3.58-16.26-7.41-24.72-10-8.8-2.74-17.82-3.71-27-4.75a56.8,56.8,0,0,0-6.31-.34A73.73,73.73,0,0,0,818,381.59c-11.9,3.35-24.52,10-32.81,19.39-2.1,2.39-3.89,4.52-5.46,6.51-1-.05-2-.08-3.07-.08a57.81,57.81,0,0,0-29.28,7.92l-11.74,9.07A146.6,146.6,0,0,0,714.46,445,394.67,394.67,0,0,0,689,478.7c-9.31,13.84-17.91,28.16-27.66,41.69-12,14.35-25.85,27-38.15,41.16-6.18,7.1-11.91,14.59-17.59,22.12a141.75,141.75,0,0,0-8.57,12.5,121.56,121.56,0,0,0-7.33,14c-4,9.19-8.33,18.57-11.19,28.25-4.71,15.86-6.88,32.61-8.21,49.05-.92,11.45-1.06,22.94-.92,34.42.15,12.57.54,25.16.36,37.72a411.82,411.82,0,0,0-4.47,44.58,54.32,54.32,0,0,0,7.57,28.67,57.86,57.86,0,0,0-21.45,13.6q-4.54,5.87-9.08,11.75a57.67,57.67,0,0,0-7.91,29.28c.68,5.14,1.38,10.28,2.07,15.42,1.28,7.62,4.36,14.93,7.52,22-3.21,2.42-6.29,5-9.2,7.49a33.94,33.94,0,0,0-4.79,5,58.09,58.09,0,0,0-14.92,25.6L513,978.34a58.76,58.76,0,0,0,1.89,14.76c-1.4,1.2-2.78,2.43-4.12,3.71a57.88,57.88,0,0,0-14.92,25.6,58.46,58.46,0,0,0,0,30.84c4.65,13.88,10.68,27.92,19.6,39.66,3.48,4.57,6.93,9,10.49,13.38-4.17,3-8.35,6.13-12.21,9.55a29.29,29.29,0,0,0-3.07,3c-3.73,4.54-7.73,9-10.78,14-3,4.88-5.34,11.8-7.06,16.12a13.75,13.75,0,0,0-.91,3c-.83,5.84-2.5,11.75-2.25,17.66.28,6.55.53,13.67,2.9,19.87,2.17,5.7,4.37,12.85,8.08,18.22a140.88,140.88,0,0,0,11,14.4l1.49-.2a27,27,0,0,1,13.66,3.7l4.18,2a27.68,27.68,0,0,1,17.35,7.86l.82.76q-9.1-4.26-18.17-8.62c-.59,0-1.19-.07-1.8-.07a26.84,26.84,0,0,0-9.89,1.89,74.63,74.63,0,0,1-6.83-6.42c-.28-.3-.55-.6-.81-.91L506,1223a27.07,27.07,0,0,0-18.91,33.31Z"/><path class="cls-2" d="M531,1227.69q9.06,4.35,18.17,8.62l-.82-.76A27.68,27.68,0,0,0,531,1227.69Z"/><path class="cls-2" d="M511.7,1222.18c.26.31.53.61.81.91a74.63,74.63,0,0,0,6.83,6.42,26.84,26.84,0,0,1,9.89-1.89c.61,0,1.21,0,1.8.07l-4.18-2a27,27,0,0,0-13.66-3.7Z"/><path class="cls-2" d="M531,1227.69q9.06,4.35,18.17,8.62l-.82-.76A27.68,27.68,0,0,0,531,1227.69Z"/><path class="cls-2" d="M511.7,1222.18c.26.31.53.61.81.91a74.63,74.63,0,0,0,6.83,6.42,26.84,26.84,0,0,1,9.89-1.89c.61,0,1.21,0,1.8.07l-4.18-2a27,27,0,0,0-13.66-3.7Z"/><path class="cls-3" d="M556.35,1000.32c4.77,4.77,8.41,12.24,7.93,19.14a218.23,218.23,0,0,1-6.14,39.33c1.53,7.24,2.94,14.5,4,21.82,1.77,11.84,3.27,23.74,2.91,35.73a129.43,129.43,0,0,1-2.42,20.17c-1.2,6.32-3.78,12.13-6.36,18a27.19,27.19,0,0,1-9.72,9.71,26.9,26.9,0,0,1-13.67,3.7c-9.09,0-19.14-5.05-23.38-13.41-6.53-12.9-12.25-26.68-14.22-41.09-.32-2.4-.64-4.8-1-7.2a27,27,0,0,1,3.69-13.67,27.3,27.3,0,0,1,9.81-9.76q-.38-2-.77-3.94a27,27,0,0,1-4.4-9c-2.15-13.11-4.94-26.22-5.28-39.54-.28-10.87,6.92-20.91,16.75-25a25.66,25.66,0,0,1,3.92-5,27.07,27.07,0,0,1,38.29,0Z"/><path class="cls-3" d="M568.39,942.48h0a27.08,27.08,0,0,0-37,9.72,26.9,26.9,0,0,0-3.5,10.4A27.31,27.31,0,0,0,517,972.91a26.92,26.92,0,0,0-3.61,11.45,27.33,27.33,0,0,0-11.59,10.71c-3.51,6-4.95,14.13-2.73,20.87a209.28,209.28,0,0,1,8,34.71c2.43,20.39,2.91,40.92,3.9,61.42.32,6.66.7,13.32,1.21,20l-5.48-.74A27,27,0,0,0,485.23,1142a27.74,27.74,0,0,0-5,2.27,27.09,27.09,0,0,0-13.42,23.37,66.7,66.7,0,0,0-.32,15c.7,6.94,1.44,14.3,3.87,20.93a92.36,92.36,0,0,0,5.2,12.17,73.47,73.47,0,0,0,7.49,10.6,47.83,47.83,0,0,0,15.65,12.56c5.84,2.94,11.84,4.39,18.19,3.32q5.53,7,11.64,13.5c6.57,7,17.23,9.47,26.34,7a27,27,0,0,0,11.94-7l4.24-5.48a77.14,77.14,0,0,0,9.53-19.47,91,91,0,0,0,4-20.81c1-10.58-.11-21.12-1.45-31.62-1.44-11.3-2.67-22.56-3-34q-.13-4.26-.18-8.51a267.82,267.82,0,0,0,1.07-40.77c1.07-19.51,2.61-39,3.38-58.52.48-12.37.73-24.78.29-37.16a397.69,397.69,0,0,0-3.83-40.73,27.13,27.13,0,0,0-7-12l-5.48-4.23Zm-96.8,229.71h0l0,.12h0l0-.12Z"/><path class="cls-4" d="M260.32,1187.05a27.08,27.08,0,0,0,33.3,18.89,22.93,22.93,0,0,0,2.53-.85,168.56,168.56,0,0,0,16.88,13,185.08,185.08,0,0,0,22.65,13.23c37.89,18.88,79.35,30.31,121.2,36,21,2.86,42.06,5,63.28,4.24a260.52,260.52,0,0,0,30.77-3,116.73,116.73,0,0,0,20.35-4.87c6.83-2.38,12.44-6.05,16.17-12.44a27,27,0,0,0-.12-27.52c.43-3.27.77-6.54.93-9.81.79-17.79-1.3-35.76-3.58-53.38-.1-.81-.21-1.64-.31-2.48-.19-8.59-.44-17.17-.83-25.76,3.4-4.68,4.85-10.06,5.26-16.05,3.31-47.4,5.36-95,2.38-142.46-.39-6.07-1.91-11.58-5.45-16.28a478.89,478.89,0,0,0,10.95-53.67,730.48,730.48,0,0,0,8.26-95.67,25.21,25.21,0,0,0-2-10.15c2.63-8.32,4.82-16.77,6.67-25.3,5.24-24.16,8.28-48.7,11.87-73.12,3.48-23.65,7.25-47.52,14.83-70.24,4.08-12.32,8.47-24.54,12.69-36.8,4-11.76,8.22-23.44,12.92-34.95a230.36,230.36,0,0,1,16-30.83c5.45-8.68,11.29-17.08,17.46-25.26a297.16,297.16,0,0,1,25.06-28.27c9.63-7.47,19.15-15,28.41-22.94,5.24-4.47,7.93-12.47,7.93-19.15a25.44,25.44,0,0,0-.43-4.7c3.46-1.41,6.9-2.86,10.25-4.53,4.24-2.11,6.09-7.66,4.89-12a10.71,10.71,0,0,0-4.89-6.36,10.48,10.48,0,0,0-5.38-1.45A15.64,15.64,0,0,0,759,402l-.77,0a10.7,10.7,0,0,0-8.63,4.47c-.17.08-.35.15-.52.21a8.19,8.19,0,0,0-1.16-.39,10.44,10.44,0,0,0-5.67,0l-1,.41a28.09,28.09,0,0,0-11.76-2.59,25.29,25.29,0,0,0-13.34,3.71A195.79,195.79,0,0,0,682.2,435l-1.57,1.2c-.44-.12-.89-.23-1.33-.31a28.39,28.39,0,0,0-14-3.81,24.06,24.06,0,0,0-13.13,3.77q-6.06,3.89-12.15,7.72c-1,.64-2,1.26-3,1.9a28.41,28.41,0,0,0-21.24-3c-14.2,3.46-27.77,8.63-41.15,14.41a295.23,295.23,0,0,0-35.68,18.47A467.46,467.46,0,0,0,477.82,520a27.46,27.46,0,0,0-6.81,2.75A195.66,195.66,0,0,0,448.15,538a296.18,296.18,0,0,0-25,21.16c-15.38,14.83-29,31.29-41.74,48.37-22.86,30.52-42.1,63.63-58.93,97.8A27.11,27.11,0,0,0,318.83,719c.33,2.38.66,4.8,1,7.19a25.81,25.81,0,0,0,.91,2.69,326.66,326.66,0,0,0-13.54,35.74A428.09,428.09,0,0,0,294,817.2c-3.56,19.22-6.34,38.82-6.81,58.37a171.23,171.23,0,0,0,.75,22.94c.44,4.1.91,8.2,1.57,12.28l-.17,2.67c-.37,5.47-.66,11-.81,16.46q-.78,9.52-1.8,19c-4.31,16.84-7.83,33.88-10.68,51a759.9,759.9,0,0,0-10.29,104,25,25,0,0,0,3.95,14.08c-.62,1.55-1.24,3.11-1.8,4.7a47.06,47.06,0,0,0-2.44,8.57,81.1,81.1,0,0,0-1.53,13,73.75,73.75,0,0,0,1.39,12.88,38.26,38.26,0,0,0,1,4.1c-1,1.66-2.11,3.29-3.23,4.89C259,1171.91,258.52,1180.54,260.32,1187.05Z"/><path class="cls-1" d="M877.52,386.59h0a6,6,0,0,0-.7,0,11.15,11.15,0,0,0-2.26,21.88l3,.4c7.66.91,15.31,1.93,23,3,81.78,11.15,163.64,28.1,240,60,38,16.19,74.39,36.23,107.25,61.33a377.6,377.6,0,0,1,65.62,65.2,355.08,355.08,0,0,1,44,75.33c16.89,40.82,26.16,84.2,32.19,127.84,3.36,25.33,5.7,50.77,7.75,76.23q3.3,40.92,6.8,81.82c4.86,57,9.08,114.19,5.84,171.38-.34,6.06,5.32,11.12,11.12,11.12a11.16,11.16,0,0,0,7.86-3.26,11.48,11.48,0,0,0,3.26-7.86c3.66-64.74-2.22-129.46-7.79-193.93-5-57.94-8-116.3-18.49-173.6-5.07-27.75-11.8-55.3-21.65-81.76a361.36,361.36,0,0,0-75.52-123A400,400,0,0,0,1259,514c-35.38-27-74.78-48.06-115.89-65-41.41-17-84.51-29.73-128.17-39.5-45.32-10.15-91.31-17.44-137.43-22.91ZM898,411.45h0l1.13.15-1.13-.15Z"/><path class="cls-1" d="M884.05,388.52h0a149.69,149.69,0,0,0-34.3-4.23q-2.16,0-4.31.07a148.43,148.43,0,0,0-36.79,5.84,182.09,182.09,0,0,0-53.47,26.34,276.46,276.46,0,0,0-46.71,42.19c-28.1,31.77-50.87,68.31-68.35,106.91a436,436,0,0,0-20.7,54.13,760,760,0,0,0-20.5,86.91c-10.58,59.82-15.35,120.5-17.59,181.16-2.23,60.41-2,120.86-3.42,181.28-1.52,63.4-5.05,126.86-1.37,190.25a11.55,11.55,0,0,0,3.26,7.86,11.19,11.19,0,0,0,7.86,3.26c5.79,0,11.47-5.06,11.12-11.12-2.84-48.81-1.41-97.7.11-146.52q1.44-46.48,2.07-93c.39-30.11.69-60.23,1.38-90.34,1.36-59.43,4.18-118.9,11.93-177.88a853,853,0,0,1,18.59-97.19c3.44-13.39,7.11-26.76,11.55-39.86q4.72-13.9,10.38-27.43a444.26,444.26,0,0,1,55.39-95.86c14.68-18.75,31.12-36.15,49.87-50.9A193.92,193.92,0,0,1,799.36,417a147.72,147.72,0,0,1,34.12-9.48,136.35,136.35,0,0,1,32.09,0q6.34.95,12.58,2.42a11.26,11.26,0,0,0,13.67-7.77c1.56-5.67-1.87-12.28-7.77-13.67ZM709.69,491.94h0l-.83,1.06.83-1.06Zm-95,256.9h0l-.16,1.23.16-1.23Z"/><path class="cls-1" d="M827.16,386.27h0q-5.48-.27-10.95-.26a297.37,297.37,0,0,0-44.31,3.61A458.32,458.32,0,0,0,716,401.89c-36.33,10.22-71.66,23.59-106.8,37.25-24.89,9.67-49.84,19.15-73.85,30.9a533.76,533.76,0,0,0-69.94,40.79,488,488,0,0,0-63.5,52.09c-17.22,16.9-33,35.13-46.46,55.19-25.53,38.11-43.2,81.23-55.71,125.23-13.14,46.24-21,93.82-26.48,141.52-5.36,46.36-8.41,92.94-11.38,139.51-1.44,22.57-2.92,45.14-4.72,67.69-2.54,31.84-5.14,63.76-2.89,95.7a11.67,11.67,0,0,0,3.26,7.86,11.12,11.12,0,0,0,15.72,0,10.8,10.8,0,0,0,3.26-7.86q-1.08-15.3-.87-30.65c.39-29.54,3.44-59,5.54-88.4,1.56-22,2.9-44,4.34-65.94,3-46.69,6.54-93.39,12.73-139.79,8-58.2,20.12-116.36,42.72-170.78,11.87-27.84,26.58-54.43,44.94-78.53,20.46-26.1,45-49,71.16-69.37,35.81-27.4,75.2-49.74,116.64-67.42,16.08-6.72,32.43-12.83,48.68-19.12,17.17-6.64,34.39-13.19,51.78-19.26,34.67-12.1,70.11-22.7,106.55-27.86a265,265,0,0,1,46.49-2.14c6.06.29,11.12-5.28,11.12-11.12a11.16,11.16,0,0,0-3.26-7.86,11.53,11.53,0,0,0-7.86-3.26ZM298,864.14h0l-.12.88.12-.88Z"/><path class="cls-1" d="M1430.51,1125.07h0a11.93,11.93,0,0,0-3.14-.41,9.27,9.27,0,0,0-5.42,1.53c-9.19,6.78-19.3,11.89-29.44,17.08q-12.77,6.53-25.93,12.22c-62.14,25.77-129.06,35.74-195.05,46.39-35.65,5.75-71.21,12-106.86,17.75-35.14,5.67-70.33,11-105.6,15.8-48.23,6.46-96.61,11.86-145.15,15.32-30.69,2.18-61.43,3.47-92.17,4.83-27.51,1.22-55.05,2.3-82.59,2.78-57.92,1-116-.29-173.53-7.87C421,1244.35,376.68,1234.33,335,1217a323.06,323.06,0,0,1-62.58-35c-2.3-1.67-5.93-1.84-8.57-1.12a11.11,11.11,0,0,0-7.77,13.67c.82,3,2.67,4.89,5.11,6.65a295.2,295.2,0,0,0,30.51,19.41c48.83,26.93,103.51,41.75,158.4,49.93,58,8.64,116.73,10.9,175.33,10.24,27.87-.32,55.72-1.24,83.55-2.43,28.91-1.23,57.85-2.36,86.73-4.18,76.21-4.77,152-14.24,227.51-25.7,37.59-5.71,75.11-11.89,112.59-18.24,34.17-5.79,68.45-10.92,102.57-17,33.77-6,67.49-13.12,100.14-23.77a447.47,447.47,0,0,0,48.51-18.83c8.22-3.78,16.3-7.87,24.32-12a162.48,162.48,0,0,0,21.83-13.18,11.21,11.21,0,0,0,4-4c.37-.88.75-1.77,1.12-2.66a11.11,11.11,0,0,0-7.77-13.67ZM1365.44,1156h0l-.91.38.91-.38Zm-407.85,79.65h0l-1.35.18,1.35-.18Z"/><path class="cls-1" d="M865.4,375.41h0a7.56,7.56,0,0,0-2.75-.48,12.09,12.09,0,0,0-5.82,1.59,11.12,11.12,0,0,0,0,19.2l2.66,1.13q16,6.24,31.8,12.85a828.08,828.08,0,0,1,78,37.37A576.65,576.65,0,0,1,1041,493.6a525.51,525.51,0,0,1,91.78,92.21c32.41,42.29,58.69,88.93,79.57,137.91,28.42,67.79,46.59,139.56,56.47,212.33a989,989,0,0,1,1.47,244.94c-.32,2.76,1.38,6,3.26,7.86a11.12,11.12,0,0,0,18.58-4.91c.14-1,.26-2,.4-3q5.75-48.35,6.69-97.11a986.11,986.11,0,0,0-7.52-143c-6.15-48.29-15.56-96.15-29.39-142.85-27-91.33-69.95-178.86-132.71-251a529.7,529.7,0,0,0-117.28-100.42c-46.18-29.11-96.15-51.36-146.89-71.2Zm347.37,349.36h0l.39.91-.39-.91Zm55.72,209h0l.12.91-.12-.91Z"/><path class="cls-1" d="M847.08,356.2a105.23,105.23,0,0,1,15.15,2.89c8.33,2.3,16.53,6,22.93,11.88a22.35,22.35,0,0,1,7.34,16.83c-.26,6.06-4.87,11.12-11.12,11.12a11.51,11.51,0,0,1-8.76-4.28,9.21,9.21,0,0,1-4.83,1.08,31.5,31.5,0,0,0-4.22.06c-2.7.13-5.38.32-8.07.49-6.84.43-13.67.8-20.52.85a92.89,92.89,0,0,1-20.87-1.76,23.62,23.62,0,0,1-7.74-3.13c-3.24-2.14-6.38-5.48-7-9.48a16.51,16.51,0,0,1,.13-7.37,16.34,16.34,0,0,1,2.08-4.74,31.59,31.59,0,0,1,9.12-9.2,28.34,28.34,0,0,1,5.76-2.78,34.91,34.91,0,0,1,4.51-1.47,64.93,64.93,0,0,1,13.87-1.7l1.8,0a85.83,85.83,0,0,1,10.46.71Z"/><path class="cls-1" d="M1796.56,1248.7h0a11.13,11.13,0,0,0-13.48-1.74l-2.25,1.74-.73.58c-15,11.33-31.68,20.15-48.94,27.58-50.33,20.87-104.35,30.81-157.38,42.16-12.44,2.66-24.88,5.36-37.23,8.45-16.8,4.2-33.67,8.17-50.62,11.73q-50.85,10.7-102.37,17.62-31.95,4.21-64.05,7.09-61.75,5.47-123.78,6.5c-42,.73-83.91.05-125.85-1.31-84.09-2.74-168.12-8.31-251.54-19.47q-19-2.6-38-5.58c-22.22-3.52-44.32-7.69-66.52-11.32-18.84-3.09-37.67-6.26-56.44-9.77-22.6-4.23-45.15-8.83-67.46-14.41-19.29-4.82-38.61-10.15-57-17.72a104.22,104.22,0,0,1-20-10.81,36.11,36.11,0,0,1-4.13-4c-.33-.5-.64-1-.93-1.54l-.13-.45s0-.09,0-.13a11.2,11.2,0,0,0-.23-4.85l-1.13-2.65a11.11,11.11,0,0,0-15.21-4c-2.25,1.31-4.69,4-5.11,6.64a24.64,24.64,0,0,0-.49,6.35,23.1,23.1,0,0,0,1.3,6.29,32.56,32.56,0,0,0,7,10.94c6,6.16,13.69,10.73,21.37,14.41,22.63,10.86,47.16,17.62,71.46,23.56,40.58,9.92,81.78,17.05,123,23.8,23.29,3.82,46.47,8.23,69.8,11.82q62.79,9.68,126.11,15.36c42,3.79,84.09,6.47,126.22,8.27s84.33,3.08,126.51,3.07c82.87,0,165.73-5,247.75-17,41.18-6.06,82.13-13.82,122.59-23.62,15.23-3.69,30.43-7.43,45.75-10.73s30.64-6.45,45.94-9.77c31.87-6.9,63.8-14.32,94.62-25.11a358.35,358.35,0,0,0,44-18.35,224.57,224.57,0,0,0,20-11.34c6.07-3.91,11.87-8.14,17.54-12.62,2.18-1.72,3.26-5.22,3.26-7.86a11.19,11.19,0,0,0-3.26-7.86Zm-17,1h0l-1.4,1.08,1.4-1.08Zm-393.7,106.84h0l-.9.12.9-.12Z"/><path class="cls-1" d="M1790.64,1247.09h0a10.57,10.57,0,0,0-2.82-.39,12.76,12.76,0,0,0-5.76,1.5q-9.87,5-20,9.33c-30.4,12.64-62.21,21.48-94.18,29.1-28.18,6.71-56.46,13-84.75,19.2q-43.3,9.46-86.77,18.12c-58.15,11.5-116.57,21.65-175.32,29.64q-22.94,3.07-45.94,5.69c-117.8,13.3-237.34,17-355.11,1.39q-14.42-2-28.78-4.34a11.23,11.23,0,0,0-5.92,0l-2.65,1.12a11.11,11.11,0,0,0-4,15.21c1.32,2.27,3.94,4.67,6.64,5.11,68.92,11.34,138.8,15.95,208.61,15.32,120.55-1.09,240.64-16.57,359.07-38.3,58.14-10.67,116-22.87,173.63-35.88,56.74-12.82,114.41-25.13,166.71-51.53,5.41-2.73,6.9-10.23,4-15.21a11.18,11.18,0,0,0-6.64-5.11Zm-470.94,106.7h0l-.93.13.93-.13Z"/><path class="cls-1" d="M1529.27,1323.5a11.13,11.13,0,0,1,0,15.73L1527,1341a11.1,11.1,0,0,1-5.61,1.52c-125.69,16.31-251.37,34-378,41.17-74,4.19-148.22,4.59-222.13-1.05a11.67,11.67,0,0,1-7.86-3.26,11.13,11.13,0,0,1,0-15.73,10.82,10.82,0,0,1,7.86-3.26c126.59,9.65,253.66,1.36,379.61-12.47,73.65-8.08,147.06-18.12,220.53-27.65a5.69,5.69,0,0,1,.73,0,11.17,11.17,0,0,1,7.13,3.3Z"/><path class="cls-1" d="M636.77,1240.37c.06,4,0,8-.26,12a8,8,0,0,1-2.27,5.47,7.76,7.76,0,0,1-5.47,2.27c-4,0-8-3.52-7.74-7.74.23-4,.32-8,.26-12a7.74,7.74,0,1,1,15.47,0Z"/><path class="cls-1" d="M636.18,1197.24h0c.18-4.22-3.66-7.74-7.74-7.74a7.84,7.84,0,0,0-7.74,7.74q-.16,3.61-.59,7.21l0,.24a7.74,7.74,0,0,0,0,4.11l.78,1.85a7.74,7.74,0,0,0,10.58,2.77,7.38,7.38,0,0,0,3.56-4.62c.56-3.84,1-7.68,1.18-11.56Zm-15.89,6h0c0,.23-.06.46-.09.69l.09-.69Z"/><path class="cls-1" d="M636.11,1155.52q-.14,6.23-.7,12.43a8.2,8.2,0,0,1-2.26,5.47,7.74,7.74,0,0,1-10.95,0,7.47,7.47,0,0,1-2.27-5.47q.57-6.21.7-12.43a7.74,7.74,0,0,1,15.47,0Z"/><path class="cls-1" d="M635.42,1111.31q-.25,7.17-.66,14.34a8,8,0,0,1-2.27,5.47,7.79,7.79,0,0,1-5.47,2.27c-4,0-8-3.52-7.74-7.74q.41-7.16.66-14.34a7.74,7.74,0,1,1,15.47,0Z"/><path class="cls-1" d="M634.74,1070q0,6.88-.13,13.75a7.74,7.74,0,0,1-15.47,0q.1-6.88.13-13.75a7.74,7.74,0,1,1,15.47,0Z"/><path class="cls-1" d="M635.12,1029.15q-.4,5.67-1.07,11.3l-.27,2.05a7.74,7.74,0,0,1-12.93,3.41,7.42,7.42,0,0,1-2.27-5.47q.67-5.64,1.07-11.3a8.11,8.11,0,0,1,2.27-5.47,7.76,7.76,0,0,1,5.47-2.27c4,0,8,3.53,7.74,7.74Z"/><path class="cls-1" d="M636.81,989.71c-.25,4.88-.8,9.72-1.53,14.55a7.37,7.37,0,0,1-3.55,4.62,7.72,7.72,0,0,1-10.58-2.77l-.78-1.85a7.74,7.74,0,0,1,0-4.11l.13-.89q.6-4.76.84-9.55a7.84,7.84,0,0,1,7.74-7.74c4.06,0,7.95,3.52,7.74,7.74Z"/><path class="cls-1" d="M633.18,939.61a7.78,7.78,0,0,1,4.62,3.56l.78,1.84a7.77,7.77,0,0,1,0,4.11q-.78,6.06-1.23,12.15a8.12,8.12,0,0,1-2.27,5.47,7.73,7.73,0,0,1-10.94,0,7.49,7.49,0,0,1-2.27-5.47c.4-5.45,1-10.85,1.78-16.26.26-1.86,2-3.72,3.56-4.62a7.78,7.78,0,0,1,6-.78Z"/><path class="cls-1" d="M639.45,909.38q-.37,6.3-1,12.57a8.3,8.3,0,0,1-2.27,5.47,7.73,7.73,0,0,1-10.94,0,7.44,7.44,0,0,1-2.27-5.47q.65-6.28,1-12.57a8.05,8.05,0,0,1,2.27-5.47,7.78,7.78,0,0,1,5.47-2.27c4,0,8,3.53,7.74,7.74Z"/><path class="cls-1" d="M639.06,865.82q-.37,8.9-1.3,17.75a8.24,8.24,0,0,1-2.27,5.47,7.73,7.73,0,0,1-10.94,0,7.44,7.44,0,0,1-2.27-5.47q.92-8.86,1.3-17.75a7.85,7.85,0,0,1,7.74-7.74c4.09,0,7.92,3.52,7.74,7.74Z"/><path class="cls-1" d="M640.48,817.63c-.34,4.86-.91,9.68-1.63,14.49a7.39,7.39,0,0,1-3.55,4.62A7.74,7.74,0,0,1,624.71,834c-.26-.61-.52-1.23-.78-1.84a7.77,7.77,0,0,1,0-4.12l.19-1.31c.38-3,.67-6,.89-9.06a8.12,8.12,0,0,1,2.27-5.47,7.78,7.78,0,0,1,5.47-2.27c4,0,8,3.53,7.74,7.74Z"/><path class="cls-1" d="M640.35,762.9a7.81,7.81,0,0,1,4.62,3.56l.78,1.84a7.77,7.77,0,0,1,0,4.12,96.22,96.22,0,0,1-2.95,13.69A7.74,7.74,0,0,1,627.88,782a96.22,96.22,0,0,0,2.95-13.69c.26-1.86,2-3.72,3.56-4.62a7.79,7.79,0,0,1,3.92-1.05,7.67,7.67,0,0,1,2,.28Z"/><path class="cls-1" d="M649.08,719.82a7.81,7.81,0,0,1,4.62,3.56l.78,1.85a7.74,7.74,0,0,1,0,4.11q-1,6.39-1.84,12.8c-.26,1.87-2,3.72-3.56,4.62A7.72,7.72,0,0,1,638.5,744l-.78-1.85a7.74,7.74,0,0,1,0-4.11q.88-6.4,1.84-12.8a7.38,7.38,0,0,1,3.56-4.62,7.8,7.8,0,0,1,6-.79Z"/><path class="cls-1" d="M654.63,682.06a7.81,7.81,0,0,1,4.62,3.56,8.26,8.26,0,0,1,.79,6q-1.14,6.43-2.18,12.87a7.43,7.43,0,0,1-3.56,4.62,7.72,7.72,0,0,1-10.58-2.77,8.34,8.34,0,0,1-.78-6q1-6.45,2.18-12.87a7.44,7.44,0,0,1,3.55-4.62,7.8,7.8,0,0,1,6-.79Z"/><path class="cls-1" d="M666.67,635.85a7.77,7.77,0,0,1,4.62,3.55,8,8,0,0,1,.78,6,77.58,77.58,0,0,1-3,10.48,8.18,8.18,0,0,1-3.55,4.62,7.74,7.74,0,0,1-10.58-2.77,7.53,7.53,0,0,1-.78-6,77.45,77.45,0,0,0,3-10.47c.74-3.45,4.19-5.66,7.57-5.66a7.32,7.32,0,0,1,1.95.26Z"/><path class="cls-1" d="M681,594.71a7.81,7.81,0,0,1,3.56,4.62c.09.69.18,1.37.28,2.05a7.79,7.79,0,0,1-1.06,3.91q-2.21,5.21-4.87,10.21c-2,3.72-7.06,4.84-10.58,2.78a7.84,7.84,0,0,1-2.77-10.58q2.65-5,4.87-10.22c.74-1.73,2.9-3.07,4.62-3.55a7.78,7.78,0,0,1,6,.78Z"/><path class="cls-1" d="M699.85,558.71a7.79,7.79,0,0,1,2.77,10.58q-2,3.27-4,6.61a7.74,7.74,0,1,1-13.36-7.81q1.95-3.33,4-6.61a8,8,0,0,1,6.75-3.82,7.56,7.56,0,0,1,3.83,1Z"/><path class="cls-1" d="M724.88,515.64c3.51,2,5.08,7,2.78,10.58s-4.9,7.18-7.55,10.62l-1.22,1.57a7.71,7.71,0,0,1-3.41,2A7.74,7.74,0,0,1,706,535c-.49-1.79-.42-4.42.78-6q4-5.17,7.55-10.63a8.21,8.21,0,0,1,6.78-3.82,7.47,7.47,0,0,1,3.8,1Z"/><path class="cls-1" d="M751.12,485.61a7.85,7.85,0,0,1,0,10.95q-2.29,2.47-4.38,5.11c-.5.67-1,1.34-1.47,2a8.3,8.3,0,0,1-4.62,3.56,7.74,7.74,0,0,1-9.52-5.41,7.5,7.5,0,0,1,.78-6,104.8,104.8,0,0,1,8.28-10.26,7.24,7.24,0,0,1,5.36-2.24,7.93,7.93,0,0,1,5.58,2.24Z"/><path class="cls-1" d="M773.85,457.1c2.86,2.86,3.14,8.13,0,10.94q-2.44,2.19-4.91,4.32a8.14,8.14,0,0,1-5.47,2.27,7.76,7.76,0,0,1-5.47-2.27c-2.82-2.82-3.2-8.19,0-10.94q2.47-2.14,4.91-4.32a8,8,0,0,1,5.47-2.27,7.78,7.78,0,0,1,5.47,2.27Z"/><path class="cls-1" d="M808.67,429.86a7.78,7.78,0,0,1,0,10.94,59.94,59.94,0,0,1-13.37,9.53,7.85,7.85,0,0,1-10.58-2.77c-2-3.5-1-8.65,2.77-10.58a54.25,54.25,0,0,0,7.21-4.47c1-.85,2.05-1.73,3-2.65a8.2,8.2,0,0,1,5.57-2.22,7.52,7.52,0,0,1,5.37,2.22Z"/><path class="cls-1" d="M831.61,407.7a7.74,7.74,0,0,1,5.4,9.52,7.5,7.5,0,0,1-3.55,4.62,78.84,78.84,0,0,0-11.5,6.79,7.53,7.53,0,0,1-6,.78,7.74,7.74,0,0,1-5.4-9.52,8.23,8.23,0,0,1,3.55-4.62,79.93,79.93,0,0,1,11.5-6.79,9.24,9.24,0,0,1,4-1,7.29,7.29,0,0,1,1.93.26Z"/><path class="cls-1" d="M555.09,1240.91q-.06,5-.19,9.93a7.74,7.74,0,1,1-15.47,0q.12-5,.19-9.93a7.74,7.74,0,0,1,15.47,0Z"/><path class="cls-1" d="M556.93,1197.2q-.46,7.29-.29,14.58a7.74,7.74,0,0,1-15.47,0q-.18-7.3.29-14.58a8.07,8.07,0,0,1,2.27-5.47,7.74,7.74,0,0,1,5.47-2.27c4,0,8,3.52,7.74,7.74Z"/><path class="cls-1" d="M554.88,1146.57q-.25,6.35-.82,12.68a8.24,8.24,0,0,1-2.27,5.47,7.73,7.73,0,0,1-10.94,0,7.44,7.44,0,0,1-2.27-5.47q.57-6.33.82-12.68a7.85,7.85,0,0,1,7.74-7.74c4.09,0,7.91,3.52,7.74,7.74Z"/><path class="cls-1" d="M557.74,1096.89q0,7.07-.26,14.14a7.74,7.74,0,0,1-15.47,0q.23-7.07.26-14.14a7.74,7.74,0,0,1,15.47,0Z"/><path class="cls-1" d="M558,1055.77q.11,5.71.31,11.42a7.74,7.74,0,0,1-15.47,0q-.19-5.71-.31-11.42a7.74,7.74,0,1,1,15.47,0Z"/><path class="cls-1" d="M555.38,1015.48q-.32,5.33-.91,10.64a8.32,8.32,0,0,1-2.27,5.47,7.73,7.73,0,0,1-10.94,0,7.4,7.4,0,0,1-2.27-5.47q.59-5.3.91-10.64a8.06,8.06,0,0,1,2.27-5.47,7.76,7.76,0,0,1,5.47-2.27c4,0,8,3.52,7.74,7.74Z"/><path class="cls-1" d="M557,972.59c-.05,3.69-.07,7.37-.07,11.06a7.74,7.74,0,0,1-15.47,0c0-3.69,0-7.37.07-11.06a7.74,7.74,0,0,1,15.47,0Z"/><path class="cls-1" d="M558.19,924.71q-.23,7.16-.85,14.29a8.16,8.16,0,0,1-2.27,5.47,7.73,7.73,0,0,1-10.94,0,7.46,7.46,0,0,1-2.27-5.47q.61-7.14.85-14.29a7.74,7.74,0,0,1,15.47,0Z"/><path class="cls-1" d="M558,874.26a7.39,7.39,0,0,1,2.27,5.47q-.86,7-1.28,13.95a8,8,0,0,1-2.27,5.47,7.76,7.76,0,0,1-5.47,2.27c-4,0-8-3.52-7.74-7.74q.42-7,1.28-13.95l.27-2.05A7.74,7.74,0,0,1,558,874.26Z"/><path class="cls-1" d="M563.42,821.35q-.66,9.33-.9,18.66a7.74,7.74,0,1,1-15.47,0q.24-9.34.9-18.66a8.12,8.12,0,0,1,2.27-5.47,7.78,7.78,0,0,1,5.47-2.27c4,0,8,3.53,7.74,7.74Z"/><path class="cls-1" d="M565.65,767.83a7.77,7.77,0,0,1,4.62,3.55,8,8,0,0,1,.78,6q-1.47,6.9-2.89,13.8c-.84,4.13-5.66,6.47-9.52,5.41A7.81,7.81,0,0,1,554,793a8.11,8.11,0,0,1-.78-6q1.41-6.91,2.89-13.8c.75-3.45,4.19-5.66,7.57-5.66a7.32,7.32,0,0,1,1.95.26Z"/><path class="cls-1" d="M575.47,719.43a7.84,7.84,0,0,1,5.4,9.52q-2.19,9.21-4,18.52a7.51,7.51,0,0,1-3.55,4.62,7.74,7.74,0,0,1-10.58-2.78,8.15,8.15,0,0,1-.79-6q1.78-9.3,4-18.52a7.73,7.73,0,0,1,7.55-5.67,7.42,7.42,0,0,1,2,.26Z"/><path class="cls-1" d="M588.05,671.91a7.83,7.83,0,0,1,5.4,9.51,63.25,63.25,0,0,1-4.9,13c-1.88,3.77-7.12,4.8-10.58,2.78a7.77,7.77,0,0,1-3.55-4.62,8.08,8.08,0,0,1,.78-6q.6-1.21,1.15-2.43a55.78,55.78,0,0,0,2.19-6.86,7.76,7.76,0,0,1,7.54-5.67,7.43,7.43,0,0,1,2,.27Z"/><path class="cls-1" d="M600.45,623.26a7.79,7.79,0,0,1,4.62,3.55,7.54,7.54,0,0,1,.78,6q-3.09,8.48-5.84,17.06a7.85,7.85,0,0,1-9.52,5.4c-3.94-1.08-6.69-5.5-5.4-9.51q2.74-8.59,5.84-17.06a8.16,8.16,0,0,1,3.56-4.62,7.78,7.78,0,0,1,6-.78Z"/><path class="cls-1" d="M618.66,575.3a7.81,7.81,0,0,1,3.56,4.62l.27,2.05a7.64,7.64,0,0,1-1.06,3.91q-3.44,7.77-6.87,15.56a7.42,7.42,0,0,1-4.62,3.56,7.75,7.75,0,0,1-9.52-5.41l-.27-2.05a7.64,7.64,0,0,1,1.06-3.91q3.42-7.79,6.87-15.56a7.42,7.42,0,0,1,4.62-3.56,7.8,7.8,0,0,1,6,.79Z"/><path class="cls-1" d="M637,525a7.81,7.81,0,0,1,4.62,3.56,7.54,7.54,0,0,1,.79,6,87.67,87.67,0,0,1-9.65,19.3,8.13,8.13,0,0,1-4.62,3.56,7.8,7.8,0,0,1-6-.79c-3.46-2-5.13-7.08-2.77-10.58a81.82,81.82,0,0,0,6.76-12.16q.69-1.71,1.32-3.44a8.15,8.15,0,0,1,3.55-4.62,7.8,7.8,0,0,1,6-.79Z"/><path class="cls-1" d="M662.83,487.7a7.82,7.82,0,0,1,2.77,10.58,104,104,0,0,1-12.74,17.48c-2.82,3.14-8.08,2.86-10.94,0a7.76,7.76,0,0,1-2.27-5.47,8,8,0,0,1,2.27-5.47q2-2.25,3.9-4.61a97.48,97.48,0,0,0,6.43-9.74,7.76,7.76,0,0,1,6.73-3.81,7.6,7.6,0,0,1,3.85,1Z"/><path class="cls-1" d="M695.1,451.71a7.76,7.76,0,0,1,2.27,5.47c0,1.83-.75,4.29-2.27,5.47a138.75,138.75,0,0,0-11.76,10.23,7.74,7.74,0,0,1-10.95-10.95,140.13,140.13,0,0,1,11.77-10.22l1.56-1.22a7.75,7.75,0,0,1,9.38,1.22Z"/><path class="cls-1" d="M734.73,416.08A7.84,7.84,0,0,1,732,426.67c-1.74,1.08-3.41,2.22-5,3.43a73.78,73.78,0,0,0-7.74,7.17,7.74,7.74,0,1,1-10.95-10.94,79,79,0,0,1,15.92-13,7.12,7.12,0,0,1,3.78-1.06,8,8,0,0,1,6.8,3.84Z"/><path class="cls-1" d="M1250.14,1166.17a7.77,7.77,0,0,1,4.62,3.55,8.34,8.34,0,0,1,.78,6,100.16,100.16,0,0,1-2.18,10.32,7.74,7.74,0,0,1-14.92-4.12,102.09,102.09,0,0,0,2.18-10.31,7.41,7.41,0,0,1,3.55-4.62,7.81,7.81,0,0,1,3.92-1.05,7.66,7.66,0,0,1,2,.28Z"/><path class="cls-1" d="M1263.35,1127.38a68.52,68.52,0,0,1-3.12,18.48,7.84,7.84,0,0,1-9.51,5.4c-3.94-1.08-6.69-5.49-5.4-9.51a63.94,63.94,0,0,0,2.21-9.33c.18-1.68.29-3.35.35-5a7.74,7.74,0,1,1,15.47,0Z"/><path class="cls-1" d="M1259.36,1077.21a7.83,7.83,0,0,1,4.62,3.56,8.22,8.22,0,0,1,.78,6q-1.18,6.27-2.79,12.44a7.74,7.74,0,0,1-14.92-4.12q1.61-6.16,2.79-12.43a7.46,7.46,0,0,1,3.56-4.62,7.8,7.8,0,0,1,6-.79Z"/><path class="cls-1" d="M1264.8,1039.66q-.1,6.41-.48,12.81a8.06,8.06,0,0,1-2.27,5.47,7.78,7.78,0,0,1-5.47,2.27c-4,0-8-3.52-7.74-7.74s.42-8.54.48-12.81a7.74,7.74,0,0,1,15.47,0Z"/><path class="cls-1" d="M1259.88,986.47q-.14,6.84-.5,13.69a8,8,0,0,1-2.27,5.47,7.78,7.78,0,0,1-5.47,2.27c-4,0-8-3.52-7.74-7.74q.36-6.84.5-13.69a7.74,7.74,0,0,1,15.47,0Z"/><path class="cls-1" d="M1250.5,927a7.37,7.37,0,0,1,3.55,4.62c.51,3.41.91,6.82,1.09,10.27a71.91,71.91,0,0,1-.26,9.63,8.19,8.19,0,0,1-2.27,5.47,7.73,7.73,0,0,1-10.94,0,7.46,7.46,0,0,1-2.27-5.47,77.17,77.17,0,0,0-.22-15.45l-.05-.34-.27-2.05a7.64,7.64,0,0,1,1.06-3.91A7.75,7.75,0,0,1,1250.5,927Z"/><path class="cls-1" d="M1245.39,883.88a72,72,0,0,1,1.44,14.45,7.74,7.74,0,0,1-15.47,0,63.28,63.28,0,0,0-.39-7.58c-.15-.92-.31-1.84-.49-2.76a8.11,8.11,0,0,1,.78-6,7.81,7.81,0,0,1,4.62-3.56,7.24,7.24,0,0,1,1.93-.25c3.38,0,6.9,2.19,7.59,5.66Z"/><path class="cls-1" d="M1236,835a106.39,106.39,0,0,1,3.14,13.61,8.35,8.35,0,0,1-.79,6,7.72,7.72,0,0,1-10.58,2.77,7.42,7.42,0,0,1-3.55-4.62,106.39,106.39,0,0,0-3.14-13.61,7.8,7.8,0,0,1,5.4-9.52,7.61,7.61,0,0,1,2-.27A7.92,7.92,0,0,1,1236,835Z"/><path class="cls-1" d="M1216.32,781.85l1.56,1.22a7.72,7.72,0,0,1,2,3.41,49.39,49.39,0,0,1,3.42,16.14c.23,4.21-3.69,7.74-7.74,7.74a7.78,7.78,0,0,1-5.47-2.27,8.05,8.05,0,0,1-2.27-5.47c-.05-.92-.12-1.83-.21-2.74a44,44,0,0,0-2.66-9.28,7.42,7.42,0,0,1,.78-6,7.81,7.81,0,0,1,4.62-3.56,7.67,7.67,0,0,1,2-.28,7.79,7.79,0,0,1,3.92,1.05Z"/><path class="cls-1" d="M1197.78,729.86a8.32,8.32,0,0,1,3.55,4.62q3.47,9,6.37,18.13a7.74,7.74,0,0,1-14.92,4.12q-2.9-9.17-6.37-18.14a7.48,7.48,0,0,1,.79-6,7.74,7.74,0,0,1,10.58-2.77Z"/><path class="cls-1" d="M1177.32,687.67a68.77,68.77,0,0,1,7.14,15.13c1.34,4-1.51,8.45-5.4,9.52a7.8,7.8,0,0,1-6-.79,8,8,0,0,1-3.56-4.62q-.58-1.71-1.24-3.39a62.69,62.69,0,0,0-4.34-8c-2.27-3.56-.76-8.52,2.78-10.58a7.5,7.5,0,0,1,3.81-1,8.12,8.12,0,0,1,6.78,3.82Z"/><path class="cls-1" d="M1154.64,645.17a80.05,80.05,0,0,1,7.4,15.43,7.53,7.53,0,0,1-.78,6,7.74,7.74,0,0,1-10.58,2.78,8.18,8.18,0,0,1-3.56-4.62q-.5-1.38-1-2.74a72.19,72.19,0,0,0-4.79-9,7.79,7.79,0,0,1,2.77-10.58,7.52,7.52,0,0,1,3.82-1,8,8,0,0,1,6.76,3.82Z"/><path class="cls-1" d="M1125,601A59.34,59.34,0,0,1,1133.5,614a8.23,8.23,0,0,1,.78,6,7.74,7.74,0,0,1-9.52,5.4,7.5,7.5,0,0,1-4.62-3.55,52.22,52.22,0,0,0-5.16-8.73l-.89-1.09a8.17,8.17,0,0,1-2.27-5.47,7.74,7.74,0,0,1,7.74-7.74A7.48,7.48,0,0,1,1125,601Z"/><path class="cls-1" d="M1100.24,569.05l5.81,7.16a8.29,8.29,0,0,1,2.26,5.47,7.73,7.73,0,0,1-7.74,7.74,7.44,7.44,0,0,1-5.47-2.27l-5.81-7.16a8.29,8.29,0,0,1-2.26-5.47,7.73,7.73,0,0,1,7.74-7.74,7.44,7.44,0,0,1,5.47,2.27Z"/><path class="cls-1" d="M1068.64,534.73q3.3,3.15,6.33,6.56a8,8,0,0,1,2.27,5.47,7.76,7.76,0,0,1-2.27,5.47c-2.86,2.86-8.14,3.15-10.94,0q-3-3.4-6.33-6.56a7.79,7.79,0,0,1,0-10.94,7.59,7.59,0,0,1,5.4-2.23,8,8,0,0,1,5.54,2.23Z"/><path class="cls-1" d="M1031.22,503.44a7.79,7.79,0,0,1,3.41,2,61.74,61.74,0,0,1,8.07,7.58,8,8,0,0,1,2.27,5.47,7.73,7.73,0,0,1-2.27,5.47c-2.85,2.86-8.13,3.15-10.94,0a62.26,62.26,0,0,0-8.07-7.58,7.38,7.38,0,0,1-2.27-5.47,7.74,7.74,0,0,1,7.74-7.74l2.05.27Z"/><path class="cls-1" d="M989.28,472.43a119,119,0,0,0,12.76,8.51,7.73,7.73,0,1,1-7.8,13.36,118.24,118.24,0,0,1-12.77-8.51l-1.56-1.22a7.74,7.74,0,0,1,3.41-12.93,8.49,8.49,0,0,1,2.2-.28,6.31,6.31,0,0,1,3.76,1.06Z"/><path class="cls-1" d="M948.3,447.27q6.05,3.57,11.89,7.47a8.09,8.09,0,0,1,3.56,4.62,7.79,7.79,0,0,1-.78,6c-2,3.48-7.08,5.12-10.58,2.78q-5.85-3.91-11.89-7.48a7.72,7.72,0,0,1,4-14.4,7.51,7.51,0,0,1,3.84,1Z"/><path class="cls-1" d="M900.53,424.57c1.15.61,2.31,1.19,3.49,1.72a53.46,53.46,0,0,0,8,2.4c4.12.89,6.47,5.62,5.4,9.51a7.81,7.81,0,0,1-3.56,4.62,8,8,0,0,1-6,.79,58.18,58.18,0,0,1-15.14-5.69,7.79,7.79,0,0,1-2.78-10.58,7.61,7.61,0,0,1,6.65-3.77,8.31,8.31,0,0,1,3.93,1Z"/><path class="cls-1" d="M856.16,403.31A37.77,37.77,0,0,1,869.8,409a8.07,8.07,0,0,1,3.56,4.62,7.79,7.79,0,0,1-.79,6c-2,3.47-7.08,5.13-10.58,2.77a35.13,35.13,0,0,0-4.66-2.64,34.06,34.06,0,0,0-5.28-1.49c-4.14-.82-6.46-5.68-5.41-9.52a7.81,7.81,0,0,1,3.56-4.62,7.31,7.31,0,0,1,3.8-1,11.15,11.15,0,0,1,2.17.23Z"/><path class="cls-1" d="M899.88,598.88h0c-4.84-3.69-11.05-5.11-17.05-5.11h-.1a7.7,7.7,0,0,0-4.93,1.81,8.7,8.7,0,0,0-4.54,1A31.09,31.09,0,0,0,868,600a19.59,19.59,0,0,0-3,2.7,30.39,30.39,0,0,0-3,4,29.47,29.47,0,0,0-2.12,4.43,20.28,20.28,0,0,0-1.11,4,23.62,23.62,0,0,0-.43,4.78,27.62,27.62,0,0,0,.58,4.73,25.48,25.48,0,0,0,1.55,4.41,22.53,22.53,0,0,0,13.6,12.06,27.86,27.86,0,0,0,9.84,1.45,30.24,30.24,0,0,0,9.66-1.63,26.85,26.85,0,0,0,8.94-5.26,21.23,21.23,0,0,0,4.74-6.17,22,22,0,0,0,2.55-8.67,22.72,22.72,0,0,0-.42-7.66,26.65,26.65,0,0,0-1.68-4.87,16,16,0,0,0-1.48-2.83,29.64,29.64,0,0,0-2.8-3.63,28.21,28.21,0,0,0-3.53-3Zm-17.65,10.35h0l.5,0c.93,0,1.84,0,2.76.1a23.54,23.54,0,0,1,3.35.88,20,20,0,0,1,2.28,1.32,19.3,19.3,0,0,1,1.56,1.56,18.24,18.24,0,0,1,1.15,2,18.7,18.7,0,0,1,.62,2.29,8.46,8.46,0,0,1-.56,4.33,17.45,17.45,0,0,1-1,1.78,18.49,18.49,0,0,1-1.43,1.41,19.77,19.77,0,0,1-2.1,1.2,24.55,24.55,0,0,1-3.52.93,28.85,28.85,0,0,1-4.6,0,22.22,22.22,0,0,1-2.86-.76,18.14,18.14,0,0,1-1.87-1.09c-.42-.38-.82-.78-1.2-1.2a16.89,16.89,0,0,1-.9-1.54,17.73,17.73,0,0,1-.52-1.93,18.58,18.58,0,0,1,0-2.17,19.5,19.5,0,0,1,.62-2.25,20.43,20.43,0,0,1,1.25-2.15,22,22,0,0,1,2.19-2.18,27.61,27.61,0,0,1,3.15-1.83,6.26,6.26,0,0,0,1.16-.75Z"/><path class="cls-1" d="M1289.83,555.21a7.77,7.77,0,0,1,3.55,4.62,7.5,7.5,0,0,1-.78,6,29,29,0,0,0-2.42,4.09,25.71,25.71,0,0,0-1,3.55,24,24,0,0,0,0,3.46,24.52,24.52,0,0,0,.85,3.18,11.49,11.49,0,0,0,3.48,4.67,20.49,20.49,0,0,0,2.27,1.34,9.89,9.89,0,0,0,5.23.64,25.76,25.76,0,0,0,3.87-1.12q.62-.3,1.21-.63a7.86,7.86,0,0,1,10.58,2.78c2,3.5,1,8.64-2.77,10.58a35.23,35.23,0,0,1-8.68,3.3,26.83,26.83,0,0,1-10.41.17,25,25,0,0,1-14.57-8.51,28.57,28.57,0,0,1-4.9-8.43,30.38,30.38,0,0,1-1.72-8.73,28,28,0,0,1,1.19-9.22,29.81,29.81,0,0,1,4.37-8.94,8.22,8.22,0,0,1,4.62-3.56,7.8,7.8,0,0,1,6,.79Z"/><path class="cls-1" d="M1325,1155.95a7.81,7.81,0,0,1,4.62,3.56c.26.61.52,1.23.78,1.84a7.77,7.77,0,0,1,0,4.12c-.39,2.57-.81,5.13-1.24,7.7a7.44,7.44,0,0,1-3.56,4.62A7.72,7.72,0,0,1,1315,1175a8.27,8.27,0,0,1-.78-6q.65-3.84,1.24-7.7a7.47,7.47,0,0,1,3.56-4.62,7.81,7.81,0,0,1,3.92-1.05,7.66,7.66,0,0,1,2,.28Z"/><path class="cls-1" d="M1330.87,1118.14a8.12,8.12,0,0,1,2.27,5.47c.14,2.27.32,4.54.51,6.81a7.47,7.47,0,0,1-2.27,5.47,7.73,7.73,0,0,1-10.94,0,8.19,8.19,0,0,1-2.27-5.47c-.19-2.27-.36-4.54-.51-6.81-.28-4.21,3.72-7.74,7.74-7.74a7.78,7.78,0,0,1,5.47,2.27Z"/><path class="cls-1" d="M1330.21,1077.14h0a7.73,7.73,0,0,0-10.94,0,8.3,8.3,0,0,0-2.27,5.47q-.34,3.49-.79,7l-.08.56a7.9,7.9,0,0,0,0,4.11c.26.62.52,1.24.79,1.85a7.72,7.72,0,0,0,10.58,2.77c1.54-.9,3.29-2.76,3.55-4.62.55-3.86,1-7.74,1.42-11.63a7.46,7.46,0,0,0-2.27-5.47Zm-13.86,11.52h0l-.08.59.08-.59Z"/><path class="cls-1" d="M1333.56,1043.37q-.19,6.05-.73,12.09a8.17,8.17,0,0,1-2.26,5.47,7.74,7.74,0,0,1-10.95,0,7.49,7.49,0,0,1-2.27-5.47q.53-6,.73-12.09a7.74,7.74,0,0,1,15.47,0Z"/><path class="cls-1" d="M1330,991.37a8.07,8.07,0,0,1,2.27,5.47q.45,7.11.45,14.23a7.74,7.74,0,0,1-15.47,0q0-7.13-.45-14.23c-.27-4.22,3.72-7.74,7.74-7.74a7.74,7.74,0,0,1,5.47,2.27Z"/><path class="cls-1" d="M1324.1,952.08l1.21,1.57a7.69,7.69,0,0,1,1.06,3.9,113.54,113.54,0,0,1,.73,11.77,7.74,7.74,0,1,1-15.47,0,113.54,113.54,0,0,0-.73-11.77,7.43,7.43,0,0,1,2.27-5.47,7.73,7.73,0,0,1,10.94,0Z"/><path class="cls-1" d="M1317.61,908.81l1.21,1.57a7.61,7.61,0,0,1,1.06,3.9,80.47,80.47,0,0,1,.5,11.6,7.74,7.74,0,0,1-15.47,0,80.47,80.47,0,0,0-.5-11.6,7.42,7.42,0,0,1,2.27-5.47,7.73,7.73,0,0,1,10.94,0Z"/><path class="cls-1" d="M1311.18,860.83a86.3,86.3,0,0,1,2.52,17.41c.18,4.22-3.66,7.74-7.74,7.74a7.85,7.85,0,0,1-7.74-7.74q-.12-2.94-.45-5.86c-.39-2.5-.89-5-1.51-7.44a7.83,7.83,0,0,1,5.41-9.51,7.45,7.45,0,0,1,2-.27,7.76,7.76,0,0,1,7.53,5.67Z"/><path class="cls-1" d="M1293.34,809.08a8.14,8.14,0,0,1,3.56,4.62,53.39,53.39,0,0,1,3,16.76,7.74,7.74,0,0,1-15.47,0c0-1.47-.12-2.92-.27-4.37a48.41,48.41,0,0,0-2.15-8.27,7.53,7.53,0,0,1,.78-6,7.81,7.81,0,0,1,4.62-3.56,7.76,7.76,0,0,1,6,.79Z"/><path class="cls-1" d="M1277.48,758.38A8.3,8.3,0,0,1,1281,763q2.88,7.5,5.3,15.15a7.73,7.73,0,1,1-14.91,4.11q-2.43-7.66-5.3-15.15a7.47,7.47,0,0,1,.78-6,7.81,7.81,0,0,1,4.62-3.56,7.67,7.67,0,0,1,2-.28,7.79,7.79,0,0,1,3.92,1.05Z"/><path class="cls-1" d="M1258,710.86a8.16,8.16,0,0,1,3.56,4.62,107.61,107.61,0,0,1,3.21,10.78,7.74,7.74,0,0,1-14.92,4.12,105.09,105.09,0,0,0-3.21-10.78,7.53,7.53,0,0,1,.78-6,7.81,7.81,0,0,1,4.62-3.56,7.78,7.78,0,0,1,6,.78Z"/><path class="cls-1" d="M1240.64,666.78a98.17,98.17,0,0,1,7.12,17.86,7.74,7.74,0,1,1-14.92,4.12,92.6,92.6,0,0,0-3.06-8.93q-1.17-2.65-2.5-5.23a7.86,7.86,0,0,1,2.77-10.58,7.75,7.75,0,0,1,3.9-1,7.41,7.41,0,0,1,6.68,3.79Z"/><path class="cls-1" d="M1210.33,615.78a71,71,0,0,1,9.33,13.64,7.86,7.86,0,0,1-2.78,10.58c-3.49,2-8.65,1-10.58-2.78a63.41,63.41,0,0,0-5.4-8.69q-.74-.92-1.5-1.81a8.09,8.09,0,0,1-2.27-5.47,7.74,7.74,0,0,1,7.74-7.74,7.51,7.51,0,0,1,5.47,2.27Z"/><path class="cls-1" d="M1176.44,565c3.46,3.83,6.69,7.83,9.84,11.92,1.19,1.55,1.27,4.17.78,6a7.74,7.74,0,0,1-9.52,5.4l-1.84-.78a7.82,7.82,0,0,1-2.78-2.77l-.08-.11q-3.52-4.46-7.33-8.69a8,8,0,0,1-2.27-5.47,7.76,7.76,0,0,1,2.27-5.47,8,8,0,0,1,5.62-2.25,7.08,7.08,0,0,1,5.32,2.25Z"/><path class="cls-1" d="M1136.54,519.45a104.57,104.57,0,0,1,10.1,10.76,8.26,8.26,0,0,1,2.27,5.47,7.74,7.74,0,0,1-7.74,7.74,7.44,7.44,0,0,1-5.47-2.27,105.37,105.37,0,0,0-10.1-10.76,7.79,7.79,0,0,1,0-10.94,7.51,7.51,0,0,1,5.36-2.22,8.24,8.24,0,0,1,5.58,2.22Z"/><path class="cls-1" d="M1088.36,475.16a171.53,171.53,0,0,1,15.9,13.42,7.74,7.74,0,1,1-10.94,10.94,155.89,155.89,0,0,0-12-10.44l-.75-.56a8.46,8.46,0,0,1-3.56-4.62,7.75,7.75,0,0,1,5.41-9.52,8.5,8.5,0,0,1,2.19-.28,6.35,6.35,0,0,1,3.77,1.07Z"/><path class="cls-1" d="M1041.52,440.7a110.7,110.7,0,0,1,15.43,11.14,7.5,7.5,0,0,1,2.27,5.47,7.74,7.74,0,0,1-7.74,7.74,8.14,8.14,0,0,1-5.47-2.27q-1.54-1.32-3.11-2.57a99.59,99.59,0,0,0-9.19-6.15,7.73,7.73,0,0,1,4-14.4,7.47,7.47,0,0,1,3.83,1Z"/><path class="cls-1" d="M994,410.07h0a4.88,4.88,0,0,0-1.88-.34,8.53,8.53,0,0,0-4.08,1.12,7.74,7.74,0,0,0,0,13.36l1,.43a49.19,49.19,0,0,1,8.91,5.15l1,.79a8.22,8.22,0,0,0,5.47,2.27,7.74,7.74,0,0,0,7.74-7.74,7.45,7.45,0,0,0-2.27-5.47,57.69,57.69,0,0,0-7.86-5.73,67.12,67.12,0,0,0-8-3.84Zm-3.75,15.07h0l.44.19-.44-.19Z"/></g></svg>