<svg id="Rose" xmlns="http://www.w3.org/2000/svg" width="360" height="360" viewBox="0 0 360 360">
  <defs>
    <style>
      .cls-1 {
        fill: #fff;
      }

      .cls-2 {
        fill: #e5e5e5;
      }

      .cls-2, .cls-3, .cls-4, .cls-5, .cls-6 {
        fill-rule: evenodd;
      }

      .cls-3 {
        fill: #31323d;
      }

      .cls-4 {
        fill: #ef4b62;
      }

      .cls-5 {
        fill: #940426;
      }

      .cls-6 {
        fill: #d72d51;
      }
    </style>
  </defs>
  <rect class="cls-1" width="360" height="360"/>
  <path id="Ellipse_1_copy" data-name="Ellipse 1 copy" class="cls-2" d="M170.053,163.644c75.936-5.483,137.7,23.349,137.951,64.4s-61.1,78.769-137.038,84.251-137.7-23.348-137.952-64.4S94.116,169.127,170.053,163.644Z"/>
  <path id="Color_Fill_68_copy" data-name="Color Fill 68 copy" class="cls-3" d="M99.564,274.364s11.348-24.179,27.388-8.495,26.83,40.22,84.47,30.51,73.336-46.266,70.5-69.078-8.6-21.841-8.6-21.841,29.285-27.508,17.566-60.569-24.8-34.23-24.8-34.23,3.517-67.5-85.618-25.21c0,0-31.692-35.724-80.063.412s-17.971,72.69-17.971,72.69S38.211,229.439,99.564,274.364Z"/>
  <path id="Color_Fill_68" data-name="Color Fill 68" class="cls-4" d="M100.218,265.384s16.321-21.021,31.095-6.565,24.71,37.073,77.811,28.114,67.566-42.661,64.959-63.69-7.916-20.133-7.916-20.133,26.982-25.361,16.19-55.838-23.837-30.55-23.837-30.55,4.249-63.223-77.87-24.228c0,0-29.19-32.927-73.755.392S90.33,159.9,90.33,159.9,52.5,225.884,100.218,265.384Z"/>
  <path id="Color_Fill_69" data-name="Color Fill 69" class="cls-5" d="M273.689,220.386c-7.046,12.114-22.521,25.9-54.3,38.074-43.515,16.664-68.022-2.459-74.993-8.063s-24.246-10.88-30.981-12.851c-3.523-1.031-3.9,9.253-3.457,19.3a39.488,39.488,0,0,0-9.737,8.539C52.5,225.884,90.33,159.9,90.33,159.9s1.433,4.024-.256,1l9.98-8.1c13.03-79.033,75.628-56.262,75.628-56.262l4-4.061c1.643,1.433.969,0.022,0.969,0.022a171.689,171.689,0,0,1,20.337-8.239c-20.771,15.431-34.166,39.008-34.166,39.008,113.508-51.636,74.131,49.826,74.131,49.826,20.735,3.47,17.379-56.6,17.379-56.6,1.516-.609-0.184-0.766,1.2-1.179,0,0.268-.013.413-0.013,0.413s12.046,1.075,22.837,31.551-16.19,55.838-16.19,55.838S270.979,202.313,273.689,220.386Z"/>
  <path id="Color_Fill_70" data-name="Color Fill 70" class="cls-6" d="M104.224,161.885s34-41.235,53.932-36.406c0,0-1.157-13.552,8.144-18.7S114.029,88.293,104.224,161.885Zm46.635-21.615s-54.584,15.8-49.241,61.978,45.1,37.4,50.153,28.261c0,0,2.908-3.974-8.291-8.959s-19.807-12.477-20.328-28.961S150.859,140.27,150.859,140.27Zm2.346,74.178c-1.183.923,9.17,21.428,33.75,23.684s51.635-9.277,48.084-14.139-26.339,3.5-38.066.961S159.362,209.643,153.205,214.448Zm20.556-9.871s107.889,23.887,101.25-51.734c0,0-5.53-9.895-9.936,8.08S224.851,204.9,173.761,204.577Zm-4.936-71.67s51.725-33.3,66.1-12.282,2.452,42.994-32.756,61.457-50.071-2.663-52.987-10.457,8.12-23.309,16.337-28.179,71.459-34.655,45.723,10.929c0,0,3.217-17.209-10.588-12.526s-43.026,16.77-31,25,58.224-4.269,55.935-26.763S214.36,118.727,168.825,132.907Z"/>
</svg>
