<svg id="Gold_Medal_-_411" data-name="Gold Medal - 411" xmlns="http://www.w3.org/2000/svg" width="360" height="360" viewBox="0 0 360 360" shape-rendering="geometricPrecision">
  <defs>
    <style>
      .cls-1, .cls-9 {
        fill: #fff;
      }

      .cls-2 {
        fill: #e5e5e5;
      }

      .cls-10, .cls-11, .cls-12, .cls-13, .cls-2, .cls-3, .cls-4, .cls-5, .cls-6, .cls-7, .cls-8, .cls-9 {
        fill-rule: evenodd;
      }

      .cls-3 {
        fill: #31323d;
      }

      .cls-4 {
        fill: #7fc7af;
      }

      .cls-5 {
        fill: #5fa18b;
      }

      .cls-6 {
        fill: #cfa54d;
      }

      .cls-7 {
        fill: #f5c55f;
      }

      .cls-8 {
        fill: #f6d58f;
      }

      .cls-10 {
        fill: #c19f44;
      }

      .cls-11 {
        fill: #fdf4c6;
      }

      .cls-12 {
        fill: #b6912e;
      }

      .cls-13 {
        fill: #fffbe8;
      }
    </style>
  </defs>
  <rect class="cls-1" width="360" height="360"/>
  <path id="Ellipse_1_copy_3" data-name="Ellipse 1 copy 3" class="cls-2" d="M181.233,231.011c45.288,0.027,81.9,11.91,81.769,26.54s-36.947,26.469-82.235,26.442-81.9-11.91-81.77-26.541S135.944,230.984,181.233,231.011Z"/>
  <g id="Ribbon">
    <path id="Color_Fill_1166_copy" data-name="Color Fill 1166 copy" class="cls-3" d="M181.167,151.951a791.3,791.3,0,0,0-95.3-25.3C19.471,113.506-62.592,88.75-93.984,44.046c0,0-.587-24.285,6.468-31.334C-58.228,42.564-1.09,79.89,84.51,97.885c28.955,6.088,61.166,21.713,96.657,22.339,35.774-2.219,67.141-19.566,94.815-27.3C359.079,69.7,408.882,27.209,444.754-1c3.919,0,9.8,19.781,9.211,26.831,0,0-55.2,62.969-178.344,96.863C247.682,130.387,216.247,148.33,181.167,151.951Z"/>
    <path id="Color_Fill_1166" data-name="Color Fill 1166" class="cls-4" d="M181.167,147.25A791.543,791.543,0,0,0,85.1,121.494C21.57,108.807-55.7,85.871-87.711,46.4c0,0-2.94-18.8,4.115-25.85C-54.8,52.848.716,87.389,85.875,103.7c28.425,5.444,60.152,20.606,95.292,21.226,35.762-2.218,66.924-19.366,94.3-26.8C357.7,75.783,405.742,35.048,441.617,6.839c3.92,0,8.231,11.162,7.643,18.212,0,0-58.421,58.379-174.037,91.769C247.221,124.908,215.862,143.279,181.167,147.25Z"/>
    <path id="Color_Fill_1166_copy_2" data-name="Color Fill 1166 copy 2" class="cls-5" d="M449.26,25.051s-58.643,58.6-174.7,91.959c-27.836,8-57.21,28.65-91.634,32.59a637.83,637.83,0,0,0-97-27.94C22.244,109.007-55.563,86.043-87.711,46.4c0,0-2.94-18.8,4.115-25.85A164.677,164.677,0,0,0-60.031,42.034a85.592,85.592,0,0,0,3.088,11.8c6.937,20.323,37.719,41.28,142.55,63.482,25.476,5.4,67.083,16.74,102.026,22.292,0,0,29.459-7.75,87.324-26.415C314.13,100.563,386.374,73.616,437.5,32.689c4.971-3.991,8.831-6.957,11.811-9.123C449.316,24.076,449.3,24.574,449.26,25.051Z"/>
  </g>
  <g id="Gold_copy" data-name="Gold copy">
    <path id="Color_Fill_1168" data-name="Color Fill 1168" class="cls-3" d="M251.718,235.374c-10.979,18.879-44,51.418-90.541,40.537s-60.054-52.68-60.556-76.961,16.847-55.782,30.572-66.975,45.662-26.681,74.079-16.449,49.967,28.3,57.028,60.511C267.847,201.336,258.679,223.4,251.718,235.374Z"/>
    <path id="Color_Fill_1148" data-name="Color Fill 1148" class="cls-6" d="M174.7,123.75c9.74-.12,18.861-0.107,26.457,2.35,25.472,8.24,41.482,23.989,50.561,48.762,3.08,8.4,6.381,23.314,3.528,35.25-1.472,6.159-2.873,12.643-5.291,18.212-7.859,18.1-23.257,32.435-41.743,39.95-6.256,2.543-13.4,3.15-20.577,4.7-12.034,2.6-27.444-2.816-34.688-5.875-29.926-12.638-59.858-51.486-41.742-95.762,7.549-18.449,21.84-33.884,39.979-41.712l15.285-4.7C169.045,124.25,172.684,125,174.7,123.75Z"/>
    <path id="Ellipse_1143_copy_3" data-name="Ellipse 1143 copy 3" class="cls-7" d="M183.518,117.288A74.612,74.612,0,1,1,108.852,191.9,74.64,74.64,0,0,1,183.518,117.288Z"/>
    <path id="Ellipse_1143_copy_5" data-name="Ellipse 1143 copy 5" class="cls-7" d="M183.518,117.288A74.612,74.612,0,1,1,108.852,191.9,74.64,74.64,0,0,1,183.518,117.288Z"/>
    <path class="cls-8" d="M140.545,252.919q-1.323-.933-2.6-1.922l70.051-129.6c1.021,0.354,2.034.726,3.035,1.123Zm29.791-134.471a75.47,75.47,0,0,1,26.306-.01l-67.4,124.7a74.693,74.693,0,0,1-14.427-21.969Zm23.541,147.345a75.3,75.3,0,0,1-10.359.718c-2.047,0-4.075-.086-6.081-0.247l64.981-120.222a74.708,74.708,0,0,1,8.626,13.985Z"/>
    <path id="Color_Fill_1150" data-name="Color Fill 1150" class="cls-9" d="M228.788,137.263c-40.342-27.217-62.564-18.484-84.5-8.852a74.662,74.662,0,0,1,109.459,88.883C257.347,194.419,257.884,156.892,228.788,137.263Z"/>
    <path id="Color_Fill_1158" data-name="Color Fill 1158" class="cls-10" d="M195.641,209.058v-1.7c4.375-.169,5.1-0.976,5.1-4.966V186.986a38.577,38.577,0,0,0-.212-6.2c-0.34-1.231-1.869-1.359-5.1-1.359v-1.7a54.928,54.928,0,0,0,11.554-1.783V202.1c0,4.372.595,5.136,4.63,5.263v1.7H195.641Zm-16.821-1.7c4.375-.169,5.1-0.976,5.1-4.966V186.986a38.4,38.4,0,0,0-.213-6.2c-0.34-1.231-1.869-1.359-5.1-1.359v-1.7a54.938,54.938,0,0,0,11.554-1.783V202.1c0,4.372.595,5.136,4.63,5.263v1.7H178.82v-1.7Zm-8.112-7.3v1.315c0,3.948.637,5.858,3.95,5.985v1.7H160.089v-1.7c3.993-.169,4.63-2.122,4.63-5.687v-1.444H151.168v-2.546l15.5-21.733h4.035v21.605c4.12-.127,5.012-0.806,5.012-4.075h1.572V203.8H175.72C175.72,200.7,174.828,200.144,170.708,200.06ZM164.719,183.8h-0.17l-9.77,13.753h9.94V183.8Z"/>
    <path id="Color_Fill_1158_copy" data-name="Color Fill 1158 copy" class="cls-11" d="M196.229,207.883v-1.7c4.375-.169,5.1-0.976,5.1-4.966V185.811a38.577,38.577,0,0,0-.212-6.2c-0.34-1.231-1.869-1.358-5.1-1.358v-1.7a54.928,54.928,0,0,0,11.554-1.783v26.147c0,4.372.595,5.136,4.63,5.263v1.7H196.229Zm-16.821-1.7c4.375-.169,5.1-0.976,5.1-4.966V185.811a38.4,38.4,0,0,0-.213-6.2c-0.34-1.231-1.869-1.358-5.1-1.358v-1.7a54.938,54.938,0,0,0,11.554-1.783v26.147c0,4.372.594,5.136,4.63,5.263v1.7H179.408v-1.7Zm-8.112-7.3V200.2c0,3.948.637,5.858,3.95,5.985v1.7H160.677v-1.7c3.992-.169,4.63-2.122,4.63-5.687v-1.444H151.756v-2.546l15.5-21.733H171.3v21.6c4.12-.127,5.012-0.806,5.012-4.075h1.572V202.62h-1.572C176.308,199.521,175.416,198.969,171.3,198.885Zm-5.989-16.258h-0.17l-9.77,13.753h9.94V182.627Z"/>
    <path id="Color_Fill_1155_copy" data-name="Color Fill 1155 copy" class="cls-12" d="M195.378,129.625l3.75,1.036c4.285,1.3,8.583,2.6,8.946,7.614l6.28,3.513c-2.072-2.523-4.539-6.019-4.564-10.451,2.276-.169,8.764,6.688,9.669,8.7,0.406,0.9,1.194,5.3-.452,5.225,5.424,5.616,11.789,10.826,14.909,18.695-0.269-5.214-.679-8.831,1.13-13.154,0.264-.633.475-1.708,1.174-1.757,2.071,5.14,4.38,11.386,1.853,17.074-0.349.785-.722,1.855-1.627,2.072a5.29,5.29,0,0,1-1.581-2.433q0.678,1.6,1.355,3.2a38.138,38.138,0,0,1,2.847,9.46h0.045c-0.1-8.38,3.434-10,5.783-15.362h0.045q0.18,2.1.361,4.19c0.713,6.232.027,15.038-4.969,16.037l-0.452-.45a56.041,56.041,0,0,1,.632,9.865c1.753-4.218,4.048-6.445,6.732-9.55,0.744-.86,1.915-2.436,3.117-2.748l0.136,0.18-0.858,3.83c-1.291,6.516-2.435,11.379-7.274,14.28-0.651.39-1.447,1.118-2.4,0.9a32.627,32.627,0,0,1-1.942,9.28,29.027,29.027,0,0,1,2.71-3.334,63.881,63.881,0,0,1,7.636-5.225l2.71-1.532,0.046,0.045q-0.949,2.139-1.9,4.28c-2.161,4.273-3.884,8.255-7.771,10.811-0.809.532-4.837,2.873-5.918,1.847-0.015.03-.03,0.061-0.045,0.09-1.153,3.571-3.974,6.4-5.151,9.551,2.543-3.06,7.195-5.476,11.656-6.532,0.891-.211,5.023-1.6,5.2-0.9-1.986,1.633-3.132,3.625-4.744,5.631a19.33,19.33,0,0,1-11.2,6.937c-1.236.259-3.169,0.471-4.247-.09l0.045-.675v0.045c-6.817,6.948-13.7,14.263-24.261,17.433,1.873-.055,4.224-0.89,6.5-1.126,2.311-.239,14.862,1.912,15.271,2.613l-0.09.09L220,250.356c-5.627,1.707-12.236,2.688-17.349-.361-0.684-.407-1.951-0.927-1.9-1.892l0.451-.225-2.756.811L192.306,250l0.045,0.045c2.607,0.459,15.987,6.362,16.445,7.569l-0.09.09-3.885-.226c-5.814-.652-10.772-0.761-14.684-3.2-2.365-1.474-2.594-3.649-6.6-3.649H181.87c-1,.5-2.223,2.619-3.434,3.379-3.859,2.42-8.581,2.791-14.367,3.423l-4.428.091-0.045-.136,3.524-1.892a100.277,100.277,0,0,1,12.424-5.5c-1.422-.076-7.455-1.858-7.77-1.757l-1.446,1.352a10.553,10.553,0,0,1-3.479,1.757c-5.726,1.762-12.14-.226-16.671-1.622l-3.434-1.036v-0.135c6.893-.806,12.675-2.9,20.557-1.892l-5.874-2.793-4.291-2.613,0.451,0.36v0.09a28.033,28.033,0,0,1-4.292,1.307c-6.885.989-11.919-2.824-15.677-5.5l-3.885-2.928,0.045-.09c3.111-.582,12.377.76,15.044,1.576l4.2,2.118c-2.48-2.65-5.589-4.65-7.725-7.659-7.16,2.236-14.066-4.989-16.762-8.6-0.536-.719-3.4-3.808-3.253-4.415l3.253,1.036a35.791,35.791,0,0,1,12.018,5.541,44.927,44.927,0,0,1-4.292-8.108,4.816,4.816,0,0,1-2.756-.631c-5.544-2.113-8.117-6.687-10.482-11.938q-1.264-2.59-2.53-5.18a40.2,40.2,0,0,1,12.876,9.595c-0.61-2.565-.937-5.413-1.672-8.154-6.105-1.4-8.011-8.958-9.216-15.5l-0.723-3.559,0.09-.045,0.181,0.045c3.838,2.085,7.535,6.723,9.126,10.992q0.271-4.233.542-8.469c-6-1.615-5.575-12.511-4.608-19.776l0.271-.045,0.091,0.09a33.732,33.732,0,0,1,5.828,12.208c1.027-2.6,1.577-5.287,2.665-7.7l-0.045-.045-0.5.63-0.135-.09c-0.76-1.768-1.941-3.152-2.35-5.361-0.593-3.208,2.048-13.427,3.344-15.046,0.651,2.977,2.014,5.515,2.485,8.785,0.291,2.025-.4,4.3-0.272,5.9,0.985-2.8,3.256-5.512,4.97-7.748l0.678-.946c-3.192,3.839-3.153-3.388-2.485-6.217,0.955-4.046,4.16-7.747,6.732-10.361,0.289,5.833.534,9.678-1.853,13.785,2.029-1.94,3.835-4.053,6.054-5.812-2.48-6.532,5.844-12.517,10.075-14.37-1.159,3.869-1.878,7.174-4.021,9.91l5.6-3.558c0.782-1.092.769-2.421,1.581-3.379,1.06-1.25,8.66-4.54,10.843-4.28l0.045,0.045c-0.164,2.551-6.045,7.584-8.223,8.515-1.154.493-2.449,0.144-3.93,0.63l-4.428,3.424h-0.045l2.53-.36a18.424,18.424,0,0,1,11.25,2.567l0.045,0.181c-0.89.54-2.7,0.335-3.931,0.495-4.32.562-9.919,1.532-14,.135l-4.609,3.874,0.317-.09c0.652-.256,11.565-2.61,11.7-0.45l-3.7,1.712c-2.622,1.175-5.042,2.6-8.178,3.333-0.931.217-4.212,0.168-4.924,0.5l-4.338,5.946c1.812-1.135,9.243-5.967,12.425-4.865v0.27l-3.163,2.658a64.521,64.521,0,0,1-8.945,6.758l-2.666,1.261-1.084.18c-0.841.565-2.409,6.133-2.892,7.478a33.134,33.134,0,0,1,3.027-3.6c1.2-1.02,7.408-5.341,9.036-5.135q-1.264,1.756-2.53,3.514c-2.1,2.974-7.511,11.818-11.25,12.208-0.267,2.712-1.615,7.3-.9,10.316,0.477-5.18,5.916-11.484,9.442-13.65,0.454,1.1-3.167,10.841-3.8,12.253l-2.349,3.649c-0.5.7-2.358,3.882-3.117,3.334,0.037,3.62,1.062,6.844,1.671,9.956l0.045-.045a17.93,17.93,0,0,1,.678-5.632c0.581-1.89,4.233-9.114,5.738-9.55l0.045,0.045q-0.113,2.838-.226,5.676c-0.821,6.118-.316,12.44-4.428,15.182q0.226,0.563.452,1.126c1.158,2.792,2.315,5.877,4.066,8.154a15.7,15.7,0,0,1-.723-5.631c0.25-2.165,1.842-10.839,3.073-10.992,0.744,4.643,4.777,18.3,1.22,21.894a30.336,30.336,0,0,0,5.24,5.946c-1.319-2.621-1.641-7.587-1.174-11.623q0.09-1.417.18-2.838l0.091,0.045c2.32,6.363,8.2,10.6,6.912,19.642,2.214,1.158,4.04,2.984,6.416,4.054-1.477-1.934-5.095-9.189-4.473-12.7,3.313,3.939,7.882,6.969,10.617,11.443,0.838,1.37.663,3.415,1.356,4.64l6.686,1.847c-2.206-2.045-6.943-6.168-7.048-9.821,3.962,1.922,9.965,3.338,12.65,6.622a17.8,17.8,0,0,1,2.214,4.235l7.048-.045c-0.4-.981.361-1.826,0.768-2.433,3.225-4.806,8.272-5.715,13.6-8.289-0.574,4.187-3.912,7.34-6.6,9.55l6.325-1.847c1-7.788,7.921-11.012,12.018-15.857,0.674,3.4-2.924,10.34-4.247,12.3l6.009-3.92,0.09-2.3a33.4,33.4,0,0,1,.723-5.406c0.644-2.165,1.944-3.7,2.982-5.451l3.433-6.442a29.686,29.686,0,0,1,.136,10.406l-0.633,3.244,4.473-5.271c-2.1-6.238-.859-10.383.588-16.488l0.813-4.73c2.358-.009,3.039,11.671,2.62,15a26.629,26.629,0,0,0,3.84-8.108c-3.523-3.045-3.367-9.154-4.021-15.137l-0.225-6.036c0.89,0.081,5.1,7.77,5.647,9.19a14.638,14.638,0,0,1,.858,4.46c0.285-.71,1.652-7.371,1.265-8.154l-2.665-3.063a35.4,35.4,0,0,1-4.563-10.091c-0.369-1.19-2.09-5.357-1.807-6.352h0.09c2.281,2.72,5.5,4.783,7.409,7.838a27.227,27.227,0,0,1,1.717,4.46c0.006-1.479-.468-8.1-0.949-8.739-0.392-.522-3.151-2.208-3.885-2.839-2.86-2.455-4.4-6.019-6.641-9.1-0.748-1.029-2.343-2.063-2.621-3.424l0.045-.045c2.475,0.218,6.828,3.389,8.494,4.775l2.575,2.658-2.575-6.442c-0.51-.451-2.692-0.989-3.388-1.4a59.984,59.984,0,0,1-7.274-5.405c-0.7-.563-4.929-3.924-4.834-4.235l0.542-.135a23.787,23.787,0,0,1,10.933,4.1l-3.795-5.09-4.653-.5c-1.771-.409-11.169-4.253-11.792-5.135l0.045-.226c2.62-1.2,9.43-.163,11.475.721l-4.246-3.6c-2.581,1.236-15.16.261-17.485-.765v-0.181c2.32-2.033,8.743-2.8,12.741-2.3l-4.789-3.334c-1.849-.669-3.226-0.73-4.654-1.621-2.079-1.3-3.61-3.471-5.06-5.406C196.242,131.3,195.211,130.357,195.378,129.625Zm28.1,7.614c3.313,2.914,8.121,8.724,7.183,15.316-0.148,1.046-.169,2.286-0.858,2.793-0.976-.258-1.8-1.335-2.44-1.982C222.733,148.722,224.444,145.174,223.48,137.239Zm12.424,97.35,2.214,0.135v0.045c-0.839,2.271-11.6,7.526-15.045,8.2-2.072.405-7.947,0.171-7.816-1.667,1.885-3.568,8.7-5.5,13.735-6.172Z"/>
    <path id="Color_Fill_1155" data-name="Color Fill 1155" class="cls-11" d="M195.378,129.038l3.75,1.036c4.285,1.3,8.583,2.6,8.946,7.613l6.28,3.514c-2.072-2.523-4.539-6.019-4.564-10.451,2.276-.17,8.764,6.687,9.669,8.694,0.406,0.9,1.194,5.305-.452,5.226,5.424,5.616,11.789,10.826,14.909,18.7-0.269-5.215-.679-8.831,1.13-13.154,0.264-.633.475-1.709,1.174-1.757,2.071,5.14,4.38,11.386,1.853,17.073-0.349.785-.722,1.855-1.627,2.072a5.287,5.287,0,0,1-1.581-2.432q0.678,1.6,1.355,3.2a38.159,38.159,0,0,1,2.847,9.461h0.045c-0.1-8.38,3.434-10,5.783-15.362h0.045q0.18,2.094.361,4.189c0.713,6.233.027,15.039-4.969,16.038l-0.452-.451a56.053,56.053,0,0,1,.632,9.866c1.753-4.218,4.048-6.446,6.732-9.55,0.744-.86,1.915-2.437,3.117-2.748l0.136,0.18-0.858,3.829c-1.291,6.516-2.435,11.38-7.274,14.28-0.651.39-1.447,1.118-2.4,0.9a32.619,32.619,0,0,1-1.942,9.28,28.93,28.93,0,0,1,2.71-3.333,63.771,63.771,0,0,1,7.636-5.226l2.71-1.531,0.046,0.045q-0.949,2.139-1.9,4.279c-2.161,4.273-3.884,8.256-7.771,10.812-0.809.532-4.837,2.873-5.918,1.847l-0.045.09c-1.153,3.571-3.974,6.4-5.151,9.55,2.543-3.06,7.195-5.476,11.656-6.532,0.891-.211,5.023-1.6,5.2-0.9-1.986,1.633-3.132,3.625-4.744,5.631a19.332,19.332,0,0,1-11.2,6.938c-1.236.259-3.169,0.471-4.247-.09l0.045-.676v0.045c-6.817,6.949-13.7,14.263-24.261,17.434,1.873-.056,4.224-0.89,6.5-1.126,2.311-.239,14.862,1.911,15.271,2.613l-0.09.09L220,249.768c-5.627,1.708-12.236,2.688-17.349-.36-0.684-.408-1.951-0.927-1.9-1.892l0.451-.225-2.756.81-6.144,1.307,0.045,0.045c2.607,0.459,15.987,6.361,16.445,7.568l-0.09.09-3.885-.225c-5.814-.652-10.772-0.761-14.684-3.2-2.365-1.474-2.594-3.649-6.6-3.649H181.87c-1,.5-2.223,2.619-3.434,3.378-3.859,2.421-8.581,2.791-14.367,3.424l-4.428.09L159.6,256.8l3.524-1.892a100.129,100.129,0,0,1,12.424-5.5c-1.422-.077-7.455-1.858-7.77-1.757L166.328,249a10.552,10.552,0,0,1-3.479,1.756c-5.726,1.762-12.14-.226-16.671-1.621l-3.434-1.037v-0.135c6.893-.805,12.675-2.9,20.557-1.892l-5.874-2.793-4.291-2.613,0.451,0.361v0.09a28.035,28.035,0,0,1-4.292,1.306c-6.885.989-11.919-2.824-15.677-5.5q-1.942-1.463-3.885-2.928l0.045-.09c3.111-.581,12.377.761,15.044,1.577l4.2,2.117c-2.48-2.65-5.589-4.649-7.725-7.658-7.16,2.236-14.066-4.989-16.762-8.6-0.536-.719-3.4-3.808-3.253-4.415l3.253,1.036a35.772,35.772,0,0,1,12.018,5.541,44.936,44.936,0,0,1-4.292-8.109,4.8,4.8,0,0,1-2.756-.631c-5.544-2.112-8.117-6.686-10.482-11.937l-2.53-5.181a40.213,40.213,0,0,1,12.876,9.595c-0.61-2.564-.937-5.413-1.672-8.153-6.105-1.4-8.011-8.958-9.216-15.5l-0.723-3.559,0.09-.045,0.181,0.045c3.838,2.084,7.535,6.722,9.126,10.992q0.271-4.234.542-8.469c-6-1.616-5.575-12.511-4.608-19.777l0.271-.045,0.091,0.09a33.737,33.737,0,0,1,5.828,12.209c1.027-2.6,1.577-5.287,2.665-7.7l-0.045-.045-0.5.631-0.135-.09c-0.76-1.769-1.941-3.153-2.35-5.361-0.593-3.208,2.048-13.428,3.344-15.046,0.651,2.977,2.014,5.515,2.485,8.784,0.291,2.026-.4,4.3-0.272,5.9,0.985-2.8,3.256-5.512,4.97-7.749l0.678-.946c-3.192,3.84-3.153-3.387-2.485-6.217,0.955-4.045,4.16-7.746,6.732-10.361,0.289,5.834.534,9.679-1.853,13.785,2.029-1.939,3.835-4.053,6.054-5.811-2.48-6.533,5.844-12.518,10.075-14.371-1.159,3.87-1.878,7.175-4.021,9.911l5.6-3.559c0.782-1.092.769-2.421,1.581-3.378,1.06-1.251,8.66-4.54,10.843-4.28l0.045,0.045c-0.164,2.551-6.045,7.584-8.223,8.514-1.154.494-2.449,0.144-3.93,0.631l-4.428,3.424h-0.045l2.53-.361a18.417,18.417,0,0,1,11.25,2.568l0.045,0.18c-0.89.54-2.7,0.336-3.931,0.5-4.32.562-9.919,1.531-14,.135l-4.609,3.874,0.317-.09c0.652-.257,11.565-2.61,11.7-0.451l-3.7,1.712c-2.622,1.175-5.042,2.6-8.178,3.334-0.931.217-4.212,0.168-4.924,0.495l-4.338,5.947c1.812-1.136,9.243-5.968,12.425-4.865v0.27l-3.163,2.658a64.594,64.594,0,0,1-8.945,6.757l-2.666,1.261-1.084.181c-0.841.564-2.409,6.133-2.892,7.478a32.945,32.945,0,0,1,3.027-3.6c1.2-1.021,7.408-5.342,9.036-5.136l-2.53,3.514c-2.1,2.975-7.511,11.819-11.25,12.208-0.267,2.713-1.615,7.3-.9,10.316,0.477-5.179,5.916-11.483,9.442-13.649,0.454,1.1-3.167,10.84-3.8,12.253l-2.349,3.649c-0.5.7-2.358,3.881-3.117,3.333,0.037,3.621,1.062,6.845,1.671,9.956l0.045-.045a17.924,17.924,0,0,1,.678-5.631c0.581-1.89,4.233-9.114,5.738-9.55l0.045,0.045q-0.113,2.838-.226,5.676c-0.821,6.118-.316,12.439-4.428,15.181q0.226,0.564.452,1.127c1.158,2.792,2.315,5.877,4.066,8.153a15.7,15.7,0,0,1-.723-5.631c0.25-2.165,1.842-10.839,3.073-10.992,0.744,4.643,4.777,18.3,1.22,21.894a30.308,30.308,0,0,0,5.24,5.946c-1.319-2.621-1.641-7.586-1.174-11.622l0.18-2.838,0.091,0.045c2.32,6.363,8.2,10.6,6.912,19.641,2.214,1.158,4.04,2.984,6.416,4.055-1.477-1.934-5.095-9.19-4.473-12.7,3.313,3.938,7.882,6.968,10.617,11.442,0.838,1.371.663,3.416,1.356,4.64l6.686,1.847c-2.206-2.045-6.943-6.168-7.048-9.82,3.962,1.921,9.965,3.338,12.65,6.622a17.814,17.814,0,0,1,2.214,4.234l7.048-.045c-0.4-.98.361-1.826,0.768-2.432,3.225-4.806,8.272-5.715,13.6-8.289-0.574,4.186-3.912,7.339-6.6,9.55l6.325-1.847c1-7.788,7.921-11.013,12.018-15.857,0.674,3.4-2.924,10.34-4.247,12.3l6.009-3.919,0.09-2.3a33.388,33.388,0,0,1,.723-5.405c0.644-2.165,1.944-3.7,2.982-5.451l3.433-6.442a29.686,29.686,0,0,1,.136,10.406l-0.633,3.243,4.473-5.27c-2.1-6.239-.859-10.383.588-16.488l0.813-4.73c2.358-.009,3.039,11.67,2.62,15a26.635,26.635,0,0,0,3.84-8.109c-3.523-3.045-3.367-9.154-4.021-15.136l-0.225-6.037c0.89,0.081,5.1,7.771,5.647,9.19a14.644,14.644,0,0,1,.858,4.46c0.285-.71,1.652-7.37,1.265-8.154l-2.665-3.063a35.379,35.379,0,0,1-4.563-10.091c-0.369-1.19-2.09-5.356-1.807-6.352h0.09c2.281,2.72,5.5,4.784,7.409,7.839a27.215,27.215,0,0,1,1.717,4.459c0.006-1.478-.468-8.1-0.949-8.739-0.392-.521-3.151-2.208-3.885-2.838-2.86-2.456-4.4-6.02-6.641-9.1-0.748-1.029-2.343-2.062-2.621-3.424l0.045-.045c2.475,0.219,6.828,3.39,8.494,4.776l2.575,2.657q-1.287-3.22-2.575-6.442c-0.51-.45-2.692-0.988-3.388-1.4a59.991,59.991,0,0,1-7.274-5.406c-0.7-.562-4.929-3.924-4.834-4.234l0.542-.136a23.788,23.788,0,0,1,10.933,4.1l-3.795-5.091-4.653-.5c-1.771-.41-11.169-4.253-11.792-5.136l0.045-.225c2.62-1.2,9.43-.163,11.475.721l-4.246-3.6c-2.581,1.236-15.16.261-17.485-.766V143.9c2.32-2.033,8.743-2.8,12.741-2.3l-4.789-3.333c-1.849-.669-3.226-0.731-4.654-1.622-2.079-1.3-3.61-3.47-5.06-5.406C196.242,130.709,195.211,129.77,195.378,129.038Zm28.1,7.613c3.313,2.914,8.121,8.725,7.183,15.317-0.148,1.045-.169,2.285-0.858,2.793-0.976-.258-1.8-1.336-2.44-1.983C222.733,148.134,224.444,144.586,223.48,136.651ZM235.9,234l2.214,0.135v0.045c-0.839,2.272-11.6,7.527-15.045,8.2-2.072.405-7.947,0.171-7.816-1.666,1.885-3.569,8.7-5.5,13.735-6.172Z"/>
    <path id="Color_Fill_1155_copy_2" data-name="Color Fill 1155 copy 2" class="cls-9" d="M236.446,167.6a4.139,4.139,0,0,1-1.254-1.663l3.922-7.256a13.8,13.8,0,0,1-1.041,6.847C237.724,166.312,237.351,167.382,236.446,167.6Zm-26.634-36.307c-0.009-.18-0.021-0.359-0.022-0.542a1.457,1.457,0,0,1,.3.03Zm-2.249,4.161-1.475,2.73c-1.189-.4-2.187-0.584-3.138-0.933l2.444-4.522A6.343,6.343,0,0,1,207.563,135.453Zm-62.244,82.421,0.091,0.045c0.13,0.356.272,0.7,0.423,1.05l-0.661,1.223Zm12.946-70.568a1.107,1.107,0,0,1,1.105.787l-2.04.943Zm11.632-3.177c-0.89.54-2.7,0.336-3.931,0.5-2.036.265-4.357,0.617-6.669,0.773l2.2-4.063a18.17,18.17,0,0,1,8.359,2.614Zm-20.873,93.476c-0.066-.071-0.137-0.136-0.2-0.206l3.246-6.007a16.073,16.073,0,0,1,.256,6.168c0.014,0.007.027,0.016,0.04,0.023l-2.57,4.754c-0.162.032-.325,0.064-0.5,0.088a15.3,15.3,0,0,1-3.254.114l2.735-5.059Zm-2.9,11.517-3.131-.945,0.141-.261c1.357-.169,2.674-0.383,3.973-0.613Zm88.528-52.244-3.338,6.176c-0.238-2.049-.37-4.231-0.607-6.4l-0.225-6.037C231.081,190.674,233.176,194.163,234.653,196.878Zm-7.439,13.764c0.08-.332.16-0.668,0.242-1.012l0.813-4.73c0.5,0,.932.534,1.288,1.406Zm-7.755,13.539,3.433-6.442c0.053,0.2.091,0.431,0.135,0.649l-6.864,12.7a11.1,11.1,0,0,1,.314-1.456C217.121,227.467,218.421,225.936,219.459,224.181Zm-17-79.278a27.326,27.326,0,0,1-3.327-.582l0.7-1.3a16.749,16.749,0,0,1,4.3-1.215Zm-46.437,85.915-1.254,2.32a10.1,10.1,0,0,1-.5-4.227C154.818,229.569,155.409,230.2,156.018,230.818Zm39.043,9.365c2.2-1.036,4.616-1.876,7.094-3.073-0.574,4.186-3.912,7.339-6.6,9.55l6.325-1.847c1-7.788,7.921-11.013,12.018-15.857,0.674,3.4-2.924,10.34-4.247,12.3l1.565-1.02-2.066,3.822a36.54,36.54,0,0,1-6.366,2.6,49.041,49.041,0,0,0,5.49-.984l-2.708,5.01a13.153,13.153,0,0,1-2.918-1.278c-0.684-.408-1.951-0.927-1.9-1.892l0.451-.225-2.756.81-6.144,1.307,0.045,0.045c1.588,0.279,7.169,2.578,11.4,4.6l-1.389,2.571c-4.759-.475-8.874-0.856-12.221-2.941a8.891,8.891,0,0,1-1.637-1.365Zm-57.457-5.99-2.172,4.018c-0.634-.439-1.241-0.874-1.814-1.282q-1.942-1.463-3.885-2.928l0.045-.09A32.574,32.574,0,0,1,137.6,234.193Zm-9.165-31.705,1.379-2.55c0.362,2.171.923,4.221,1.315,6.223l0.045-.045a17.924,17.924,0,0,1,.678-5.631c0.581-1.89,4.233-9.114,5.738-9.55l0.045,0.045q-0.113,2.838-.226,5.676c-0.821,6.118-.316,12.439-4.428,15.181q0.226,0.564.452,1.127c1.158,2.792,2.315,5.877,4.066,8.153a15.7,15.7,0,0,1-.723-5.631c0.25-2.165,1.842-10.839,3.073-10.992,0.744,4.643,4.777,18.3,1.22,21.894,0.136,0.2.281,0.4,0.425,0.6l-1.783,3.3c-6.574.84-12.682-5.6-15.178-8.944-0.536-.719-3.4-3.808-3.253-4.415l3.253,1.036a35.772,35.772,0,0,1,12.018,5.541,44.936,44.936,0,0,1-4.292-8.109,4.8,4.8,0,0,1-2.756-.631,14.4,14.4,0,0,1-5.624-3.847l3.257-6.026a26.432,26.432,0,0,1,2.231,2.35C129.011,205.73,128.744,204.117,128.439,202.488Zm36.036-64.8a3.863,3.863,0,0,1-1.154.266l4.037-7.469c2.135-.84,4.29-1.476,5.295-1.356l0.045,0.045C172.534,131.724,166.653,136.757,164.475,137.687Zm71.812,56.169-0.7-.8a35.379,35.379,0,0,1-4.563-10.091c-0.33-1.064-1.737-4.5-1.83-5.93l0.185-.342c2.277,2.68,5.452,4.734,7.337,7.759a27.215,27.215,0,0,1,1.717,4.459c0.006-1.478-.468-8.1-0.949-8.739-0.392-.521-3.151-2.208-3.885-2.838a17.008,17.008,0,0,1-2.822-3.227l2.336-4.322,2.338,2.413L233.9,168.32l1.287-2.383,1.029,2.428a38.159,38.159,0,0,1,2.847,9.461h0.045c-0.1-8.38,3.434-10,5.783-15.362h0.045q0.18,2.094.361,4.189c0.713,6.233.027,15.039-4.969,16.038l-0.452-.451a36.124,36.124,0,0,1,.479,4.082Z"/>
    <path id="Rectangle_1186_copy" data-name="Rectangle 1186 copy" class="cls-13" d="M184,179.058c-0.5-.558-1.528-0.734-3.218-0.784l1.031-1.908c1.23-.12,2.583-0.288,3.91-0.5Zm-12.7,16.757v0.565a8.857,8.857,0,0,0,3.668-.615l-1.742,3.224c-0.547-.058-1.182-0.089-1.926-0.1V200.2a19.878,19.878,0,0,0,.1,2.167l-2.981,5.516h-3.642Zm5.538-3.51-0.568,1.052c0.029-.317.042-0.665,0.042-1.052h0.526Zm-11.527-9.365v-0.313h-0.17l-9.77,13.753h2.675l-1.445,2.674h-4.841v-2.546l15.5-21.733h2.459Z"/>
  </g>
</svg>
