<?xml version="1.0" encoding="UTF-8" standalone="no"?>
<svg version="1.1" xmlns="http://www.w3.org/2000/svg" xmlns:xlink="http://www.w3.org/1999/xlink" xmlns:i="http://ns.adobe.com/AdobeIllustrator/10.0/"  width="360" height="360">
	<g id="dp_dp001" transform="matrix(1,0,0,1,-7673.96,-2504.36)">
		<path id="dp_path002" fill="white" fill-rule="evenodd" d="M 7676.41,2507.15 L 8036.41,2507.15 L 8036.41,2867.15 L 7676.41,2867.15 Z "/>
		<path id="dp_path003" fill="#e5e5e5" fill-rule="evenodd" stroke="#e5e5e5" stroke-width="8" d="M 7860,2801 C 7935.11,2801 7996,2809.06 7996,2819 C 7996,2828.94 7935.11,2837 7860,2837 C 7784.89,2837 7724,2828.94 7724,2819 C 7724,2809.06 7784.89,2801 7860,2801 Z "/>
		<path id="dp_path004" fill="#ff7b7b" fill-rule="evenodd" stroke="#31323d" stroke-width="8" d="M 7873.77,2751.38 C 7878,2744.42 7886.44,2744.42 7890.67,2747.9 C 7894.89,2751.38 7894.89,2758.33 7890.67,2765.29 C 7887.71,2770.51 7880.11,2775.72 7873.77,2779.2 C 7867.44,2775.72 7859.83,2770.51 7856.88,2765.29 C 7852.65,2758.33 7852.65,2751.38 7856.88,2747.9 C 7861.1,2744.42 7869.55,2744.42 7873.77,2751.38 Z "/>
		<path id="dp_path005" fill="#e75f5a" fill-rule="evenodd" stroke="#31323d" stroke-width="8" d="M 7901.43,2599.01 C 7920.37,2576.75 7950.85,2581.32 7964.25,2595.89 C 7977.65,2610.46 7973.97,2635.01 7955.04,2657.28 C 7941.6,2674.1 7911.39,2688.39 7886.68,2697.24 C 7865.66,2681.52 7840.99,2658.99 7833.08,2638.97 C 7821.53,2612.12 7825.21,2587.57 7842.3,2577.58 C 7859.39,2567.59 7889.88,2572.17 7901.43,2599.01 Z "/>
		<path id="dp_path006" fill="#ffccd8" fill-rule="evenodd" stroke="#31323d" stroke-width="8" d="M 7774.11,2688.98 C 7761.17,2679.13 7743.72,2684.91 7737.1,2694.17 C 7730.48,2703.43 7734.7,2716.16 7747.64,2726.01 C 7756.91,2733.54 7775.78,2737.89 7790.98,2739.92 C 7801.96,2729.22 7814.51,2714.47 7817.45,2702.89 C 7821.96,2687.27 7817.74,2674.53 7806.91,2671.05 C 7796.07,2667.57 7778.62,2673.35 7774.11,2688.98 Z "/>
	</g>
</svg>