<svg id="Football_Helmet_Pats_" data-name="Football Helmet (Pats)" xmlns="http://www.w3.org/2000/svg" width="360" height="360" viewBox="0 0 360 360" shape-rendering="geometricPrecision">
  <defs>
    <style>
      .cls-1, .cls-10 {
        fill: #fff;
      }

      .cls-2 {
        fill: #e5e5e5;
      }

      .cls-10, .cls-11, .cls-3, .cls-4, .cls-5, .cls-6, .cls-7, .cls-8, .cls-9 {
        fill-rule: evenodd;
      }

      .cls-4 {
        fill: #31323d;
      }

      .cls-5 {
        fill: #929ca0;
      }

      .cls-6 {
        fill: #19385e;
      }

      .cls-7 {
        fill: #7d8588;
      }

      .cls-8 {
        fill: #afb7ba;
      }

      .cls-9 {
        fill: #285287;
      }

      .cls-11 {
        fill: #ca2641;
        stroke: #31323d;
        stroke-width: 2px;
      }
    </style>
  </defs>
  <rect class="cls-1" width="360" height="360"/>
  <ellipse class="cls-2" cx="180.5" cy="284.5" rx="170.5" ry="43.5"/>
  <path id="Color_Fill_799_copy" data-name="Color Fill 799 copy" class="cls-3" d="M286.614,290.363s16.318-25.4-107.682-25.4S68.114,293.494,68.114,293.494L84.841,118.11l187.136-15.66Z"/>
  <path id="Color_Fill_781" data-name="Color Fill 781" class="cls-4" d="M181.069,27.024C255.576,28.618,337.022,91.7,337,201.5s-56.95,95.973-56.95,95.973-2.641-96.424-8.755-129.52c-15.4-23.223-52.415-22.785-92.742-22.785H138.266S90.9,149.671,88.067,168.8C84.7,191.562,78.1,296.688,78.1,296.688S21,299.565,21,197.846,106.561,25.431,181.069,27.024Z"/>
  <path id="Color_Fill_793" data-name="Color Fill 793" class="cls-5" d="M322.686,266.7c-3.348,8.02-13.829,30.1-38.715,27.906,0,0,9.623-103.54-8.371-131.181-11.594-17.811-49.188-22.517-74-23.153-7.383,3.966-17.136,3.542-23.048,3.854-5.705.3-15.3,0.579-22.7-3.856-1.65.021-4.643,0.052-6.383,0.095a409.346,409.346,0,0,0-54.793,9.758,23.382,23.382,0,0,0-4.281,3.653c-14.287,16.281-14.91,139.787-14.91,139.787s-29.931-3.165-42.378-39.381-8.618-85.85-3.139-102.493S70.243,34.145,178.55,31.2c89-2.423,137.122,74.622,150.414,127.008S326.034,258.677,322.686,266.7ZM148.991,251.049c2.076,2.6,20.468,70.717,18.834,70.676s-5.881,1.111-8.109.521-19.358-70.676-19.358-70.676S146.914,248.45,148.991,251.049Zm70.891-1.043c3.791,2.19-23.544,71.2-23.544,71.2h-8.825l24.851-72.241A10.2,10.2,0,0,1,219.882,250.006Z"/>
  <path id="Color_Fill_1026" data-name="Color Fill 1026" class="cls-6" d="M258.074,72.664c-4.514,2.975,2.687-3.325,11.109-10.443h0q4.548,3.73,8.76,7.762l0,0q4.21,4.023,8.087,8.3h0C277.165,74.018,263.885,68.834,258.074,72.664Z"/>
  <path id="Color_Fill_1026_copy_2" data-name="Color Fill 1026 copy 2" class="cls-6" d="M100.6,72.664c4.513,2.975-2.687-3.325-11.109-10.443a159.327,159.327,0,0,0-16.85,16.062C81.505,74.018,94.785,68.834,100.6,72.664Z"/>
  <path id="Color_Fill_798" data-name="Color Fill 798" class="cls-7" d="M300.713,285.213c-8.127,3.472-13.416-53.133-14.126-68.068s3.613-86.915,8.894-38.859,26.643,54.373,30.606,67.808S310.082,281.21,300.713,285.213ZM152.391,126.388c-3.126-.679-58.885-0.645-79,60.766s-4.626,98.805-21.45,85.28-29.233-78.9-21.45-95.712C32.7,171.946,50,283.023,54.557,243.486S60.34,136.59,125.709,124.3c23.47-4.412,27.467-14.083,27.467-14.083S155.518,127.067,152.391,126.388Z"/>
  <path id="Color_Fill_794" data-name="Color Fill 794" class="cls-8" d="M310.13,185.85c-3.641-14.393-10.386-24.815-18.751-32.389-19.867-6.858-48.4-13.486-86.119-14.624-7.267,6.384-19.936,4.927-26.71,5.285-5.856.31-16.493,1.275-23.928-3.573C85.244,147.163,39.382,168.9,34.153,168.9c-2.823,0-10.357-2.643,2.354-8.607,34.323-16.1,63.874-27.575,110.357-32.242a32.8,32.8,0,0,1-.489-5.834c0-16.115,14.558-18.766,32.781-18.777,7.76,0,14.248.2,19.288,1.539-5.126-25.083-31.276-52.748-20.678-62.826C201.793,19.3,280.155,64.285,313.531,126.91S325.992,248.55,310.13,185.85Z"/>
  <path id="Color_Fill_1026_copy" data-name="Color Fill 1026 copy" class="cls-9" d="M258.074,72.664c-3.374,2.224-.2-0.735,5.132-5.344q2.776,2.239,5.518,4.607C264.426,71.04,260.564,71.023,258.074,72.664Z"/>
  <path id="Color_Fill_796" data-name="Color Fill 796" class="cls-6" d="M201.826,140.9q-1.819-.045-3.545-0.065c-9.186-.328-19.144-0.13-27.055.166-3.889-.093-9.082-0.163-14.986-0.1-2.8-34.138,5.3-96.874,6.877-108.576,4.971-.6,10.112-0.981,15.433-1.125q6.343-.173,12.41.183C195.906,48.062,201.623,137.7,201.826,140.9Z"/>
  <path id="Color_Fill_794_copy" data-name="Color Fill 794 copy" class="cls-9" d="M201.826,140.9q-1.819-.045-3.545-0.065c-9.186-.328-19.144-0.13-27.055.166-3.889-.093-9.082-0.163-14.986-0.1a283.234,283.234,0,0,1-.147-34.179c5.9-2.62,14.032-3.276,23.063-3.282,7.76,0,14.248.2,19.288,1.539-5.126-25.083-31.276-52.748-20.678-62.826,3.638-3.46,8.525-5.362,14.311-5.885C196.728,60.952,201.638,137.94,201.826,140.9Z"/>
  <path id="Color_Fill_795" data-name="Color Fill 795" class="cls-10" d="M240.285,57.277c16.186,5.449,19.069,16.208,10.987,16.952S211.822,47.7,240.285,57.277Z"/>
  <path id="Color_Fill_786" data-name="Color Fill 786" class="cls-11" d="M327.685,227.137c2.8,1.222,4.437,3.034.159,5.448,0.145,5.272.221,9.193,0.194,10.737-0.012.654-.01,1.288,0,1.9,1.891,0.937,2,3.04-.042,5.287-0.291,2.9-1.483,4.518-5.83,4.19-0.213-.016-0.413-0.039-0.608-0.065-0.707.294-1.461,0.578-2.27,0.847-4.12,1.374-13.575,3.759-25.9,6.469-0.166,15.734-.345,27.636-0.55,30.448-0.708,9.71.091,15.846-5.9,15.056s-4.883-5.85-4.264-15.937c0.167-2.733.276-13.238,0.357-27.356-30.846,6.393-72.99,13.516-98.2,13.488-26.733-.03-73.423-4.028-107.33-9.836-0.583,12.366-.968,21.407-0.968,23.919,0,10.106.8,15.223-5.232,15.648s-4.858-5.651-4.97-15.387c-0.029-2.552.352-12.54,0.931-26.069-11.314-2.26-20.447-4.734-25.782-7.313-0.5-.243-0.973-0.478-1.43-0.71a31.557,31.557,0,0,1-3.54-.333c-6.544-.74-6.017-2.879-6.017-11.215s4.185-68.858,4.185-75.631c0-.559.009-1.1,0.026-1.62a3.839,3.839,0,0,1-.549.056c-2.823,0-10.357-2.643,2.354-8.607,12.58-5.9,24.519-11.181,36.884-15.732,1.272-3.488,3.429-5.208,6.278-5.392,2.422-.157,3.339.031,3.615,1.945,18.551-6.092,38.625-10.558,63.579-13.063a32.806,32.806,0,0,1-.489-5.834c0-16.115,14.558-18.766,32.781-18.777,20.9-.014,32.579,1.523,31.57,22.428-0.014.284-.033,0.562-0.054,0.838a288.023,288.023,0,0,1,73.314,16.34c0.256-3.365,1-4.4,3.912-4.029,3.375,0.426,5.636,2.968,6.433,8a225.99,225.99,0,0,1,25.883,12.253,11.4,11.4,0,0,1,1.186-.019c2.1,0.07,2.875.982,3.23,2.879,5.526,4.548,4.259,9.731,1.553,7.814-0.175-.125-0.507-0.357-0.989-0.678,0.032,0.388.067,0.786,0.108,1.2C325.853,176.264,327.076,207.261,327.685,227.137Zm-286.207,20c0,0.43,0,.841.006,1.239,2.758,0.68,12.544,3.049,26.283,5.909,0.127-2.878.259-5.844,0.4-8.875-11.667-2.348-21.122-4.854-26.4-7.383C41.582,242.038,41.478,245.219,41.478,247.137Zm4.258-81.587a24.047,24.047,0,0,0-.334,3.869c0,4.685-1.863,34.23-3.021,56,2.5,0.719,12.188,3.441,26.384,6.646,1.41-31.1,2.964-64.618,3.267-75.107C61.023,160.224,52.161,163.3,45.736,165.55Zm32.313,90.815c30.85,6.051,74.635,12.948,106.781,11.114,33.06-1.887,70.792-7.674,98.247-12.966,0.015-3.4.03-6.927,0.044-10.542-35.271,6.884-82.137,14.293-98.291,14.641-15.95.344-68.468-4.592-106.339-11.262C78.338,250.439,78.19,253.454,78.048,256.365ZM205.259,139.1c-7.268,6.383-19.935,4.926-26.709,5.284-5.856.31-16.494,1.275-23.928-3.574a432.615,432.615,0,0,0-71.576,13.026c-0.285,8.986-2.22,46.667-3.908,80.476,28.071,5.831,67.992,12.084,105.691,10.739,36.231-1.292,72.43-6.844,98.329-11.744,0.118-34.865.2-73.59,0.516-80.7,0.021-.474.039-0.928,0.055-1.373C264.421,145.329,238.379,140.1,205.259,139.1Zm110.887,31.1c0.024-2.409.028-4.344,0.161-5.873a175.649,175.649,0,0,0-21.761-9.489c-0.325,6.221-.591,42.556-0.876,76.405,10.743-2.18,18.854-4.057,23.24-5.11C316.58,206.013,316.091,175.88,316.146,170.2Zm1.047,73.717c-0.014-1.154-.055-3.8-0.114-7.446-5.71,1.556-13.911,3.421-23.5,5.4-0.032,3.6-.064,7.137-0.1,10.557,10.659-2.216,18.988-4.227,23.739-5.667C317.209,245.894,317.205,244.948,317.193,243.919Z"/>
  <path id="Color_Fill_790" data-name="Color Fill 790" class="cls-11" d="M287.11,305.816c-9.354,2.086-52.045,22.808-102.281,22.168-61.526-.784-99.646-15.1-117.977-23.211-12.912-5.717,1.308-13.3,1.308-13.3s46.768,19.785,89.493,25.786c-5.177-16.109-17.295-65.688-17.295-65.688s6.556-3.12,8.633-.521c1.8,2.25,15.831,53.636,18.5,67.341a132.058,132.058,0,0,0,17.339.466q1.782-.081,3.558-0.193l23.977-69.7a10.2,10.2,0,0,1,7.518,1.044c3.29,1.9-16.859,54.115-22.245,67.891,44.309-4.578,83.05-21.254,89.735-23.556C294.693,291.82,296.464,303.73,287.11,305.816Z"/>
  <path id="Color_Fill_797" data-name="Color Fill 797" class="cls-4" d="M176.613,118.9c1.718-.066,4.847-0.328,5.468.749H181.7c-1.483,1.168-5,.389-6.6,0v-0.375A3.487,3.487,0,0,0,176.613,118.9Zm-1.508,1.123a15.617,15.617,0,0,0,6.976,0v0.187c-0.48.753-.571,4.216-0.566,5.43l-0.566.187c-1.119.825-3.894,0.279-5.09,0a6.867,6.867,0,0,1-.188-2.059Q175.388,121.9,175.105,120.024Zm11.123,7.115c-0.056,1.407-.987,2.978-0.754,4.118,0.152,0.743,1.059,1.787,1.32,2.621,0.86,2.75.681,6.791,1.7,9.281-4.148.125-8.3-.011-12.443,0.114a15.822,15.822,0,0,1-5.091-.074,19.669,19.669,0,0,0-3.393-.113v-0.375c0.691,0,1.382-.521,2.073-0.521,0.44-2.684.88-5.628,1.32-8.312,0.241-.825,1.139-1.963,1.32-2.621q-0.471-1.965-.943-3.931a2.956,2.956,0,0,1,.943-0.187,5.731,5.731,0,0,0,3.016,1.123,1.575,1.575,0,0,0,.378-0.562,1.312,1.312,0,0,1-1.32-.936,2.806,2.806,0,0,1,1.32-.562c0.384,1.064,4.117,1.5,5.467.749,0.466-.258.22-0.535,0.943-0.749a2.039,2.039,0,0,1,.754.937h-0.189a3.521,3.521,0,0,1-.942.561,0.669,0.669,0,0,0,.377.187C183.076,128.747,184.822,127.305,186.228,127.139Zm-12.066,2.808a2.409,2.409,0,0,0-.942,2.246,0.679,0.679,0,0,1,.188.375c2.478,1.769,4.357-.547,2.263-2.621h-1.509Zm7.73,0a2.037,2.037,0,0,0-.754.936c-0.831,1.1.613,2.968,2.074,2.434,0.827-.3,1.212-1.179,1.131-2.434A2.519,2.519,0,0,0,181.892,129.947Zm-7.541.749h1.131a2.459,2.459,0,0,1,.377,1.5,2.182,2.182,0,0,1-1.32.375,0.669,0.669,0,0,0-.377-0.187A1.747,1.747,0,0,1,174.351,130.7Zm7.73,0h1.131a2.459,2.459,0,0,1,.377,1.5l-0.566.188C181.735,133.252,181.626,131.432,182.081,130.7Zm-4.525,1.31c0.116,1.082.544,0.912,0.754,1.872,0.232,0.2-.221.471-0.377,0.936h0.377a1.66,1.66,0,0,1,.566-0.561,0.739,0.739,0,0,0,.754.561V134.44a0.952,0.952,0,0,1-.566-0.936,2.392,2.392,0,0,0,1.131-1.311h-0.188v-0.187h-2.451Zm-1.508,4.119a3.391,3.391,0,0,1-.566.749c-0.1,1.03-.386,2.225.189,3,0.211,0.63.213,0.621,0.942,0.749,1.816-1.918,2.449-.4,4.714,0q0.093-.28.188-0.561c0.728-.772.356-2.919,0-3.745a2.978,2.978,0,0,0-.943-0.187c-0.853.86-1.621,0.62-2.639,1.123a5.924,5.924,0,0,0-1.131-1.123h-0.754Z"/>
  <path id="Color_Fill_798-2" data-name="Color Fill 798" class="cls-10" d="M191.63,110.219c-0.785,1.825,7.586,4.694,9.679,10.171s7.063-7.3-.262-10.171S192.415,108.393,191.63,110.219Z"/>
</svg>
