<svg id="Football_Helmet_Eagles_copy" data-name="Football Helmet (Eagles) copy" xmlns="http://www.w3.org/2000/svg" width="360" height="360" viewBox="0 0 360 360" shape-rendering="geometricPrecision">
  <defs>
    <style>
      .cls-1, .cls-11 {
        fill: #fff;
      }

      .cls-2 {
        fill: #e5e5e5;
      }

      .cls-10, .cls-11, .cls-12, .cls-3, .cls-4, .cls-5, .cls-6, .cls-7, .cls-8, .cls-9 {
        fill-rule: evenodd;
      }

      .cls-4 {
        fill: #31323d;
      }

      .cls-5 {
        fill: #004851;
      }

      .cls-6 {
        fill: #05373d;
      }

      .cls-7 {
        fill: #166670;
      }

      .cls-8 {
        fill: #b4bcc0;
      }

      .cls-9 {
        fill: #a4acb0;
      }

      .cls-10 {
        fill: #d1dadf;
      }

      .cls-12 {
        fill: #454d51;
      }
    </style>
  </defs>
  <rect class="cls-1" width="360" height="360"/>
  <ellipse class="cls-2" cx="180.5" cy="284.5" rx="170.5" ry="43.5"/>
  <path id="Color_Fill_799" data-name="Color Fill 799" class="cls-3" d="M286.614,290.363s16.318-25.4-107.682-25.4S68.114,293.494,68.114,293.494L84.841,118.11l187.136-15.66Z"/>
  <path id="Color_Fill_781" data-name="Color Fill 781" class="cls-4" d="M180.925,27.024c74.444,1.595,155.819,64.725,155.794,174.6s-60.975,96.981-60.975,96.981,4.856-86.163-4.182-130.439C257.414,149.25,218.7,147.34,178.409,147.34h-40.25s-46.047,2.467-48.875,25.316-8.1,124.231-8.1,124.231S21,299.766,21,197.972,106.482,25.43,180.925,27.024Z"/>
  <path id="Color_Fill_793" data-name="Color Fill 793" class="cls-5" d="M322.42,266.613c-3.345,8.025-13.817,30.123-38.681,27.925,0,0,9.614-103.616-8.364-131.277-11.585-17.825-48.5-21.889-73.292-22.525-7.377,3.968-17.768,2.9-23.674,3.212-5.7.3-15.932,1.224-23.324-3.214-1.649.021-3.348,0.051-5.087,0.095a430.445,430.445,0,0,0-56.036,9.765,16.59,16.59,0,0,0-3.632,3.01c-14.274,16.294-14.9,139.89-14.9,139.89s-29.905-3.166-42.341-39.409-8.611-85.914-3.136-102.569S70.195,33.89,178.409,30.939c88.927-2.425,137,74.677,150.284,127.1S325.765,258.587,322.42,266.613Z"/>
  <path id="Color_Fill_798" data-name="Color Fill 798" class="cls-6" d="M300.466,285.143c-8.119,3.474-13.4-53.173-14.114-68.118s3.61-86.979,8.887-38.888,26.62,54.413,30.579,67.857S309.827,281.137,300.466,285.143ZM152.273,126.2c-3.124-.679-58.835-0.645-78.932,60.811s-4.623,98.878-21.432,85.343S22.7,193.4,30.477,176.571c2.209-4.779,19.492,106.38,24.046,66.813S60.3,136.41,125.614,124.112c23.449-4.415,27.443-14.093,27.443-14.093S155.4,126.88,152.273,126.2Z"/>
  <path id="Color_Fill_794" data-name="Color Fill 794" class="cls-7" d="M313.273,126.722c33.346,62.671,12.45,121.731-3.4,58.984-3.638-14.4-10.377-24.833-18.734-32.413-19.851-6.862-48.358-13.5-86.045-14.634a16.792,16.792,0,0,1-4.328,2.716l-12.052-37.932a48.642,48.642,0,0,1,9.569,1.331c-5.121-25.1-31.249-52.787-20.66-62.873C201.631,19.035,279.926,64.052,313.273,126.722Z"/>
  <g>
    <path id="Color_Fill_1061_copy" data-name="Color Fill 1061 copy" class="cls-4" d="M136.793,79.913c5.7,7.788-2.548,15.676.208,27.3s9.59,25.76,9.59,25.76a14.326,14.326,0,0,1-.945,8.347,430.92,430.92,0,0,0-51.684,9.278,16.59,16.59,0,0,0-3.632,3.01c-0.17.195-.338,0.409-0.5,0.634-3.867-22.2-23.862-7.46-30.77-9.55-7.479-2.264,4.355-7.553-16.979-22.329,1.53-3.019,3.214-6.165,5.065-9.4,5.347,0.919,10.067,2.064,10.067,2.064s-3.519-1.626-8.651-4.5c9.758-16.512,23.8-34.943,43.429-49.915C114.74,68.737,134.5,76.775,136.793,79.913Z"/>
    <path id="Color_Fill_1062_copy_2" data-name="Color Fill 1062 copy 2" class="cls-8" d="M135.463,83.55c3.523,4.105-5.011,9.61-1.737,25.281,2.255,10.79,8.918,23.7,13.158,31.307a422.1,422.1,0,0,0-52.922,9.473q-0.545.345-1.046,0.706c-1-3.56-2.537-5.917-4.9-9.054-6.064-8.06-28.452-1.4-28.452-1.4,4.343-6.762-8.466-17.607-14.9-22.45q0.4-.741.813-1.49l10.13,2.341s21.457,2.948,2.353-6.923c-2.449-1.266-4.913-2.692-7.348-4.216C59.6,92.574,71.9,76.844,88.353,63.472,112.138,72.463,133.77,81.577,135.463,83.55Z"/>
    <path id="Color_Fill_1062_copy_3" data-name="Color Fill 1062 copy 3" class="cls-9" d="M84.263,127.9l-14.4-3.326s11.39,7.573,16.641,15.2c-7.594-5.667-26.942.091-26.942,0.091,4.343-6.762-8.466-17.607-14.9-22.45q0.4-.741.813-1.49l10.13,2.341s21.457,2.948,2.353-6.923c-2.449-1.266-4.913-2.692-7.348-4.216q2.453-3.97,5.237-8.035c7.595,6.592,19.34,15.978,30.768,21.883C105.72,130.85,84.263,127.9,84.263,127.9ZM78.388,78.13c5.664,3.8,8.022,13.174-4.366,6.4-1.457-.8-3.062-1.7-4.758-2.664q2.844-3.224,5.933-6.383A29.149,29.149,0,0,0,78.388,78.13ZM61.164,98.508l-3.609-1.853q2.142-3.013,4.477-6.035,1.016,0.909,2.03,1.753C76.432,102.649,61.164,98.508,61.164,98.508Z"/>
    <g>
      <path id="Color_Fill_1061_copy_2" data-name="Color Fill 1061 copy 2" class="cls-4" d="M311.006,113.677c-3.833,1.719-6.295,2.644-6.295,2.644s3.141-.511,7.2-0.97q2.9,5.409,5.381,10.812c-19.037,12.166-8.523,18-15.832,19.62-7.386,1.633-28.452-16.611-31.852,11.169-11.824-9.691-32.9-13.765-51.812-15.366-2.937-5.4-4.3-10.479-3.154-14.344,0,0,7.491-13.58,10.793-24.962s-4.553-19.9,1.5-27.229c2.255-2.73,19.608-8.474,40.466-14.329C286.032,75.609,300.493,94.5,311.006,113.677Z"/>
      <path id="Color_Fill_1062_copy_4" data-name="Color Fill 1062 copy 4" class="cls-8" d="M309.1,110.28c-1.655.827-3.315,1.6-4.964,2.308-19.537,8.36,2.02,7.1,2.02,7.1l7.439-1.124q0.669,1.305,1.316,2.611c-6.971,4.818-17.338,13.393-13.732,19.762,0,0-22.03-8.4-28.465-.832a30.666,30.666,0,0,0-6.6,14.316c-14.009-9.058-36.938-12.318-55.841-13.352l-0.306-.406s14.645-21.117,18.657-36.5-4.247-21.548-.535-25.37c1.663-1.713,20.928-8.269,43.118-14.916A176.712,176.712,0,0,1,309.1,110.28Z"/>
      <path id="Color_Fill_1062_copy_5" data-name="Color Fill 1062 copy 5" class="cls-8" d="M309.1,110.28c-1.655.827-3.315,1.6-4.964,2.308-19.537,8.36,2.02,7.1,2.02,7.1l7.439-1.124q0.669,1.305,1.316,2.611c-6.971,4.818-17.338,13.393-13.732,19.762,0,0-22.03-8.4-28.465-.832a28.074,28.074,0,0,0-4.577,7.528,398.4,398.4,0,0,0-57.26-8.309c3.247-4.866,14.34-22.083,17.751-35.164,4.011-15.386-4.247-21.548-.535-25.37,1.663-1.713,20.928-8.269,43.118-14.916A176.712,176.712,0,0,1,309.1,110.28Z"/>
      <path id="Color_Fill_1062_copy_6" data-name="Color Fill 1062 copy 6" class="cls-9" d="M289.374,84.565c-12.687,5.8-9.889-3.378-4.055-6.727,0.059-.034.121-0.072,0.182-0.108q2.759,3.024,5.35,6.153C290.346,84.118,289.85,84.347,289.374,84.565Zm12.172,14.959s-14.955,2.848-3.186-5.921q2.009,2.788,3.895,5.62Zm2.779,2.87q2.5,3.919,4.776,7.886c-1.655.827-3.315,1.6-4.964,2.308-19.537,8.36,2.02,7.1,2.02,7.1l7.439-1.124q0.669,1.305,1.316,2.611c-6.971,4.818-17.338,13.393-13.732,19.762,0,0-19.039-7.26-26.887-2.2,5.6-7.205,17.331-13.873,17.331-13.873l-14.528,2.2s-21.556,1.265-2.02-7.095C285.59,115.463,296.494,108.171,304.325,102.394Z"/>
    </g>
  </g>
  <g id="Group_23_copy" data-name="Group 23 copy">
    <g>
      <path id="Color_Fill_1061_copy_2-2" data-name="Color Fill 1061 copy 2" class="cls-4" d="M313.273,126.722q0.427,0.8.843,1.608c-14.636,10.7-5.793,15.936-12.654,17.453-6.321,1.4-22.661-11.76-29.373,1.832a301.276,301.276,0,0,0-55.494-8.423c-2.081-4.494-2.929-8.662-1.951-11.95,0,0,7.491-13.58,10.793-24.962s-4.553-19.9,1.5-27.229c1.914-2.317,14.71-6.807,31.294-11.693a206.4,206.4,0,0,1,48.492,52.161c-1.281.526-2.014,0.8-2.014,0.8s0.878-.143,2.3-0.345Q310.351,121.25,313.273,126.722Z"/>
      <path id="Color_Fill_1062_copy_4-2" data-name="Color Fill 1062 copy 4" class="cls-8" d="M301.18,140.932s-22.03-8.4-28.465-.832a27.932,27.932,0,0,0-4.192,6.638A308.708,308.708,0,0,0,211.16,138.9c3.568-5.383,14.152-22.02,17.469-34.74,4.011-15.386-4.247-21.548-.535-25.37,1.436-1.479,16.006-6.573,34.25-12.217a206.927,206.927,0,0,1,42.321,45.789c-0.176.077-.352,0.156-0.528,0.231-19.537,8.36,2.02,7.1,2.02,7.1l2.878-.435q1.3,2.16,2.531,4.353C305.118,128.539,298.121,135.529,301.18,140.932Z"/>
      <path id="Color_Fill_1062_copy_5-2" data-name="Color Fill 1062 copy 5" class="cls-10" d="M301.18,140.932s-22.03-8.4-28.465-.832a27.892,27.892,0,0,0-4.19,6.638A308.744,308.744,0,0,0,211.16,138.9c3.56-5.371,14.15-22.011,17.469-34.74,4.011-15.386-4.247-21.548-.535-25.37,1.436-1.479,16.006-6.573,34.25-12.217a206.928,206.928,0,0,1,42.321,45.789c-0.176.077-.352,0.156-0.528,0.231-19.537,8.36,2.02,7.1,2.02,7.1l2.878-.435q1.3,2.16,2.531,4.353C305.118,128.539,298.121,135.529,301.18,140.932Z"/>
      <path id="Color_Fill_1062_copy_6-2" data-name="Color Fill 1062 copy 6" class="cls-8" d="M294,97.931q0.777,0.956,1.544,1.921C294.3,99.642,293.5,99.1,294,97.931ZM280.655,83.074q1.611,1.63,3.193,3.3C280.653,86.794,279.924,85.134,280.655,83.074Zm20.525,57.858s-19.039-7.26-26.887-2.2c5.6-7.205,17.331-13.873,17.331-13.873l-14.528,2.2s-21.556,1.265-2.02-7.095c8.66-3.7,17.58-9.3,24.834-14.392q2.454,3.342,4.755,6.787c-0.176.077-.352,0.156-0.528,0.231-19.537,8.36,2.02,7.1,2.02,7.1l2.878-.435q1.3,2.16,2.531,4.353C305.118,128.539,298.121,135.529,301.18,140.932Z"/>
    </g>
  </g>
  <path id="Color_Fill_795" data-name="Color Fill 795" class="cls-11" d="M240.091,57.038c16.171,5.453,19.052,16.22,10.977,16.964S211.652,47.449,240.091,57.038Z"/>
  <path id="Color_Fill_786" data-name="Color Fill 786" class="cls-4" d="M327.415,226.763c2.794,1.223,4.433,3.036.159,5.452,0.144,5.276.221,9.2,0.193,10.745-0.011.655-.01,1.289,0,1.9,1.889,0.938,2,3.043-.042,5.292-0.291,2.9-1.482,4.52-5.825,4.192-0.213-.016-0.413-0.039-0.607-0.064-0.707.293-1.461,0.577-2.268,0.847-4.117,1.374-13.564,3.761-25.876,6.473-0.166,15.746-.345,27.657-0.55,30.471-0.708,9.718.091,15.858-5.9,15.067s-4.878-5.854-4.26-15.949c0.167-2.734.276-13.247,0.357-27.376-30.82,6.4-72.927,13.526-98.114,13.5-26.709-.029-73.359-4.031-107.237-9.843-0.583,12.375-.968,21.423-0.968,23.937,0,10.113.8,15.234-5.227,15.659s-4.853-5.656-4.966-15.4c-0.029-2.553.352-12.549,0.93-26.087-11.3-2.263-20.43-4.737-25.76-7.319-0.5-.243-0.973-0.478-1.429-0.71a31.566,31.566,0,0,1-3.537-.334c-6.538-.74-6.011-2.881-6.011-11.223s4.182-68.909,4.182-75.686q0-.84.026-1.622a3.832,3.832,0,0,1-.549.056c-2.821,0-10.348-2.645,2.352-8.613,12.569-5.907,24.5-11.19,36.853-15.744,1.271-3.49,3.426-5.212,6.272-5.4,2.42-.157,3.336.031,3.612,1.946,18.535-6.1,38.592-10.565,63.524-13.073a32.926,32.926,0,0,1-.489-5.837c0-16.127,14.545-18.78,32.753-18.792,20.882-.013,32.551,1.524,31.543,22.445-0.014.285-.033,0.563-0.054,0.839a287.374,287.374,0,0,1,73.251,16.352c0.255-3.367,1-4.4,3.909-4.032,3.372,0.426,5.63,2.97,6.427,8.005A225.573,225.573,0,0,1,319.951,159.1a11.378,11.378,0,0,1,1.185-.019c2.1,0.07,2.872.982,3.227,2.881,5.521,4.551,4.255,9.738,1.551,7.82-0.175-.125-0.507-0.357-0.988-0.679,0.032,0.389.067,0.787,0.108,1.2C325.584,175.853,326.807,206.872,327.415,226.763ZM41.455,246.777c0,0.431,0,.843.006,1.241,2.756,0.68,12.533,3.05,26.26,5.913,0.127-2.88.259-5.849,0.395-8.882-11.657-2.349-21.1-4.857-26.382-7.388C41.559,241.675,41.455,244.859,41.455,246.777Zm4.255-81.646A24.091,24.091,0,0,0,45.375,169c0,4.688-1.861,34.255-3.019,56.038,2.5,0.719,12.178,3.443,26.361,6.651,1.408-31.122,2.961-64.666,3.264-75.163C60.983,159.8,52.128,162.881,45.709,165.131Zm32.285,90.881c30.823,6.056,74.57,12.958,106.688,11.123,33.032-1.889,70.731-7.68,98.163-12.976,0.015-3.4.029-6.932,0.043-10.55-35.24,6.889-82.065,14.3-98.206,14.652-15.936.344-68.408-4.6-106.247-11.271C78.283,250.082,78.135,253.1,77.994,256.012ZM205.1,138.66c-7.262,6.387-19.918,4.929-26.686,5.288-5.851.309-16.48,1.276-23.908-3.577a431.623,431.623,0,0,0-71.514,13.036c-0.285,8.993-2.218,46.7-3.9,80.535,28.047,5.835,67.934,12.093,105.6,10.747,36.2-1.293,72.368-6.849,98.244-11.753,0.118-34.891.2-73.644,0.516-80.76,0.021-.474.038-0.928,0.054-1.373C264.205,144.894,238.186,139.66,205.1,138.66Zm110.791,31.126c0.024-2.411.028-4.347,0.161-5.878a175.432,175.432,0,0,0-21.743-9.495c-0.324,6.225-.589,42.587-0.874,76.461,10.733-2.182,18.837-4.06,23.219-5.114C316.319,205.623,315.831,175.468,315.886,169.786Zm1.046,73.771c-0.014-1.155-.055-3.806-0.114-7.451-5.7,1.557-13.9,3.424-23.48,5.4-0.031,3.608-.063,7.143-0.1,10.565,10.65-2.217,18.972-4.229,23.719-5.671C316.948,245.533,316.944,244.587,316.932,243.557Z"/>
  <path id="Color_Fill_790" data-name="Color Fill 790" class="cls-4" d="M286.875,305.761c-9.346,2.087-52,22.824-102.193,22.184-61.473-.784-99.56-15.106-117.875-23.228-12.9-5.721,1.307-13.31,1.307-13.31s46.728,19.8,89.416,25.805c-5.173-16.121-17.28-65.737-17.28-65.737s6.55-3.122,8.625-.522c1.8,2.252,15.818,53.676,18.483,67.391a131.659,131.659,0,0,0,17.324.466c1.188-.053,2.372-0.12,3.555-0.193l23.957-69.752a10.175,10.175,0,0,1,7.511,1.044c3.287,1.9-16.844,54.156-22.225,67.941,44.27-4.58,82.978-21.269,89.656-23.573C294.452,291.754,296.221,303.674,286.875,305.761Z"/>
  <path id="Color_Fill_797" data-name="Color Fill 797" class="cls-12" d="M176.474,118.708c1.716-.066,4.842-0.329,5.462.749H181.56c-1.482,1.169-5,.39-6.593,0v-0.375A3.486,3.486,0,0,0,176.474,118.708Zm-1.507,1.124a15.586,15.586,0,0,0,6.969,0v0.187c-0.479.753-.57,4.219-0.565,5.434l-0.565.187c-1.119.825-3.891,0.279-5.086,0a6.881,6.881,0,0,1-.188-2.061Q175.248,121.706,174.967,119.832Zm11.113,7.12c-0.055,1.408-.986,2.98-0.753,4.121,0.151,0.743,1.058,1.789,1.319,2.623,0.859,2.752.68,6.8,1.7,9.288-4.144.125-8.289-.011-12.433,0.114a15.791,15.791,0,0,1-5.086-.074,19.529,19.529,0,0,0-3.39-.114v-0.374c0.69,0,1.381-.522,2.072-0.522,0.439-2.685.879-5.632,1.318-8.318,0.241-.826,1.138-1.965,1.319-2.623l-0.942-3.934a2.949,2.949,0,0,1,.942-0.187,5.73,5.73,0,0,0,3.014,1.124,1.586,1.586,0,0,0,.377-0.562,1.312,1.312,0,0,1-1.319-.937,2.807,2.807,0,0,1,1.319-.562c0.383,1.064,4.113,1.5,5.462.749,0.466-.258.22-0.535,0.942-0.749a2.028,2.028,0,0,1,.754.937H182.5a3.559,3.559,0,0,1-.941.562,0.682,0.682,0,0,0,.376.187C182.93,128.561,184.675,127.118,186.08,126.952Zm-12.055,2.81a2.412,2.412,0,0,0-.942,2.248,0.672,0.672,0,0,1,.188.375c2.476,1.77,4.353-.548,2.261-2.623h-1.507Zm7.723,0a2.034,2.034,0,0,0-.754.937c-0.829,1.1.613,2.97,2.073,2.435,0.826-.3,1.211-1.18,1.13-2.435A2.513,2.513,0,0,0,181.748,129.762Zm-7.535.749h1.13a2.466,2.466,0,0,1,.377,1.5,2.179,2.179,0,0,1-1.319.375,0.669,0.669,0,0,0-.376-0.187A1.753,1.753,0,0,1,174.213,130.511Zm7.723,0h1.131a2.466,2.466,0,0,1,.376,1.5l-0.565.188C181.591,133.07,181.482,131.248,181.936,130.511Zm-4.521,1.312c0.116,1.082.544,0.912,0.754,1.873,0.231,0.2-.221.472-0.377,0.937h0.377a1.678,1.678,0,0,1,.565-0.562,0.741,0.741,0,0,0,.753.562v-0.375a0.953,0.953,0,0,1-.565-0.936,2.4,2.4,0,0,0,1.131-1.312h-0.189v-0.187h-2.449Zm-1.507,4.122a3.357,3.357,0,0,1-.565.749c-0.1,1.031-.385,2.227.189,3,0.211,0.63.213,0.621,0.942,0.749,1.814-1.919,2.447-.4,4.709,0,0.063-.187.125-0.375,0.188-0.562,0.727-.772.356-2.921,0-3.747a2.977,2.977,0,0,0-.942-0.187c-0.853.86-1.62,0.62-2.637,1.124a5.9,5.9,0,0,0-1.13-1.124h-0.754Z"/>
  <path id="Color_Fill_798-2" data-name="Color Fill 798" class="cls-11" d="M191.477,110.019c-0.784,1.827,7.58,4.7,9.671,10.179s7.057-7.308-.262-10.179S192.261,108.192,191.477,110.019Z"/>
</svg>
