<?xml version="1.0" encoding="utf-8"?>
<svg viewBox="0 0 360 360" xmlns="http://www.w3.org/2000/svg">
  <defs>
    <style>.cls-1{fill:#bfbfbf;}.cls-2{fill:#fff;}.cls-3,.cls-5{fill:#333;}.cls-3,.cls-4{stroke:#fff;stroke-miterlimit:10;stroke-width:0.5px;}.cls-4{fill:none;}.cls-6{fill:#919191;}</style>
  </defs>
  <title>apple watch</title>
  <g id="Layer_2" data-name="Layer 2">
    <path class="cls-2" d="M67.42,125.62,94.28,283.48s-13.26-12.43-41.64-5A5.22,5.22,0,0,1,46.36,274L25.44,151.08c-.5-2.94,1.15-5.73,3.75-6.24C37.75,143.15,56.08,138.21,67.42,125.62Z" style="stroke-width: 5; stroke: rgb(239, 239, 239);"/>
    <path class="cls-2" d="M291.63,253.12,271.08,94.32s12.75,12.95,41.41,6.65a5.22,5.22,0,0,1,6.1,4.74l16,123.65c.38,3-1.37,5.68-4,6.09C322,236.79,303.47,241,291.63,253.12Z" style="stroke-width: 5; stroke: rgb(239, 239, 239);"/>
    <rect class="cls-2" x="209.94" y="276.44" width="33.36" height="11.68" rx="0.26" ry="0.26" transform="matrix(0.99, -0.15, 0.15, 0.99, -39.07, 36.42)"/>
    <path class="cls-3" d="M282.47,264.54l-18.63,2.8h-.11l-.34,0-20.75,3.1-9,1.34-8.85,1.34L101.47,291.49s0,0,0,0a39.71,39.71,0,0,1-17.54-12.92s0,0,0,0l-.07-.41-2.69-18a.05.05,0,0,1,0-.07c0-.19,0-.34-.07-.52l-18-120.61a3.68,3.68,0,0,1-.07-.63l-1.12-7.5-1.61-10.94v0l4.29,2.8h0l213.4,139Z"/>
    <path class="cls-3" d="M295.72,249.43a8.06,8.06,0,0,0-.11-1.31l-.15-1s0,0,0,0l-2.76-18.55c0-.19,0-.34-.07-.52L274.71,107.39c0-.22-.07-.45-.11-.63L273,95.86l-1.12-7.58"/>
    <path class="cls-4" d="M73.47,102.24h0l18.78-2.8L210.65,81.82l24.6-3.66c.19,0,.41,0,.6-.07l18.59-2.76"/>
    <path class="cls-5" d="M274.7,107.41,292.64,228a34.64,34.64,0,0,1-29.24,39.35l-143,21.27a34.71,34.71,0,0,1-36.27-19A33.09,33.09,0,0,1,81,259.5L63.08,138.9A34.72,34.72,0,0,1,92.3,99.46l143-21.27a34.89,34.89,0,0,1,39.44,29.22Z"/>
    <path class="cls-2" d="M297.63,227.29l-18-120.61a27.27,27.27,0,0,0-1.42-6.12c-.22-.71-.45-1.38-.71-2.05a39.45,39.45,0,0,0-23-23.18c-.45-.19-.9-.34-1.34-.49a39.23,39.23,0,0,0-12.73-2.09,37.42,37.42,0,0,0-5.79.49l-143,21.24a38.49,38.49,0,0,0-18,7.76h0l0,0a39.47,39.47,0,0,0-13.18,17.51v0a38.82,38.82,0,0,0-2.13,19.78L76,260.21a39.28,39.28,0,0,0,3.7,11.68A35.29,35.29,0,0,0,83.48,278a2.8,2.8,0,0,0,.41.52s0,0,0,0a39.71,39.71,0,0,0,17.54,12.92s0,0,0,0A38.26,38.26,0,0,0,115.28,294a51,51,0,0,0,5.9-.41l88.28-13.18,33-4.89,21.72-3.25a40.06,40.06,0,0,0,18.29-7.76,37.54,37.54,0,0,0,7.73-7.84,38.82,38.82,0,0,0,3.43-5.52,33.64,33.64,0,0,0,1.75-4,.28.28,0,0,0,.07-.15s0,0,0,0A39.32,39.32,0,0,0,297.63,227.29Zm-4.74,3a.73.73,0,0,1,0,.26v0a34.43,34.43,0,0,1-10.34,27.25,29.36,29.36,0,0,1-4.59,3.77c0,.07-.07.07-.11.07a35.71,35.71,0,0,1-5.34,3h0a34.8,34.8,0,0,1-8.66,2.61h-.11a1.09,1.09,0,0,1-.34.07l-20.75,3.06-9,1.34-8.85,1.34L120.47,288.62h0a30.25,30.25,0,0,1-5.15.41,31.28,31.28,0,0,1-4.93-.37A34,34,0,0,1,94,281.71a27.76,27.76,0,0,1-2.73-2.39,18.22,18.22,0,0,1-1.68-1.72,32.08,32.08,0,0,1-5.41-8c-.37-.75-.71-1.53-1-2.35a28.39,28.39,0,0,1-1.64-5.49,13.24,13.24,0,0,1-.34-1.75c0-.19,0-.34-.07-.52L63.13,138.9a32.73,32.73,0,0,1-.37-6.31c0-.49,0-1,0-1.46s.07-.78.11-1.19h0a19.27,19.27,0,0,1,.26-2.05c.07-.37.11-.75.22-1.12.15-.75.3-1.46.52-2.2a17.35,17.35,0,0,1,.6-2c.11-.3.22-.63.34-.9v-.07c.37-.93.75-1.87,1.19-2.76s1-1.9,1.49-2.8a16.6,16.6,0,0,1,1.23-1.9c.15-.22.3-.45.45-.63.56-.78,1.16-1.53,1.79-2.28v0c.6-.67,1.19-1.31,1.83-1.94s1.42-1.34,2.17-2,1.42-1.16,2.2-1.72c.49-.34,1-.67,1.53-1h.07A31.7,31.7,0,0,1,83,102.24a44,44,0,0,1,4.55-1.68c.78-.22,1.57-.45,2.35-.63s1.64-.34,2.46-.45l80.7-12,37.59-5.64,24.6-3.66c.19,0,.41,0,.6-.07a36.79,36.79,0,0,1,4.52-.34,33.87,33.87,0,0,1,10.9,1.79c.6.22,1.19.41,1.83.71l1.12.45c.71.3,1.42.63,2.05,1l0,0a23.16,23.16,0,0,1,3.43,2.05c.41.26.78.52,1.16.78q1.06.78,2.13,1.68c.67.56,1.34,1.19,2,1.83v0a28.62,28.62,0,0,1,3.51,4.14,2.65,2.65,0,0,1,.37.52,27.61,27.61,0,0,1,2.54,4.29,20,20,0,0,1,1.08,2.43,22,22,0,0,1,1,2.61,33,33,0,0,1,1,4.4.28.28,0,0,1,0,.19.13.13,0,0,1,0,.07c0,.19.07.41.11.63L292.62,228c0,.19,0,.34.07.52C292.77,229.12,292.85,229.72,292.89,230.31Z" style="stroke: rgb(172, 172, 172);"/>
    <path class="cls-1" d="M86.72,106.87s28.77,6.88,75.06,0S237.15,84,237.15,84Z"/>
    <path class="cls-6" d="M262.48,102.7s-11.26,22.92-4.38,65.05c6.35,38.87,21.89,64.43,21.89,64.43Z"/>
  </g>
</svg>