<svg xmlns="http://www.w3.org/2000/svg" xmlns:xlink="http://www.w3.org/1999/xlink" width="3000" height="3000" viewBox="0 0 3000 3000">
  <defs>
    <style>
      .cls-1 {
        fill: #31323d;
      }

      .cls-1, .cls-10, .cls-2, .cls-3, .cls-4, .cls-5, .cls-6, .cls-7, .cls-8, .cls-9 {
        fill-rule: evenodd;
      }

      .cls-2 {
        fill: #ab7fef;
      }

      .cls-3 {
        fill: #fcda86;
      }

      .cls-4 {
        fill: #f4edff;
      }

      .cls-5 {
        fill: #fff9eb;
      }

      .cls-6 {
        fill: #b8203b;
      }

      .cls-7 {
        fill: #ff7890;
      }

      .cls-8 {
        fill: #dc4560;
      }

      .cls-9 {
        fill: url(#radial-gradient);
      }

      .cls-10 {
        fill: #ffebe9;
      }
    </style>
    <radialGradient id="radial-gradient" cx="777.014" cy="604.797" r="488.453" gradientUnits="userSpaceOnUse">
      <stop offset="0" stop-color="#f73f60"/>
      <stop offset="0.875" stop-color="#f73f60"/>
      <stop offset="3.054" stop-color="#ef6a82"/>
      <stop offset="4.62" stop-color="#ef6a82"/>
    </radialGradient>
  </defs>
  <path id="Color_Fill_11_copy" data-name="Color Fill 11 copy" class="cls-1" d="M677.686,554.124S824.647,1087.1,801.441,1402.51s-55.665,784.51-30.71,778.55l-8.689,5.98c-21.338-80.96,27.613-702.12,31.105-786.51S822.5,1176.9,666.164,549.464Z"/>
  <path id="Color_Fill_11_copy_2" data-name="Color Fill 11 copy 2" class="cls-1" d="M769.263,2179.4s-68.3-508.68,3.843-824.66S962.952,531.922,922.46,544.447l17.927-.93c8.775,81.108-138.667,706.433-155.252,790.973s-69.1,213.93-10.125,842.5Z"/>
  <path id="Color_Fill_1_copy_2" data-name="Color Fill 1 copy 2" class="cls-1" d="M963.042,707.309s-223.4-281.972-223.4-387.785S791.806,70.695,973.772,70.695s214.4,135.1,214.438,232.231C1188.26,427.151,963.042,707.309,963.042,707.309Z"/>
  <path id="Color_Fill_1_copy" data-name="Color Fill 1 copy" class="cls-2" d="M963.16,691.142S748.737,420.4,748.737,318.794,794.649,77.732,969.3,77.732c164.367,0,216.957,111.963,211.867,229.28C1176.03,425.467,963.16,691.142,963.16,691.142Z"/>
  <path id="Color_Fill_1_copy_3" data-name="Color Fill 1 copy 3" class="cls-1" d="M737.005,681.037S498.147,379.309,498.147,266.083,555.019,2.021,749.577,2.021s232.572,151.013,232.572,245.2S737.005,681.037,737.005,681.037Z"/>
  <path id="Color_Fill_1" data-name="Color Fill 1" class="cls-3" d="M736.611,665.881s-230.38-290.952-230.38-400.135S561.085,11.115,748.737,11.115s224.318,145.62,224.318,236.443S736.611,665.881,736.611,665.881Z"/>
  <path class="cls-4" d="M1086.73,144.493c16.46,0,29.81,19.905,29.81,44.46s-13.35,44.459-29.81,44.459-29.81-19.9-29.81-44.459S1070.27,144.493,1086.73,144.493Z"/>
  <path id="Ellipse_2_copy" data-name="Ellipse 2 copy" class="cls-5" d="M838.161,49.512c16.463,0,29.808,19.905,29.808,44.459s-13.345,44.459-29.808,44.459-29.808-19.9-29.808-44.459S821.7,49.512,838.161,49.512Z"/>
  <path id="Color_Fill_3" data-name="Color Fill 3" class="cls-1" d="M1174.13,637.313s26.42,128.169-104.3,235.845c0,0-48.82,96.458-191.661,112.46,0,0-39.625,23.422-92.829,26.5,1.214,1.64,2.452,3.59,2.715,9.14,0.534,11.29-15.359,27.97-33.062,27.58s-34.385-19.92-34.385-19.92,2.392-7.46,3.747-23.3a172.078,172.078,0,0,1-23.8-8.73s-54.133,8.87-114.6-46.743c0,0-54.545-14.291-78.55-54.734,0,0-27.078-15.231-64.124-71.544,0,0-32.727-34.707-33.283-79.138,0,0-78.49-146.866-7.219-250.569,0,0-7.95-109.906,125.074-191.566,0,0,34.9-61.344,139.823-78.127,0,0,139.6-65.743,220.362,2.634,0,0,153.739,6.884,223.169,162.643C1111.21,389.746,1207.62,473.737,1174.13,637.313Z"/>
  <path id="Color_Fill_3_copy" data-name="Color Fill 3 copy" class="cls-6" d="M449.931,819.543s-32.074-34.021-32.619-77.574c0,0-76.923-143.963-7.075-245.616,0,0-7.792-107.734,122.577-187.779,0,0,34.207-60.133,137.032-76.584,0,0,136.81-64.443,215.964,2.582,0,0,150.67,6.749,218.72,159.428,0,0,94.48,82.332,61.66,242.675,0,0,25.89,125.635-102.22,231.184,0,0-47.85,94.551-187.836,110.237,0,0-86.123,50.924-174.067,11.049,0,0-53.052,8.7-112.31-45.819,0,0-53.456-14.009-76.982-53.652C512.775,889.674,486.237,874.744,449.931,819.543Z"/>
  <path id="Color_Fill_9" data-name="Color Fill 9" class="cls-7" d="M876.052,248.569l-9.094,56.584s-34.355,81.341-41.428,46.48S843.718,205.119,876.052,248.569Z"/>
  <path id="Color_Fill_9_copy" data-name="Color Fill 9 copy" class="cls-7" d="M1109.48,474.792l-57.55,25.85s-95.6,17.581-67.807-10S1129.9,418.777,1109.48,474.792Z"/>
  <path id="Color_Fill_10" data-name="Color Fill 10" class="cls-8" d="M519.367,701.246s-51.016,29.66-47.491,33.345S517.743,773.6,520.377,774s73.762-29.3,73.762-29.3S593.245,664.581,519.367,701.246Z"/>
  <path id="Color_Fill_6" data-name="Color Fill 6" class="cls-9" d="M1161.46,635.577c-76.61-19.338-222.134-11.136-128.79-10.114,80.26,0.879,116.54,9.962,129.03,14.115,2.84,18.812,13.98,130.228-101.16,225.254-17.4-7.587-29.24-16.84-49.22-35.174-12.308-12.554-52.411-54.65-52.411-54.65s-14.012-5,43.311,47.577c27.66,28.221,45.06,40.951,55.8,46.466-10.91,18.049-62.186,91.25-183.15,104.8,0,0-.777.459-2.25,1.251-12.11-31.431-23.705-73.519-32.236-108.068-0.869-4.27-1.775-8.663-2.728-13.214-17.795-84.924-12.268-47.523,2.728,13.214,13.512,66.391,16.979,99.232,16.8,115.366-29.156,12.278-90.319,30.557-152.666,3.014l16.938-75.009-24.338,74.816c-14.731.461-55.178-2.418-100.058-41.312,17.013-35.1,49.623-94.131,49.623-94.131l-51.888,92.146q-1.321-1.179-2.649-2.4s-52.774-13.83-76-52.966c0,0-.494-0.281-1.41-0.881,12.2-15.225,25.851-29.838,25.851-29.838l-29.009,27.627c-9-6.643-30.5-25.134-57.475-66.142,0,0-31.665-33.587-32.2-76.583,0,0-1.348-2.528-3.51-7.111C461.876,717.05,538.247,693.58,520.377,697.2c-18.75,3.8-76.61,23.971-103.369,33.457-15.376-33.588-58.626-144.355-4.815-228.272,60.812,6.3,123.341,39.207,123.341,39.207-52.8-30.826-98.772-42.362-120.7-46.436-0.033-7.425.871-27.586,10.03-53.715l15.839-34.5c16.917-29.5,44.828-62.109,90.784-91.266,12.817,22.434,30.587,42.089,43.76,55.052A121.581,121.581,0,0,0,593.129,387s-7.519-6.062-17.887-16.266c-18.493-20.226-31.8-45.652-38.282-59.5,6.243-9.56,41.866-58.044,130.766-73.365,3.534,30.652,13.311,29.895,13.311,29.895-7.138-12.57-9.686-22.2-10.055-30.442,0.077-.013.153-0.027,0.23-0.039,0,0,134.052-63.128,212.325,1.831l-13.821,55.861c-1.438,5.171-2.726,10.3-3.768,15.227l3.768-15.227c5.691-20.472,13.816-41.7,19.13-54.785,25.066,2.5,150.794,21.634,211.224,156.436-31.1,38.62-83.57,64.132-83.57,64.132,39.39-10.057,73.01-45.881,86.1-61.421C1116.6,413,1190.17,492.8,1161.46,635.577ZM482.42,735.2l55.28-29.836S500.865,715.366,482.42,735.2Zm-4.218,13.95s87.217-40,86.292-46.225S495.349,736.183,478.2,749.152Zm23.675,0.131s66.248-29.494,72.667-38.926S519.145,735.055,501.877,749.283ZM833.614,343.55c3.2,10.952,16.167-58.461,16.167-80.835C849.781,262.715,830.417,332.6,833.614,343.55Zm12.125-3.031c5.392,3.243,18.3-74.513,19.2-95.992C864.938,244.527,840.348,337.275,845.739,340.519Zm27.282-83.867L860.9,318.289S876.6,283.5,873.021,256.652ZM1091.53,468.107l-57.95,24.233S1071.22,486.026,1091.53,468.107Zm-94.124,15.628c-7.319,8.752,57.564-19.107,76.154-31.561C1073.56,452.174,1004.73,474.983,997.406,483.735Zm9.264,8.386c0.31,6.285,72.09-26.266,90.44-37.478C1097.11,454.643,1006.37,485.837,1006.67,492.121Z"/>
  <path id="Color_Fill_4" data-name="Color Fill 4" class="cls-8" d="M723.476,984.17s11.094,12.558,10.1,24.25-3.031,17.18-3.031,17.18,12.745,12.88,26.271,13.13,25.67-10.74,25.261-18.18-3.9-5.08-4.041-11.12,14.146-21.219,14.146-21.219S762.311,944.256,723.476,984.17Z"/>
  <path id="Color_Fill_11" data-name="Color Fill 11" class="cls-1" d="M752.758,1033.37s-109.517,334.06-62.6,576.42,128.595,652.22,89.378,644.84l15.814-.34c19.124-62.46-82.144-550.51-92.781-615.39-18-109.79-49.907-230.63,57.258-609.58Z"/>
  <path id="Color_Fill_7" data-name="Color Fill 7" class="cls-8" d="M704.516,985.421l4.65-20.589c71.021,30.9,132.6,19.063,148.022,15.277,0.007,0.8,0,1.562,0,2.293C828.032,994.68,766.866,1012.97,704.516,985.421Zm-7.4-.2c-14.731.461-55.178-2.418-100.058-41.312,6.05-12.481,14.067-27.981,21.895-42.786,12.248,35.44,58.242,64.774,85.484,61.593Zm-232.462-471.9c-14.551,81.044-6.992,144.687,42.314,187.332-25.04,7.218-67.985,22.21-89.961,30-15.376-33.588-58.626-144.355-4.815-228.272A290.79,290.79,0,0,1,464.655,513.329Zm75.931,342.515-29.009,27.627c-9-6.643-30.5-25.134-57.475-66.142,0,0-31.665-33.587-32.2-76.583,0,0-1.348-2.528-3.51-7.111,27.275-10.4,67.466-23.507,89.25-30.943-11.9,81.033,35.06,154.17,110.568,197.657l-23.413,41.578q-1.321-1.179-2.649-2.4s-52.774-13.83-76-52.966c0,0-.494-0.281-1.41-0.881C526.933,870.457,540.586,855.844,540.586,855.844ZM414.83,495.161c-0.032-7.425.879-27.636,10.084-53.836l15.7-34.2c3.211-5.611,6.8-11.329,10.851-17.12-12.64,69.13-9.372,81.15,12.492,118.471A338.642,338.642,0,0,0,414.83,495.161Z"/>
  <path id="Color_Fill_8" data-name="Color Fill 8" class="cls-10" d="M924.032,312.535s-41.4,54.425,6.363,74.094c0,0,33.818,43.029,65.089,15.23C995.484,401.859,1013.17,361.3,924.032,312.535Z"/>
  <path id="K4C_Shadow" data-name="K4C Shadow" class="cls-8" d="M703.88,756.735q-1.881,1.094-3.135,4.545-0.317.941-1.254,3.292a18.6,18.6,0,0,1-2.665,4.546,14.949,14.949,0,0,1-4.076,3.6,7.223,7.223,0,0,1-5.8.47q-6.9-1.881-8-12.069t-0.47-30.88a330.617,330.617,0,0,0-.627-35.269,115.636,115.636,0,0,0-6.74-32.133,78.479,78.479,0,0,0-15.675-25.864q-10.191-11.124-27.431-16.772a182.742,182.742,0,0,0,15.2-17.87q8.617-11.286,16.458-23.669t13.637-23.826q5.8-11.44,6.741-17.713,0.941-5.327-1.254-8.151a11.652,11.652,0,0,0-5.173-3.918,13.147,13.147,0,0,0-5.957-.784q-2.982.317-3.918,1.881-10.038,18.185-19.28,35.582a243.455,243.455,0,0,1-21.162,33.074V581.175q0-8.3.157-16.615t0.157-15.2v-9.719q0-8.148-3.292-10.815t-10.5-4.233a92,92,0,0,0-11.129-1.567q-8.936-.94-19.124-1.881t-19.123-1.568a79.8,79.8,0,0,0-11.443-.313,14.8,14.8,0,0,0-7.054,2.508,25.064,25.064,0,0,0-5.486,4.859,21.062,21.062,0,0,0-3.292,5.33,11.906,11.906,0,0,0-1.1,4.232q0.94,23.2,1.724,43.263t0.157,43.263q-0.631,22.572-.627,46.4t0.313,47.024a61.872,61.872,0,0,0-.156,7.838q0.154,4.394.627,8.151t1.1,6.583q0.624,2.822,1.568,3.449,1.88,1.257,7.837,1.724t13.951,0.627q7.994,0.162,17.085,0t17.243-.627q8.148-.47,14.107-0.784a70.529,70.529,0,0,0,7.524-.626,6.581,6.581,0,0,0,5.957-5.017,34.187,34.187,0,0,0,1.254-9.4q0-21.316-.47-39.345t-0.784-39.344a16.938,16.938,0,0,0-.157-2.351q-0.162-1.1,1.411-1.411c0.416-.206,1.616,0,3.6.627a33.151,33.151,0,0,1,7.054,3.449,44.887,44.887,0,0,1,8.464,7.053,39.344,39.344,0,0,1,7.524,11.757q6.893,15.048,7.994,34.955a364.788,364.788,0,0,1-.47,43.733q-1.255,18.81,5.486,31.663t21.789,15.989q8.465,1.881,14.577-1.724a34.222,34.222,0,0,0,10.189-9.092,41.547,41.547,0,0,0,5.957-10.816,54.1,54.1,0,0,0,2.194-7.21q0.94-9.1-8.778-10.032A4.884,4.884,0,0,0,703.88,756.735Zm1.251-201.578q-7.524,8.626-14.578,17.4t-12.7,16.458q-5.643,7.686-7.21,11.757a33.706,33.706,0,0,0-.627,4.232,59.429,59.429,0,0,0-.314,6.27,63.938,63.938,0,0,0,.314,6.427,11.552,11.552,0,0,0,1.254,4.7q1.881,3.453,8.934,5.173a98.292,98.292,0,0,0,16.929,2.351q9.876,0.631,21.318.313t21.945-.783q10.5-.471,18.81-0.941a97.977,97.977,0,0,1,12.07-.157q4.386,0.317,4.7,6.114t-0.313,20.534v41.382q1.25,5.019,6.583,7.994a21.686,21.686,0,0,0,10.659,2.978,24.318,24.318,0,0,0,6.9-1.254,64.8,64.8,0,0,0,7.838-2.978,33.341,33.341,0,0,0,6.427-3.762q2.66-2.035,2.664-3.605,0.625-1.249,1.1-9.248t0.783-19.751q0.309-11.755.314-25.393t0.157-26.334q0.153-12.7.156-22.886V577.573q0-4.387.471-17.556t0.47-28.215q0-15.048-.47-29T817.363,482.9a41.47,41.47,0,0,0-6.27-1.881,80.014,80.014,0,0,0-11.6-1.881,94.963,94.963,0,0,0-13.324-.314,24.586,24.586,0,0,0-11.129,2.822,128.072,128.072,0,0,0-11.286,9.561q-4.7,4.55-10.659,10.66t-14.108,15.2q-8.156,9.1-21.317,23.826Q712.652,546.536,705.131,555.157Zm21.474,21.789q7.363-9.09,15.362-18.027t16.772-18.339q8.773-9.405,19.437-20.064,0,3.762.157,9.091t0.157,10.346q0,5.018-.157,9.091c-0.108,2.719-.157,4.5-0.157,5.33q-0.317,3.453-.314,8.778t0.157,11.286q0.154,5.958.157,11.913a74.486,74.486,0,0,1-.627,10.345q-8.156.631-17.869,1.1t-18.81.471q-9.1,0-16.929-.471a96.1,96.1,0,0,1-12.54-1.41Q719.233,586.037,726.605,576.946Zm280.9,97.8a18.525,18.525,0,0,0-5.33.471,19.257,19.257,0,0,0-4.7,1.724,5.462,5.462,0,0,0-2.665,2.665,47.07,47.07,0,0,1-2.665,6.113,50.764,50.764,0,0,1-6.27,9.718,38.985,38.985,0,0,1-9.248,8.308,16.83,16.83,0,0,1-11.913,2.508q-5.334-.941-8.935-11.129a128.206,128.206,0,0,1-5.642-24.3q-2.043-14.107-2.822-29.312t-0.47-25.864q0.624-12.852.47-29.156a256.4,256.4,0,0,1,1.411-30.566q1.565-14.262,5.8-23.669t13.324-8.465q7.524,1.573,10.189,6.271a97.8,97.8,0,0,1,6.113,14.421q0.625,1.572,1.568,4.7a60.176,60.176,0,0,0,2.351,6.427q1.41,3.291,2.821,6.113a8.879,8.879,0,0,0,2.979,3.762q4.069,2.513,7.21,2.351a7.552,7.552,0,0,0,5.17-2.194,10.878,10.878,0,0,0,2.82-5.33,14.874,14.874,0,0,0,.16-6.427q-2.19-8.465-5.96-18.653a42.647,42.647,0,0,0-10.341-16.458,69.836,69.836,0,0,0-25.237-16.459,83.754,83.754,0,0,0-30.879-4.859q-22.889,0-40.128,11.756a98.87,98.87,0,0,0-28.529,29.939,142.943,142.943,0,0,0-16.929,40.285,173.97,173.97,0,0,0-5.643,43.106,181.616,181.616,0,0,0,7.211,47.965q6.584,21.948,25.08,41.382a56.942,56.942,0,0,0,28.215,16.145,105.465,105.465,0,0,0,34.328,2.822,116.2,116.2,0,0,0,32.761-7.368q15.356-5.95,23.512-14.42a43.135,43.135,0,0,0,8.149-8.622,62.608,62.608,0,0,0,6.12-10.188,26.657,26.657,0,0,0,2.66-8.935q0.315-3.917-2.19-4.859A5.165,5.165,0,0,0,1007.5,674.751Z"/>
  <path id="K4C" class="cls-10" d="M713.984,746.63q-1.881,1.1-3.135,4.546-0.317.94-1.254,3.292a18.564,18.564,0,0,1-2.665,4.545,14.98,14.98,0,0,1-4.075,3.606,7.23,7.23,0,0,1-5.8.47q-6.9-1.881-7.994-12.07t-0.47-30.879a331.139,331.139,0,0,0-.627-35.269,115.636,115.636,0,0,0-6.741-32.134,78.468,78.468,0,0,0-15.675-25.863q-10.191-11.126-27.431-16.773a182.714,182.714,0,0,0,15.205-17.869q8.619-11.286,16.459-23.669t13.637-23.826q5.8-11.44,6.74-17.713,0.94-5.327-1.254-8.151a11.662,11.662,0,0,0-5.173-3.919,13.14,13.14,0,0,0-5.956-.783c-1.989.21-3.292,0.837-3.919,1.88q-10.037,18.186-19.28,35.583a243.51,243.51,0,0,1-21.161,33.074V571.071q0-8.3.156-16.616t0.157-15.205v-9.718q0-8.148-3.292-10.816t-10.5-4.232a91.93,91.93,0,0,0-11.129-1.567q-8.935-.941-19.123-1.881t-19.124-1.568a79.8,79.8,0,0,0-11.443-.313,14.806,14.806,0,0,0-7.053,2.507,25.05,25.05,0,0,0-5.487,4.86,21.1,21.1,0,0,0-3.291,5.329,11.912,11.912,0,0,0-1.1,4.232q0.94,23.205,1.725,43.263t0.157,43.263q-0.633,22.572-.628,46.4t0.314,47.025a61.663,61.663,0,0,0-.157,7.838q0.155,4.394.627,8.15t1.1,6.584q0.625,2.822,1.568,3.448,1.881,1.257,7.837,1.725t13.951,0.627q7.995,0.16,17.086,0t17.242-.627q8.149-.471,14.108-0.784a70.421,70.421,0,0,0,7.524-.627,6.577,6.577,0,0,0,5.956-5.016,34.19,34.19,0,0,0,1.254-9.4q0-21.315-.47-39.344t-0.784-39.344a16.927,16.927,0,0,0-.157-2.351q-0.161-1.095,1.411-1.411c0.417-.206,1.617,0,3.606.627a33.207,33.207,0,0,1,7.053,3.448,44.937,44.937,0,0,1,8.465,7.054A39.39,39.39,0,0,1,658.5,658.38q6.891,15.048,7.994,34.955a365.013,365.013,0,0,1-.47,43.734q-1.257,18.808,5.486,31.663t21.788,15.988q8.465,1.881,14.578-1.724a34.217,34.217,0,0,0,10.189-9.091,41.6,41.6,0,0,0,5.956-10.816,54.143,54.143,0,0,0,2.194-7.21q0.942-9.1-8.778-10.032A4.888,4.888,0,0,0,713.984,746.63Zm1.251-201.577q-7.524,8.626-14.578,17.4t-12.7,16.459q-5.643,7.686-7.211,11.756a34.155,34.155,0,0,0-.627,4.232,59.464,59.464,0,0,0-.313,6.27,63.927,63.927,0,0,0,.313,6.427,11.574,11.574,0,0,0,1.254,4.7q1.881,3.453,8.935,5.172a98.254,98.254,0,0,0,16.929,2.352q9.874,0.632,21.318.313t21.945-.784q10.5-.47,18.81-0.94a97.554,97.554,0,0,1,12.069-.157q4.387,0.317,4.7,6.113T785.772,644.9v41.382q1.25,5.019,6.584,8a21.694,21.694,0,0,0,10.659,2.978,24.324,24.324,0,0,0,6.9-1.254,65.013,65.013,0,0,0,7.837-2.978,33.414,33.414,0,0,0,6.427-3.762c1.773-1.357,2.665-2.557,2.665-3.606q0.624-1.248,1.1-9.248t0.784-19.75q0.309-11.757.313-25.394t0.157-26.334q0.154-12.7.157-22.885V567.468q0-4.386.47-17.556t0.47-28.215q0-15.048-.47-29t-2.351-19.908a41.635,41.635,0,0,0-6.27-1.881,80.328,80.328,0,0,0-11.6-1.881,94.949,94.949,0,0,0-13.323-.313,24.594,24.594,0,0,0-11.13,2.821,128.241,128.241,0,0,0-11.286,9.562q-4.7,4.548-10.659,10.659t-14.107,15.205q-8.155,9.1-21.318,23.826Q722.756,536.432,715.235,545.053Zm21.475,21.788q7.362-9.088,15.361-18.026t16.772-18.34q8.774-9.4,19.437-20.064,0,3.762.157,9.092t0.157,10.345q0,5.019-.157,9.092c-0.108,2.718-.157,4.5-0.157,5.329q-0.315,3.453-.313,8.778t0.157,11.286q0.153,5.96.156,11.913a74.347,74.347,0,0,1-.627,10.346q-8.156.632-17.869,1.1t-18.81.47q-9.1,0-16.929-.47a96.072,96.072,0,0,1-12.54-1.411Q729.338,575.932,736.71,566.841Zm280.89,97.806a18.555,18.555,0,0,0-5.33.47,19.263,19.263,0,0,0-4.7,1.725,5.5,5.5,0,0,0-2.67,2.664,46.312,46.312,0,0,1-2.66,6.113,50.915,50.915,0,0,1-6.27,9.719,39.045,39.045,0,0,1-9.248,8.308,16.831,16.831,0,0,1-11.913,2.508q-5.336-.94-8.935-11.13a128.279,128.279,0,0,1-5.643-24.3q-2.043-14.107-2.822-29.312t-0.47-25.864q0.624-12.851.47-29.155a256.6,256.6,0,0,1,1.411-30.566q1.566-14.262,5.8-23.669t13.324-8.465q7.524,1.572,10.188,6.27a97.781,97.781,0,0,1,6.114,14.421q0.624,1.572,1.567,4.7a60.38,60.38,0,0,0,2.351,6.426q1.412,3.292,2.826,6.113a8.929,8.929,0,0,0,2.97,3.763q4.08,2.512,7.21,2.351a7.573,7.573,0,0,0,5.18-2.2,11.044,11.044,0,0,0,2.82-5.329,15.031,15.031,0,0,0,.16-6.427q-2.205-8.465-5.96-18.653a42.772,42.772,0,0,0-10.35-16.459,69.809,69.809,0,0,0-25.233-16.459,83.78,83.78,0,0,0-30.88-4.859q-22.887,0-40.128,11.756a98.894,98.894,0,0,0-28.528,29.94,142.878,142.878,0,0,0-16.929,40.284,173.935,173.935,0,0,0-5.643,43.106,181.583,181.583,0,0,0,7.21,47.966q6.584,21.947,25.08,41.382a56.95,56.95,0,0,0,28.215,16.145,105.465,105.465,0,0,0,34.328,2.821,116.155,116.155,0,0,0,32.761-7.367q15.357-5.952,23.517-14.421a43.246,43.246,0,0,0,8.15-8.621,63.2,63.2,0,0,0,6.11-10.189,26.42,26.42,0,0,0,2.66-8.935q0.315-3.915-2.19-4.859A5.168,5.168,0,0,0,1017.6,664.647Z"/>
</svg>
