<?xml version="1.0" encoding="utf-8"?>
<svg viewBox="0 0 1500 1500" xmlns="http://www.w3.org/2000/svg">
  <defs>
    <style>.cls-1{fill:#671400;}.cls-2{fill:#dc3522;}.cls-3{fill:#f76e4e;}</style>
  </defs>
  <title>kitten mittens</title>
  <g id="Draw_Layer" data-name="Draw Layer">
    <path class="cls-1" d="M 824.033 363.093 C 823.555 367.847 823.077 372.597 822.6 377.348 L 822.6 377.348 L 822.6 377.348 C 821.065 393.273 819.668 409.199 818.269 425.09 L 818.269 425.465 C 816.632 444.015 814.859 463.181 813.085 482.038 C 810.904 503.864 808.79 522.585 806.572 539.807 C 806.027 544.195 805.457 548.584 804.867 552.969 L 804.867 552.731 C 799.04 599.21 790.119 645.244 778.166 690.533 C 771.55 715.318 763.278 739.63 753.408 763.306 L 753.408 763.306 L 753.408 763.306 L 753.408 763.306 L 753.408 763.306 L 753.408 763.647 L 753.17 764.022 L 753.17 764.022 L 753.17 763.783 C 741.756 791.631 726.861 817.916 708.838 842.011 C 696.573 857.933 682.406 872.296 666.652 884.774 C 655.559 893.282 643.616 900.632 631.019 906.701 C 628.039 908.157 625.017 909.532 621.948 910.827 L 622.563 910.624 C 610.047 915.83 597.082 919.861 583.823 922.661 C 575.809 924.331 566.772 925.833 556.542 927.265 L 555.86 927.265 L 556.027 927.265 L 555.655 927.265 C 538.605 929.515 520.835 931.118 500.787 932.209 C 485.612 932.993 470.33 933.438 455.295 933.438 C 448.84 933.438 442.392 933.368 435.957 933.232 C 413.841 932.933 391.754 931.428 369.803 928.732 L 369.254 928.732 C 344.522 925.833 320.254 919.77 297.063 910.692 C 287.303 906.667 278.068 901.454 269.577 895.175 C 264.765 891.38 260.397 887.059 256.55 882.285 C 253.512 878.213 250.95 873.811 248.911 869.156 C 247.558 866.047 246.541 862.8 245.876 859.471 C 245.611 858.38 244.969 857.418 244.072 856.744 L 244.072 856.744 L 243.49 856.334 C 240.912 854.838 237.6 855.703 236.089 858.278 C 235.387 859.546 235.192 861.034 235.547 862.438 C 236.117 866.076 236.914 869.678 237.931 873.214 C 239.151 877 240.717 880.662 242.603 884.16 C 246.354 890.974 251.152 897.154 256.827 902.473 C 270.061 914.34 285.574 923.387 302.416 929.072 C 321.346 935.807 340.94 940.506 360.869 943.087 C 383.134 946.229 405.565 947.995 428.045 948.374 C 469.444 949.051 510.836 946.485 551.836 940.7 C 566.956 938.835 581.951 936.076 596.744 932.448 C 617.072 927.183 636.492 918.883 654.344 907.827 C 671.556 897.047 687.208 883.956 700.859 868.917 C 714.836 853.456 727.123 836.548 737.517 818.481 C 748.426 799.508 757.824 779.702 765.617 759.248 C 773.763 738.057 780.717 716.427 786.452 694.456 C 798.091 648.947 806.719 602.72 812.267 556.072 C 817.859 512.389 821.678 468.5 825.43 424.612 C 827.169 404.151 828.841 383.69 830.988 363.231 C 830.988 361.347 829.461 359.82 827.579 359.82 C 825.734 359.909 824.253 361.385 824.169 363.231 Z" transform="matrix(-0.740101, 0.672496, -0.672496, -0.740101, 1367.701572, 779.725244)"/>
    <path class="cls-1" d="M 760.625 288.386 C 759.551 288.688 758.565 289.251 757.76 290.022 L 757.76 290.022 C 757.365 290.422 757.019 290.869 756.737 291.352 C 755.881 292.901 755.635 294.715 756.055 296.433 C 757.93 306.97 759.908 317.507 761.715 328.079 C 763.67 339.333 765.399 350.62 766.899 361.942 L 766.626 359.93 C 769.286 379.743 771.366 399.658 772.185 419.641 C 773.122 437.848 772.53 456.099 770.412 474.204 C 769.066 484.305 766.515 494.211 762.807 503.702 C 760.106 510.103 756.673 516.169 752.577 521.775 C 748.042 527.486 742.844 532.636 737.094 537.121 C 728.654 543.31 719.66 548.699 710.224 553.216 C 699.993 558.332 689.456 563.004 679.225 568.119 C 668.19 573.506 657.595 579.753 647.546 586.807 C 642.045 590.742 636.782 595.001 631.791 599.56 C 626.153 604.816 621.154 610.708 616.888 617.122 C 605.177 635.397 598.906 656.628 598.814 678.334 C 598.616 689.288 599.599 700.227 601.747 710.969 C 603.872 721.837 607.117 732.453 611.431 742.649 C 611.767 743.71 612.468 744.616 613.41 745.207 C 614.432 745.828 615.671 745.988 616.82 745.65 C 617.891 745.353 618.804 744.657 619.377 743.707 C 620.012 742.69 620.176 741.446 619.821 740.296 C 617.768 735.412 615.97 730.428 614.432 725.36 L 614.432 725.36 C 612.175 717.861 610.487 710.199 609.385 702.444 C 608.124 692.639 607.895 682.73 608.704 672.878 C 608.874 670.832 609.079 668.82 609.318 666.808 L 609.318 667.149 C 610.648 657.628 613.144 648.304 616.751 639.39 C 619.848 632.13 623.797 625.262 628.517 618.93 C 634.045 612.116 640.35 605.968 647.307 600.617 C 657.233 593.153 667.843 586.635 678.986 581.145 C 686.079 577.565 693.616 574.155 700.3 571.119 L 701.356 570.643 L 710.632 566.414 C 720.61 561.971 730.243 556.784 739.447 550.897 C 744.133 547.818 748.59 544.399 752.782 540.667 C 757.027 536.79 760.894 532.521 764.341 527.913 C 771.878 517.693 777.379 506.114 780.54 493.811 C 782.553 486.136 783.978 478.312 784.802 470.417 C 785.655 463.155 786.269 455.072 786.609 445.728 C 786.952 427.999 786.314 410.26 784.7 392.599 C 783.439 374.866 781.29 356.417 778.118 337.662 C 775.97 324.67 773.685 313.212 771.129 302.605 L 771.129 302.605 C 770.344 299.366 769.491 296.16 768.605 292.954 C 768.168 291.43 767.199 290.111 765.877 289.238 L 765.877 289.238 C 764.86 288.577 763.677 288.212 762.466 288.181 C 761.889 288.178 761.317 288.246 760.761 288.386 Z" transform="matrix(-0.740101, 0.672496, -0.672496, -0.740101, 1553.126413, 433.768784)"/>
    <path class="cls-1" d="M 846.07 677.591 C 841.248 679.197 836.93 682.045 833.555 685.843 C 826.561 693.824 824.518 704.804 823.733 715.068 C 823.263 726.004 823.614 736.959 824.79 747.839 C 825.131 752.579 825.575 757.319 825.708 762.06 C 825.912 768.199 825.708 774.337 825.882 780.44 C 825.964 790.728 826.863 800.99 828.576 811.131 C 829.308 815.298 830.393 819.395 831.815 823.374 C 833.359 827.899 835.492 832.199 838.159 836.162 C 839.567 838.18 841.118 840.093 842.795 841.891 C 844.657 843.77 846.677 845.482 848.832 847.006 C 852.805 849.847 857.268 851.927 861.995 853.145 C 864.901 853.86 867.85 854.351 870.827 854.611 C 873.479 854.873 876.146 854.942 878.806 854.815 C 882.217 854.815 885.627 854.235 889.037 853.758 C 892.447 853.281 895.858 852.735 899.267 852.053 C 900.567 851.763 901.753 851.102 902.678 850.143 L 902.678 850.143 C 903.076 849.731 903.441 849.287 903.769 848.814 L 903.769 848.814 C 904.574 847.538 905.009 846.062 905.031 844.55 C 905.033 842.903 904.523 841.294 903.564 839.948 L 903.564 839.948 C 903.332 839.62 903.066 839.313 902.779 839.026 C 901.457 837.68 899.687 836.858 897.801 836.708 L 897.289 836.708 C 894.664 837.049 892.003 837.322 889.379 837.458 L 889.379 837.458 C 887.98 837.458 886.582 837.458 885.217 837.458 C 882.613 837.462 880.004 837.325 877.409 837.049 C 873.74 836.489 870.138 835.537 866.667 834.218 C 864.57 833.264 862.56 832.121 860.661 830.807 C 859.086 829.461 857.627 827.978 856.3 826.374 C 854.574 823.937 853.088 821.331 851.866 818.6 C 849.22 811.408 847.403 803.937 846.445 796.332 C 845.762 790.807 845.217 785.181 844.638 778.974 L 844.638 778.804 C 843.989 771.983 843.375 764.856 842.319 757.899 C 841.705 753.705 840.852 749.443 840 745.351 L 840 744.873 L 839.59 742.861 C 838.294 736.348 837.34 730.687 836.623 725.537 C 835.645 718.761 835.464 711.896 836.079 705.077 C 836.497 702.185 837.248 699.348 838.294 696.619 L 838.294 696.278 L 838.294 696.278 C 838.993 694.815 839.816 693.411 840.749 692.084 C 841.711 690.935 842.771 689.874 843.921 688.913 C 845.356 687.883 846.887 686.99 848.491 686.253 C 850.779 685.369 853.159 684.741 855.584 684.377 C 858.53 684.07 861.497 684.012 864.45 684.207 C 866.769 684.207 868.645 682.331 868.645 680.012 C 868.628 677.704 866.762 675.839 864.45 675.818 C 863.086 675.818 861.688 675.818 860.324 675.818 C 855.471 675.743 850.636 676.445 846.001 677.898 Z" transform="matrix(-0.7401, 0.672497, -0.672497, -0.7401, 2018.627499, 750.54982)"/>
    <path class="cls-1" d="M 877.647 855.396 L 875.362 856.454 C 869.34 858.916 863.122 860.866 856.776 862.285 L 856.776 862.285 C 854.014 862.899 851.014 863.479 847.876 863.955 C 839.061 865.02 830.188 865.521 821.311 865.456 C 812.001 865.456 802.555 865.047 793.416 864.604 L 791.165 864.604 C 781.48 864.16 773.092 863.955 765.522 863.955 L 762.111 863.955 C 751.71 863.955 740.73 864.399 728.59 865.115 C 707.89 866.344 685.929 868.697 661.478 872.345 C 639.691 875.584 620.557 879.165 602.619 883.735 C 589.596 887.145 576.365 890.555 562.789 894.34 L 558.732 895.466 L 542.533 899.831 C 522.185 905.542 501.502 909.996 480.606 913.164 L 480.063 913.164 C 471.504 914.255 463.93 914.937 456.905 915.21 L 456.905 915.21 C 447.947 915.637 438.968 915.306 430.067 914.221 L 430.067 914.221 C 428.915 913.931 427.694 914.088 426.658 914.665 C 425.709 915.227 425.013 916.132 424.714 917.188 C 424.103 919.439 425.429 921.758 427.68 922.372 C 437.409 923.691 447.224 924.295 457.045 924.179 L 457.045 924.179 C 464.783 924.179 472.762 923.633 480.915 922.746 C 499.982 920.434 518.924 917.144 537.657 912.891 C 549.831 910.334 562.141 907.298 574.012 904.365 L 574.384 904.365 C 580.727 902.797 587.103 901.229 593.449 899.729 C 603.237 897.41 611.793 895.533 619.602 893.965 C 630.549 891.817 641.325 890.112 649.51 888.849 C 653.602 888.236 657.694 887.656 661.823 887.145 L 664.07 886.839 L 664.07 886.839 L 663.562 886.839 L 664.036 886.839 L 663.562 886.839 C 697.691 882.203 732.096 879.824 766.544 879.71 C 771.407 879.71 776.274 879.71 781.14 879.71 L 789.494 879.915 L 790.006 879.915 C 796.827 880.085 803.886 880.29 810.807 880.29 C 818.958 880.29 826.12 880.051 832.735 879.505 C 841.68 878.821 850.553 877.396 859.266 875.243 C 863.245 874.207 867.16 872.941 870.997 871.458 C 873.077 870.639 875.055 869.753 877.135 868.764 L 877.135 868.764 C 879.283 867.741 881.397 866.615 883.477 865.354 C 886.26 863.697 887.201 860.116 885.592 857.307 C 884.573 855.526 882.662 854.442 880.613 854.476 C 879.549 854.479 878.5 854.725 877.544 855.193 Z" transform="matrix(-0.7401, 0.672497, -0.672497, -0.7401, 1738.659891, 1106.727708)"/>
    <path class="cls-1" d="M 893.04 881.316 C 872.201 883.183 851.48 886.202 830.977 890.353 C 814.607 893.522 798.306 897.173 782.005 900.821 C 775.424 902.287 768.843 903.72 762.227 905.05 C 752.849 906.925 743.334 908.29 733.855 909.551 L 733.855 909.551 C 694.399 914.769 654.637 917.564 615.318 923.941 C 605.453 925.554 595.632 927.44 585.856 929.602 C 576.034 931.784 566.315 934.41 556.597 937.036 C 537.056 942.356 517.585 948.051 497.908 952.927 C 487.303 955.553 476.663 957.906 465.921 959.747 C 463.295 960.454 462.423 963.741 464.349 965.657 C 465.242 966.551 466.545 966.895 467.762 966.568 L 471.173 965.954 L 471.344 965.954 C 494.26 961.589 517.04 955.314 539.069 949.279 L 550.391 946.175 C 562.769 942.766 577.16 938.946 591.311 935.944 C 603.452 933.388 616.41 931.205 632.028 929.124 L 632.847 929.124 C 651.467 926.704 671.143 924.725 687.205 923.157 C 708.347 921.043 730.207 918.86 751.622 915.722 C 764 913.949 776.823 911.189 788.143 908.731 L 797.248 906.79 C 814.675 903.139 833.225 899.389 852.118 896.558 C 855.8 895.988 859.495 895.442 863.201 894.921 L 862.962 894.921 C 876.602 893.113 888.504 892.022 899.621 891.511 C 902.87 891.395 906.124 891.34 909.373 891.34 C 915.775 891.306 922.176 891.634 928.539 892.329 L 932.563 892.774 L 932.563 892.774 L 931.88 892.774 L 932.495 892.774 L 931.88 892.774 C 940.058 893.782 948.079 895.808 955.753 898.808 C 959.732 900.504 963.506 902.642 967.005 905.186 C 969.362 907.089 971.51 909.236 973.417 911.597 C 975.07 913.902 976.484 916.371 977.644 918.962 C 978.914 922.264 979.827 925.694 980.373 929.192 C 980.912 934.546 980.844 939.949 980.168 945.288 C 979.759 947.983 979.247 950.608 978.668 953.267 C 978.43 954.53 978.156 955.791 977.952 957.054 C 976.996 962.17 976.281 967.284 975.633 972.263 C 974.984 977.242 974.404 982.085 973.826 986.996 C 973.383 990.781 972.938 994.635 972.358 998.488 L 972.085 1000.739 L 972.085 1000.739 L 972.085 999.613 L 972.085 1000.703 L 972.324 999.613 C 971.077 1011.405 968.362 1023 964.243 1034.121 C 962.565 1037.949 960.495 1041.595 958.071 1045.001 C 956.103 1047.418 953.9 1049.636 951.489 1051.616 C 948.754 1053.632 945.818 1055.359 942.725 1056.767 C 938.963 1058.199 935.069 1059.25 931.096 1059.902 C 928.819 1060.511 927.069 1062.338 926.561 1064.643 L 926.561 1064.643 C 926.506 1065.107 926.506 1065.574 926.561 1066.041 C 926.558 1067.751 927.233 1069.393 928.436 1070.61 C 929.634 1071.844 931.288 1072.526 933.006 1072.485 C 939.274 1071.912 945.433 1070.487 951.318 1068.257 C 956.953 1066.143 962.125 1062.974 966.562 1058.913 C 970.582 1055.229 974.03 1050.965 976.793 1046.262 C 979.8 1041.158 982.204 1035.722 983.953 1030.066 C 985.603 1024.834 986.87 1019.486 987.74 1014.072 C 988.865 1007.455 989.615 1000.807 990.227 994.156 C 991.217 983.244 991.66 972.331 993.024 961.453 C 993.774 956.236 994.763 951.222 995.208 945.801 C 995.633 941.262 995.633 936.696 995.207 932.16 C 994.534 923.757 991.883 915.637 987.466 908.459 C 983.238 902.03 977.603 896.644 970.995 892.705 C 964.151 888.712 956.714 885.834 948.966 884.181 C 940.167 882.243 931.202 881.158 922.196 880.939 C 919.638 880.939 917.047 880.939 914.456 880.939 C 907.363 880.939 900.235 881.282 893.176 881.861 Z" transform="matrix(-0.7401, 0.672497, -0.672497, -0.7401, 1926.094963, 1209.047098)"/>
    <path class="cls-1" d="M 957.969 822.296 C 955.345 822.944 952.684 823.421 950.058 823.932 L 941.09 825.604 C 934.269 826.797 927.449 827.889 920.868 829.014 C 906.517 831.425 892.464 835.366 878.958 840.779 C 875.547 842.211 872.136 843.712 869 845.451 C 866.05 847.057 863.203 848.847 860.475 850.804 C 855.321 854.525 850.885 859.146 847.38 864.446 C 846.834 865.4 847.155 866.613 848.095 867.173 C 849.047 867.719 850.261 867.401 850.824 866.456 L 851.914 864.888 C 852.791 863.794 853.722 862.747 854.711 861.75 L 854.711 861.581 C 855.994 860.288 857.361 859.081 858.804 857.965 C 860.635 856.595 862.534 855.319 864.498 854.146 L 864.703 854.146 C 868 852.22 871.417 850.498 874.933 848.997 C 881.412 846.386 888.065 844.229 894.848 842.552 C 901.975 840.711 909.137 839.142 916.332 837.675 C 923.528 836.209 930.142 834.948 937.066 833.651 C 943.102 832.492 949.103 831.401 955.072 830.038 C 956.606 829.663 958.106 829.252 959.607 828.877 C 962.078 827.998 962.672 824.772 960.674 823.071 C 960.114 822.592 959.418 822.314 958.686 822.262 C 958.403 822.231 958.116 822.231 957.833 822.262 Z" transform="matrix(-0.7401, 0.672497, -0.672497, -0.7401, 2142.061293, 861.835302)"/>
    <path class="cls-2" d="M 826.896 372.841 L 826.896 372.841 C 824.816 373.829 822.837 374.716 820.757 375.535 C 816.924 377.025 813.006 378.285 809.027 379.32 C 800.318 381.472 791.44 382.897 782.495 383.583 C 775.88 384.129 768.856 384.366 760.603 384.366 C 753.782 384.366 746.622 384.197 739.8 383.992 L 739.051 383.992 L 730.695 383.787 C 725.83 383.787 720.967 383.786 716.1 383.786 C 681.651 383.892 647.25 386.273 613.115 390.914 L 614.034 390.914 C 609.057 391.46 604.078 392.175 599.133 392.926 C 590.948 394.153 580.172 395.892 569.225 398.04 C 561.417 399.575 552.857 401.451 543.071 403.77 C 536.693 405.27 530.351 406.838 524.008 408.408 L 523.632 408.408 C 511.766 411.341 499.49 414.375 487.314 416.933 C 468.559 421.175 449.596 424.451 430.502 426.753 C 422.523 427.606 414.542 428.084 406.632 428.186 C 406.304 428.657 405.938 429.099 405.54 429.516 C 408.097 440.122 410.416 451.579 412.564 464.572 C 415.668 483.293 417.884 501.776 419.146 519.509 C 420.538 537.228 420.949 555.013 420.374 572.776 C 419.999 582.119 419.419 590.201 418.567 597.464 C 417.731 605.359 416.296 613.181 414.269 620.858 C 411.115 633.161 405.614 644.739 398.072 654.96 C 394.623 659.56 390.753 663.829 386.511 667.713 C 382.319 671.44 377.862 674.861 373.178 677.944 C 363.974 683.83 354.343 689.017 344.361 693.46 L 335.087 697.688 L 334.029 698.166 C 327.209 701.166 319.808 704.611 312.715 708.191 C 301.572 713.689 290.962 720.219 281.036 727.697 C 274.076 733.058 267.771 739.213 262.246 746.043 C 257.53 752.376 253.581 759.244 250.481 766.504 C 246.87 775.415 244.373 784.738 243.046 794.263 L 243.251 793.717 C 241.686 805.626 241.686 817.683 243.251 829.592 C 244.356 837.346 246.041 845.006 248.298 852.508 C 249.202 853.189 249.844 854.169 250.107 855.269 C 250.767 858.598 251.786 861.844 253.141 864.955 C 255.183 869.606 257.745 874.012 260.78 878.083 C 264.623 882.858 268.991 887.182 273.806 890.973 C 282.301 897.249 291.532 902.459 301.291 906.489 C 324.555 915.466 348.876 921.413 373.654 924.189 L 374.2 924.189 C 396.171 927.008 418.279 928.625 440.424 929.031 C 446.881 929.168 453.326 929.236 459.76 929.236 C 474.765 929.236 490.076 928.827 505.252 928.008 C 525.269 926.917 543.206 925.315 560.12 923.063 L 560.495 923.063 L 560.12 923.063 L 561.007 923.063 C 571.237 921.631 580.171 920.131 588.287 918.459 C 601.557 915.671 614.539 911.654 627.061 906.456 L 625.833 906.832 C 642.008 900.073 657.23 891.234 671.12 880.54 C 686.892 868.069 701.067 853.704 713.337 837.777 C 731.363 813.681 746.258 787.393 757.669 759.55 L 757.363 759.992 L 757.771 759.311 L 757.771 758.833 L 757.771 758.833 C 767.644 735.146 775.913 710.822 782.528 686.027 C 794.468 640.748 803.378 594.721 809.197 548.258 L 808.992 548.736 C 811.924 527.797 814.55 505.154 817.312 477.565 C 819.188 458.741 820.722 439.543 822.496 420.991 L 822.496 420.616 C 823.894 404.692 825.292 388.766 826.828 372.875 L 826.828 372.875 Z" transform="matrix(-0.740098, 0.672499, -0.672499, -0.740098, 1367.881764, 773.429068)"/>
    <path class="cls-2" d="M 907.542 837.201 C 904.289 837.201 901.039 837.259 897.79 837.371 C 886.669 837.814 874.669 838.905 861.131 840.78 L 861.54 840.78 C 838.727 843.782 816.284 848.283 795.448 852.647 L 786.347 854.592 C 775.026 857.046 762.199 859.809 749.787 861.582 C 728.374 864.686 706.512 866.868 685.372 868.982 C 669.312 870.585 649.665 872.392 631.016 874.95 L 630.197 874.95 C 614.545 877.064 601.62 879.246 589.48 881.77 C 575.192 884.771 560.801 888.59 548.558 892.001 L 537.238 895.103 C 515.207 901.14 492.429 907.414 469.509 911.779 C 467.555 912.938 465.663 914.201 463.851 915.564 C 462.402 916.675 461.035 917.883 459.756 919.18 L 459.756 919.52 C 458.706 922.248 457.962 925.086 457.542 927.978 C 456.916 934.798 457.102 941.665 458.088 948.439 C 458.766 953.587 459.756 959.283 461.056 965.762 L 461.462 967.774 L 461.462 968.251 C 462.279 972.343 463.166 976.606 463.779 980.8 C 464.803 987.62 465.451 994.816 466.098 1001.703 L 466.098 1002.114 C 466.678 1008.32 467.19 1013.946 467.91 1019.471 C 468.861 1027.075 470.678 1034.548 473.328 1041.74 C 474.56 1044.471 476.056 1047.075 477.795 1049.516 C 479.126 1051.1 480.585 1052.574 482.164 1053.914 C 484.056 1055.226 486.061 1056.369 488.166 1057.324 C 491.63 1058.647 495.234 1059.595 498.904 1060.154 C 501.496 1060.434 504.109 1060.569 506.713 1060.563 C 508.112 1060.563 509.479 1060.563 510.873 1060.563 C 511.668 1059.797 512.641 1059.236 513.707 1058.927 C 514.26 1058.782 514.833 1058.711 515.412 1058.721 C 516.62 1058.748 517.803 1059.115 518.823 1059.779 L 519.229 1059.779 C 521.114 1059.929 522.881 1060.753 524.203 1062.099 C 524.497 1062.381 524.763 1062.689 524.995 1063.018 C 532.054 1062.746 539.62 1062.064 548.147 1060.972 L 548.696 1060.972 C 569.592 1057.808 590.268 1053.355 610.62 1047.638 L 626.818 1043.273 L 630.876 1042.183 C 644.517 1038.465 657.714 1034.851 670.706 1031.576 C 688.51 1027.143 707.778 1023.392 729.568 1020.152 C 754.019 1016.504 775.98 1014.152 796.676 1012.925 C 808.818 1012.207 819.766 1011.832 830.201 1011.764 L 833.612 1011.764 C 841.181 1011.764 849.57 1011.97 859.255 1012.413 L 861.506 1012.413 C 870.645 1012.821 880.091 1013.265 889.401 1013.264 C 898.279 1013.33 907.151 1012.829 915.966 1011.764 C 919.104 1011.287 922.104 1010.741 924.866 1010.127 C 925.392 1007.842 927.134 1006.032 929.402 1005.421 C 933.371 1004.78 937.266 1003.741 941.029 1002.319 C 944.12 1000.907 947.056 999.184 949.794 997.17 C 952.202 995.191 954.408 992.975 956.376 990.553 C 958.797 987.15 960.87 983.506 962.545 979.675 C 966.674 968.564 969.399 956.983 970.665 945.199 L 970.188 947.483 C 971.005 942.538 971.585 937.525 972.131 932.717 C 972.675 927.908 973.29 922.897 973.938 917.986 C 974.586 913.076 975.303 907.756 976.258 902.777 C 976.496 901.514 976.734 900.254 977.006 898.991 C 977.552 896.366 978.098 893.707 978.47 891.046 C 979.156 885.705 979.224 880.308 978.678 874.951 C 978.133 871.455 977.219 868.024 975.951 864.72 C 973.651 859.314 969.969 854.608 965.276 851.079 C 961.773 848.538 957.999 846.397 954.019 844.702 C 946.346 841.715 938.326 839.699 930.149 838.701 L 931.448 839.041 C 923.544 837.907 915.56 837.371 907.576 837.439 Z" transform="matrix(-0.7401, 0.672497, -0.672497, -0.7401, 1888.52993, 1170.358184)"/>
    <path class="cls-1" d="M 678.24 376.604 C 680.49 430.074 691.877 482.591 701.562 535.039 C 703.948 548.031 706.234 561.058 708.381 574.118 C 710.531 587.18 712.338 599.729 714.486 612.516 C 718.462 638.024 724.158 663.238 731.536 687.983 C 745.774 732.874 769.146 774.334 800.183 809.758 C 814.993 826.85 831.826 842.08 850.311 855.113 C 868.743 867.996 889.058 877.957 910.535 884.645 C 933.337 891.449 956.834 895.691 980.579 897.295 C 1004.794 899.071 1029.099 899.344 1053.351 898.114 C 1077.222 897.09 1100.819 895.146 1124.52 893.169 C 1146.005 891.361 1167.693 890.236 1188.835 885.7 C 1199.103 883.466 1209.074 880.033 1218.541 875.47 C 1228.014 870.873 1236.611 864.653 1243.943 857.089 C 1258.061 842.592 1266.078 823.155 1269.692 803.479 C 1273.605 782.885 1272.915 761.68 1267.677 741.385 C 1266.29 736.395 1264.534 731.516 1262.43 726.785 C 1260.526 722.41 1258.243 718.212 1255.607 714.236 C 1252.75 709.943 1249.483 705.932 1245.855 702.27 C 1241.923 698.434 1237.615 695.006 1232.999 692.04 C 1227.092 688.278 1220.838 685.114 1214.311 682.594 C 1208.477 680.172 1202.509 678.16 1196.442 676.319 C 1184.537 672.704 1172.333 670.146 1160.772 665.542 C 1155.865 663.404 1151.197 660.754 1146.859 657.631 C 1145.117 656.244 1143.455 654.763 1141.88 653.198 C 1136.571 647.813 1127.425 650.2 1125.42 657.488 C 1125.191 658.314 1125.072 659.162 1125.069 660.018 C 1125.062 661.822 1125.584 663.585 1126.565 665.1 C 1127.364 666.191 1128.193 667.258 1129.058 668.305 C 1133.659 673.505 1138.974 678.031 1144.847 681.741 L 1144.847 681.741 C 1150.797 685.486 1157.049 688.735 1163.535 691.46 C 1170.355 694.359 1177.516 697.12 1186.177 700.155 L 1189.588 701.384 L 1190.164 701.587 C 1195.42 703.431 1200.875 705.339 1206.127 707.453 C 1212.784 710.315 1219.116 713.881 1225.015 718.095 C 1228.546 721.005 1231.788 724.248 1234.704 727.779 C 1238.295 732.732 1241.348 738.062 1243.807 743.669 C 1246.917 751.59 1249.129 759.837 1250.391 768.256 C 1251.533 777.995 1251.533 787.84 1250.391 797.582 C 1249.171 805.808 1247.032 813.873 1244.015 821.624 C 1241.587 827.141 1238.565 832.376 1235.008 837.244 C 1231.212 841.928 1226.941 846.201 1222.254 849.996 C 1216.522 854.194 1210.347 857.751 1203.84 860.601 C 1190.93 865.647 1177.448 869.083 1163.703 870.832 C 1151.972 872.367 1139.832 873.458 1128.373 874.481 L 1127.692 874.481 L 1124.725 874.754 L 1115.794 875.572 C 1094.48 877.584 1078.283 878.984 1063.069 879.904 C 1045.031 881.029 1028.969 881.575 1014.237 881.575 C 994.554 881.693 974.881 880.557 955.344 878.164 C 932.936 875.346 910.98 869.685 890.005 861.321 C 873.992 854.258 858.878 845.303 844.993 834.652 C 825.874 819.57 808.694 802.182 793.839 782.886 C 776.751 760.744 762.49 736.563 751.383 710.898 L 751.383 710.557 C 733.207 666.703 725.603 619.166 718.237 573.164 C 714.826 551.987 710.768 530.572 706.779 509.804 C 701.629 482.829 696.279 454.9 692.459 427.211 C 690.993 416.162 689.901 406.136 689.05 396.52 C 688.504 389.925 688.082 383.322 687.787 376.706 C 687.787 373.095 683.881 370.841 680.753 372.645 C 679.303 373.481 678.41 375.029 678.41 376.706 Z" transform="matrix(-0.901158, -0.433492, 0.433492, -0.901158, 1578.58074, 1630.818238)"/>
    <path class="cls-1" d="M 782.967 509.285 C 779.962 509.306 777.268 511.137 776.145 513.923 L 776.145 513.923 C 776.078 514.137 776.02 514.352 775.976 514.57 C 774.816 519.643 773.681 524.713 772.565 529.779 L 772.565 529.779 C 766.359 558.357 761.653 583.932 758.208 608.213 C 753.556 639.559 751.095 671.19 750.843 702.877 C 750.843 712.699 751.15 722.69 751.49 732.341 L 751.49 733.296 C 751.671 737.844 751.831 742.391 751.968 746.937 C 751.968 750.599 752.06 754.259 752.241 757.917 L 752.241 758.462 C 752.411 766.613 752.616 775.07 753.093 783.356 C 753.621 796.111 755.358 808.786 758.276 821.21 C 761.271 833.155 766.141 844.548 772.701 854.97 C 777.268 862.188 782.852 868.712 789.275 874.339 C 790.792 875.778 792.727 876.699 794.799 876.965 L 794.799 876.965 L 795.584 876.965 C 798.025 876.965 800.368 875.996 802.097 874.271 C 805.619 870.655 805.619 864.893 802.097 861.277 C 800.597 859.641 799.164 857.868 797.766 856.265 C 793.903 851.034 790.622 845.397 787.979 839.453 C 783.47 827.358 780.426 814.765 778.908 801.942 C 777.1 787.415 776.247 772.785 775.498 758.156 C 774.475 740.9 772.326 723.748 771.473 706.459 C 769.666 668.02 771.367 629.499 776.555 591.367 C 779.965 566.814 784.569 542.433 790.195 518.255 C 791.208 514.362 788.941 510.376 785.081 509.251 C 784.49 509.098 783.883 509.019 783.272 509.012 L 783.272 509.012 Z M 779.01 802.556 C 779.01 802.897 779.01 803.237 779.01 803.578 C 779.01 803.237 779.01 802.897 779.01 802.556 Z" transform="matrix(-0.901157, -0.433493, 0.433493, -0.901157, 1178.296819, 1654.646708)"/>
    <path class="cls-1" d="M 1101.519 975.67 C 1095.419 976.1 1089.458 977.697 1083.957 980.377 C 1079.541 982.771 1075.845 986.305 1073.249 990.607 C 1070.709 995.014 1069.175 999.927 1068.748 1004.998 C 1068.202 1010.523 1068.386 1016.095 1069.294 1021.572 C 1070.971 1031.862 1073.598 1041.978 1077.137 1051.785 C 1078.536 1056.012 1080.002 1060.208 1081.331 1064.436 C 1082.604 1068.62 1083.561 1072.896 1084.196 1077.224 C 1085.185 1085.375 1085.595 1093.56 1086.378 1101.675 C 1087.044 1111.088 1088.762 1120.401 1091.494 1129.433 C 1094.072 1138.154 1099.034 1145.983 1105.817 1152.042 C 1107.767 1153.677 1109.854 1155.136 1112.057 1156.407 C 1114.371 1157.641 1116.789 1158.667 1119.287 1159.476 C 1121.295 1160.125 1123.362 1160.568 1125.459 1160.806 L 1127.675 1161.078 L 1127.675 1161.078 C 1129.588 1161.318 1131.511 1161.44 1133.438 1161.453 L 1135.552 1161.453 C 1138.107 1161.419 1140.572 1160.521 1142.543 1158.896 L 1142.543 1158.896 L 1143.089 1158.385 C 1145.094 1156.323 1146.198 1153.553 1146.157 1150.678 C 1146.157 1148.533 1145.503 1146.439 1144.282 1144.677 L 1144.282 1144.677 C 1142.253 1141.777 1138.956 1140.028 1135.416 1139.97 C 1133.755 1139.97 1132.108 1139.888 1130.472 1139.731 C 1127.245 1139.401 1124.162 1138.224 1121.536 1136.323 C 1120.415 1135.315 1119.369 1134.234 1118.4 1133.083 C 1117.011 1131.07 1115.815 1128.936 1114.818 1126.705 C 1111.521 1117.359 1109.233 1107.687 1107.999 1097.854 L 1107.522 1094.445 L 1107.112 1091.547 L 1107.112 1091.207 C 1106.09 1083.058 1104.609 1074.974 1102.679 1066.994 C 1101.563 1063.089 1100.196 1059.263 1098.587 1055.536 L 1098.587 1055.161 L 1096.336 1049.636 L 1093.164 1041.828 C 1089.151 1032.525 1086.187 1022.802 1084.332 1012.842 C 1083.95 1009.65 1083.892 1006.427 1084.162 1003.225 C 1084.435 1001.732 1084.824 1000.258 1085.322 998.826 C 1085.663 998.096 1086.051 997.391 1086.481 996.712 L 1086.481 996.712 L 1087.026 995.893 C 1087.719 995.11 1088.458 994.366 1089.243 993.677 C 1090.446 992.849 1091.712 992.118 1093.028 991.494 C 1095.449 990.605 1097.949 989.957 1100.497 989.55 L 1101.418 989.55 C 1103.225 989.498 1104.95 988.782 1106.259 987.539 C 1107.549 986.255 1108.274 984.513 1108.271 982.695 C 1108.281 979.108 1105.51 976.125 1101.928 975.875 Z M 1099.78 989.55 L 1099.234 989.55 L 1099.78 989.55 Z" transform="matrix(-0.901158, -0.433492, 0.433492, -0.901158, 1641.939008, 2511.508987)"/>
    <path class="cls-1" d="M 1052.003 1022.029 C 1031.542 1022.2 1011.081 1024.724 990.62 1026.668 C 980.39 1027.657 970.159 1028.201 959.929 1028.782 C 947.698 1029.464 935.479 1030.267 923.27 1031.203 C 898.956 1033.043 874.676 1035.432 850.43 1038.023 C 827.013 1040.635 803.63 1043.626 780.284 1046.99 C 768.689 1048.647 757.095 1050.402 745.5 1052.242 C 734.417 1053.981 723.334 1055.891 712.217 1057.391 L 712.593 1057.391 C 687.699 1060.803 662.668 1062.849 637.876 1066.735 C 625.529 1068.6 613.289 1071.141 601.218 1074.339 C 589.044 1077.631 577.207 1082.048 565.856 1087.537 C 563.136 1089.151 562.227 1092.647 563.809 1095.381 C 565.455 1098.052 568.91 1098.95 571.652 1097.427 L 573.664 1096.471 L 573.664 1096.471 L 577.995 1094.527 C 599.507 1086.199 621.99 1080.641 644.901 1077.99 L 644.901 1077.99 L 644.458 1077.99 L 644.867 1077.99 L 644.458 1077.99 C 657.451 1076.251 670.375 1074.954 684.697 1073.557 L 689.335 1073.111 L 698.201 1072.193 C 712.797 1070.725 727.46 1068.782 741.647 1066.667 C 746.592 1065.985 751.502 1065.303 756.446 1064.688 L 756.243 1064.688 C 809.747 1057.527 856.807 1052.449 900.082 1049.209 C 921.429 1047.638 944.413 1046.376 972.58 1045.219 C 983.663 1044.773 994.712 1043.818 1005.625 1042.898 C 1014.321 1042.183 1023.324 1041.398 1032.19 1040.887 C 1039.01 1040.512 1045.421 1040.308 1051.423 1040.308 C 1060.538 1040.263 1069.65 1040.788 1078.704 1041.876 C 1082.454 1042.422 1086.172 1043.105 1089.889 1043.786 C 1095.073 1044.74 1100.12 1045.661 1105.098 1046.205 L 1106.326 1046.583 L 1106.939 1046.583 L 1106.939 1046.583 C 1111.888 1048.391 1116.942 1044.167 1116.034 1038.979 C 1115.614 1036.568 1113.94 1034.564 1111.645 1033.726 C 1109.633 1032.703 1107.894 1031.304 1105.917 1030.315 C 1103.55 1029.116 1101.098 1028.089 1098.585 1027.247 C 1093.763 1025.625 1088.795 1024.481 1083.751 1023.836 C 1074.103 1022.476 1064.372 1021.825 1054.629 1021.892 Z" transform="matrix(-0.901158, -0.433492, 0.433492, -0.901158, 1136.673233, 2379.232444)"/>
    <path class="cls-1" d="M 654.053 816.272 C 651.047 816.272 649.168 819.524 650.671 822.13 C 651.371 823.338 652.656 824.08 654.053 824.08 C 655.145 824.08 656.203 824.08 657.294 824.285 C 658.92 824.534 660.52 824.944 662.068 825.513 C 662.945 825.936 663.79 826.423 664.592 826.979 C 665.073 827.406 665.525 827.863 665.955 828.344 L 666.126 828.617 L 666.126 828.617 C 666.399 829.059 666.648 829.513 666.876 829.981 C 667.153 830.795 667.38 831.627 667.558 832.47 C 667.728 834.216 667.728 835.975 667.558 837.721 C 666.839 841.642 665.696 845.473 664.148 849.145 C 660.428 857.407 656.106 865.384 651.224 873.017 C 649.451 875.88 647.609 878.711 645.597 881.746 C 643.107 885.565 640.481 889.521 638.128 893.512 C 631.751 904.424 630.047 916.904 628.376 929.011 C 627.441 938.297 625.46 947.45 622.477 956.292 C 621.743 957.911 620.887 959.473 619.919 960.963 C 619.462 961.69 618.998 962.406 618.52 963.111 C 616.918 964.964 615.199 966.706 613.372 968.329 C 607.918 973.755 610.387 983.048 617.812 985.056 C 619.54 985.524 621.361 985.517 623.09 985.039 C 626.473 983.941 629.651 982.294 632.502 980.162 C 634.19 978.932 635.785 977.574 637.276 976.103 C 638.913 974.342 640.406 972.448 641.74 970.443 C 643.745 967.443 645.382 964.217 646.62 960.826 C 647.745 957.751 648.577 954.579 649.11 951.347 C 650.323 944.131 651.033 936.837 651.224 929.523 C 651.463 923.691 651.598 917.894 652.246 912.096 C 652.741 908.604 653.611 905.173 654.838 901.866 C 657.942 894.705 661.454 887.748 664.762 880.689 C 669.402 871.336 673.181 861.575 676.05 851.532 C 677.185 847.184 677.847 842.724 678.027 838.233 C 678.191 834.277 677.42 830.342 675.777 826.741 C 674.154 823.467 671.523 820.804 668.274 819.137 C 663.879 817.087 659.07 816.07 654.224 816.169 Z M 655.145 901.081 L 654.975 901.525 L 655.145 901.115 Z" transform="matrix(-0.901158, -0.43349, 0.43349, -0.901158, 834.312639, 1991.799459)"/>
    <path class="cls-1" d="M 1145.693 880.016 C 1141.806 881.137 1137.953 882.263 1134.035 883.426 L 1134.035 883.426 L 1128.746 884.787 C 1122.918 886.253 1116.673 887.719 1109.653 889.254 C 1096.248 892.156 1082.641 894.744 1071.115 896.892 C 1049.187 900.916 1025.146 904.804 995.414 909.101 C 965.131 913.468 940.849 917.114 919.021 920.625 C 901.669 923.388 879.876 926.798 856.992 930.003 L 840.285 932.323 L 840.866 932.323 C 798.527 938.37 755.871 941.889 713.118 942.865 L 713.118 942.865 C 703.116 943.022 693.125 942.967 683.146 942.693 C 677.761 942.693 674.399 948.518 677.09 953.18 C 678.338 955.342 680.647 956.675 683.146 956.675 C 692.49 956.949 701.831 957.105 711.175 957.152 L 711.175 957.152 L 716.872 957.152 C 729.725 957.152 742.449 956.915 754.588 956.436 C 777.433 955.55 801.035 953.876 826.781 951.284 C 860.607 947.875 894.984 943.102 928.064 938.396 L 930.552 938.052 C 940.237 936.692 949.954 935.323 959.608 934.062 L 967.14 933.041 L 966.802 933.041 L 975.426 931.88 C 1003.461 928.165 1032.41 924.276 1060.679 918.788 C 1076.079 915.877 1091.31 912.142 1106.31 907.6 C 1114.291 905.149 1122.301 902.352 1130.181 899.385 L 1130.181 899.385 L 1130.181 899.385 C 1137.001 896.838 1143.649 894.109 1150.131 891.198 C 1152.5 889.826 1153.65 887.024 1152.923 884.378 C 1152.17 881.745 1149.766 879.927 1147.024 879.91 C 1146.495 879.91 1145.966 879.979 1145.458 880.115 Z" transform="matrix(-0.901157, -0.433492, 0.433492, -0.901157, 1340.700362, 2142.761654)"/>
    <path class="cls-2" d="M 1248.289 851.389 C 1247.054 859.555 1244.916 867.562 1241.911 875.259 C 1239.508 880.779 1236.5 886.018 1232.944 890.877 C 1229.148 895.559 1224.871 899.832 1220.189 903.631 C 1214.461 907.832 1208.284 911.389 1201.774 914.236 C 1188.864 919.276 1175.384 922.714 1161.637 924.467 C 1149.906 926.001 1137.768 927.093 1126.31 928.15 L 1125.627 928.15 L 1122.661 928.423 L 1113.724 929.241 C 1092.379 931.253 1076.214 932.651 1061.005 933.572 C 1042.966 934.697 1026.904 935.243 1012.173 935.243 C 992.49 935.355 972.816 934.217 953.28 931.833 C 930.886 929.009 908.942 923.349 887.976 914.987 C 871.791 907.963 856.517 899.008 842.484 888.32 C 823.357 873.247 806.174 855.859 791.333 836.554 C 774.245 814.412 759.983 790.231 748.877 764.566 L 748.877 764.226 C 730.701 720.371 723.097 672.834 715.731 626.832 C 712.32 605.654 708.262 584.239 704.306 563.471 C 699.123 536.497 693.804 508.569 689.984 480.878 C 688.415 469.215 687.289 458.678 686.574 448.618 C 688.484 448.864 690.41 448.99 692.337 448.993 L 694.451 448.993 C 697.002 448.956 699.468 448.053 701.442 446.436 L 707.137 446.436 C 719.993 446.436 732.678 446.197 744.853 445.753 C 767.701 444.867 791.299 443.197 817.044 440.605 C 850.874 437.194 885.247 432.42 918.325 427.715 L 920.849 427.374 C 933.126 425.635 945.47 423.963 957.713 422.361 C 957.508 422.388 957.303 422.388 957.099 422.361 L 965.726 421.236 C 993.758 417.484 1022.744 413.631 1050.979 408.14 C 1066.385 405.21 1081.627 401.48 1096.641 396.955 C 1104.586 394.465 1112.601 391.704 1120.512 388.737 L 1120.512 388.737 C 1114.306 417.279 1109.599 442.924 1106.122 467.17 C 1101.494 498.515 1099.031 530.148 1098.755 561.835 C 1098.755 571.655 1099.062 581.647 1099.404 591.297 L 1099.404 592.219 C 1099.573 596.754 1099.745 601.29 1099.88 605.859 C 1099.88 609.543 1099.88 613.191 1100.153 616.84 L 1100.153 617.385 C 1100.323 625.569 1100.528 634.026 1101.005 642.314 C 1101.528 655.053 1103.264 667.718 1106.19 680.132 C 1109.193 692.078 1114.073 703.47 1120.648 713.892 C 1125.197 721.122 1130.766 727.659 1137.188 733.295 C 1138.724 734.718 1140.667 735.635 1142.747 735.921 C 1148.7 739.662 1154.951 742.912 1161.432 745.64 C 1168.253 748.538 1175.414 751.301 1184.076 754.336 L 1187.485 755.563 L 1188.065 755.768 C 1193.317 757.609 1198.774 759.52 1204.025 761.634 C 1210.671 764.501 1216.99 768.064 1222.883 772.273 C 1226.426 775.169 1229.669 778.411 1232.567 781.957 C 1236.155 786.919 1239.203 792.246 1241.672 797.85 C 1244.793 805.757 1246.999 813.992 1248.255 822.401 C 1249.38 832.029 1249.394 841.755 1248.289 851.389 Z" transform="matrix(-0.901157, -0.433492, 0.433492, -0.901157, 1553.049314, 1678.105815)"/>
    <path class="cls-2" d="M 1087.374 883.652 C 1081.37 883.652 1075.063 883.823 1068.105 884.232 C 1059.24 884.744 1050.237 885.494 1041.54 886.244 C 1030.662 887.166 1019.579 888.12 1008.497 888.563 C 980.362 889.722 957.345 890.981 935.997 892.549 C 892.722 895.96 845.662 900.87 792.158 908.035 L 792.567 908.035 C 787.622 908.645 782.711 909.331 777.768 910.014 C 763.581 911.988 748.917 914.041 734.322 915.541 L 725.456 916.423 L 720.852 916.901 C 706.529 918.303 693.571 919.599 680.579 921.331 L 681.021 921.331 C 658.109 923.994 635.626 929.553 614.115 937.874 L 609.784 939.817 C 609.352 940.51 608.963 941.225 608.625 941.966 C 608.12 943.401 607.731 944.871 607.465 946.365 C 607.185 949.581 607.243 952.813 607.636 956.016 C 609.477 965.976 612.43 975.699 616.434 985.002 L 619.606 992.81 L 621.754 998.369 L 621.754 998.745 C 623.367 1002.471 624.73 1006.301 625.846 1010.203 C 627.779 1018.182 629.26 1026.268 630.279 1034.414 L 630.279 1034.754 L 630.688 1037.653 L 631.166 1041.064 C 632.339 1050.891 634.569 1060.567 637.816 1069.915 C 638.825 1072.147 640.036 1074.28 641.43 1076.291 C 642.399 1077.433 643.445 1078.507 644.568 1079.496 C 645.665 1080.233 646.805 1080.905 647.978 1081.509 C 649.767 1082.14 651.603 1082.631 653.468 1082.975 C 655.129 1083.111 656.775 1083.193 658.413 1083.214 C 661.959 1083.275 665.261 1085.042 667.279 1087.954 C 710.032 1086.967 752.688 1083.438 795.023 1077.382 L 793.897 1077.382 C 822.883 1073.594 851.461 1069.125 873.148 1065.682 C 894.836 1062.238 919.253 1058.524 949.536 1054.155 C 979.273 1049.862 1003.314 1045.975 1025.241 1041.951 C 1036.767 1039.803 1050.374 1037.211 1063.775 1034.312 C 1070.8 1032.778 1077.041 1031.312 1082.873 1029.879 L 1088.158 1028.515 C 1089.28 1025.725 1091.973 1023.894 1094.978 1023.877 C 1096.319 1022.046 1097.461 1020.079 1098.389 1018.011 C 1101.375 1009.166 1103.354 1000.016 1104.288 990.73 C 1105.958 978.625 1107.697 966.143 1114.041 955.231 C 1116.394 951.241 1118.986 947.286 1121.508 943.467 C 1123.52 940.431 1125.363 937.601 1127.136 934.736 C 1132.023 927.105 1136.343 919.124 1140.06 910.865 C 1141.616 907.193 1142.757 903.364 1143.469 899.441 C 1143.643 897.682 1143.643 895.912 1143.469 894.155 C 1143.31 893.31 1143.095 892.478 1142.822 891.667 C 1142.597 891.199 1142.345 890.742 1142.073 890.302 L 1141.459 890.302 L 1140.23 889.961 C 1135.251 889.416 1130.205 888.495 1125.021 887.541 C 1121.305 886.858 1117.587 886.176 1113.836 885.63 C 1104.786 884.536 1095.673 884.014 1086.554 884.062 Z" transform="matrix(-0.901157, -0.433492, 0.433492, -0.901157, 1237.021205, 2253.665208)"/>
    <path class="cls-3" d="M 853.305 1003.273 C 825.001 1003.783 796.766 1005.59 768.564 1007.672 C 747.626 1009.206 726.722 1011.457 705.886 1013.912 C 685.051 1016.366 664.044 1019.197 643.242 1022.438 C 643.242 1022.438 643.242 1022.438 643.242 1022.438 C 671.444 1022.13 699.679 1021.823 727.882 1021.311 C 756.083 1020.799 784.387 1019.675 812.623 1018.072 C 854.656 1015.395 896.515 1010.443 938.013 1003.237 C 938.013 1003.237 938.013 1003.237 938.013 1003.237 C 921.678 1003.237 905.309 1002.966 888.976 1002.966 C 877.074 1002.966 865.104 1002.966 853.305 1003.273 Z" transform="matrix(-0.901157, -0.433493, 0.433493, -0.901157, 1064.108131, 2268.036946)"/>
    <path class="cls-3" d="M 767.518 436.611 C 767.446 456.157 768.584 475.69 770.928 495.094 C 772.051 503.602 773.701 512.029 775.873 520.33 C 778.052 528.517 780.927 536.503 784.466 544.2 C 791.635 559.484 801.83 573.149 814.442 584.371 C 821.647 590.734 829.408 596.44 837.631 601.421 C 846.719 606.882 856.161 611.724 865.9 615.915 C 878.859 621.678 892.127 627.271 903.415 636.001 L 903.244 636.001 C 907.658 639.434 911.637 643.384 915.112 647.766 L 915.112 647.766 L 915.896 648.822 C 915.896 648.822 915.896 648.822 915.896 648.822 C 907.133 634.842 893.56 625.259 879.712 616.835 C 872.721 612.574 865.559 608.549 858.604 604.184 C 851.647 599.819 845.815 595.693 839.711 591.021 C 828.266 582.288 817.957 572.159 809.019 560.875 C 801.289 550.55 794.851 539.317 789.855 527.422 C 784.589 514.255 780.395 500.683 777.305 486.841 C 773.417 470.303 770.483 453.524 767.518 436.814 L 767.518 436.814 Z M 790.093 527.558 L 790.469 528.479 L 790.093 527.558 Z M 915.146 647.663 L 915.146 647.663 Z" transform="matrix(-0.901157, -0.433493, 0.433493, -0.901157, 1364.950502, 1396.662526)"/>
    <path class="cls-3" d="M 715.055 413.032 C 702.37 439.808 683.277 463.045 659.47 480.689 L 661.004 479.496 C 653.639 485.156 646 490.477 638.26 495.66 C 629.986 501.229 621.676 506.753 613.331 512.233 C 598.36 522.054 583.22 531.67 569 542.413 C 555.042 552.378 542.504 564.193 531.727 577.537 C 523.099 588.722 516.313 602.601 517.779 617.061 C 517.779 617.061 517.779 617.061 517.779 617.061 C 517.779 616.276 517.779 615.491 518.018 614.708 L 518.018 614.708 C 518.533 611.123 519.499 607.618 520.883 604.272 C 522.905 599.672 525.493 595.341 528.59 591.382 L 528.59 591.382 C 534.499 584.135 541.255 577.622 548.71 571.979 C 563.69 561.038 579.363 551.081 595.633 542.174 C 603.169 537.809 610.569 533.24 617.935 528.534 C 626.494 523.249 634.985 517.962 643.408 512.233 C 659.282 501.744 673.571 489.031 685.83 474.483 C 691.908 467.086 697.211 459.09 701.653 450.612 C 706.328 441.497 710.077 431.935 712.838 422.069 C 713.691 419.069 714.442 416.033 715.157 412.998 C 715.157 412.998 715.157 412.998 715.157 412.998 Z M 549.596 571.365 L 549.084 571.774 L 549.596 571.365 Z" transform="matrix(-0.740099, 0.672498, -0.672498, -0.740099, 1418.897478, 481.695815)"/>
  </g>
</svg>