<svg id="Layer_1" data-name="Layer 1" xmlns="http://www.w3.org/2000/svg" viewBox="0 0 288 288"><defs><style>.cls-1{fill:#fee292;}.cls-2{fill:#231f20;}.cls-3{fill:#d61f2c;}.cls-4{fill:#7c1316;}.cls-5{fill:#f69daa;}.cls-6{fill:#2d2d2c;}</style></defs><title>heart tattoo</title><path class="cls-1" d="M202,150.1a82.27,82.27,0,0,1,35.25-17.8,26.15,26.15,0,0,0-18.8-3.41s1.6-7.41,10.24-14.07c0,0-14.69,3.4-27.16,12.06"/><path class="cls-2" d="M202.28,150.39l-.56-.6a83.54,83.54,0,0,1,34.45-17.68,25.89,25.89,0,0,0-17.64-2.84.4.4,0,0,1-.38-.11.41.41,0,0,1-.11-.38c.06-.29,1.54-6.78,8.92-13.11-4.31,1.21-15.49,4.78-25.2,11.52l-.47-.67c12.39-8.6,27.15-12.09,27.3-12.12a.41.41,0,0,1,.34.72c-7,5.38-9.32,11.31-9.92,13.21a26.9,26.9,0,0,1,18.46,3.6.41.41,0,0,1-.14.74A82.57,82.57,0,0,0,202.28,150.39Z"/><path class="cls-1" d="M74.91,176.93s-4,8.25-24.16,20.59c0,0,10,1.68,16.41-1.3,0,0,.21,8.37-5.47,13.39,0,0,28.36-9.21,39.72-32"/><path class="cls-2" d="M61.69,210a.41.41,0,0,1-.27-.71c4.59-4.06,5.23-10.46,5.32-12.46-6.45,2.64-15.66,1.14-16.06,1.07a.41.41,0,0,1-.15-.75c19.78-12.14,24-20.34,24-20.42l.73.36c-.17.34-4.2,8.23-23.34,20.16,2.77.33,10.08.89,15.06-1.42a.41.41,0,0,1,.58.36c0,.32.13,7.31-4.3,12.4,6.27-2.42,28.22-12,37.78-31.16l.73.37c-11.31,22.66-39.68,32.1-40,32.19Z"/><path class="cls-3" d="M143.18,216.31l-.06,0-.07,0c-3.63-1.44-75.93-30.93-67.74-86.84,1.64-11.18,5.22-22.72,16.18-28,15-7.18,32.62,3.49,44.42,12.4-.26-.19,14.62-11.84,15.77-12.53,8-4.83,16.83-8.86,26.31-6,11.64,3.47,16.93,14.71,20.1,25.51C214,175.07,146.54,214.39,143.18,216.31Z"/><path class="cls-2" d="M143.2,217.22a.87.87,0,0,1-.27,0l-.23-.08c-3.46-1.37-76.56-31.16-68.26-87.78C76,119,79.22,106.4,91.11,100.7c11.73-5.62,26.36-1.68,44.72,12,.9-.83,2.84-2.4,7-5.69,3.58-2.82,7.73-6,8.4-6.43,7.77-4.69,17.05-9.09,27-6.13,12.79,3.81,17.94,16.72,20.7,26.1a59.73,59.73,0,0,1-1.4,38.08c-3.72,10.18-10.11,20.32-19,30.12a156.93,156.93,0,0,1-34.91,28.29h0l-.15.07A.94.94,0,0,1,143.2,217.22Zm.23-1.7Zm-.72,0h0Zm0,0h0Zm-43-115.42a23.2,23.2,0,0,0-7.89,2.18c-11.14,5.34-14.24,17.4-15.69,27.3-7.93,54.13,60.86,83.32,66.87,85.76,5.72-3.34,69.57-42,54.19-94.27-5.52-18.76-13.78-23.2-19.51-24.91-9.3-2.77-18.16,1.45-25.6,5.94-1,.62-14.22,10.95-15.46,12.21l-.06.1a.88.88,0,0,1-1.24.17C121.31,104,109.56,99.18,99.76,100.11Z"/><polygon class="cls-2" points="83.8 243.35 102.08 203.48 102.84 218.88 118.15 216.99 83.8 243.35"/><polygon class="cls-2" points="186.36 82.17 204.77 54.81 209.13 69.49 224.13 67.09 205.26 92.02 192.75 92.39 186.36 82.17"/><path class="cls-4" d="M148.79,209.61s41.41-31.69,43.61-50.28a19.27,19.27,0,0,1-5.1.46C183.66,159.79,181.23,178,148.79,209.61Z"/><path class="cls-4" d="M186.36,123.95s2.39-21.32-13.64-25c0,0-15.16-5.27-34.9,16.93,0,0,16.24-20.88,37.65-19.15,15.38,1.24,19.77,23.7,19.77,23.7Z"/><path class="cls-2" d="M129,163.16l-7.14,1.3-.17-1,2.41-.44-3-16.72-4.54,10.35a11.2,11.2,0,0,1,2.57,5.13,4.8,4.8,0,0,1-.19,2.54,2.08,2.08,0,0,1-1.69,1.42,2.42,2.42,0,0,1-2.18-.61,3.69,3.69,0,0,1-1.15-2.13,8.36,8.36,0,0,1,.85-4.7l-8.18-9,3,16.33,2.28-.41.17,1-5.59,1-.17-1,2.35-.43-3.14-17.32-2.35.43-.17-1,5-.91,7.94,8.73,4.85-11.05,4.82-.88.17,1-2.28.41,3.14,17.32,2.28-.41Zm-11.2,0a9.51,9.51,0,0,0-2.33-4,6.19,6.19,0,0,0-.62,3.73,2.91,2.91,0,0,0,.75,1.52,1.51,1.51,0,0,0,1.45.47Q118.11,164.66,117.84,163.14Z"/><path class="cls-2" d="M143,143.52a10.77,10.77,0,0,1,2.49,13.8,8.53,8.53,0,0,1-12.79,2.32,10.77,10.77,0,0,1-2.52-13.79A8.53,8.53,0,0,1,143,143.52Zm1.28,7.07a12.16,12.16,0,0,0-.94-2.92,14.24,14.24,0,0,0-1.66-2.74,6.34,6.34,0,0,0-2.43-1.93,5.11,5.11,0,0,0-6.31,1.74,8.8,8.8,0,0,0-1.58,3.82,12,12,0,0,0,0,4,13.54,13.54,0,0,0,1.36,3.9,8.8,8.8,0,0,0,2.79,3.15,5.14,5.14,0,0,0,6.55-.47,6.44,6.44,0,0,0,1.64-2.55,12.67,12.67,0,0,0,.66-3A11,11,0,0,0,144.27,150.59Z"/><path class="cls-2" d="M172.73,155.22l-7.14,1.3-.17-1,2.41-.44-3-16.72-4.54,10.35a11.2,11.2,0,0,1,2.57,5.13,4.79,4.79,0,0,1-.19,2.54,2.08,2.08,0,0,1-1.69,1.42,2.42,2.42,0,0,1-2.18-.61,3.68,3.68,0,0,1-1.15-2.13,8.36,8.36,0,0,1,.85-4.7l-8.18-9,3,16.33,2.28-.41.17,1-5.59,1-.17-1,2.35-.43-3.14-17.32-2.35.43-.17-1,5-.91,7.94,8.73,4.85-11.05,4.82-.88.17,1-2.28.41,3.14,17.32,2.28-.41Zm-11.2,0a9.51,9.51,0,0,0-2.33-4,6.19,6.19,0,0,0-.62,3.73,2.91,2.91,0,0,0,.75,1.52,1.51,1.51,0,0,0,1.45.47Q161.8,156.73,161.53,155.21Z"/><path class="cls-2" d="M102.95,222.54a2.36,2.36,0,0,1-2.15-3.69L211.35,60.37a2.35,2.35,0,0,1,3.86,2.69L104.65,221.54A2.35,2.35,0,0,1,102.95,222.54Z"/><path class="cls-3" d="M125.68,179.84a9.78,9.78,0,0,0,8.54,6.87c7,.71,48.43-66.72,48.43-66.72s-10.21.38-11.05-8.41S125.68,179.84,125.68,179.84Z"/><path class="cls-2" d="M131.64,187.69a.88.88,0,0,1-.36,0c-7.51-2.47-6.94-7.56-6.91-7.78a.88.88,0,0,1,1.75.22c0,.17-.33,3.9,5.71,5.88a.88.88,0,0,1-.19,1.72Z"/><path class="cls-2" d="M179.08,120.44a.88.88,0,0,1-.26,0c-7.73-1.61-7.74-6.74-7.74-7a.88.88,0,0,1,1.77,0c0,.18.11,3.91,6.33,5.21a.88.88,0,0,1-.1,1.74Z"/><path class="cls-2" d="M87.21,188.21a9,9,0,0,1-8.28-3.85l-8.77-12.82A11.79,11.79,0,0,1,74,154.65c14.81-8.49,44-22.83,72.91-23.37a129.63,129.63,0,0,0,50.17-11.67,3.07,3.07,0,0,1,4.33,2.26l3.76,21.8a13.59,13.59,0,0,1-8.27,14.91c-7,2.89-19.55,6.73-39.33,8.62h0c-3.32.32-6.67.51-10,.57-23,.43-49.25,14.85-56.75,19.26A8.89,8.89,0,0,1,87.21,188.21Zm52.48-54.75c-26.07,2.49-51.37,15-64.78,22.72a10,10,0,0,0-3.29,14.37l8.77,12.81A7.22,7.22,0,0,0,90,185.5c7.6-4.46,34.21-19.06,57.62-19.5,3.24-.06,6.55-.25,9.82-.56h0c19.56-1.87,31.91-5.65,38.82-8.5a11.84,11.84,0,0,0,7.2-13l-3.76-21.8a1.31,1.31,0,0,0-1.84-1A131.47,131.47,0,0,1,147,133C144.54,133.09,142.11,133.23,139.69,133.46Z"/><path class="cls-1" d="M79.66,183.86,70.88,171a10.91,10.91,0,0,1,3.58-15.63c14.8-8.49,43.77-22.71,72.49-23.26a131.33,131.33,0,0,0,50.53-11.75,2.19,2.19,0,0,1,3.08,1.61l3.76,21.8a12.78,12.78,0,0,1-7.74,13.94c-7.4,3-19.78,6.72-39.07,8.56-3.22.31-6.52.5-9.9.57-20.58.39-44.38,11.86-57.19,19.38A8.08,8.08,0,0,1,79.66,183.86Z"/><path class="cls-5" d="M83.8,126s2.82-25.23,27.2-22C111,103.93,92.65,108.27,83.8,126Z"/><path class="cls-6" d="M124.64,145.35h-.07c-1.54.44-3.14.74-4.68,1l-.91.17a.67.67,0,0,0,.18,1.34h.05l.59-.11a.81.81,0,0,0-.15.24l-.63,1.39c-.47,1-.95,2.08-1.39,3.13a33.12,33.12,0,0,0-1.32,3.62c-1-1-2-2.11-3-3.17s-2.1-2.33-3.22-3.43l0,0-.08-.08v0l.42-.08a.66.66,0,0,0,.43-.27.67.67,0,0,0-.63-1.06h0a22.09,22.09,0,0,0-2.35.54c-.74.2-1.53.45-2.5.77a.64.64,0,0,0-.34.38.68.68,0,0,0,.4.87l.07,0,.1,0h.13a.68.68,0,0,0,.22-.06l.62-.2v.18h0c.1,1.7.3,3.48.6,5.43.42,2.69,1,5.3,1.49,7.72.18.8.36,1.62.53,2.39l-.85.17a.69.69,0,0,0-.44.28.68.68,0,0,0-.11.5.69.69,0,0,0,.72.56h.06l1.5-.3c.88-.17,1.79-.35,2.67-.58a.7.7,0,0,0,.43-.28.68.68,0,0,0-.61-1.06h-.07l-.24.06c-.53-2.76-.87-5.59-1.19-8.34h0c-.2-1.68-.41-3.43-.66-5.13v-.17c.66.7,1.31,1.43,1.95,2.13,1.06,1.18,2.16,2.4,3.32,3.53l-.45.07a.63.63,0,0,0-.42.26.69.69,0,0,0-.12.52.67.67,0,0,0,.75.55h0a22.91,22.91,0,0,0,2.57-.57.71.71,0,0,0,.43-.28.68.68,0,0,0-.61-1.06h-.07l-.29.08a32,32,0,0,1,1.42-4c.44-1,.92-2.11,1.35-3,.54,2.64.87,5.36,1.2,8,.16,1.29.33,2.63.51,3.94.08.55.16,1.11.25,1.64l-1.13.31-.09,0-.09,0a.67.67,0,0,0-.1,1.16.69.69,0,0,0,.44.12h.07c1.19-.36,2.43-.62,3.62-.88.64-.14,1.31-.28,2-.43a.7.7,0,0,0,.43-.28.68.68,0,0,0-.6-1.06h-.07l-.57.13c-.29-2.6-.74-5.22-1.17-7.75-.33-1.94-.67-3.94-.94-5.92-.09-.69-.18-1.36-.25-2l1.06-.28.09,0,.09,0a.67.67,0,0,0,.1-1.16.69.69,0,0,0-.44-.12Z"/><path class="cls-6" d="M145.76,151.07a12.57,12.57,0,0,0-3.85-6.07,8.29,8.29,0,0,0-2.95-1.67,5.39,5.39,0,0,0-3.36,0,7,7,0,0,0-3.4,3.21,12.06,12.06,0,0,0-1.72,6.51c.21,4.89,4.33,9.3,9.43,8.71a7.25,7.25,0,0,0,5.82-4.29,9.1,9.1,0,0,0,.35-5.06A13.69,13.69,0,0,0,145.76,151.07Zm-2.82,2.65a8,8,0,0,1-.34,2.82,7.19,7.19,0,0,1-1.51,2.61,3.78,3.78,0,0,1-2.14,1.32,3.63,3.63,0,0,1-2.63-.83,4.92,4.92,0,0,1-1.67-2.53,15.74,15.74,0,0,1-1-6.65,9.81,9.81,0,0,1,.76-3.35,4.63,4.63,0,0,1,1.33-1.79,2.73,2.73,0,0,1,2.11-.59,3.86,3.86,0,0,1,2.17,1.54,13.21,13.21,0,0,1,2.75,6A11.27,11.27,0,0,1,142.94,153.72Z"/><path class="cls-6" d="M171.22,154.17a.74.74,0,0,0-.41-.48,1.12,1.12,0,0,0-1,.14,119.36,119.36,0,0,1-2.09-16,.66.66,0,0,0,.34-1.23,1.34,1.34,0,0,0-1,0l-4.82,1.09a1.06,1.06,0,0,0-.69.35.64.64,0,0,0,.21.84,1,1,0,0,0,.93,0q-1.55,4.55-2.84,9.18a77.72,77.72,0,0,1-6.62-7.51.65.65,0,0,0,.15-1.29,1.32,1.32,0,0,0-.71.07l-4.43,1.31a1,1,0,0,0-.65.4.64.64,0,0,0,.34.81,1.26,1.26,0,0,0,1,0q1,8.19,2.6,16.28a1.73,1.73,0,0,0-.84.38.73.73,0,0,0-.08.9c.25.27.78.13,1.08.05l4.56-1.18a1.12,1.12,0,0,0,.77-.45.66.66,0,0,0-.24-.81.93.93,0,0,0-.89,0,108.8,108.8,0,0,1-2.48-14l6,6.57a1.17,1.17,0,0,0-.78.54.65.65,0,0,0,.21.86,1,1,0,0,0,.82,0l1.47-.51a1.31,1.31,0,0,0,.61-.34.69.69,0,0,0-.63-1.05,65.79,65.79,0,0,1,2.31-7.67c.76,4.54,1.18,9.13,1.6,13.72-.45,0-1,.16-1.1.6a.72.72,0,0,0,.54.74,2.1,2.1,0,0,0,1,0,22.27,22.27,0,0,0,5.24-1.39,1,1,0,0,0,.55-.42A.55.55,0,0,0,171.22,154.17Z"/></svg>