<?xml version="1.0" encoding="UTF-8" standalone="no"?>
<!DOCTYPE svg PUBLIC "-//W3C//DTD SVG 1.1//EN" "http://www.w3.org/Graphics/SVG/1.1/DTD/svg11.dtd">
<svg width="100%" height="100%" viewBox="0 0 360 360" version="1.1" xmlns="http://www.w3.org/2000/svg" xmlns:xlink="http://www.w3.org/1999/xlink" xml:space="preserve" xmlns:serif="http://www.serif.com/" style="fill-rule:evenodd;clip-rule:evenodd;stroke-linejoin:round;">
    <g transform="matrix(1,0,5.75928e-18,0.965116,3.66667,-43.3566)">
        <ellipse cx="178" cy="286" rx="161.333" ry="57.333" style="fill:rgb(49,50,61);fill-opacity:0.301961;"/>
    </g>
    <g transform="matrix(1.54844,0,0,0.772936,-648.412,-1895.85)">
        <g id="Layer17">
            <g>
                <g transform="matrix(1,0,0,1,18.9438,-415.731)">
                    <g id="dp_path003" transform="matrix(0.186335,0,0,0.373289,342.863,829.397)">
                        <path d="M919.515,6104.07C919.057,6104.68 918.769,6105.39 918.695,6106.24C918.451,6108.97 918.268,6112.65 918.149,6117.03C884.596,6129.38 806.307,6138.93 714.944,6140.45C623.544,6141.97 544.953,6135 511.033,6123.77C510.775,6119.66 510.484,6116.2 510.167,6113.6C510.039,6112.56 509.596,6111.73 508.923,6111.08L919.515,6104.07ZM492.157,6110.4C492.324,6109.95 492.481,6109.53 492.629,6109.13C492.928,6109.1 493.245,6109.07 493.577,6109.05C500.488,6091.68 596.36,6076.43 713.851,6074.48C829.955,6072.56 925.391,6084.31 934.847,6101.12C935.277,6101.15 935.688,6101.17 936.075,6101.19C938.648,6107.5 986.049,6147.19 990.903,6152.67C995.343,6157.68 995.875,6165.29 997.568,6171.61C999.232,6177.83 1002.85,6184.42 1001.06,6190.6C999.056,6197.51 992.611,6207.33 985.555,6213.08C976.94,6220.11 959.623,6228.86 949.368,6232.73C944.781,6234.47 937.763,6238.13 932.239,6239.37C909.9,6254.38 822.125,6266.76 717.068,6268.5C613.981,6270.21 527.188,6261.13 502.403,6247.31C496.692,6246.64 488.732,6242.76 483.704,6241.05C473.327,6237.51 455.729,6229.34 446.885,6222.6C439.643,6217.09 432.876,6207.49 430.645,6200.65C428.652,6194.53 432.047,6187.82 433.504,6181.55C434.987,6175.18 435.265,6167.55 439.537,6162.4C444.207,6156.77 489.672,6117.09 492.157,6110.4Z" style="fill:rgb(75,75,77);stroke:rgb(49,50,61);stroke-width:8.03px;"/>
                    </g>
                    <g id="dp_path004" transform="matrix(0.219831,0,0,0.385553,318.262,755.83)">
                        <path d="M713.392,6120.52C813.753,6118.85 895.413,6135.62 895.784,6157.97C896.153,6180.33 815.095,6204.95 714.735,6206.62C614.373,6208.28 532.713,6186.35 532.343,6164C531.972,6141.65 613.031,6122.18 713.392,6120.52Z" style="fill:rgb(49,50,61);stroke:rgb(49,50,61);stroke-width:1.73px;"/>
                    </g>
                    <g id="dp_path005" transform="matrix(0.186335,0,0,0.373289,342.863,829.397)">
                        <path d="M445.716,6189.37C468.913,6202.47 515.305,6228.69 553.841,6236.47C600.42,6245.88 668.837,6247.58 725.195,6245.79C781.163,6244.02 848.579,6236.9 891.983,6225.75C925.785,6217.07 965.673,6191.63 985.617,6178.91" style="fill:none;stroke:rgb(49,50,61);stroke-width:5.33px;"/>
                    </g>
                    <g id="dp_path006" transform="matrix(0.186335,0,0,0.373289,342.863,835.369)">
                        <path d="M706.8,6013.79C843.877,6011.52 955.621,6047.1 956.387,6093.27C957.152,6139.44 846.649,6178.71 709.572,6180.98C572.495,6183.26 460.751,6147.67 459.985,6101.5C459.22,6055.33 569.723,6016.06 706.8,6013.79Z" style="fill:rgb(177,177,190);stroke:rgb(49,50,61);stroke-width:8.03px;"/>
                    </g>
                    <g id="dp_path007" transform="matrix(0.186335,0,0,0.373289,342.863,835.369)">
                        <path d="M702.543,5896.81L704.039,5896.78L705.511,5896.76L706.979,5896.75L708.447,5896.73L711.373,5896.73L712.832,5896.74L714.291,5896.76L715.745,5896.78L718.647,5896.84L720.095,5896.88L721.54,5896.92L722.981,5896.97L724.42,5897.03L725.857,5897.09L727.292,5897.16L728.724,5897.24L730.152,5897.32L731.579,5897.41L733.001,5897.5L734.421,5897.6L735.84,5897.71L737.255,5897.82L738.667,5897.93L740.076,5898.06L741.481,5898.19L742.885,5898.32L744.284,5898.46L745.681,5898.61L747.076,5898.76L748.465,5898.92L749.855,5899.09L751.239,5899.26L752.62,5899.43L753.997,5899.61L755.373,5899.8L756.745,5900L758.113,5900.2L759.48,5900.4L760.841,5900.61L762.2,5900.83L763.556,5901.05L764.907,5901.28L766.256,5901.52L767.601,5901.75L768.941,5902L770.28,5902.25L771.615,5902.51L772.944,5902.77L774.272,5903.04L775.596,5903.32L776.916,5903.6L778.232,5903.88L779.544,5904.17L780.853,5904.47L782.157,5904.77L783.459,5905.08L784.757,5905.4L786.051,5905.72L787.341,5906.04L788.625,5906.37L789.908,5906.71L791.187,5907.05L792.46,5907.4L793.731,5907.75L794.997,5908.11L796.259,5908.47L797.516,5908.84L798.771,5909.22L800.02,5909.6L801.264,5909.98L802.507,5910.38L803.744,5910.77L804.976,5911.17L806.205,5911.58L807.429,5912L808.648,5912.42L809.864,5912.84L811.075,5913.27L812.281,5913.71L813.484,5914.15L814.683,5914.59L815.875,5915.04L817.064,5915.5L818.248,5915.97L819.428,5916.43L820.604,5916.91L821.775,5917.38L822.939,5917.87L824.1,5918.36L825.257,5918.85L826.409,5919.35L827.556,5919.85L828.697,5920.36L829.836,5920.88L830.968,5921.4L832.096,5921.93L833.219,5922.46L834.335,5922.99L835.448,5923.54L836.556,5924.08L837.66,5924.63L838.757,5925.19L839.849,5925.75L840.937,5926.32L842.02,5926.9L843.096,5927.47L844.169,5928.06L845.236,5928.65L846.299,5929.24L847.355,5929.84L848.407,5930.44L849.452,5931.05L850.492,5931.66L851.528,5932.28L852.557,5932.91L853.583,5933.54L854.601,5934.17L855.615,5934.81L856.623,5935.45L857.624,5936.1L858.621,5936.76L859.613,5937.42L860.599,5938.08L861.579,5938.75L862.553,5939.42L863.521,5940.1L864.485,5940.79L865.443,5941.48L866.393,5942.17L867.34,5942.87L868.28,5943.57L869.213,5944.28L870.141,5944.99L871.064,5945.71L871.981,5946.44L872.891,5947.17L873.796,5947.9L874.695,5948.64L875.585,5949.38L876.473,5950.13L877.353,5950.88L878.227,5951.64L879.095,5952.4L879.957,5953.17L880.812,5953.94L881.661,5954.71L882.504,5955.5L883.341,5956.28L884.172,5957.07L884.995,5957.87L885.813,5958.67L886.624,5959.47L887.429,5960.28L888.228,5961.1L889.02,5961.92L889.805,5962.74L890.585,5963.57L891.357,5964.4L892.123,5965.24L892.881,5966.08L893.635,5966.93L894.38,5967.78L895.119,5968.64L895.852,5969.5L896.577,5970.37L897.297,5971.23L898.009,5972.11L898.715,5972.99L899.413,5973.87L900.105,5974.76L900.789,5975.65L901.467,5976.55L902.139,5977.45L902.801,5978.36L903.459,5979.27L904.108,5980.19L904.751,5981.11L905.387,5982.03L906.015,5982.96L906.636,5983.89L907.251,5984.83L907.857,5985.77L908.457,5986.72L909.048,5987.67L909.635,5988.63L910.212,5989.59L910.783,5990.55L911.345,5991.52L911.9,5992.49L912.449,5993.47L912.991,5994.45L913.524,5995.44L914.048,5996.43L914.568,5997.42L915.079,5998.42L915.581,5999.43L916.076,6000.43L916.564,6001.45L917.044,6002.46L917.517,6003.48L917.981,6004.51L918.439,6005.54L918.887,6006.57L919.328,6007.61L919.763,6008.65L920.189,6009.69L920.607,6010.74L921.016,6011.8L921.419,6012.86L921.812,6013.92L922.197,6014.99L922.576,6016.06L922.945,6017.13L923.308,6018.21L923.661,6019.29L924.008,6020.38L924.344,6021.47L924.675,6022.57L924.995,6023.67L925.308,6024.77L925.613,6025.88L925.908,6026.99L926.196,6028.11L926.476,6029.23L926.747,6030.35L927.011,6031.48L927.264,6032.61L927.509,6033.75L927.748,6034.89L927.976,6036.03L928.196,6037.18L928.409,6038.33L928.612,6039.49L928.807,6040.65L928.992,6041.81L929.169,6042.98L929.337,6044.15L929.497,6045.33L929.648,6046.5L929.791,6047.69L929.924,6048.87L930.048,6050.07L930.079,6050.38C938.141,6058.6 942.584,6067.47 942.739,6076.77C943.504,6122.94 838.239,6162.13 707.624,6164.29C577.009,6166.46 470.503,6130.79 469.737,6084.62C469.563,6074.11 474.875,6063.97 484.728,6054.55L484.784,6053.8L484.88,6052.63L484.985,6051.46L485.1,6050.3L485.224,6049.14L485.356,6047.98L485.497,6046.83L485.648,6045.68L485.807,6044.53L485.975,6043.39L486.153,6042.25L486.339,6041.11L486.533,6039.98L486.737,6038.85L486.948,6037.72L487.169,6036.6L487.399,6035.48L487.637,6034.37L487.884,6033.25L488.14,6032.14L488.404,6031.04L488.676,6029.94L488.957,6028.84L489.248,6027.74L489.545,6026.65L489.852,6025.57L490.167,6024.48L490.491,6023.4L490.821,6022.33L491.163,6021.25L491.511,6020.18L491.867,6019.12L492.233,6018.05L492.605,6017L492.987,6015.94L493.377,6014.89L493.773,6013.85L494.18,6012.8L494.595,6011.76L495.016,6010.73L495.447,6009.69L495.884,6008.67L496.331,6007.64L496.784,6006.62L497.247,6005.6L497.717,6004.59L498.195,6003.58L498.68,6002.58L499.173,6001.57L499.676,6000.58L500.184,5999.58L500.701,5998.59L501.225,5997.61L501.757,5996.63L502.297,5995.65L502.845,5994.67L503.401,5993.7L503.964,5992.74L504.533,5991.78L505.111,5990.82L505.696,5989.86L506.291,5988.91L506.889,5987.97L507.497,5987.03L508.115,5986.09L508.736,5985.16L509.365,5984.23L510.003,5983.3L510.648,5982.38L511.3,5981.46L511.959,5980.55L512.625,5979.64L513.299,5978.74L513.98,5977.84L514.667,5976.94L515.363,5976.05L516.064,5975.16L516.773,5974.28L517.489,5973.4L518.212,5972.53L518.943,5971.66L519.68,5970.79L520.424,5969.93L521.175,5969.07L521.932,5968.22L522.697,5967.37L523.468,5966.52L524.247,5965.68L525.031,5964.85L525.823,5964.02L526.621,5963.19L527.427,5962.37L528.237,5961.55L529.057,5960.74L529.881,5959.93L530.712,5959.12L531.552,5958.32L532.395,5957.53L533.247,5956.74L534.105,5955.95L534.968,5955.17L535.839,5954.39L536.716,5953.62L537.599,5952.85L538.488,5952.09L539.384,5951.33L540.287,5950.57L541.195,5949.83L542.109,5949.08L543.029,5948.34L543.957,5947.61L544.889,5946.87L545.831,5946.15L546.775,5945.43L547.725,5944.71L548.684,5944L549.648,5943.29L550.617,5942.59L551.592,5941.89L552.573,5941.2L553.561,5940.51L554.555,5939.83L555.553,5939.15L556.559,5938.48L557.568,5937.81L558.585,5937.14L559.608,5936.49L560.635,5935.83L561.669,5935.18L562.709,5934.54L563.753,5933.9L564.804,5933.27L565.86,5932.64L566.921,5932.01L567.989,5931.39L569.061,5930.78L570.14,5930.17L571.224,5929.57L572.312,5928.97L573.407,5928.37L574.507,5927.78L575.611,5927.2L576.723,5926.62L577.837,5926.05L578.959,5925.48L580.085,5924.92L581.216,5924.36L582.353,5923.8L583.496,5923.26L584.643,5922.71L585.795,5922.18L586.952,5921.64L588.115,5921.12L589.281,5920.6L590.453,5920.08L591.631,5919.57L592.813,5919.06L594.001,5918.56L595.192,5918.07L596.389,5917.58L597.592,5917.09L598.797,5916.61L600.009,5916.14L601.225,5915.67L602.447,5915.21L603.672,5914.75L604.901,5914.3L606.136,5913.85L607.376,5913.41L608.62,5912.97L609.869,5912.54L611.121,5912.11L612.38,5911.69L613.641,5911.28L614.908,5910.87L616.179,5910.47L617.455,5910.07L618.735,5909.68L620.019,5909.29L621.308,5908.91L622.6,5908.54L623.897,5908.17L625.199,5907.8L626.504,5907.44L627.815,5907.09L629.129,5906.75L630.448,5906.4L631.769,5906.07L633.095,5905.74L634.427,5905.41L635.761,5905.1L637.099,5904.78L638.441,5904.47L639.788,5904.17L641.137,5903.88L642.492,5903.59L643.851,5903.3L645.213,5903.03L646.577,5902.75L647.948,5902.49L649.321,5902.23L650.697,5901.97L652.08,5901.72L653.463,5901.48L654.852,5901.24L656.243,5901.01L657.64,5900.79L659.039,5900.57L660.441,5900.35L661.848,5900.15L663.257,5899.94L664.669,5899.75L666.085,5899.56L667.505,5899.37L668.929,5899.2L670.356,5899.03L671.785,5898.86L673.22,5898.7L674.657,5898.55L676.096,5898.4L677.54,5898.26L678.985,5898.13L680.435,5898L681.888,5897.87L683.344,5897.76L684.803,5897.65L686.264,5897.54L687.729,5897.45L689.197,5897.35L690.669,5897.27L692.143,5897.19L693.62,5897.12L695.1,5897.05L696.583,5896.99L698.069,5896.93L699.556,5896.89L701.048,5896.85L702.543,5896.81Z" style="fill:url(#_Linear1);stroke:rgb(49,50,61);stroke-width:8.03px;"/>
                    </g>
                    <g id="dp_path008" transform="matrix(0.186335,0,0,0.373289,342.863,836.116)">
                        <path d="M488.665,6071.77C479.513,5976.86 568.496,5910.91 689.991,5899.19C811.484,5887.46 918.726,5954.9 927.88,6049.81C920.172,5969.89 812.78,5904.95 692.608,5926.34C581.092,5946.18 499.301,6006.37 488.665,6071.77Z" style="fill:url(#_Linear2);"/>
                    </g>
                    <g id="dp_path009" transform="matrix(0.186335,0,0,0.373289,342.863,835.369)">
                        <path d="M695.151,5846.4L686.903,5846.54C682.637,5846.61 679.124,5843.21 679.053,5838.94C678.983,5834.68 682.381,5831.16 686.647,5831.09L729.468,5830.38C733.733,5830.31 737.247,5833.71 737.317,5837.98C737.388,5842.24 733.989,5845.76 729.724,5845.83L721.476,5845.97L722.389,5901.12C722.428,5903.43 720.585,5905.33 718.273,5905.37L700.32,5905.67C698.009,5905.71 696.104,5903.86 696.065,5901.55L695.151,5846.4Z" style="fill:rgb(177,177,190);stroke:rgb(49,50,61);stroke-width:8.03px;"/>
                    </g>
                    <g id="dp_path010" transform="matrix(0.186335,0,0,0.373289,342.863,835.369)">
                        <path d="M707.692,5874.97C728.531,5874.63 745.644,5887.71 745.917,5904.19C746.191,5920.67 729.52,5934.31 708.681,5934.66C687.843,5935.01 670.729,5921.92 670.456,5905.44C670.183,5888.96 686.853,5875.32 707.692,5874.97Z" style="fill:rgb(177,177,190);stroke:rgb(49,50,61);stroke-width:7.68px;"/>
                    </g>
                    <g id="dp_path011" transform="matrix(0.185924,-0.0248048,0.0123819,0.372464,269.667,858.357)">
                        <path d="M678.697,5912.31C676.116,5896.82 684.28,5881.66 703.512,5878.46C722.743,5875.25 740.428,5885.2 743.009,5900.69C741.057,5888.98 723.884,5882.09 704.652,5885.3C685.421,5888.51 676.745,5900.6 678.697,5912.31Z" style="fill:rgb(199,199,200);stroke:rgb(255,254,249);stroke-width:0.13px;"/>
                    </g>
                    <g id="dp_path012" transform="matrix(0.186335,0,0,0.373289,342.677,835.742)">
                        <path d="M683.845,5836.47C683.823,5834.91 685.063,5833.64 686.613,5833.61L719.445,5833.14C720.997,5833.12 722.272,5834.36 722.295,5835.91C722.317,5837.46 721.079,5838.73 719.527,5838.76L686.696,5839.23C685.144,5839.26 683.868,5838.02 683.845,5836.47Z" style="fill:rgb(199,199,200);"/>
                    </g>
                    <g id="dp_path013" transform="matrix(0.186335,0,0,0.373289,342.863,835.369)">
                        <path d="M487.752,6069.33C487.752,6108.44 586.916,6140.14 709.24,6140.14C831.564,6140.14 930.728,6108.44 930.728,6069.33C930.728,6101.63 831.564,6127.82 709.24,6127.82C586.916,6127.82 487.752,6101.63 487.752,6069.33Z" style="fill:url(#_Linear3);stroke:rgb(255,254,249);stroke-width:0.13px;"/>
                    </g>
                </g>
                <g transform="matrix(1,0,0,1,-73.6226,-423.493)">
                    <g transform="matrix(0.162177,-0.00411514,0.00202603,0.328144,391.336,2342.66)">
                        <path d="M1155.84,2635.41L1248,2711.72C1258.5,2717.86 1283.18,2723.84 1300.67,2723.05L1357.67,2726.05L1484.67,2724.05L1641.67,2724.05L1706.67,2726.05C1724.12,2723.74 1737.69,2718.58 1746.67,2710.05L1815.61,2643.3L1155.84,2635.41Z" style="fill:rgb(238,248,248);stroke:rgb(49,50,61);stroke-width:9.91px;stroke-linecap:round;stroke-miterlimit:1.5;"/>
                    </g>
                    <g transform="matrix(0.162161,-0.00611018,0.0030198,0.328113,388.695,2341.07)">
                        <path d="M1110.33,2477.22C1389.98,2556.46 1640.01,2544.72 1855.67,2485.22C1882.15,2585.09 1917.96,2644.37 1971.67,2637.22C1744.24,2749.66 1220.59,2739.1 1021,2619.89L1065.41,2583.31L1110.33,2477.22Z" style="fill:white;stroke:rgb(49,50,61);stroke-width:9.91px;stroke-linecap:round;stroke-miterlimit:1.5;"/>
                    </g>
                    <g transform="matrix(0.162161,-0.00611018,0.0030198,0.328113,388.695,2341.07)">
                        <path d="M1970.55,2640.49C1970.55,2642.32 1956.09,2634.43 1948.75,2636.37C1855.99,2660.89 1719.02,2711.33 1516.43,2713.7C1282.93,2716.45 1074.06,2640.47 1028.02,2611.44C1027.01,2613.06 1010.9,2622.72 1016.42,2621.83C1488.08,2844.6 1970.21,2643.73 1970.55,2640.49Z" style="fill:white;stroke:rgb(49,50,61);stroke-width:9.91px;stroke-linecap:round;stroke-miterlimit:1.5;"/>
                    </g>
                </g>
                <g transform="matrix(1,0,0,1,-58.9842,281.179)">
                    <g id="dp_path014" transform="matrix(0.186335,0,0,0.373289,344.315,837.454)">
                        <path d="M1281.62,4444.59C1242.91,4261.98 1298.26,4206.07 1511.99,4195.2C1736.75,4183.77 1744.75,4392.93 1736.26,4434.63C1731.52,4458.95 1590.41,4480.51 1514.98,4482.17C1439.21,4483.83 1298.1,4466.98 1281.62,4444.59Z" style="fill:rgb(49,50,61);fill-opacity:0.2;"/>
                    </g>
                    <g id="dp_path0141" serif:id="dp_path014" transform="matrix(0.186335,0,0,0.373289,344.688,832.228)">
                        <path d="M1281.62,4444.59C1242.91,4261.98 1298.26,4206.07 1511.99,4195.2C1736.75,4183.77 1744.75,4392.93 1736.26,4434.63C1731.52,4458.95 1590.41,4480.51 1514.98,4482.17C1439.21,4483.83 1298.1,4466.98 1281.62,4444.59Z" style="fill:url(#_Linear4);stroke:rgb(49,50,61);stroke-width:8px;"/>
                    </g>
                    <g id="dp_path015" transform="matrix(0.186335,0,0,0.373289,344.688,832.228)">
                        <path d="M1449,4167C1444.8,4161.17 1417.58,4130.13 1424.02,4125.86L1468.46,4132.21L1523.67,4205.67C1527.86,4211.49 1508.39,4208.72 1501.95,4213L1457,4205L1449,4167Z" style="fill:rgb(47,151,99);stroke:rgb(49,50,61);stroke-width:8px;"/>
                    </g>
                    <g id="dp_path016" transform="matrix(0.186335,0,0,0.373289,344.688,832.228)">
                        <path d="M1481.9,4189.3L1506.65,4210.87L1516.97,4218.07C1564.59,4216.28 1605.06,4212.7 1627.25,4221.6L1557.68,4226.38L1537.22,4237.54L1546.69,4245.79L1574.6,4278.05C1549.87,4265.95 1515.08,4249.39 1484.35,4246C1451.45,4255.59 1428.89,4275.14 1405.29,4292.21C1403.18,4283.82 1408.91,4275.43 1413.37,4267.04L1418.69,4247.61L1427.93,4239.1C1421.66,4232.46 1411.19,4230.79 1397.39,4233.08C1387.34,4234.51 1338.94,4246.28 1338.64,4246.47C1344.74,4226.69 1373.63,4225.32 1392.22,4220.16C1413.87,4214.16 1426.37,4223.26 1448.55,4220.08L1457.76,4211.56L1481.9,4189.3Z" style="fill:rgb(78,183,93);stroke:rgb(78,183,93);stroke-width:10px;"/>
                    </g>
                    <g id="dp_path017" transform="matrix(0.186335,0,0,0.373289,344.688,832.228)">
                        <path d="M1484.43,4174.95L1504.09,4201.03L1519,4199.67C1566.73,4195.28 1609.61,4207.79 1631.73,4218.24L1564.14,4217.67L1539.74,4223.2L1549.22,4231.45C1562.61,4245.7 1573.33,4260.72 1577.07,4277.74C1548.71,4266.41 1518.83,4241.58 1485.26,4235.55C1455.18,4243.58 1428.17,4268.14 1404.44,4285.22C1389.21,4283.9 1410.8,4254.29 1421.21,4233.27L1430.46,4224.75L1397.83,4223.79C1385.25,4225.58 1338.64,4248.71 1337.11,4249.69C1315.09,4236.88 1390.83,4205.75 1437.07,4206.73C1445.11,4205 1453.15,4204.08 1461.2,4204.62L1484.43,4174.95Z" style="fill:rgb(47,151,99);stroke:rgb(47,151,99);stroke-width:1.73px;"/>
                    </g>
                    <g id="dp_path018" transform="matrix(0.1862,-0.0142127,0.00709459,0.373018,312.946,849.323)">
                        <path d="M1321.06,4284.19C1315.93,4296.84 1299.86,4333.93 1298.71,4353.07C1297.56,4372.2 1307.69,4426.06 1311.3,4438.92" style="fill:none;stroke:rgb(49,50,61);stroke-opacity:0.12549;stroke-width:14px;stroke-linecap:round;"/>
                    </g>
                    <g id="dp_path0181" serif:id="dp_path018" transform="matrix(0.1862,-0.0142127,0.00709459,0.373018,313.318,848.95)">
                        <path d="M1321.06,4284.19C1315.93,4296.84 1299.86,4333.93 1298.71,4353.07C1297.56,4372.2 1307.69,4426.06 1311.3,4438.92" style="fill:none;stroke:rgb(244,164,91);stroke-width:9.45px;stroke-linecap:round;"/>
                    </g>
                    <g id="dp_path0182" serif:id="dp_path018" transform="matrix(0.185296,0.0393698,-0.0196523,0.371207,466.918,786.833)">
                        <path d="M1302.67,4324.04C1305.4,4333.3 1316.63,4359.42 1321.87,4385.99C1327.48,4414.43 1327,4443.3 1326.26,4450.01" style="fill:none;stroke:rgb(49,50,61);stroke-opacity:0.12549;stroke-width:16px;stroke-linecap:round;"/>
                    </g>
                    <g id="dp_path0183" serif:id="dp_path018" transform="matrix(0.185296,0.0393698,-0.0196523,0.371207,466.918,786.833)">
                        <path d="M1302.67,4324.04C1305.4,4333.3 1316.63,4359.42 1321.87,4385.99C1327.48,4414.43 1327,4443.3 1326.26,4450.01" style="fill:none;stroke:rgb(244,164,91);stroke-width:9.45px;stroke-linecap:round;"/>
                    </g>
                    <g id="dp_path019" transform="matrix(0.228259,-0.00762437,0.00434664,0.522249,260.596,206.69)">
                        <path d="M1634.74,4265.33C1642.89,4275.66 1662.26,4294.98 1669.59,4312.36C1677.1,4330.14 1676.25,4361.88 1674.02,4375.53" style="fill:none;stroke:rgb(49,50,61);stroke-opacity:0.12549;stroke-width:10.65px;stroke-linecap:round;"/>
                    </g>
                    <g id="dp_path0191" serif:id="dp_path019" transform="matrix(0.228259,-0.00762437,0.00434664,0.522249,260.41,207.063)">
                        <path d="M1634.74,4265.33C1642.89,4275.66 1662.26,4294.98 1669.59,4312.36C1677.1,4330.14 1676.25,4361.88 1674.02,4375.53" style="fill:none;stroke:rgb(244,164,91);stroke-width:7.29px;stroke-linecap:round;"/>
                    </g>
                    <g id="dp_path020" transform="matrix(0.186335,0,0,0.446129,344.502,512.317)">
                        <path d="M1387.64,4327.08C1384.26,4337.45 1370.83,4367.78 1372.2,4381.92C1373.57,4396.06 1386.65,4428.63 1391.85,4437.11" style="fill:none;stroke:rgb(49,50,61);stroke-opacity:0.12549;stroke-width:13.61px;stroke-linecap:round;"/>
                    </g>
                    <g id="dp_path0201" serif:id="dp_path020" transform="matrix(0.186335,0,0,0.446129,344.874,511.57)">
                        <path d="M1387.64,4327.08C1384.26,4337.45 1370.83,4367.78 1372.2,4381.92C1373.57,4396.06 1386.65,4428.63 1391.85,4437.11" style="fill:none;stroke:rgb(244,164,91);stroke-width:8.58px;stroke-linecap:round;"/>
                    </g>
                    <g id="dp_path021" transform="matrix(0.186335,0,0,0.526302,348.229,163.403)">
                        <path d="M1575.51,4319.82C1580.65,4328.78 1605.59,4358.99 1606.74,4372.55C1607.89,4386.1 1604.7,4410 1601.1,4419.11" style="fill:none;stroke:rgb(49,50,61);stroke-opacity:0.12549;stroke-width:12.27px;stroke-linecap:round;"/>
                    </g>
                    <g id="dp_path0211" serif:id="dp_path021" transform="matrix(0.186335,0,0,0.526302,348.042,163.776)">
                        <path d="M1575.51,4319.82C1580.65,4328.78 1605.59,4358.99 1606.74,4372.55C1607.89,4386.1 1604.7,4410 1601.1,4419.11" style="fill:none;stroke:rgb(244,164,91);stroke-width:7.73px;stroke-linecap:round;"/>
                    </g>
                    <g transform="matrix(0.186335,3.23777e-18,0,0.373289,362.267,2164.19)">
                        <path d="M1184.03,732.977C1175.24,761.118 1179.51,844.553 1192.36,876.31C1221.74,891.14 1237.54,895.566 1262.03,897.977C1248.83,898.929 1207.54,848.992 1201.58,822.019C1194.14,788.345 1201.97,762.197 1211.18,727.433C1221.56,688.273 1271.01,653.849 1271.01,653.849C1271.01,653.849 1256.4,655.092 1222.21,678.979C1188.19,702.747 1173.3,737.663 1184.03,732.977Z" style="fill:rgb(49,50,61);fill-opacity:0.152941;"/>
                    </g>
                    <g transform="matrix(-0.186315,0.00545683,0.0027352,0.374798,882.814,2155.77)">
                        <path d="M1185.53,735.977C1175.75,763.827 1173.29,784.905 1173.29,784.905C1173.29,784.905 1232.44,694.705 1249.3,677.606C1256.11,670.693 1311.3,635.5 1311.3,635.5C1311.3,635.5 1264.9,648.092 1231.71,676.979C1200.4,704.224 1188.31,728.045 1185.53,735.977Z" style="fill:white;fill-opacity:0.152941;"/>
                    </g>
                </g>
            </g>
        </g>
    </g>
    <g transform="matrix(0.752089,0,0,0.808383,34.5961,36.1078)">
        <rect x="-46" y="-44.667" width="478.667" height="445.333" style="fill:rgb(49,50,61);fill-opacity:0;"/>
    </g>
    <defs>
        <linearGradient id="_Linear1" x1="0" y1="0" x2="1" y2="0" gradientUnits="userSpaceOnUse" gradientTransform="matrix(-78.6667,397.333,-397.333,-78.6667,774.627,5913.09)"><stop offset="0" style="stop-color:rgb(177,177,190);stop-opacity:1"/><stop offset="1" style="stop-color:rgb(110,110,132);stop-opacity:1"/></linearGradient>
        <linearGradient id="_Linear2" x1="0" y1="0" x2="1" y2="0" gradientUnits="userSpaceOnUse" gradientTransform="matrix(-190.667,468,-468,-190.667,763.96,5906.43)"><stop offset="0" style="stop-color:rgb(199,199,200);stop-opacity:1"/><stop offset="1" style="stop-color:rgb(133,133,135);stop-opacity:1"/></linearGradient>
        <linearGradient id="_Linear3" x1="0" y1="0" x2="1" y2="0" gradientUnits="userSpaceOnUse" gradientTransform="matrix(-289.333,68,-68,-289.333,743.96,6131.76)"><stop offset="0" style="stop-color:rgb(199,199,200);stop-opacity:1"/><stop offset="1" style="stop-color:rgb(133,133,135);stop-opacity:1"/></linearGradient>
        <linearGradient id="_Linear4" x1="0" y1="0" x2="1" y2="0" gradientUnits="userSpaceOnUse" gradientTransform="matrix(-145.333,924,-924,-145.333,1631.45,4237.92)"><stop offset="0" style="stop-color:rgb(255,138,35);stop-opacity:1"/><stop offset="1" style="stop-color:rgb(214,144,80);stop-opacity:1"/></linearGradient>
    </defs>
</svg>
