<?xml version="1.0" encoding="utf-8"?>
<!-- Generator: Adobe Illustrator 16.0.0, SVG Export Plug-In . SVG Version: 6.00 Build 0)  -->
<!DOCTYPE svg PUBLIC "-//W3C//DTD SVG 1.1//EN" "http://www.w3.org/Graphics/SVG/1.1/DTD/svg11.dtd">
<svg version="1.1" xmlns="http://www.w3.org/2000/svg" xmlns:xlink="http://www.w3.org/1999/xlink" x="0px" y="0px" width="360px"
	 height="360px" viewBox="0 0 360 360" enable-background="new 0 0 360 360" xml:space="preserve">
<g id="Layer_2">
	<g opacity="0.1">
		<path fill="#31323D" d="M272.965,245.029c-48.041-15.401-93.735-15.49-115.44-15.126c-33.875,0.568-102.792,11.46-105.608,23.802
			c-4.871,20.725,78.799,29.487,102.798,29.309c100.25-0.743,114.09,0.25,122.402-22.637
			C277.599,259.048,272.965,245.029,272.965,245.029z"/>
	</g>
</g>
<g id="Layer_1">
	<path fill="#6BCDEC" stroke="#31323D" stroke-width="2.5" stroke-miterlimit="10" d="M77.252,241.775
		c0.574-3.746,16.786-39.643,18.776-42.474c5.479-7.791,27.238-16.917,36.899-18.893c4.529-0.927,90.458-6.205,95.344-1.475
		c3.943,3.813,19.411,17.43,21.823,22.928c1.068,2.445,12.203,26.442,14.34,28.134c1.208,0.956-1.214,15.175,0.073,14.729
		c4.47-1.563,9.28-9.638,13.954-15.099c9.216-10.768,20.628-28.521,23.023-42.402c6.112-35.419-2.874-54.429-21.504-73.209
		c-13.854-13.965-45.434-25.82-61.216-28.565c-26.771-4.657-65.396-2.366-99.27,8.695c-23.107,7.547-42.063,20.145-54.461,38.741
		c-16.981,25.472-19.231,45.599-16.465,62.073c2.17,12.932,16.158,49.844,27.966,56.635L77.252,241.775z"/>
	<path opacity="0.1" d="M226.013,153.527h-10.975c0,0-12.349,4.683-31.345-2.811c-18.996-7.493-11.945,21.392,7.508,27.748
		c19.453,6.356,79.504,27.597,79.179-12.614C270.054,125.639,226.013,153.527,226.013,153.527z"/>
	<path opacity="0.4" fill="#FFFFFF" d="M272.277,110.068c0,0,33.678,22.138,29.403,65.381
		c-5.266,53.266-36.999,59.253-36.999,59.253s8.701-5.833-4.424-25.875c-11.934-18.224,27.19-20.079,1.593-104.523
		C260.375,99.436,272.277,110.068,272.277,110.068z"/>
	<path opacity="0.1" d="M90.382,112.259c-4.968,2.266-66.634,44.715-22.946,124.939c7.188,13.198-8.811-54.282,28.645-117.048
		C102.135,110.004,95.35,109.995,90.382,112.259z"/>
	<g opacity="0.6">
		<g>
			<path fill="#FFFFFF" d="M262.797,195.007c6.644-4.197,13.477-8.103,20.032-12.438c5.343-3.534,13.08-8.878,13.968-15.821
				c0.74-5.788-3.34-8.973-8.819-8.888c-6.532,0.102-12.655,7.198-16.606,11.615c-1.606,1.796,1.036,4.458,2.652,2.651
				c3.483-3.894,7.345-8.063,12.268-10.086c3.106-1.278,6.824-0.125,6.897,3.604c0.065,3.392-3.44,6.524-5.665,8.627
				c-7.605,7.19-17.828,11.943-26.619,17.497C258.866,193.057,260.746,196.303,262.797,195.007L262.797,195.007z"/>
		</g>
	</g>
	<g opacity="0.5">
		<g>
			<path fill="#FFFFFF" d="M240.461,172.907c8.529-9.513,17.367-19.465,22.209-31.467c2.864-7.102,5.194-15.592,1.936-23.002
				c-3.013-6.849-12.128-2.996-15.335,1.498c-4.71,6.601-5.17,14.926-6.036,22.711c-0.268,2.401,3.485,2.376,3.75,0
				c0.649-5.841,1.079-11.714,3.406-17.194c1.476-3.478,4.175-6.604,8.145-7.032c3.145-0.339,3.629,4.242,3.8,6.387
				c1.389,17.41-13.846,33.535-24.526,45.448C236.2,172.05,238.843,174.711,240.461,172.907L240.461,172.907z"/>
		</g>
	</g>
	<g opacity="0.4">
		<g>
			<path fill="#FFFFFF" d="M213.907,165.391c-1.994-8.476-3.971-17.134-4.428-25.856c-0.169-3.217,0.139-9.493,4.732-8.762
				c3.58,0.57,5.933,4.731,6.808,7.831c0.437,1.549,2.85,0.89,2.41-0.665c-1.353-4.794-9.793-14.828-14.551-7.368
				c-2.493,3.908-2.021,8.757-1.558,13.155c0.794,7.526,2.444,14.976,4.176,22.331C211.866,167.625,214.276,166.959,213.907,165.391
				L213.907,165.391z"/>
		</g>
	</g>
	<g>
		<g>
			<path fill="#F8F07B" d="M193.357,119.256c-0.65-0.578-6.594-5.843-7.281-11.135c-0.76-5.85,1.45-6.382,7.473-5.815
				c2.323,0.135,9.917-0.164,14.989-3.299c4.39-2.713,11.109-6.298,16.478-6.052c3.22,0.145,7.078,1.772,10.071,3.601
				c4.558,2.784,7.479,6.813,8.218,12.92c0.418,3.447-1.746,25.248,5.177,32.605c2.339,2.485,10.296,5.095,13.825,5.491
				c3.951,0.121,13.938-2.629,17.309-0.642c6.332,3.344,4.677,8.558,2.036,14.139c-3.184,7.27-10.813,16.405-29.591,20.528
				c-12.525,2.752-28.055-2.078-36.163-6.366c-12.664-6.697-22.429-15.971-25.942-29.953c-2.273-9.052,4.206-18.801,4.229-23.134
				C194.185,122.144,194.008,119.833,193.357,119.256z"/>
			<g>
				<path fill="#31323D" d="M193.8,118.814c-1.61-1.444-3.033-3.025-4.351-4.745c-1.602-2.091-5.431-9.418-1.039-11.087
					c1.951-0.742,4.521-0.029,6.557-0.028c2.425,0.001,4.839-0.373,7.209-0.849c5.757-1.156,10.447-5.089,15.858-7.2
					c7.93-3.094,17.172,0.376,22.054,7.18c2.625,3.658,2.679,7.981,2.613,12.24c-0.073,4.708-0.016,9.406,0.463,14.094
					c0.845,8.28,3.052,14.296,10.992,17.555c4.032,1.655,7.755,2.445,12.048,1.894c5.794-0.744,16.969-3.537,17.16,5.855
					c0.09,4.401-3.391,9.898-6.045,13.327c-3.206,4.141-7.607,7.139-12.228,9.492c-23.952,12.197-57.952,1.149-71.007-22.248
					c-4.342-7.78-4.625-15.213-1.819-23.534c1.238-3.672,3.834-8.03,1.632-11.819c-0.405-0.696-1.485-0.067-1.08,0.631
					c2.36,4.061-1.927,11.005-3.041,15.022c-1.589,5.732-0.729,10.917,1.378,16.373c3.807,9.857,11.787,17.208,20.595,22.641
					c18.895,11.656,44.451,13.3,62.246-1.352c5.394-4.44,10.743-12.453,10.597-19.648c-0.198-9.721-13.974-6.556-19.51-5.845
					c-5.011,0.644-10.606-1.561-14.844-4.074c-4.715-2.796-5.45-10.605-5.944-15.443c-0.783-7.681,1.062-16.065-1.833-23.381
					c-2.37-5.991-9.768-10.725-16.03-11.385c-9.741-1.027-16.863,6.87-25.927,8.69c-3.886,0.781-7.584,0.104-11.456,0.424
					c-1.38,0.114-3.009,0.893-3.407,2.35c-1.678,6.133,3.007,11.926,7.274,15.755C193.514,120.234,194.4,119.354,193.8,118.814z"/>
			</g>
		</g>
		<g>
			<path fill="#F8B846" d="M200.721,103.336c3.463-0.118-3.755,13.84-4.48,14.719c-2.343,2.75-8.04-6.197-8.453-7.13
				c-1.25-3.156-2.149-6.611,0.704-7.768C190.963,102.15,197.255,103.454,200.721,103.336z"/>
		</g>
		<path fill="#31323D" d="M217.319,113.071c-0.575,2.673,1.13,5.305,3.804,5.877c2.674,0.572,5.305-1.133,5.874-3.805
			c0.574-2.672-1.13-5.303-3.802-5.875C220.521,108.696,217.891,110.4,217.319,113.071z"/>
		<g>
			<path fill="#F8F07B" d="M218.953,140.91c2.888,1.704,6.449,2.376,9.666,2.974c3.147,0.494,6.733-0.637,9.754,0.461
				c2.497,0.986,2.591,4.558,0.9,6.339c-1.648,1.736-6.958,2.044-10.955,1.359c1.376,0.747,8.241,1.608,9.471,3.323
				c1.174,1.641,0.912,5.679-2.338,6.665c-4.467,1.355-6.063,0.209-9.309-1.508c1.327,1.072,3.369,3.414,3.265,4.587
				c-0.287,3.187-1.99,6.996-9.772,2.877c-7.932-4.198-8.067-12.843-8.735-16.058"/>
			<g>
				<path fill="#31323D" d="M218.39,141.31c3.592,1.851,7.553,2.874,11.576,3.198c3.66,0.295,11.526-0.736,9.233,5.251
					c-1.223,3.191-8.131,2.135-10.622,1.789c-0.514-0.072-1.487,0.627-0.684,0.958c2.039,0.84,4.312,1.147,6.429,1.755
					c2.903,0.834,3.975,2.65,2.919,5.596c-1.745,4.868-8.121,1.556-10.535,0.267c-0.375-0.2-1.758,0.232-1.229,0.709
					c2.115,1.911,3.815,3.972,2.541,6.898c-2.292,5.266-11.115-2.35-12.7-4.368c-2.609-3.322-2.959-7.644-3.693-11.626
					c-0.115-0.626-1.568-0.259-1.449,0.389c1.432,7.757,4.063,16.712,13.412,17.998c1.916,0.264,4.287,0.177,5.446-1.685
					c2.101-3.373,0.518-5.747-2.225-8.225c-0.41,0.236-0.819,0.473-1.229,0.709c4.192,2.238,11.281,3.961,13.388-1.915
					c2.147-5.99-6.927-6.07-10.224-7.428c-0.228,0.319-0.456,0.638-0.684,0.958c4.605,0.641,12.269,1.226,13.087-4.852
					c0.351-2.601-1.863-3.685-3.901-4.186c-1.645-0.404-3.647-0.108-5.296-0.018c-4.196,0.229-8.721-1.061-12.433-2.973
					C218.996,140.242,217.703,140.956,218.39,141.31L218.39,141.31z"/>
			</g>
		</g>
	</g>
	<g opacity="0.5">
		<g>
			<path fill="#FFFFFF" d="M184.623,168.532c3.457-8.206,3.206-18.503,3.179-27.234c-0.026-8.878-0.913-19.042-5.437-26.855
				c-3.52-6.08-11.683-4.547-14.081,1.535c-2.807,7.12,1.512,16.266,2.98,23.232c0.499,2.366,4.113,1.362,3.616-0.997
				c-1.211-5.743-3.253-11.208-3.486-17.138c-0.131-3.327,1.074-7.487,5.304-6.788c3.636,0.601,4.764,7.757,5.446,10.523
				c1.75,7.099,2.014,14.088,1.864,21.371c-0.144,6.979-0.251,14.826-3.001,21.354C180.069,169.762,183.699,170.725,184.623,168.532
				L184.623,168.532z"/>
		</g>
	</g>
	<g opacity="0.5">
		<g>
			<path fill="#FFFFFF" d="M152.702,169.475c-5.175-4.576-9.9-9.64-13.915-15.269c-3.647-5.113-7.972-12.726-4.636-18.997
				c3.17-5.958,9.151,4.741,10.707,7.129c2.356,3.616,4.291,7.584,6.892,11.031c1.438,1.905,4.696,0.039,3.238-1.893
				c-4.255-5.639-12.285-27.146-21.938-20.502c-6.093,4.193-3.682,13.574-1.167,18.991c3.964,8.54,11.202,16.001,18.168,22.161
				C151.855,173.722,154.517,171.08,152.702,169.475L152.702,169.475z"/>
		</g>
	</g>
	<g opacity="0.5">
		<g>
			<path fill="#FFFFFF" d="M119.995,177.427c-1.076-0.346-3.441-3.657-4.446-4.837c-2.368-2.779-4.604-5.676-6.682-8.678
				c-1.433-2.069-3.557-4.724-2.375-7.397c2.083-4.714,10.497,5.529,11.386,6.803c1.373,1.968,4.625,0.096,3.238-1.893
				c-3.014-4.319-7.753-10.079-13.69-9.535c-4.288,0.393-5.842,5.336-4.609,8.964c1.483,4.367,5.183,8.333,8.01,11.873
				c2.007,2.514,4.899,7.263,8.172,8.314C121.307,181.785,122.287,178.165,119.995,177.427L119.995,177.427z"/>
		</g>
	</g>
	<g opacity="0.5">
		<g>
			<path fill="#FFFFFF" d="M101.333,185.607c-5.481-4.574-9.182-12.004-13.095-17.87c-3.167-4.747-6.835-11.63-12.77-13.398
				c-6.667-1.987-10.817,4.25-9.792,10.335c1.048,6.225,5.505,15.474,11.467,18.343c2.168,1.043,4.071-2.19,1.893-3.238
				c-4.857-2.337-7.736-9.411-9.27-14.215c-1.177-3.687,0.014-9.682,5.292-7.338c2.257,1.002,3.908,2.877,5.357,4.793
				c6.04,7.989,10.492,18.753,18.266,25.239C100.524,189.796,103.192,187.158,101.333,185.607L101.333,185.607z"/>
		</g>
	</g>
	<path fill="#B6E4F3" stroke="#31323D" stroke-width="2.5" stroke-miterlimit="10" d="M251.458,237.691
		c2.012-10.547,9.021-9.771,8.549-11.701c-0.302-1.232-3.558,1.531-11.645-1.972c-4.302-1.862-5.752-8.547-4.109-14.192
		c0.897-3.084,2.197-5.213,4.535-7.451c0.527-0.505-2.151,2.693-6.946,4.063c-6.257,1.787-13.114-1.934-14.686-4.676
		c-4.018-7.014,1.191-13.883,0-14.904c-0.512-0.438-1.319,6.465-8.257,10.887c-8.224,5.24-20.039,0.635-23.014-4.75
		c-3.068-5.553-1.549-8.473-2.446-10.396c-0.302-0.646-0.565,7.049-4.057,11.492c-4.822,6.139-15.709,5.772-21.919,1.389
		c-7.799-5.505-5.869-10.961-6.789-10.814c-0.919,0.147,0.456,2.328-1.593,8.535c-2.557,7.744-18.472,8.195-22.947,5.055
		c-8.896-6.24-7.15-8.182-7.709-8.473c-0.745-0.387,3.192,6.072,0.553,12.892c-2.272,5.867-11.752,8.74-17.452,7.994
		c-3.28-0.43-10.13-5.114-11.512-5.637c-0.549-0.207,5.136,4.057,5.821,9.481c1.145,9.063-3.677,14.666-9.425,16
		c-3.069,0.713-7.864-1.096-7.612-0.239c0.179,0.608,3.831,2.925,5.42,6.268c1.697,3.568,1.997,6.981,0.767,10.739
		c-0.658,2.011-4.438,9.482-13.161,9.098c-6.613-0.292-9.277-5.749-9.259-8.063c-0.249-4.304,3.078-26.561,11.596-39.61
		c12.877-19.727,26.605-26.96,44.798-32.879c18.546-6.033,59.247-11.557,105.544,2.224c16.31,4.854,31.409,15.94,36.278,40.737
		c0.885,4.508,2.694,16.88,0.322,23.125c-1.184,3.113-9.74,10.077-13.481,9.097C253.884,250.025,250.007,245.308,251.458,237.691z"
		/>
	<path fill="#B2E2F4" stroke="#31323D" stroke-miterlimit="10" d="M254.82,273.306c0,12.812,10.385,23.198,23.198,23.198
		c12.815,0,23.201-10.387,23.201-23.198c0-12.813-10.386-23.203-23.201-23.203C265.205,250.103,254.82,260.492,254.82,273.306z"/>
	<circle fill="#B2E2F4" stroke="#31323D" stroke-miterlimit="10" cx="299.729" cy="212.177" r="30.042"/>
	<path fill="#FFFFFF" d="M282.82,268.548c0,4.006,3.245,7.248,7.249,7.248s7.25-3.242,7.25-7.248c0-4.004-3.246-7.249-7.25-7.249
		S282.82,264.544,282.82,268.548z"/>
	<circle fill="#FFFFFF" cx="317.92" cy="210.407" r="7.551"/>
	<circle fill="#FFFFFF" cx="302.707" cy="220.762" r="5.502"/>
	<circle fill="#FFFFFF" cx="280.748" cy="280.563" r="4.749"/>
	<path fill="#B2E2F4" stroke="#31323D" stroke-miterlimit="10" d="M63.776,89.913c0,16.593,13.451,30.045,30.042,30.045
		c16.592,0,30.042-13.452,30.042-30.045c0-16.59-13.45-30.042-30.042-30.042C77.227,59.871,63.776,73.323,63.776,89.913z"/>
	<circle fill="#FFFFFF" cx="108.599" cy="92.514" r="8.649"/>
	<path fill="#FFFFFF" d="M84.411,101.162c0,3.48,2.82,6.302,6.301,6.302s6.303-2.821,6.303-6.302c0-3.483-2.822-6.302-6.303-6.302
		S84.411,97.678,84.411,101.162z"/>
	<path fill="#B2E2F4" stroke="#31323D" stroke-miterlimit="10" d="M37.38,188.013c0,12.812,10.383,23.196,23.198,23.196
		s23.201-10.385,23.201-23.196c0-12.814-10.386-23.204-23.201-23.204S37.38,175.199,37.38,188.013z"/>
	<circle fill="#FFFFFF" cx="72.628" cy="183.254" r="7.249"/>
	<circle fill="#FFFFFF" cx="63.306" cy="195.27" r="4.749"/>
</g>
</svg>
