<svg id="sign" xmlns="http://www.w3.org/2000/svg" width="360" height="360" viewBox="0 0 360 360" shape-rendering="geometricPrecision">
  <defs>
    <style>
      .cls-1 {
        fill: #fff;
      }

      .cls-2 {
        fill: #31323d;
      }

      .cls-2, .cls-3, .cls-4, .cls-5 {
        fill-rule: evenodd;
      }

      .cls-3 {
        fill: #756650;
      }

      .cls-4 {
        fill: #f7ebda;
      }

      .cls-5 {
        fill: #ff8b8b;
      }
    </style>
  </defs>
  <rect id="White" class="cls-1" width="360" height="360"/>
  <path id="Color_Fill_667" data-name="Color Fill 667" class="cls-2" d="M293.751,74.452l3.863,1.041c2.414,19.892,5.093,42.848,7.417,63.345l-1.9.983,2.152,1.211c3.348,29.61,5.893,53.573,5.712,54.775-0.485,3.216-2.942,2.77-5.444,4.237s-95.874,12.711-95.874,12.711l1.172,93.829c-4.791-4.125-8.5-14.615-11.757-13.027-4.038,1.972,6.041,22.579,3.629,22.7s-10.107-11.141-13.61-7.565,1.512,14.526,1.512,14.526c-4.879.052-14.833-14.7-18.373-20.758l-0.983-83.09S70.042,231.19,68.738,231.564c0.413-.31-3.1-27.676-7.354-60.376l4.025-2.618L61,168.221c-2.122-16.321-4.4-33.785-6.446-49.769l3.6-2.843-3.9.509C50.44,86.274,47.515,62.15,48.068,61.341c1.475-2.159,2.725-6.107,4.942-6.863s128.84-15.737,128.84-15.737,23.173-9.322,26.009-12.105,0,9.987,0,9.987,81.124-13.03,82.869-11.5c0.607,0.532,3.3,20.947,6.536,47.484ZM68.738,231.564a0.034,0.034,0,0,1-.008.01C68.717,231.572,68.722,231.569,68.738,231.564Z"/>
  <path id="Color_Fill_668" data-name="Color Fill 668" class="cls-3" d="M199.088,293.556c-4.038,1.972,6.041,22.579,3.629,22.7s-10.107-11.141-13.61-7.565,1.512,14.526,1.512,14.526c-3.488.037-9.57-8.264-14.048-15.215L175.2,221.227l33.268-6.355,0.858,89.292C205.252,299.605,201.987,292.14,199.088,293.556Z"/>
  <path id="Color_Fill_670" data-name="Color Fill 670" class="cls-3" d="M307.664,194.293S77.78,224.041,76.3,223.043s-9.376-52.96-9.376-52.96l10.283-4.54a54.3,54.3,0,0,0-10.585-.907s-7.268-46.323-5.444-47.816,16.332-4.54,16.332-4.54-10.037-3.894-16.937-1.513c0,0-9.517-49.825-6.654-52.657S182.454,41.162,182.454,41.162l23.59-10.592-1.21,9.381S285.11,26.24,287.7,27.847s5.746,43.881,5.746,43.881l-7.259,2.118s9.429,1.184,8.166,4.842l6.956,58.408-8.165.6s9.82,3.027,8.77,6.053S308.6,185.893,307.664,194.293Z"/>
  <path id="Color_Fill_665" data-name="Color Fill 665" class="cls-2" d="M216.335,284.286c-6.129,0,4.226,28.4,4.226,28.4-17.212-.953-14.411-15.893-18.449-13.921s6.626,21.637,4.251,22.075c-7.386,1.363-11.972-12.612-15.476-9.036s5.781,16.619,5.781,16.619c-16.258-.87-25.707-24.513-25.707-24.513-12.637,13.63-.742,31.585-2.705,31.188s-12.115-13.333-12.115-13.333c1.223,6.117-4.107,7.172-5.24,14.237-2.733-6.532,6.7-12.146,5.24-19.442,0,0,6.506,12.314,8.469,12.71s-6.286-16.935,6.351-30.565c0,0,13.662,24.577,19.658,24.513,0,0-5.015-10.951-1.512-14.526s11.2,7.684,13.61,7.565-7.667-20.725-3.629-22.7,8.785,13.28,15.424,13.921c0,0-4.617-27.237,1.512-27.237s5.356,18.551,19.659,26.329a3.413,3.413,0,0,1,1.434,1.379C218.652,300.63,222.239,284.286,216.335,284.286Z"/>
  <g>
    <path id="Color_Fill_671_copy" data-name="Color Fill 671 copy" class="cls-4" d="M106.3,60.815c24.459-10.227,44.484,3.7,51.833,21.293s-3.33,45.015-21.6,52.657-43.663-4.871-52.115-25.111S91.053,67.189,106.3,60.815Z"/>
    <g>
      <path id="Color_Fill_684" data-name="Color Fill 684" class="cls-2" d="M147.355,105.036l-0.294,22.442a32.707,32.707,0,0,1-10.537,7.287c-8.624,3.606-18.833,2.722-28.1-1.344l-5.906-15.959s-12.275-.32-13.384-12.091c-1.14-12.1,5.019-15.113,5.019-15.113s-5.186-11.083,6.358-18.471,17.4-.336,17.4-0.336,9.283-12.834,19.072-6.381C144.455,70,142,78.168,142,78.168s10.2,1.175,11.042,10.747S147.355,105.036,147.355,105.036Z"/>
      <path id="Color_Fill_685" data-name="Color Fill 685" class="cls-4" d="M143.675,103.021v27.49a30.774,30.774,0,0,1-7.151,4.254c-7.273,3.041-15.674,2.887-23.685.326L105.2,114.1s-12.225.275-12.715-9.067c-0.5-9.572,5.688-13.77,5.688-13.77s-4.374-9.54,3.346-16.121c7.756-6.612,16.729,0,16.729,0s7.727-11.65,15.057-7.724c9.01,4.825,5.354,13.1,5.354,13.1S148.7,80.756,149.7,89.251C150.744,98.146,143.675,103.021,143.675,103.021Z"/>
      <path id="Color_Fill_688" data-name="Color Fill 688" class="cls-2" d="M96.56,105.205c1.786,2.8,12.25,10.868,12.917-5.835C110.084,84.168,93.393,100.249,96.56,105.205Zm13.224-15.519c-4.507.607-9.5-2.227-8.7-6.143s6.167-10.7,11.6-5.85S114.291,89.078,109.784,89.686Zm14.5-5.85c-4.292-2.073-2.974-7.76-.29-10.238s4.7-4.7,8.99-1.755C139.9,76.579,133.223,88.153,124.285,83.835Zm9.57,3.8c-2.138,4.433,3.167,11.146,5.8,11.408s7.078-5.558,5.8-9.653S136.2,82.776,133.855,87.638Z"/>
      <path id="Color_Fill_689" data-name="Color Fill 689" class="cls-5" d="M98.475,103.659c0.917,2.762,4.158,4.733,6.189,3.8,2.006-.919,4.155-10.747,1.6-11.853C103.411,94.378,97.479,100.657,98.475,103.659Zm9.859-16.021c-3.568,0-7.5-2.331-4.061-6.728,2.892-3.7,5.419-3.619,8.121-.293S111.481,87.638,108.334,87.638Zm16.821-5.85c2.009,2.98,8.953-.315,8.7-4.1s-4.451-5.757-6.38-4.388S121.5,76.375,125.155,81.788Zm15.081,14.626c3.564-.026,4.151-3.548,3.48-5.85s-6.1-6.011-7.541-2.633S136.671,96.439,140.236,96.413Z"/>
      <path id="Color_Fill_686" data-name="Color Fill 686" class="cls-2" d="M119.485,85.218s-13.674,18.274-6.543,24.943c5.862,5.482,11.723-2.467,11.723-2.467s11.042,2.193,10.633-6.852S119.485,85.218,119.485,85.218Z"/>
      <path id="Color_Fill_687" data-name="Color Fill 687" class="cls-5" d="M119.934,87.638s-10.15,16.381-6.09,21.061,10.441-3.8,10.441-3.8,9.425,1.609,9.57-3.217S119.934,87.638,119.934,87.638Z"/>
    </g>
  </g>
  <path id="Color_Fill_680" data-name="Color Fill 680" class="cls-4" d="M182.844,118.05c-7.424.961-8.141-55.19-2.084-56.683s18.162,22.191,21.147,21-1.439-23.413,4.311-23.541,27.106,45.3,23.527,49.435-15.24-28.482-18.226-27.3-0.442,8.933-5.183,10.295-16.584-15.237-19.482-13.17S190.284,117.086,182.844,118.05Zm62.263-11.316S229.173,57.876,236.9,55.329s29.807-12.3,31.253-6.67-25.023,11.383-24.409,13.1S242.772,74.3,245.45,74.477s13.082-6.637,14.309-3.2,3.728,6.3,1.752,8.715-8.077,3.472-10.053,5.891-1.146,10.781.654,11.046,25.2-9.622,26.82-6.673,3.815,7.176,1.182,7.438S248.573,110.389,245.107,106.734ZM134.731,204.782c6.009-.691-0.033-26.8,6.045-26.892s27.76-7.456,24.818-17.171-18.123-14.67-29.334-11.553-14.609,5.335-16.667,8.617,10.262,46.951,10.331,47.552S128.722,205.473,134.731,204.782Zm43.525-61.054c-8.174.94-.064,36.562,2.567,43.57s31.338,2.49,33.514-5.071-15.071,6.606-22.441.752-2.064-33.88-7.217-36.334S181.261,143.383,178.256,143.728Zm47.2-7.863c-13,4.361-11.494,16.552-5.651,25.019s21.336-10.373,25.584.105-15.12,11.486-18.312,15.509,2.494,5.805,7.3,5.253,35.818-14.171,28.888-22.817-26.158-6.436-33.37-5.607,4.919-15.492,12.13-16.321S244.8,129.376,225.453,135.865Zm-87.1,36.82s18.7-1.54,15.825-10.653-16.8-8.426-19.216-2.969S130.865,171.109,138.352,172.685Z"/>
</svg>
