<svg id="Viking_Helmet" data-name="Viking Helmet" xmlns="http://www.w3.org/2000/svg" width="360" height="360" viewBox="0 0 360 360" shape-rendering="geometricPrecision">
  <defs>
    <style>
      .cls-1 {
        fill: #fff;
      }

      .cls-2 {
        fill: #e5e5e5;
      }

      .cls-3 {
        fill: #31323d;
      }

      .cls-10, .cls-11, .cls-12, .cls-13, .cls-14, .cls-15, .cls-16, .cls-3, .cls-4, .cls-5, .cls-6, .cls-7, .cls-8, .cls-9 {
        fill-rule: evenodd;
      }

      .cls-4 {
        fill: #b8916c;
      }

      .cls-5 {
        fill: #ffebe9;
      }

      .cls-6 {
        fill: #ac8d6f;
      }

      .cls-7 {
        fill: #756650;
      }

      .cls-8 {
        fill: #7b7061;
      }

      .cls-9 {
        fill: #776b59;
      }

      .cls-10 {
        fill: #d1dadf;
      }

      .cls-11 {
        fill: #dfe5e9;
      }

      .cls-12 {
        fill: #afb7bb;
      }

      .cls-13 {
        fill: #eee9e8;
      }

      .cls-14 {
        fill: #d2d2d2;
      }

      .cls-15 {
        fill: #f4f4f4;
      }

      .cls-16 {
        fill: #cdcdcd;
      }
    </style>
  </defs>
  <rect id="White" class="cls-1" width="360" height="360"/>
  <g id="Shadows_copy_5" data-name="Shadows copy 5">
    <ellipse class="cls-2" cx="180" cy="268.5" rx="135" ry="20.5"/>
  </g>
  <g id="helmet_horns" data-name="helmet horns">
    <path id="right_horn_base" data-name="right horn base" class="cls-3" d="M253.965,215.308s11.651-3.5,19.661-7.8,35.609-24.454,33.7-52.423S288.388,82.7,254.835,63.424c-1.412-.811-3.483-1.387-3.694-2.6s35.347,1.6,55.586,33.812c19.353,30.8,40.176,70.386,22.719,114.177C311.214,254.552,278,260.705,259.8,259.338S253.965,215.308,253.965,215.308Z"/>
    <path id="right_horn_color" data-name="right horn color" class="cls-4" d="M252.153,218.91s12.557-2.6,20.567-6.9,39.225-27.157,37.317-55.127-13.85-67.709-45.259-89.556c-1.336-.93-3.483-1.387-3.695-2.6s24.407,3.144,44.44,33.513,38.567,67.583,20.613,111.173C309.285,250.333,278,254.393,259.8,253.026S252.153,218.91,252.153,218.91Z"/>
    <path id="right_horn_highlight" data-name="right horn highlight" class="cls-5" d="M316.471,165.457s10.923-3.285,14.383-11.068q0.684,3.5,1.125,7.069C328.776,163.978,322.931,167.406,316.471,165.457ZM296.585,96.024a22.9,22.9,0,0,0,2.446-6.566c0.792,0.961,1.582,1.95,2.368,2.982C300.682,94.064,299.239,96.163,296.585,96.024Zm9.039,18.034s3.939-3.8,5.243-7.415q1,1.644,1.992,3.313A7.341,7.341,0,0,1,305.624,114.058Zm9.039,24.347s7.016-3.342,8.188-9.09q1.275,2.921,2.423,5.9C323.888,136.994,320.907,139.082,314.663,138.405Z"/>
    <path id="right_horn_shadow" data-name="right horn shadow" class="cls-6" d="M332.605,176.543c-0.422,10.518-1.774,21.478-6.469,32.876-16.851,40.914-51.454,48.589-69.656,47.222-4.886-.366-5.14-4.681-6.451-8.139,9.556-.3,29.9-4.521,45.652-18.12C313.764,214.772,327.585,201.061,332.605,176.543Z"/>
    <path id="left_horn_base" data-name="left horn base" class="cls-3" d="M113.7,220.125s-11.726-2.388-19.932-5.8c-8.327-3.461-37.572-20.99-37.572-49.15,0-34.14,17.826-80.007,56.532-102.933,1.611-.954,3.972-1.625,4.217-3.058S75.088,63.846,52.962,99.6c-22.189,35.853-41.348,79.418-19.018,120.5,22.185,40.818,57.2,41.627,74.112,39.041C125.556,256.464,113.7,220.125,113.7,220.125Z"/>
    <path id="left_horn_color" data-name="left horn color" class="cls-4" d="M113.7,225.007s-10.768-3.241-18.937-6.6C87.207,215.3,51.689,195.681,52.286,167.2c0.595-28.388,12.054-72.812,48.183-98.757,1.524-1.095,5.79-3.433,6.023-4.862s-30.053,5.485-52.124,41.005c-22.051,35.49-38.021,75.274-15.5,116.026,20.154,36.462,51.974,35.748,69.158,33.158C125.615,251.12,113.7,225.007,113.7,225.007Z"/>
    <path id="left_horn_highlight" data-name="left horn highlight" class="cls-5" d="M64.4,113.185q-0.81,1.812-1.555,3.631c-2.683-.659-8.068-3.041-6.7-11.476C56.15,105.34,58.2,114.733,64.4,113.185Zm-9.156,88.641s7.826-1.838,10.664-3.874q1.542,1.7,3.153,3.282C65.766,202.658,59.8,204.508,55.246,201.826ZM75.285,93.719q-1.175,1.705-2.276,3.44c-1.49-2.556-3.573-7.227-1.493-10.754C71.516,86.4,72.94,91.668,75.285,93.719Z"/>
    <path id="left_horn_shadow" data-name="left horn shadow" class="cls-6" d="M80.531,254.944c-13.869-3.465-30.245-14.584-41.659-35.236-22.525-40.751-6.555-79.632,15.5-115.122A109.656,109.656,0,0,1,68.656,86.177c-35.125,44.729-29.8,79.475-20.642,111.742,9.891,34.841,61.165,49.9,61.165,49.9l-11.75,9.323Z"/>
  </g>
  <g id="Helmet">
    <path id="helmet_top_base" data-name="helmet top base" class="cls-3" d="M102.248,209.642a82.935,82.935,0,0,1,16.27-20.74c10.745-9.9,35.646-28.564,61.465-27.052s55.546,21.627,62.369,30.659,12.654,20.042,12.654,23.445-42.162,13.526-75.023,13.526S102.248,209.642,102.248,209.642Z"/>
    <path id="helmet_top_color" data-name="helmet top color" class="cls-7" d="M105.864,209.642s4.621-8.13,15.366-18.035,32.934-27.662,58.753-26.15,52.834,20.725,59.657,29.757,11.751,17.337,11.751,20.74-38.547,13.526-71.408,13.526S105.864,209.642,105.864,209.642Z"/>
    <path id="helmet_top_highlight" data-name="helmet top highlight" class="cls-8" d="M239.64,195.214c6,7.946,10.534,15.325,11.538,19.3l-7.922,1.437s-12.568-28.215-34.348-37.873c-13.395-5.939-10.654-7.3-6.56-7.468C219.841,177.318,234.807,188.817,239.64,195.214Z"/>
    <path id="helmet_top_shadow" data-name="helmet top shadow" class="cls-9" d="M226.654,220.289h0Zm-0.106.032,0.106-.032Zm-0.162.049,0.162-.049Zm-82.559,2.8c-1.3-.163-2.938-0.468-4.81-0.877a259.8,259.8,0,0,1-33.153-12.649s3.656-6.426,12.015-14.811c2.163,5.369,15.174,21.5,16,11.2,0.772-9.55,3.969-23.626,5.057-28.23a91.129,91.129,0,0,1,13.35-7.1c2.216,4.875,15.65,32.463,39.443,40.736,26.132,9.088,34.348,9.018,34.348,9.018-1.466.445-4.991,2.215-18.078,4.508S154.236,224.472,143.827,223.168Zm82.559-2.8-0.3.093Z"/>
    <path id="top_stripe_base" data-name="top stripe base" class="cls-3" d="M142.019,225.873s1.765-23.838,3.616-34.266,5.423-27.052,5.423-27.052,11.5-10.675,28.021-8.115,26.373,4.93,29.829,9.017c0,0,2.7,15.46,2.711,27.954s-1.807,33.364-1.807,33.364-19.507,2.7-33.445,2.7S142.019,225.873,142.019,225.873Z"/>
    <path id="top_stripe_color" data-name="top stripe color" class="cls-10" d="M145.635,225.873s1.764-23.838,3.616-34.266,5.423-24.346,5.423-24.346,7.887-9.774,24.405-7.214,22.758,4.93,26.213,9.017A125.413,125.413,0,0,1,208,193.411c0.014,12.493-1.808,33.364-1.808,33.364a209.154,209.154,0,0,1-29.829,2.7C162.43,229.48,145.635,225.873,145.635,225.873Z"/>
    <path id="top_stripe_highlight" data-name="top stripe highlight" class="cls-11" d="M194.445,165.457s3.842,11.723,3.616,15.33a16.577,16.577,0,0,1,6.327,1.8s-2.034-13.751-4.519-15.329Z"/>
    <path id="top_stripe_shadow" data-name="top stripe shadow" class="cls-12" d="M179.983,196.116l-1.808,13.526s-13.258,6.108-17.174-2.7,3.015-22.642,5.424-21.642,6.15,7.088,9.039,7.214-5.424-12.624-5.424-12.624-0.168,4.859-6.327-.9c-4.813-4.5-2.469-13.129-.5-17.429a26.577,26.577,0,0,1,3.661-1.142,27.694,27.694,0,0,1,2.26,4.143l6.328,12.625Z"/>
    <path id="brim_base" data-name="brim base" class="cls-3" d="M94.113,261.942s38.2,20.827,84.966,18.937,83.027-14.893,87.678-18.937c0,0-.86-47.864-9.039-50.5,0,0-41.3,13.323-73.216,13.526s-58.213-6.093-84.062-18.034C100.44,206.937,94.113,225.946,94.113,261.942Z"/>
    <path id="brim_color" data-name="brim color" class="cls-10" d="M98.633,259.237s33.677,19.926,80.446,18.035,78.508-13.09,83.158-17.133c0,0,.948-41.552-7.231-44.185,0,0-38.59,12.421-70.5,12.624s-56.4-5.192-82.254-17.133C102.248,211.445,98.633,223.241,98.633,259.237Z"/>
    <path id="brim_shadow" data-name="brim shadow" class="cls-12" d="M179.079,277.272c-46.769,1.891-80.446-18.035-80.446-18.035,0-36,3.615-47.792,3.615-47.792,0.745,0.344,1.485.664,2.228,1-1.3,4.172.484,16.136,0.484,16.136s16.971,21.805,21.693,29.758c4.274,7.2,29.685,9.491,34.472,9.862,0.563,0.357.78,0.057,0.78,0.057s-0.278-.018-0.78-0.057c-0.866-.551-2.554-2.664-5.547-9.862-4.939-11.877,12.654-21.642,12.654-21.642s0.079,24.187,14.463,28.855c12.975,4.212,41.515-1.374,46.982-2.509a1.029,1.029,0,0,0,.924-0.2s-0.331.073-.924,0.2c-1.263-.261-3.769-2.48-7.211-13.722-5.087-16.617,9.943-21.641,9.943-21.641s5.278,30.093,13.558,31.56c6.733,1.193,13.871-1.938,16.3-3.15,0,2.507-.034,4.052-0.034,4.052C257.587,264.182,225.848,275.381,179.079,277.272Z"/>
    <path id="top_spike_base" data-name="top spike base" class="cls-3" d="M178.175,187.1c-11.007,0-11.721-4.509-14.462-8.116,0,0,.5-21.889,15.366-30.659,0,0,12.028,4.087,15.366,30.659A19.991,19.991,0,0,1,178.175,187.1Z"/>
    <path id="top_spike_color" data-name="top spike color" class="cls-13" d="M178.175,183.492c-11.007,0-8.106-.9-10.847-4.509,0,0-1.249-18.25,11.751-27.954,0,0,8.038,1.569,11.751,27.954C190.83,178.983,189.182,183.492,178.175,183.492Z"/>
    <path id="top_spike_shadow" data-name="top spike shadow" class="cls-14" d="M179.079,181.688a20.906,20.906,0,0,0,4.631,1.329,29.48,29.48,0,0,1-5.535.475c-11.007,0-8.106-.9-10.847-4.509,0,0-1.249-18.25,11.751-27.954l0.01,0C169.488,161.432,176.033,180.306,179.079,181.688Z"/>
    <path id="top_spike_highlight" data-name="top spike highlight" class="cls-15" d="M179.983,154.636c-0.8,1.118,6.508,13.526,4.519,22.544,0,0,2.712.18,3.616-.9S181.791,152.112,179.983,154.636Z"/>
    <path id="front_spike_base" data-name="front spike base" class="cls-3" d="M178.175,217.758c-12.216,0-16.656-6.516-17.174-10.821,0,0,6.2-22.614,17.174-26.15a42.5,42.5,0,0,1,17.174,26.15S190.392,217.758,178.175,217.758Z"/>
    <path id="front_spike_color" data-name="front spike color" class="cls-13" d="M178.175,214.151c-12.216,0-13.041-2.909-13.558-7.214,0,0,4.249-17.367,13.558-23.445,0,0,8.77,6.234,13.559,23.445C191.734,206.937,190.392,214.151,178.175,214.151Z"/>
    <path id="front_spike_shadow" data-name="front spike shadow" class="cls-14" d="M164.648,206.816c0-.018.007-0.032,0.013-0.053,0.011-.041.025-0.095,0.039-0.15,0.006-.021.01-0.038,0.017-0.061,0.017-.064.037-0.141,0.059-0.22,0.006-.022.012-0.043,0.018-0.067,0.024-.088.051-0.186,0.08-0.289,0.007-.023.013-0.045,0.02-0.069,0.031-.111.066-0.231,0.1-0.357,0.006-.022.013-0.043,0.019-0.065,0.039-.135.081-0.278,0.127-0.429l0.015-.05q0.072-.24.154-0.5c0-.008,0-0.016.007-0.024,1.407-4.541,4.962-14.256,10.934-19.507-4.672,7.831-4.567,23.806-2.6,26.475,1.252,1.7,6.457,2.013,10.466,1.991l-0.043.013c-0.168.045-.353,0.081-0.528,0.122-0.324.076-.655,0.148-1,0.211-0.206.037-.42,0.069-0.635,0.1-0.374.055-.764,0.1-1.167,0.139-0.2.019-.4,0.041-0.606,0.055-0.624.044-1.271,0.074-1.963,0.074-12.216,0-13.041-2.909-13.558-7.214,0,0,0-.019.011-0.044S164.64,206.843,164.648,206.816Z"/>
    <path id="front_spike_highlight" data-name="front spike highlight" class="cls-15" d="M178.175,186.2c-2.169,1.082,8.316,10.64,7.231,19.838,0,0,3.435-.541,3.616-1.8S180.345,185.115,178.175,186.2Z"/>
    <path id="center_brim_circle_base" data-name="center brim circle base" class="cls-3" d="M195.45,239.3c9.978,11.658,3.632,22.991-2.211,27.968s-19.92,8.666-27.55-.249-6.18-23.193,1.039-29.34S185.473,227.642,195.45,239.3Z"/>
    <path id="center_brim_circle_color" data-name="center brim circle color" class="cls-13" d="M193.388,241.057c9.977,11.659,3.933,19.178-1.91,24.155s-16.1,8.966-23.726.051-6.482-19.378.736-25.526S183.411,229.4,193.388,241.057Z"/>
    <path id="center_brim_circle_shadow" data-name="center brim circle shadow" class="cls-14" d="M189.865,266.472c-5.986,4.309-15.143,6.935-22.113-1.209a20.136,20.136,0,0,1-5.2-12.408L163.124,248a16.747,16.747,0,0,1,5.364-8.266c0.46-.391.921-0.775,1.385-1.147-1.634,4.415-1.488,13.892,1.975,20.647C175.32,266.009,186.506,266.486,189.865,266.472Z"/>
    <path id="center_brim_circle_color_highlight_2" data-name="center brim circle color highlight 2" class="cls-15" d="M174.373,238.281s8.754-3.122,12.844-.268,6.739,7.541,6.842,10.772a17.655,17.655,0,0,0-8.317-8.33C179.707,237.631,180.525,238.766,174.373,238.281Z"/>
    <path id="right_brim_circle_base" data-name="right brim circle base" class="cls-3" d="M223.376,237.7c-3.14,10.6,4.248,20.7,13.436,24.6s24.147-2.929,27.045-12.123-4.131-24.73-16.194-27.1S226.517,227.1,223.376,237.7Z"/>
    <path id="right_brim_circle_color" data-name="right brim circle color" class="cls-13" d="M225.765,238.981c-3.14,10.6,2.715,17.83,11.9,21.728s20.9-2.619,23.8-11.814-3.452-20.273-15.515-22.641S228.906,228.381,225.765,238.981Z"/>
    <path id="right_brim_circle_shadow" data-name="right brim circle shadow" class="cls-14" d="M250.035,260.56a17.375,17.375,0,0,1-8.743,1.145l-2.263-.52a14.011,14.011,0,0,1-1.362-.476,27.329,27.329,0,0,1-6.425-3.757l-1.81-1.641c-3.955-4.046-5.7-9.48-3.667-16.33,1.9-6.418,4.492-10.581,8.907-12.355C231.941,233.484,224.607,256.908,250.035,260.56Z"/>
    <path id="center_brim_circle_highlight_1_copy" data-name="center brim circle highlight 1 copy" class="cls-15" d="M246.9,231.375s8.737,3.169,10.061,7.97,0.364,10.1-1.623,12.649a17.6,17.6,0,0,0-1.075-11.708C251.426,234.269,251.33,235.664,246.9,231.375Z"/>
    <path id="left_brim_circle_base" data-name="left brim circle base" class="cls-3" d="M97.393,236.587c2.2-14.015,20.455-13.5,26.068-11.4s14.911,9.525,11.463,21.793-14.174,17.729-24.945,13.665S95.192,250.6,97.393,236.587Z"/>
    <path id="left_brim_circle_color" data-name="left brim circle color" class="cls-13" d="M99.809,237.379c2.085-14.037,17.55-12.558,23.163-10.452s12.984,7,9.536,19.263-11.118,13.592-21.552,10.979C99.842,254.385,98.139,248.621,99.809,237.379Z"/>
    <path id="left_brim_circle_shadow" data-name="left brim circle shadow" class="cls-16" d="M110.956,257.169c-11.114-2.784-12.817-8.548-11.147-19.79a13.216,13.216,0,0,1,4.055-8.164c-1.453,6-4.234,25.589,20.623,27.977C120.81,258.8,116.239,258.492,110.956,257.169Z"/>
    <path id="left_brim_circle_highlight_1_copy_2" data-name="left brim circle highlight 1 copy 2" class="cls-15" d="M120.239,228.584s8.1,3.285,9.288,8.136,0.24,10.175-1.635,12.726a19.091,19.091,0,0,0-.886-11.806C124.421,231.548,124.318,232.952,120.239,228.584Z"/>
  </g>
</svg>
