<?xml version="1.0" encoding="utf-8"?>
<svg viewBox="0 0 3000 3000" xmlns="http://www.w3.org/2000/svg">
  <path class="cls-1" d="M 987.57 1687.911 L 988.563 1688.903 Z" style="fill: rgb(248, 248, 248);"/>
  <path class="cls-1" d="M 1341.101 1688.903 L 1342.093 1687.911 Z" style="fill: rgb(248, 248, 248);"/>
  <path class="cls-2" d="M 1445.036 1617.891 C 1267.318 1617.891 1057.997 1574.994 1014.185 1565.581 C 1009.747 1564.677 1006.921 1560.301 1007.926 1555.886 L 1016.601 1517.137 C 1017.539 1512.791 1021.821 1510.026 1026.167 1510.954 C 1069.701 1520.19 1286.348 1564.207 1458.521 1561.84 C 1628.176 1559.55 1822.609 1488.794 1862.683 1473.528 C 1866.819 1471.943 1871.462 1473.971 1873.115 1478.082 L 1887.974 1514.923 C 1889.688 1519.105 1887.632 1523.877 1883.418 1525.508 C 1841.538 1541.664 1641.073 1615.296 1459.284 1617.765 C 1454.629 1617.865 1449.845 1617.891 1445.036 1617.891 Z" style="fill: rgb(94, 116, 181);"/>
  <rect class="cls-3" x="1442.681" y="1561.006" width="17.302" height="81.672" rx="0.43" ry="0.43" style="fill: rgb(8, 8, 10);" transform="matrix(1, 0, 0, 0.999999, -4.285278, -7.559923)"/>
  <circle class="cls-4" cx="439.174" cy="493.785" r="7.954" transform="matrix(1.004343, 0, 0, 1.004574, 934.187744, 1090.449829)" style="fill: rgb(227, 208, 249);"/>
  <circle class="cls-4" cx="1326.61" cy="1590.723" r="7.989" style="fill: rgb(227, 208, 249);" transform="matrix(0.999985, 0, 0, 0.999985, -4.265007, -7.538071)"/>
  <circle class="cls-4" cx="335.894" cy="487.143" r="7.989" transform="matrix(0.999996, 0, 0, 1.000153, 934.167726, 1090.472558)" style="fill: rgb(227, 208, 249);"/>
  <circle class="cls-4" cx="575.434" cy="494.147" r="7.989" transform="matrix(0.999419, -0.033862, 0.033877, 0.999561, 917.760993, 1110.29749)" style="fill: rgb(227, 208, 249);"/>
  <circle class="cls-4" cx="628.238" cy="489.026" r="7.988" transform="matrix(0.999427, -0.033878, 0.033832, 0.999519, 917.973709, 1112.126198)" style="fill: rgb(227, 208, 249);"/>
  <circle class="cls-4" cx="680.316" cy="481.795" r="7.988" transform="matrix(0.999412, -0.033878, 0.033832, 0.999599, 918.243088, 1113.830539)" style="fill: rgb(227, 208, 249);"/>
  <path class="cls-3" d="M 1493.683 1672.111 C 1494.756 1669.466 1494.391 1666.457 1492.716 1664.146 C 1487.143 1654.631 1481.623 1645.065 1476.078 1635.55 C 1468.68 1622.81 1461.294 1610.088 1453.917 1597.385 C 1452.79 1594.736 1450.273 1592.947 1447.401 1592.753 C 1444.483 1592.617 1441.762 1594.212 1440.457 1596.824 C 1434.993 1606.322 1429.505 1615.795 1423.995 1625.244 C 1416.65 1637.915 1409.289 1650.576 1401.909 1663.23 C 1400.231 1666.106 1398.909 1668.955 1400.638 1672.288 C 1400.795 1672.823 1400.738 1673.395 1400.486 1673.891 C 1399.357 1676.42 1399.741 1679.367 1401.477 1681.524 C 1414.589 1700.691 1427.69 1719.849 1440.788 1739 C 1444.221 1744.089 1449.922 1743.937 1453.508 1739 C 1456.307 1735.031 1459.004 1730.986 1461.752 1726.991 C 1471.93 1711.98 1482.198 1696.969 1492.562 1681.956 C 1494.447 1679.687 1494.918 1676.563 1493.785 1673.84 C 1493.549 1673.294 1493.512 1672.681 1493.683 1672.111 Z M 1485.438 1679.744 C 1485.407 1679.843 1485.315 1679.913 1485.211 1679.921 L 1485.211 1679.921 C 1482.03 1684.705 1478.875 1689.539 1475.618 1694.271 C 1466.559 1707.536 1457.466 1720.783 1448.344 1734.013 C 1448.012 1734.471 1447.912 1736.711 1446.334 1734.929 L 1412.163 1685.036 L 1407.965 1678.929 L 1408.526 1678.267 L 1447.199 1701.777 L 1479.46 1682.084 C 1481.114 1681.066 1482.794 1680.074 1484.548 1679.107 C 1484.553 1679.013 1484.611 1678.935 1484.702 1678.903 L 1485.72 1678.7 Z M 1485.438 1670.229 C 1472.972 1677.912 1460.479 1685.545 1447.961 1693.126 C 1447.743 1693.218 1447.511 1693.279 1447.275 1693.305 C 1444.731 1691.905 1442.187 1690.581 1439.642 1689.081 C 1429.465 1682.888 1419.288 1676.654 1409.11 1670.38 C 1408.487 1669.904 1407.908 1669.378 1407.38 1668.802 C 1407.61 1668.034 1407.899 1667.287 1408.246 1666.565 C 1420.711 1645.021 1433.205 1623.497 1445.723 1601.99 C 1446.073 1601.449 1446.456 1600.931 1446.868 1600.438 L 1447.224 1600.03 L 1447.401 1600.412 L 1447.937 1601.404 C 1448.374 1601.855 1448.775 1602.338 1449.132 1602.854 C 1461.396 1623.956 1473.642 1645.055 1485.872 1666.156 C 1486.26 1666.981 1486.591 1667.831 1486.864 1668.701 C 1486.451 1669.281 1485.954 1669.796 1485.389 1670.229 Z" style="fill: rgb(8, 8, 10);"/>
  <path class="cls-4" d="M 1407.38 1668.88 C 1407.61 1668.111 1407.896 1667.363 1408.246 1666.64 C 1420.711 1645.116 1433.205 1623.59 1445.723 1602.066 C 1446.073 1601.52 1446.458 1600.992 1446.868 1600.488 L 1447.378 1600.488 L 1447.912 1601.482 C 1447.618 1602.303 1447.423 1603.158 1447.325 1604.026 C 1447.325 1611.658 1447.325 1619.29 1447.325 1626.923 C 1447.325 1634.557 1447.325 1642.52 1447.199 1650.305 Z" style="fill: rgb(227, 208, 249);"/>
  <path class="cls-5" d="M 1447.046 1650.255 C 1447.046 1642.47 1447.046 1634.658 1447.174 1626.873 C 1447.301 1619.087 1447.174 1611.607 1447.174 1603.974 C 1447.27 1603.108 1447.466 1602.252 1447.757 1601.429 C 1448.196 1601.878 1448.599 1602.363 1448.954 1602.88 C 1461.218 1623.962 1473.462 1645.065 1485.694 1666.182 C 1486.081 1667.004 1486.404 1667.854 1486.66 1668.726 L 1482.462 1666.691 L 1449.387 1651.095 C 1448.7 1650.846 1447.992 1650.657 1447.275 1650.534 Z" style="fill: rgb(133, 151, 202);"/>
  <path class="cls-5" d="M 1407.38 1668.88 L 1447.046 1650.255 L 1447.25 1650.484 C 1447.25 1664.798 1447.25 1679.115 1447.25 1693.432 C 1444.704 1692.032 1442.161 1690.709 1439.617 1689.208 C 1429.439 1683.016 1419.261 1676.782 1409.085 1670.508 C 1408.464 1670.019 1407.895 1669.474 1407.38 1668.88 Z" style="fill: rgb(133, 151, 202);"/>
  <path class="cls-2" d="M 1447.199 1693.507 C 1447.199 1679.191 1447.199 1664.875 1447.199 1650.561 C 1447.916 1650.682 1448.624 1650.871 1449.311 1651.12 L 1482.386 1666.716 L 1486.585 1668.752 C 1486.218 1669.345 1485.764 1669.877 1485.234 1670.329 C 1472.769 1678.013 1460.276 1685.646 1447.757 1693.228 C 1447.585 1693.345 1447.397 1693.439 1447.199 1693.507 Z" style="fill: rgb(94, 116, 181);"/>
  <path class="cls-4" d="M 1446.358 1734.955 L 1412.189 1685.086 L 1407.99 1678.979 L 1408.526 1678.318 L 1447.224 1701.828 C 1447.224 1712.005 1447.224 1722.182 1447.224 1732.359 C 1447.062 1733.261 1446.769 1734.135 1446.358 1734.955 Z" style="fill: rgb(227, 208, 249);"/>
  <path class="cls-5" d="M 1485.593 1678.828 C 1485.416 1679.408 1485.17 1679.963 1484.854 1680.482 C 1482.056 1685.213 1478.748 1689.743 1475.645 1694.297 C 1466.587 1707.56 1457.493 1720.808 1448.368 1734.039 C 1448.037 1734.497 1447.937 1736.736 1446.358 1734.955 C 1446.731 1734.143 1446.998 1733.288 1447.149 1732.41 C 1447.149 1722.233 1447.149 1712.056 1447.149 1701.878 L 1479.409 1682.186 C 1480.452 1681.549 1481.446 1680.862 1482.488 1680.227 C 1483.532 1679.59 1484.676 1678.573 1485.593 1678.828 Z" style="fill: rgb(133, 151, 202);"/>
</svg>