<?xml version="1.0" encoding="utf-8"?>
<svg viewBox="0 0 3000 3000" xmlns="http://www.w3.org/2000/svg">
  <path class="cls-1" d="M 1782.339 1586.588 C 1793.28 1577.915 1805.967 1571.83 1819.302 1568.858 C 1813.975 1565.404 1807.341 1564.191 1800.73 1565.461 C 1800.73 1565.461 1802.993 1558.08 1812.255 1551.446 C 1812.255 1551.446 1797.206 1554.833 1783.922 1563.459" style="fill: rgb(254, 226, 146);" transform="matrix(0.996082, -0.088439, 0.088439, 0.996082, -131.705271, 165.409864)"/>
  <path class="cls-2" d="M 1782.59 1586.869 L 1782.079 1586.272 C 1792.812 1577.795 1805.194 1571.763 1818.229 1568.661 C 1813.118 1565.663 1806.929 1564.66 1800.771 1565.832 C 1800.63 1565.865 1800.489 1565.823 1800.4 1565.723 C 1800.308 1565.625 1800.279 1565.48 1800.323 1565.344 C 1800.408 1565.055 1802.467 1558.59 1810.436 1552.285 C 1806.003 1553.491 1794.463 1557.047 1784.118 1563.76 L 1783.707 1563.093 C 1796.905 1554.526 1812.032 1551.05 1812.185 1551.02 C 1812.502 1550.958 1812.738 1551.252 1812.611 1551.55 C 1812.579 1551.624 1812.528 1551.689 1812.463 1551.737 C 1804.959 1557.096 1802.106 1563.003 1801.335 1564.896 C 1807.84 1563.84 1814.308 1565.113 1819.55 1568.482 C 1819.797 1568.658 1819.734 1569.049 1819.438 1569.187 C 1819.407 1569.202 1819.376 1569.212 1819.344 1569.219 C 1806.089 1572.209 1793.481 1578.263 1782.59 1586.869 Z" style="fill: rgb(35, 31, 32);" transform="matrix(0.996082, -0.088439, 0.088439, 0.996082, -131.698216, 165.415786)"/>
  <path class="cls-1" d="M 1658.319 1626.275 C 1658.319 1626.275 1653.574 1634.493 1632.242 1646.784 C 1632.242 1646.784 1642.133 1648.458 1648.833 1645.489 C 1648.833 1645.489 1648.303 1653.827 1642.156 1658.827 C 1642.156 1658.827 1671.443 1649.653 1684.864 1626.952" style="fill: rgb(254, 226, 146);" transform="matrix(0.996082, -0.088439, 0.088439, 0.996082, -138.765959, 153.116063)"/>
  <path class="cls-2" d="M 1642.13 1659.218 C 1641.815 1659.211 1641.656 1658.866 1641.843 1658.597 C 1641.866 1658.565 1641.893 1658.537 1641.923 1658.511 C 1646.889 1654.467 1648.099 1648.092 1648.365 1646.1 C 1641.657 1648.729 1632.542 1647.235 1632.148 1647.165 C 1631.841 1647.112 1631.736 1646.743 1631.961 1646.501 C 1631.991 1646.469 1632.026 1646.441 1632.064 1646.418 C 1652.995 1634.326 1657.957 1626.158 1657.964 1626.078 L 1658.664 1626.437 C 1658.463 1626.776 1653.721 1634.635 1633.45 1646.518 C 1636.201 1646.847 1643.49 1647.404 1648.694 1645.104 C 1648.973 1644.982 1649.262 1645.17 1649.246 1645.462 C 1649.217 1645.781 1648.729 1652.743 1643.831 1657.813 C 1650.341 1655.403 1673.223 1645.86 1684.517 1626.776 L 1685.217 1627.144 C 1671.857 1649.715 1642.541 1659.118 1642.213 1659.208 Z" style="fill: rgb(35, 31, 32);" transform="matrix(0.996082, -0.088439, 0.088439, 0.996082, -138.775914, 153.115859)"/>
  <path class="cls-3" d="M 1719.778 1659.891 L 1719.718 1659.891 L 1719.649 1659.891 C 1716.132 1658.456 1646.155 1629.082 1659.323 1573.391 C 1661.957 1562.255 1666.573 1550.76 1678.042 1545.501 C 1693.736 1538.349 1710.481 1548.977 1721.541 1557.852 C 1721.296 1557.663 1737.265 1546.059 1738.48 1545.371 C 1746.938 1540.56 1756.16 1536.546 1765.424 1539.395 C 1776.803 1542.851 1781.121 1554.047 1783.347 1564.805 C 1794.524 1618.813 1723.323 1657.978 1719.778 1659.891 Z" style="fill: rgb(214, 31, 44);" transform="matrix(0.996082, -0.088439, 0.088439, 0.996082, -134.685352, 158.479756)"/>
  <path class="cls-2" d="M 1719.719 1660.797 C 1719.629 1660.812 1719.537 1660.812 1719.448 1660.797 L 1719.224 1660.718 C 1715.872 1659.353 1645.12 1629.68 1658.459 1573.282 C 1660.941 1562.962 1665.288 1550.412 1677.729 1544.734 C 1690.002 1539.136 1704.341 1543.061 1721.564 1556.687 C 1722.541 1555.86 1724.628 1554.297 1729.095 1551.019 C 1732.939 1548.211 1737.387 1545.043 1738.096 1544.615 C 1746.312 1539.943 1756.018 1535.56 1765.745 1538.509 C 1778.249 1542.304 1782.278 1555.163 1784.218 1564.506 C 1786.83 1576.963 1785.154 1590.285 1779.446 1602.437 C 1774.811 1612.577 1767.499 1622.678 1757.707 1632.439 C 1746.469 1643.452 1733.823 1652.942 1720.157 1660.618 L 1720.157 1660.618 L 1720 1660.688 C 1719.912 1660.739 1719.818 1660.776 1719.719 1660.797 Z M 1720.1 1659.104 Z M 1719.378 1659.104 L 1719.378 1659.104 Z M 1719.378 1659.104 L 1719.378 1659.104 Z M 1686.416 1544.136 C 1683.645 1544.389 1680.898 1545.125 1678.302 1546.308 C 1666.647 1551.627 1662.467 1563.64 1660.136 1573.501 C 1647.388 1627.419 1713.867 1656.495 1719.685 1658.925 C 1725.723 1655.598 1793.244 1617.089 1782.425 1565.024 C 1778.543 1546.338 1770.644 1541.915 1765.041 1540.212 C 1755.95 1537.453 1746.683 1541.656 1738.815 1546.129 C 1737.756 1546.746 1723.571 1557.036 1722.215 1558.291 L 1722.147 1558.391 C 1721.817 1558.781 1721.25 1558.857 1720.886 1558.56 C 1707.757 1548.021 1696.387 1543.22 1686.465 1544.146 Z" style="fill: rgb(35, 31, 32);" transform="matrix(0.996082, -0.088439, 0.088439, 0.996082, -134.686439, 158.479548)"/>
  <polygon class="cls-2" points="1663.938 1690.342 1685.815 1650.629 1685.216 1665.968 1700.755 1664.086 1663.938 1690.342" style="fill: rgb(35, 31, 32);" transform="matrix(0.996082, -0.088439, 0.088439, 0.996082, -141.143333, 155.329925)"/>
  <polygon class="cls-2" points="1767.496 1519.949 1788.399 1492.697 1791.477 1507.319 1806.748 1504.928 1785.599 1529.761 1773.007 1530.129 1767.496 1519.949" style="fill: rgb(35, 31, 32);" transform="matrix(0.996082, -0.088439, 0.088439, 0.996082, -126.664529, 163.97268)"/>
  <path class="cls-4" d="M 1728.45 1650.401 C 1728.45 1650.401 1772.824 1618.835 1776.678 1600.318 C 1774.966 1600.696 1773.229 1600.85 1771.517 1600.776 C 1767.863 1600.776 1763.812 1618.915 1728.45 1650.401 Z" style="fill: rgb(124, 19, 22);" transform="matrix(0.996082, -0.088439, 0.088439, 0.996082, -136.878466, 161.364536)"/>
  <path class="cls-4" d="M 1767.198 1565.147 C 1767.198 1565.147 1771.483 1543.91 1755.715 1540.245 C 1755.715 1540.245 1740.963 1534.995 1719.182 1557.108 C 1719.182 1557.108 1737.332 1536.31 1758.672 1538.033 C 1774.003 1539.268 1776.424 1561.641 1776.424 1561.641 Z" style="fill: rgb(124, 19, 22);" transform="matrix(0.996082, -0.088439, 0.088439, 0.996082, -130.367304, 160.652586)"/>
  <path class="cls-2" d="M 1710.342 1608.868 L 1703.059 1610.163 L 1702.977 1609.167 L 1705.435 1608.729 L 1703.902 1592.074 L 1698.43 1602.383 C 1699.593 1603.836 1700.326 1605.597 1700.555 1607.493 C 1700.648 1608.338 1700.504 1609.213 1700.14 1610.023 C 1699.828 1610.778 1699.12 1611.327 1698.318 1611.438 C 1697.518 1611.607 1696.718 1611.38 1696.183 1610.83 C 1695.618 1610.272 1695.278 1609.524 1695.218 1608.708 C 1695.18 1607.099 1695.621 1605.472 1696.487 1604.027 L 1689.07 1595.062 L 1690.637 1611.328 L 1692.963 1610.92 L 1693.046 1611.916 L 1687.344 1612.912 L 1687.263 1611.916 L 1689.659 1611.488 L 1688.039 1594.235 L 1685.643 1594.664 L 1685.559 1593.668 L 1690.659 1592.761 L 1697.86 1601.457 L 1703.705 1590.45 L 1708.622 1589.574 L 1708.704 1590.57 L 1706.379 1590.978 L 1707.999 1608.23 L 1710.326 1607.822 Z M 1699.099 1608.868 C 1698.794 1607.369 1698.113 1606 1697.113 1604.884 C 1696.419 1606.027 1696.086 1607.326 1696.16 1608.599 C 1696.204 1609.167 1696.42 1609.694 1696.779 1610.113 C 1697.108 1610.518 1697.649 1610.698 1698.194 1610.581 C 1698.916 1610.435 1699.232 1609.857 1699.14 1608.848 Z" style="fill: rgb(35, 31, 32);" transform="matrix(0.996082, -0.088439, 0.088439, 0.996082, -134.959609, 156.440052)"/>
  <path class="cls-2" d="M 1725.7 1587.349 C 1729.542 1590.692 1730.085 1596.529 1726.98 1601.095 C 1723.931 1605.628 1717.722 1606.728 1713.934 1603.406 C 1710.088 1600.073 1709.533 1594.241 1712.624 1589.67 C 1715.671 1585.112 1721.908 1584.004 1725.7 1587.349 Z M 1726.361 1594.391 C 1726.261 1593.386 1726.03 1592.409 1725.675 1591.483 C 1725.311 1590.513 1724.833 1589.598 1724.25 1588.753 C 1723.685 1587.922 1722.905 1587.261 1721.982 1586.831 C 1719.816 1585.815 1717.086 1586.544 1715.493 1588.564 C 1714.568 1589.69 1713.908 1590.994 1713.569 1592.369 C 1713.228 1593.688 1713.108 1595.035 1713.215 1596.354 C 1713.348 1597.71 1713.691 1599.02 1714.236 1600.238 C 1714.789 1601.493 1715.654 1602.57 1716.758 1603.376 C 1718.651 1604.81 1721.432 1604.614 1723.376 1602.908 C 1724.183 1602.203 1724.825 1601.332 1725.247 1600.368 C 1725.675 1599.402 1725.987 1598.398 1726.175 1597.379 C 1726.372 1596.384 1726.43 1595.378 1726.351 1594.391 Z" style="fill: rgb(35, 31, 32);" transform="matrix(0.996082, -0.088439, 0.088439, 0.996082, -134.353374, 158.348706)"/>
  <path class="cls-2" d="M 1754.072 1597.045 L 1746.789 1598.34 L 1746.708 1597.344 L 1749.165 1596.906 L 1747.632 1580.251 L 1742.16 1590.561 C 1743.323 1592.013 1744.056 1593.775 1744.285 1595.671 C 1744.379 1596.515 1744.235 1597.39 1743.871 1598.201 C 1743.558 1598.956 1742.85 1599.505 1742.048 1599.615 C 1741.248 1599.785 1740.448 1599.557 1739.914 1599.008 C 1739.348 1598.45 1739.008 1597.702 1738.948 1596.886 C 1738.91 1595.276 1739.351 1593.651 1740.216 1592.204 L 1732.801 1583.24 L 1734.368 1599.506 L 1736.693 1599.097 L 1736.776 1600.093 L 1731.074 1601.089 L 1730.992 1600.093 L 1733.389 1599.665 L 1731.769 1582.413 L 1729.372 1582.841 L 1729.289 1581.845 L 1734.389 1580.939 L 1741.59 1589.635 L 1747.435 1578.628 L 1752.353 1577.751 L 1752.434 1578.747 L 1750.109 1579.156 L 1751.729 1596.408 L 1754.055 1596 Z M 1742.829 1597.045 C 1742.525 1595.546 1741.843 1594.178 1740.843 1593.061 C 1740.149 1594.205 1739.816 1595.504 1739.89 1596.776 C 1739.934 1597.344 1740.15 1597.871 1740.509 1598.29 C 1740.837 1598.696 1741.379 1598.875 1741.924 1598.759 C 1742.618 1598.619 1742.92 1598.044 1742.83 1597.035 Z" style="fill: rgb(35, 31, 32);" transform="matrix(0.996082, -0.088439, 0.088439, 0.996082, -133.741396, 160.259549)"/>
  <path class="cls-2" d="M 1677.486 1664.227 C 1675.656 1664.386 1674.511 1662.534 1675.427 1660.893 C 1675.494 1660.774 1675.57 1660.66 1675.655 1660.552 L 1800.655 1502.693 C 1801.826 1501.213 1804.073 1501.405 1804.7 1503.037 C 1804.991 1503.796 1804.836 1504.686 1804.292 1505.372 L 1679.282 1663.231 C 1678.838 1663.796 1678.181 1664.16 1677.486 1664.227 Z" style="fill: rgb(35, 31, 32);" transform="matrix(0.996082, -0.088439, 0.088439, 0.996082, -133.178263, 160.085011)"/>
  <path class="cls-3" d="M 1704.792 1622.066 C 1705.633 1625.871 1708.788 1628.581 1712.757 1628.909 C 1719.721 1629.617 1767.279 1562.451 1767.279 1562.451 C 1767.279 1562.451 1756.994 1562.829 1756.928 1554.074 C 1756.862 1545.318 1704.792 1622.066 1704.792 1622.066 Z" style="fill: rgb(214, 31, 44);" transform="matrix(0.996082, -0.088439, 0.088439, 0.996082, -133.917543, 159.768854)"/>
  <path class="cls-2" d="M 1713.245 1632.309 C 1713.124 1632.334 1713 1632.334 1712.884 1632.309 C 1705.563 1629.848 1706.584 1624.778 1706.634 1624.559 C 1706.779 1623.889 1707.593 1623.56 1708.1 1623.969 C 1708.335 1624.159 1708.439 1624.467 1708.371 1624.778 C 1708.356 1624.948 1707.696 1628.663 1713.584 1630.635 C 1714.218 1630.831 1714.339 1631.651 1713.802 1632.114 C 1713.642 1632.251 1713.444 1632.334 1713.242 1632.349 Z" style="fill: rgb(35, 31, 32);" transform="matrix(0.996082, -0.088439, 0.088439, 0.996082, -137.28225, 157.640168)"/>
  <path class="cls-2" d="M 1760.714 1560.88 C 1760.626 1560.893 1760.539 1560.893 1760.454 1560.88 C 1752.835 1559.276 1753.278 1554.166 1753.301 1553.907 C 1753.362 1553.229 1754.14 1552.804 1754.702 1553.144 C 1754.964 1553.302 1755.106 1553.592 1755.078 1553.907 C 1755.063 1554.086 1754.843 1557.802 1760.972 1559.097 C 1761.628 1559.229 1761.829 1560.028 1761.336 1560.535 C 1761.17 1560.705 1760.949 1560.811 1760.718 1560.83 Z" style="fill: rgb(35, 31, 32);" transform="matrix(0.996082, -0.088439, 0.088439, 0.996082, -130.809852, 161.528609)"/>
  <path class="cls-2" d="M 1665.939 1631.971 C 1662.644 1632.286 1659.592 1630.818 1657.968 1628.136 L 1650.297 1615.366 C 1646.89 1609.717 1649.356 1601.96 1655.645 1598.543 C 1671.265 1590.086 1701.837 1575.802 1730.909 1575.264 C 1748.356 1574.771 1765.834 1570.819 1782.308 1563.64 C 1784.227 1562.782 1786.288 1563.901 1786.456 1565.891 L 1788.303 1587.606 C 1788.841 1593.877 1784.837 1600.059 1778.682 1602.457 C 1771.398 1605.336 1758.458 1609.161 1738.434 1611.043 L 1738.434 1611.043 C 1735.072 1611.362 1731.693 1611.552 1728.345 1611.611 C 1705.215 1612.04 1677.587 1626.403 1669.667 1630.796 C 1668.501 1631.442 1667.23 1631.843 1665.939 1631.971 Z M 1723.467 1577.436 C 1697.074 1579.916 1670.568 1592.377 1656.424 1600.067 C 1651.049 1602.954 1648.934 1609.571 1651.849 1614.38 L 1659.522 1627.14 C 1661.398 1630.254 1665.529 1631.184 1668.979 1629.272 C 1677.004 1624.829 1705.01 1610.286 1728.551 1609.848 C 1731.809 1609.788 1735.149 1609.599 1738.459 1609.29 L 1738.459 1609.29 C 1758.261 1607.428 1770.994 1603.662 1778.183 1600.824 C 1783.549 1598.732 1787.036 1593.341 1786.561 1587.875 L 1784.714 1566.16 C 1784.663 1565.3 1783.785 1564.803 1782.956 1565.164 C 1766.257 1572.45 1748.537 1576.467 1730.847 1576.977 C 1728.37 1577.067 1725.917 1577.206 1723.467 1577.436 Z" style="fill: rgb(35, 31, 32);" transform="matrix(0.996082, -0.088439, 0.088439, 0.996082, -134.563825, 158.248428)"/>
  <path class="cls-1" d="M 1658.742 1627.638 L 1651.063 1614.828 C 1647.916 1609.593 1650.211 1602.413 1656.04 1599.259 C 1671.649 1590.803 1701.99 1576.638 1730.872 1576.09 C 1748.444 1575.574 1766.043 1571.596 1782.64 1564.386 C 1784.006 1563.782 1785.467 1564.577 1785.591 1565.99 L 1787.437 1587.705 C 1787.911 1593.566 1784.174 1599.329 1778.433 1601.59 C 1770.739 1604.578 1757.982 1608.284 1738.453 1610.117 C 1735.193 1610.425 1731.863 1610.615 1728.463 1610.684 C 1707.769 1611.073 1682.86 1622.498 1669.335 1629.988 C 1665.479 1632.139 1660.854 1631.113 1658.742 1627.638 Z" style="fill: rgb(254, 226, 146);" transform="matrix(0.996082, -0.088439, 0.088439, 0.996082, -134.559484, 158.247287)"/>
  <path class="cls-5" d="M 1664.73 1573.344 C 1664.73 1573.344 1669.791 1548.213 1693.982 1551.431 C 1693.988 1551.361 1675.183 1555.684 1664.73 1573.344 Z" style="fill: rgb(246, 157, 170);" transform="matrix(0.996082, -0.088439, 0.088439, 0.996082, -131.582308, 154.641179)"/>
  <path class="cls-6" d="M 1707.625 1591.109 L 1707.553 1591.109 C 1705.969 1591.548 1704.337 1591.846 1702.768 1592.105 L 1701.838 1592.275 C 1701.315 1592.344 1701.013 1592.943 1701.295 1593.354 C 1701.427 1593.544 1701.657 1593.641 1701.901 1593.609 L 1701.95 1593.609 L 1702.553 1593.5 C 1702.483 1593.571 1702.425 1593.651 1702.382 1593.739 L 1701.626 1595.124 C 1701.066 1596.12 1700.487 1597.195 1699.953 1598.241 C 1699.338 1599.417 1698.788 1600.621 1698.309 1601.847 C 1697.393 1600.851 1696.487 1599.745 1695.577 1598.69 C 1694.667 1597.634 1693.674 1596.369 1692.647 1595.273 L 1692.647 1595.273 L 1692.573 1595.193 L 1692.573 1595.193 L 1693.003 1595.114 C 1693.179 1595.085 1693.344 1594.988 1693.458 1594.845 C 1693.801 1594.43 1693.593 1593.843 1693.083 1593.787 C 1693.029 1593.781 1692.974 1593.782 1692.919 1593.789 L 1692.919 1593.789 C 1692.112 1593.925 1691.308 1594.105 1690.512 1594.327 C 1689.752 1594.526 1688.936 1594.775 1687.934 1595.094 C 1687.766 1595.167 1687.63 1595.305 1687.56 1595.472 C 1687.4 1595.822 1687.545 1596.208 1687.884 1596.339 L 1687.954 1596.339 L 1688.054 1596.339 L 1688.185 1596.339 C 1688.263 1596.332 1688.339 1596.311 1688.411 1596.279 L 1689.051 1596.08 L 1689.035 1596.259 L 1689.035 1596.259 C 1688.986 1597.952 1689.029 1599.725 1689.159 1601.668 C 1689.341 1604.347 1689.694 1606.947 1689.972 1609.358 C 1690.081 1610.154 1690.19 1610.971 1690.291 1611.738 L 1689.423 1611.907 C 1689.242 1611.939 1689.075 1612.04 1688.958 1612.186 C 1688.843 1612.332 1688.788 1612.51 1688.803 1612.684 C 1688.837 1613.024 1689.126 1613.263 1689.476 1613.242 L 1689.535 1613.242 L 1691.068 1612.943 C 1691.966 1612.774 1692.896 1612.595 1693.8 1612.366 C 1693.977 1612.33 1694.141 1612.231 1694.257 1612.087 C 1694.589 1611.656 1694.355 1611.069 1693.835 1611.031 C 1693.803 1611.029 1693.771 1611.029 1693.737 1611.031 L 1693.667 1611.031 L 1693.421 1611.091 C 1693.133 1608.342 1693.043 1605.523 1692.964 1602.783 L 1692.964 1602.783 C 1692.911 1601.11 1692.857 1599.367 1692.756 1597.674 L 1692.771 1597.504 C 1693.37 1598.201 1693.958 1598.929 1694.539 1599.626 C 1695.5 1600.801 1696.496 1602.016 1697.561 1603.142 L 1697.102 1603.212 C 1696.93 1603.238 1696.769 1603.331 1696.658 1603.471 C 1696.536 1603.62 1696.476 1603.807 1696.491 1603.989 C 1696.522 1604.342 1696.833 1604.584 1697.195 1604.537 L 1697.195 1604.537 C 1698.078 1604.397 1698.956 1604.207 1699.826 1603.969 C 1700.004 1603.933 1700.166 1603.833 1700.282 1603.69 C 1700.616 1603.259 1700.382 1602.672 1699.861 1602.634 C 1699.829 1602.632 1699.797 1602.632 1699.764 1602.634 L 1699.693 1602.634 L 1699.395 1602.714 C 1699.902 1601.356 1700.496 1600.024 1701.176 1598.729 C 1701.705 1597.733 1702.286 1596.628 1702.795 1595.741 C 1703.105 1598.371 1703.194 1601.08 1703.292 1603.71 C 1703.339 1604.995 1703.392 1606.329 1703.456 1607.634 C 1703.489 1608.182 1703.518 1608.74 1703.562 1609.268 L 1702.4 1609.577 L 1702.31 1609.577 L 1702.22 1609.577 C 1701.73 1609.792 1701.614 1610.431 1702.01 1610.728 C 1702.013 1610.729 1702.014 1610.731 1702.017 1610.732 C 1702.138 1610.821 1702.29 1610.863 1702.447 1610.852 L 1702.519 1610.852 C 1703.744 1610.493 1705.012 1610.234 1706.231 1609.975 C 1706.886 1609.836 1707.57 1609.696 1708.277 1609.547 C 1708.453 1609.512 1708.617 1609.411 1708.732 1609.268 C 1709.066 1608.836 1708.831 1608.25 1708.31 1608.213 C 1708.281 1608.211 1708.253 1608.211 1708.224 1608.212 L 1708.154 1608.212 L 1707.569 1608.342 C 1707.508 1605.752 1707.288 1603.142 1707.08 1600.622 C 1706.921 1598.69 1706.757 1596.698 1706.66 1594.725 C 1706.632 1594.038 1706.6 1593.37 1706.586 1592.733 L 1707.676 1592.454 L 1707.766 1592.454 L 1707.856 1592.454 C 1708.346 1592.239 1708.462 1591.599 1708.065 1591.304 C 1708.063 1591.302 1708.062 1591.301 1708.059 1591.299 C 1707.938 1591.21 1707.786 1591.168 1707.629 1591.179 Z" style="fill: rgb(45, 45, 44);" transform="matrix(0.996082, -0.088439, 0.088439, 0.996082, -135.041203, 156.464983)"/>
  <path class="cls-6" d="M 1727.878 1594.825 C 1727.419 1592.479 1726.262 1590.378 1724.551 1588.779 C 1723.756 1588.027 1722.797 1587.462 1721.736 1587.115 C 1720.672 1586.759 1719.49 1586.759 1718.362 1587.115 C 1716.832 1587.762 1715.526 1588.89 1714.665 1590.313 C 1713.308 1592.268 1712.509 1594.517 1712.363 1596.797 C 1712.141 1601.668 1715.888 1606.061 1721.061 1605.473 C 1723.661 1605.182 1726.032 1603.554 1727.282 1601.2 C 1728.021 1599.587 1728.299 1597.839 1728.081 1596.16 C 1728.036 1595.709 1727.969 1595.264 1727.878 1594.825 Z M 1724.812 1597.464 C 1724.784 1598.414 1724.584 1599.365 1724.222 1600.273 C 1723.822 1601.237 1723.227 1602.123 1722.475 1602.873 C 1721.872 1603.542 1721.073 1604.006 1720.21 1604.188 C 1719.248 1604.268 1718.326 1603.971 1717.644 1603.361 C 1716.888 1602.717 1716.38 1601.835 1716.191 1600.841 C 1715.566 1598.73 1715.424 1596.471 1715.775 1594.217 C 1715.931 1593.069 1716.29 1591.939 1716.834 1590.88 C 1717.187 1590.187 1717.7 1589.576 1718.327 1589.097 C 1718.963 1588.616 1719.75 1588.403 1720.497 1588.51 C 1721.364 1588.749 1722.087 1589.293 1722.541 1590.044 C 1723.802 1591.772 1724.569 1593.829 1724.771 1596.02 C 1724.816 1596.497 1724.83 1596.98 1724.812 1597.464 Z" style="fill: rgb(45, 45, 44);" transform="matrix(0.996082, -0.088439, 0.088439, 0.996082, -134.423827, 158.391087)"/>
  <path class="cls-6" d="M 1752.692 1596.027 C 1752.652 1595.815 1752.517 1595.64 1752.324 1595.549 C 1751.996 1595.435 1751.619 1595.486 1751.307 1595.689 C 1750.713 1590.429 1750.484 1585.104 1750.623 1579.751 C 1751.134 1579.757 1751.506 1579.212 1751.295 1578.772 C 1751.247 1578.669 1751.171 1578.585 1751.074 1578.526 C 1750.763 1578.398 1750.403 1578.398 1750.07 1578.526 L 1745.134 1579.612 C 1744.866 1579.638 1744.607 1579.762 1744.411 1579.96 C 1744.226 1580.251 1744.285 1580.615 1744.547 1580.797 C 1744.827 1580.95 1745.175 1580.95 1745.48 1580.797 C 1744.175 1583.818 1742.954 1586.866 1741.818 1589.941 C 1739.652 1587.592 1737.653 1585.093 1735.836 1582.461 C 1736.334 1582.496 1736.732 1581.979 1736.552 1581.531 C 1736.476 1581.342 1736.307 1581.209 1736.1 1581.176 C 1735.865 1581.134 1735.616 1581.158 1735.382 1581.245 L 1730.818 1582.55 C 1730.552 1582.592 1730.306 1582.735 1730.13 1582.949 C 1729.983 1583.264 1730.101 1583.619 1730.4 1583.755 C 1730.709 1583.893 1731.071 1583.893 1731.404 1583.755 C 1731.59 1589.194 1731.981 1594.6 1732.575 1599.972 C 1732.26 1600.019 1731.957 1600.151 1731.697 1600.35 C 1731.444 1600.595 1731.378 1600.966 1731.537 1601.247 C 1731.765 1601.516 1732.31 1601.376 1732.617 1601.297 L 1737.3 1600.121 C 1737.612 1600.084 1737.906 1599.922 1738.113 1599.673 C 1738.265 1599.382 1738.193 1599.042 1737.944 1598.866 C 1737.678 1598.716 1737.342 1598.716 1737.051 1598.866 C 1736.323 1594.276 1735.904 1589.618 1735.799 1584.921 L 1741.241 1591.465 C 1740.91 1591.527 1740.608 1591.722 1740.41 1592.003 C 1740.217 1592.299 1740.276 1592.673 1740.544 1592.86 C 1740.796 1592.976 1741.096 1592.976 1741.369 1592.86 L 1742.889 1592.352 C 1743.125 1592.296 1743.348 1592.178 1743.531 1592.013 C 1743.851 1591.563 1743.585 1590.981 1743.054 1590.966 C 1743.033 1590.965 1743.013 1590.966 1742.991 1590.967 C 1743.838 1588.376 1744.839 1585.824 1745.99 1583.327 C 1746.35 1587.849 1746.366 1592.421 1746.383 1596.993 C 1745.931 1596.993 1745.365 1597.153 1745.225 1597.591 C 1745.174 1597.934 1745.374 1598.243 1745.701 1598.328 C 1746.024 1598.41 1746.368 1598.41 1746.705 1598.328 C 1748.531 1598.081 1750.339 1597.616 1752.088 1596.943 C 1752.323 1596.874 1752.532 1596.725 1752.678 1596.525 C 1752.763 1596.364 1752.769 1596.179 1752.692 1596.027 Z" style="fill: rgb(45, 45, 44);" transform="matrix(0.996082, -0.088439, 0.088439, 0.996082, -133.787692, 160.238895)"/>
</svg>