<?xml version="1.0" encoding="utf-8"?>
<svg viewBox="0 0 3000 3000" xmlns="http://www.w3.org/2000/svg" xmlns:bx="https://boxy-svg.com">
  <g id="tailFur">
    <clipPath id="tailFurClipPath">
      <path d="M1942.6 1959.2c69 30 162.4 39.9 162.4 39.9s347.1 45 398.6-246c19.5-161.9-177.1-195.4-177.1-195.4s91.8-36.7 124.7-7c0 0-18.5-30.3-46.3-32.7 0 0 118.2-79.9 213.3 102.6 0 0-12.3-93-50.5-111.6 0 0 142.5 32.6 167.6 241.5 0 0 26.3-41.6 23.4-76.4 0 0 67.9 99.8-7.3 214.7 0 0 58.9-56.3 63.7-86.5 0 0 73.9 212.1-151.5 244.1 0 0 61.2 22.9 101.8 3.3 0 0-39.1 85.3-165.9 74.3 0 0 61.7 42.1 99.3 33.5 0 0-93.2 47.7-251.3 13.2 0 0 53.6 49.5 93.2 50.5l-10.5 2.6a635.5 635.5 0 0 1-345.6-16.1l-151-50.4-90.9-37.1v-161z" fill="none" stroke="#31323d" stroke-linecap="round" stroke-linejoin="round" stroke-width="12.5"/>
    </clipPath>
    <g clip-path="url(#tailFurClipPath)"/>
    <g id="tailShadow">
      <defs>
        <clipPath id="tailShadowClipPath">
          <path fill="none" d="M1942.6 1959.2c69 30 162.4 39.9 162.4 39.9s347.1 45 398.6-246c19.5-161.9-177.1-195.4-177.1-195.4s91.8-36.7 124.7-7c0 0-18.5-30.3-46.3-32.7 0 0 118.2-79.9 213.3 102.6 0 0-12.3-93-50.5-111.6 0 0 142.5 32.6 167.6 241.5 0 0 26.3-41.6 23.4-76.4 0 0 67.9 99.8-7.3 214.7 0 0 58.9-56.3 63.7-86.5 0 0 73.9 212.1-151.5 244.1 0 0 61.2 22.9 101.8 3.3 0 0-39.1 85.3-165.9 74.3 0 0 61.7 42.1 99.3 33.5 0 0-93.2 47.7-251.3 13.2 0 0 53.6 49.5 93.2 50.5l-10.5 2.6a635.5 635.5 0 0 1-345.6-16.1l-151-50.4-90.9-37.1v-161z"/>
        </clipPath>
        <linearGradient id="tailShadowGradient4" x1="2751.27" x2="2751.27" y1="1935.67" y2="1592.06" gradientUnits="userSpaceOnUse">
          <stop offset="0" stop-color="#fff" stop-opacity="0"/>
          <stop offset="0.72" stop-color="#fff"/>
        </linearGradient>
      </defs>
      <g style="isolation:isolate">
        <path fill="none" d="M3000 3010L0 3000V0l3000 10v3000"/>
        <path fill="none" d="M3000 3010L0 3000V0l3000 10v3000"/>
        <g clip-path="url(#tailShadowClipPath)" data-name="TAIL 02">
          <path fill="url(#tailShadowGradient4)" d="M2756.9 1685.6c7.8 87.6-16 177.7-66 250.1 63.9-20.6 108-84 118-150.4s-9.7-134.4-41.9-193.3" opacity=".5" style="mix-blend-mode:overlay"/>
        </g>
      </g>
    </g>
  </g>
  <g id="tail"/>
  <g id="bodyFur">
    <clipPath id="furClipPath">
      <path fill="none" d="M1211.5 866.4a240.2 240.2 0 0 1 129.5-37.8h158.2A240.5 240.5 0 0 1 1607 854c24.5-19.2 89.4-68.2 129.3-66.3a15 15 0 0 1 12.1 22.9L1684 914.8a240.5 240.5 0 0 1 47.2 89.2l295.1 960.1a248.1 248.1 0 0 1-6.4 155.9l.8.3c47.5 13.8 136.8 46.1 179.8 75.5 26.1 17.8 10.1 55.9-23.2 55.3l-261.6-5a246.8 246.8 0 0 1-65.3 28c2.8 13.3 12.3 21 28.1 21.9 18.2 1 23.7 18.6 24.5 25.5 2.3 21.2-5.8 34.7-27.9 36.9l-91.8 3a53.5 53.5 0 0 1-22.3-4 71.6 71.6 0 0 1-43.1-54.3l-3.5-20.7h-533.5l-5 26.6a71.4 71.4 0 0 1-8.8 23.9c-13.4 22.8-38.9 35.7-65.3 34.1l-84.3-5c-21.4-1.6-31.9-18.9-27.2-40.4 2.5-11.1 15.1-20.3 30.6-21.1 23.3-1.2 30.3-20.2 29.9-43.6v-3.3q-7.1-3.7-13.9-7.9L770 2251c-33.3.6-49.7-38.2-23.2-55.3 54-34.9 146.4-69.2 184.5-78.3l.6-.2a248.9 248.9 0 0 1-12.6-117.6l182.9-961.4a240.3 240.3 0 0 1 33-93.8l-60.5-108.1a15 15 0 0 1 .9-16c24.9-34.9 89.3 8.5 130.8 42.6z"/>
    </clipPath>
    <g clip-path="url(#furClipPath)"/>
  </g>
  <g id="shadow" transform="matrix(1, 0, 0, 1.154445, 0, -156.557037)">
    <defs>
      <clipPath id="shadowClipPath">
        <path fill="none" d="M1211.5 866.4a240.2 240.2 0 0 1 129.5-37.8h158.2A240.5 240.5 0 0 1 1607 854c24.5-19.2 89.4-68.2 129.3-66.3a15 15 0 0 1 12.1 22.9L1684 914.8a240.5 240.5 0 0 1 47.2 89.2l295.1 960.1a248.1 248.1 0 0 1-6.4 155.9l.8.3c47.5 13.8 136.8 46.1 179.8 75.5 26.1 17.8 10.1 55.9-23.2 55.3l-261.6-5a246.8 246.8 0 0 1-65.3 28c2.8 13.3 12.3 21 28.1 21.9 18.2 1 23.7 18.6 24.5 25.5 2.3 21.2-5.8 34.7-27.9 36.9l-91.8 3a53.5 53.5 0 0 1-22.3-4 71.6 71.6 0 0 1-43.1-54.3l-3.5-20.7h-533.5l-5 26.6a71.4 71.4 0 0 1-8.8 23.9c-13.4 22.8-38.9 35.7-65.3 34.1l-84.3-5c-21.4-1.6-31.9-18.9-27.2-40.4 2.5-11.1 15.1-20.3 30.6-21.1 23.3-1.2 30.3-20.2 29.9-43.6v-3.3q-7.1-3.7-13.9-7.9L770 2251c-33.3.6-49.7-38.2-23.2-55.3 54-34.9 146.4-69.2 184.5-78.3l.6-.2a248.9 248.9 0 0 1-12.6-117.6l182.9-961.4a240.3 240.3 0 0 1 33-93.8l-60.5-108.1a15 15 0 0 1 .9-16c24.9-34.9 89.3 8.5 130.8 42.6z"/>
      </clipPath>
      <linearGradient id="shadowLinearGradient2" x1="1713.27" x2="1713.27" y1="794.55" y2="927.94" gradientUnits="userSpaceOnUse">
        <stop offset="0" stop-color="gray"/>
        <stop offset="0.14" stop-color="#797979"/>
        <stop offset="0.35" stop-color="#646464"/>
        <stop offset="0.6" stop-color="#434343"/>
        <stop offset="0.89" stop-color="#141414"/>
        <stop offset="1"/>
      </linearGradient>
      <linearGradient id="shadowLinearGradient5" x1="1041.15" x2="1175.15" y1="888.73" y2="888.73" gradientUnits="userSpaceOnUse">
        <stop offset="0" stop-color="gray"/>
        <stop offset="0.14" stop-color="#797979"/>
        <stop offset="0.35" stop-color="#646464"/>
        <stop offset="0.6" stop-color="#434343"/>
        <stop offset="0.89" stop-color="#141414"/>
        <stop offset="1"/>
      </linearGradient>
    </defs>
    <g clip-path="url(#shadowClipPath)" style="mix-blend-mode:multiply">
      <path fill="url(#shadowLinearGradient2)" d="M1781.2 799.5s-38-26-102 41.5l-33.7 40.5 56.1 46.5z" opacity=".4" style="mix-blend-mode:multiply"/>
      <path fill="url(#shadowLinearGradient5)" d="M1041.2 839.5s27.5-18.9 71.6-.8a122.7 122.7 0 0 1 47.5 35.2l14.9 17.9-37.7 54.9z" opacity=".4" style="mix-blend-mode:multiply"/>
    </g>
  </g>
  <g id="highlight">
    <defs>
      <clipPath id="highlightClipPath">
        <path fill="none" d="M1211.5 866.4a240.2 240.2 0 0 1 129.5-37.8h158.2A240.5 240.5 0 0 1 1607 854c24.5-19.2 89.4-68.2 129.3-66.3a15 15 0 0 1 12.1 22.9L1684 914.8a240.5 240.5 0 0 1 47.2 89.2l295.1 960.1a248.1 248.1 0 0 1-6.4 155.9l.8.3c47.5 13.8 136.8 46.1 179.8 75.5 26.1 17.8 10.1 55.9-23.2 55.3l-261.6-5a246.8 246.8 0 0 1-65.3 28c2.8 13.3 12.3 21 28.1 21.9 18.2 1 23.7 18.6 24.5 25.5 2.3 21.2-5.8 34.7-27.9 36.9l-91.8 3a53.5 53.5 0 0 1-22.3-4 71.6 71.6 0 0 1-43.1-54.3l-3.5-20.7h-533.5l-5 26.6a71.4 71.4 0 0 1-8.8 23.9c-13.4 22.8-38.9 35.7-65.3 34.1l-84.3-5c-21.4-1.6-31.9-18.9-27.2-40.4 2.5-11.1 15.1-20.3 30.6-21.1 23.3-1.2 30.3-20.2 29.9-43.6v-3.3q-7.1-3.7-13.9-7.9L770 2251c-33.3.6-49.7-38.2-23.2-55.3 54-34.9 146.4-69.2 184.5-78.3l.6-.2a248.9 248.9 0 0 1-12.6-117.6l182.9-961.4a240.3 240.3 0 0 1 33-93.8l-60.5-108.1a15 15 0 0 1 .9-16c24.9-34.9 89.3 8.5 130.8 42.6z"/>
      </clipPath>
    </defs>
    <g clip-path="url(#highlightClipPath)" opacity=".2" style="mix-blend-mode:overlay"/>
  </g>
  <g id="body"/>
  <g id="mouth"/>
  <g transform="matrix(1.005183, 0, 0, 1.165489, -9.750342, -163.967514)">
    <path class="st6" d="M 1853.653 802.784 C 1852.73 792.925 1850.881 783.069 1847.493 773.52 C 1845.954 768.899 1844.105 764.279 1841.949 759.967 C 1840.408 756.886 1838.868 753.807 1836.712 751.034 C 1829.012 739.945 1817.923 731.32 1806.217 724.852 C 1799.748 721.156 1792.664 718.383 1785.579 715.61 C 1779.11 713.147 1772.334 711.298 1765.866 709.758 C 1770.793 711.298 1775.722 712.84 1780.342 714.995 C 1783.731 716.228 1786.813 717.768 1789.891 719.308 C 1790.815 719.615 1791.432 720.231 1792.356 720.539 C 1793.897 721.463 1795.745 722.389 1797.284 723.004 L 1797.284 723.004 C 1798.209 723.312 1798.824 723.928 1799.748 724.235 L 1799.748 724.235 C 1799.132 723.928 1798.517 723.928 1797.902 723.621 C 1796.668 723.312 1795.437 722.696 1794.204 722.389 C 1793.589 722.08 1792.972 722.08 1792.356 721.771 C 1789.891 721.156 1787.735 720.539 1785.272 719.924 C 1784.039 719.615 1782.5 719.308 1781.267 718.998 C 1778.188 718.383 1774.798 717.768 1771.719 717.152 C 1771.719 717.152 1771.719 717.152 1771.411 717.152 L 1771.102 717.152 C 1769.253 716.844 1767.099 716.535 1765.251 716.535 C 1756.318 715.61 1747.693 715.61 1738.76 715.61 C 1736.912 715.61 1735.063 715.61 1733.214 715.61 L 1733.214 715.61 C 1729.518 715.61 1725.514 715.919 1721.818 715.919 C 1716.581 716.228 1711.344 716.844 1706.109 717.459 C 1700.871 718.076 1695.328 718.998 1690.09 719.924 C 1682.699 721.463 1675.305 723.312 1667.912 724.852 C 1667.297 725.161 1666.372 725.161 1665.756 725.468 C 1660.829 726.7 1655.899 727.933 1650.971 729.164 C 1650.355 729.472 1649.432 729.472 1648.814 729.78 C 1647.891 730.088 1646.658 730.396 1645.735 730.705 C 1645.12 730.705 1644.812 731.011 1644.194 731.011 C 1637.11 732.86 1630.334 734.709 1623.25 736.558 C 1618.937 737.79 1614.933 738.713 1610.62 739.636 C 1609.695 739.329 1608.772 739.329 1607.847 739.329 C 1607.539 739.329 1607.23 739.329 1606.923 739.329 C 1606.307 739.329 1605.69 739.329 1605.074 739.636 C 1601.687 740.253 1598.298 741.178 1594.911 741.793 C 1588.133 743.334 1581.049 744.566 1574.272 746.107 C 1562.568 748.571 1550.554 750.11 1538.542 752.266 C 1538.542 751.649 1538.542 751.342 1538.542 750.727 C 1538.234 750.727 1537.924 750.727 1537.924 750.727 C 1538.234 750.727 1538.234 750.727 1538.542 750.418 C 1538.542 750.418 1538.542 750.418 1538.85 750.418 C 1540.389 749.802 1541.929 749.495 1543.469 748.878 C 1548.089 747.338 1552.402 745.49 1556.714 743.643 C 1567.803 739.022 1578.892 734.401 1590.289 730.088 C 1596.142 727.933 1601.687 725.777 1607.539 723.621 C 1613.084 721.771 1618.937 719.924 1624.789 718.076 C 1632.182 715.919 1639.574 714.071 1647.274 712.222 C 1649.123 711.915 1650.663 711.607 1652.511 710.99 C 1654.36 710.682 1655.899 710.375 1657.747 710.066 C 1659.903 709.45 1662.368 709.142 1664.524 708.834 C 1661.752 701.75 1658.672 694.665 1655.899 687.581 C 1652.511 679.571 1649.432 671.255 1646.043 663.247 C 1639.574 646.921 1633.105 630.287 1627.252 613.655 C 1621.401 597.02 1615.855 580.386 1611.235 563.445 C 1606.307 546.196 1602.303 528.946 1599.839 511.388 C 1596.758 486.746 1596.142 461.795 1594.911 437.153 C 1596.758 427.605 1596.449 417.747 1594.293 408.199 C 1593.986 406.351 1593.371 404.502 1592.755 402.653 L 1592.755 402.653 C 1592.138 401.73 1591.83 400.498 1591.214 399.574 L 1591.214 399.574 C 1589.981 396.802 1588.441 394.028 1586.902 391.258 C 1584.438 386.636 1581.357 382.324 1577.969 378.319 C 1573.964 373.699 1569.344 369.695 1564.107 366.922 C 1562.876 366.306 1561.643 365.69 1560.104 365.074 C 1556.714 363.226 1553.635 361.686 1549.938 360.146 L 1549.631 360.146 L 1549.631 360.146 L 1549.631 360.146 C 1545.01 358.298 1540.389 356.449 1536.076 354.91 C 1536.076 354.91 1536.076 354.91 1535.768 354.91 C 1535.152 354.601 1534.537 354.601 1534.229 354.293 C 1524.371 350.905 1514.514 348.133 1504.657 345.977 C 1480.632 340.432 1455.99 337.968 1431.346 337.66 C 1428.883 337.352 1426.11 337.352 1423.647 337.352 C 1420.258 337.352 1417.178 337.044 1413.789 337.044 C 1405.164 337.044 1396.232 337.352 1387.607 338.276 C 1387.299 338.276 1386.991 338.276 1386.683 338.276 C 1386.376 338.276 1385.76 337.968 1385.451 337.968 L 1385.143 337.968 C 1366.045 338.892 1346.639 341.048 1327.85 344.744 C 1321.688 345.977 1315.528 347.517 1309.368 348.749 C 1303.824 349.981 1298.587 351.213 1293.042 352.753 C 1269.016 358.606 1244.99 365.074 1221.272 372.466 C 1195.705 380.476 1170.447 389.717 1145.805 400.498 C 1121.779 410.971 1098.676 423.291 1077.114 438.385 C 1068.182 444.545 1059.865 451.014 1051.548 458.407 L 1051.548 458.407 C 1041.075 464.567 1031.527 471.96 1022.902 480.277 C 1017.973 484.897 1013.968 490.134 1009.964 495.37 C 1005.96 500.607 1003.188 506.459 1000.725 512.928 L 1000.725 513.236 C 999.8 515.698 998.876 518.165 998.259 520.628 C 997.643 523.402 997.335 526.173 997.643 528.637 C 997.027 532.334 996.411 536.029 996.411 539.726 C 996.103 545.272 996.411 551.123 997.335 556.36 C 997.643 559.441 998.259 562.829 998.876 565.908 L 998.876 566.217 C 999.8 570.837 1000.725 575.457 1001.648 580.079 C 1003.188 586.547 1005.344 593.015 1007.501 599.175 C 1009.964 606.569 1013.045 613.961 1016.126 621.353 L 1016.126 621.662 C 1020.437 630.902 1024.749 640.144 1029.371 649.384 C 1033.682 658.317 1037.996 667.557 1042.001 676.799 L 1042.001 677.107 C 1044.463 682.343 1046.928 687.58 1049.392 693.124 C 1052.78 701.134 1055.553 708.833 1058.633 716.843 C 1058.633 717.151 1058.941 717.151 1058.941 717.459 L 1058.941 717.767 C 1070.03 748.57 1078.346 779.988 1086.048 811.714 C 1086.048 811.714 1086.048 811.714 1086.048 812.023 C 1086.663 814.795 1087.279 817.568 1087.895 820.34 C 1091.284 835.742 1094.056 850.836 1096.212 866.546 C 1097.136 873.321 1097.752 880.097 1098.368 886.875 C 1100.217 886.259 1102.373 885.951 1104.221 885.334 C 1106.069 884.718 1108.225 884.41 1110.074 884.103 C 1116.85 882.562 1123.935 881.33 1131.019 880.097 C 1134.716 879.483 1138.412 878.866 1142.417 878.251 C 1142.725 878.251 1143.341 878.251 1143.649 877.942 L 1143.649 877.942 L 1143.649 877.942 C 1143.341 877.942 1143.033 878.251 1142.725 878.251 C 1137.796 880.407 1133.176 882.562 1128.247 884.718 C 1127.324 885.026 1126.707 885.334 1125.782 885.642 C 1120.855 887.8 1115.926 889.956 1110.998 892.11 C 1109.765 892.727 1108.841 893.035 1107.609 893.652 L 1107.609 893.652 C 1107.301 893.652 1106.993 893.959 1106.685 893.959 C 1105.454 894.575 1104.221 894.884 1102.989 895.498 C 1094.364 899.196 1085.431 902.892 1076.806 906.589 C 1076.498 906.589 1076.498 906.896 1076.19 906.896 L 1075.882 906.896 L 1075.882 906.896 C 1075.882 906.896 1075.882 906.896 1075.574 906.896 C 1070.338 909.054 1064.793 911.825 1059.557 914.289 C 1042.616 921.99 1025.982 930.615 1011.197 942.011 C 1009.964 942.936 1008.732 943.86 1007.808 944.785 C 1007.192 945.399 1006.576 945.709 1005.96 946.324 C 1005.344 946.941 1004.728 947.248 1004.42 947.865 L 1004.42 947.865 C 1009.656 940.164 1015.509 933.386 1022.286 927.226 C 1017.049 931.231 1011.813 935.851 1006.884 940.164 C 993.638 952.485 980.394 967.27 977.621 986.059 C 977.006 990.373 976.697 994.377 977.313 998.69 C 977.621 1003.311 978.855 1007.622 980.086 1011.935 C 983.165 1020.559 988.094 1027.95 993.638 1035.035 C 1001.956 1045.2 1012.429 1053.21 1023.209 1060.602 C 1034.914 1068.303 1047.236 1074.464 1060.173 1079.699 C 1074.65 1085.553 1089.982 1090.616 1105.454 1090.173 C 1117.675 1089.823 1132.633 1089.937 1144.157 1085.051 C 1144.157 1085.051 1152.175 1083.248 1162.169 1072.898 C 1171.267 1063.476 1172.002 1059.245 1174.774 1050.929 C 1180.318 1034.602 1181.266 1025.139 1186.035 1012.194 C 1191.581 997.141 1187.944 994.796 1198.354 983.513 C 1210.524 970.323 1211.564 971.485 1226.342 962.883 C 1320.315 908.184 1424.003 875.205 1520.825 855.89 C 1575.85 844.913 1610.219 846.93 1659.206 868.082 C 1701.712 886.436 1742.763 912.75 1775.414 945.092 C 1777.57 947.248 1780.975 950.474 1782.824 952.629 C 1785.904 956.633 1786.32 957.134 1790.632 959.598 C 1793.404 961.138 1797.284 963.882 1799.132 961.418 C 1802.829 956.49 1806.217 951.253 1809.913 946.016 C 1815.766 937.083 1822.235 928.151 1827.471 918.91 C 1832.399 910.285 1836.404 901.352 1840.1 892.111 C 1843.797 882.871 1846.877 873.321 1849.033 863.772 C 1851.497 853.607 1853.037 843.443 1854.269 833.278 C 1854.579 822.497 1854.579 812.64 1853.653 802.784 Z M 1565.339 714.995 C 1563.491 712.222 1561.335 709.45 1559.487 706.679 C 1556.407 701.75 1553.326 696.514 1551.17 691.277 C 1548.705 685.425 1546.241 679.263 1545.01 672.796 C 1542.854 660.782 1542.237 648.461 1542.545 636.14 L 1542.545 636.14 L 1542.545 636.14 C 1544.393 638.912 1545.933 641.993 1547.474 645.073 C 1550.246 650.31 1552.71 655.546 1555.174 660.782 C 1557.638 666.635 1560.104 672.796 1561.335 679.263 C 1562.568 685.425 1563.491 691.893 1564.107 698.054 C 1564.724 703.597 1565.032 709.45 1565.339 714.995 L 1565.339 714.995 Z M 1577.661 382.94 L 1577.661 382.94 C 1577.352 382.94 1577.352 382.633 1577.352 382.633 C 1577.661 382.633 1577.661 382.94 1577.661 382.94 Z M 1553.943 429.453 C 1553.943 423.907 1554.251 418.673 1554.251 413.126 L 1554.251 413.126 L 1554.251 413.126 C 1555.482 417.747 1556.714 422.367 1557.946 426.988 C 1560.104 434.996 1561.951 443.006 1564.107 451.014 C 1565.647 457.483 1567.188 463.952 1568.727 470.42 C 1569.96 475.349 1570.885 479.97 1571.808 484.897 C 1572.116 486.746 1572.424 488.285 1572.732 490.134 C 1577.661 514.469 1583.821 538.495 1590.289 562.521 C 1590.289 562.83 1590.597 563.136 1590.597 563.445 C 1590.906 564.062 1590.906 564.678 1591.214 565.294 C 1593.678 573.919 1596.142 582.235 1598.606 590.86 C 1598.914 592.092 1599.531 593.632 1599.839 594.864 L 1599.839 594.864 C 1600.454 596.712 1600.762 598.253 1601.378 600.1 C 1602.303 603.181 1603.227 605.953 1604.152 609.033 L 1604.152 609.033 C 1604.767 611.19 1605.69 613.655 1606.307 615.81 C 1609.079 624.127 1611.235 632.444 1612.777 640.761 C 1614.625 649.385 1615.855 658.318 1617.087 667.251 C 1618.012 675.26 1618.628 683.269 1619.553 691.277 L 1619.553 691.277 C 1615.855 685.733 1612.159 680.188 1608.772 674.644 C 1605.382 669.099 1602.303 663.247 1599.531 657.394 C 1596.449 650.925 1593.371 644.149 1590.906 637.372 C 1588.441 630.903 1586.594 624.743 1585.053 617.966 C 1583.205 610.882 1581.357 603.797 1579.816 596.712 C 1577.969 589.627 1576.428 582.235 1574.579 574.843 C 1570.268 555.129 1566.263 535.722 1562.568 515.7 C 1561.643 510.463 1560.719 505.228 1559.795 499.991 C 1557.638 487.669 1555.79 475.656 1554.866 463.336 C 1553.943 452.246 1553.635 440.849 1553.943 429.453 Z M 1535.152 500.915 L 1535.152 500.915 L 1535.152 500.915 C 1537.308 506.459 1539.465 512.312 1541.621 517.856 C 1547.165 532.951 1552.094 548.044 1556.407 563.445 C 1559.795 576.074 1563.183 589.011 1566.88 601.641 C 1570.576 614.27 1574.272 626.899 1578.584 639.528 C 1580.741 645.689 1582.589 652.157 1584.438 658.318 C 1586.286 664.48 1587.825 670.948 1589.673 677.416 C 1592.755 690.044 1595.526 702.982 1598.298 715.61 L 1598.298 715.61 C 1591.83 706.679 1585.977 697.13 1581.049 687.273 C 1575.813 677.108 1571.501 666.327 1568.111 655.546 C 1565.955 649.385 1564.415 642.917 1562.876 636.448 C 1561.335 629.979 1559.487 623.819 1557.946 617.351 C 1554.866 604.412 1552.094 591.476 1549.014 578.846 C 1547.474 572.378 1545.933 565.909 1544.701 559.442 C 1543.469 552.972 1542.237 546.503 1541.313 540.035 C 1540.081 533.567 1539.157 527.097 1538.234 520.628 C 1537.308 514.16 1536.385 507.691 1535.152 500.915 Z" style="fill: rgb(44, 44, 44);" transform="matrix(0.991608, 0.129283, -0.129283, 0.991608, 85.81343, -197.481564)" bx:origin="0.669 0.299"/>
    <path class="st7" d="M 1797.863 722.945 L 1797.863 722.945 C 1796.014 722.021 1794.473 721.097 1792.933 720.48 C 1792.009 720.172 1791.393 719.556 1790.468 719.249 C 1787.389 717.709 1784 716.169 1780.92 714.936 C 1776.3 713.088 1771.372 711.239 1766.443 709.699 C 1764.594 709.083 1762.747 708.467 1760.591 708.16 C 1753.505 706.312 1745.805 705.079 1738.411 704.464 C 1733.791 703.848 1729.171 703.848 1724.551 703.848 C 1721.779 703.848 1719.315 703.848 1716.542 703.848 C 1709.149 704.155 1701.756 704.464 1694.364 705.387 C 1686.355 706.312 1678.347 707.236 1670.338 708.467 C 1668.489 708.775 1666.641 709.083 1664.794 709.391 L 1664.794 709.391 C 1662.638 709.699 1660.173 710.316 1658.016 710.623 C 1656.169 710.931 1654.628 711.239 1652.78 711.548 C 1650.932 711.856 1649.393 712.164 1647.544 712.781 C 1640.151 714.628 1632.451 716.476 1625.057 718.632 C 1619.206 720.172 1613.661 722.021 1607.808 724.177 C 1601.957 726.025 1596.41 728.489 1590.558 730.646 C 1579.161 734.958 1568.072 739.578 1556.983 744.199 C 1552.671 746.048 1548.05 747.895 1543.738 749.436 C 1542.198 750.051 1540.659 750.668 1539.118 750.975 C 1539.118 750.975 1539.118 750.975 1538.811 750.975 C 1538.503 750.975 1538.503 750.975 1538.195 751.283 C 1538.503 751.283 1538.503 751.283 1538.811 751.283 C 1538.811 751.9 1538.811 752.207 1538.811 752.824 C 1550.823 750.668 1562.837 749.127 1574.54 746.663 C 1581.318 745.431 1588.402 743.891 1595.18 742.351 C 1598.567 741.734 1601.957 741.119 1605.343 740.194 C 1618.281 737.423 1631.218 734.65 1644.155 731.57 C 1645.696 731.261 1647.235 730.953 1648.775 730.337 C 1649.393 730.337 1650.009 730.029 1650.624 729.721 C 1655.552 728.489 1660.482 727.257 1665.41 726.025 C 1666.025 725.718 1666.949 725.718 1667.566 725.409 C 1674.958 723.562 1682.352 721.712 1689.743 720.48 C 1694.98 719.556 1700.524 718.632 1705.761 718.017 C 1710.998 717.401 1716.234 716.785 1721.471 716.476 C 1725.167 716.169 1729.171 716.169 1732.868 716.169 C 1732.868 716.169 1732.868 716.169 1732.868 716.169 C 1734.717 716.169 1736.565 716.169 1738.411 716.169 C 1747.346 715.86 1756.279 716.169 1764.904 717.093 C 1767.06 717.401 1768.906 717.401 1770.754 717.709 L 1771.063 717.709 C 1771.063 717.709 1771.063 717.709 1771.372 717.709 C 1774.451 718.324 1777.841 718.632 1780.92 719.556 C 1782.152 719.865 1783.692 720.172 1784.925 720.48 C 1787.389 721.097 1789.545 721.712 1792.009 722.33 C 1792.625 722.637 1793.242 722.637 1793.858 722.945 C 1795.089 723.253 1796.321 723.869 1797.553 724.177 C 1798.17 724.485 1798.785 724.485 1799.093 724.793 C 1799.093 724.793 1799.401 724.793 1799.401 724.793 C 1799.401 723.562 1798.785 723.253 1797.863 722.945 Z" style="fill: rgb(190, 190, 190);" transform="matrix(0.991608, 0.129283, -0.129283, 0.991608, 85.843661, -197.417355)" bx:origin="0.097 -2.886"/>
    <path class="st7" d="M 1142.684 877.966 C 1142.376 877.966 1141.759 877.966 1141.451 878.273 C 1137.755 878.889 1134.059 879.505 1130.054 880.121 C 1122.97 881.354 1116.193 882.585 1109.108 884.125 C 1107.26 884.433 1105.104 885.05 1103.257 885.357 C 1101.1 885.973 1099.251 886.282 1097.403 886.898 C 1094.323 887.822 1091.243 888.747 1088.163 889.67 C 1078.614 892.75 1069.373 896.755 1060.132 901.067 C 1051.507 905.072 1043.19 910.001 1035.489 915.544 C 1030.561 919.241 1025.941 922.937 1021.321 927.249 C 1021.321 927.249 1021.321 927.249 1021.321 927.249 C 1014.543 933.41 1008.383 940.495 1003.455 947.888 C 1003.455 947.888 1003.455 947.888 1003.455 947.888 C 1004.07 947.271 1004.687 946.963 1004.995 946.347 C 1005.611 945.732 1006.227 945.424 1006.843 944.807 C 1008.075 943.883 1009.307 942.959 1010.232 942.035 C 1025.016 930.638 1041.651 922.321 1058.592 914.312 C 1063.828 911.848 1069.065 909.384 1074.609 906.919 C 1074.609 906.919 1074.609 906.919 1074.917 906.919 C 1074.917 906.919 1074.917 906.919 1074.917 906.919 C 1074.917 906.919 1075.225 906.919 1075.225 906.919 C 1075.533 906.919 1075.533 906.611 1075.841 906.611 C 1084.466 902.916 1093.399 899.22 1102.024 895.522 C 1103.257 894.906 1104.488 894.599 1105.72 893.982 C 1106.028 893.982 1106.336 893.674 1106.644 893.674 C 1106.644 893.674 1106.644 893.674 1106.644 893.674 C 1107.876 893.058 1108.8 892.75 1110.033 892.135 C 1114.961 889.978 1119.889 887.822 1124.818 885.665 C 1125.741 885.357 1126.358 885.05 1127.283 884.741 C 1132.211 882.585 1136.831 880.43 1141.759 878.273 C 1142.376 878.273 1142.684 878.273 1142.684 877.966 C 1142.684 877.966 1142.684 877.966 1142.684 877.966 L 1142.684 877.966 Z" style="fill: rgb(190, 190, 190);" transform="matrix(0.991608, 0.129284, -0.129284, 0.991608, 85.977083, -197.41557)" bx:origin="4.023 -4.497"/>
    <path class="st7" d="M 1565.299 712.938 C 1565.299 712.938 1565.299 712.938 1565.299 712.938 C 1563.143 710.166 1561.296 707.393 1559.447 704.622 C 1556.367 699.693 1553.286 694.457 1551.13 689.22 C 1548.666 683.368 1546.201 677.206 1544.97 670.739 C 1542.814 658.725 1542.197 646.404 1542.505 634.083 C 1542.505 634.083 1542.505 634.083 1542.505 634.083 C 1542.505 634.083 1542.505 634.083 1542.505 634.083 C 1544.354 636.855 1545.893 639.936 1547.434 643.016 C 1550.206 648.253 1552.671 653.489 1555.135 658.725 C 1557.598 664.578 1560.064 670.739 1561.296 677.206 C 1562.528 683.368 1563.451 689.836 1564.067 695.997 C 1564.684 701.541 1564.992 707.393 1565.299 712.938 Z" style="fill: rgb(190, 190, 190);" transform="matrix(0.991608, 0.129283, -0.129283, 0.991608, 85.586375, -197.437851)" bx:origin="0.924 -0.933"/>
    <path class="st7" d="M 1598.263 713.559 C 1598.263 713.559 1598.263 713.559 1598.263 713.559 C 1591.795 704.627 1585.942 695.078 1581.014 685.221 C 1575.778 675.057 1571.466 664.275 1568.076 653.494 C 1565.92 647.333 1564.38 640.865 1562.841 634.396 C 1561.3 627.927 1559.452 621.768 1557.911 615.299 C 1554.831 602.361 1552.059 589.424 1548.979 576.794 C 1547.439 570.326 1545.898 563.857 1544.666 557.39 C 1543.434 550.921 1542.202 544.451 1541.278 537.984 C 1540.046 531.515 1539.122 525.046 1538.199 518.577 C 1537.273 512.109 1536.041 505.333 1535.117 498.864 C 1535.117 498.864 1535.117 498.864 1535.117 498.864 L 1535.117 498.864 C 1537.273 504.408 1539.43 510.261 1541.586 515.805 C 1547.13 530.899 1552.059 545.992 1556.372 561.393 C 1559.76 574.023 1563.148 586.959 1566.845 599.589 C 1570.541 612.218 1574.237 624.847 1578.549 637.476 C 1580.706 643.637 1582.554 650.106 1584.403 656.266 C 1586.251 662.429 1587.79 668.896 1589.638 675.364 C 1592.72 688.301 1595.491 700.93 1598.263 713.559 Z" style="fill: rgb(190, 190, 190);" transform="matrix(0.991608, 0.129282, -0.129282, 0.991608, 85.582074, -197.441163)" bx:origin="0.451 0.287"/>
    <path class="st7" d="M 1619.506 689.216 C 1619.506 689.216 1619.506 689.216 1619.506 689.216 C 1615.808 683.672 1612.112 678.128 1608.725 672.583 C 1605.335 667.039 1602.256 661.187 1599.484 655.333 C 1596.402 648.865 1593.324 642.089 1590.859 635.312 C 1588.394 628.843 1586.547 622.682 1585.006 615.906 C 1583.158 608.822 1581.31 601.737 1579.769 594.651 C 1577.922 587.567 1576.381 580.174 1574.532 572.783 C 1570.221 553.068 1566.216 533.661 1562.521 513.64 C 1561.596 508.404 1560.672 503.168 1559.748 497.931 C 1557.591 485.61 1555.743 473.597 1554.819 461.276 C 1553.896 449.879 1553.588 438.482 1553.588 427.085 C 1553.588 421.54 1553.896 416.304 1553.896 410.76 C 1553.896 410.76 1553.896 410.76 1553.896 410.76 C 1553.896 410.76 1553.896 410.76 1553.896 410.76 C 1555.127 415.38 1556.36 420.001 1557.591 424.621 C 1559.748 432.629 1561.596 440.638 1563.752 448.647 C 1565.292 455.115 1566.833 461.584 1568.372 468.054 C 1569.605 472.981 1570.529 477.602 1571.454 482.53 C 1571.761 484.378 1572.069 485.918 1572.377 487.767 C 1577.305 512.101 1583.466 536.127 1589.934 560.154 C 1589.934 560.461 1590.242 560.77 1590.242 561.077 C 1590.55 561.693 1590.55 562.31 1590.859 562.924 C 1593.324 571.549 1595.787 579.867 1598.251 588.492 C 1598.559 589.724 1599.175 591.263 1599.484 592.495 L 1599.484 592.495 C 1600.1 594.344 1600.407 595.883 1601.023 597.732 C 1601.949 600.813 1602.872 603.585 1603.797 606.664 L 1603.797 606.664 C 1604.412 608.822 1605.335 611.286 1605.953 613.442 C 1608.725 621.758 1610.881 630.076 1612.422 638.392 C 1614.269 647.018 1615.501 655.948 1616.732 664.883 C 1618.273 673.2 1618.89 681.208 1619.506 689.216 Z" style="fill: rgb(190, 190, 190);" transform="matrix(0.991608, 0.129282, -0.129282, 0.991608, 85.593171, -197.433808)" bx:origin="0.151 0.538"/>
  </g>
</svg>