<?xml version="1.0" encoding="utf-8"?>
<svg viewBox="0 0 3000 3000" xmlns="http://www.w3.org/2000/svg">
  <g id="eye">
    <defs>
      <clipPath id="eyeClipPath">
        <path fill="#fff" stroke="#31323d" stroke-width="10" stroke-miterlimit="10" d="M1291.6 1125.7c0 95.5-32.9 116.3-86.2 106.3a239.9 239.9 0 0 0-79.7-1.9c-56.6 8.5-94.1-14.6-93.5-100.6.4-70.6 56.3-129.2 126.8-130.7s132.6 55.2 132.6 126.9z" stroke-linecap="round"/>
      </clipPath>
      <clipPath id="eyeClipPath2">
        <path fill="#fff" stroke="#31323d" stroke-width="10" stroke-miterlimit="10" d="M1573.5 1107.9c0 95.5 32.9 116.3 86.2 106.3a239.9 239.9 0 0 1 79.7-1.9c56.6 8.5 94.1-14.6 93.5-100.6-.4-70.6-56.3-129.2-126.8-130.7s-132.6 55.2-132.6 126.9z" stroke-linecap="round"/>
      </clipPath>
    </defs>
    <path fill="#fff" d="M1291.6 1125.7c0 95.5-32.9 116.3-86.2 106.3a239.9 239.9 0 0 0-79.7-1.9c-56.6 8.5-94.1-14.6-93.5-100.6.4-70.6 56.3-129.2 126.8-130.7s132.6 55.2 132.6 126.9z"/>
    <g clip-path="url(#eyeClipPath)">
      <circle cx="1180.3" cy="1149.9" r="77" fill="#7c40ff" transform="translate(-25 26.2) rotate(-1.3)"/>
      <circle cx="1182.1" cy="1147" r="58.1" fill="#31323d" transform="matrix(1, -0.02, 0.02, 1, -24.98, 26.14)"/>
      <circle cx="1210.8" cy="1105.3" r="30.9" fill="#fff" transform="translate(-24 26.8) rotate(-1.3)"/>
    </g>
    <path fill="none" stroke="#31323d" stroke-width="10" stroke-miterlimit="10" d="M1291.6 1125.7c0 95.5-32.9 116.3-86.2 106.3a239.9 239.9 0 0 0-79.7-1.9c-56.6 8.5-94.1-14.6-93.5-100.6.4-70.6 56.3-129.2 126.8-130.7s132.6 55.2 132.6 126.9z" stroke-linecap="round"/>
    <path fill="#fff" d="M1573.5 1107.9c0 95.5 32.9 116.3 86.2 106.3a239.9 239.9 0 0 1 79.7-1.9c56.6 8.5 94.1-14.6 93.5-100.6-.4-70.6-56.3-129.2-126.8-130.7s-132.6 55.2-132.6 126.9z"/>
    <g clip-path="url(#eyeClipPath2)">
      <circle cx="1684.8" cy="1132" r="77" fill="#7c40ff" transform="translate(516.1 2791.6) rotate(-88.7)"/>
      <circle cx="1687.1" cy="1133.1" r="58.1" fill="#31323d" transform="translate(517.2 2794.9) rotate(-88.7)"/>
      <circle cx="1733.9" cy="1087.5" r="30.9" fill="#fff" transform="translate(608.6 2797.1) rotate(-88.7)"/>
    </g>
    <path fill="none" stroke="#31323d" stroke-width="10" stroke-miterlimit="10" d="M1573.5 1107.9c0 95.5 32.9 116.3 86.2 106.3a239.9 239.9 0 0 1 79.7-1.9c56.6 8.5 94.1-14.6 93.5-100.6-.4-70.6-56.3-129.2-126.8-130.7s-132.6 55.2-132.6 126.9z" stroke-linecap="round"/>
  </g>
  <g id="Draw_Layer" data-name="Draw Layer" transform="matrix(0.774257, 0, 0, 0.774257, 854.43512, 538.364197)">
    <path class="cls-1" d="M1156.41,560.08a1102.94,1102.94,0,0,0-243.76,26.74c-55.83,12.54-111.55,29.55-168.77,28.49-58.1-1.09-114-20.74-170.8-33.16-129.11-28.21-263.25-18.9-394.72-5.29-3.72.4-7.69.87-10.67,3.16-2.72,2.09-4.21,5.44-5.23,8.72-6.12,19.63.77,41.09,11,58.93s23.86,33.68,32.92,52.14c19.55,39.84,16,87.36,31.51,129,19.71,53,67.79,81.6,120.31,95.17,62.57,16.17,131.08,21.14,191.72-4.69l2-.87c65.79-28.77,118.24-86.57,140.5-154.82,5.29-16.23,9.06-33.22,17.68-48s23.53-27.26,40.61-27.26c15.74,0,29.86,10.67,38.59,23.78s13.09,28.51,18,43.45c15.42,46.61,38.31,92.17,75.07,124.72,42.88,38,101,54.82,158.18,58.81,67.91,4.73,142.16-10.25,187.41-61.12,33.52-37.69,46.2-89.07,56-138.55,3.68-18.58,7.31-37.73,17.47-53.75,5.68-9,13.21-16.61,19.07-25.47,16.13-24.4,18-55.22,19.31-84.44A1098.54,1098.54,0,0,0,1156.41,560.08ZM640.78,739.38c-6.26,31.06-17.54,61.34-35.31,87.58s-42.24,48.28-71.29,60.94c-48,20.94-102.41,14.56-152,3.06-43.89-10.19-79-35.76-98.73-77-16.19-33.84-20.56-72.22-19.71-109.7a214.59,214.59,0,0,1,1.43-21.54c1.55-12.48,4.67-24.66,11-35.45,12-20.54,34.1-33.4,57-39.92,22.27-6.32,45.66-7.43,68.81-7.83,53.13-.93,107,1.65,157.82,17.13,33.32,10.17,67.77,28.77,79.83,61.44C646.78,697.53,644.86,719.11,640.78,739.38Zm598.44-27c-2.76,27.8-4.65,55.89-11.88,82.89s-20.31,53.27-41.82,71.13c-27.84,23.13-65.73,29.29-101.75,32.92-27.38,2.76-55.06,4.55-82.4,1.23-50.49-6.12-85.32-30-111.82-72.74C865,788.28,852,741.53,853.34,694.95c.48-16,2.84-32.59,12.06-45.62,12.28-17.35,34-24.84,54.48-30.64,32.94-9.32,66.74-16.93,100.74-21.34,45.92-6,92.25-6.08,137.46,3.28,30.94,6.38,64.14,20,77,48.8C1243.79,668.88,1241.33,691.22,1239.22,712.42Z" style="fill: rgb(44, 44, 44);"/>
    <path class="cls-2" d="M1239.22,712.42c-2.76,27.8-4.65,55.89-11.88,82.89s-20.31,53.27-41.82,71.13c-27.84,23.13-65.73,29.29-101.75,32.92-27.38,2.76-55.06,4.55-82.4,1.23-50.49-6.12-85.32-30-111.82-72.74C865,788.28,852,741.53,853.34,694.95c.48-16,2.84-32.59,12.06-45.62,12.28-17.35,34-24.84,54.48-30.64,32.94-9.32,66.74-16.93,100.74-21.34,45.92-6,92.25-6.08,137.46,3.28,30.94,6.38,64.14,20,77,48.8C1243.79,668.88,1241.33,691.22,1239.22,712.42Z" style="fill: rgb(79, 79, 79);"/>
    <path class="cls-2" d="M640.78,739.38c-6.26,31.06-17.54,61.34-35.31,87.58s-42.24,48.28-71.29,60.94c-48,20.94-102.41,14.56-152,3.06-43.89-10.19-79-35.76-98.73-77-16.19-33.84-20.56-72.22-19.71-109.7a214.59,214.59,0,0,1,1.43-21.54c1.55-12.48,4.67-24.66,11-35.45,12-20.54,34.1-33.4,57-39.92,22.27-6.32,45.66-7.43,68.81-7.83,53.13-.93,107,1.65,157.82,17.13,33.32,10.17,67.77,28.77,79.83,61.44C646.78,697.53,644.86,719.11,640.78,739.38Z" style="fill: rgb(79, 79, 79);"/>
    <path class="cls-2" d="M566.73,618.93,293,830.94a142.46,142.46,0,0,1-9.56-17C275.21,796.68,270,778.18,267,759.21l204.1-158.14c30.06,2.19,59.83,6.82,88.64,15.6C562.1,617.38,564.41,618.12,566.73,618.93Z" style="fill: rgb(79, 79, 79);"/>
    <path class="cls-3" d="M566.73,618.93,293,830.94a142.46,142.46,0,0,1-9.56-17C275.21,796.68,270,778.18,267,759.21l204.1-158.14c30.06,2.19,59.83,6.82,88.64,15.6C562.1,617.38,564.41,618.12,566.73,618.93Z" style="fill: rgb(114, 114, 114);"/>
    <path class="cls-2" d="M1171,603.71,887,823.7a243.66,243.66,0,0,1-27.94-70.26l206.42-159.91c31-1.21,62.07.79,92.57,7.11C1162.35,601.51,1166.66,602.52,1171,603.71Z" style="fill: rgb(79, 79, 79);"/>
    <path class="cls-3" d="M1171,603.71,887,823.7a243.66,243.66,0,0,1-27.94-70.26l206.42-159.91c31-1.21,62.07.79,92.57,7.11C1162.35,601.51,1166.66,602.52,1171,603.71Z" style="fill: rgb(114, 114, 114);"/>
  </g>
</svg>