<svg id="Ballet_Tutu" data-name="Ballet  Tutu" xmlns="http://www.w3.org/2000/svg" width="360" height="360" viewBox="0 0 360 360" shape-rendering="geometricPrecision">
  <defs>
    <style>
      .cls-1 {
        fill: #fff;
      }

      .cls-2, .cls-3 {
        fill: #e5e5e5;
      }

      .cls-10, .cls-3, .cls-4, .cls-5, .cls-6, .cls-7, .cls-8, .cls-9 {
        fill-rule: evenodd;
      }

      .cls-4 {
        fill: #31323d;
      }

      .cls-5 {
        fill: #c5b2bb;
      }

      .cls-6 {
        fill: #ffe0de;
      }

      .cls-7 {
        fill: #e5bdc6;
      }

      .cls-8 {
        fill: #f3f3f3;
      }

      .cls-9 {
        fill: #feeae8;
      }

      .cls-10 {
        fill: #e3d1cf;
      }
    </style>
  </defs>
  <rect class="cls-1" width="360" height="360"/>
  <ellipse class="cls-2" cx="180.5" cy="195.5" rx="170.5" ry="23.5"/>
  <path id="Ellipse_1_copy" data-name="Ellipse 1 copy" class="cls-3" d="M107.45,216.039c39.928-3,72.766.814,73.346,8.524s-31.318,16.4-71.246,19.4-72.766-.814-73.346-8.524S67.522,219.042,107.45,216.039Z"/>
  <path id="Color_Fill_718" data-name="Color Fill 718" class="cls-4" d="M338.176,199.926a21.625,21.625,0,0,1-5.1,1.906A30.242,30.242,0,0,1,324,203c-0.787,0-1.849-.061-3.117-0.158-7.9-.189-17-1.394-26.68-1.782-8.979-.112-18.427.516-26.2,2.94-19.25,6-82.75,11-99,10s-43.25-7.25-71-5c-19.748,1.6-24.3,1.05-27.629.148l0.008,0.015s-1.727-.468-4.58-1.2c-2.651-.528-8.29-2-14.987-3.662-11.9-2.746-26.379-5.66-34.758-5.808,0,0-3.376-16.681,41.952-40.327,0,0-1.815-5.252,2.127-6.405,3.717-1.087,81.481-29.43,206.666-12.226a10,10,0,0,1,1.16,7.763S289.5,161.45,310.3,165.148C329.014,168.476,353.508,191.671,338.176,199.926Z"/>
  <path id="Color_Fill_736" data-name="Color Fill 736" class="cls-5" d="M318,181s24.25,7.5,22,13-8.75,7-16,7-36.75-5-56,1-82.75,11-99,10-43.25-7.25-71-5-25.5.25-32-1-33.5-9-47-10C19,196,294,148.25,318,181Z"/>
  <path id="Color_Fill_734" data-name="Color Fill 734" class="cls-6" d="M59.746,155.639c0.279,1.8.579,2.533,4.06,3.493s199.32-12.615,199.32-12.615,2.884-2.057,1.353-3.881c-3.457-4.121-74.473-7.4-105.943-5.822-30.291,1.518-68.535,8.749-94.73,16.3C59.915,154.238,59.468,153.836,59.746,155.639Z"/>
  <path id="Color_Fill_735" data-name="Color Fill 735" class="cls-7" d="M63.806,159.132c-3.481-.96-3.781-1.691-4.06-3.493s0.169-1.4,4.06-2.523c3.334-.961,6.863-1.917,10.546-2.857-1.3,1.682-2.039,3.575,2.213,2.663,7.144-1.533,51.164-12.063,87.577-12.033,36.008,0.031,108.732-.017,98.953,5.631C260.562,146.7,67.264,160.086,63.806,159.132Z"/>
  <path id="Color_Fill_718_copy" data-name="Color Fill 718 copy" class="cls-7" d="M336.256,198.387c-13.844,6.354-42.639-3.841-67.236,2.982l5.3-13.526s-19.656,11.188-22.087,8.339c0,0-4.578-7.287-4.569-10.462-18.5,7.172-39.053,15.653-45.924,12.685,0,0-.6,1.39-3.955-11.909-28.812,20-30.553,18.36-29.965,16.5,2.812-8.925,2.32-10.674,2.32-10.674s-12.93-12.293-29-1.941c-0.071,9.1,2.126,13.973,2.126,13.973s-11.661.252-9.086-2.523c1.417-1.526-32.817-15.97-34.412-12.808-4.4,8.721-5.606,12.032-5.606,12.032s-11.913,1.606-17.013-6.016C71.17,186.1,64,189.213,61.68,189.989s-2.127,3.882-2.127,3.882,4.893,10.166,5.993,12.032c0,0-39.914-10.867-46.785-9.7,1.954-10.9,17.571-23.562,42.532-38.037,0,0,9.861-1.184,13.317-2.334,19.7-4.15,55.6-10.8,86.826-11.639,34.954-.939,77,1.023,94.967,2.006a4.625,4.625,0,0,0-.43,1.1s-2.053,14.545,47.945,22.124C322.712,172.267,352.079,191.125,336.256,198.387Z"/>
  <path id="Color_Fill_733" data-name="Color Fill 733" class="cls-5" d="M167.816,202.992a49.213,49.213,0,0,0,2.32-9.561v10.2C167.733,204.516,167.569,203.774,167.816,202.992Zm-67.826-14.2a0.592,0.592,0,0,0-.225.232c-4.4,8.721-5.606,12.032-5.606,12.032s-0.266.036-.733,0.071c-13.341-5.52-9.9-9.192-9.9-9.192C88.722,186.466,98.616,188.475,99.99,188.787Zm153.663-.544a6.514,6.514,0,0,1-2.307,6.463c-1.279-2.211-3.513-6.371-3.676-8.716Zm-43.5-1.747c-0.26,1.26-6.934,6.285-9.357,10.657-0.508-1.41-1.618-5.314-2.639-9.217C200.782,184.945,210.2,186.287,210.154,186.5Zm-69.785,8.972,0.574-4.9,0.193,0.59c0.056,8.593,2.321,12.8,2.321,12.8v0.388l-4.417-.1ZM60.4,190.887l-0.064.084-0.034.048c-0.021.029-.041,0.058-0.061,0.088l-0.02.032c-0.044.068-.085,0.138-0.123,0.208l-0.01.017c-0.018.034-.035,0.068-0.052,0.1l-0.02.041c-0.016.034-.032,0.067-0.047,0.1l-0.016.037c-0.05.116-.095,0.233-0.133,0.349l-0.008.022c-0.012.036-.023,0.072-0.034,0.108l-0.01.034c-0.01.036-.02,0.071-0.03,0.107l-0.006.021c-0.03.116-.056,0.23-0.077,0.34l-0.005.027q-0.009.05-.017,0.1l0,0.03c-0.005.033-.011,0.065-0.015,0.1v0c-0.011.073-.02,0.144-0.027,0.212V193.1q0,0.043-.008.084c0,0.01,0,.021,0,0.031,0,0.025,0,.05-0.006.075s0,0.019,0,.029c-0.005.078-.009,0.149-0.011,0.213,0,0.009,0,.019,0,0.027s0,0.034,0,.05,0,0.02,0,.03,0,0.028,0,.041,0,0.019,0,.029,0,0.032,0,.047,0,0.022,0,.032,0,0.014,0,.021v0.02c0,0.006,0,.01,0,0.014s0,0.011,0,.015v0.013l0.03,0.062,0.005,0.011,0.014,0.029,0.01,0.021,0.013,0.027,0.032,0.066,0.007,0.015,0.022,0.045,0.014,0.029,0.089,0.184,0.008,0.016,0.327,0.677,0,0.007,0.437,0.9,0.01,0.021,0.2,0.418,0.015,0.03,0.067,0.139,0.014,0.028,0.136,0.279,0.01,0.021h0c1.535,3.154,3.818,7.8,4.528,9.006,0,0-39.167-10.663-46.578-9.731h0c0.1-.178.961-1.169,7.14-0.943,6.781,0.248,26.171-.787,24.552-2.717,0,0-2.553-1.022-1.933-1.552,0.4-.344,7.756-0.859,11.78-0.2h0c-0.024.027-.047,0.055-0.07,0.082Zm210.783,4.963,3.135-8.007-0.082.046h0l-0.1.055h0l-0.135.076,0.146-.168c42.394-15.271,34.026,8.151,34.026,8.151,21.823-7.24,29.735-5.363,32.6-3.183h0a4.941,4.941,0,0,1-.042.668c-0.007.057-.013,0.114-0.022,0.17-0.014.086-.033,0.17-0.051,0.255q-0.021.093-.045,0.186c-0.022.081-.045,0.162-0.071,0.242s-0.046.131-.071,0.2-0.056.153-.089,0.228c-0.039.09-.085,0.179-0.131,0.269s-0.1.194-.162,0.29c-0.047.078-.094,0.157-0.146,0.234s-0.088.123-.133,0.185-0.112.148-.171,0.221-0.1.117-.149,0.175c-0.069.079-.143,0.157-0.218,0.234-0.049.05-.1,0.1-0.148,0.15-0.128.123-.261,0.244-0.4,0.363-0.028.023-.059,0.046-0.087,0.068-0.124.1-.252,0.2-0.387,0.3-0.058.042-.12,0.083-0.18,0.124-0.114.078-.232,0.156-0.354,0.232-0.067.042-.135,0.084-0.2,0.125-0.131.078-.267,0.155-0.406,0.23-0.065.036-.127,0.071-0.194,0.106-0.208.108-.423,0.215-0.649,0.319-13.844,6.354-42.639-3.841-67.236,2.982l2.161-5.519h0Z"/>
  <path id="Color_Fill_724" data-name="Color Fill 724" class="cls-6" d="M247.714,186.388a4.767,4.767,0,0,1-.052-0.533C248.058,186.133,248.076,186.3,247.714,186.388Zm-62.5-38.512c38.147,28.131,59.09,35.83,62.318,37.893-17.578,6.819-38.957,15.71-45.88,12.6,7.767-11.471,12.555-10.664,11.981-12.451-3.123-4.361-28.788-32.534-37.4-41.958q1.454-.009,2.912-0.012h0.1C182.242,145.824,185.215,147.876,185.215,147.876Z"/>
  <path id="Color_Fill_725" data-name="Color Fill 725" class="cls-6" d="M173.812,143.974c10.283,9.844,37.116,41.358,37.116,41.358-7.687-.609-10.456-0.772-13.045,1.063-8.728,6.187-25.621,16.4-25.621,16.4,0-13.062-4.961-42.759-8.777-58.661C166.876,144.058,170.329,144.005,173.812,143.974Z"/>
  <path id="Color_Fill_726" data-name="Color Fill 726" class="cls-6" d="M161.436,144.189l0.8-.02a1.193,1.193,0,0,1,.167.214s6.549,30.752,7.926,48.905c0,0-13.236-12.029-29.192-2.717,0,0,5.481-39.239,11.735-46.018C155.754,144.388,158.614,144.264,161.436,144.189Z"/>
  <path id="Color_Fill_727" data-name="Color Fill 727" class="cls-6" d="M150.706,144.684c-7.274,14.23-11.5,46.47-11.5,46.47l-2.126,12.808s0.113,0.785-6.573-1.94S100.669,180.7,86.039,187.466c-10.543,4.877,20.85-25.561,45.772-41.084C138.094,145.671,144.444,145.084,150.706,144.684Z"/>
  <path id="Color_Fill_728" data-name="Color Fill 728" class="cls-6" d="M91.645,201.245s-7.986.049-13.533-4.463-12.853-9.216-29-7.375c-13.561,1.546,68.136-39.553,71.338-38.814,0,0-42.68,33.526-40.405,40.949S91.645,201.245,91.645,201.245Z"/>
  <path id="Color_Fill_729" data-name="Color Fill 729" class="cls-6" d="M119.212,147.973c-30.955,14.671-85.923,41.9-72.032,43.957,3.752,0.556-5.686,2.662-22.233,1.164-10.016-.906,29.594-27.728,49.352-37.2C85.324,153.565,101.546,150.427,119.212,147.973Zm1.239,2.62s-42.68,33.526-40.405,40.949,11.6,9.7,11.6,9.7-7.986.049-13.533-4.463-12.853-9.216-29-7.375C35.553,190.953,117.249,149.854,120.451,150.593Z"/>
  <path id="Color_Fill_723" data-name="Color Fill 723" class="cls-6" d="M189.3,149.056s46.756,32.006,66.475,37.828c0,0,1.547,6.21-2.319,8.151,0,0,31.318-16.5,46.4-14.167C299.858,180.868,255.039,175.779,189.3,149.056Z"/>
  <path id="Color_Fill_722" data-name="Color Fill 722" class="cls-6" d="M310.3,193.482s3.093-12.032-5.414-12.808c0,0-93.771-20.1-122.7-36.662,32.7,0.178,71.344,2.088,80.865,2.583,1.938,1.259,27.177,17.493,43.38,19.912,10.667,1.592,32.517,13.313,34.026,24.841C340.457,191.348,335.875,184.245,310.3,193.482Z"/>
  <path id="Inside_base" data-name="Inside base" class="cls-4" d="M123.717,231.5c-9.266-.7-9.616-16.83-9.791-20.336s0-18.583,0-24.544,2.623-24.369,10.49-31.557,23.778-8.064,27.974.7,5.944,11.044,2.8,30.855S132.983,232.2,123.717,231.5Z"/>
  <path id="Inside_color" data-name="Inside color" class="cls-8" d="M123.717,231.5c-9.266-.7-7.518-16.83-7.693-20.336s0-18.583,0-24.544,1.923-22.265,9.791-29.453,20.98-7.363,25.176,1.4,4.546,8.239,1.4,28.05S132.983,232.2,123.717,231.5Z"/>
  <path id="Inside_color_copy" data-name="Inside color copy" class="cls-3" d="M142.6,158.567c-17.15-3.524-26.4,56.1-26.575,52.594s0-18.583,0-24.544,1.923-22.265,9.791-29.453,20.98-7.363,25.176,1.4,4.546,8.239,1.4,28.05S158.78,161.891,142.6,158.567Z"/>
  <path id="Inside_base-2" data-name="Inside base" class="cls-4" d="M123.717,231.5c-9.266-.7-9.616-16.83-9.791-20.336s0-18.583,0-24.544,2.623-24.369,10.49-31.557,23.778-8.064,27.974.7,5.944,11.044,2.8,30.855S132.983,232.2,123.717,231.5Z"/>
  <path id="Inside_color-2" data-name="Inside color" class="cls-8" d="M123.717,231.5c-9.266-.7-7.518-16.83-7.693-20.336s0-18.583,0-24.544,1.923-22.265,9.791-29.453,20.98-7.363,25.176,1.4,4.546,8.239,1.4,28.05S132.983,232.2,123.717,231.5Z"/>
  <path id="Inside_color_copy-2" data-name="Inside color copy" class="cls-3" d="M142.6,158.567c-17.15-3.524-26.4,56.1-26.575,52.594s0-18.583,0-24.544,1.923-22.265,9.791-29.453,20.98-7.363,25.176,1.4,4.546,8.239,1.4,28.05S158.78,161.891,142.6,158.567Z"/>
  <path id="front_left_shoe_base" data-name="front left shoe base" class="cls-4" d="M120.22,200.642c0.657,13.148-1.1,23.348,4.2,23.141,8.077-.314,20.338-28.884,23.078-36.465s7.693-2.1,7.693-2.1-4.65,27.366-6.993,37.167-7.574,18.232-20.98,18.232-17.094-.4-23.078-0.7c-3.22-.16-6.422-4.148-6.294-9.817s4.87-7.653,8.392-8.415,6.781-.552,6.993-11.922-0.7-23.141-.7-23.141S119.563,187.494,120.22,200.642Z"/>
  <path id="front_left_shoe_color" data-name="front left shoe color" class="cls-9" d="M118.122,204.85c-0.167,14.139.994,21.945,6.294,21.738,8.077-.314,21.037-28.183,23.778-35.764s4.2-2.1,4.2-2.1-4.65,23.859-6.994,33.66-4.776,16.129-18.182,16.129-15-.405-20.98-0.7c-3.22-.159-6.422-2.044-6.294-7.713s5.569-6.951,9.091-7.714,6.082-1.253,6.294-12.623,0-16.83,0-16.83S118.278,191.686,118.122,204.85Z"/>
  <path id="front_left_shoe_color_copy" data-name="front left shoe color copy" class="cls-10" d="M145.4,222.381c-2.343,9.8-4.776,16.129-18.182,16.129s-15-.405-20.98-0.7c-3.22-.159-6.422-2.044-6.294-7.713,0.1-4.294,3.241-6.07,6.292-7.01-0.019.026-3.955,5.379-1.4,7.711s31.936,11.454,41.96-15.428c0.137-.367.271-0.719,0.4-1.066C146.535,217.4,145.91,220.231,145.4,222.381Z"/>
  <path id="front_left_shoe_strap_2_base" data-name="front left shoe strap 2 base" class="cls-4" d="M140.5,205.551s-18.066-19.285-25.875-14.727c0,0-1.865-2.921-1.4-4.908s14.686-6.428,30.071,14.025C143.3,199.941,143.881,205.083,140.5,205.551Z"/>
  <path id="front_left_shoe_strap_2_color" data-name="front left shoe strap 2 color" class="cls-9" d="M142.6,205.551s-20.164-20.687-27.973-16.129c0,0-.467-0.117,0-2.1s13.287-5.727,28.672,14.727C143.3,202.045,145.979,205.083,142.6,205.551Z"/>
  <path id="front_left_shoe_strap_2_shadow" data-name="front left shoe strap 2 shadow" class="cls-10" d="M137.035,194.839a17.281,17.281,0,0,1-3.81,2.259,65.771,65.771,0,0,0-7.508-5.305,2.01,2.01,0,0,1,.8-1.67,5.7,5.7,0,0,1,2.607-1.426A39.23,39.23,0,0,1,137.035,194.839Z"/>
  <path id="front_left_shoe_strap_1_base" data-name="front left shoe strap 1 base" class="cls-4" d="M119.521,205.551s31.554-22.688,32.869-17.532c0,0,3.617-1.453,1.4-5.61s-26.706,5.79-34.966,16.129C118.822,198.538,117.213,201.583,119.521,205.551Z"/>
  <path id="front_left_shoe_strap_1_color" data-name="front left shoe strap 1 color" class="cls-9" d="M117.423,205.551s26.031-21.445,32.869-18.233c0,0,3.065,4.043,2.1-2.805-0.584-4.132-26.008,5.789-34.268,16.129C118.122,200.642,115.115,201.583,117.423,205.551Z"/>
  <path id="rear_left_shoe_base" data-name="rear left shoe base" class="cls-4" d="M127.28,170.579s-52.322,59.6-58.568,66.577-12.323,5.638-16.218.921c-5.21-6.307-.094-19.067,3.544-23.265s32.469-26.283,50.409-57.647c8.629-15.086,24.658,9.142,21.854,12.275Z"/>
  <path id="rear_left_shoe_color" data-name="rear left shoe color" class="cls-9" d="M123.527,171.333s-47.225,53.9-53.47,60.881-10.509,8.3-14.952,4.093-1.695-11.451,1.177-17.366,33.429-28.318,51.368-59.682c8.63-15.086,19.7,7.8,16.9,10.935S123.527,171.333,123.527,171.333Z"/>
  <path id="rear_left_shoe_shadow" data-name="rear left shoe shadow" class="cls-10" d="M121.481,159.36c2.811,4.132,4.313,9.439,3.065,10.834l-1.019,1.139s-47.225,53.9-53.47,60.881-10.509,8.3-14.952,4.093c-3.249-3.076-2.688-6.731-1-11.549,1.248,1.839,3.778,4.873,6.55,4.206C64.486,228.042,117.225,173.213,121.481,159.36Z"/>
  <path id="rear_left_shoe_strap_1_base_copy" data-name="rear left shoe strap 1 base copy" class="cls-4" d="M87.5,186.058S76.338,173.1,72.363,175.841a5.669,5.669,0,0,0-2.987,2.206s7.493,1.8,14.89,11.621C83.721,189.994,85.98,189.166,87.5,186.058Z"/>
  <path id="rear_left_shoe_strap_2_base_copy" data-name="rear left shoe strap 2 base copy" class="cls-4" d="M78.25,194.771s-7.364-15.584-5.408-16.074a3.6,3.6,0,0,0-3.869-.2c-1.938,1.112,2.139,13.309,4.789,17.637a9.265,9.265,0,0,0,.535.793C76.748,200.122,78.369,195.485,78.25,194.771Z"/>
  <path id="rear_left_shoe_strap_1_base" data-name="rear left shoe strap 1 base" class="cls-4" d="M80.366,194.327s-14.769-9.3-11.674-14.475a8.516,8.516,0,0,1,2.487-3.925s2.084,7.991,13.266,13.843C84.812,189.074,83.885,191.829,80.366,194.327Z"/>
  <path id="rear_left_shoe_strap_1_color" data-name="rear left shoe strap 1 color" class="cls-9" d="M81.957,193.7s-14.83-10.376-11.736-15.553h0s3.165,7.93,14.347,13.783C84.935,191.229,85.476,191.2,81.957,193.7Z"/>
  <path id="rear_left_shoe_strap_2_base" data-name="rear left shoe strap 2 base" class="cls-4" d="M91.073,182.366s-18.592-5.027-19.137-2.7a3.751,3.751,0,0,1-.246-4.311c1.25-2.466,15.982-.288,20.907,1.6a8.014,8.014,0,0,1,.9.4C97.136,179.318,91.884,182.32,91.073,182.366Z"/>
  <path id="rear_left_shoe_strap_2_color" data-name="rear left shoe strap 2 color" class="cls-9" d="M94.255,181.1s-20.755-4.9-21.3-2.575c0,0-2.545.55-1.2-2.094,1.251-2.467,18.778,1.175,23.7,3.066a8.02,8.02,0,0,1,.9.4C99.993,181.859,95.066,181.058,94.255,181.1Z"/>
</svg>
