<svg id="Ballet_Shoes" data-name="Ballet Shoes" xmlns="http://www.w3.org/2000/svg" width="360" height="360" viewBox="0 0 360 360" shape-rendering="geometricPrecision">
  <defs>
    <style>
      .cls-1 {
        fill: #fff;
      }

      .cls-2, .cls-5 {
        fill: #e5e5e5;
      }

      .cls-3 {
        fill: #31323d;
      }

      .cls-3, .cls-4, .cls-5 {
        fill-rule: evenodd;
      }

      .cls-4 {
        fill: #f3f3f3;
      }
    </style>
  </defs>
  <rect id="White" class="cls-1" width="360" height="360"/>
  <g id="Shadows">
    <ellipse class="cls-2" cx="72" cy="312.5" rx="48" ry="10.5"/>
    <ellipse id="Ellipse_1_copy" data-name="Ellipse 1 copy" class="cls-2" cx="233.5" cy="312.5" rx="70.5" ry="10.5"/>
  </g>
  <g id="marketing_copy" data-name="marketing copy">
    <path id="Inside_base" data-name="Inside base" class="cls-3" d="M238.415,285.325c-27.05-2.045-28.07-49.079-28.581-59.3s0-54.191,0-71.574,7.656-71.062,30.622-92.024,69.409-23.517,81.657,2.045,17.353,32.208,8.166,89.979S265.463,287.37,238.415,285.325Z"/>
    <path id="Inside_color" data-name="Inside color" class="cls-4" d="M238.415,285.325c-27.05-2.045-21.946-49.079-22.456-59.3s0-54.191,0-71.574,5.614-64.928,28.58-85.889,61.243-21.472,73.491,4.09,13.27,24.028,4.083,81.8S265.463,287.37,238.415,285.325Z"/>
    <path id="Inside_color_copy" data-name="Inside color copy" class="cls-5" d="M293.533,72.648c-50.062-10.275-77.064,163.6-77.574,153.373s0-54.191,0-71.574,5.614-64.928,28.58-85.889,61.243-21.472,73.491,4.09,13.27,24.028,4.083,81.8S340.767,82.343,293.533,72.648Z"/>
  </g>
  <g id="front">
    <g id="left">
      <path id="front_left_shoe_base" data-name="front left shoe base" class="cls-3" d="M228.207,195.347c1.918,38.341-3.224,68.085,12.249,67.484,23.578-.917,59.367-84.232,67.367-106.339s22.456-6.135,22.456-6.135-13.574,79.8-20.414,108.384-22.108,53.169-61.243,53.169-49.9-1.179-67.368-2.045c-9.4-.466-18.746-12.1-18.373-28.63s14.216-22.315,24.5-24.539,19.8-1.608,20.414-34.765-2.041-67.484-2.041-67.484S226.29,157.005,228.207,195.347Z"/>
      <path id="front_left_shoe_color" data-name="front left shoe color" class="cls-3" d="M222.083,207.616c-0.489,41.235,2.9,64,18.373,63.4,23.578-.917,61.408-82.187,69.409-104.294s12.248-6.135,12.248-6.135S308.54,230.161,301.7,258.741s-13.942,47.034-53.077,47.034-43.774-1.179-61.243-2.045c-9.4-.466-18.747-5.962-18.373-22.5s16.257-20.27,26.538-22.494,17.755-3.653,18.373-36.81,0-49.079,0-49.079S222.538,169.23,222.083,207.616Z"/>
      <path id="front_left_shoe_strap_2_base" data-name="front left shoe strap 2 base" class="cls-3" d="M287.409,209.661s-52.737-56.236-75.533-42.944c0,0-5.444-8.521-4.083-14.315s42.87-18.745,87.782,40.9C295.575,193.3,297.276,208.3,287.409,209.661Z"/>
      <path id="front_left_shoe_strap_1_base" data-name="front left shoe strap 1 base" class="cls-3" d="M226.166,209.661s92.111-66.162,95.947-51.124c0,0,10.561-4.238,4.083-16.36s-77.959,16.883-102.072,47.035C224.124,189.212,219.428,198.091,226.166,209.661Z"/>
    </g>
  </g>
  <g id="rear_marketing_copy" data-name="rear marketing copy">
    <path id="rear_left_shoe_base" data-name="rear left shoe base" class="cls-3" d="M248.816,107.678S96.08,281.482,77.849,301.828s-35.971,16.44-47.343,2.686c-15.208-18.392-.274-55.6,10.344-67.846S135.631,160.022,188,68.561c25.191-43.995,71.979,26.66,63.794,35.795S248.816,107.678,248.816,107.678Z"/>
    <path id="rear_left_shoe_color" data-name="rear left shoe color" class="cls-3" d="M237.859,109.876S100.005,267.071,81.775,287.417,51.1,311.622,38.127,299.352s-4.947-33.393,3.436-50.644,97.584-82.579,149.952-174.04c25.19-43.995,57.507,22.751,49.321,31.886S237.859,109.876,237.859,109.876Z"/>
    <path id="rear_left_shoe_strap_1_base_copy" data-name="rear left shoe strap 1 base copy" class="cls-3" d="M132.685,152.819s-32.575-37.8-44.179-29.8c0,0-6,1.756-8.719,6.434,0,0,21.873,5.252,43.466,33.89C121.663,164.3,128.256,161.882,132.685,152.819Z"/>
    <path id="rear_left_shoe_strap_2_base_copy" data-name="rear left shoe strap 2 base copy" class="cls-3" d="M105.69,178.226s-21.5-45.447-15.788-46.874a10.5,10.5,0,0,0-11.293-.58c-5.658,3.241,6.244,38.811,13.979,51.432a27.211,27.211,0,0,0,1.56,2.312C101.306,193.83,106.039,180.309,105.69,178.226Z"/>
    <path id="rear_left_shoe_strap_1_base" data-name="rear left shoe strap 1 base" class="cls-3" d="M111.869,176.93S68.758,149.815,77.79,134.72c0,0,1.963-7.206,7.261-11.447,0,0,6.083,23.3,38.724,40.369C124.846,161.611,122.139,169.647,111.869,176.93Z"/>
    <path id="rear_left_shoe_strap_2_base" data-name="rear left shoe strap 2 base" class="cls-3" d="M143.122,142.05s-54.273-14.657-55.864-7.867c0,0-4.632-4.861-.719-12.571,3.65-7.193,46.655-.84,61.031,4.676a23.135,23.135,0,0,1,2.633,1.172C160.821,133.164,145.489,141.916,143.122,142.05Z"/>
  </g>
</svg>
