<svg id="Beret" xmlns="http://www.w3.org/2000/svg" width="360" height="360" viewBox="0 0 360 360" shape-rendering="geometricPrecision">
  <defs>
    <style>
      .cls-1 {
        fill: #fff;
      }

      .cls-2, .cls-3 {
        fill: #31323d;
      }

      .cls-2 {
        fill-opacity: 0.2;
      }

      .cls-3, .cls-4, .cls-5, .cls-6 {
        fill-rule: evenodd;
      }

      .cls-4 {
        fill: #395977;
      }

      .cls-5 {
        fill: #33506c;
      }

      .cls-6 {
        fill: #4a729a;
      }
    </style>
  </defs>
  <rect class="cls-1" width="360" height="360"/>
  <ellipse class="cls-2" cx="182.5" cy="234.5" rx="158.5" ry="36.5"/>
  <path id="Color_Fill_8" data-name="Color Fill 8" class="cls-3" d="M181.862,125.973s4.65-45.275-9.368-34.473-0.782,32.845,6.6,36.976S181.862,125.973,181.862,125.973Z"/>
  <path id="Color_Fill_11" data-name="Color Fill 11" class="cls-4" d="M176.691,122.993s3.392-33.649-2.493-25.562S172.807,106.3,176.691,122.993Z"/>
  <path id="Color_Fill_7" data-name="Color Fill 7" class="cls-3" d="M109.8,227.331c-54.645,13.705-77.71,33.65-84.63,15.333-7.867-20.823,42.916-73.162,80-95.591s98.442-50.277,155.2-32.934,76.4,32.289,84.386,64.723-13.856,25.02-22.195,29.183-9.872,45.208-16.2,43.154-23.882-16.831-70.231-23.691S164.439,213.626,109.8,227.331Z"/>
  <path id="Color_Fill_12" data-name="Color Fill 12" class="cls-5" d="M124.392,217.01c9.072-2.754,40.42-5.913,60.71-3.006s71.451,9.635,87.287,15.847,20.99,6.394,33.129,15.3c0,0,5.442-25.221,7.4-31.7s9.229-15.291,22.388-15.109-67.4-22.324-67.4-22.324S115.321,219.764,124.392,217.01Z"/>
  <path id="Color_Fill_9" data-name="Color Fill 9" class="cls-4" d="M31.772,240.772c2.667,6.1,42.643-13.587,82-20.958,36.384-6.814,101.447-19.823,150.46-18.26s62.864,0.375,68.723-1.128,11.416,0.738,5.269-22.944S311.079,131.7,261.951,120.44s-89.649-3.963-144.2,25.935S25.163,231.142,31.772,240.772Z"/>
  <path id="Color_Fill_9_copy" data-name="Color Fill 9 copy" class="cls-5" d="M156.8,211.92c-16.347,2.811-31.2,5.679-43.026,7.894-39.356,7.371-79.332,27.056-82,20.958-6.609-9.63,31.433-64.5,85.982-94.4,9.917-5.436,19.37-10.121,28.5-14.087l0.069-.03q0.98-.426,1.953-0.839l0.181-.077q0.978-.414,1.95-0.818l0.137-.057q1-.416,2-0.82h0c-0.5.381-1.01,0.766-1.542,1.161C95.489,172.038,147.013,206.092,156.8,211.92Z"/>
  <path id="Color_Fill_14" data-name="Color Fill 14" class="cls-6" d="M218.012,115.44a183.511,183.511,0,0,1,43.939,5c49.128,11.261,70.126,33.361,76.272,57.042,2.557,9.85,3.087,15.213,2.415,18.229-4.083,1.082-7.5.79-8.52-2.571-3-9.941-6.525-35.85-101.134-72.434C226.032,118.791,221.731,117.041,218.012,115.44Z"/>
</svg>
