<svg id="Bowtie" xmlns="http://www.w3.org/2000/svg" width="360" height="360" viewBox="0 0 360 360" shape-rendering="geometricPrecision">
  <defs>
    <style>
      .cls-1 {
        fill: #fff;
      }

      .cls-2 {
        fill: #e5e5e5;
      }

      .cls-3 {
        fill: #2c2c2c;
      }

      .cls-3, .cls-4 {
        fill-rule: evenodd;
      }

      .cls-4 {
        fill: #4d4d4d;
      }
    </style>
  </defs>
  <rect id="White" class="cls-1" width="360" height="360"/>
  <g id="Shadows_copy_4" data-name="Shadows copy 4">
    <ellipse class="cls-2" cx="185" cy="248.5" rx="136" ry="33.5"/>
  </g>
  <path id="Base" class="cls-3" d="M162.377,184.228s10.416,4.175,14.521,5.463c0,0,22.854-3.251,28.78-2.751,0,0,4.922-5.707,8.563-7.283,0,0,3.212-13.268,20-20.917S270.511,139.079,277.32,136c0,0,23.658,13.769,30.806,45.924s-8.632,46.01-7.508,62c0,0-56.807-4.911-67.93-10.441-8.621-4.286-16.236-15.013-19.98-17.278-1.086-.657.926,4.5,0.427,4.8,0,0-4.259-2.243-17.7-1.023s-18.749,4.54-24.057,7.86c0,0-2.913-2.954-2.824-5.419,0,0-14.612,18.075-34.872,25.313s-43.611,16.451-49.394,19.848c0,0-15.669-15.567-22.6-43.347s2.739-34.263,19.25-73.722c0,0,24.7,11.149,40.74,10.972S160.1,179.209,162.377,184.228Z"/>
  <path id="Highlights" class="cls-4" d="M157.3,188.98c2.973-5.715-68.5-26.03-68.5-26.03,50.2,17.264,59.43,28.891,61.22,29.182C158.021,193.436,154.328,194.694,157.3,188.98Zm2.117,25.137c9.227-15.233-11.328-13.828-25.247-11.549s-52.527,12.521-52.527,12.521C148.589,207.4,159.417,214.117,159.417,214.117ZM299.36,161.992c-1.665-2.391-6.5-11.871-8.161-13.782-60.348,23.171-79.563,51.476-79.563,51.476C245.056,168.6,285.689,165.087,299.36,161.992ZM237.9,193.426c-9.436.349-24.056,7.859-24.056,7.859s-0.639,11.448,1.659,10.6c3.917-1.446,11.671-9.924,19.837-10.2,13.8-.463,43.251-3.583,61.972-2.305,6.75,0.461,7.774-2.431,11.994-2.226,0.1-2.306.7-.911,0.533-3.467C283.375,198.587,245.676,193.139,237.9,193.426Z"/>
</svg>
