<svg id="Funky_3D_Glasses" data-name="Funky 3D Glasses" xmlns="http://www.w3.org/2000/svg" xmlns:xlink="http://www.w3.org/1999/xlink" width="360" height="360" viewBox="0 0 360 360" shape-rendering="geometricPrecision">
  <defs>
    <style>
      .cls-1, .cls-8 {
        fill: #fff;
      }

      .cls-2 {
        fill: #e5e5e5;
      }

      .cls-2, .cls-3, .cls-4, .cls-5, .cls-6, .cls-7, .cls-8 {
        fill-rule: evenodd;
      }

      .cls-3 {
        fill: url(#linear-gradient);
      }

      .cls-4 {
        fill: url(#linear-gradient-2);
      }

      .cls-5 {
        fill: #31323d;
      }

      .cls-6 {
        fill: #393a42;
      }

      .cls-7 {
        fill: #424350;
      }
    </style>
    <linearGradient id="linear-gradient" x1="84.953" y1="218.656" x2="84.953" y2="139.938" gradientUnits="userSpaceOnUse">
      <stop offset="0" stop-color="#1089b3" stop-opacity="0.639"/>
      <stop offset="1" stop-color="#1089b3" stop-opacity="0.431"/>
    </linearGradient>
    <linearGradient id="linear-gradient-2" x1="277.313" y1="217.688" x2="277.313" y2="134.406" gradientUnits="userSpaceOnUse">
      <stop offset="0" stop-color="#f93524" stop-opacity="0.639"/>
      <stop offset="1" stop-color="#f93524" stop-opacity="0.431"/>
    </linearGradient>
  </defs>
  <rect class="cls-1" width="360" height="360"/>
  <path id="Ellipse_1_copy_3" data-name="Ellipse 1 copy 3" class="cls-2" d="M181.978,193.7c96.23,0.038,174.018,16.72,173.745,37.26s-78.5,37.159-174.734,37.121S6.971,251.363,7.244,230.824,85.749,193.664,181.978,193.7Z"/>
  <path id="Color_Fill_50_copy_2" data-name="Color Fill 50 copy 2" class="cls-3" d="M42.358,212.163c-4.879-2.8-.719-64.909,1.439-69.236s75.54-3.606,79.137,0,9.352,69.957,5.755,74.285S47.394,215.048,42.358,212.163Z"/>
  <path id="Color_Fill_50_copy" data-name="Color Fill 50 copy" class="cls-4" d="M320.642,209.064c-4.989,3.055-80.856,11.64-84.7,7.533-3.856-4.124-4.872-71.238-1.721-75.22,3.248-4.1,78.817-9.834,81.327-5.279C318.106,140.732,325.547,206.061,320.642,209.064Z"/>
  <path id="Square_Glasses_Base" data-name="Square Glasses Base" class="cls-5" d="M339.986,227.416c-7.165,4.421-119.962,10.174-123.6,7.514-1.72-1.257-2.8-23.941-3.025-48.338-13.39,1.7-40.876,4.641-63.7,3.5,2.377,23.369,3.676,44.567,2.056,45.866-3.6,2.885-120.144-.721-127.339-5.048-3.95-2.376-5.036-98.085,0-101.691s110.073-7.212,115.109-2.164c1.664,1.669,3.957,13.814,6.151,29.432,15.691,1.647,45.838,3.582,67.971-2.524,0.408-14.962,1.262-26.506,2.628-28.3,4.468-5.859,114.105-9.906,119.686-6.292C341.472,122.976,344.093,224.882,339.986,227.416ZM122.934,142.927c-3.6-3.606-76.979-4.327-79.137,0s-6.317,66.442-1.439,69.236c5.036,2.885,82.734,9.376,86.331,5.049S126.531,146.533,122.934,142.927ZM315.552,136.1c-2.51-4.555-78.079,1.175-81.327,5.279-3.151,3.982-2.135,71.1,1.721,75.22,3.84,4.107,79.707-4.478,84.7-7.533C325.547,206.061,318.106,140.732,315.552,136.1Z"/>
  <path id="Sqaure_Glasses_Color" data-name="Sqaure Glasses Color" class="cls-6" d="M335.359,223.194c-7.142,4.448-111.8,10.265-115.453,7.593-1.916-1.4-2.72-26.974-2.45-52.044-10.845,1.5-46.166,5.908-72.9,3.87,2.858,23.971,4.635,47.586,2.844,49.023-3.6,2.885-111.512-.721-118.706-5.049-3.95-2.375-5.036-90.151,0-93.757s101.439-6.491,106.475-1.443c1.842,1.847,4.454,15.368,6.85,31.916,15.082,1.771,51.757,4.845,75.865-3.435,0.55-15.518,1.578-27.955,3.072-29.895,4.472-5.807,104.811-9.818,110.4-6.2C336.9,127.373,339.435,220.656,335.359,223.194ZM127.251,138.6c-3.6-3.606-85.612-4.328-87.771,0s-6.317,75.1-1.439,77.891c5.036,2.884,91.368,9.375,94.965,5.048S130.848,142.206,127.251,138.6Zm192.7-7.585c-2.512-4.579-87.195,1.942-90.43,6.07-3.133,4-1.067,79.682,2.777,83.786,3.827,4.087,87.984-4.53,92.992-7.568C330.232,210.3,322.476,135.624,319.947,131.015Z"/>
  <path id="Square_Glasses_Highlight" data-name="Square Glasses Highlight" class="cls-7" d="M325.813,127.781c-4.339-2.636-96.195,1.737-99.281,5.77-1.8,2.346-3.5-.694-5.15-3.947,8.3-5.605,104.5-9.371,109.97-5.827,5.511,3.57,8.047,95.565,4.091,99.334l-3.875-5.178S330.152,130.418,325.813,127.781ZM28.689,132.83c5.036-3.606,101.439-6.491,106.475-1.443,1.842,1.847,4.454,15.367,6.85,31.916,14.965,1.757,51.18,4.791,75.293-3.25,2.981,3.769,5.345,7.215,4.189,7.4-2.6.406-81.169,4.967-83.454,1.442s-3.633-27.8-6.475-32.454-81.222-5.448-98.562-.721a4.951,4.951,0,0,1-5.19-1.265A3.3,3.3,0,0,1,28.689,132.83Z"/>
  <path id="Left_Glare" data-name="Left Glare" class="cls-8" d="M123.049,163.755c-2.848-8.452-1.508-18.69-15.966-18.965s-8.1,15.852-.411,21.741S125.9,172.207,123.049,163.755Z"/>
  <path id="Right_Glare" data-name="Right Glare" class="cls-8" d="M290.561,144.369c2.158,8.655,0,18.752,14.388,20.194s9.353-15.145,2.159-21.636S288.4,135.715,290.561,144.369Z"/>
</svg>
