<svg id="_Pudding_Headband" data-name="&quot;Pudding&quot; Headband" xmlns="http://www.w3.org/2000/svg" width="360" height="360" viewBox="0 0 360 360">
  <defs>
    <style>
      .cls-1, .cls-8 {
        fill: #fff;
      }

      .cls-2 {
        fill: #e5e5e5;
      }

      .cls-2, .cls-3, .cls-4, .cls-5, .cls-6, .cls-7, .cls-8, .cls-9 {
        fill-rule: evenodd;
      }

      .cls-3 {
        fill: #31323d;
      }

      .cls-4 {
        fill: #b8916c;
      }

      .cls-5 {
        fill: #d5b08d;
      }

      .cls-6 {
        fill: #a18973;
      }

      .cls-7 {
        fill: #ecd1eb;
      }

      .cls-9 {
        fill: #ea5f5a;
      }
    </style>
  </defs>
  <rect class="cls-1" width="360" height="360"/>
  <path id="Ellipse_1_copy_3" data-name="Ellipse 1 copy 3" class="cls-2" d="M180.845,266.991C247.949,267.02,302.193,279.8,302,295.545s-54.744,28.477-121.849,28.447S58.805,311.179,59,295.438,113.74,266.962,180.845,266.991Z"/>
  <path id="Color_Fill_13" data-name="Color Fill 13" class="cls-3" d="M65.435,307.777c0.283,3.662,50.355-42.765,120.576-43.507s107.531,35.89,110.676,35.857-0.475-5-2.15-8.68c-1.537-3.376-41.057-40.483-105.514-39.8s-112.941,33.5-119.05,42.184C66.41,298.9,64.828,299.914,65.435,307.777Z"/>
  <path id="left_antennae_base" data-name="left antennae base" class="cls-3" d="M126.315,269.1s-18.991-11.692-28.431-12.292c0,0-2.85-5.217-2.174-7.322,0,0,10.024-10.25,14.551-11.7,0,0-19.174,4.05-23.058.243,0,0-3.259-10.809-1.17-11.531,0,0,11.414-10.964,15.6-11.708,0,0-20.933,3.02-26.2.277,0,0-3.616-11.505-.155-14.689,0,0,1.713-3.166,11.429-9.565,0,0-19.2,1.6-23.058.243,0,0-1.848-5.144-1.16-8.464a3.635,3.635,0,0,1,1.049-2.028,136.85,136.85,0,0,1,16.625-13.818s-15.78-.11-21.479-1.344a6.489,6.489,0,0,1-1.6-.511c-3.163-1.715-1.825-7.326-.089-8.394,0,0,46.1-1.537,49.238-2.619,0,0,2.5,5.22.1,9.443,0,0-15.644,7.511-26.036,16.016,0,0,8.716-1.841,34.554-3.513,0,0,4.251,5.552,1.159,10.481,0,0-19.446,11.4-27.073,17.077,0,0,25.466-3.768,32.479-1.393,0,0,3.222,7.311,1.159,10.481,0,0-11.808,6.771-17.662,14.878,0,0,24.451-.608,26.213.773,0,0,3.568,6.958,1.159,10.481,0,0-15.986,8.214-19.8,10.7,0,0,19.267,4.694,25.276,11.276C137.755,260.582,140.293,269.3,126.315,269.1Z"/>
  <path id="left_antennae_base_copy" data-name="left antennae base copy" class="cls-3" d="M241.079,265.384s19.541-15.741,28.753-17.606c0,0,2.6-5.8,1.916-7.917,0,0-9.942-9.831-14.513-10.986,0,0,18.692,2.586,22.192-1.658,0,0,2.738-11.261.831-11.886,0,0-10.883-10.882-14.945-11.543,0,0,19.568,2.475,24.151-.441,0,0,2.9-11.52-.156-14.7,0,0-1.559-3.189-10.392-9.87,0,0,16.893,2.065,20.093.818,0,0,1.43-4.964.8-8.224a4.1,4.1,0,0,0-.907-2.025,141.329,141.329,0,0,0-14.566-14.761s13.6,1.083,18.268.3a4.242,4.242,0,0,0,1.29-.374c2.51-1.411,1.333-6.91-.086-8.094,0,0-41.218-6.274-44.359-7.8,0,0-2.4,5.337.107,10.127,0,0,15.27,9.234,24.915,18.583,0,0-7.949-2.35-33.325-5.734,0,0-4.337,5.841-.971,11.416,0,0,19.671,12.728,26.951,18.665,0,0-24.981-4.065-32.309-1.485,0,0-3.3,8.168-1,11.657,0,0,12.5,7.026,18.549,15.437,0,0-25.629.862-27.558,2.543,0,0-3.857,8.208-1.049,12,0,0,17.481,7.465,21.476,9.738,0,0-20.508,7.679-27.174,16.111C228.059,257.673,225.331,268.181,241.079,265.384Z"/>
  <g>
    <path id="Color_Fill_21_copy" data-name="Color Fill 21 copy" class="cls-3" d="M86.483,169.828c-6.617-.4-21.894,15.61-44.935,13.068-18.571-2.049-22.5-15.856-23.313-23.889-0.78-7.687.091-24.487,9.145-27.381,0,0-6.37-7.628-5.385-13.585s5.743-18.6,11.341-17.959c0,0-9.253-15.993,8.163-21.074,0,0-2.229-12.569.871-16.8s6.215-7.062,8.23-14.778c0,0,5.039,13.938,16.9,12.414S92,63.783,89.611,69.055c0,0,26.221,1.472,21.206,22.862,0,0,21.087,11.67,12.865,27.148,0,0,17.284,5.055,16.98,19.759C140.2,161.215,121.1,171.911,86.483,169.828Z"/>
    <path id="Color_Fill_21" data-name="Color Fill 21" class="cls-4" d="M86.439,165.631c-6.621-.335-18.751,11.042-34.454,12.957s-25.938-7.771-28.464-15.44-1.355-29.018,11.2-31.6c0,0-9.5-6.546-8.518-12.5s7.851-17.572,13.448-16.932c0,0-14.494-15.937,8.152-22.123,0,0-5.351-10.437-2.251-14.667s4.174-1.793,6.189-9.51c0,0,3.947,9.753,15.81,8.228s19.259,3.994,16.869,9.266c0,0,26.2-.627,21.184,20.764,0,0,21.076,10.621,12.854,26.1,0,0,18.582,6.1,18.039,20.8S120.7,167.368,86.439,165.631Z"/>
    <path id="Color_Fill_27" data-name="Color Fill 27" class="cls-5" d="M57.121,69.4c-4.249-1.139-6.091-5.115-6.8-9.376a24.236,24.236,0,0,0,1.412-4.209s3.947,9.753,15.81,8.228,19.259,3.994,16.869,9.266l-2.055.235c-0.906-.34-1.958-0.744-3.2-1.229C65.052,66.785,67.362,72.144,57.121,69.4Zm27.295,3.909s27.236-1.687,22.221,19.7c0,0,20.039,11.681,11.817,27.159,0,0,18.582,6.1,18.039,20.8-0.357,9.649-7.053,18.007-21.306,22.12,19.111-15.839,6.03-34.381.167-38.687-6.013-4.416-34.009,4.068-20.984-1.877s21.987-2.331,21.987-2.331C115.5,98.511,90.925,94.226,90.925,94.226l13.6-2.242c4.893-18.09-50.474-15.207-50.474-15.207L82.36,73.542C91.78,77.078,84.415,73.308,84.415,73.308Z"/>
    <path id="Color_Fill_25" data-name="Color Fill 25" class="cls-6" d="M110.59,164.2l7.7-2.133A54.767,54.767,0,0,1,110.59,164.2ZM26.2,119.046a29.35,29.35,0,0,1,4.546-10.274c-2.6,8.868,2.912,21.738,2.912,21.738-0.023.067-.042,0.129-0.065,0.2C31.116,128.76,25.424,123.729,26.2,119.046Zm12.273-18.425c-2.2-3.079-6.2-10.312-.295-15.861C36.192,90.414,37.985,98.629,38.472,100.621ZM46.9,78.04c-1.374-3.223-3.624-9.623-1.357-12.716,1.909-2.606,3.05-2.687,4.115-4.164-4.727,10.155-.827,17.771-0.827,17.771A2.9,2.9,0,0,0,46.9,78.04Zm5.081,100.548c-15.7,1.915-25.938-7.771-28.464-15.44C21.1,155.81,22.079,135.958,33.163,132c-8,24.277-.418,28.031,8.208,34.111,8.8,6.2,36.676-1.088,39.827-.421a20.558,20.558,0,0,0,2.417.355C76.639,168.068,65.67,176.919,51.985,178.588Z"/>
    <g id="mouth">
      <path id="mouth-2" data-name="mouth" class="cls-3" d="M39.042,144.1c-6.481,4.152,15.564,18.025,37.864,12.193s38.576-19.647,35.358-26.608S41.818,142.317,39.042,144.1Z"/>
      <path id="tongue" class="cls-7" d="M76.906,156.288a46.418,46.418,0,0,1-22.539.033c0.9-1.764,3.228-4.9,8.848-6.185,8.017-1.833,10.135.243,12.577-.133s5.542-4.606,11.485-4.319a15.537,15.537,0,0,1,8.372,3.243A83.976,83.976,0,0,1,76.906,156.288Z"/>
    </g>
    <g id="eye">
      <path id="Color_Fill_22" data-name="Color Fill 22" class="cls-8" d="M51.065,91.5c-6,1.648-7.215,11.619-5.03,19.991s5.69,9.384,10.57,8.283,7.259-7.422,6.133-14.756S57.684,89.681,51.065,91.5Z"/>
      <path id="Color_Fill_22_copy_3" data-name="Color Fill 22 copy 3" class="cls-3" d="M50.729,102.719c-4.135-.076-5.775,4.762-4.931,9.657,0.908,5.272,3.483,6.471,7.249,6.593,3.731,0.12,5.705-3.28,5.109-7.59C57.6,107.332,55.231,102.8,50.729,102.719Z"/>
    </g>
    <g id="eye-2" data-name="eye">
      <path id="Color_Fill_22_copy" data-name="Color Fill 22 copy" class="cls-8" d="M75.745,85.142c-5.922,1.452-7.061,10.624-4.64,18.945,2.607,8.96,6.58,10.091,11.988,8.861,5.356-1.217,7.33-7.978,5.408-15.361C86.7,90.655,82.192,83.561,75.745,85.142Z"/>
      <path id="Color_Fill_22_copy_2" data-name="Color Fill 22 copy 2" class="cls-3" d="M76.865,96.146c-4.135-.075-5.775,4.763-4.931,9.658,0.908,5.271,3.483,6.47,7.25,6.592,3.731,0.121,5.705-3.28,5.109-7.59C83.733,100.759,81.367,96.228,76.865,96.146Z"/>
    </g>
  </g>
  <g id="Group_7_copy" data-name="Group 7 copy">
    <path id="Color_Fill_21_copy-2" data-name="Color Fill 21 copy" class="cls-3" d="M279.232,170.017c-6-2.815-26.1,6.417-46.58-4.459-16.5-8.767-15.064-23.049-12.86-30.817,2.109-7.432,9.112-22.724,18.593-22.068,0,0-3.108-9.443,0-14.615s12.195-15.164,17.161-12.5c0,0-2.7-18.282,15.356-16.569,0,0,2.562-12.505,7-15.291s8.379-4.266,13.1-10.694c0,0-.455,14.816,11.133,17.783s21.318,12.714,17.153,16.73c0,0,23.827,11.057,11.28,29.083,0,0,15.3,18.638,1.949,29.985,0,0,14.2,11.084,8.5,24.638C332.332,181.862,310.633,184.743,279.232,170.017Z"/>
    <path id="Color_Fill_21-2" data-name="Color Fill 21" class="cls-4" d="M280.738,166.1c-6.03-2.758-21.5,3.334-36.8-.689S222.7,148.6,223.177,140.543s9.439-27.47,22.055-25.231c0,0-6.419-9.595-3.307-14.767s13.775-13.43,18.741-10.767c0,0-7.595-20.167,15.733-17.548,0,0-1.126-11.677,3.315-14.464s4.54-.124,9.257-6.551c0,0,.073,10.522,11.661,13.489s16.427,10.829,12.262,14.845c0,0,24.58,9.1,12.033,27.125,0,0,15.673,17.659,2.325,29,0,0,15.022,12.536,9.1,25.994S311.939,180.374,280.738,166.1Z"/>
    <path id="Color_Fill_28" data-name="Color Fill 28" class="cls-5" d="M313.611,78.677a5.063,5.063,0,0,1-.717.872s24.58,9.1,12.033,27.125c0,0,15.084,17.013,3.01,28.371,7.607-21.074-17.21-32-17.21-32,5.427,0.669,13.758,3.74,13.758,3.74,7.452-23.283-44.612-33.7-43.093-34.256C282.8,72.018,309.66,77.82,313.611,78.677ZM296.832,126.61a85.637,85.637,0,0,1,30.729,9.471c0.014-.033.023-0.066,0.037-0.1,2.2,1.976,14.14,13.45,8.753,25.691a20.3,20.3,0,0,1-3.6,5.546,7,7,0,0,1,.012-0.864c1.427-14.508-8.937-25.434-13.551-28.945S279.719,124.934,296.832,126.61Zm17.053-48.445c-1.889-4.925-7.494-6.072-18.945-8.187-9.121-1.685-11.944-9.734-12.77-13.433,2.262-.818,3.157-0.366,6.8-5.33,0,0,.073,10.522,11.661,13.489C311.009,67.361,315.951,73.934,313.885,78.166Z"/>
    <path id="Color_Fill_29" data-name="Color Fill 29" class="cls-6" d="M280.738,166.1c-6.03-2.758-21.5,3.334-36.8-.689S222.7,148.6,223.177,140.543s9.439-27.47,22.055-25.231c0,0-.32-0.484-0.772-1.265,1.58,0.573,1.4,1.471-1.439,2.812-15.26,7.215-14.144,27.564-3.977,37.93s42.113,4.892,42.113,4.892,4.906,8.216,47.493,10.961C319.344,176.533,303.4,176.466,280.738,166.1Z"/>
    <g id="mouth-3" data-name="mouth">
      <path id="mouth-4" data-name="mouth" class="cls-3" d="M243.655,128.72c-7.2,1.368,4.886,22.13,26.469,25.235,22.974,3.3,42.225-4.24,40.5-12.251C309.011,134.166,246.357,128.207,243.655,128.72Z"/>
      <path id="tongue-2" data-name="tongue" class="cls-7" d="M261.97,145.263c8.192,0.725,9.57,3.353,12.008,3.747s6.689-2.675,12.255-.572a15.554,15.554,0,0,1,6.71,5.3,72.457,72.457,0,0,1-22.819.217,39.052,39.052,0,0,1-16.918-6.793A13.329,13.329,0,0,1,261.97,145.263Z"/>
    </g>
    <g id="eye-3" data-name="eye">
      <path id="Color_Fill_22-2" data-name="Color Fill 22" class="cls-8" d="M270.545,85.682C264.362,85,259.556,93.815,258.5,102.4s1.828,10.824,6.769,11.6,9.483-4.216,11.141-11.448S277.367,86.438,270.545,85.682Z"/>
      <path id="Color_Fill_22_copy_3-2" data-name="Color Fill 22 copy 3" class="cls-3" d="M266.429,97.982c-3.937-1.267-6.9,2.891-7.506,7.821-0.65,5.31,1.469,7.2,5.04,8.407,3.538,1.194,6.408-1.491,7.081-5.79C271.675,104.384,270.716,99.362,266.429,97.982Z"/>
    </g>
    <g id="eye-4" data-name="eye">
      <path id="Color_Fill_22_copy-2" data-name="Color Fill 22 copy" class="cls-8" d="M295.826,88.894c-6.039-.839-10.478,7.264-11.3,15.892-0.88,9.291,2.4,11.81,7.875,12.666,5.427,0.847,9.754-4.707,10.689-12.279C303.973,98.064,302.4,89.807,295.826,88.894Z"/>
      <path id="Color_Fill_22_copy_2-2" data-name="Color Fill 22 copy 2" class="cls-3" d="M292.281,101.382c-3.937-1.267-6.9,2.891-7.506,7.821-0.65,5.31,1.469,7.2,5.04,8.407,3.538,1.194,6.408-1.491,7.081-5.79C297.527,107.784,296.568,102.762,292.281,101.382Z"/>
    </g>
  </g>
  <path id="Color_Fill_30" data-name="Color Fill 30" class="cls-8" d="M201,106h10c-0.927-30.575-3.657-33.959,28-33,5.713,3.681,13.092,3.674,17,9a40.872,40.872,0,0,1,5,10c1.838,6.077.6,12.254-1,17-7.357,21.825-21.978,19-50,19-10.446,0-23.176.828-32-1-0.528-2.951-.664-4.661-3-6-3.956,5.881-17.022,10.582-27,7-4.744-1.7-8.26-6.214-13-8-4.476,13.6-43.054,12.212-43-5,7.644-8.415,2.367-11.265,1-20l3-13c4.268-2.885,7.37-7.422,13-9,12.676-3.553,23.609,7.378,29,6,19.154-6.53,21.278-9.488,39,2,0.275-10.347,9.707-8.558,20-8C201.643,80.442,201.142,93.2,201,106ZM155,95c-1.441,2.67-1.994,4.221-2,9,0.8,1.021.355,0.274,1,2h5v-1h1a30.335,30.335,0,0,0,0-9h-2C156.927,95.248,157.054,95.4,155,95Zm80,1v10h1v-1c2.511-2.671,1.827-5.214,1-9h-2Zm0,67c0.85,25.157,6.145,33.912-21,33-4.256-6.944-3.15-21.591-3-33h-3c0.238,6.9-.02,15.021-3,19-2.145,6.862-7.582,8.58-12,13-9.846.83-20.366,1.784-27-3-2.952-2.129-3.178-5.383-7-7-2.337,7.042-16.719,14.6-29,11-10.922-3.205-18.206-12.607-21-24-3.875-15.8,15.7-34.35,30-32,7.564,1.243,12.7,4.707,18,8,0.735-9.216,10.33-7.517,20-7,1.021,0.8.274,0.355,2,1v2c3.219,5.091,1.811,23.781,2,30h2v-2c3.251-5.059,1.133-20.733,1-28,10.154-6.151,43.875-3.13,60-3,2.873,4.62,3.161,10.629,3,19C243.456,162.231,241.627,163.1,235,163Zm-100,0c-1.65,3.482-2.773,6.577,0,10,1.18,0.8,1.681.773,4,1,1.441-2.67,1.994-4.221,2-9C138.719,163.775,138.749,163.362,135,163ZM64,248l-1,13-2,1c-4.523,3.892-17.691,2.846-20-2-3.254-5.069-1.358-43.358,0-50h2c4.316-3.466,29.026-4,35-1,1.85,0.929,2.6,3.573,4,5,8.954-11.816,27.69-3.157,36,2,0.308-4.19.529-4.222,3-6,8.691-6.734,29.268-.159,35,3,1.365,0.752,1.2,1.56,2,0,1.9-1.782,3.17-4.115,6-5,7.7-2.407,44.082.4,48,2,1.413,3.243,2.615,7.384,4,11h1c0.124-5.038,1.433-9.306,5-11,4.958-3.817,25.379-2,35-2,24.3,0.012,52.076-4.186,58,17,2.557,9.145-5.624,13.676-4,20,1.563,6.087,6.483,8.24,6,16l-2,1c-7.226,6.126-20.65-1.364-23-2-8.291,6.615-25.663,4-40,4-4.914,0-12.669,1.071-16-1-4.981-3.1-1.02-13.87-4-19-0.5,5.54-3.743,15.935-8,18-3.851,3.643-12.851,1.792-17,0a52.824,52.824,0,0,1-5-13h-1a56.259,56.259,0,0,1-1,12c-8.727,5.191-53.831,5.125-58-2-4.978,4.772-11.79,6.009-21,4-1.127-1.914-2.52-5.088-4-7-6.626,9.535-26.343,9.97-36,3-2.806-2.025-6.058-9.741-8-11H64Zm32-17c-1.372,2.542-1.917,3.5-2,8,0.8,1.021.355,0.274,1,2,1.754,0.631.971,0.193,2,1,1.754-.631.971-0.193,2-1,2.467-1.295.681,0.429,2-2,0.961-1.418.976-3.273,1-6C99.719,231.775,99.749,231.362,96,231Zm101,9v2l3,2A9.257,9.257,0,0,0,197,240Z"/>
  <path id="SOLD_OUT_FOREVER" data-name="SOLD OUT FOREVER" class="cls-9" d="M131.936,83.3q-1.469-.734-3.3-1.56a42,42,0,0,0-3.947-1.53,37.307,37.307,0,0,0-4.375-1.162,23.34,23.34,0,0,0-4.65-.459,19.7,19.7,0,0,0-6.149.948,16.022,16.022,0,0,0-5.171,2.784,13.059,13.059,0,0,0-3.579,4.589,14.588,14.588,0,0,0-1.316,6.364,12.748,12.748,0,0,0,.643,4.222,9.172,9.172,0,0,0,1.988,3.273,13.412,13.412,0,0,0,3.427,2.57,31.83,31.83,0,0,0,4.956,2.111q1.957,0.674,3.7,1.163t3.09,0.979a7.017,7.017,0,0,1,2.111,1.132,1.967,1.967,0,0,1,.765,1.56,1.592,1.592,0,0,1-.765,1.377,5.134,5.134,0,0,1-2.723.52,17.7,17.7,0,0,1-5.048-.734,31.7,31.7,0,0,1-4.436-1.653,35.849,35.849,0,0,1-4.467-2.386l-5.14,10.463a30.381,30.381,0,0,0,4.253,2.081,43.7,43.7,0,0,0,4.773,1.591,42.428,42.428,0,0,0,4.986,1.04,33.772,33.772,0,0,0,4.9.367,25.783,25.783,0,0,0,5.965-.7,16,16,0,0,0,5.324-2.294,11.8,11.8,0,0,0,3.793-4.253,13.706,13.706,0,0,0,1.438-6.578,13.189,13.189,0,0,0-.918-5.2,10.008,10.008,0,0,0-2.631-3.64,16.807,16.807,0,0,0-4.13-2.6,44.6,44.6,0,0,0-5.415-2.019q-1.9-.611-3.4-1.04a19.811,19.811,0,0,1-2.539-.887,5.211,5.211,0,0,1-1.591-1.01,1.905,1.905,0,0,1-.551-1.407,1.712,1.712,0,0,1,.949-1.652,5.57,5.57,0,0,1,2.539-.489,13.366,13.366,0,0,1,4.008.642A34.774,34.774,0,0,1,123,91.2a33.4,33.4,0,0,1,3.793,1.958ZM165.5,120.935a22.589,22.589,0,0,0,7.006-4.865,22.278,22.278,0,0,0,4.589-6.975,21.094,21.094,0,0,0,1.652-8.23,22.112,22.112,0,0,0-1.56-8.138,22.517,22.517,0,0,0-4.436-7.1,22.028,22.028,0,0,0-6.914-5.017,20.909,20.909,0,0,0-9-1.9,21.716,21.716,0,0,0-8.9,1.805,22.535,22.535,0,0,0-7.037,4.834,21.919,21.919,0,0,0-4.619,7.006,21.323,21.323,0,0,0-1.652,8.26,21.855,21.855,0,0,0,1.591,8.2,22.554,22.554,0,0,0,4.466,7.068,22.238,22.238,0,0,0,6.915,4.987,20.9,20.9,0,0,0,8.994,1.9A21.413,21.413,0,0,0,165.5,120.935ZM147.324,96.551a11.017,11.017,0,0,1,1.8-3.671,9.125,9.125,0,0,1,3.09-2.6,9.436,9.436,0,0,1,4.436-.979,9.54,9.54,0,0,1,4.375.948,9.443,9.443,0,0,1,3.121,2.509,10.485,10.485,0,0,1,1.866,3.61,14.823,14.823,0,0,1,.612,4.252,15.627,15.627,0,0,1-.581,4.222,11.313,11.313,0,0,1-1.775,3.7,9.044,9.044,0,0,1-3.09,2.631,10.46,10.46,0,0,1-8.9.031,9.264,9.264,0,0,1-3.09-2.57A11.1,11.1,0,0,1,147.355,105a14.781,14.781,0,0,1-.612-4.252A15.276,15.276,0,0,1,147.324,96.551ZM214.233,122.4V112h-19.7V78.96H182.6V122.4h31.634Zm19.641,0a24.783,24.783,0,0,0,9-1.56,19.884,19.884,0,0,0,6.914-4.406,19.388,19.388,0,0,0,4.436-6.853,24.534,24.534,0,0,0,1.561-8.964,24.871,24.871,0,0,0-1.408-8.413,19.091,19.091,0,0,0-11.014-11.534,24.452,24.452,0,0,0-9.484-1.713h-16.7V122.4h16.7Zm9.148-17.255a10.507,10.507,0,0,1-1.9,3.61,8.7,8.7,0,0,1-3.09,2.387,9.73,9.73,0,0,1-4.161.856H229.1V89.362h4.772a9.884,9.884,0,0,1,4.1.826,8.7,8.7,0,0,1,3.09,2.294,10.279,10.279,0,0,1,1.927,3.549,14.84,14.84,0,0,1,.673,4.589A15.284,15.284,0,0,1,243.022,105.148ZM146.07,188.632a22.587,22.587,0,0,0,7.006-4.864,22.283,22.283,0,0,0,4.589-6.976,21.112,21.112,0,0,0,1.652-8.23,22.117,22.117,0,0,0-1.56-8.138,22.511,22.511,0,0,0-4.436-7.1,22.017,22.017,0,0,0-6.915-5.018,20.9,20.9,0,0,0-8.994-1.9,21.727,21.727,0,0,0-8.9,1.805,22.532,22.532,0,0,0-7.037,4.834,21.919,21.919,0,0,0-4.619,7.006,21.326,21.326,0,0,0-1.653,8.261,21.878,21.878,0,0,0,1.591,8.2,22.571,22.571,0,0,0,4.467,7.067,22.245,22.245,0,0,0,6.914,4.987,20.9,20.9,0,0,0,9,1.9A21.4,21.4,0,0,0,146.07,188.632ZM127.9,164.249a11.021,11.021,0,0,1,1.8-3.672,9.128,9.128,0,0,1,3.09-2.6,9.438,9.438,0,0,1,4.436-.979,9.546,9.546,0,0,1,4.375.948,9.447,9.447,0,0,1,3.121,2.509,10.5,10.5,0,0,1,1.866,3.61,14.822,14.822,0,0,1,.612,4.253,15.638,15.638,0,0,1-.581,4.222,11.343,11.343,0,0,1-1.775,3.7,9.044,9.044,0,0,1-3.09,2.631,10.465,10.465,0,0,1-8.9.03,9.242,9.242,0,0,1-3.09-2.57,11.094,11.094,0,0,1-1.835-3.64,14.753,14.753,0,0,1-.612-4.253A15.275,15.275,0,0,1,127.9,164.249ZM178.622,179a7.114,7.114,0,0,1-2.356-2.386,11.084,11.084,0,0,1-1.346-3.488,19.526,19.526,0,0,1-.428-4.13V146.657H162.56v22.334a30.049,30.049,0,0,0,1.1,8.23,18.823,18.823,0,0,0,3.488,6.822,17.088,17.088,0,0,0,6.088,4.681,20.747,20.747,0,0,0,8.9,1.744,21.254,21.254,0,0,0,8.719-1.652,17.076,17.076,0,0,0,6.15-4.528,18.408,18.408,0,0,0,3.61-6.823,29.892,29.892,0,0,0,1.163-8.474V146.657H189.85v22.334a19.227,19.227,0,0,1-.428,4.1,11.132,11.132,0,0,1-1.347,3.458,7.282,7.282,0,0,1-2.386,2.416A7.369,7.369,0,0,1,178.622,179Zm62.626-32.338H204.29v10.4h12.544V190.1h11.931V157.059h12.483v-10.4ZM57.593,257.8V241.644H72.156v-9.667H57.593v-7.22H75.46v-10.4h-29.8V257.8H57.593Zm49.226-1.468a22.578,22.578,0,0,0,7.006-4.865,22.278,22.278,0,0,0,4.589-6.975,21.1,21.1,0,0,0,1.653-8.23,22.11,22.11,0,0,0-1.561-8.138,22.515,22.515,0,0,0-4.436-7.1,22.037,22.037,0,0,0-6.914-5.017,20.906,20.906,0,0,0-8.995-1.9,21.712,21.712,0,0,0-8.9,1.8,22.528,22.528,0,0,0-7.037,4.834,21.926,21.926,0,0,0-4.62,7.006,21.331,21.331,0,0,0-1.652,8.26,21.87,21.87,0,0,0,1.591,8.2,22.577,22.577,0,0,0,4.467,7.068,22.223,22.223,0,0,0,6.914,4.986,20.89,20.89,0,0,0,8.995,1.9A21.412,21.412,0,0,0,106.819,256.33ZM88.646,231.946a11.01,11.01,0,0,1,1.805-3.671,9.128,9.128,0,0,1,3.09-2.6,9.437,9.437,0,0,1,4.436-.979,9.547,9.547,0,0,1,4.375.949,9.431,9.431,0,0,1,3.12,2.509,10.475,10.475,0,0,1,1.866,3.61,14.786,14.786,0,0,1,.612,4.252,15.627,15.627,0,0,1-.581,4.222,11.331,11.331,0,0,1-1.774,3.7,9.063,9.063,0,0,1-3.09,2.631,10.461,10.461,0,0,1-8.9.031,9.251,9.251,0,0,1-3.09-2.57,11.1,11.1,0,0,1-1.836-3.641,14.774,14.774,0,0,1-.612-4.252A15.273,15.273,0,0,1,88.646,231.946ZM135.853,257.8V244.459h4.467l7.648,13.339H161.43l-9.179-15.97a14.4,14.4,0,0,0,4.59-5.354,15.464,15.464,0,0,0,1.652-7.067,14.5,14.5,0,0,0-1.1-5.476,16,16,0,0,0-3.029-4.834,15.261,15.261,0,0,0-4.619-3.427,13.205,13.205,0,0,0-5.874-1.315H123.921V257.8h11.932Zm0-33.041h7.22a3.085,3.085,0,0,1,2.2,1.193,4.922,4.922,0,0,1,1.1,3.457,5.476,5.476,0,0,1-.948,3.426,2.639,2.639,0,0,1-2.05,1.224h-7.526v-9.3ZM175.93,247.4v-6.853h15.787v-9.668H175.93v-6.118h18.479v-10.4H164V257.8H194.96V247.4H175.93Zm19.151-33.041L211.235,257.8h9.913l15.97-43.443H224.574l-8.383,28.452-8.5-28.452H195.081ZM251.13,247.4v-6.853h15.786v-9.668H251.13v-6.118h18.478v-10.4H239.2V257.8h30.961V247.4H251.13Zm35.3,10.4V244.459H290.9l7.648,13.339h13.462l-9.178-15.97a14.4,14.4,0,0,0,4.589-5.354,15.464,15.464,0,0,0,1.652-7.067,14.483,14.483,0,0,0-1.1-5.476,16.013,16.013,0,0,0-3.028-4.834,15.266,15.266,0,0,0-4.62-3.427,13.205,13.205,0,0,0-5.874-1.315H274.5V257.8h11.932Zm0-33.041h7.22a3.083,3.083,0,0,1,2.2,1.193,4.922,4.922,0,0,1,1.1,3.457,5.476,5.476,0,0,1-.948,3.426,2.638,2.638,0,0,1-2.05,1.224h-7.526v-9.3Z"/>
</svg>
