<svg id="Heart_headband" data-name="Heart headband" xmlns="http://www.w3.org/2000/svg" width="360" height="360" viewBox="0 0 360 360">
  <defs>
    <style>
      .cls-1 {
        fill: #fff;
      }

      .cls-2 {
        fill: #e5e5e5;
      }

      .cls-3 {
        fill: #31323d;
      }

      .cls-3, .cls-4, .cls-5, .cls-6 {
        fill-rule: evenodd;
      }

      .cls-4 {
        fill: #f14bd3;
      }

      .cls-5 {
        fill: #a93fa2;
      }

      .cls-6 {
        fill: #f8f8e0;
      }
    </style>
  </defs>
  <rect id="Background" class="cls-1" width="360" height="360"/>
  <ellipse id="Shadow" class="cls-2" cx="181" cy="284.5" rx="143" ry="23.5"/>
  <path id="headband" class="cls-3" d="M59.558,292.173c0.248,3.727,54.883-39.636,126.394-39.636s105.554,34.3,108.756,34.3,2.3-5.871-.7-9.607c-2.366-2.94-42.16-38.68-107.8-38.68S72.223,269.64,64.529,277.228C58.435,283.24,59.024,284.167,59.558,292.173Z"/>
  <path id="left_antenna" data-name="left antenna" class="cls-3" d="M66.2,122.107s66.136,57.81,44.428,139.594l9.83-1.179S134.945,158.119,66.2,122.107Z"/>
  <path id="right_antenna" data-name="right antenna" class="cls-3" d="M287.558,115.815s-66.135,57.811-44.428,139.6l-9.829-1.18S218.817,151.827,287.558,115.815Z"/>
  <g id="Left_Heart" data-name="Left Heart">
    <path id="Color_Fill_1264" data-name="Color Fill 1264" class="cls-3" d="M98.344,161.867S45.22,160.588,28.18,126.742C11.62,93.848,48.522,88.967,66.424,98.464,71.582,76.727,97,50.214,114.249,84.481,127.469,110.739,98.344,161.867,98.344,161.867Z"/>
    <path id="Color_Fill_1264_copy" data-name="Color Fill 1264 copy" class="cls-4" d="M96.75,158.188s-45.971-2.426-63.733-31.907C14.877,96.173,51.749,96.027,69.44,105.126c6.583-21.9,29.415-50.038,41.757-17.232C120.6,112.891,96.75,158.188,96.75,158.188Z"/>
    <path id="Color_Fill_1268" data-name="Color Fill 1268" class="cls-5" d="M33.017,126.281a42.518,42.518,0,0,1-3.414-6.872c21.308,23.888,21.964,21.52,63.95,38.494C82.829,156.73,47.953,151.07,33.017,126.281Z"/>
    <path id="Color_Fill_1267" data-name="Color Fill 1267" class="cls-6" d="M105.26,96.675c-7.948-20.87-23.142-9.867-23.142-9.867C110.806,51.82,113.663,118.737,105.26,96.675ZM34.341,108.758c16.5-14.279,30.711,7.491,30.711,7.491C49.279,106.043,34.341,108.758,34.341,108.758Z"/>
  </g>
  <g id="Right_Heart" data-name="Right Heart">
    <path id="Color_Fill_1264-2" data-name="Color Fill 1264" class="cls-3" d="M259.1,149.492s-27.527-45.517-8.221-78.124c18.762-31.688,42.738-3.176,44.385,17.044,21.068-7.353,57.061-.184,37.516,32.828C317.8,146.536,259.1,149.492,259.1,149.492Z"/>
    <path id="Color_Fill_1264_copy-2" data-name="Color Fill 1264 copy" class="cls-4" d="M261.335,146.165s-22.711-40.1-7.467-70.963c15.567-31.521,35.542-.486,37.411,19.343,21.971-6.238,57.942-2.125,36.982,25.957C312.291,141.9,261.335,146.165,261.335,146.165Z"/>
    <path id="Color_Fill_1268-2" data-name="Color Fill 1268" class="cls-5" d="M253.868,75.2a42.526,42.526,0,0,1,3.944-6.582c-3.205,9.207-10.8,27.691,2.04,74.693C255.066,133.633,241.05,101.155,253.868,75.2Z"/>
    <path id="Color_Fill_1267-2" data-name="Color Fill 1267" class="cls-6" d="M323.049,115.41c4.568-19.6-21.775-18.823-21.775-18.823C350.607,91.084,320.472,126.471,323.049,115.41ZM263.611,65.93c25.834-.255,18.977,33.636,18.977,33.636C280.849,77.118,263.611,65.93,263.611,65.93Z"/>
  </g>
</svg>
