<svg id="Kittyhawk_Mask" data-name="Kittyhawk Mask" xmlns="http://www.w3.org/2000/svg" width="360" height="360" viewBox="0 0 360 360" shape-rendering="geometricPrecision">
  <defs>
    <style>
      .cls-1 {
        fill: #fff;
      }

      .cls-2 {
        fill: #e5e5e5;
      }

      .cls-2, .cls-3, .cls-4 {
        fill-rule: evenodd;
      }

      .cls-3 {
        fill: #31323d;
      }

      .cls-4 {
        fill: #b4b5be;
      }
    </style>
  </defs>
  <rect class="cls-1" width="360" height="360"/>
  <path id="Ellipse_1_copy_2" data-name="Ellipse 1 copy 2" class="cls-2" d="M226.117,261.375c65.171,2.078,117.5,15.034,116.875,28.939s-53.96,23.493-119.131,21.415S106.363,296.7,106.986,282.79,160.946,259.3,226.117,261.375Z"/>
  <path id="Color_Fill_51" data-name="Color Fill 51" class="cls-3" d="M331.071,245.81c-2.762,11.621-16.97,46.574-36.581,58.357s-44.221-4.441-51.785-24.324c-4.567-12-10.658-17.288-18.747-18.848s-12.186.306-24.062,12.832c-20.553,21.68-39.171,16.136-55.719,7.176-23.2-12.562-14.214-79.528-12.733-70.108s9.194,8.046,9.194,8.046l0.312-8.453c4.162,5.166,5.217,3.562,12.551,4.661s24.626-7.113,39.067-.082,20.654,13.392,37.58,16.656,26.767-4.064,45.357-4.693,32.559,14.791,32.559,14.791c7.428,3.793,15.984-1.4,15.984-1.4l-5.586,7.883C324.044,254.563,331.071,245.81,331.071,245.81Zm-184.276-1.041c23.156,34.636,44.012,4.456,44.012,4.456C173.508,219.865,146.795,244.769,146.795,244.769Zm112.77,15.476s7.93,35.732,42.488,12.227C302.053,272.472,286.7,239.455,259.565,260.245Z"/>
  <path class="cls-2" d="M166.519,128.52c81.735-2.3,148.214,9.772,148.486,26.952s-65.769,32.968-147.5,35.263S19.286,180.963,19.015,163.782,84.783,130.814,166.519,128.52Z"/>
  <path id="Color_Fill_53" data-name="Color Fill 53" class="cls-3" d="M172.3,182.407C75.519,189.53,23.963,169.538,21.962,159.9c-1.49-7.178,7.4-26.638,60.8-38.382,0.707-16.7,1.36-36.009.9-41.63C82.789,69.4,117.377,63.409,159.629,61.659s85.36-.382,86.794,9.538c0.782,5.411,3.95,25.323,6.668,42.309,39.7,3.892,54.444,13.582,60.372,27.35C322.856,162.673,231,178.087,172.3,182.407Z"/>
  <path id="Color_Fill_55" data-name="Color Fill 55" class="cls-4" d="M256.743,139.787a4.018,4.018,0,0,1-.527.582c-5.78,2.982-34.661,16.654-81.117,18.222-22.82.771-39.186,0.232-52.3-1.185-23.675-3.057-37.809-7.725-41.276-9.569,0.058-1.668.221-6.445,0.436-13.046,4.494,3.892,25.133,17.158,93.69,11.894,66.545-5.11,78.089-14.082,80.415-18.148,0.453,4.075.807,7.271,1.021,9.2A6.921,6.921,0,0,1,256.743,139.787Z"/>
</svg>
