<svg id="Bug_Headband_Fuzzy_" data-name="Bug Headband (Fuzzy)" xmlns="http://www.w3.org/2000/svg" width="360" height="360" viewBox="0 0 360 360" shape-rendering="geometricPrecision">
  <defs>
    <style>
      .cls-1 {
        fill: #fff;
      }

      .cls-2 {
        fill: #e5e5e5;
      }

      .cls-3 {
        fill: #31323d;
      }

      .cls-3, .cls-4, .cls-5 {
        fill-rule: evenodd;
      }

      .cls-4 {
        fill: #ea5f5a;
      }

      .cls-5 {
        fill: #bf4844;
      }
    </style>
  </defs>
  <rect id="White" class="cls-1" width="360" height="360"/>
  <g id="Shadows_copy_8" data-name="Shadows copy 8">
    <ellipse class="cls-2" cx="176" cy="292" rx="117" ry="23"/>
  </g>
  <path id="headband_copy" data-name="headband copy" class="cls-3" d="M279.528,291.447c-0.14,3.21-47.921-32.986-109.337-31.565s-89.972,31.586-92.722,31.649-2.094-5,.412-8.273c1.973-2.575,35.441-34.093,91.815-35.4S268.2,272.326,274.962,278.7C280.315,283.745,279.827,284.554,279.528,291.447Z"/>
  <path id="left_antennae_base" data-name="left antennae base" class="cls-3" d="M128.1,260.455s-16.3-10.871-24.571-11.707c0,0-2.333-4.666-1.67-6.49,0,0,9.141-8.654,13.165-9.774,0,0-16.975,2.92-20.262-.544,0,0-2.509-9.581-.65-10.145,0,0,10.385-9.235,14.085-9.75,0,0-18.485,1.96-23.024-.617,0,0-2.8-10.2.345-12.881,0,0,1.609-2.719,10.353-8.008,0,0-16.918.774-20.262-.544,0,0-1.455-4.569-.742-7.456a3.191,3.191,0,0,1,.988-1.744A120.193,120.193,0,0,1,90.908,169.23s-13.858-.615-18.823-1.884a5.712,5.712,0,0,1-1.39-.5c-2.722-1.607-1.363-6.481.2-7.36,0,0,40.549.167,43.336-.679,0,0,2.026,4.658-.221,8.28,0,0-13.988,6.07-23.395,13.183,0,0,7.716-1.327,30.466-1.945,0,0,3.553,5.006.675,9.225,0,0-17.454,9.353-24.34,14.079,0,0,22.493-2.466,28.576-.155,0,0,2.591,6.515.675,9.225,0,0-10.594,5.547-16,12.461,0,0,21.5.27,23,1.538,0,0,2.906,6.216.675,9.225,0,0-14.31,6.674-17.745,8.731,0,0,16.77,4.746,21.833,10.713C138.426,253.367,140.37,261.092,128.1,260.455Z"/>
  <path id="left_antennae_base_copy" data-name="left antennae base copy" class="cls-3" d="M229.029,260.968s17.68-13.155,25.833-14.487c0,0,2.473-5,1.941-6.876,0,0-8.411-8.944-12.388-10.106,0,0,16.334,2.881,19.548-.725,0,0,2.774-9.78,1.119-10.39,0,0-9.2-9.9-12.75-10.608,0,0,17.108,2.812,21.229.406,0,0,2.922-10,.345-12.89,0,0-1.266-2.846-8.806-8.992,0,0,14.772,2.365,17.623,1.377,0,0,1.419-4.3.971-7.183a3.6,3.6,0,0,0-.73-1.8,124.06,124.06,0,0,0-12.312-13.416s11.908,1.4,16.037.864a3.756,3.756,0,0,0,1.145-.286c2.251-1.154,1.4-6.013.19-7.1,0,0-36-6.852-38.71-8.293,0,0-2.285,4.6-.238,8.88,0,0,13.112,8.595,21.277,17.1,0,0-6.905-2.32-29.085-6.12,0,0-4,4.978-1.226,9.975,0,0,16.862,11.8,23.063,17.245,0,0-21.81-4.384-28.332-2.363,0,0-3.169,7.05-1.261,10.184,0,0,10.749,6.569,15.788,14.14,0,0-22.54-.086-24.29,1.324,0,0-3.657,7.068-1.315,10.481,0,0,15.112,7.117,18.546,9.24,0,0-18.265,6.057-24.4,13.23C217.844,253.783,215.1,262.9,229.029,260.968Z"/>
  <path id="left_ear_base_fuzzy" data-name="left ear base fuzzy" class="cls-3" d="M120.222,141.475c-7.641,7.026-11.925,18.82-25.409,19.573-0.414,1.829-.36,1.812-0.995,2.736l-0.025.92-14.761.525c-3.906,1.363-7.837,5.6-13.066,6.094-5.571.524-9.808-5.379-13.643-6.811-4.84-1.807-8.827,1.295-12.919.574-1.458-2.373-5.31-4.578-6.275-6.613q-0.35-4.152-.7-8.305l-6.3-5.693c-2.646-5.512,2.148-9.439,1.29-13.776l-3.586-3.779c-2.527-6.173,3.8-12.3,5.969-16.412,5.861-11.13,4.917-25.021,21.848-24.273,0.947-.572.965-0.509,2.788-0.846q0.049-1.84.1-3.68c2.749-1.644,2.745-2.385,7.442-2.562,1.57,0.629,3.354-1.467,6.472-.747,0.708,0.163,3.606,2.654,4.531,2.884l12.943-1.494a50.494,50.494,0,0,0,2.615,5.594c2.061-2.735,4.169-3.857,8.412-4.378,3.6,3.916,14.025,13.586,16.111,17.925,1.653,3.439.018,6.286,1.595,9.249l3.61,2.859c1.728,4.431-1.358,11.254-2.235,14.671C118.627,130.966,119.381,134.753,120.222,141.475Z"/>
  <path id="left_ear_color_fuzzy" data-name="left ear color fuzzy" class="cls-4" d="M67.562,83.237c-0.039,2.272-.771,3.114-0.9,5.132l0.256,0.007,0.007-.258a2.179,2.179,0,0,0,.525-0.5c0.78-.5,1.283-0.462,1.575-1.5a7,7,0,0,0,1.81-.725l0.007-.258,2.3,0.062L73.6,87.008l0.5,0.271-0.035,1.288,0.256,0.007a5.228,5.228,0,0,1,2.341-1.484L77.176,87.1l0.794-1.01,0.518-.244,0.007-.258,0.511,0.014,0.007-.258,0.511,0.014,0.532-.759,2.562-.189a2.06,2.06,0,0,1-.539,1.017l-0.255-.007-0.283,1.024-0.518.244-0.276.766-0.255-.007a1.894,1.894,0,0,0-.546,1.274L81.99,88.78,82,88.522l0.255,0.007-0.007.258,1.278,0.034-0.007.258,0.511,0.014-0.007.258L85.3,89.384q0,0.129-.007.258L85.8,89.655l-0.007.258c1.061,0.609,1.46.149,1.485,1.844-0.711.167-.574,0.057-0.787,0.752L86.238,92.5c-0.311.522,0.574,2.272,0.7,2.339l0.766,0.02A7.256,7.256,0,0,0,88.5,94.11c0.484-.532.219-1.708,0.573-2.3l1.305-1,0.014-.515,1.043-.745,0.014-.515,0.518-.244q0.007-.257.014-0.515l0.256,0.007,0.276-.766c0.711-.167.574-0.057,0.787-0.752,1.158-.27,1.411-1.081,2.845-1.213a5.237,5.237,0,0,1-1.07,1.776L94.788,88.35c-0.519.74-.814,0.083-1.063,1.518l6.147-.351-0.007.258,1.519,0.556c-0.007.258-.013,0.515-0.02,0.773-0.64.375-.168,0.309-0.532,0.759l-0.518.244c0,0.086,0,.172-0.007.258-1.121.783-2.69,0.714-3.128,2.236l0.255,0.007a3.12,3.12,0,0,0,2.541.584l0.007-.258,1.534,0.041c0,0.086,0,.172-0.007.257l0.511,0.014c0,0.086-.005.172-0.007,0.258l0.767,0.02c0.472,0.205,1.241.588,1.768,0.821q0.117,0.39.235,0.78c-0.666.4-.976,1.344-1.582,1.762l-0.511-.014-0.532.759-0.511-.014c0,0.086,0,.172-0.007.258a0.916,0.916,0,0,0-.531.759l0.255,0.007a3.534,3.534,0,0,0,3.053.6c0-.086,0-0.172.007-0.258l1.788,0.048c0-.086,0-0.172.007-0.258,1.179-.3,1.965.41,2.8,0.591l-0.006.258-0.256-.007c-0.616.98-.827,0.473-1.561,0.989a6.078,6.078,0,0,1-.531.759c0.132,0.522-.037.222,0.241,0.522,0.519,2.314,3.184,2.5,3.447,4.991-0.3.286-.1,0-0.27,0.508l-2.562.189a3.3,3.3,0,0,0-.29,1.282,0.45,0.45,0,0,1,.249.264,10.193,10.193,0,0,1,2.535.841c1.687,0.574,2.6-.458,3.549,1.127a0.444,0.444,0,0,1,.249.264,2.943,2.943,0,0,0-3.142,2.752,5.005,5.005,0,0,0,1.5,1.071,5.011,5.011,0,0,0,1.23,1.838l0.255,0.007q0.1,1.163.194,2.325l-3.066-.082c0,0.086,0,.172-0.007.257a6.43,6.43,0,0,1-2.058.461l-0.021.773,1.754,1.336,0.491,0.786c0.988,0.591,1.073-.576,1.25,1.065l-0.256-.007q0.108,0.775.214,1.552l-0.255-.006c-0.005.171-.009,0.343-0.014,0.515a5.1,5.1,0,0,0-3.108,1.463l-0.255-.007c0,0.086,0,.172-0.007.258l0.255,0.007c0.656,0.585,1.624.234,2.542,0.584,0,0.086,0,.171-0.007.257l0.767,0.021c0,0.086,0,.172-0.007.257l0.511,0.014c0,0.086,0,.172-0.007.258l0.767,0.02,0.241,0.522c0.777,0.552,1.126.345,1.237,1.58-0.5.242-1.069,0.805-1.561,0.99l-2.307.2c0,0.085-.005.171-0.007,0.257l-0.511-.014a2.86,2.86,0,0,1-.525.5c0.078,0.26.157,0.52,0.235,0.78a15.53,15.53,0,0,0,1.761,1.078l1.278,0.034c0,0.086,0,.172-0.007.258l0.5,0.271c0,0.172-.009.344-0.014,0.515l2,1.6c-0.645,2.191-3.639,1.491-5.683,2.168,0.132,0.521-.037.222,0.241,0.522s0,0.1.5,0.271a7.6,7.6,0,0,1-.3,1.8l-0.511-.013-0.27.508-0.773.237-0.048,1.8,0.255,0.007a9.152,9.152,0,0,1-.352,3.6l-0.773.237c-0.2-1.321-.807-2.15-0.926-3.634L106,147.17l-0.276.766-0.256-.007c-0.005.172-.009,0.343-0.014,0.515l-0.518.244q-0.144.641-.29,1.281l-0.78.5-0.021.773-0.255-.007c-0.005.171-.01,0.343-0.014,0.515l-0.256-.007c-0.485,1.066.525,1.1-1.056,1.261,0-.086,0-0.172.007-0.258l-1.534-.041-0.974-1.831-1.022-.027a2.3,2.3,0,0,1-.525.5l-0.3,1.539-0.255-.007-0.055,2.061-0.255-.007-0.559,1.79-1.278-.034c-0.464-.858-1.221-1.258-1.471-2.36l-0.511-.014-0.242-.522-1.022-.027c-0.1.553-.266,0.5-0.269,0.508q-0.031,1.16-.062,2.319l-0.256-.007q-0.021.773-.041,1.545l-0.256-.006c-0.007.257-.014,0.515-0.021,0.772l-0.256-.006L91.1,159.4l-0.255-.007-0.035,1.288-0.255-.007-0.007.258-0.767-.021c-0.4-.734-1.007-0.9-1.23-1.837l-2.293-.32a3.617,3.617,0,0,1-3.384,2.23l-0.235-.78c-0.283-.3-0.1,0-0.242-0.522-0.883.223-.487,0.316-1.043,0.745l-0.007.258-3.066-.082-0.007.257-0.511-.013-0.269.508-1.029.23-0.269.509-0.511-.014-0.532.759-0.511-.014-0.269.509-2.832.7-0.269.508-0.511-.013-0.007.257-0.511-.013c0,0.086,0,.171-0.007.257l-0.511-.013-0.007.257-0.511-.014q0,0.129-.007.258l-0.511-.014-0.269.509-2.562.189-0.269.508-0.76-.278,0.007-.258a0.439,0.439,0,0,0-.518.244l-1.533-.041a3.441,3.441,0,0,1,.808-1.525l0.256,0.007,0.021-.773,0.256,0.007,0.276-.766,0.256,0.007-0.242-.522-4.372.914,0.007-.258-0.767-.021-0.242-.522-1.278-.034,0.007-.257c-0.786-.259-1.746-0.1-2.293-0.32l0.276-.766a1.719,1.719,0,0,0,.787-0.752,7.832,7.832,0,0,0-2.549-.326l0.041-1.546c-2.754-.1-3.654,1.274-6.174,1.381a3.291,3.291,0,0,1-.221-1.3c-1.626.14-4.528,3.011-5.684,2.168a0.448,0.448,0,0,1-.248-0.264c0.842-.463,1.028-1.249,1.588-2.02l0.781-.5,0.021-.773-4.842-.645,0.007-.258-0.511-.013-0.242-.522-0.76-.279,0.021-.772,0.78-.5,0.007-.258,0.511,0.014,0.007-.258,0.511,0.014,0.007-.257,0.767,0.02,0.007-.257,0.767,0.02q0-.129.007-0.258l0.774-.237,0.021-.772-1.52-.557c0-.086,0-0.172.007-0.257l-1.789-.048,0.007-.258-0.511-.014-0.739-1.051-0.511-.013,0.007-.258-0.5-.271q0.01-.387.021-0.773a1.475,1.475,0,0,0,.546-1.275L36.19,147.1l0.007-.258-0.767-.02-0.242-.523-1.52-.556,0.007-.257a3.744,3.744,0,0,0-1.506-1.072c-0.206-.873-0.3-0.512-0.739-1.051l-0.256-.007c-0.31-.508.152-0.728-0.477-1.3a0.448,0.448,0,0,1,.263-0.25c0.3-.286,0-0.1.518-0.244a2.8,2.8,0,0,0-.718-1.824l-0.256-.007,0.014-.515-0.753-.536c-0.044-.082-0.167-0.883-0.228-1.037l0.511,0.013-0.007.258,1.022,0.027q0,0.129-.007.258a4.08,4.08,0,0,0,1.782.306,2.75,2.75,0,0,0,.283-1.024,3.238,3.238,0,0,1-.49-0.787l-0.255-.006,0.014-.516-0.5-.271a8.824,8.824,0,0,0-.739-1.051l0.552-1.532,0.511,0.014,0.552-1.532,0.511,0.014c-0.01-1.3-.485-1.74-0.691-2.855l-0.511-.013-0.242-.522-0.76-.279-0.235-.779-1.747-1.594a11.355,11.355,0,0,1-1.43-3.905l0.767,0.02-0.014.516c0.7,0.2.57,0.087,0.746,0.793a13.177,13.177,0,0,0,1.775.563,6.986,6.986,0,0,0,.318-2.311c-1.335-1.367-.487-5.693.193-7.214,0.6,0.309,1.126.812,1.52,0.557l0.255,0.007q0.017-.645.034-1.288a2.36,2.36,0,0,0,.525-0.5,4.528,4.528,0,0,0,2.286.577l0.014-.515,0.256,0.007-1.471-2.36q0.038-1.416.076-2.834l-0.256-.007,0.007-.257,0.256,0.007,0.021-.773,0.78-.495q0.034-1.287.069-2.576l0.518-.244,0.276-.766,0.255,0.007,0.021-.773,0.256,0.007c0-.172.009-0.343,0.014-0.515l0.256,0.007c0-.172.009-0.344,0.014-0.515l0.518-.244,0.29-1.281,0.256,0.007,0.014-.515,0.781-.495,0.014-.515,0.78-.495,0.007-.258a2.481,2.481,0,0,1,1.036-.488l0.007-.258,1.526,0.3,0.276-.766c0.8-.737.172-0.977,0.566-2.047l0.255,0.007,0.021-.773,0.255,0.007,0.014-.515L44.3,92.667c0.474-.971.128-1.459,1.326-1.769a1.451,1.451,0,0,1,1.291-.481l0.677,3.369L48.1,93.8c0.258-.31.84-0.485,1.043-0.745l0.014-.515,0.518-.244,0.794-1.01L50.98,91.3l0.532-.759,1.029-.23q0-.129.007-0.258L54.337,90.1l-0.918,5.647,0.767,0.021A11.02,11.02,0,0,1,55.5,94.514l0.276-.766,0.511,0.014L56.816,93l0.511,0.014,0.269-.508c0.606-.417.451,0.287,0.787-0.752a5.166,5.166,0,0,0,.331-2.827,10.61,10.61,0,0,1,.4-5.4l0.774-.237L60.525,88.2l0.255,0.007c0.3-.286,0-0.1.518-0.244,0.408-1.514,1.633-2.06,1.892-3.816l0.773-.237a0.371,0.371,0,0,0,.5.271l0.269-.508,2.32-.711-0.007.258Zm15.567,1.191-0.511-.014,0.007-.258,0.256,0.007q0-.129.007-0.258C83.171,84.207,82.989,83.909,83.129,84.428Zm15.79,40.639-0.021.773,1.5,1.329,0.241,0.522,0.767,0.021,0.242,0.522,0.511,0.014q0.12,0.261.242,0.522l0.759,0.278c0-.086.005-0.172,0.007-0.258,0.5-.31.431-0.25,0.539-1.016l0.511,0.013c0-.172.009-0.343,0.014-0.515l-0.753-.536c0-.086,0-0.172.007-0.257l-1.271-.292c0-.086,0-0.172.007-0.258l-0.511-.014c0-.085,0-0.171.007-0.257l-0.767-.021c0-.086,0-0.172.007-0.257A4.913,4.913,0,0,0,98.92,125.067Z"/>
  <path id="left_ear_color_fuzzy_shadow" data-name="left ear color fuzzy shadow" class="cls-5" d="M65.913,83.316l1.145-.351-0.007.258,0.511,0.014c0,0.09-.01.164-0.014,0.249Zm-6.965,5.877-0.207-.006c-0.007-.09-0.015-0.18-0.025-0.258a10.61,10.61,0,0,1,.4-5.4l0.774-.237L60.357,86.9A16.727,16.727,0,0,1,58.948,89.193Zm-0.564,2.563a0.725,0.725,0,0,0,.07-0.114l0.371,2.151-1.842-.049-0.049,1.84-2.545-.068c0.367-.419.814-0.625,1.108-1l0.276-.766,0.511,0.014L56.816,93l0.511,0.014,0.269-.508C58.2,92.091,58.047,92.8,58.384,91.756Zm-6.952,2.76-0.025.92-0.921-.025-0.074,2.76L47.65,98.1q-0.024.92-.049,1.84c-1.853.5-.789-0.149-1.867,0.87l-0.921-.024q-0.037,1.38-.074,2.76l2.738,0.994-0.025.92-3.684-.1q-0.074,2.76-.148,5.52c0.045,0.235,1.171.334,0.872,1.865l-0.921-.025-1.118,7.336L44.3,120.1a9.747,9.747,0,0,1-1.019,3.656c1.4,0.7,3.2,1.167,3.61,2.859l-0.921-.025-0.025.92,4.605,0.124,0.847,2.784,1.842,0.05-0.995,2.735,4.58,1.044-0.995,2.735,5.526,0.148q0.012-.459.025-0.92l0.921,0.025-1.044,4.576,2.763,0.074q-0.012.459-.025,0.92c0.719,0.405,2.03,1.722,3.659,1.019l0.025-.921s3.562,0.187,1.818.97l-0.921-.025-0.074,2.76c2.054-.753,4.013-2.092,5.551-0.772L74,146.68l2.788-.846s-0.024.565,1.817,0.969l0.995-2.735,1.842,0.049-0.049,1.84c2.525-.634,2.1-0.162,2.837-2.686,1.824,0.6.8-.106,1.817,0.97l2.763,0.074,0.025-.92,0.921,0.024q0.037-1.379.074-2.76l6.472-.747-0.025.92,4.58,1.044q0.038-1.38.074-2.76l-0.921-.025q0.025-.919.05-1.84a8.992,8.992,0,0,0,3.659,1.019q0.037-1.38.074-2.76l7.343,1.117c0-.01,0-0.021,0-0.032a4.157,4.157,0,0,0,.761.421l1.278,0.034c0,0.086,0,.172-0.007.258l0.5,0.271c0,0.172-.009.344-0.014,0.515l2,1.6c-0.645,2.191-3.639,1.491-5.683,2.168,0.132,0.521-.037.222,0.241,0.522s0,0.1.5,0.271a7.6,7.6,0,0,1-.3,1.8l-0.511-.013-0.27.508-0.773.237-0.048,1.8,0.255,0.007a9.152,9.152,0,0,1-.352,3.6l-0.773.237c-0.2-1.321-.807-2.15-0.926-3.634L106,147.17l-0.276.766-0.256-.007c-0.005.172-.009,0.343-0.014,0.515l-0.518.244q-0.144.641-.29,1.281l-0.78.5-0.021.773-0.255-.007c-0.005.171-.01,0.343-0.014,0.515l-0.256-.007c-0.485,1.066.525,1.1-1.056,1.261,0-.086,0-0.172.007-0.258l-1.534-.041-0.974-1.831-1.022-.027a2.3,2.3,0,0,1-.525.5l-0.3,1.539-0.255-.007-0.055,2.061-0.255-.007-0.559,1.79-1.278-.034c-0.464-.858-1.221-1.258-1.471-2.36l-0.511-.014-0.242-.522-1.022-.027c-0.1.553-.266,0.5-0.269,0.508q-0.031,1.16-.062,2.319l-0.256-.007q-0.021.773-.041,1.545l-0.256-.006c-0.007.257-.014,0.515-0.021,0.772l-0.256-.006L91.1,159.4l-0.255-.007-0.035,1.288-0.255-.007q0,0.129-.007.258l-0.767-.021c-0.4-.734-1.007-0.9-1.23-1.837l-2.293-.32a3.617,3.617,0,0,1-3.384,2.23l-0.235-.78c-0.283-.3-0.1,0-0.242-0.522-0.883.223-.487,0.316-1.043,0.745l-0.007.258-3.066-.082-0.007.257-0.511-.013-0.269.508-1.029.23-0.269.509-0.511-.014-0.532.759-0.511-.014-0.269.509-2.832.7-0.269.508-0.511-.013-0.007.257-0.511-.013c0,0.086,0,.171-0.007.257l-0.511-.013-0.007.257-0.511-.014q0,0.129-.007.258l-0.511-.014-0.269.509-2.562.189-0.269.508-0.76-.278,0.007-.258a0.439,0.439,0,0,0-.518.244l-1.533-.041a3.441,3.441,0,0,1,.808-1.525l0.256,0.007,0.021-.773,0.256,0.007,0.276-.766,0.256,0.007-0.242-.522-4.372.914,0.007-.258-0.767-.021-0.242-.522-1.278-.034,0.007-.257c-0.786-.259-1.746-0.1-2.293-0.32l0.276-.766a1.719,1.719,0,0,0,.787-0.752,7.832,7.832,0,0,0-2.549-.326l0.041-1.546c-2.754-.1-3.654,1.274-6.174,1.381a3.291,3.291,0,0,1-.221-1.3c-1.626.14-4.528,3.011-5.684,2.168a0.448,0.448,0,0,1-.248-0.264c0.842-.463,1.028-1.249,1.588-2.02l0.781-.5,0.021-.773-4.842-.645,0.007-.258-0.511-.013-0.242-.522-0.76-.279,0.021-.772,0.78-.5,0.007-.258,0.511,0.014,0.007-.258,0.511,0.014,0.007-.257,0.767,0.02,0.007-.257,0.767,0.02q0-.129.007-0.258l0.774-.237,0.021-.772-1.52-.557c0-.086,0-0.172.007-0.257l-1.789-.048,0.007-.258-0.511-.014-0.739-1.051-0.511-.013,0.007-.258-0.5-.271q0.01-.387.021-0.773a1.475,1.475,0,0,0,.546-1.275L36.19,147.1l0.007-.258-0.767-.02-0.242-.523-1.52-.556,0.007-.257a3.744,3.744,0,0,0-1.506-1.072c-0.206-.873-0.3-0.512-0.739-1.051l-0.256-.007c-0.31-.508.152-0.728-0.477-1.3a0.448,0.448,0,0,1,.263-0.25c0.3-.286,0-0.1.518-0.244a2.8,2.8,0,0,0-.718-1.824l-0.256-.007,0.014-.515-0.753-.536c-0.044-.082-0.167-0.883-0.228-1.037l0.511,0.013-0.007.258,1.022,0.027q0,0.129-.007.258a4.08,4.08,0,0,0,1.782.306,2.75,2.75,0,0,0,.283-1.024,3.238,3.238,0,0,1-.49-0.787l-0.255-.006,0.014-.516-0.5-.271a8.824,8.824,0,0,0-.739-1.051l0.552-1.532,0.511,0.014,0.552-1.532,0.511,0.014c-0.01-1.3-.485-1.74-0.691-2.855l-0.511-.013-0.242-.522-0.76-.279-0.235-.779-1.747-1.594a11.355,11.355,0,0,1-1.43-3.905l0.767,0.02-0.014.516c0.7,0.2.57,0.087,0.746,0.793a13.177,13.177,0,0,0,1.775.563,6.986,6.986,0,0,0,.318-2.311c-1.335-1.367-.487-5.693.193-7.214,0.6,0.309,1.126.812,1.52,0.557l0.255,0.007q0.017-.645.034-1.288a2.36,2.36,0,0,0,.525-0.5,4.528,4.528,0,0,0,2.286.577l0.014-.515,0.256,0.007-1.471-2.36q0.038-1.416.076-2.834l-0.256-.007,0.007-.257,0.256,0.007,0.021-.773,0.78-.495q0.034-1.287.069-2.576l0.518-.244,0.276-.766,0.255,0.007,0.021-.773,0.256,0.007c0-.172.009-0.343,0.014-0.515l0.256,0.007c0-.172.009-0.344,0.014-0.515l0.518-.244,0.29-1.281,0.256,0.007,0.014-.515,0.781-.495,0.014-.515,0.78-.495,0.007-.258a2.481,2.481,0,0,1,1.036-.488l0.007-.258,1.526,0.3,0.276-.766c0.8-.737.172-0.977,0.566-2.047l0.255,0.007,0.021-.773,0.255,0.007,0.014-.515L44.3,92.667c0.474-.971.128-1.459,1.326-1.769a1.451,1.451,0,0,1,1.291-.481l0.677,3.369L48.1,93.8c0.258-.31.84-0.485,1.043-0.745l0.014-.515,0.518-.244,0.794-1.01L50.98,91.3l0.532-.759,1.029-.23q0-.129.007-0.258L54.337,90.1l-0.727,4.474Zm60.6,36.06h0.036l0,0.105Zm-3.514.458,3.684,0.1-0.09-.3,0.46,0.012c0,0.086,0,.172-0.007.258l0.767,0.02,0.241,0.522c0.777,0.552,1.126.345,1.237,1.58-0.5.242-1.069,0.805-1.561,0.99l-2.056.174c0.005-.174.009-0.349,0.014-0.524l-2.738-.994Q108.495,131.954,108.52,131.033Z"/>
  <path id="right_ear_color_base" data-name="right ear color base" class="cls-3" d="M336.662,129c-0.152,5.772-5.571,7.8-6.579,11.788q0.685,2.115,1.36,4.192c-0.4,5.714-7.465,8.851-10.542,11.463-8.052,6.837-11.57,16.857-23.771,12.346a4.846,4.846,0,0,1-2.3-.074l-1.026,2.536c-2.449.485-2.631,1-6.154,0.015-1.018-.805-2.844.221-5.007-1.011-0.494-.281-2.113-2.72-2.764-3.106l-10.236-2.083a38.7,38.7,0,0,0-.914-4.738c-2.16,1.5-4.028,1.8-7.461,1.121-2.16-3.838-9.011-14.175-10.045-18.318-0.84-3.366,1.041-5.331.183-8.373l-2.682-3.624c-0.8-4.571,3.146-10.01,4.566-13.024-1.422-6.079-1.428-10.211-.96-17.618,8.833-4.9,15.834-16.811,29.283-12.405,0.943-1.974.885-1.975,1.781-2.813q0.15-.538.3-1.079l14.412,5.158c4.189-.066,9.489-3.48,14.634-2.008,5.44,1.557,6.934,9.849,9.822,12.831,3.579,3.694,8.449,1.8,11.751,4.042,0.227,3.02,2.589,6.641,2.517,9.039q-1.517,4.275-2.983,8.408Z"/>
  <path id="right_ear_color_fuzzy" data-name="right ear color fuzzy" class="cls-4" d="M284.444,167.07c0.57-1.611,1.33-2.038,1.922-3.465l-0.194-.068-0.068.186a1.737,1.737,0,0,0-.523.234c-0.718.173-1.092,0.018-1.564,0.7a5.872,5.872,0,0,0-1.553.078c-0.022.062-.043,0.123-0.065,0.184l-1.746-.61q0.03-.714.061-1.435l-0.326-.324,0.324-.937-0.2-.07a4.233,4.233,0,0,1-2.152.506l-0.393-.138-0.84.543-0.455.049c-0.021.062-.042,0.125-0.062,0.187l-0.393-.137c-0.021.062-.041,0.124-0.062,0.186l-0.393-.137-0.576.422-2.028-.5a1.486,1.486,0,0,1,.635-0.611l0.2,0.069c0.146-.228.293-0.455,0.44-0.683l0.456-.05q0.192-.248.382-0.5l0.2,0.069a1.388,1.388,0,0,0,.706-0.808l-1.588-.56c-0.021.063-.041,0.127-0.062,0.191l-0.2-.07c0.021-.064.041-0.128,0.062-0.191l-1-.351c0.021-.064.041-0.128,0.061-0.192l-0.4-.141,0.06-.192-1-.353,0.06-.192-0.4-.142,0.06-.193c-0.713-.736-1.126-0.489-0.79-1.789,0.6,0.057.468,0.106,0.786-.372l0.2,0.072c0.36-.32.028-1.906-0.062-1.993l-0.611-.219a5.6,5.6,0,0,0-.792.378c-0.5.285-.533,1.264-0.94,1.631l-1.248.424c-0.038.13-.077,0.26-0.116,0.391l-0.982.3-0.114.389-0.461.052c-0.038.129-.076,0.258-0.113,0.387l-0.2-.071c-0.124.17-.247,0.34-0.371,0.509-0.6-.056-0.467-0.1-0.772.366-0.973-.094-1.329.453-2.5,0.185a3.683,3.683,0,0,1,1.189-1.067l0.423-.706c0.558-.43.667,0.148,1.146-0.884l-5.015-1.338c0.018-.066.036-0.132,0.053-0.2l-1.13-.833c0.052-.2.105-0.4,0.157-0.6,0.59-.123.194-0.2,0.572-0.453l0.467-.053,0.054-.2c1.06-.317,2.324.157,2.975-0.926l-0.208-.074a2.949,2.949,0,0,0-1.967-1.149l-0.054.2-1.251-.448,0.054-.2-0.418-.149c0.018-.068.036-0.137,0.053-0.2l-0.628-.225c-0.352-.293-0.918-0.812-1.312-1.144l-0.054-.7c0.625-.137,1.058-0.825,1.639-1l0.423,0.153,0.585-.474,0.423,0.153,0.054-.209a0.686,0.686,0,0,0,.588-0.476l-0.211-.077a3.39,3.39,0,0,0-2.44-1.348l-0.054.211-1.493-.542c-0.017.07-.035,0.141-0.052,0.212-1.045-.087-1.582-0.9-2.253-1.283l0.051-.214,0.215,0.079c0.7-.649.784-0.162,1.5-0.387a4.379,4.379,0,0,1,.588-0.488c-0.017-.479.072-0.177-0.109-0.51-0.016-2.121-2.264-3.054-2.042-5.3,0.31-.162.087,0.031,0.325-0.366l2.247,0.592a2.7,2.7,0,0,0,.492-1.037,0.483,0.483,0,0,1-.165-0.307,10.579,10.579,0,0,1-2.043-1.5c-1.367-1.02-2.35-.373-2.9-2.082a0.506,0.506,0,0,1-.172-0.314c1.578,0.483,2.778,0,3.269-1.536a5.626,5.626,0,0,0-1.131-1.447,5.714,5.714,0,0,0-.754-2.086l-0.227-.086q0.126-1.117.255-2.246l2.734,1.052c0.019-.08.037-0.16,0.056-0.241a5.583,5.583,0,0,1,1.929.219c0.057-.24.115-0.48,0.172-0.721l-1.309-1.83c-0.1-.3-0.191-0.607-0.287-0.911-0.779-.889-1.082.206-0.924-1.433l0.231,0.09q0.054-.787.109-1.58l0.232,0.091,0.114-.5a4.144,4.144,0,0,0,3.13-.41l0.231,0.091,0.06-.251-0.232-.091c-0.476-.794-1.434-0.769-2.2-1.421,0.02-.084.039-0.169,0.059-0.253l-0.7-.277c0.02-.085.039-0.17,0.059-0.254l-0.468-.185c0.019-.085.038-0.17,0.058-0.255l-0.7-.278-0.12-.605c-0.611-.819-0.975-0.728-0.836-2.017,0.51-.076,1.154-0.453,1.65-0.473l2.183,0.589,0.06-.26,0.471,0.189a2.305,2.305,0,0,1,.593-0.331c-0.018-.292-0.036-0.585-0.053-0.877a18.6,18.6,0,0,0-1.416-1.719l-1.19-.479c0.02-.088.04-0.177,0.059-0.265l-0.417-.458c0.039-.178.079-0.355,0.118-0.533l-1.568-2.39c1.062-2.1,3.762-.287,5.843-0.278a0.677,0.677,0,0,0-.113-0.641c-0.2-.423.024-0.109-0.419-0.47a8.483,8.483,0,0,1,.686-1.82l0.484,0.2,0.371-.451,0.791,0.023q0.228-.967.459-1.942l-0.243-.1a10.933,10.933,0,0,1,1.178-3.85l0.8,0.024c-0.118,1.547.264,2.685,0.026,4.355l0.968,0.4,0.447-.734,0.242,0.1,0.138-.559,0.554-.077q0.294-.65.591-1.3l0.87-.258q0.107-.424.214-0.849l0.243,0.1c0.048-.189.1-0.379,0.143-0.568l0.244,0.1c0.738-1.009-.227-1.423,1.337-1.013-0.024.1-.048,0.191-0.073,0.286l1.461,0.619q0.225,1.2.45,2.388L275,98.121a2.033,2.033,0,0,1,.631-0.358l0.7-1.59,0.241,0.1q0.306-1.135.614-2.28l0.243,0.1,1.034-1.808,1.217,0.523c0.2,1.142.811,1.875,0.736,3.2l0.482,0.205c0.027,0.223.053,0.446,0.08,0.668l0.96,0.408c0.25-.576.395-0.453,0.4-0.462q0.365-1.274.733-2.56l0.241,0.1,0.5-1.726,0.242,0.1c0.083-.289.167-0.579,0.25-0.869l0.243,0.105,0.168-.581,0.242,0.105q0.212-.728.423-1.461l0.244,0.106c0.028-.1.056-0.2,0.085-0.293l0.73,0.318c0.16,1,.686,1.419.611,2.564l2.08,1.226c1.018-1.132,2.179-1.915,3.917-1.239-0.01.324-.021,0.647-0.031,0.97,0.169,0.446.095,0.043,0.058,0.678,0.9,0.081.562-.172,1.227-0.446,0.03-.1.061-0.192,0.091-0.287l2.857,1.245c0.031-.1.062-0.191,0.094-0.286l0.474,0.207,0.426-.469,1.043,0.128,0.428-.47,0.475,0.208,0.763-.654,0.474,0.208,0.432-.472,2.9,0.282,0.437-.473,0.472,0.209c0.034-.1.068-0.193,0.1-0.289l0.473,0.209c0.033-.1.067-0.192,0.1-0.289l0.472,0.209,0.1-.289,0.472,0.209,0.1-.289,0.472,0.209,0.442-.474,2.459,0.757L311.3,92.8l0.6,0.6-0.106.288a0.408,0.408,0,0,0,.575-0.08l1.4,0.624a4.126,4.126,0,0,1-1.338,1.406l-0.233-.1-0.315.853-0.233-.1-0.546.747-0.232-.1L310.9,97.6l4.354,0.606c-0.036.093-.072,0.187-0.107,0.281l0.69,0.3,0.015,0.66,1.147,0.5-0.108.278c0.608,0.567,1.54.739,1.945,1.179l-0.554.726a1.753,1.753,0,0,0-1,.525,6.6,6.6,0,0,0,2.156,1.262q-0.326.813-.649,1.623c2.4,1.081,3.759-.051,6.033.727a4.332,4.332,0,0,1-.337,1.433c1.486,0.422,5.243-1.562,5.9-.272a0.472,0.472,0,0,1,.1.363c-0.933.187-1.429,0.939-2.242,1.542l-0.888.24-0.339.788,3.924,2.316c-0.038.086-.076,0.172-0.115,0.258l0.434,0.187q-0.006.3-.013,0.609l0.534,0.536q-0.173.384-.344,0.766l-0.876.232c-0.038.085-.075,0.17-0.113,0.254l-0.432-.184-0.113.254-0.432-.185c-0.037.085-.075,0.17-0.112,0.254l-0.648-.277-0.113.255-0.648-.278c-0.037.085-.074,0.17-0.112,0.255l-0.76-.023c-0.111.254-.221,0.507-0.332,0.76l1.072,1.054-0.111.251,1.5,0.637-0.111.25,0.427,0.181q0.1,0.635.193,1.265l0.426,0.18-0.112.247,0.313,0.426c-0.111.246-.223,0.491-0.334,0.736a1.7,1.7,0,0,0-.977,1.044l0.413,0.751c-0.037.081-.073,0.162-0.11,0.242l0.631,0.264c0,0.191-.007.381-0.01,0.571l1.036,1c-0.037.08-.073,0.16-0.11,0.239a3.136,3.136,0,0,0,.808,1.472c-0.186.872,0.036,0.567,0.18,1.2l0.207,0.085c0.047,0.563-.42.622-0.138,1.341a0.46,0.46,0,0,1-.316.148c-0.359.168-.044,0.092-0.521,0.063a2.83,2.83,0,0,0-.145,1.872l0.2,0.084q-0.109.229-.217,0.459l0.4,0.707c0,0.087-.217.838-0.228,0.993l-0.408-.166,0.108-.227-0.816-.332,0.107-.228a0.983,0.983,0,0,0-1.957.019,3.02,3.02,0,0,1,.092.848l0.2,0.083c-0.07.151-.141,0.3-0.211,0.452,0.1,0.131.2,0.261,0.3,0.391a7.859,7.859,0,0,0,.188,1.145q-0.519.588-1.034,1.175l-0.405-.163-1.025,1.168-0.4-.162a12.094,12.094,0,0,0-.519,2.65l0.4,0.159,0,0.512,0.5,0.453c-0.035.242-.071,0.483-0.106,0.724q0.393,0.916.782,1.826a10.077,10.077,0,0,1-.33,3.6l-0.587-.228c0.067-.138.133-0.277,0.2-0.415-0.47-.361-0.411-0.229-0.29-0.855a9.592,9.592,0,0,0-1.18-.957,6.913,6.913,0,0,0-1.086,1.806c0.545,1.474-1.644,4.7-2.695,5.711-0.353-.4-0.584-0.938-0.975-0.842l-0.194-.074-0.468,1a2.173,2.173,0,0,0-.573.253,3.375,3.375,0,0,0-1.564-1.062l-0.184.4-0.195-.074q0.173,1.121.341,2.23l-1,2.157,0.192,0.072-0.09.194-0.192-.071-0.269.582-0.753.174-0.882,1.921-0.469.05c-0.15.168-.3,0.335-0.451,0.5l-0.191-.07c-0.086.19-.173,0.38-0.259,0.569l-0.191-.069-0.172.378-0.19-.069c-0.057.126-.115,0.252-0.172,0.377l-0.465.05q-0.309.436-.615,0.871l-0.19-.069c-0.056.125-.113,0.25-0.169,0.374l-0.736.168-0.168.373-0.734.167c-0.028.062-.056,0.124-0.083,0.186a2.138,2.138,0,0,1-.922.1l-0.083.186q-0.525-.3-1.054-0.6l-0.434.489c-0.817.337-.417,0.665-1.025,1.341l-0.189-.068-0.24.551-0.188-.068-0.16.366L304.4,166c-0.632.579-.515,1.011-1.494,0.94a1.22,1.22,0,0,1-1.1.029l0.447-2.584-0.381-.136c-0.281.161-.768,0.144-0.994,0.283-0.052.123-.1,0.246-0.155,0.368l-0.457.049-0.877.532-0.379-.135-0.608.415-0.835-.086-0.075.183-1.332-.472,2.235-3.887-0.578-.208a9.255,9.255,0,0,1-1.344.595l-0.418.494-0.386-.137q-0.3.211-.608,0.424l-0.386-.138-0.34.3c-0.571.154-.267-0.323-0.8,0.354a3.9,3.9,0,0,0-.989,1.967,7.744,7.744,0,0,1-1.68,3.74l-0.637-.019q0.378-1.806.762-3.643l-0.192-.068c-0.3.132-.029,0.073-0.454,0.048-0.691.986-1.753,1.078-2.381,2.263l-0.64-.019a0.289,0.289,0,0,0-.315-0.314l-0.326.3-1.922-.057,0.066-.181Zm-11.677-4.683,0.395,0.138-0.06.186-0.2-.068-0.06.186C272.689,162.539,272.767,162.8,272.767,162.387Zm-4.224-38.153q0.1-.36.193-0.722l-1.032-1.74q-0.048-.288-0.1-0.577l-0.681-.267-0.1-.579-0.455-.179q-0.051-.291-0.1-0.582l-0.622-.517-0.063.247c-0.515.139-.443,0.1-0.707,0.807l-0.457-.179q-0.061.246-.124,0.492l0.559,0.757c-0.02.081-.041,0.163-0.062,0.244l1.072,0.686-0.063.243,0.453,0.177-0.063.242,0.677,0.264-0.063.241A4.787,4.787,0,0,0,268.543,124.234Z"/>
  <path id="right_ear_color_shadow" data-name="right ear color shadow" class="cls-5" d="M279.018,96.937c-0.148-.43-1.273-0.715-2.388-0.878q0.276-1.028.555-2.063l0.243,0.1,1.034-1.808,0.673,0.289Zm-4.7,3.557a8.988,8.988,0,0,0-3.66-1.019q-0.036,1.38-.074,2.76c-0.35.777-2.857,0.553-1.94,3.631l1.817,0.969q-0.024.919-.049,1.84l-1.842-.049q-0.5,1.367-1,2.735l-0.921-.025c0.263,1.754,1.35,2.48,1.719,4.65l-1.842-.049q0.847,2.784,1.694,5.569l-0.566-.015c-0.016-.1-0.033-0.2-0.05-0.3l-0.681-.267-0.1-.579-0.455-.179q-0.051-.291-0.1-0.582l-0.622-.517-0.063.247c-0.515.139-.443,0.1-0.707,0.807l-0.457-.179q-0.061.246-.124,0.492l0.559,0.757c-0.02.081-.041,0.163-0.062,0.244l1.072,0.686-0.063.243,0.453,0.177-0.063.242,0.677,0.264-0.063.241a4.787,4.787,0,0,0,1.736.942q0.1-.36.193-0.722c-0.215-.361-0.43-0.725-0.646-1.089l1.029,0.028q-0.026.919-.05,1.84l-1.842-.049-0.024.92c-0.059,1.3,1.116-.339.9,0.944q-0.5,1.368-1,2.736l0.921,0.025q-0.024.919-.049,1.84l0.921,0.024c-0.522,1.814-1.023,1.209-2.812,1.766,1.377,2.527,2.533,2.324,2.591,6.515l3.684,0.1a3.67,3.67,0,0,1-1.892,1.791c1.2,1.464,1.955,1.7,4.556,1.964a8.944,8.944,0,0,0-1.019,3.655,23.8,23.8,0,0,1,8.313-.7q-0.51,1.828-1.019,3.656L285.9,149.6l0.024-.92,0.921,0.025-1.044,4.575,1.842,0.05c0.5,1.852-.149.788,0.872,1.865q-0.012.459-.025,0.92c3.02-1.548,4.32,1.082,6.472-.747,4.663,0.277,6.5.242,7.466-3.483l3.66,1.019q0.51-1.827,1.019-3.656a7.137,7.137,0,0,1,2.714,1.915c1.765-1.44,1.972-3.03,2.014-6.391,1.923,1.617.456,1.918,3.611,2.859l1.044-4.576,2.763,0.074,0.147-5.52,0.921,0.025c0.009-.307.017-0.613,0.025-0.92l5.526,0.148c0.008-.307.016-0.613,0.025-0.92l0.921,0.025c1.048-1.735-.6-3.826-0.8-4.625l3.758-2.661a8.14,8.14,0,0,0,.649-3.763l0.558,0.541c-0.037.08-.073,0.16-0.11,0.239a3.136,3.136,0,0,0,.808,1.472c-0.186.872,0.036,0.567,0.18,1.2l0.207,0.085c0.047,0.563-.42.622-0.138,1.341a0.46,0.46,0,0,1-.316.148c-0.359.168-.044,0.092-0.521,0.063a2.83,2.83,0,0,0-.145,1.872l0.2,0.084q-0.109.229-.217,0.459l0.4,0.707c0,0.087-.217.838-0.228,0.993l-0.408-.166,0.108-.227-0.816-.332,0.107-.228a0.983,0.983,0,0,0-1.957.019,3.02,3.02,0,0,1,.092.848l0.2,0.083c-0.07.151-.141,0.3-0.211,0.452,0.1,0.131.2,0.261,0.3,0.391a7.859,7.859,0,0,0,.188,1.145q-0.519.588-1.034,1.175l-0.405-.163-1.025,1.168-0.4-.162a12.094,12.094,0,0,0-.519,2.65l0.4,0.159,0,0.512,0.5,0.453c-0.035.242-.071,0.483-0.106,0.724q0.393,0.916.782,1.826a10.077,10.077,0,0,1-.33,3.6l-0.587-.228c0.067-.138.133-0.277,0.2-0.415-0.47-.361-0.411-0.229-0.29-0.855a9.592,9.592,0,0,0-1.18-.957,6.913,6.913,0,0,0-1.086,1.806c0.545,1.474-1.644,4.7-2.695,5.711-0.353-.4-0.584-0.938-0.975-0.842l-0.194-.074-0.468,1a2.173,2.173,0,0,0-.573.253,3.375,3.375,0,0,0-1.564-1.062l-0.184.4-0.195-.074q0.173,1.121.341,2.23l-1,2.157,0.192,0.072-0.09.194-0.192-.071-0.269.582-0.753.174-0.882,1.921-0.469.05c-0.15.168-.3,0.335-0.451,0.5l-0.191-.07c-0.086.19-.173,0.38-0.259,0.569l-0.191-.069-0.172.378-0.19-.069c-0.057.126-.115,0.252-0.172,0.377l-0.465.05q-0.309.436-.615,0.871l-0.19-.069c-0.056.125-.113,0.25-0.169,0.374l-0.736.168-0.168.373-0.734.167c-0.028.062-.056,0.124-0.083,0.186a2.138,2.138,0,0,1-.922.1l-0.083.186q-0.525-.3-1.054-0.6l-0.434.489c-0.817.337-.417,0.665-1.025,1.341l-0.189-.068-0.24.551-0.188-.068-0.16.366L304.4,166c-0.632.579-.515,1.011-1.494,0.94a1.22,1.22,0,0,1-1.1.029l0.447-2.584-0.381-.136c-0.281.161-.768,0.144-0.994,0.283-0.052.123-.1,0.246-0.155,0.368l-0.457.049-0.877.532-0.379-.135-0.608.415-0.835-.086-0.075.183-1.332-.472,2.235-3.887-0.578-.208a9.255,9.255,0,0,1-1.344.595l-0.418.494-0.386-.137q-0.3.211-.608,0.424l-0.386-.138-0.34.3c-0.571.154-.267-0.323-0.8,0.354a3.9,3.9,0,0,0-.989,1.967,7.744,7.744,0,0,1-1.68,3.74l-0.637-.019q0.378-1.806.762-3.643l-0.192-.068c-0.3.132-.029,0.073-0.454,0.048-0.691.986-1.753,1.078-2.381,2.263l-0.64-.019a0.289,0.289,0,0,0-.315-0.314l-0.326.3-1.922-.057,0.066-.181-0.383-.133c0.57-1.611,1.33-2.038,1.922-3.465l-0.194-.068-0.068.186a1.737,1.737,0,0,0-.523.234c-0.718.173-1.092,0.018-1.564,0.7a5.872,5.872,0,0,0-1.553.078c-0.022.062-.043,0.123-0.065,0.184l-1.746-.61q0.03-.714.061-1.435l-0.326-.324,0.324-.937-0.2-.07a4.233,4.233,0,0,1-2.152.506l-0.393-.138-0.84.543-0.455.049c-0.021.062-.042,0.125-0.062,0.187l-0.393-.137c-0.021.062-.041,0.124-0.062,0.186l-0.393-.137-0.576.422-2.028-.5a1.486,1.486,0,0,1,.635-0.611l0.2,0.069c0.146-.228.293-0.455,0.44-0.683l0.456-.05q0.192-.248.382-0.5l0.2,0.069a1.388,1.388,0,0,0,.706-0.808l-1.588-.56c-0.021.063-.041,0.127-0.062,0.191l-0.2-.07c0.021-.064.041-0.128,0.062-0.191l-1-.351c0.021-.064.041-0.128,0.061-0.192l-0.4-.141,0.06-.192-1-.353,0.06-.192-0.4-.142,0.06-.193c-0.713-.736-1.126-0.489-0.79-1.789,0.6,0.057.468,0.106,0.786-.372l0.2,0.072c0.36-.32.028-1.906-0.062-1.993l-0.611-.219a5.6,5.6,0,0,0-.792.378c-0.5.285-.533,1.264-0.94,1.631l-1.248.424c-0.038.13-.077,0.26-0.116,0.391l-0.982.3-0.114.389-0.461.052c-0.038.129-.076,0.258-0.113,0.387l-0.2-.071c-0.124.17-.247,0.34-0.371,0.509-0.6-.056-0.467-0.1-0.772.366-0.973-.094-1.329.453-2.5,0.185a3.683,3.683,0,0,1,1.189-1.067l0.423-.706c0.558-.43.667,0.148,1.146-0.884l-5.015-1.338c0.018-.066.036-0.132,0.053-0.2l-1.13-.833c0.052-.2.105-0.4,0.157-0.6,0.59-.123.194-0.2,0.572-0.453l0.467-.053,0.054-.2c1.06-.317,2.324.157,2.975-0.926l-0.208-.074a2.949,2.949,0,0,0-1.967-1.149l-0.054.2-1.251-.448,0.054-.2-0.418-.149c0.018-.068.036-0.137,0.053-0.2l-0.628-.225c-0.352-.293-0.918-0.812-1.312-1.144l-0.054-.7c0.625-.137,1.058-0.825,1.639-1l0.423,0.153,0.585-.474,0.423,0.153,0.054-.209a0.686,0.686,0,0,0,.588-0.476l-0.211-.077a3.39,3.39,0,0,0-2.44-1.348l-0.054.211-1.493-.542c-0.017.07-.035,0.141-0.052,0.212-1.045-.087-1.582-0.9-2.253-1.283l0.051-.214,0.215,0.079c0.7-.649.784-0.162,1.5-0.387a4.379,4.379,0,0,1,.588-0.488c-0.017-.479.072-0.177-0.109-0.51-0.016-2.121-2.264-3.054-2.042-5.3,0.31-.162.087,0.031,0.325-0.366l2.247,0.592a2.7,2.7,0,0,0,.492-1.037,0.483,0.483,0,0,1-.165-0.307,10.579,10.579,0,0,1-2.043-1.5c-1.367-1.02-2.35-.373-2.9-2.082a0.506,0.506,0,0,1-.172-0.314c1.578,0.483,2.778,0,3.269-1.536a5.626,5.626,0,0,0-1.131-1.447,5.714,5.714,0,0,0-.754-2.086l-0.227-.086q0.126-1.117.255-2.246l2.734,1.052c0.019-.08.037-0.16,0.056-0.241a5.583,5.583,0,0,1,1.929.219c0.057-.24.115-0.48,0.172-0.721l-1.309-1.83c-0.1-.3-0.191-0.607-0.287-0.911-0.779-.889-1.082.206-0.924-1.433l0.231,0.09q0.054-.787.109-1.58l0.232,0.091,0.114-.5a4.144,4.144,0,0,0,3.13-.41l0.231,0.091,0.06-.251-0.232-.091c-0.476-.794-1.434-0.769-2.2-1.421,0.02-.084.039-0.169,0.059-0.253l-0.7-.277c0.02-.085.039-0.17,0.059-0.254l-0.468-.185c0.019-.085.038-0.17,0.058-0.255l-0.7-.278-0.12-.605c-0.611-.819-0.975-0.728-0.836-2.017,0.51-.076,1.154-0.453,1.65-0.473l2.183,0.589,0.06-.26,0.471,0.189a2.305,2.305,0,0,1,.593-0.331c-0.018-.292-0.036-0.585-0.053-0.877a18.6,18.6,0,0,0-1.416-1.719l-1.19-.479c0.02-.088.04-0.177,0.059-0.265l-0.417-.458c0.039-.178.079-0.355,0.118-0.533l-1.568-2.39c1.062-2.1,3.762-.287,5.843-0.278a0.677,0.677,0,0,0-.113-0.641c-0.2-.423.024-0.109-0.419-0.47a8.483,8.483,0,0,1,.686-1.82l0.484,0.2,0.371-.451,0.791,0.023q0.228-.967.459-1.942l-0.243-.1a10.933,10.933,0,0,1,1.178-3.85l0.8,0.024c-0.118,1.547.264,2.685,0.026,4.355l0.968,0.4,0.447-.734,0.242,0.1,0.138-.559,0.554-.077q0.294-.65.591-1.3l0.87-.258q0.107-.424.214-0.849l0.243,0.1c0.048-.189.1-0.379,0.143-0.568l0.244,0.1c0.738-1.009-.227-1.423,1.337-1.013-0.024.1-.048,0.191-0.073,0.286l1.461,0.619q0.225,1.2.45,2.388l0.6,0.251A14.107,14.107,0,0,0,274.315,100.494Zm-1.41,62.149-0.06.186c-0.156-.29-0.078-0.028-0.078-0.442l0.395,0.138-0.06.186Zm57.234-42.468-0.112.247,0.313,0.426-0.247.544c-0.072-.46-0.151-0.9-0.231-1.334Zm0.418-4.9c-0.038.085-.075,0.17-0.113,0.254l-0.252-.107a4.192,4.192,0,0,1,.9-1.433L331.5,114l0.276,0.277q-0.173.384-.344,0.766Z"/>
  <path id="right_ear_spots_fuzzy" data-name="right ear spots fuzzy" class="cls-3" d="M336.662,129c-0.152,5.772-5.571,7.8-6.579,11.788,0.089,0.275.176,0.542,0.264,0.815a2.2,2.2,0,0,1-.885-0.956c-2.268-.542-3.374.385-4.63,0.8q0.05-1.84.1-3.681l-4.629.8a7.446,7.446,0,0,0-.823-3.705l-0.921-.025c0.237-1.515,1.208-.956,1.891-1.79l-2.639-4.675,2.763,0.075-0.8-4.625a17.659,17.659,0,0,1,6.471-.747l-0.8-4.625,2.763,0.074,3.561,4.7,2.93,0.667C335.358,125.594,336.018,127.315,336.662,129Zm-35.1,21.026c-1.9-2.911-3.918-.9-7.368-0.2q0.036-1.38.074-2.76l-3.66-1.019,1.02-3.656a6.181,6.181,0,0,1-2.689-2.834c3.22-1.672,2.609-2.837,2.014-6.391l2.763,0.074,0.024-.92c1.077-1.02.367,0.007,0.971-1.815,3.413-.555,4.9-1.577,9.259-1.593q-0.024.919-.049,1.84l4.6,0.124a7.979,7.979,0,0,0,1.792,1.889c0.607,1.454-1.212,3.474-1.019,3.655l1.842,0.05q0.423,1.392.847,2.785l-2.763-.074c0.368,2.211.99,2.921,1.719,4.649l-5.575,1.692-0.1,3.68-0.921-.025-0.024.92Zm-25.089,7.614c2.237,0.588,2.006,1.017,3.635,1.939,0.593-2.872,1-3.831,3.807-4.5l0.847,2.785a9.766,9.766,0,0,1,3.709-.821q0.423,1.392.847,2.785c2.913-.027,1.774-1.753,2.738.994l0.921,0.024q-0.024.921-.049,1.84c0.711,0.888,1.85.759,2.714,1.915-1.611.994-1.264,0.548-1.916,2.71l4.6,0.124a7.212,7.212,0,0,1-.547,1.578c-0.217-.073-0.43-0.14-0.653-0.222a4.846,4.846,0,0,1-2.3-.074l-1.026,2.536c-2.449.485-2.631,1-6.154,0.015-1.018-.805-2.844.221-5.007-1.011-0.494-.281-2.113-2.72-2.764-3.106l-6.307-1.283q-0.431-2.782-.86-5.565l2.739,0.994Q275.963,159.463,276.472,157.635Zm-24.245-45.983a5.722,5.722,0,0,0,1.456,2.1c0.506-.815,3.043-3.389,4.679-2.637q-0.012.46-.025,0.92c1.021,1.076.367,0.013,0.872,1.865a10.969,10.969,0,0,1,4.581,1.043,9.727,9.727,0,0,0-1.02,3.656l2.763,0.074-1.167,9.176-1.842-.05,0.8,4.625-4.605-.123a10.9,10.9,0,0,0,.8,4.624c2.906-.852,1.412-0.474,4.605.124q-0.037,1.38-.074,2.76l2.714,1.914q-0.037,1.38-.074,2.76l0.921,0.025c0.65,1.805.046,2.413,0.822,3.7l-0.921-.025c-1.077,1.02-.013.367-1.866,0.871,0.526,2.536,1.149,2.126,1.719,4.649l-11.028-1.216c-0.006.243-.013,0.486-0.019,0.729-2.289-3.84-4.532-7.864-5.089-10.094a7.692,7.692,0,0,1-.112-3.1q0.53-2.11,1.058-4.221l-0.57-.015a6.1,6.1,0,0,0-.193-1.039l-0.126-.169,0.018-.642-0.5-.013-0.4-.547q0.054-2.033.109-4.065a9.974,9.974,0,0,1-1.8-.6c0.508-3.954,3.413-8.114,4.589-10.611A45.3,45.3,0,0,1,252.227,111.652Zm46.758-3.131-1.842-.049q0.846,2.784,1.694,5.569l-3.684-.1,0.8,4.625-5.5-1.068q-0.5,1.368-.994,2.735c-2.794-1.049-5.594-.242-10.131-0.271-0.509-1.058-1.579-1.5-1.793-1.89q0.024-.919.049-1.84l-0.921-.025q0.51-1.827,1.019-3.655a20.8,20.8,0,0,1-2.689-2.834c3.344-2.133.365-1.648,1.965-4.551l0.921,0.025c1.236-1.692,1.555-1.709,1.966-4.551l6.447,0.173L288.2,98.1l0.921,0.025q-0.024.92-.049,1.84a10.962,10.962,0,0,0,4.63-.8c0.208,2.351-.2,3.088,1.743,3.73,0.819-.523-0.278-1.343.946-0.895,0.128,0.046-.037.672,1.817,0.969Zm26.856-4.8q0.437,0.933.872,1.865l-0.921-.025c-1.077,1.02-.013.367-1.867,0.871l-1.068,5.5-0.921-.024c-1.078,1.019-.013.366-1.867,0.87q0.024-.919.049-1.84l-4.679,2.637q0.013-.46.025-0.92l-0.921-.025q0.037-1.38.074-2.76l-0.921-.025c-0.464.381-1.2,1.674-2.788,0.846q0.013-.459.025-0.92c-2.217-2.777.943-3.923-.749-6.465-0.852-1.28-2.351-.08-3.659-1.019q-0.437-.932-0.872-1.864a3.667,3.667,0,0,0,1.891-1.791l-1.842-.05q0.014-.46.025-0.92l-2.763-.074c0.734-2.524.312-2.051,2.837-2.686,1.107-1.224,1.718-1.361,3.733-1.741l-0.822-3.7,4.58,1.044q0.012-.46.025-0.92l-0.921-.025,0.06-2.272c0.1,0.024.192,0.038,0.288,0.066,5.44,1.557,6.934,9.849,9.822,12.831a8.075,8.075,0,0,0,4.231,2.265q-0.017.652-.035,1.306Z"/>
  <path id="left_ear_spots_fuzzy" data-name="left ear spots fuzzy" class="cls-3" d="M91.021,130.564c1.275,0.27-.374.656,0.9,0.944l3.733-1.741q-0.037,1.38-.074,2.76c2.562-.6,2.067-0.2,2.837-2.686l1.841,0.05-0.024.92,3.758-2.662c-0.008.307-.017,0.614-0.025,0.92l1.818,0.97,2.467,11.114-0.921-.024q-0.024.919-.049,1.84l-1.867.87-0.147,5.521-0.921-.025c-0.009.307-.017,0.613-0.025,0.92l-5.526-.148q-0.012.459-.025,0.92s-4.985-.983-6.422-1.093l0.074-2.76-3.684-.1q0.012-.46.025-0.92a7.117,7.117,0,0,0,1.916-2.711l-1.842-.049q0.025-.921.049-1.84l-2.763-.075,1.019-3.655-3.684-.1q0.024-.919.049-1.84l6.5-1.667A8.959,8.959,0,0,1,91.021,130.564ZM51.97,143.327l1.867-.871,4.58,1.044,0.847,2.784,2.788-.846q-0.012.461-.025,0.92c1.046,0.964,2.8,4.553,2.591,6.515a1.711,1.711,0,0,0-.97,1.815l0.921,0.025q-0.025.919-.049,1.84l-2.763-.074,0.822,3.7-2.763-.074c-1.547,2.445-3.84,3.445-5.34,5.573a10.6,10.6,0,0,0-2.152-1.171c-3.2-1.195-6.026-.246-8.757.327l-0.453-.574c-2.333-1.511-1.76.94-3.635-1.939l-0.921-.024q0.049-1.84.1-3.681l-1.818-.969,0.3-11.041,2.763,0.075,1.99-5.471c1.024,0.805.137-.113,0.9,0.944l0.921,0.025q-0.037,1.38-.074,2.76l0.921,0.025c1.418-5.3,3.6-1.929,6.57-4.427Zm-3.842-28.645c-2.036.316-1.684,0.815-1.867,0.871l-4.6-.124-0.97,1.815c-1.5-.216-1.551-1.8-1.793-1.889-1.947-.759-2.83,1.183-3.709.821l-0.872-1.865-5.477-1.988q0-.1.006-0.21c0.368-.563.7-1.1,0.965-1.605A87.436,87.436,0,0,0,34.2,99.415a35.091,35.091,0,0,0,4.191.275c0.8-1.214,1.323-2.232,2.837-2.686q-0.025.92-.049,1.84c0.354,0.066,1.984-.865,3.709-0.821l-0.995,2.735,3.684,0.1-1.02,3.655,2.763,0.074-0.995,2.736,0.921,0.024,0.822,3.7L48.226,111Q48.177,112.841,48.128,114.682Zm24.315-13.158q-0.037,1.38-.074,2.76l4.63-.8-0.025.92c-1.077,1.02-.367-0.006-0.97,1.816l3.684,0.1a16.442,16.442,0,0,1-.222,8.28l1.842,0.049c-0.391,3.383-.857,3.853-3.807,4.5l0.8,4.625-2.738-1q-0.037,1.38-.074,2.76c1.021,1.077.367,0.014,0.872,1.865l-2.763-.074-0.872-1.865-2.763-.074,0.025-.92-0.921-.024-0.025.92-2.812,1.766c0.182-2.905,1.847-1.676-.847-2.785l-0.025.92-3.684-.1,0.025-.92a3.667,3.667,0,0,0,1.891-1.791,10.966,10.966,0,0,1-4.58-1.043q0.012-.461.025-0.92l0.921,0.024,0.025-.92-0.921-.024,1.019-3.656-3.684-.1,0.025-.92c2.852-1.432,4.519-2.9,4.8-7.236l2.763,0.074q0.049-1.841.1-3.68c2.237,0.588,2.006,1.017,3.635,1.938a8.956,8.956,0,0,1,1.019-3.655l2.738,0.994q0.025-.919.049-1.84Zm39.6,1.062c-0.933,1.349-.8,2.248-1.044,4.576l-1.842-.05-0.995,2.736-2.738-1-1.02,3.656a21.073,21.073,0,0,1-3.659-1.019l-0.97,1.815-1.842-.049q0.025-.919.049-1.84l-4.605-.124c0.753-3.182,1.816-3.955,2.064-8.231l-1.842-.049c0.532-2.2,1.264-2.8,1.965-4.551l-0.921-.025c-1.021-1.076.007-.367-1.817-0.969l0.995-2.735,4.63-.8,0.97-1.815,3.684,0.1,4.087-.7c0.176,0.189.352,0.377,0.525,0.565,0,0.087,0,.175-0.007.262L108,92.387a33.834,33.834,0,0,1,5.063,6.544,7.872,7.872,0,0,1,.621,1.858l-0.671-.018q-0.024.919-.049,1.84Z"/>
</svg>
