<svg id="Monocle" xmlns="http://www.w3.org/2000/svg" width="360" height="360" viewBox="0 0 360 360" shape-rendering="geometricPrecision">
  <defs>
    <style>
      .cls-1 {
        fill: #fff;
      }

      .cls-2 {
        fill: #31323d;
        fill-rule: evenodd;
      }
    </style>
  </defs>
  <rect id="White" class="cls-1" width="360" height="360"/>
  <path id="Color_Fill_27_copy_8" data-name="Color Fill 27 copy 8" class="cls-2" d="M268.321,427.616a12.566,12.566,0,0,1,.878,7.632,10.343,10.343,0,0,1-.891,2.723,12.546,12.546,0,0,1,.891,7.656,10.414,10.414,0,0,1-.931,2.806,14.574,14.574,0,0,1,.98,7.956,10.593,10.593,0,0,1-.618,2.146,10.051,10.051,0,0,1,.569,1.991,12.654,12.654,0,0,1-.767,7.39,10.707,10.707,0,0,1,.816,2.607,14.611,14.611,0,0,1-.927,7.836,12.564,12.564,0,0,1,.878,7.632,10.355,10.355,0,0,1-.891,2.723,12.545,12.545,0,0,1,.891,7.656,10.414,10.414,0,0,1-.931,2.806,14.573,14.573,0,0,1,.98,7.956,10.566,10.566,0,0,1-.618,2.145,10.079,10.079,0,0,1,.569,1.992c1.055,6.078-1.688,11.059-6.549,12.473-4.8,1.4-8.482-3.138-9.218-7.384a14.7,14.7,0,0,1,.685-7.223,12.8,12.8,0,0,1-.636-7.092,10.379,10.379,0,0,1,.931-2.806,14.574,14.574,0,0,1-.98-7.956,10.738,10.738,0,0,1,.861-2.706,14.619,14.619,0,0,1-.861-7.673,10.79,10.79,0,0,1,.866-2.719,10.3,10.3,0,0,1-.817-2.571,12.653,12.653,0,0,1,.767-7.39,10.721,10.721,0,0,1-.816-2.607,14.7,14.7,0,0,1,.685-7.223,12.8,12.8,0,0,1-.636-7.092,10.379,10.379,0,0,1,.931-2.806,14.573,14.573,0,0,1-.98-7.956,10.718,10.718,0,0,1,.861-2.7,14.624,14.624,0,0,1-.861-7.674,10.783,10.783,0,0,1,.866-2.718,10.315,10.315,0,0,1-.817-2.572,12.653,12.653,0,0,1,.767-7.39,10.707,10.707,0,0,1-.816-2.607,14.7,14.7,0,0,1,.685-7.222,12.807,12.807,0,0,1-.636-7.093,10.361,10.361,0,0,1,.931-2.805,14.574,14.574,0,0,1-.98-7.956,10.738,10.738,0,0,1,.861-2.706,14.621,14.621,0,0,1-.861-7.673,10.777,10.777,0,0,1,.866-2.719,10.289,10.289,0,0,1-.817-2.572,12.654,12.654,0,0,1,.767-7.39,10.714,10.714,0,0,1-.816-2.606,14.7,14.7,0,0,1,.685-7.223,12.8,12.8,0,0,1-.636-7.092,10.379,10.379,0,0,1,.931-2.806,14.574,14.574,0,0,1-.98-7.956,10.738,10.738,0,0,1,.861-2.706,14.619,14.619,0,0,1-.861-7.673,10.79,10.79,0,0,1,.866-2.719,10.3,10.3,0,0,1-.817-2.571,12.875,12.875,0,0,1,.568-6.919,10.628,10.628,0,0,1-.617-2.143,14.7,14.7,0,0,1,.685-7.223,12.8,12.8,0,0,1-.636-7.092,10.379,10.379,0,0,1,.931-2.806,14.574,14.574,0,0,1-.98-7.956,10.738,10.738,0,0,1,.861-2.706,14.619,14.619,0,0,1-.861-7.673,10.79,10.79,0,0,1,.866-2.719,10.3,10.3,0,0,1-.817-2.571,12.653,12.653,0,0,1,.767-7.39,10.707,10.707,0,0,1-.816-2.607,14.7,14.7,0,0,1,.685-7.223,12.8,12.8,0,0,1-.636-7.092,10.379,10.379,0,0,1,.931-2.806,14.572,14.572,0,0,1-.98-7.956,10.718,10.718,0,0,1,.861-2.705,14.624,14.624,0,0,1-.861-7.674,10.783,10.783,0,0,1,.866-2.718,10.315,10.315,0,0,1-.817-2.572,12.653,12.653,0,0,1,.767-7.39,10.707,10.707,0,0,1-.816-2.607,14.7,14.7,0,0,1,.685-7.222,12.807,12.807,0,0,1-.636-7.093,10.361,10.361,0,0,1,.931-2.8,14.574,14.574,0,0,1-.98-7.956,10.738,10.738,0,0,1,.861-2.706,14.621,14.621,0,0,1-.861-7.673,10.777,10.777,0,0,1,.866-2.719,10.3,10.3,0,0,1-.817-2.572,12.655,12.655,0,0,1,.767-7.39,10.707,10.707,0,0,1-.816-2.607,14.7,14.7,0,0,1,.685-7.222,12.8,12.8,0,0,1-.636-7.092,10.379,10.379,0,0,1,.931-2.806,14.574,14.574,0,0,1-.98-7.956,10.738,10.738,0,0,1,.861-2.706,14.619,14.619,0,0,1-.861-7.673,10.79,10.79,0,0,1,.866-2.719,10.289,10.289,0,0,1-.817-2.572c-1.055-6.077,1.688-11.059,6.549-12.472,4.8-1.4,8.482,3.138,9.218,7.384a14.611,14.611,0,0,1-.927,7.836,12.564,12.564,0,0,1,.878,7.632,10.349,10.349,0,0,1-.891,2.722,12.548,12.548,0,0,1,.891,7.657,10.414,10.414,0,0,1-.931,2.806,14.572,14.572,0,0,1,.98,7.956,10.585,10.585,0,0,1-.618,2.145,10.06,10.06,0,0,1,.569,1.992,12.655,12.655,0,0,1-.767,7.39,10.7,10.7,0,0,1,.816,2.606,14.609,14.609,0,0,1-.927,7.836,12.566,12.566,0,0,1,.878,7.632,10.343,10.343,0,0,1-.891,2.723,12.548,12.548,0,0,1,.891,7.657,10.4,10.4,0,0,1-.931,2.805,14.574,14.574,0,0,1,.98,7.956,10.593,10.593,0,0,1-.618,2.146,10.07,10.07,0,0,1,.569,1.991,12.653,12.653,0,0,1-.767,7.39,10.707,10.707,0,0,1,.816,2.607,14.61,14.61,0,0,1-.927,7.836,12.566,12.566,0,0,1,.878,7.632,10.343,10.343,0,0,1-.891,2.723,12.546,12.546,0,0,1,.891,7.656,10.414,10.414,0,0,1-.931,2.806,14.574,14.574,0,0,1,.98,7.956,10.593,10.593,0,0,1-.618,2.146,10.051,10.051,0,0,1,.569,1.991,12.654,12.654,0,0,1-.767,7.39,10.707,10.707,0,0,1,.816,2.607,14.611,14.611,0,0,1-.927,7.836,12.564,12.564,0,0,1,.878,7.632,10.367,10.367,0,0,1-.891,2.723,12.545,12.545,0,0,1,.891,7.656,10.414,10.414,0,0,1-.931,2.806,14.573,14.573,0,0,1,.98,7.956,10.566,10.566,0,0,1-.618,2.145,10.079,10.079,0,0,1,.569,1.992,12.872,12.872,0,0,1-.568,6.918,10.618,10.618,0,0,1,.617,2.144,14.611,14.611,0,0,1-.927,7.836,12.564,12.564,0,0,1,.878,7.632,10.367,10.367,0,0,1-.891,2.723,12.544,12.544,0,0,1,.891,7.656,10.4,10.4,0,0,1-.931,2.805,14.575,14.575,0,0,1,.98,7.956,10.575,10.575,0,0,1-.618,2.146,10.079,10.079,0,0,1,.569,1.992,12.655,12.655,0,0,1-.767,7.39,10.7,10.7,0,0,1,.816,2.606,14.609,14.609,0,0,1-.927,7.836,12.566,12.566,0,0,1,.878,7.632,10.343,10.343,0,0,1-.891,2.723,12.548,12.548,0,0,1,.891,7.657,10.4,10.4,0,0,1-.931,2.805,14.574,14.574,0,0,1,.98,7.956,10.593,10.593,0,0,1-.618,2.146,10.07,10.07,0,0,1,.569,1.991,12.653,12.653,0,0,1-.767,7.39,10.721,10.721,0,0,1,.816,2.607A14.609,14.609,0,0,1,268.321,427.616Zm-10.408-288.9c0.036,0.694.064,1.405,0.164,2.071a5.964,5.964,0,0,1,4.89-.821,7.633,7.633,0,0,1,1.8.786c0-.206,0-0.419-0.01-0.643-0.179-3.469-.7-4.817-3.622-4.971C258.246,134.988,257.789,136.3,257.913,138.719Zm0.008,11.054c0,0.067.007,0.131,0.011,0.2a7.651,7.651,0,0,1,1.781-.774,6,6,0,0,1,4.993.886c-0.146-2.068-.59-4-3.465-4.154C258.618,145.789,257.787,147.162,257.921,149.773Zm3.518,5.38c-3.376.179-3.4,2.815-3.526,5.239l-0.006.143a9.157,9.157,0,0,1,2.123-.918,5.96,5.96,0,0,1,4.65.5c0.033-.347.058-0.719,0.079-1.121C264.893,156.388,264.062,155.015,261.439,155.153Zm-3.526,23.929c0.031,0.592.056,1.2,0.125,1.776a5.954,5.954,0,0,1,4.612-.482,9.1,9.1,0,0,1,2.115.913c0.009-.257.009-0.527-0.006-0.814-0.179-3.468-.7-4.816-3.622-4.971C258.246,175.352,257.789,176.659,257.913,179.082Zm0,10.38c0.036,0.694.064,1.405,0.164,2.071a5.96,5.96,0,0,1,4.89-.821,7.633,7.633,0,0,1,1.8.786c0-.207,0-0.419-0.01-0.644-0.179-3.468-.7-4.816-3.622-4.97C258.246,185.731,257.789,187.039,257.913,189.462Zm0.008,11.054c0,0.066.007,0.131,0.011,0.2a7.651,7.651,0,0,1,1.781-.774,6,6,0,0,1,4.993.885c-0.146-2.067-.59-4-3.465-4.153C258.618,196.532,257.787,197.905,257.921,200.516Zm3.518,5.38c-3.376.178-3.4,2.815-3.526,5.238,0,0.049,0,.1-0.006.144a9.157,9.157,0,0,1,2.123-.918,5.964,5.964,0,0,1,4.65.5c0.033-.346.058-0.718,0.079-1.12C264.893,207.131,264.062,205.757,261.439,205.9Zm-3.526,23.929c0.031,0.592.056,1.2,0.125,1.775a5.959,5.959,0,0,1,4.612-.482,9.146,9.146,0,0,1,2.115.913c0.009-.257.009-0.526-0.006-0.813-0.179-3.469-.7-4.817-3.622-4.971C258.246,226.094,257.789,227.4,257.913,229.825Zm0,10.379c0.036,0.694.064,1.405,0.164,2.072a5.964,5.964,0,0,1,4.89-.822,7.716,7.716,0,0,1,1.8.786c0-.206,0-0.418-0.01-0.643-0.179-3.468-.7-4.816-3.622-4.971C258.246,236.474,257.789,237.781,257.913,240.2Zm0.008,11.055c0,0.066.007,0.13,0.011,0.2a7.607,7.607,0,0,1,1.781-.773,5.992,5.992,0,0,1,4.993.885c-0.146-2.067-.59-4-3.465-4.153C258.618,247.274,257.787,248.648,257.921,251.259Zm3.518,5.38c-3.376.178-3.4,2.815-3.526,5.238l-0.006.144a9.072,9.072,0,0,1,2.123-.918,5.964,5.964,0,0,1,4.65.5c0.033-.346.058-0.719,0.079-1.121C264.893,257.874,264.062,256.5,261.439,256.639Zm-3.526,23.929c0.031,0.592.056,1.2,0.125,1.775a5.959,5.959,0,0,1,4.612-.482,9.146,9.146,0,0,1,2.115.913c0.009-.257.009-0.526-0.006-0.814-0.179-3.468-.7-4.816-3.622-4.97C258.246,276.837,257.789,278.145,257.913,280.568Zm0,10.379c0.036,0.694.064,1.4,0.164,2.071a5.968,5.968,0,0,1,4.89-.821,7.716,7.716,0,0,1,1.8.786c0-.206,0-0.418-0.01-0.643-0.179-3.469-.7-4.817-3.622-4.971C258.246,287.216,257.789,288.524,257.913,290.947Zm3.526,16.435c-3,.158-3.353,2.254-3.482,4.418a9.148,9.148,0,0,1,2.073-.889,5.96,5.96,0,0,1,4.716.539c0-.074.009-0.147,0.013-0.223C264.893,308.616,264.062,307.243,261.439,307.382Zm-1.726-5.959a6,6,0,0,1,4.993.886c-0.146-2.067-.59-4-3.465-4.153-2.623-.139-3.454,1.234-3.32,3.845,0,0.067.007,0.131,0.011,0.2A7.651,7.651,0,0,1,259.713,301.423Zm-1.8,28.953c0.031,0.592.056,1.2,0.125,1.775a5.954,5.954,0,0,1,4.612-.482,9.1,9.1,0,0,1,2.115.913c0.009-.257.009-0.526-0.006-0.814-0.179-3.468-.7-4.816-3.622-4.97C258.246,326.645,257.789,327.953,257.913,330.376Zm0,10.379c0.036,0.694.064,1.405,0.164,2.071a5.964,5.964,0,0,1,4.89-.821,7.633,7.633,0,0,1,1.8.786c0-.206,0-0.419-0.01-0.643-0.179-3.469-.7-4.817-3.622-4.971C258.246,337.024,257.789,338.332,257.913,340.755Zm0.008,11.054c0,0.067.007,0.131,0.011,0.2a7.651,7.651,0,0,1,1.781-.774,6,6,0,0,1,4.993.886c-0.146-2.067-.59-4-3.465-4.154C258.618,347.825,257.787,349.2,257.921,351.809Zm3.518,5.38c-3.376.178-3.4,2.815-3.526,5.239l-0.006.143a9.157,9.157,0,0,1,2.123-.918,5.96,5.96,0,0,1,4.65.5c0.033-.347.058-0.719,0.079-1.121C264.893,358.424,264.062,357.051,261.439,357.189Zm-3.526,23.929c0.031,0.593.056,1.2,0.125,1.776a5.954,5.954,0,0,1,4.612-.482,9.1,9.1,0,0,1,2.115.913c0.009-.257.009-0.527-0.006-0.814-0.179-3.468-.7-4.816-3.622-4.971C258.246,377.388,257.789,378.7,257.913,381.118Zm0,10.38c0.036,0.693.064,1.405,0.164,2.071a5.96,5.96,0,0,1,4.89-.821,7.633,7.633,0,0,1,1.8.786c0-.207,0-0.419-0.01-0.644-0.179-3.468-.7-4.816-3.622-4.97C258.246,387.767,257.789,389.075,257.913,391.5Zm0.008,11.054c0,0.066.007,0.131,0.011,0.2a7.651,7.651,0,0,1,1.781-.774,6,6,0,0,1,4.993.885c-0.146-2.067-.59-4-3.465-4.153C258.618,398.568,257.787,399.941,257.921,402.552Zm3.518,5.38c-3.376.178-3.4,2.815-3.526,5.238l-0.006.144a9.115,9.115,0,0,1,2.123-.918,5.964,5.964,0,0,1,4.65.5c0.033-.346.058-0.718,0.079-1.12C264.893,409.167,264.062,407.794,261.439,407.932Zm-3.526,23.929c0.031,0.592.056,1.2,0.125,1.775a5.959,5.959,0,0,1,4.612-.482,9.146,9.146,0,0,1,2.115.913c0.009-.256.009-0.526-0.006-0.813-0.179-3.469-.7-4.816-3.622-4.971C258.246,428.13,257.789,429.438,257.913,431.861Zm0,10.379c0.036,0.694.064,1.4,0.164,2.072a5.96,5.96,0,0,1,4.89-.821,7.672,7.672,0,0,1,1.8.785c0-.206,0-0.418-0.01-0.643-0.179-3.469-.7-4.816-3.622-4.971C258.246,438.51,257.789,439.817,257.913,442.24Zm0.008,11.054c0,0.067.007,0.131,0.011,0.2a7.651,7.651,0,0,1,1.781-.774,6,6,0,0,1,4.993.886c-0.146-2.067-.59-4-3.465-4.153C258.618,449.31,257.787,450.684,257.921,453.294Zm3.518,5.381c-3.376.178-3.4,2.815-3.526,5.238l-0.006.144a9.115,9.115,0,0,1,2.123-.918,5.964,5.964,0,0,1,4.65.5c0.033-.346.058-0.719,0.079-1.121C264.893,459.91,264.062,458.536,261.439,458.675ZM262.65,473a5.964,5.964,0,0,1-4.65-.5c-0.033.346-.058,0.718-0.079,1.12-0.008.156-.012,0.307-0.013,0.454a5.968,5.968,0,0,1,4.742-.553,9.174,9.174,0,0,1,1.946.819,21.033,21.033,0,0,0,.171-2.112c0-.049,0-0.1.006-0.144A9.115,9.115,0,0,1,262.65,473Zm0.317,21.234a7.716,7.716,0,0,1,1.8.786c0-.206,0-0.418-0.01-0.643-0.027-.522-0.062-1-0.111-1.425a5.976,5.976,0,0,1-4.935.849,7.7,7.7,0,0,1-1.8-.783c0.035,0.683.063,1.382,0.162,2.037A5.968,5.968,0,0,1,262.967,494.233Zm-4.929-9.854a5.954,5.954,0,0,1,4.612-.482,9.146,9.146,0,0,1,2.115.913c0.009-.257.009-0.526-0.006-0.813-0.025-.473-0.055-0.9-0.1-1.3a7.672,7.672,0,0,1-1.694.724,6.015,6.015,0,0,1-5.058-.926c0,0.036,0,.072,0,0.109C257.944,483.2,257.969,483.8,258.038,484.379Zm6.565,18.979a7.494,7.494,0,0,1-.861.457,7.55,7.55,0,0,1,.963.529C264.682,504.01,264.651,503.679,264.6,503.358Zm-6.69,11.3c-0.124,2.423.333,3.73,3.224,3.578,2.709-.143,3.353-1.311,3.576-4.239a5.961,5.961,0,0,1-4.683.521,9.161,9.161,0,0,1-2.06-.883C257.947,513.973,257.931,514.317,257.913,514.656Zm0.817-10.838a7.9,7.9,0,0,1-.819-0.424c0,0.206,0,.418.01,0.643,0,0.067.007,0.131,0.011,0.2A7.705,7.705,0,0,1,258.73,503.818ZM257.913,128.34c0.031,0.592.056,1.2,0.125,1.775a5.954,5.954,0,0,1,4.612-.482,9.146,9.146,0,0,1,2.115.913c0.009-.257.009-0.526-0.006-0.814-0.179-3.468-.7-4.816-3.622-4.97C258.246,124.609,257.789,125.917,257.913,128.34Zm3.63-13.957c-2.925.154-3.444,1.5-3.622,4.97-0.008.156-.012,0.307-0.013,0.454a5.964,5.964,0,0,1,4.742-.553,9.171,9.171,0,0,1,1.946.818,20.989,20.989,0,0,0,.171-2.111C264.891,115.538,264.434,114.23,261.543,114.383Zm0,50.742c-2.925.155-3.444,1.5-3.622,4.971-0.008.156-.012,0.307-0.013,0.453A5.972,5.972,0,0,1,262.65,170a9.174,9.174,0,0,1,1.946.819,21.033,21.033,0,0,0,.171-2.112C264.891,166.28,264.434,164.973,261.543,165.125Zm0,50.743c-2.925.154-3.444,1.5-3.622,4.971-0.008.155-.012,0.306-0.013,0.453a5.972,5.972,0,0,1,4.742-.553,9.174,9.174,0,0,1,1.946.819,21.033,21.033,0,0,0,.171-2.112C264.891,217.023,264.434,215.715,261.543,215.868Zm0,50.743c-2.925.154-3.444,1.5-3.622,4.97-0.008.156-.012,0.307-0.013,0.454a5.964,5.964,0,0,1,4.742-.553,9.174,9.174,0,0,1,1.946.819,21.033,21.033,0,0,0,.171-2.112C264.891,267.766,264.434,266.458,261.543,266.611Zm0,49.807c-2.925.155-3.444,1.5-3.622,4.971-0.008.156-.012,0.307-0.013,0.454a5.964,5.964,0,0,1,4.742-.553,9.171,9.171,0,0,1,1.946.818,21.013,21.013,0,0,0,.171-2.111C264.891,317.574,264.434,316.266,261.543,316.418Zm0,50.743c-2.925.155-3.444,1.5-3.622,4.971-0.008.156-.012,0.307-0.013,0.454a5.968,5.968,0,0,1,4.742-.554,9.174,9.174,0,0,1,1.946.819,21.033,21.033,0,0,0,.171-2.112C264.891,368.316,264.434,367.009,261.543,367.161Zm0,50.743c-2.925.154-3.444,1.5-3.622,4.971-0.008.155-.012,0.306-0.013,0.453a5.972,5.972,0,0,1,4.742-.553,9.174,9.174,0,0,1,1.946.819,21.033,21.033,0,0,0,.171-2.112C264.891,419.059,264.434,417.751,261.543,417.9Z"/>
  <path id="Color_Fill_29" data-name="Color Fill 29" class="cls-2" d="M259.722,121.545a10.133,10.133,0,0,1-9.771-6.236,47.98,47.98,0,0,0-11.257-.229s-1.3-10.423,4.852-9.7a12.36,12.36,0,0,0,5.044-.587c1.267-7.8,9.272-9.111,14.368-9.111,6.927,0,11.323,7.282,11.323,16.163C274.281,117.965,266.4,121.545,259.722,121.545Z"/>
  <path id="Color_Fill_28_copy" data-name="Color Fill 28 copy" class="cls-2" d="M190.9,203.629c-41.243,14.1-87.355-8.284-100-51.6-15.181-52.015,5.338-87.339,54.973-103.463,45.681-14.839,88.571,17.558,98.675,48.7C258.8,141.178,243.575,187.51,190.9,203.629ZM170.755,58.51c-42.66,0-72.792,26.875-72.792,67.884,0,30.868,29.688,67.884,67.939,67.884,49.225,0,71.174-42.467,71.174-71.116S212.907,58.51,170.755,58.51Z"/>
</svg>
