<svg id="Group_1_copy_2" data-name="Group 1 copy 2" xmlns="http://www.w3.org/2000/svg" width="360" height="360" viewBox="0 0 360 360">
  <defs>
    <style>
      .cls-1 {
        fill: #fff;
      }

      .cls-2 {
        fill: #e5e5e5;
      }

      .cls-3 {
        fill: #345bbe;
      }

      .cls-10, .cls-11, .cls-3, .cls-4, .cls-5, .cls-6, .cls-7, .cls-8, .cls-9 {
        fill-rule: evenodd;
      }

      .cls-4 {
        fill: #4c7aef;
      }

      .cls-5 {
        fill: #515dcb;
      }

      .cls-6 {
        fill: #31323d;
      }

      .cls-7 {
        fill: #31398a;
      }

      .cls-7, .cls-8 {
        fill-opacity: 0.8;
      }

      .cls-11, .cls-8, .cls-9 {
        fill: #40499f;
      }

      .cls-9 {
        stroke: #31323d;
        stroke-width: 3px;
      }

      .cls-10 {
        fill: #a8b0f5;
      }
    </style>
  </defs>
  <rect class="cls-1" width="360" height="360"/>
  <ellipse class="cls-2" cx="174" cy="279" rx="171" ry="57"/>
  <path class="cls-3" d="M166.513,225.474c81.114-6.782,157.833,9.444,163.707,38.478,6.016,29.736-66.4,58.476-154.648,62.124-83.983,3.471-145.5-16.683-145.3-43.177C30.472,257.178,88.182,232.023,166.513,225.474Z"/>
  <path id="Ellipse_1_copy" data-name="Ellipse 1 copy" class="cls-4" d="M165.756,221.977c80.86-6.881,157.306,9.133,163.135,38,5.971,29.564-66.207,58.27-154.157,62.055C91.019,325.636,29.687,305.7,29.9,279.34,30.1,253.75,87.659,228.623,165.756,221.977Z"/>
  <path id="Color_Fill_1" data-name="Color Fill 1" class="cls-4" d="M99.847,271.658s10.286-28.029-28.772-164.09c-3.025-10.19,15.382-20.085,90.3-24.37,74.683-4.272,107.748,2.665,104.993,14.761-4.247,18.645-30.259,90.486-23.972,172.07C244.319,294.956,130.719,304.88,99.847,271.658Z"/>
  <path id="Color_Fill_2" data-name="Color Fill 2" class="cls-5" d="M99.847,271.658s4.055-11.057-2.6-52.976c4.429,4.046,19.239,13.846,57.828,12.4,37.539-1.409,70.423-3.775,87.705-18.374a357.193,357.193,0,0,0-.383,57.323C244.319,294.956,130.719,304.88,99.847,271.658Z"/>
  <path id="Color_Fill_3" data-name="Color Fill 3" class="cls-6" d="M280.6,225.594c21.477,6.106,39.223,13.162,48.128,25.905,16.916,24.206-13.785,45.691-30.652,52.505-53.841,21.751-112.584,27.751-180.964,23.546-30.046-1.847-82.822-14.184-89.384-39.518-7.362-28.42,30.863-44.13,47.29-49.995C117.7,222.8,164,217.371,215.332,217.491c14.328,0.034,28.864,2.23,43.872,3.856Z"/>
  <g>
    <path id="brim_extrusion" data-name="brim extrusion" class="cls-3" d="M166.513,225.474c81.114-6.782,157.833,9.444,163.707,38.478,6.016,29.736-66.4,58.476-154.648,62.124-83.983,3.471-145.5-16.683-145.3-43.177C30.472,257.178,88.182,232.023,166.513,225.474Z"/>
    <path id="brim_extrustion_shadow" data-name="brim extrustion shadow" class="cls-7" d="M109.685,234.17c0.727,6.632,4.716,18.1.764,48.287-3.473,26.544-17.187,34.53-17.187,34.53l-0.444,3.972C54.2,313.583,30.146,299.483,30.274,282.9,30.42,263.94,61.818,245.289,109.685,234.17Z"/>
    <path id="brim_color" data-name="brim color" class="cls-4" d="M165.756,221.977c80.86-6.881,157.306,9.133,163.135,38,5.971,29.564-66.207,58.27-154.157,62.055C91.019,325.636,29.687,305.7,29.9,279.34,30.1,253.75,87.659,228.623,165.756,221.977Z"/>
  </g>
  <path id="top_hat_color" data-name="top hat color" class="cls-4" d="M99.847,271.658s10.286-28.029-28.772-164.09c-3.025-10.19,15.382-20.085,90.3-24.37,74.683-4.272,107.748,2.665,104.993,14.761-4.247,18.645-30.259,90.486-23.972,172.07C244.319,294.956,130.719,304.88,99.847,271.658Z"/>
  <path id="brim_shadow" data-name="brim shadow" class="cls-8" d="M109.723,230.58c-0.035.244-.069,0.5-0.1,0.784-0.652,6.315,5.392,16.189.824,51.093-0.395-.253-17.187,34.53-17.187,34.53l-0.032.285C54.164,310.057,29.765,295.98,29.9,279.34,30.05,260.4,61.64,241.706,109.723,230.58Z"/>
  <path id="top_shadow" data-name="top shadow" class="cls-8" d="M266.228,96.135a4.518,4.518,0,0,1-.344,1.368c-0.751,3.755-6.483,7.5-16.143,10.779-13.99,5.194-36.774,9.87-68.559,11.847-58.225,3.62-77-1.081-77-1.081s6.757,63.414,8.431,105.461c-0.054,4.324-2.335.54-2.987,6.855-0.636,6.164,5.106,15.724,1.132,48.64a44.773,44.773,0,0,1-10.91-8.346s10.172-28.683-28.886-164.744c-3.025-10.191,15.752-20.284,90.672-24.57C232.662,78.281,265.5,85.126,266.228,96.135Z"/>
  <path id="top_outline" data-name="top outline" class="cls-9" d="M155.759,121.083c-55.066,1.116-89.427-7.675-87.183-16.958a16.888,16.888,0,0,1,4.884-7.784c9.955-6.332,38-12.686,88.344-15.565,55.83-3.193,90.883,1.333,102.619,8.14a15.226,15.226,0,0,1,4.278,5.971C273.524,107.365,214.68,119.888,155.759,121.083Z"/>
  <path id="Color_Fill_7" data-name="Color Fill 7" class="cls-4" d="M266.226,96.752c-6.632,10.906-57.7,20.261-110.467,21.331-39.363.8-67.114-2.957-78.927-8.553C73.9,104.613,72.669,88.885,174,86,228.458,84.45,254.126,90.682,266.226,96.752Z"/>
  <path id="Color_Fill_5" data-name="Color Fill 5" class="cls-6" d="M251.354,82.887c7.591,2.22,15.75,4.811,17.439,10.191,2.186,6.963-2.153,18.382-7.731,33.025a224.058,224.058,0,0,0-7.11,22.671c-5.432,17.621-5.48,28.009-7.182,47.762-1.658,19.254-3,38.691-2.761,56.839,0.067,5.149,2.623,17.279-.245,22.559-5.959,10.974-21.389,13.452-32.153,16.09-21.959,5.382-71.127,8.409-100.278-8.371-5.719-3.293-9.714-7.7-14.363-11.129,4.263-13.47-.087-30.8-1.3-42.246-4.657-43.781-9.211-56.58-16.424-83.986-2.9-10.687-6.659-21.633-9.56-32.32-0.857-3.091-3.749-7.636-1.687-11.978,5.823-12.257,32.556-15.589,45.2-17.138a821.364,821.364,0,0,1,94.658-6.025l29.314,1.661Zm2.366,3.5L241.127,83.85l-27.348-2a788.861,788.861,0,0,0-95.058,5.285c-12.409,1.514-38.748,4.254-45.571,14.236-3,4.383.177,9.457,1.146,12.746l8.391,31.04a548.753,548.753,0,0,1,17.623,89.305q0.619,12.432,1.238,24.865-0.695,6.456-1.389,12.915c4.53,3.188,8.751,6.937,14.42,9.905,28.584,14.966,76.86,11.88,97.969,6.749,9.554-2.322,23.741-4.255,29.021-13.929,2.608-4.778-.514-18.16-0.895-22.9-1.407-17.5.7-35.9,2.164-54.848,1.653-21.459,4.514-36.994,13.61-68.157,3.533-12.1,11.363-29.4,9.752-34.589C264.913,90.321,258.959,88.428,253.72,86.387Z"/>
  <path id="Color_Fill_2_copy" data-name="Color Fill 2 copy" class="cls-5" d="M99.847,271.658s4.055-11.057-2.6-52.976c4.428,4.046,19.239,13.845,57.828,12.4,37.539-1.409,70.423-3.775,87.705-18.374a357.193,357.193,0,0,0-.383,57.323C244.319,294.956,130.719,304.88,99.847,271.658Z"/>
  <path id="Color_Fill_6" data-name="Color Fill 6" class="cls-6" d="M241.906,209.649c2.726,0.727,3.072,1.354,4.132,2.789a291.406,291.406,0,0,0-1.258,44.578c0.317,5.638,3.115,14-1.243,20.71-5.39,8.3-17.552,11.175-26.4,13.475-23.432,6.093-48.019,5.361-77,2.021-17.794-2.052-36.561-11.443-43.653-21.153,4.453-14.406.4-29.7-1.1-41.877C94.9,226.3,91.995,217.431,97,215.485c7.245,2.372,11.6,8.565,21.285,9.794C158.884,230.433,215.505,229.286,241.906,209.649Zm0.571,3.272c-25.936,18.919-72.025,18.954-104.821,18.169-12.438-.3-31.334-4.472-40.373-12.418,1.38,11.444,3.23,22.94,3.808,34.935q-0.466,9.316-.931,18.634c4.514,3.212,8.735,6.928,14.42,9.905,28.23,14.786,75.8,12.029,96.659,6.976,10.156-2.46,22.657-4.271,29.335-12.9,3.276-4.236,1.649-10.728,1.416-15.078-0.544-10.151-.615-21.1-0.416-31.748Z"/>
  <path id="Color_Fill_3_copy" data-name="Color Fill 3 copy" class="cls-10" d="M232.491,282.339a51.945,51.945,0,0,1-4.883,2.242l0,0q-0.881.354-1.8,0.694c1.2-11.664,3.7-21.759,6.851-25.915,4.4-5.8-.1-15.771-4.281-20.943-4.09-5.065-2.913-11.721-.714-17.111q2.742-1.057,5.257-2.285c-2.554,5.431-4.017,10.475-2.42,13.067,5.1,8.277,11.846,17.535,6.016,30.385-2.585,5.7-3.75,12.611-4.019,19.865h0Z"/>
  <path id="Color_Fill_3_copy_2" data-name="Color Fill 3 copy 2" class="cls-10" d="M218.837,287.5q-0.691.19-1.4,0.376l-0.163.042q-0.6.156-1.212,0.307l-0.308.076q-0.569.139-1.146,0.275l-0.279.066q-0.693.16-1.4,0.316l-0.018,0q-1.511.333-3.072,0.639l-0.147.029q-0.7.137-1.411,0.267l-0.177.033q-0.766.141-1.544,0.276h0c1.29-13.093,4.257-25.337,7.586-29.729,4.4-5.8-.1-15.771-4.28-20.943-3.085-3.82-2.241-8.706.006-13.312q5.063-.981,9.691-2.258c-1.258,3.246-1.676,6.034-.611,7.764,5.1,8.277,12.542,16.891,6.272,29.532a66.859,66.859,0,0,0-6.391,26.24h0Z"/>
  <path id="Ellipse_1_copy_5" data-name="Ellipse 1 copy 5" class="cls-11" d="M112.176,226.568c-0.707.97-2.071,0.143-2.551,4.8-0.636,6.164,5.106,15.724,1.132,48.64a44.773,44.773,0,0,1-10.91-8.346s4.055-11.057-2.6-52.976C99.364,220.615,103.856,223.862,112.176,226.568Z"/>
</svg>
