<svg id="Beret" xmlns="http://www.w3.org/2000/svg" width="3000" height="3000" viewBox="0 0 3000 3000">
  <defs>
    <style>
      .cls-1 {
        fill: #31323d;
      }

      .cls-1, .cls-2, .cls-3, .cls-4 {
        fill-rule: evenodd;
      }

      .cls-2 {
        fill: #395977;
      }

      .cls-3 {
        fill: #33506c;
      }

      .cls-4 {
        fill: #4a729a;
      }
    </style>
  </defs>
  <path id="Color_Fill_8" data-name="Color Fill 8" class="cls-1" d="M1207,667s-25.8-113.692-51-76,25.01,80.354,46.32,84.337S1207,667,1207,667Z"/>
  <path id="Color_Fill_11" data-name="Color Fill 11" class="cls-2" d="M1192,664s-19.33-84.445-27-60S1168.89,626.667,1192,664Z"/>
  <path id="Color_Fill_7" data-name="Color Fill 7" class="cls-1" d="M1115,972c-121.5,78-161.184,145.29-193,106.5C885.831,1034.4,966.3,865.8,1038,781s197.92-202.62,350-207,212.02,15.823,258,88-13.16,72.067-30,89,13.06,117.8-4,118-71.8-21.3-190,0S1236.5,894,1115,972Z"/>
  <path id="Color_Fill_12" data-name="Color Fill 12" class="cls-3" d="M1142,935c19.78-14.111,93.33-47.445,145-57s181.44-35.111,225-33,56.22-1.667,93,10c0,0-7.44-65.667-8-83s9.89-44.667,42-55-182,1-182,1S1122.22,949.111,1142,935Z"/>
  <path id="Color_Fill_9" data-name="Color Fill 9" class="cls-2" d="M936.5,1068.5c11.473,12.61,92.44-67.89,182-118,82.79-46.326,230.17-131.167,350.5-167.5s153-50.556,166-59,28.33-7.556-6-60-103.44-88.889-232-76-221,63.778-329,181S912.557,1050.54,936.5,1068.5Z"/>
  <path id="Color_Fill_9_copy" data-name="Color Fill 9 copy" class="cls-3" d="M1216.54,896.116c-37.4,20.2-71.13,39.329-98.04,54.384-89.56,50.11-170.527,130.61-182,118C912.557,1050.54,960,886.222,1068,769c19.64-21.313,38.76-40.422,57.67-57.519l0.15-.13q2.025-1.833,4.05-3.635c0.13-.111.25-0.223,0.38-0.335,1.36-1.2,2.71-2.4,4.07-3.582,0.09-.084.19-0.166,0.28-0.249q2.1-1.832,4.19-3.629h0c-0.9,1.331-1.82,2.686-2.79,4.079C1034.95,849.514,1188,889.981,1216.54,896.116Z"/>
  <path id="Color_Fill_14" data-name="Color Fill 14" class="cls-4" d="M1286.18,611.839C1320.67,599.667,1357.09,592,1397,588c128.56-12.889,197.67,23.555,232,76,14.28,21.812,19.96,34.394,20.8,42.263-9.03,5.971-17.58,8.062-22.8.737-15.44-21.667-45.22-81.667-305-93C1308.4,613.407,1296.52,612.68,1286.18,611.839Z"/>
</svg>
