<svg id="birdy_copy" data-name="birdy copy" xmlns="http://www.w3.org/2000/svg" width="3000" height="3000" viewBox="0 0 3000 3000">
  <defs>
    <style>
      .cls-1, .cls-16 {
        fill: #31323d;
      }

      .cls-1, .cls-10, .cls-11, .cls-12, .cls-13, .cls-14, .cls-15, .cls-16, .cls-2, .cls-3, .cls-4, .cls-5, .cls-6, .cls-7, .cls-8, .cls-9 {
        fill-rule: evenodd;
      }

      .cls-1 {
        opacity: 0.2;
      }

      .cls-2 {
        fill: #c5c6d9;
      }

      .cls-3 {
        fill: #999aa9;
      }

      .cls-4 {
        fill: #757682;
      }

      .cls-5 {
        fill: #fff;
      }

      .cls-6 {
        fill: #f4d47e;
      }

      .cls-7 {
        fill: #f2f4ff;
      }

      .cls-8 {
        fill: #e08dc7;
      }

      .cls-9 {
        fill: #d2d3df;
      }

      .cls-10 {
        fill: #b0b1bd;
      }

      .cls-11 {
        fill: #fffdb9;
      }

      .cls-12 {
        fill: #9294a2;
      }

      .cls-13 {
        fill: #62636c;
      }

      .cls-14 {
        fill: #787988;
      }

      .cls-15 {
        fill: #bebebe;
      }
    </style>
  </defs>
  <path class="cls-1" d="M1898.11,2525.19s-102.32-1.12-115.05,12.06c-6.81,10.78,31.44,12.27,45.94,13.75,2.74,0.28,37.77.79,64,4,72.91,26.36,159.07,29.81,239,30,76.27,0.19,157.57-7.07,203-27,39.75,2.81,80.54-5.4,84-18,1.1-11.42-27.16-9.6-38-10"/>
  <path class="cls-2" d="M2246,2365c40.35,31.88,99.43,95.77,80.51,172.11-19.01,8.95-23.52-9.82-45.26-4.03-27.69,7.38-68.95,4.03-101.6,4.03l-154.9,2.01c-16.52,0-93.91,2.52-95.56-1.01,15.2,2.98,95.45-55.85,102.6-68.42-3-3.14-3.18-2.76-8.04-2.02,16.38-26.75,63.09-36,87.51-55.34q-1.515-3.03-3.02-6.04c0.33-.34.67-0.67,1-1.01q27.66-5.025,55.33-10.06c38.04-3.78,55.98,17.48,87.51-2.01C2254.92,2376.55,2247.96,2378.21,2246,2365Zm-181.01,60.41h0Zm-12.07,1.01q6.03,0.495,12.07,1h-2.02q-14.58,8.055-29.17,16.1c0.67-1,1.34-2.01,2.02-3.02Q2044.355,2433.465,2052.92,2426.42Zm-21.13,17.1h2.01q-11.055,9.555-22.13,19.12c-2.15,4.88-.13,9.88-5.02,14.09q-12.075,6.03-24.15,12.08c0.67-5.28.35-5.21-2.01-9.06C1998.08,2474.12,2020.17,2456.32,2031.79,2443.52Zm-63.37,42.27h0Zm-2.01,1h0Zm-3.02,2.02c2.79,1.16.53,0.31,0,3.01-20,6.61-34.87,25.72-54.31,30.19q2.505-5.535,5.03-11.07l-18.11-2.01C1921.58,2508.28,1946.29,2503.19,1963.39,2488.81Zm-58.34,37.23c2.21,1.17-1.16,5.29-2.01,10.06h-2.01v-5.03Q1903.04,2528.55,1905.05,2526.04Z"/>
  <path class="cls-3" d="M2251.03,2371c0.33,0.68.67,1.36,1,2.04C2251.7,2372.36,2251.36,2371.68,2251.03,2371Zm1,4.08v0Zm-1,11.23c0.33,0.68.67,1.36,1,2.04C2251.7,2387.67,2251.36,2386.99,2251.03,2386.31Zm-1.01,3.06c0.34,0.68.67,1.36,1.01,2.04C2250.69,2390.73,2250.36,2390.05,2250.02,2389.37Zm-90.52,4.08h4.02v1.02Zm8.04,0,21.12,1.02Zm-15.08,1.02h4.02v1.03C2155.14,2395.16,2153.8,2394.81,2152.46,2394.47Zm38.22,0c2.01,0.34,4.02.69,6.03,1.03C2194.7,2395.16,2192.69,2394.81,2190.68,2394.47Zm92.53,0v0Zm-135.78,1.03h0Zm-4.03,1.02h0Zm-4.02,1.02h0Zm64.37,0h0Zm-70.41,1.02h0Zm73.43,0h0Zm30.17,0h0Zm-108.62,1.02h0Zm82.47,0h0Zm23.14,0h0Zm102.59,0c16.52,0.09,30.75,2.27,42.24,9.18,0.75,8.88,2.06,9.53,4.03,16.33,8.2,5.45,12.24,6.06,29.17,16.33,8.71,41.35-11.67,81.58-40.24,91.86-20.93,7.54-20.37-6.22-38.22,7.15-5.57-.55-5.47-0.93-8.04-4.09,7.21-19.49-.08-64.57-7.46-82.34-4.45-10.71-19.54-25.52-21.71-38.09C2307.07,2405.7,2322.59,2407.49,2336.52,2399.58Zm-214.24,1.02h0Zm91.53,0,5.03,1.02Zm-99.58,1.02q3.03,0.51,6.04,1.02Q2117.255,2402.13,2114.23,2401.62Zm-5.03,1.02h0Zm-4.02,2.04c2.84,1.78,3.25,2.26,5.03,5.1-0.33,1.02,1.13,2.2.79,3.22-15.72,14.17-70.94,33.56-85,51,3.33-1.4.01,2.11,3.75,2.94,4.31-3.07,37.68-16.47-79.75,68.06-10.36,4.06-41.29,9.71-49,2.36q3.015-7.65,6.03-15.31c8.09-.71,66.01-37.98,71.42-42.86l4.02,3.06c-0.33,2.04.87,3.71,0.53,5.75,8.05-4.08,14.56-7.79,22.61-11.87,5.09-4.27,3.32-10.65,6.03-15.31q13.08-10.725,26.15-21.44C2056.33,2427.8,2091.33,2418.76,2105.18,2404.68Zm183.06,2.04h0Zm-236.37,17.35h0Zm10.06,0h0Zm-7.04,1.02,5.03,1.02Zm-54.31,39.81h0Zm-10.06,7.14h0Zm-40.23,22.46h0Zm-4.03,1.02h0Zm-12.07,5.1h0Zm-2.01,1.02h0Zm-2.01,1.02h0Zm-9.05,4.08h0Zm-7.04,1.03,6.03,1.02Z"/>
  <path class="cls-4" d="M2135.21,2346.44c46.68-2.15,95.69,3.17,117.1,28.34,2.88,8.33,3.38,12.83-2.31,21.22-24.5,9.81-35.5,4.69-61.2.03-20.98-3.81-54.22,4.39-72.8,8.97-11.87,4.44-24.45,10.93-34.38,16.33-8.89,3.61-16.83,5.75-25.62,8.67-5.62,5.4-12.42,7.18-18.04,12.58-31.31,23.85-70.23,56.08-112.14,66.79-5.95-.34-18.87-0.03-24.82-0.37-33.49.53-50.73-2.99-79-7-19.18-2.72-35.84-8.19-48.02-15.91q-0.99-4.545-1.98-9.11c2.25-4.8,4.12-7.86,8.93-10.11,12.63-3.83,23.78,6.43,35.73,2.02-8.72-1.64-12.57-7.12-12.9-17.2,3.17-5.04,3.84-7.85,9.92-10.12,10.22-4.28,26.92,2.17,34.73,4.04,16.89,4.06,131.17-.74,139.93-5.06,10.37-5.1,23.92-28.32,35.72-36.43,17.21-15.7,52-36.57,58.56-39.46C2099.48,2358.59,2115.46,2349.75,2135.21,2346.44Zm148.86,51.61q4.47,4.05,8.93,8.1l-1.98,4.05h-1c-1.98-1.69-3.97-3.38-5.95-5.06v-7.09Zm-466.42,71.85c0.99,0.34,1.98.68,2.98,1.01C1819.63,2470.58,1818.64,2470.24,1817.65,2469.9Z"/>
  <path class="cls-5" d="M2201,2397v4.06c-13.93.76-29.42,4.96-42.45,8.12v2.02c4.03,0.97,5.82,2.3,7.08,6.09-0.68.34-1.35,0.68-2.02,1.02-3.01,2.21-30.48,8.97-35.38,10.14v1.02h1.01q5.565,1.515,11.12,3.04v2.03c-0.67.34-1.35,0.68-2.02,1.01-4.94,3.77-24.34,9.04-31.33,10.15-1.53-2.89-1.93-2.68-1.01-6.09-3.97-.34-15.96.11-19.2-2.03-0.76-1.08-.61-0.96-1.01-3.04,14.89-6.42,29.35-12.8,44.47-19.28v-1.01h-7.08c-2.45-1.49-5.85-.25-10.11,0-0.33-.68-0.67-1.35-1.01-2.03C2128.55,2402.9,2176.08,2397.36,2201,2397Zm-83.88,53.77h6.06v1.02h-1.01c-7.06,5.23-31.4,8.89-33.35,17.25h1.01v1.01c6.89,0.22,14.53.45,21.22,2.03v2.03c-7.8.35-37.57,12.11-39.41,17.25h1.01c3.7,2.26,13.71,1.53,17.18,3.04-1.03.82-.28,0.36-2.02,1.02-7.55,5.64-21.79,4.94-29.31,10.14-0.76,1.09-.61.96-1.01,3.05h1.01v1.01c7.92,0.42,12.24,3.44,19.2,5.07v1.02c-13.92,1.45-27.16,7.67-34.36,16.23-7.99.14-25.79,0.74-31.33-3.04-0.81-1.04-.36-0.28-1.01-2.03a201.069,201.069,0,0,1,25.27-9.13v-1.02c-4.96-.17-14.71-0.62-18.2-3.04-0.76-1.09-.6-0.96-1.01-3.04h2.03c7.65-4.85,22.92-5.39,27.28-13.19h-4.04c-3.16-2.15-9.03-1.82-12.13-4.06-0.81-1.04-.36-0.28-1.01-2.03l3.03-1.02c5.46-3.56,17.88-2.56,21.23-8.11-3.74-.42-11.28-1.98-14.15-4.06-0.81-1.04-.36-0.28-1.01-2.03,16.48-7.1,31.48-15.66,49.52-21.31C2095.93,2452.29,2110.96,2454.78,2117.12,2450.77Zm-69.74,79.14c4.29,1.45,8.28,2.97,12.13,4.06-1.03.82-.28,0.36-2.02,1.02V2536q-4.545-1.515-9.1-3.04C2048.06,2531.94,2047.72,2530.93,2047.38,2529.91Z"/>
  <path class="cls-6" d="M2406,2437s-40.54-.75-28-25c0,0,21.91-17.82,29-13.63S2408.66,2432.28,2406,2437Z"/>
  <path class="cls-7" d="M2252,2382c5.59,2.73,10.15,6.43,15,10.11,5.41,4.11,7.53,3.71,15,9.89,1.07-.76,1.95,4.67,4,4.27,1.94,2.89,4.92,2.68,7,5.06,10.83,12.37,26.32,39.67,29,59.66h-1V2472c-5.06-6.69-9.01-13.99-14-22-6.65-10.68-9.6-13.86-18-23-1.59-1.73-7.33-8.36-9-10a257,257,0,0,0-28-23C2253.77,2391.59,2251.99,2386.27,2252,2382Zm-63,20.22c13.81-.23,52.1,3.89,56,12.14h1v1.01h-4c-8.3-3.48-15.02-4.61-24-5.37-23.22-1.97-32.53-.2-54,4-3.02-1.62-6.67-2.99-7-4,0.67,0,3.17-2.71,6-3C2175.94,2402.08,2180.27,2401.92,2189,2402.22Zm-41,46.52c12.94-.21,46.61,5.71,52,12.14h1v1.01h-3c-44.96-7.57-56-4.72-80-2.89,0-.67-21,2.67-21,2a195.364,195.364,0,0,1,23-9C2128.77,2449.15,2138.61,2449.07,2148,2448.74Z"/>
  <path class="cls-8" d="M2378,2426s-11.54-2.3-14.35,1.89c-2.88,4.29,9.6,8.99,15.35,9.11S2407.06,2433.22,2378,2426Z"/>
  <path class="cls-9" d="M2335.06,2399c13.01-.2,8.82,3.17,15.02,6.06h11.02c4.31,1.2,11.16,3.23,16.03,5.04a17.11,17.11,0,0,1,2,6.06,18.226,18.226,0,0,0-4.01,3.03c-26.99-.52-36.34-9.21-59.09,4.03-3.48,2.03-8.22,1.51-11.02,4.04,1.83,1.58,1.4.89,2,4.04h-1v-1.01a18.972,18.972,0,0,1-6.01-13.12c3.38-3.77,3.57-8.18,9.01-10.1C2315.68,2401.97,2327.84,2403.88,2335.06,2399Zm57.94,36c9.85-6.35,25.35,26.96,19.18,46.77L2399.16,2507h-1v-1.01c-0.96-1.43-.98-3.3-1-6.06,4.44-6.59,5.08-21.83,4.84-32.93C2401.76,2455.96,2388.37,2440.83,2393,2435Z"/>
  <path class="cls-10" d="M2252,2393.92c-10.75-5.38-34.99-16.09-46.21-20.16,0.3,0.11-52.18-16.93-77.34-14.11-26.26,2.93-47.82,10.22-67.3,22.17-7.57,4.65-26.73,21.29-35.15,22.18,2.32-6.7-8.67.83,25.11-22.18,8.63-5.88,29.31-16.43,31.14-17.13-6.17.77,17.21-8.84,35.15-14.11,10.15-2.99,27.35-1.22,37.17,1h22.09c13.83,3.23,29.04,5.72,40.18,11.09,17.81,8.59,36.32,13.94,36.16,23.33C2253.76,2388.57,2252.22,2391.58,2252,2393.92Z"/>
  <path class="cls-11" d="M2402.71,2393c1.28,1.57.66,0.51,0,2-3.02,8.71-15.33,18.54-24.71,21v-5C2386.69,2406.18,2395.96,2399.86,2402.71,2393Zm4.11,13c3.99,1.73,5.86,5.69,6.18,11q-3.6,10.005-7.21,20c-1.03.33-2.05,0.67-3.08,1-2.2-1.39-6.25-1.49-8.24-3,3.24-4.23,2.86-10.74,5.15-16C2401.55,2414.55,2405.3,2411.12,2406.82,2406Z"/>
  <path class="cls-12" d="M2327.99,2533c-36.19,1.44-74.51,2-111.55,2h-56.28c-22.42,4.8-61.07.81-86.42,1q-74.865,1.005-149.74,2v-2c2.03-2.3,2.16-6.44,4.02-9,6.9-4.25,18.21-.78,27.13-3,3.94-.98,8.52-4.03,12.06-5h57.29l200.99-3c84.41,0,95.47-2,95.47-2,4.39-1.44,6.86-5.43,8.04-10h1v23C2328.65,2528.68,2328.35,2530.14,2327.99,2533Z"/>
  <path class="cls-13" d="M1805.11,2443c8.41,0.92,11.83,3.83,20.07,5.98,4.01,0.33,10.81,3.69,14.82,4.02,10.21,2.73,19.56,4.76,30.32,4.95h11.03c10.25,2.29,23.16,2.64,33.11,4.98,5.05,1.19,10.41-.38,14.04,1.99-13.57.2-70.31,1.37-76.24,0-10.06-2.32-35.8-.4-52.26-14.92A73.956,73.956,0,0,0,1805.11,2443Zm-33.1,26.9c3.85,0.91,21.8,4.95,32.1,7.97,7.02,3.32,14.04,4.65,21.07,7.97,8.35,3.45,18.38,5.15,26.08,7.98,16.99,6.23,35.62,6.91,52.16,12.95v1c-1,0-2.42,2.23-3.42,2.23-12.65-1.58-26.88-.52-36.7-3.23-19.73-5.45-42.77-8.24-61.3-15.77-10.98-4.46-22.84-7.32-33-14.12v-2.99A18.914,18.914,0,0,0,1772.01,2469.9ZM2408,2494.81c-1.4,8.92-9.02,15.3-15.05,19.93-2.7,2.08-3.34,7.1-6.02,8.97q-5.01,1.485-10.03,2.99c-2.28,1.27-4.08,5.03-7.02,5.98-8.45.19-18.56-3.25-27.08-2.99-5.98.17-6.67,4.78-16.05,3.98,0.5-4.43,3.15-8.94,3.01-12.95-0.39-10.71-1.86-14.63-1.76-19.72,3.92,10.36,7.12,12.99,11.79,15.73,13.16,9.53,44.74-4.25,53.16-9.96C2398.63,2502.92,2399.55,2496.4,2408,2494.81Z"/>
  <path class="cls-14" d="M1904,2519h67s-15.84,10.61-31,14c-18.08,4.05-36,1-36,1v-15Z"/>
  <path class="cls-15" d="M2034.91,2518H2065v0.99h-2.08c-4.8,2.68-14.57,7.31-18.67,12.83h-22.83c-2.41-1.47-7.86-2.01-10.38-2.96-0.35-.66-0.69-1.32-1.04-1.97C2016.24,2524.36,2029.55,2521.59,2034.91,2518Z"/>
  <path class="cls-16" d="M2088.5,2212c2,0.33,4.01.67,6.01,1v2.01c2.82,4.87-12.21,30.66-15.02,36.06-5.04,9.68-7.74,21.21-14.02,30.05,6.72-9.46-64.15,60.56-68.1,63.12v1c0.33,0,5.3,4.76,5.63,4.76a272.947,272.947,0,0,0,26.41,22.29c4.16,3.13,5.26,5.29,11.02,8.01,3.83-4.73,12.24-6.51,15.02-12.02-5-2.44-24.22-16.42-26.04-21.04-0.96-1.42-.97-3.28-1-6.01,25.44-13.84,57.72-19.25,84.13-32.06,2.3-23.09,3.44-48.89,8.01-71.12,2.42-1.31,2.84-1.81,7.01-2.01,1.02,0.81.27,0.36,2,1v2.01c3.64,5.68-2.76,38.1-3,48.08h1v-1c7.81-8.03,15.83-32.71,29.04-33.06,0.34,1.01.67,2.01,1,3.01,0.81,1.18.78,1.68,1.01,4.01q-14.52,21.525-29.05,43.07c1,0,5.44-1.16,6.44-1.16,6.84-3.28,10.81-4.13,19.6-5.85,1.31,2.42,1.81,2.84,2,7.01-0.8,1.03-.35.28-1,2.01-26.2,10.95-54.73,20.07-81.12,30.05-6.88,2.6-26.17,7.02-31.04,12.02,7.44,5.76,17.39,10.75,21.03,16.03,17.05-8.15,34.6-15.69,55.08-21.04,59.72-15.58,116.31,16.94,148.22,40.07,10.23,7.42,23.12,15.47,30.04,26.05,13.39-6.74,33.17-20.65,57.09-15.03,7.82,1.84,13.75,6.63,21.03,8.02,4.57-4.58,35.46-22.55,43.07-23.04,2.04,3.24,2.99,4.04,3,10.02-2.36,3.43-1.67,8.34-3,13.02-1.93,6.73-9.75,28.84-8.02,36.06,2.34,9.78,11.31,22.17,8.02,37.07-5.09,23.01-14.09,40.27-30.05,52.09-6.96,5.16-15.92,11.74-25.04,14.03H2252.75c-8.68,1.85-21.71,1-32.05,1h-86.13c-8.37,1.79-21.01,1-31.05,1H2019.4c-25.3,2.32-55.14,1-82.12,1-16.01,0-35.44,1.42-47.07-1v-2c4.25-10.37,6.28-13.4,12.01-22.04,0.75,0,2.13.45-1.22,0.45-8.55-1.79-25-2.7-37.83-5.46-32.45-6.99-63.74-10.82-89.14-24.04-8.71-4.54-21.4-8.62-22.03-21.04,1.55-1.14.84-1.09,3-2,9.73-7.18,41.46,2.59,52.08-4.01-9.56-2.87-14.82-9.84-21.03-16.03v-7.01c2.73-1.71,2.5-2.54,7.01-3.01,3.83-1.81,43.26,0,53.08,0q67.095,0.51,134.2,1c6.38-9.69,24.93-30.18,34.05-37.06,5.28-3.99,11.34-7.51,15.02-13.03-12.69-10.35-19.08-16.24-30.41-26.31-4.99-4.43-14.35-9.25-14.65-18.77,5.53-3.62,9.26-9.59,14.02-14.02,24.82-23.1,56.4-52.29,57.08-54.1,1.82-6.46-17.31-35.18-18.02-49.09,2.54-1.37,3.5-1.92,8.01-2,4.63,7.63,9.68,17.47,12.02,27.05h1v-5.01c3.38-5.6,2.14-20.77,5-27.05,4.34-.3,6.23-1.43,8.02,3.01,3.03,4.59-.21,17.5-1.01,23.04h1.01v-2.01C2078.97,2233.82,2081.18,2220.28,2088.5,2212Zm58.09,138.25c-8.82.16-17.85,1.09-25.04,3-14.22,3.8-28.37,8.19-41.06,14.03-39.2,18.02-68.53,51.11-96.14,81.14-57.36,2.77-120.85-.98-181.27-1v1h2c17.56,21.31,75.18,13.03,113.17,13.03,10.26,0,37.63-2.31,42.06,1h-2c-25.39,4.58-42.52,5.07-57.31,6.55-39.95,3.99-83.25,6.27-128.97,6.47v1h1c12.25,12.14,40.39,14.78,60.09,20.04,14.17,3.78,32.06,4.49,47.07,8.01,3.34,0,9.47,1.48,12.81,1.48,4.43,0.97,20.03,2.6,24.25,1.53,8.69-2.22,21.54-9.9,29.75-13.53,12.44-5.49,21.88-10,34.34-16.53,11.95-6.25,19.5-19.17,30.05-27.04,17.55-13.11,49.13-30.56,71.1-38.07,24.81-8.48,48.32-16.22,84.51-17.36,20.27,0.07,44.88,1.67,52.7,8.34h-1c-3.42-2.23-12.8-1-18.03-1-16.74,0-30.4.47-45.67,2.66a208.61,208.61,0,0,0-30.44,6.36c-21.02,6.04-42.16,12.67-61.1,21.03A188.715,188.715,0,0,0,2046,2441c-8.39,5.12-13.59,8.09-21.59,13.43-17.36,11.6-15.41,15.33-15.41,13.57-5.95,1.48,17.48-4.33,36.44-10.56,20.52-6.74,58.82-14.13,87.13-13.02,9.44,0.36,29.92,1.04,36.43,5.58-0.33,0-16.67-1-17-1-7.27.78-12.71,0.1-21,1-14.94,1.62-23.58,2.71-38.49,6.44-34.55,8.62-69.83,15.1-101.15,28.05-11.92,4.92-24.5,11.95-36.06,17.03-18.95,8.33-38.64,14.27-49.07,31.05h101.15c4.62-2.83,17.4-1,24.04-1h62.09q99.135-1.005,198.29-2c31.05,0,69.96,4.01,88.14-9.02,15.1-10.83,24.41-25.45,29.04-47.08,2.89-13.52-5.65-25.23-8.01-34.06-2.44-9.12,3.48-20.4,5-28.05h-1v2c-6.53,6.84-6.51,25.67-16.02,29.05-6.11,4.1-31.37-7.15-33.05-12.02-10.37-16.35,27.28-10.17,34.05-9.02,1.81-8.6,6.73-13.42,10.02-21.03h-1.01c-5.4,5.22-16.79,12.51-26.03,13.02-27.6-17.64-50.71-4.54-68.11,4.01,0.64,1.75.2,0.97,1.01,2,1.16,3.66,3.92,6.83,5.17,9.63,4.45,9.94,5.38,14.68,7.84,27.44h-1v-1h-1C2290.54,2400.03,2227.92,2350.55,2146.59,2350.25Zm220.33,77.14c2.37,3.09,14.96,7.49,18.02,6.01,0.76-1.08.61-.95,1-3.01-1-.33-2-0.67-3-1C2379.59,2427.18,2372.06,2427.32,2366.92,2427.39Zm14.02,52.09q-9.015,1.005-18.03,2c-1.95-3.09-2.89-3.43-3-9.01,3.43-1.78,11.92-2.03,15.02-4.01,0.8-1.02.35-.28,1-2-1.32-3.41-3.7-6.15-4.01-11.02,2.82-2.69,3.32-3.18,9.08-3.44a85.991,85.991,0,0,1,5,14c0.61,2.18,4.57.72,7,1,1.99-1.34,5.47-.65,8.97-0.54,1.3,2.42,1.8,2.83,2,7.01-0.8,1.02-.35.27-1,2-8.45,2.07-11.62-.65-10.97,4.53,1.07,5.78,2.83,13.1,1.96,17.51-2.42,1.31-2.84,1.81-7.01,2-1.71-2.73-2.54-2.5-3.01-7.01C2381.77,2489.53,2381.08,2484.28,2380.94,2479.48Z"/>
</svg>
