<svg id="Bowtie" xmlns="http://www.w3.org/2000/svg" xmlns:xlink="http://www.w3.org/1999/xlink" width="3000" height="3000" viewBox="0 0 3000 3000" shape-rendering="geometricPrecision">
  <defs>
    <style>
      .cls-1, .cls-2, .cls-3 {
        fill-rule: evenodd;
      }

      .cls-1 {
        fill: url(#linear-gradient);
      }

      .cls-2 {
        fill: #2c2c2c;
      }

      .cls-3 {
        fill: #4d4d4d;
      }
    </style>
    <linearGradient id="linear-gradient" x1="1430" y1="1474.47" x2="1430" y2="1658.16" gradientUnits="userSpaceOnUse">
      <stop offset="0" stop-color="#31323d" stop-opacity="0.122"/>
      <stop offset="1" stop-color="#31323d" stop-opacity="0.122"/>
    </linearGradient>
  </defs>
  <path id="Shadow" class="cls-1" d="M1281.17,1474.46s-42.52,70.81-31.22,100.22,25.69,61.68,28.68,83.49c0,0,70.1-34.18,89.54-44.05s35.6-7.68,48.54-29.23,25.4-10.15,32.35-10.47,41.42-7.9,41.42-7.9,12.92,21.35,25.2,28.77,81.24,24.37,88.19,24.05,8.59-15.51,7.99-28.45-102.13-79.1-102.13-79.1-164.71,31.56-159.74,31.33S1281.17,1474.46,1281.17,1474.46Z"/>
  <path id="Base" class="cls-2" d="M1420.73,1503.97s16.15,6.45,22.51,8.44c0,0,35.44-5.02,44.63-4.25,0,0,7.63-8.82,13.28-11.26,0,0,4.98-20.5,31-32.32s56.25-30.38,66.8-35.14c0,0,36.69,21.28,47.77,70.97s-13.39,71.11-11.64,95.82c0,0-88.08-7.59-105.33-16.14-13.37-6.62-25.18-23.2-30.98-26.7-1.69-1.02,1.43,6.95.66,7.41,0,0-6.6-3.46-27.44-1.58s-29.07,7.02-37.31,12.15c0,0-4.51-4.57-4.38-8.38,0,0-22.65,27.94-54.07,39.12s-67.62,25.43-76.58,30.68c0,0-24.3-24.06-35.04-66.99s4.25-52.95,29.85-113.93c0,0,38.29,17.23,63.17,16.95S1417.2,1496.21,1420.73,1503.97Z"/>
  <path id="Highlights" class="cls-3" d="M1412.86,1511.31c4.6-8.83-106.22-40.22-106.22-40.22,77.84,26.68,92.15,44.64,94.92,45.09C1413.97,1518.2,1408.25,1520.14,1412.86,1511.31Zm3.28,38.85c14.3-23.54-17.57-21.37-39.15-17.85s-81.44,19.35-81.44,19.35C1399.35,1539.77,1416.14,1550.16,1416.14,1550.16Zm216.99-80.55c-2.58-3.7-10.08-18.35-12.66-21.3-93.57,35.8-123.36,79.55-123.36,79.55C1548.93,1479.82,1611.93,1474.39,1633.13,1469.61Zm-95.3,48.57c-14.63.54-37.3,12.15-37.3,12.15s-0.99,17.69,2.57,16.38c6.07-2.23,18.1-15.34,30.76-15.76,21.4-.72,67.06-5.54,96.09-3.56,10.47,0.71,12.05-3.76,18.6-3.44,0.16-3.57,1.08-1.41.82-5.36C1608.34,1526.16,1549.89,1517.74,1537.83,1518.18Z"/>
</svg>
