<svg id="Box" xmlns="http://www.w3.org/2000/svg" width="3000" height="3000" viewBox="0 0 3000 3000" shape-rendering="geometricPrecision">
  <defs>
    <style>
      .cls-1, .cls-2 {
        fill: #31323d;
      }

      .cls-1 {
        fill-opacity: 0.2;
      }

      .cls-1, .cls-2, .cls-3, .cls-4, .cls-5 {
        fill-rule: evenodd;
      }

      .cls-3 {
        fill: #ca9340;
      }

      .cls-4 {
        fill: #edb84e;
      }

      .cls-5 {
        fill: #a47631;
      }
    </style>
  </defs>
  <path id="Color_Fill_998" data-name="Color Fill 998" class="cls-1" d="M1792,2537s-275.89-147.69-329-148-417.99,126.57-520,98.46c0,0-528.816-148.02-614-130.46,0,0,382.081-28.94,417-117s1007-180,1007-180,565.77,356.77,629,371C2382,2431,1922.74,2466.33,1792,2537Z"/>
  <path id="Color_Fill_989" data-name="Color Fill 989" class="cls-2" d="M2218.52,2262.31s93.7-232.78,75.28-246.83l-386.04-132.51,59.9,266.99Z"/>
  <path id="Color_Fill_989_copy" data-name="Color Fill 989 copy" class="cls-3" d="M2208.52,2246.31s86.85-207.76,68.43-221.82l-369.19-141.52,59.9,266.99Z"/>
  <path id="Color_Fill_1" data-name="Color Fill 1" class="cls-2" d="M1450.45,2352.45s-203.95,142.94-387.25,132.27L280.086,2261.99s339.5,4.22,411.513-41.8c0,0-75.355-1497.633-161.58-1621.9,0,0,856.311-12.736,868.981-49.556,0,0,796.76,71.966,906.28,53.556,0,0-36.99,1529.161-74.85,1644.221,0,0,145.23,107.2,195.19,113.26,0,0,4.73,4.51-7.71,7.41-104.51,24.32-602.44,137.93-617.61,179.06C1800.3,2546.24,1578.86,2352.45,1450.45,2352.45Zm251.77-1132.27c-52.31,5.26-120.84-5.88-132.44-109.07-11.62-103.51,71.57-121.14,108.1-123.053,37.95-1.987,100.35,24.453,109.65,100.5C1796.75,1164,1761.42,1214.22,1702.22,1220.18Zm-557.37,13.64c51.77,5.91,122.15-3.72,134.12-106.83,12.01-103.56-73.66-119.82-109.82-121.13-38.11-1.38-99.19,25.42-108.22,99.09C1051.99,1177.85,1086.13,1227.11,1144.85,1233.82Z"/>
  <path id="Color_Fill_1278" data-name="Color Fill 1278" class="cls-2" d="M978,951h896v356H978V951Zm698.2,46q-15.99,2.9-31.97,5.81c-27.62,8.46-49.53,25.68-60.03,51.31-33.73,82.38,28.62,175.39,120.09,157.73C1821.37,1189.25,1801.47,996.116,1676.2,997Zm-516.74,19q-13.53,3.375-27.07,6.76c-27.06,10.68-46.62,31.55-56.99,58.92-28.93,76.36,18.74,158.37,102.42,144.9,24.51-3.95,43.23-9.91,58.96-22.23,27.39-21.44,46.61-89.14,28-134.3C1249.73,1033.55,1211.42,1015.46,1159.46,1016Z"/>
  <path id="Color_Fill_1_copy_5" data-name="Color Fill 1 copy 5" class="cls-3" d="M1424.49,2349.96s-187.19,126.42-352.6,121.73l-716.1-199.06s278,4.61,350.013-41.42c0,0-.017-0.38-0.051-1.13,0.094,0.06.191,0.12,0.284,0.17,103.293,63.78,720.52,118.94,720.52,118.94l0.38,0.44,0.06,0.36C1426.16,2349.97,1425.32,2349.96,1424.49,2349.96Z"/>
  <path id="Color_Fill_1_copy_9" data-name="Color Fill 1 copy 9" class="cls-4" d="M704.618,2231.93L705,2232s-73.65,53.73-219.311,75.29l-129.9-34.66S630.838,2277.18,704.618,2231.93Z"/>
  <path id="Color_Fill_1_copy_8" data-name="Color Fill 1 copy 8" class="cls-3" d="M1445.63,2339.09l-0.38-.43s-610.36-40.92-737.537-119.45c-0.093-.05-0.19-0.11-0.284-0.17C705.328,2173.02,640.047,738.6,555.2,616.311c0,0,828.023-15.4,840.693-52.219,0,0-10.53-.5-0.44.415-3.81,69.159-65.68,1153.093,49.74,1772.143C1445.34,2337.47,1445.48,2338.28,1445.63,2339.09ZM1144.85,1235.82c51.77,5.91,124.15-5.72,136.12-108.83,12.01-103.56-75.66-121.82-111.82-123.13-38.11-1.38-100.19,27.42-109.22,101.09C1050.99,1177.85,1086.13,1229.11,1144.85,1235.82Z"/>
  <path id="Color_Fill_1_copy_6" data-name="Color Fill 1 copy 6" class="cls-4" d="M1802.46,2528.16s-142.92-134.07-304.61-183.19c-0.04-.22-0.08-0.5-0.12-0.8,9.7-.32,194.81-1.47,716.1-95.64-0.11.34-.21,0.68-0.32,0.99,0,0,144.49,104.1,181.32,108.7C2394.83,2358.22,1819.44,2482.13,1802.46,2528.16Z"/>
  <path id="Color_Fill_1_copy_7" data-name="Color Fill 1 copy 7" class="cls-4" d="M1457.54,2337.64c-0.14-.99-0.28-2.28-0.41-3-115.42-619.05-56.49-1700.974-52.68-1770.133,112.03,10.131,780.6,70.7,881.07,53.811,0,0-32.19,1499.772-69.93,1622.182C1694.3,2334.67,1467.23,2337.32,1457.54,2337.64Zm244.68-1115.46c-52.31,5.26-122.84-7.88-134.44-111.07-11.62-103.51,73.57-123.14,110.1-125.053,37.95-1.987,102.35,26.453,111.65,102.5C1798.75,1164,1761.42,1216.22,1702.22,1222.18Z"/>
  <g id="TIME_MACHINE" data-name="TIME MACHINE">
    <path id="Color_Fill_1006" data-name="Color Fill 1006" class="cls-2" d="M1512,1634c9.11-7.81,54-29,54-29s-14.08-108.49-10-130,23,124,23,124,60.46-30.83,76-31-58.4,45.66-66,46,21.79,175.26,10,144-27-134-27-134S1484.87,1657.26,1512,1634Zm215,81c-13.82,2.05-50.49-264.86-37-269S1740.82,1712.95,1727,1715Zm66-25c-10.25,0,8.1-256.23,31-258s81,130,81,130,15.33-157.04,29-157,91,242,91,242c-11.63,7.75-87.11-193.73-89-213s-15.04,148.67-23,149-84-130-84-130S1806.57,1690,1793,1690Zm294-310c-9.48,1.78-84.69,28.2-81,46s50.42,195.78,60,194,140.33-28.2,136-46c-0.52-2.13-99.64,27.68-115,29-19.17,1.65-19-35-19-35s105.15-43.75,99-52-103.33,44.56-109,23-37-107-37-107S2096.48,1378.22,2087,1380Z"/>
    <path id="Color_Fill_1007" data-name="Color Fill 1007" class="cls-2" d="M1461,2101s-10.44-262.64,23-270,45,130,45,130,15.67-140.89,35-143,69.78,253.04,62,265-60-230-60-230-27.38,122.75-37,131-31.68-134.59-41-131S1470.69,2102.94,1461,2101Zm200-41s-13.17-205.02,4-211,113.12,184.67,101,194-90-159-90-159l-2,66s6.76-5.3,22,2-18,13-18,13S1676.5,2046.43,1661,2060Zm126-252c-35.53,31.58-35.95,111.5-20,144s32.58,88.95,95,52,30.05-31.88-9-16-58.07-14.48-66-40-32.27-77.26,8-126S1819.94,1778.73,1787,1808Zm81-27c1.17,33.45,22.22,200.52,27,163,4.22-33.15,2-74,2-74l31-8s10.64,79.38,20,99-10.6-205.56-20-217,0,93,0,93l-35,14S1864.96,1694.38,1868,1781Zm89-14c-3.2-7.71,20.63,187.39,26,185S1984.38,1832.95,1957,1767Zm60,165c-4.13,8.26-33-172.68-25-188s74.6,131.78,82,128-6.85-185.29,32-207c26.64-14.89-6.34,32.94-14,58s-7.71,183.65-14,178-70-116-70-116S2028.63,1908.74,2017,1932Zm150.03-217.23s-56.15,21.84-53.96,43.29-5.57,122.71,12.95,126.6,109.02-24.71,100.37-31.38-79.97,23.95-90.18,11.74-9.72-25.05-9.72-25.05l28.67-26.73-29.43,6.17,0.61-63.02S2194.22,1698,2167.03,1714.77Z"/>
  </g>
  <path id="Color_Fill_991" data-name="Color Fill 991" class="cls-2" d="M1702.59,1227.77c-81.57,3.75-140.61-32.54-140.61-124.65,0-91.93,62.57-124.238,133.17-120.984,69.74,3.214,110.84,57.194,110.84,121.154C1805.99,1167.2,1773.58,1224.49,1702.59,1227.77Zm-0.37-7.59c-52.31,5.26-120.84-5.88-132.44-109.07-11.62-103.51,71.57-121.14,108.1-123.053,37.95-1.987,100.35,24.453,109.65,100.5C1796.75,1164,1761.42,1214.22,1702.22,1220.18Z"/>
  <path id="Color_Fill_993" data-name="Color Fill 993" class="cls-3" d="M1743.32,1211.85s70.95-31.26,55.46-129.64c-7.56-48.01-38.34-77.82-69.92-88.166,0,0,57.26,27.646,63.87,100.056C1800.98,1184.44,1743.32,1211.85,1743.32,1211.85Z"/>
  <path id="Color_Fill_991_copy" data-name="Color Fill 991 copy" class="cls-2" d="M1144.49,1241.25c81.3,4.99,142.53-29.85,142.53-122.24,0-92.13-64.71-123.016-135.12-118.69-69.28,4.25-108.89,57.33-108.89,118.92C1043.01,1180.77,1074.16,1236.94,1144.49,1241.25Zm0.36-7.43c51.77,5.91,122.15-3.72,134.12-106.83,12.01-103.56-73.66-119.82-109.82-121.13-38.11-1.38-99.19,25.42-108.22,99.09C1051.99,1177.85,1086.13,1227.11,1144.85,1233.82Z"/>
  <path id="Color_Fill_993_copy" data-name="Color Fill 993 copy" class="cls-5" d="M1104.18,1225.08s-69.21-30.95-54.18-126.25c7.34-46.55,37.37-75.83,68.45-86.34,0,0-56.12,27.3-62.58,97.84C1047.81,1198.33,1104.18,1225.08,1104.18,1225.08Z"/>
</svg>
