<svg xmlns="http://www.w3.org/2000/svg" width="3000" height="3000" viewBox="0 0 3000 3000">
  <defs>
    <style>
      .cls-1, .cls-7 {
        fill: #31323d;
      }

      .cls-1 {
        fill-opacity: 0.4;
      }

      .cls-10, .cls-2, .cls-3 {
        fill: #fff;
      }

      .cls-10, .cls-2 {
        fill-opacity: 0.33;
      }

      .cls-10, .cls-3, .cls-4, .cls-5, .cls-6, .cls-7, .cls-8, .cls-9 {
        fill-rule: evenodd;
      }

      .cls-4 {
        fill: #dec8ff;
      }

      .cls-4, .cls-5, .cls-6 {
        fill-opacity: 0.5;
      }

      .cls-5 {
        fill: #c0ddff;
      }

      .cls-6 {
        fill: #c4ffcb;
      }

      .cls-8 {
        fill: #ffef85;
      }

      .cls-9 {
        fill: #d5c873;
      }
    </style>
  </defs>
  <ellipse class="cls-1" cx="1796.5" cy="2502.5" rx="107.5" ry="26.5"/>
  <g id="bubble_copy_16" data-name="bubble copy 16">
    <circle id="Ellipse_2_copy_2" data-name="Ellipse 2 copy 2" class="cls-2" cx="2183.5" cy="427.5" r="62.5"/>
    <path class="cls-3" d="M2183.5,490a62.5,62.5,0,1,1,62.5-62.5A62.5,62.5,0,0,1,2183.5,490Zm0-117.306a54.806,54.806,0,1,0,54.81,54.806A54.809,54.809,0,0,0,2183.5,372.694Z"/>
    <path class="cls-4" d="M2182.57,426.2c-17.32,12.445-38.82,12.093-48.02-.787-0.31-.438-0.6-0.886-0.88-1.341a50.009,50.009,0,0,1,62.69-44.834c0.3,0.37.63,0.714,0.91,1.107C2206.47,393.221,2199.88,413.751,2182.57,426.2Z"/>
    <path id="Ellipse_3_copy" data-name="Ellipse 3 copy" class="cls-5" d="M2196.36,379.234a49.708,49.708,0,0,1,7.68,2.728,30.17,30.17,0,0,1,1.88,2.812c9.99,16.928,2.84,41.027-15.3,55.145-18.39,14.31-42.89,14.258-55.08-1.657-0.42-.557-0.82-1.128-1.21-1.708a50.265,50.265,0,0,1-.8-8.906c0-1.205.06-2.4,0.14-3.58,0.28,0.455.57,0.9,0.88,1.341,9.2,12.88,30.7,13.232,48.02.787s23.9-32.975,14.7-45.855C2196.99,379.948,2196.66,379.6,2196.36,379.234Z"/>
    <path id="Ellipse_3_copy_2" data-name="Ellipse 3 copy 2" class="cls-6" d="M2183.54,477.729a49.745,49.745,0,0,1-33.14-12.592c16.84,8.8,38.86,5.976,55.09-6.484,19.74-15.154,27.22-41.328,16.01-61.666a40.566,40.566,0,0,0-4.58-6.625A50.091,50.091,0,0,1,2183.54,477.729Z"/>
    <path id="Color_Fill_1" data-name="Color Fill 1" class="cls-3" d="M2225.44,443.751c-10.86.54-11.9-20.734-19.62-28.946-5.34-5.686-22.22-15.394-21.71-24.183,0.76-12.884,27.21,2.63,35.55,10.312S2236.31,443.21,2225.44,443.751Zm-79.55,0c9.25-8.3,32.45,14.543,26.89,22.717C2165.04,477.843,2136.64,452.047,2145.89,443.751Z"/>
  </g>
  <g id="bubble_copy_17" data-name="bubble copy 17">
    <circle id="Ellipse_2_copy_2-2" data-name="Ellipse 2 copy 2" class="cls-2" cx="2136.5" cy="1030.5" r="62.5"/>
    <path class="cls-3" d="M2136.5,1093a62.5,62.5,0,1,1,62.5-62.5A62.5,62.5,0,0,1,2136.5,1093Zm0-117.306a54.808,54.808,0,1,0,54.81,54.806A54.808,54.808,0,0,0,2136.5,975.694Z"/>
    <path class="cls-4" d="M2135.57,1029.2c-17.32,12.44-38.82,12.09-48.02-.79-0.31-.44-0.6-0.89-0.88-1.34a50.009,50.009,0,0,1,62.69-44.836c0.3,0.37.63,0.714,0.91,1.107C2159.47,996.221,2152.88,1016.75,2135.57,1029.2Z"/>
    <path id="Ellipse_3_copy-2" data-name="Ellipse 3 copy" class="cls-5" d="M2149.36,982.234a49.708,49.708,0,0,1,7.68,2.728,30.17,30.17,0,0,1,1.88,2.812c9.99,16.926,2.84,41.026-15.3,55.146-18.39,14.31-42.89,14.26-55.08-1.66-0.42-.56-0.82-1.13-1.21-1.71a50.189,50.189,0,0,1-.8-8.9c0-1.21.06-2.4,0.14-3.58,0.28,0.45.57,0.9,0.88,1.34,9.2,12.88,30.7,13.23,48.02.79s23.9-32.979,14.7-45.859C2149.99,982.948,2149.66,982.6,2149.36,982.234Z"/>
    <path id="Ellipse_3_copy_2-2" data-name="Ellipse 3 copy 2" class="cls-6" d="M2136.54,1080.73a49.743,49.743,0,0,1-33.14-12.59c16.84,8.8,38.86,5.97,55.09-6.49,19.74-15.15,27.22-41.32,16.01-61.663a40.566,40.566,0,0,0-4.58-6.625A50.092,50.092,0,0,1,2136.54,1080.73Z"/>
    <path id="Color_Fill_1-2" data-name="Color Fill 1" class="cls-3" d="M2178.44,1046.75c-10.86.54-11.9-20.73-19.62-28.95-5.34-5.68-22.22-15.39-21.71-24.178,0.76-12.884,27.21,2.63,35.55,10.308S2189.31,1046.21,2178.44,1046.75Zm-79.55,0c9.25-8.3,32.45,14.54,26.89,22.72C2118.04,1080.84,2089.64,1055.05,2098.89,1046.75Z"/>
  </g>
  <g id="bubble_copy_18" data-name="bubble copy 18">
    <circle id="Ellipse_2_copy_2-3" data-name="Ellipse 2 copy 2" class="cls-2" cx="2613.5" cy="1774.5" r="62.5"/>
    <path class="cls-3" d="M2613.5,1837a62.5,62.5,0,1,1,62.5-62.5A62.5,62.5,0,0,1,2613.5,1837Zm0-117.31a54.81,54.81,0,1,0,54.81,54.81A54.811,54.811,0,0,0,2613.5,1719.69Z"/>
    <path class="cls-4" d="M2612.57,1773.2c-17.32,12.44-38.82,12.09-48.02-.79-0.31-.44-0.6-0.89-0.88-1.34a50.034,50.034,0,0,1,62.69-44.84c0.3,0.37.63,0.72,0.91,1.11C2636.47,1740.22,2629.88,1760.75,2612.57,1773.2Z"/>
    <path id="Ellipse_3_copy-3" data-name="Ellipse 3 copy" class="cls-5" d="M2626.36,1726.23a50.35,50.35,0,0,1,7.68,2.73,31.963,31.963,0,0,1,1.88,2.81c9.99,16.93,2.84,41.03-15.3,55.15-18.39,14.31-42.89,14.26-55.08-1.66-0.42-.56-0.82-1.13-1.21-1.71a50.189,50.189,0,0,1-.8-8.9c0-1.21.06-2.4,0.14-3.58,0.28,0.45.57,0.9,0.88,1.34,9.2,12.88,30.7,13.23,48.02.79s23.9-32.98,14.7-45.86C2626.99,1726.95,2626.66,1726.6,2626.36,1726.23Z"/>
    <path id="Ellipse_3_copy_2-3" data-name="Ellipse 3 copy 2" class="cls-6" d="M2613.54,1824.73a49.743,49.743,0,0,1-33.14-12.59c16.84,8.8,38.86,5.97,55.09-6.49,19.74-15.15,27.22-41.32,16.01-61.66a40.652,40.652,0,0,0-4.58-6.63A50.093,50.093,0,0,1,2613.54,1824.73Z"/>
    <path id="Color_Fill_1-3" data-name="Color Fill 1" class="cls-3" d="M2655.44,1790.75c-10.86.54-11.9-20.73-19.62-28.95-5.34-5.68-22.22-15.39-21.71-24.18,0.76-12.88,27.21,2.63,35.55,10.31S2666.31,1790.21,2655.44,1790.75Zm-79.55,0c9.25-8.3,32.45,14.54,26.89,22.72C2595.04,1824.84,2566.64,1799.05,2575.89,1790.75Z"/>
  </g>
  <g id="bubble_copy_19" data-name="bubble copy 19">
    <circle id="Ellipse_2_copy_2-4" data-name="Ellipse 2 copy 2" class="cls-2" cx="2384.5" cy="1816.5" r="62.5"/>
    <path class="cls-3" d="M2384.5,1879a62.5,62.5,0,1,1,62.5-62.5A62.5,62.5,0,0,1,2384.5,1879Zm0-117.31a54.81,54.81,0,1,0,54.81,54.81A54.811,54.811,0,0,0,2384.5,1761.69Z"/>
    <path class="cls-4" d="M2383.57,1815.2c-17.32,12.44-38.82,12.09-48.02-.79-0.31-.44-0.6-0.89-0.88-1.34a50.034,50.034,0,0,1,62.69-44.84c0.3,0.37.63,0.72,0.91,1.11C2407.47,1782.22,2400.88,1802.75,2383.57,1815.2Z"/>
    <path id="Ellipse_3_copy-4" data-name="Ellipse 3 copy" class="cls-5" d="M2397.36,1768.23a50.35,50.35,0,0,1,7.68,2.73,31.963,31.963,0,0,1,1.88,2.81c9.99,16.93,2.84,41.03-15.3,55.15-18.39,14.31-42.89,14.26-55.08-1.66-0.42-.56-0.82-1.13-1.21-1.71a50.189,50.189,0,0,1-.8-8.9c0-1.21.06-2.4,0.14-3.58,0.28,0.45.57,0.9,0.88,1.34,9.2,12.88,30.7,13.23,48.02.79s23.9-32.98,14.7-45.86C2397.99,1768.95,2397.66,1768.6,2397.36,1768.23Z"/>
    <path id="Ellipse_3_copy_2-4" data-name="Ellipse 3 copy 2" class="cls-6" d="M2384.54,1866.73a49.743,49.743,0,0,1-33.14-12.59c16.84,8.8,38.86,5.97,55.09-6.49,19.74-15.15,27.22-41.32,16.01-61.66a40.652,40.652,0,0,0-4.58-6.63A50.093,50.093,0,0,1,2384.54,1866.73Z"/>
    <path id="Color_Fill_1-4" data-name="Color Fill 1" class="cls-3" d="M2426.44,1832.75c-10.86.54-11.9-20.73-19.62-28.95-5.34-5.68-22.22-15.39-21.71-24.18,0.76-12.88,27.21,2.63,35.55,10.31S2437.31,1832.21,2426.44,1832.75Zm-79.55,0c9.25-8.3,32.45,14.54,26.89,22.72C2366.04,1866.84,2337.64,1841.05,2346.89,1832.75Z"/>
  </g>
  <g id="bubble_copy_20" data-name="bubble copy 20">
    <circle id="Ellipse_2_copy_2-5" data-name="Ellipse 2 copy 2" class="cls-2" cx="1856.5" cy="2027.5" r="62.5"/>
    <path class="cls-3" d="M1856.5,2090a62.5,62.5,0,1,1,62.5-62.5A62.5,62.5,0,0,1,1856.5,2090Zm0-117.31a54.81,54.81,0,1,0,54.81,54.81A54.811,54.811,0,0,0,1856.5,1972.69Z"/>
    <path class="cls-4" d="M1855.57,2026.2c-17.32,12.44-38.82,12.09-48.02-.79-0.31-.44-0.6-0.89-0.88-1.34a50.034,50.034,0,0,1,62.69-44.84c0.3,0.37.63,0.72,0.91,1.11C1879.47,1993.22,1872.88,2013.75,1855.57,2026.2Z"/>
    <path id="Ellipse_3_copy-5" data-name="Ellipse 3 copy" class="cls-5" d="M1869.36,1979.23a50.35,50.35,0,0,1,7.68,2.73,31.963,31.963,0,0,1,1.88,2.81c9.99,16.93,2.84,41.03-15.3,55.15-18.39,14.31-42.89,14.26-55.08-1.66-0.42-.56-0.82-1.13-1.21-1.71a50.189,50.189,0,0,1-.8-8.9c0-1.21.06-2.4,0.14-3.58,0.28,0.45.57,0.9,0.88,1.34,9.2,12.88,30.7,13.23,48.02.79s23.9-32.98,14.7-45.86C1869.99,1979.95,1869.66,1979.6,1869.36,1979.23Z"/>
    <path id="Ellipse_3_copy_2-5" data-name="Ellipse 3 copy 2" class="cls-6" d="M1856.54,2077.73a49.743,49.743,0,0,1-33.14-12.59c16.84,8.8,38.86,5.97,55.09-6.49,19.74-15.15,27.22-41.32,16.01-61.66a40.652,40.652,0,0,0-4.58-6.63A50.093,50.093,0,0,1,1856.54,2077.73Z"/>
    <path id="Color_Fill_1-5" data-name="Color Fill 1" class="cls-3" d="M1898.44,2043.75c-10.86.54-11.9-20.73-19.62-28.95-5.34-5.68-22.22-15.39-21.71-24.18,0.76-12.88,27.21,2.63,35.55,10.31S1909.31,2043.21,1898.44,2043.75Zm-79.55,0c9.25-8.3,32.45,14.54,26.89,22.72C1838.04,2077.84,1809.64,2052.05,1818.89,2043.75Z"/>
  </g>
  <g id="bubble_copy_10" data-name="bubble copy 10">
    <circle id="Ellipse_2_copy_2-6" data-name="Ellipse 2 copy 2" class="cls-2" cx="2821.5" cy="448.5" r="62.5"/>
    <path class="cls-3" d="M2821.5,511a62.5,62.5,0,1,1,62.5-62.5A62.5,62.5,0,0,1,2821.5,511Zm0-117.306a54.806,54.806,0,1,0,54.81,54.806A54.809,54.809,0,0,0,2821.5,393.694Z"/>
    <path class="cls-4" d="M2820.57,447.2c-17.32,12.445-38.82,12.093-48.02-.787-0.31-.438-0.6-0.886-0.88-1.341a50.009,50.009,0,0,1,62.69-44.834c0.3,0.37.63,0.714,0.91,1.107C2844.47,414.221,2837.88,434.751,2820.57,447.2Z"/>
    <path id="Ellipse_3_copy-6" data-name="Ellipse 3 copy" class="cls-5" d="M2834.36,400.234a49.708,49.708,0,0,1,7.68,2.728,30.17,30.17,0,0,1,1.88,2.812c9.99,16.928,2.84,41.027-15.3,55.145-18.39,14.31-42.89,14.258-55.08-1.657-0.42-.557-0.82-1.128-1.21-1.708a50.265,50.265,0,0,1-.8-8.906c0-1.205.06-2.4,0.14-3.58,0.28,0.455.57,0.9,0.88,1.341,9.2,12.88,30.7,13.232,48.02.787s23.9-32.975,14.7-45.855C2834.99,400.948,2834.66,400.6,2834.36,400.234Z"/>
    <path id="Ellipse_3_copy_2-6" data-name="Ellipse 3 copy 2" class="cls-6" d="M2821.54,498.729a49.745,49.745,0,0,1-33.14-12.592c16.84,8.8,38.86,5.976,55.09-6.484,19.74-15.154,27.22-41.328,16.01-61.666a40.566,40.566,0,0,0-4.58-6.625A50.091,50.091,0,0,1,2821.54,498.729Z"/>
    <path id="Color_Fill_1-6" data-name="Color Fill 1" class="cls-3" d="M2863.44,464.751c-10.86.54-11.9-20.734-19.62-28.946-5.34-5.686-22.22-15.394-21.71-24.183,0.76-12.884,27.21,2.63,35.55,10.312S2874.31,464.21,2863.44,464.751Zm-79.55,0c9.25-8.3,32.45,14.543,26.89,22.717C2803.04,498.843,2774.64,473.047,2783.89,464.751Z"/>
  </g>
  <path id="Color_Fill_2" data-name="Color Fill 2" class="cls-7" d="M1807.33,2185.87s7.52,287.15,7.52,302.53-4.51,15.16-18.05,15.16c-21.07,0-19.56-17.96-19.56-17.96l-9.03-297.45s-52.66-30.24-54.16-102.93c-1.57-75.47,45.13-120.22,67.7-120.22s81.25,15.38,81.25,109.04S1807.33,2185.87,1807.33,2185.87Zm-32.26-190.34c-8.44,0-28.09,8.17-28.09,78.16s11.94,82.01,20.76,83.04,47.63-8.2,47.63-80.6S1783.5,1995.53,1775.07,1995.53Z"/>
  <path id="Color_Fill_2_copy_3" data-name="Color Fill 2 copy 3" class="cls-7" d="M1754.3,2076.13c0,56.75,12.59,76.93,22.28,82.52a15.442,15.442,0,0,1-5.18,1.75c-8.82,1.03-35.42-11.87-35.42-84.27s31.87-85.48,40.31-85.48a12.358,12.358,0,0,1,6.34,2.04C1771.4,1998.47,1754.3,2018.49,1754.3,2076.13Z"/>
  <path id="Color_Fill_2_copy" data-name="Color Fill 2 copy" class="cls-8" d="M1797.56,2180.98s7.52,294.04,7.52,309.42,1.53,13.6-8.28,13.6-9.79-6.19-9.79-6.19l-10.25-315.77s-52.94-29.22-52.94-96.82c0-69.59,38.9-110.45,57.93-110.45,22.18,0,71.48,16.98,71.48,99.27C1853.23,2167.69,1797.56,2180.98,1797.56,2180.98Zm-15.17-190.33c-8.43,0-32.97,13.05-32.97,83.04s16.83,85.67,25.65,86.71,47.63-11.87,47.63-84.27S1790.83,1990.65,1782.39,1990.65Z"/>
  <path id="Color_Fill_3" data-name="Color Fill 3" class="cls-9" d="M1814.15,1995.53c-2.27-2.71.2-6.8,2.38-9.49a70.917,70.917,0,0,1,9.43,7.65C1822.43,1995.76,1816.6,1998.46,1814.15,1995.53Zm0,161.2c0.41-2.36,7.1,3.66,10.4,6.79-1.23,1.29-2.45,2.48-3.67,3.59C1819.06,2165.21,1813.69,2159.34,1814.15,2156.73Zm21.98-114.79c-0.4-3.86,8.13-5.33,12.85-5.85q1.05,4.185,1.85,8.74C1845.61,2045.35,1836.52,2045.71,1836.13,2041.94Zm-4.88,61.06c0.12-5.11,13.66-4.63,20.52-4.06q-0.645,5.28-1.55,10.13C1842.98,2108.85,1831.13,2107.75,1831.25,2103Zm12.23,30.05c-1.1,2.81-2.27,5.45-3.48,7.94-6.62-.13-16.25-1.36-14.86-7.46C1826.66,2126.84,1837.63,2130.55,1843.48,2133.05Zm-15.9-113.1c-0.7-3.38,7.57-8.4,10.88-10.26a87.877,87.877,0,0,1,4.15,7.99C1837.52,2019.73,1828.22,2023.01,1827.58,2019.95Zm7.33,50.07c-0.63-2.93,11.16-3.54,18.17-3.66q0.135,3.495.14,7.16C1846.78,2074.67,1836.12,2075.67,1834.91,2070.02Z"/>
  <path id="Color_Fill_2_copy_2" data-name="Color Fill 2 copy 2" class="cls-7" d="M1742.09,2076.13c0,60.85,20.51,79.66,32.29,83.5a13.255,13.255,0,0,1-2.98.77c-8.82,1.03-35.42-11.87-35.42-84.27s31.87-85.48,40.31-85.48a10.84,10.84,0,0,1,3.91.81C1767.83,1995.21,1742.09,2013.42,1742.09,2076.13Z"/>
  <g id="bubble_copy_14" data-name="bubble copy 14">
    <path id="Ellipse_2_copy_2-7" data-name="Ellipse 2 copy 2" class="cls-10" d="M1778.42,1996.34c24.31,4.61,38.4,38.83,36.43,79.26-3.48,71.11-33.05,79.71-45.56,81.65-18.29,2.83-33.61-28.16-33.42-78.65C1736.11,2013.28,1754.6,1991.81,1778.42,1996.34Z"/>
    <path class="cls-4" d="M1789.13,2015.87c5.57,16.62.7,42.48-11.35,58.86-12.75,17.32-28.98,18.09-35.72.4-0.23-.6-0.45-1.22-0.65-1.85,2.55-37.06,20.37-63.49,38.63-61.78a19.779,19.779,0,0,1,8.53,2.94C1788.76,2014.92,1788.96,2015.36,1789.13,2015.87Z"/>
    <path id="Ellipse_3_copy-7" data-name="Ellipse 3 copy" class="cls-5" d="M1788.57,2014.44a27.326,27.326,0,0,1,4.92,3.91c0.4,1.13.78,2.31,1.11,3.54,5.83,21.4.63,51.6-11.76,70.45-13.3,20.25-31.58,22.39-40.53.93-0.32-.77-0.62-1.57-0.91-2.37-0.28-4.05-.38-8.24-0.25-12.57,0.05-1.71.15-3.39,0.26-5.05,0.2,0.63.42,1.25,0.65,1.85,6.74,17.69,22.97,16.92,35.72-.4,12.05-16.38,16.92-42.24,11.35-58.86C1788.96,2015.36,1788.76,2014.92,1788.57,2014.44Z"/>
    <path id="Ellipse_3_copy_2-7" data-name="Ellipse 3 copy 2" class="cls-6" d="M1792.15,2115.5c12.91-20.53,18.13-52.96,11.87-77.91a65.242,65.242,0,0,0-2.46-7.82c5.92,11.63,9.34,27.76,8.97,45.34-0.7,33.14-14.73,64.14-33.79,67.72-9.17,1.73-17.61-3.36-23.98-13.12C1765.15,2140.01,1781.08,2133.08,1792.15,2115.5Z"/>
    <path id="Color_Fill_1-7" data-name="Color Fill 1" class="cls-3" d="M1805.19,2095.27c-6.79,1.3-6.84-25.39-11.53-35.62-3.3-7.2-14.29-19.89-13.65-31.26,0.93-16.58,17.78,4.29,22.77,14.02C1807.67,2051.93,1811.78,2094.01,1805.19,2095.27Zm-54.93,5.04c7.4-12.05,23.48,17.17,19.23,28.72C1763.44,2145.49,1742.61,2112.76,1750.26,2100.31Z"/>
  </g>
  <g id="bubble_copy_4" data-name="bubble copy 4">
    <circle id="Ellipse_2_copy_2-8" data-name="Ellipse 2 copy 2" class="cls-2" cx="2054" cy="485" r="99"/>
    <path class="cls-3" d="M2054,584a99,99,0,1,1,99-99A99,99,0,0,1,2054,584Zm0-185.812A86.812,86.812,0,1,0,2140.81,485,86.807,86.807,0,0,0,2054,398.188Z"/>
    <path class="cls-4" d="M2052.52,482.935c-27.43,19.713-61.49,19.155-76.06-1.247-0.49-.694-0.95-1.4-1.39-2.125a79.2,79.2,0,0,1,99.42-70.98c0.45,0.557.89,1.127,1.32,1.717C2090.38,430.7,2079.95,463.221,2052.52,482.935Z"/>
    <path id="Ellipse_3_copy-8" data-name="Ellipse 3 copy" class="cls-5" d="M2074.49,408.583a78.37,78.37,0,0,1,12.04,4.291,46.531,46.531,0,0,1,2.99,4.448c15.82,26.813,4.49,64.987-24.24,87.349-29.12,22.668-67.94,22.585-87.24-2.624-0.68-.882-1.31-1.787-1.92-2.706a79.948,79.948,0,0,1-1.28-14.107c0-1.909.1-3.795,0.23-5.671,0.44,0.721.9,1.431,1.39,2.125,14.57,20.4,48.63,20.96,76.06,1.247s37.86-52.233,23.29-72.635C2075.38,409.71,2074.94,409.14,2074.49,408.583Z"/>
    <path id="Ellipse_3_copy_2-8" data-name="Ellipse 3 copy 2" class="cls-6" d="M2054.06,564.563a78.845,78.845,0,0,1-52.5-19.946c26.68,13.937,61.56,9.466,87.27-10.271,31.26-24,43.12-65.463,25.36-97.679a63.958,63.958,0,0,0-7.26-10.493A79.339,79.339,0,0,1,2054.06,564.563Z"/>
    <path id="Color_Fill_1-8" data-name="Color Fill 1" class="cls-3" d="M2120.44,510.741c-17.22.857-18.85-32.843-31.08-45.851-8.46-9.006-35.2-24.383-34.39-38.305,1.2-20.408,43.1,4.167,56.3,16.335S2137.65,509.885,2120.44,510.741Zm-126.01,0c14.65-13.141,51.4,23.036,42.58,35.984C2024.75,564.743,1979.78,523.882,1994.43,510.741Z"/>
  </g>
  <g id="bubble_copy_5" data-name="bubble copy 5">
    <circle id="Ellipse_2_copy_2-9" data-name="Ellipse 2 copy 2" class="cls-2" cx="1952" cy="762" r="99"/>
    <path class="cls-3" d="M1952,861a99,99,0,1,1,99-99A99,99,0,0,1,1952,861Zm0-185.812A86.812,86.812,0,1,0,2038.81,762,86.807,86.807,0,0,0,1952,675.188Z"/>
    <path class="cls-4" d="M1950.52,759.935c-27.43,19.713-61.49,19.155-76.06-1.247-0.49-.694-0.95-1.4-1.39-2.125a79.2,79.2,0,0,1,99.42-70.98c0.45,0.557.89,1.127,1.32,1.717C1988.38,707.7,1977.95,740.221,1950.52,759.935Z"/>
    <path id="Ellipse_3_copy-9" data-name="Ellipse 3 copy" class="cls-5" d="M1972.49,685.583a78.37,78.37,0,0,1,12.04,4.291,46.531,46.531,0,0,1,2.99,4.448c15.82,26.813,4.49,64.987-24.24,87.349-29.12,22.668-67.94,22.585-87.24-2.624-0.68-.882-1.31-1.787-1.92-2.706a79.948,79.948,0,0,1-1.28-14.107c0-1.909.1-3.8,0.23-5.671,0.44,0.721.9,1.431,1.39,2.125,14.57,20.4,48.63,20.96,76.06,1.247s37.86-52.233,23.29-72.635C1973.38,686.71,1972.94,686.14,1972.49,685.583Z"/>
    <path id="Ellipse_3_copy_2-9" data-name="Ellipse 3 copy 2" class="cls-6" d="M1952.06,841.563a78.845,78.845,0,0,1-52.5-19.946c26.68,13.937,61.56,9.466,87.27-10.271,31.26-24,43.12-65.463,25.36-97.679a63.958,63.958,0,0,0-7.26-10.493A79.339,79.339,0,0,1,1952.06,841.563Z"/>
    <path id="Color_Fill_1-9" data-name="Color Fill 1" class="cls-3" d="M2018.44,787.741c-17.22.857-18.85-32.843-31.08-45.851-8.46-9.006-35.2-24.383-34.39-38.3,1.2-20.408,43.1,4.167,56.3,16.335S2035.65,786.885,2018.44,787.741Zm-126.01,0c14.65-13.141,51.4,23.036,42.58,35.984C1922.75,841.743,1877.78,800.882,1892.43,787.741Z"/>
  </g>
  <g id="bubble_copy_7" data-name="bubble copy 7">
    <circle id="Ellipse_2_copy_2-10" data-name="Ellipse 2 copy 2" class="cls-2" cx="2231" cy="1092" r="99"/>
    <path class="cls-3" d="M2231,1191a99,99,0,1,1,99-99A99,99,0,0,1,2231,1191Zm0-185.81a86.81,86.81,0,1,0,86.81,86.81A86.8,86.8,0,0,0,2231,1005.19Z"/>
    <path class="cls-4" d="M2229.52,1089.93c-27.43,19.72-61.49,19.16-76.06-1.24-0.49-.7-0.95-1.41-1.39-2.13a79.222,79.222,0,0,1,99.42-70.98c0.45,0.56.89,1.13,1.32,1.72C2267.38,1037.7,2256.95,1070.22,2229.52,1089.93Z"/>
    <path id="Ellipse_3_copy-10" data-name="Ellipse 3 copy" class="cls-5" d="M2251.49,1015.58a78.578,78.578,0,0,1,12.04,4.29,47.33,47.33,0,0,1,2.99,4.45c15.82,26.82,4.49,64.99-24.24,87.35-29.12,22.67-67.94,22.59-87.24-2.62-0.68-.89-1.31-1.79-1.92-2.71a79.965,79.965,0,0,1-1.28-14.11c0-1.9.1-3.79,0.23-5.67,0.44,0.72.9,1.43,1.39,2.13,14.57,20.4,48.63,20.96,76.06,1.24s37.86-52.23,23.29-72.63C2252.38,1016.71,2251.94,1016.14,2251.49,1015.58Z"/>
    <path id="Ellipse_3_copy_2-10" data-name="Ellipse 3 copy 2" class="cls-6" d="M2231.06,1171.56a78.855,78.855,0,0,1-52.5-19.94c26.68,13.93,61.56,9.46,87.27-10.27,31.26-24.01,43.12-65.47,25.36-97.68a64.018,64.018,0,0,0-7.26-10.5A79.34,79.34,0,0,1,2231.06,1171.56Z"/>
    <path id="Color_Fill_1-10" data-name="Color Fill 1" class="cls-3" d="M2297.44,1117.74c-17.22.86-18.85-32.84-31.08-45.85-8.46-9.01-35.2-24.38-34.39-38.31,1.2-20.4,43.1,4.17,56.3,16.34S2314.65,1116.88,2297.44,1117.74Zm-126.01,0c14.65-13.14,51.4,23.04,42.58,35.99C2201.75,1171.74,2156.78,1130.88,2171.43,1117.74Z"/>
  </g>
  <g id="bubble_copy_8" data-name="bubble copy 8">
    <circle id="Ellipse_2_copy_2-11" data-name="Ellipse 2 copy 2" class="cls-2" cx="2689" cy="1529" r="99"/>
    <path class="cls-3" d="M2689,1628a99,99,0,1,1,99-99A99,99,0,0,1,2689,1628Zm0-185.81a86.81,86.81,0,1,0,86.81,86.81A86.8,86.8,0,0,0,2689,1442.19Z"/>
    <path class="cls-4" d="M2687.52,1526.93c-27.43,19.72-61.49,19.16-76.06-1.24-0.49-.7-0.95-1.41-1.39-2.13a79.222,79.222,0,0,1,99.42-70.98c0.45,0.56.89,1.13,1.32,1.72C2725.38,1474.7,2714.95,1507.22,2687.52,1526.93Z"/>
    <path id="Ellipse_3_copy-11" data-name="Ellipse 3 copy" class="cls-5" d="M2709.49,1452.58a78.578,78.578,0,0,1,12.04,4.29,47.33,47.33,0,0,1,2.99,4.45c15.82,26.82,4.49,64.99-24.24,87.35-29.12,22.67-67.94,22.59-87.24-2.62-0.68-.89-1.31-1.79-1.92-2.71a79.965,79.965,0,0,1-1.28-14.11c0-1.9.1-3.79,0.23-5.67,0.44,0.72.9,1.43,1.39,2.13,14.57,20.4,48.63,20.96,76.06,1.24s37.86-52.23,23.29-72.63C2710.38,1453.71,2709.94,1453.14,2709.49,1452.58Z"/>
    <path id="Ellipse_3_copy_2-11" data-name="Ellipse 3 copy 2" class="cls-6" d="M2689.06,1608.56a78.855,78.855,0,0,1-52.5-19.94c26.68,13.93,61.56,9.46,87.27-10.27,31.26-24.01,43.12-65.47,25.36-97.68a64.018,64.018,0,0,0-7.26-10.5A79.34,79.34,0,0,1,2689.06,1608.56Z"/>
    <path id="Color_Fill_1-11" data-name="Color Fill 1" class="cls-3" d="M2755.44,1554.74c-17.22.86-18.85-32.84-31.08-45.85-8.46-9.01-35.2-24.38-34.39-38.31,1.2-20.4,43.1,4.17,56.3,16.34S2772.65,1553.88,2755.44,1554.74Zm-126.01,0c14.65-13.14,51.4,23.04,42.58,35.99C2659.75,1608.74,2614.78,1567.88,2629.43,1554.74Z"/>
  </g>
  <g id="bubble_copy_9" data-name="bubble copy 9">
    <circle id="Ellipse_2_copy_2-12" data-name="Ellipse 2 copy 2" class="cls-2" cx="2132" cy="1901" r="99"/>
    <path class="cls-3" d="M2132,2000a99,99,0,1,1,99-99A99,99,0,0,1,2132,2000Zm0-185.81a86.81,86.81,0,1,0,86.81,86.81A86.8,86.8,0,0,0,2132,1814.19Z"/>
    <path class="cls-4" d="M2130.52,1898.93c-27.43,19.72-61.49,19.16-76.06-1.24-0.49-.7-0.95-1.41-1.39-2.13a79.222,79.222,0,0,1,99.42-70.98c0.45,0.56.89,1.13,1.32,1.72C2168.38,1846.7,2157.95,1879.22,2130.52,1898.93Z"/>
    <path id="Ellipse_3_copy-12" data-name="Ellipse 3 copy" class="cls-5" d="M2152.49,1824.58a78.578,78.578,0,0,1,12.04,4.29,47.33,47.33,0,0,1,2.99,4.45c15.82,26.82,4.49,64.99-24.24,87.35-29.12,22.67-67.94,22.59-87.24-2.62-0.68-.89-1.31-1.79-1.92-2.71a79.965,79.965,0,0,1-1.28-14.11c0-1.9.1-3.79,0.23-5.67,0.44,0.72.9,1.43,1.39,2.13,14.57,20.4,48.63,20.96,76.06,1.24s37.86-52.23,23.29-72.63C2153.38,1825.71,2152.94,1825.14,2152.49,1824.58Z"/>
    <path id="Ellipse_3_copy_2-12" data-name="Ellipse 3 copy 2" class="cls-6" d="M2132.06,1980.56a78.855,78.855,0,0,1-52.5-19.94c26.68,13.93,61.56,9.46,87.27-10.27,31.26-24.01,43.12-65.47,25.36-97.68a64.018,64.018,0,0,0-7.26-10.5A79.34,79.34,0,0,1,2132.06,1980.56Z"/>
    <path id="Color_Fill_1-12" data-name="Color Fill 1" class="cls-3" d="M2198.44,1926.74c-17.22.86-18.85-32.84-31.08-45.85-8.46-9.01-35.2-24.38-34.39-38.31,1.2-20.4,43.1,4.17,56.3,16.34S2215.65,1925.88,2198.44,1926.74Zm-126.01,0c14.65-13.14,51.4,23.04,42.58,35.99C2102.75,1980.74,2057.78,1939.88,2072.43,1926.74Z"/>
  </g>
  <circle id="Ellipse_2_copy_2-13" data-name="Ellipse 2 copy 2" class="cls-2" cx="2503.5" cy="312.5" r="198.5"/>
  <path class="cls-3" d="M2503.5,511c-109.63,0-198.5-88.872-198.5-198.5S2393.87,114,2503.5,114,2702,202.872,2702,312.5,2613.13,511,2503.5,511Zm0.5-382a184,184,0,1,0,184,184A184,184,0,0,0,2504,129Z"/>
  <path class="cls-4" d="M2501.14,308.606c-58.72,42.115-131.6,40.923-162.79-2.663-1.08-1.507-2.08-3.051-3.03-4.618A169.688,169.688,0,0,1,2548.14,149.73c0.98,1.2,1.93,2.429,2.84,3.7C2582.17,197.017,2559.85,266.491,2501.14,308.606Z"/>
  <path id="Ellipse_3_copy-13" data-name="Ellipse 3 copy" class="cls-5" d="M2528.45,355.044c-62.34,48.428-145.42,48.25-186.73-5.606-1.47-1.921-2.86-3.887-4.19-5.889a170.77,170.77,0,0,1-2.65-30.03q0-6.151.44-12.194c0.95,1.567,1.95,3.111,3.03,4.618,31.19,43.586,104.07,44.778,162.79,2.663s81.03-111.589,49.84-155.175c-0.91-1.272-1.86-2.5-2.84-3.7a168.718,168.718,0,0,1,25.81,9.177,103.69,103.69,0,0,1,6.38,9.526C2614.19,225.716,2589.94,307.27,2528.45,355.044Z"/>
  <path id="Ellipse_3_copy_2-13" data-name="Ellipse 3 copy 2" class="cls-6" d="M2504.44,483a168.955,168.955,0,0,1-112.39-42.59c57.11,29.777,131.78,20.2,186.8-21.968,66.92-51.283,92.29-139.854,54.28-208.68a137.872,137.872,0,0,0-15.36-22.3A169.006,169.006,0,0,1,2674,313.519C2674,407.121,2598.09,483,2504.44,483Z"/>
  <path id="Color_Fill_1-13" data-name="Color Fill 1" class="cls-3" d="M2646.51,368.012c-36.85,1.83-40.35-70.165-66.52-97.955-18.12-19.24-75.35-52.091-73.6-81.836,2.56-43.6,92.23,8.9,120.5,34.9S2683.35,366.183,2646.51,368.012Zm-269.7,0c31.36-28.074,110,49.214,91.14,76.876C2441.71,483.381,2345.45,396.087,2376.81,368.012Z"/>
  <circle id="Ellipse_2_copy_2-14" data-name="Ellipse 2 copy 2" class="cls-2" cx="2517.5" cy="1337.5" r="178.5"/>
  <path class="cls-3" d="M2517.5,1516A178.5,178.5,0,1,1,2696,1337.5,178.5,178.5,0,0,1,2517.5,1516Zm0.45-343.51a165.46,165.46,0,1,0,165.46,165.46A165.461,165.461,0,0,0,2517.95,1172.49Z"/>
  <path class="cls-4" d="M2515.38,1334c-52.8,37.87-118.34,36.8-146.39-2.4-0.97-1.35-1.87-2.74-2.72-4.15a152.583,152.583,0,0,1,191.37-136.32c0.88,1.08,1.74,2.18,2.56,3.33C2588.24,1233.65,2568.18,1296.13,2515.38,1334Z"/>
  <path id="Ellipse_3_copy-14" data-name="Ellipse 3 copy" class="cls-5" d="M2539.93,1375.76c-56.05,43.55-130.76,43.39-167.91-5.04q-1.98-2.6-3.76-5.3a153.014,153.014,0,0,1-2.39-27c0-3.69.14-7.35,0.4-10.97,0.85,1.41,1.75,2.8,2.72,4.15,28.05,39.2,93.59,40.27,146.39,2.4s72.86-100.35,44.82-139.54c-0.82-1.15-1.68-2.25-2.56-3.33a151.821,151.821,0,0,1,23.21,8.25,91.365,91.365,0,0,1,5.74,8.57C2617.04,1259.46,2595.23,1332.8,2539.93,1375.76Z"/>
  <path id="Ellipse_3_copy_2-14" data-name="Ellipse 3 copy 2" class="cls-6" d="M2518.35,1490.82a151.92,151.92,0,0,1-101.07-38.3c51.35,26.78,118.5,18.16,167.98-19.75,60.17-46.12,82.99-125.77,48.81-187.66a123.762,123.762,0,0,0-13.82-20.05A152.382,152.382,0,0,1,2518.35,1490.82Z"/>
  <path id="Color_Fill_1-14" data-name="Color Fill 1" class="cls-3" d="M2646.1,1387.42c-33.14,1.64-36.29-63.1-59.82-88.09-16.29-17.3-67.75-46.84-66.18-73.59,2.31-39.2,82.94,8.01,108.35,31.38S2679.23,1385.77,2646.1,1387.42Zm-242.52,0c28.2-25.25,98.91,44.25,81.95,69.13C2461.93,1491.16,2375.38,1412.67,2403.58,1387.42Z"/>
</svg>
