<?xml version="1.0" encoding="UTF-8" standalone="no"?>
<svg version="1.1" xmlns="http://www.w3.org/2000/svg" xmlns:xlink="http://www.w3.org/1999/xlink" xmlns:i="http://ns.adobe.com/AdobeIllustrator/10.0/" width="3000" height="3000">
	<g id="dp_dp001" transform="matrix(1,0,0,1,-4343.79,-2504.34)">
		<path id="dp_path002" fill="#31323d" fill-rule="evenodd" fill-opacity="0.294118" d="M 5029,5061 C 5095.27,5061 5149,5073.54 5149,5089 C 5149,5104.46 5095.27,5117 5029,5117 C 4962.73,5117 4909,5104.46 4909,5089 C 4909,5073.54 4962.73,5061 5029,5061 Z "/>
		<path id="dp_path003" fill="#31323d" fill-rule="evenodd" fill-opacity="0.294118" d="M 4590,5142 C 4656.27,5142 4710,5154.54 4710,5170 C 4710,5185.46 4656.27,5198 4590,5198 C 4523.73,5198 4470,5185.46 4470,5170 C 4470,5154.54 4523.73,5142 4590,5142 Z "/>
		<path id="dp_path004" fill="#31323d" fill-rule="evenodd" fill-opacity="0.294118" d="M 4771,4903 C 4837.27,4903 4891,4921.13 4891,4943.5 C 4891,4965.87 4837.27,4984 4771,4984 C 4704.73,4984 4651,4965.87 4651,4943.5 C 4651,4921.13 4704.73,4903 4771,4903 Z "/>
		<path id="dp_path005" fill="#ffccd8" fill-rule="evenodd" stroke="#31323d" stroke-width="13.3333" stroke-linejoin="round" stroke-linecap="round" d="M 4823.35,4676.94 C 4863.66,4621.11 4959.62,4618.57 4997.43,4655.57 S 5032.04,4744.89 4991.73,4800.72 C 4963.56,4842.56 4873.42,4941.22 4832.16,4943.18 S 4691.11,4847.47 4661.49,4806.67 C 4619.24,4752.33 4619.37,4701.07 4654.86,4664.78 S 4781.1,4622.59 4823.35,4676.94 Z "/>
		<path id="dp_path006" fill="#31323d" fill-rule="evenodd" fill-opacity="0.501961" d="M 4832.16,4943.18 C 4834.39,4952.97 4689.59,4857.91 4661.49,4806.67 C 4602.88,4728.96 4646.39,4673.92 4654.86,4664.78 S 4629.27,4697.41 4661.89,4757.33 C 4708.21,4842.42 4829.93,4933.39 4832.16,4943.18 Z "/>
		<path id="dp_path007" fill="#31323d" fill-rule="evenodd" fill-opacity="0.501961" d="M 4843.04,4931.99 C 4885.44,4862.04 4932.26,4844.58 4915.36,4849.31 C 4900.96,4853.34 4899.87,4922.83 4857.76,4930.64 C 4851.7,4931.76 4839.85,4937.23 4843.04,4931.99 Z "/>
		<path id="dp_path008" fill="#e75f5a" fill-rule="evenodd" d="M 4756.92,4785.66 C 4758.28,4785.66 4759.98,4785.45 4762.03,4785.03 L 4763.79,4790.77 L 4746,4797.08 C 4743.68,4793.9 4741.72,4791.42 4740.12,4789.65 C 4737.13,4786.29 4733.52,4783.24 4729.28,4780.48 C 4728.06,4779.68 4726.71,4778.84 4725.21,4777.94 C 4716.2,4772.53 4711.69,4764.45 4711.69,4753.71 C 4711.69,4746.94 4713.35,4741.1 4716.66,4736.19 C 4720.22,4730.87 4725.19,4727.58 4731.58,4726.32 C 4732.99,4726.04 4734.57,4725.9 4736.34,4725.9 C 4743.77,4725.9 4749.74,4728.54 4754.27,4733.82 C 4758.61,4738.81 4760.78,4745.07 4760.78,4752.6 C 4760.78,4759.37 4759.15,4765.14 4755.88,4769.89 C 4752.42,4774.99 4747.48,4778.19 4741.05,4779.48 C 4744.45,4781.6 4746.95,4783 4748.53,4783.69 C 4751.47,4785.01 4754.27,4785.66 4756.92,4785.66 Z M 4736.14,4772.29 C 4739.83,4772.29 4742.59,4769.74 4744.4,4764.64 C 4745.71,4761 4746.36,4756.92 4746.36,4752.38 C 4746.36,4748.18 4745.69,4744.3 4744.33,4740.75 C 4742.51,4735.94 4739.84,4733.55 4736.34,4733.55 C 4731.73,4733.55 4728.59,4737.37 4726.95,4745.02 C 4726.35,4747.88 4726.05,4750.56 4726.05,4753.08 C 4726.05,4761.54 4727.85,4767.33 4731.45,4770.46 C 4732.84,4771.68 4734.4,4772.29 4736.14,4772.29 Z "/>
		<path id="dp_path009" fill="#e75f5a" fill-rule="evenodd" d="M 4762.37,4726.67 C 4766.39,4727.05 4770.16,4727.24 4773.71,4727.24 L 4793.24,4727.24 C 4797.3,4727.24 4801.61,4726.96 4806.2,4726.4 L 4806.2,4742.71 L 4800.46,4742.71 L 4799.69,4740.61 C 4798.15,4736.35 4795.45,4734.22 4791.59,4734.22 L 4790.95,4734.22 L 4791.02,4763.62 C 4791.02,4766.95 4791.46,4769.12 4792.35,4770.15 C 4793.33,4771.31 4795.42,4771.9 4798.63,4771.9 L 4798.63,4777.67 L 4769.93,4777.67 L 4770,4771.9 L 4771.05,4771.83 C 4771.8,4771.78 4772.61,4771.71 4773.49,4771.62 C 4774.34,4771.57 4775,4771.41 4775.46,4771.13 C 4776.81,4770.28 4777.48,4767.99 4777.48,4764.25 L 4777.48,4734.3 L 4777.07,4734.3 C 4772.49,4734.3 4769.5,4737.11 4768.11,4742.71 L 4762.37,4742.71 Z "/>
		<path id="dp_path010" fill="#e75f5a" fill-rule="evenodd" d="M 4869.97,4742.71 L 4864.09,4742.71 C 4863.85,4740.15 4862.84,4737.91 4861.07,4736 C 4859.3,4734.13 4857.15,4733.19 4854.63,4733.19 C 4846.45,4733.19 4842.36,4739.68 4842.36,4752.66 C 4842.36,4757.6 4843.16,4761.71 4844.74,4764.98 C 4846.85,4769.32 4850.1,4771.49 4854.49,4771.49 C 4857.52,4771.49 4859.93,4770.45 4861.71,4768.39 C 4863.34,4766.53 4864.37,4764.03 4864.79,4760.91 L 4870.87,4760.91 L 4870.81,4774.65 C 4865.2,4777.6 4859.27,4779.08 4853.02,4779.08 C 4845.18,4779.08 4839.01,4776.55 4834.52,4771.49 C 4830.18,4766.68 4828,4760.3 4828,4752.36 C 4828,4744.2 4830.41,4737.75 4835.22,4732.98 C 4840.03,4728.22 4846.53,4725.84 4854.7,4725.84 C 4856.52,4725.84 4857.9,4725.91 4858.84,4726.07 C 4859.63,4726.31 4861,4726.52 4862.96,4726.7 L 4864.43,4726.83 C 4866.16,4726.83 4868.01,4726.36 4869.97,4725.41 Z "/>
		<path id="dp_path011" fill="#e75f5a" fill-rule="evenodd" d="M 4870.89,4771.73 C 4873.41,4771.73 4875.35,4770.84 4876.7,4769.07 C 4877.44,4768.08 4878.4,4766.05 4879.57,4762.98 L 4888.11,4740.63 C 4889.13,4737.92 4889.65,4736.17 4889.65,4735.38 C 4889.65,4733.88 4888.45,4733.14 4886.07,4733.14 L 4884.53,4733.14 L 4884.53,4727.24 L 4907.45,4727.24 L 4907.31,4728.92 C 4907.31,4729.06 4907.31,4729.2 4907.31,4729.34 C 4907.31,4730.88 4907.89,4733.17 4909.05,4736.2 L 4919.84,4764.09 C 4921.81,4769.18 4924.53,4771.73 4928.03,4771.73 L 4928.03,4777.67 L 4900.57,4777.67 L 4900.57,4771.66 C 4904.4,4771.66 4906.32,4770.68 4906.32,4768.73 C 4906.32,4767.93 4906.15,4766.93 4905.84,4765.72 C 4905.69,4765.21 4905.08,4763.44 4904.01,4760.4 L 4889.87,4760.4 L 4888.33,4764.59 C 4887.67,4766.37 4887.33,4767.82 4887.33,4768.93 C 4887.33,4770.24 4887.97,4771.06 4889.23,4771.37 C 4889.75,4771.52 4890.94,4771.59 4892.81,4771.59 L 4892.81,4777.67 L 4870.89,4777.67 Z M 4897.08,4739.29 C 4896.98,4739.95 4896.25,4742.25 4894.91,4746.17 L 4892.52,4753.1 L 4901.34,4753.1 L 4898.83,4746.31 C 4897.98,4744.02 4897.41,4741.68 4897.08,4739.29 Z "/>
		<path id="dp_path012" fill="#e75f5a" fill-rule="evenodd" d="M 4920.59,4726.67 C 4924.6,4727.05 4928.38,4727.24 4931.92,4727.24 L 4951.46,4727.24 C 4955.52,4727.24 4959.83,4726.96 4964.41,4726.4 L 4964.41,4742.71 L 4958.67,4742.71 L 4957.91,4740.61 C 4956.37,4736.35 4953.67,4734.22 4949.8,4734.22 L 4949.17,4734.22 L 4949.23,4763.62 C 4949.23,4766.95 4949.68,4769.12 4950.57,4770.15 C 4951.54,4771.31 4953.64,4771.9 4956.84,4771.9 L 4956.84,4777.67 L 4928.15,4777.67 L 4928.21,4771.9 L 4929.27,4771.83 C 4930.01,4771.78 4930.82,4771.71 4931.71,4771.62 C 4932.56,4771.57 4933.21,4771.41 4933.68,4771.13 C 4935.02,4770.28 4935.69,4767.99 4935.69,4764.25 L 4935.69,4734.3 L 4935.28,4734.3 C 4930.71,4734.3 4927.72,4737.11 4926.33,4742.71 L 4920.59,4742.71 Z "/>
		<path id="dp_path013" fill="#9eeec5" fill-rule="evenodd" stroke="#31323d" stroke-width="13.3333" stroke-linejoin="round" stroke-linecap="round" d="M 5054.35,4825.94 C 5094.66,4770.11 5190.62,4767.57 5228.43,4804.57 S 5263.04,4893.89 5222.73,4949.72 C 5194.56,4991.56 5104.42,5090.22 5063.16,5092.18 S 4922.11,4996.47 4892.49,4955.67 C 4850.24,4901.33 4850.37,4850.07 4885.86,4813.78 S 5012.1,4771.59 5054.35,4825.94 Z "/>
		<path id="dp_path014" fill="#e75f5a" fill-rule="evenodd" d="M 5060.03,4878.95 C 5063.21,4879.83 5065.76,4881.52 5067.67,4883.99 C 5069.54,4886.47 5070.48,4889.36 5070.48,4892.68 C 5070.48,4897.01 5068.87,4900.47 5065.64,4903.03 C 5062.65,4905.46 5058.94,4906.67 5054.51,4906.67 L 5023.69,4906.67 L 5023.69,4900.81 L 5025.1,4900.81 C 5027.29,4900.81 5028.73,4900.02 5029.44,4898.44 C 5029.91,4897.41 5030.14,4895.63 5030.14,4893.1 L 5030.14,4868.22 C 5030.14,4865.84 5029.7,4864.25 5028.8,4863.47 C 5027.92,4862.71 5026.26,4862.34 5023.83,4862.34 L 5023.83,4856.24 L 5054.03,4856.24 C 5057.77,4856.24 5060.9,4857.34 5063.43,4859.53 C 5066.14,4861.82 5067.5,4864.82 5067.5,4868.51 C 5067.5,4873.33 5065.01,4876.81 5060.03,4878.95 Z M 5045.64,4876.5 C 5050.91,4876.5 5053.55,4874.28 5053.55,4869.85 C 5053.55,4865.45 5050.91,4863.25 5045.64,4863.25 L 5043.74,4863.25 L 5043.74,4876.5 Z M 5048.14,4900.25 C 5053.46,4900.25 5056.12,4897.27 5056.12,4891.29 C 5056.12,4888.4 5055.14,4886.34 5053.18,4885.12 C 5051.65,4884.2 5049.31,4883.73 5046.18,4883.73 L 5043.74,4883.73 L 5043.74,4893.33 C 5043.74,4895.47 5043.95,4897.03 5044.37,4898.01 C 5045.02,4899.51 5046.28,4900.25 5048.14,4900.25 Z "/>
		<path id="dp_path015" fill="#e75f5a" fill-rule="evenodd" d="M 5072.23,4900.65 L 5072.71,4900.65 L 5073.77,4900.59 C 5075.68,4900.43 5076.97,4900.01 5077.62,4899.31 C 5078.08,4898.8 5078.36,4897.46 5078.46,4895.31 L 5078.59,4892.16 L 5078.46,4867.12 C 5078.46,4865.17 5077.9,4863.81 5076.78,4863.06 C 5075.93,4862.5 5074.44,4862.22 5072.3,4862.22 L 5072.3,4856.24 L 5105.49,4856.18 C 5109.34,4856.18 5112.81,4855.9 5115.9,4855.34 L 5115.9,4871.71 L 5109.87,4871.71 C 5109.36,4868.41 5108.19,4866.16 5106.36,4864.95 C 5104.82,4863.93 5102.3,4863.42 5098.79,4863.42 L 5092.13,4863.42 L 5092.13,4876.26 L 5095.14,4876.26 C 5097.75,4876.26 5099.48,4875.89 5100.32,4875.15 C 5101.16,4874.41 5101.89,4872.73 5102.49,4870.12 L 5108.36,4870.12 L 5108.36,4890.61 L 5102.29,4890.55 C 5102.29,4887.18 5101.38,4885.07 5099.55,4884.22 C 5098.76,4883.86 5097.4,4883.68 5095.5,4883.68 L 5092.06,4883.68 L 5092.13,4894.69 C 5092.13,4896.75 5092.79,4898.15 5094.1,4898.89 C 5095.08,4899.45 5096.67,4899.73 5098.86,4899.73 C 5102.56,4899.73 5105.34,4899.12 5107.22,4897.91 C 5109.41,4896.46 5110.78,4894 5111.34,4890.53 L 5117.3,4890.53 L 5117.3,4907.45 C 5114.31,4906.93 5110.5,4906.67 5105.88,4906.67 L 5072.23,4906.67 Z "/>
		<path id="dp_path016" fill="#e75f5a" fill-rule="evenodd" d="M 4986.44,4940.18 L 4986.01,4947.04 L 4985.45,4963.5 C 4985.45,4963.73 4985.45,4963.96 4985.45,4964.2 C 4985.45,4969.29 4987.37,4971.83 4991.19,4971.83 C 4991.66,4971.83 4992.13,4971.95 4992.59,4972.19 L 4992.59,4977.72 L 4969.46,4977.72 L 4969.46,4971.83 L 4970.17,4971.9 C 4971.71,4971.9 4972.91,4971.66 4973.76,4971.2 C 4974.56,4970.73 4975.22,4969.82 4975.74,4968.46 C 4976.44,4966.61 4976.79,4964.16 4976.79,4961.11 C 4976.79,4959.35 4977.1,4954.82 4977.71,4947.54 C 4977.98,4944.18 4978.12,4941.45 4978.12,4939.34 C 4978.12,4935.19 4976.11,4933.12 4972.1,4933.12 L 4972.1,4927.22 L 4996.44,4927.22 C 4996.63,4929.32 4997.03,4931.35 4997.63,4933.31 C 4998.05,4934.67 4998.78,4936.58 4999.8,4939.06 C 5000.6,4940.97 5002.09,4944.66 5004.28,4950.12 C 5005.73,4953.77 5006.45,4957.67 5006.45,4961.81 C 5007.1,4958.5 5008.2,4954.76 5009.75,4950.61 C 5010.27,4949.45 5011.74,4945.86 5014.16,4939.83 C 5015.46,4936.66 5016.25,4934.6 5016.54,4933.67 C 5017.19,4931.67 5017.51,4929.51 5017.51,4927.22 L 5041.21,4927.22 L 5041.21,4933.25 L 5040.85,4933.32 C 5038.51,4933.32 5036.97,4933.79 5036.23,4934.72 C 5035.48,4935.71 5035.1,4937.41 5035.1,4939.84 C 5035.1,4941.99 5035.34,4946.47 5035.8,4953.29 C 5036.04,4956.7 5036.16,4959.37 5036.16,4961.34 C 5036.16,4964.28 5036.39,4966.44 5036.86,4967.85 C 5037.69,4970.37 5039.25,4971.67 5041.53,4971.76 L 5043.42,4971.83 L 5043.42,4977.72 L 5015.76,4977.72 L 5015.76,4971.9 L 5016.25,4971.97 C 5020.69,4971.97 5022.91,4970.43 5022.91,4967.35 L 5022.91,4965.81 C 5022.91,4963.66 5022.77,4960.09 5022.49,4955.1 C 5022.26,4951.18 5022.14,4948.03 5022.14,4945.65 C 5022.14,4945.23 5022.14,4944.83 5022.14,4944.45 L 5022.21,4941.24 C 5021.32,4944.37 5019.83,4948.52 5017.72,4953.7 L 5012.76,4965.89 C 5011.12,4969.9 5010,4973.89 5009.39,4977.85 L 5000.57,4979.19 L 4999.1,4974 L 4988.39,4946.07 C 4987.55,4943.87 4986.9,4941.9 4986.44,4940.18 Z "/>
		<path id="dp_path017" fill="#e75f5a" fill-rule="evenodd" d="M 5043.02,4971.7 L 5044.22,4971.7 C 5046.18,4971.7 5047.56,4971.37 5048.34,4970.71 C 5049.14,4970.06 5049.61,4968.76 5049.75,4966.79 L 5049.88,4964.62 L 5049.88,4940.18 C 5049.88,4937.28 5049.46,4935.39 5048.63,4934.5 C 5047.79,4933.61 5045.94,4933.17 5043.09,4933.17 L 5043.09,4927.22 L 5070.08,4927.22 L 5070.08,4933.24 L 5069.45,4933.24 C 5066.71,4933.24 5064.95,4933.7 5064.15,4934.64 C 5063.36,4935.62 5062.96,4937.54 5062.96,4940.39 L 5062.96,4965.53 C 5062.96,4968.06 5063.54,4969.77 5064.72,4970.64 C 5065.74,4971.39 5067.52,4971.77 5070.08,4971.77 L 5070.08,4977.66 L 5043.02,4977.66 Z "/>
		<path id="dp_path018" fill="#e75f5a" fill-rule="evenodd" d="M 5085.3,4940.96 C 5085.3,4941.56 5085.32,4942.47 5085.36,4943.68 C 5085.41,4944.9 5085.43,4945.81 5085.43,4946.41 L 5085.43,4963.51 C 5085.43,4966.12 5085.6,4967.92 5085.93,4968.9 C 5086.58,4970.86 5087.93,4971.84 5089.98,4971.84 C 5090.69,4971.84 5091.46,4971.73 5092.29,4971.5 L 5092.29,4977.72 L 5070.61,4977.72 L 5070.68,4971.64 L 5071.85,4971.7 C 5072,4971.7 5072.15,4971.7 5072.28,4971.7 C 5074.29,4971.7 5075.64,4970.82 5076.36,4969.04 C 5076.72,4968.05 5076.92,4966.19 5076.97,4963.44 L 5077.33,4940.43 C 5077.33,4940.21 5077.33,4939.99 5077.33,4939.8 C 5077.33,4937.93 5077.14,4936.52 5076.76,4935.59 C 5076.16,4933.95 5074.92,4933.14 5073.05,4933.14 L 5071.01,4933.35 L 5071.01,4927.22 L 5092.29,4927.22 C 5092.81,4929.37 5093.44,4931.05 5094.19,4932.27 C 5094.52,4932.78 5095.5,4934.27 5097.13,4936.75 L 5105.54,4949.49 C 5107.46,4952.39 5108.93,4955.68 5109.96,4959.37 C 5109.72,4957.28 5109.6,4954.27 5109.6,4950.35 L 5109.6,4945.85 C 5109.6,4945.66 5109.62,4945.13 5109.67,4944.24 C 5109.67,4944.24 5109.67,4943.28 5109.67,4941.37 L 5109.67,4938.79 C 5109.62,4938.5 5109.53,4937.99 5109.39,4937.25 C 5109.06,4935.38 5108.29,4934.18 5107.08,4933.67 C 5106.33,4933.34 5104.84,4933.18 5102.61,4933.18 L 5102.61,4927.22 L 5124.44,4927.22 L 5124.44,4933 C 5121.55,4933 5119.69,4933.82 5118.85,4935.45 C 5118.29,4936.47 5118.01,4938.63 5118.01,4941.9 L 5117.85,4971.64 C 5117.85,4972.42 5117.92,4973.43 5118.07,4974.65 C 5118.16,4975.59 5118.3,4976.61 5118.48,4977.73 L 5107.92,4979.41 C 5107.03,4977.08 5105.99,4974.84 5104.78,4972.68 C 5103.89,4971.15 5102.58,4969.05 5100.84,4966.39 L 5088.37,4947.18 C 5087.26,4945.46 5086.23,4943.39 5085.3,4940.96 Z "/>
		<path id="dp_path019" fill="#e75f5a" fill-rule="evenodd" d="M 5125.47,4971.63 L 5125.94,4971.63 L 5127.01,4971.57 C 5128.92,4971.42 5130.21,4971 5130.85,4970.3 C 5131.32,4969.78 5131.6,4968.45 5131.69,4966.29 L 5131.83,4963.14 L 5131.69,4938.1 C 5131.69,4936.15 5131.13,4934.79 5130.02,4934.04 C 5129.17,4933.48 5127.68,4933.2 5125.53,4933.2 L 5125.53,4927.22 L 5158.73,4927.17 C 5162.58,4927.17 5166.05,4926.88 5169.13,4926.32 L 5169.13,4942.7 L 5163.11,4942.7 C 5162.6,4939.39 5161.42,4937.14 5159.6,4935.93 C 5158.05,4934.91 5155.53,4934.4 5152.03,4934.4 L 5145.37,4934.4 L 5145.37,4947.25 L 5148.38,4947.25 C 5150.99,4947.25 5152.71,4946.88 5153.56,4946.14 C 5154.4,4945.39 5155.12,4943.71 5155.73,4941.1 L 5161.6,4941.1 L 5161.6,4961.59 L 5155.53,4961.53 C 5155.53,4958.16 5154.62,4956.05 5152.79,4955.21 C 5152,4954.84 5150.64,4954.66 5148.74,4954.66 L 5145.3,4954.66 L 5145.37,4965.67 C 5145.37,4967.73 5146.02,4969.13 5147.34,4969.87 C 5148.32,4970.43 5149.91,4970.71 5152.1,4970.71 C 5155.8,4970.71 5158.58,4970.1 5160.45,4968.89 C 5162.64,4967.44 5164.02,4964.98 5164.58,4961.52 L 5170.53,4961.52 L 5170.53,4978.43 C 5167.55,4977.91 5163.74,4977.66 5159.12,4977.66 L 5125.47,4977.66 Z "/>
		<path id="dp_path020" fill="#31323d" fill-rule="evenodd" fill-opacity="0.501961" d="M 5063.16,5092.18 C 5065.39,5101.97 4920.59,5006.91 4892.49,4955.67 C 4833.88,4877.96 4877.39,4822.92 4885.86,4813.78 S 4860.27,4846.41 4892.89,4906.33 C 4939.21,4991.42 5060.93,5082.39 5063.16,5092.18 Z "/>
		<path id="dp_path021" fill="#afd0f7" fill-rule="evenodd" stroke="#31323d" stroke-width="13.3333" stroke-linejoin="round" stroke-linecap="round" d="M 4606.72,4907.29 C 4647.03,4851.46 4742.99,4848.92 4780.81,4885.92 S 4815.41,4975.24 4775.1,5031.07 C 4746.93,5072.91 4656.79,5171.57 4615.53,5173.53 S 4474.48,5077.82 4444.86,5037.02 C 4402.61,4982.68 4402.74,4931.42 4438.24,4895.13 S 4564.47,4852.94 4606.72,4907.29 Z "/>
		<path id="dp_path022" fill="#e75f5a" fill-rule="evenodd" d="M 4549.27,4975.38 L 4553.27,4974.68 C 4554.11,4974.31 4554.69,4973.53 4555.02,4972.37 C 4555.11,4972.04 4555.25,4971.01 4555.45,4969.29 C 4555.49,4968.87 4555.51,4968.23 4555.51,4967.39 L 4555.51,4944.46 C 4555.51,4941.47 4555.23,4939.51 4554.66,4938.57 C 4553.87,4937.26 4552.1,4936.6 4549.34,4936.6 L 4549.34,4930.59 L 4575.45,4930.59 L 4575.45,4936.6 C 4572.51,4936.6 4570.65,4937.19 4569.85,4938.37 C 4569.24,4939.25 4568.94,4941.23 4568.94,4944.33 L 4568.94,4950.79 L 4583.53,4950.79 L 4583.53,4944.33 C 4583.53,4941.23 4583.23,4939.25 4582.63,4938.37 C 4581.83,4937.19 4579.96,4936.6 4577.02,4936.6 L 4577.02,4930.59 L 4603.22,4930.59 L 4603.22,4936.6 L 4602.38,4936.67 L 4601.96,4936.67 C 4600.28,4936.96 4599.11,4937.38 4598.45,4937.94 C 4597.67,4938.63 4597.23,4939.78 4597.13,4941.38 L 4596.98,4944.47 L 4596.91,4967.32 C 4596.91,4968.3 4597.08,4969.82 4597.41,4971.87 C 4597.64,4973.28 4598.24,4974.19 4599.24,4974.61 C 4600.82,4974.89 4602.15,4975.15 4603.22,4975.38 L 4603.22,4981.02 L 4577.08,4981.02 L 4577.08,4975.25 L 4578.29,4975.25 C 4580.57,4975.25 4582.07,4974.64 4582.76,4973.43 C 4583.28,4972.54 4583.53,4970.88 4583.53,4968.45 L 4583.53,4958.14 L 4568.94,4958.14 L 4568.94,4968.38 C 4568.94,4971.04 4569.38,4972.83 4570.28,4973.77 C 4571.12,4974.75 4572.85,4975.25 4575.45,4975.25 L 4575.45,4981.02 L 4549.27,4981.02 Z "/>
		<path id="dp_path023" fill="#e75f5a" fill-rule="evenodd" d="M 4630.96,4929.07 C 4638.72,4929.07 4644.8,4931.66 4649.19,4936.84 C 4653.34,4941.69 4655.41,4948.06 4655.41,4955.96 C 4655.41,4963.85 4653.34,4970.22 4649.19,4975.07 C 4644.8,4980.25 4638.72,4982.83 4630.96,4982.83 C 4623.12,4982.83 4617.02,4980.27 4612.67,4975.14 C 4608.56,4970.33 4606.5,4963.94 4606.5,4955.96 C 4606.5,4948.06 4608.58,4941.69 4612.74,4936.84 C 4617.13,4931.66 4623.21,4929.07 4630.96,4929.07 Z M 4630.96,4975.25 C 4633.3,4975.25 4635.33,4974.1 4637.06,4971.81 C 4638.46,4970 4639.47,4967.79 4640.07,4965.16 C 4640.69,4962.55 4641,4959.36 4641,4955.58 C 4641,4947.32 4639.22,4941.65 4635.65,4938.57 C 4634.06,4937.22 4632.5,4936.54 4630.96,4936.54 C 4627.16,4936.54 4624.41,4938.97 4622.68,4943.82 C 4621.51,4947.14 4620.92,4951.15 4620.92,4955.87 C 4620.92,4960.53 4621.51,4964.54 4622.68,4967.9 C 4624.36,4972.79 4627.12,4975.25 4630.96,4975.25 Z "/>
		<path id="dp_path024" fill="#e75f5a" fill-rule="evenodd" d="M 4654.01,4930.02 C 4658.02,4930.4 4661.79,4930.59 4665.34,4930.59 L 4684.87,4930.59 C 4688.93,4930.59 4693.24,4930.31 4697.83,4929.75 L 4697.83,4946.06 L 4692.09,4946.06 L 4691.32,4943.96 C 4689.78,4939.7 4687.08,4937.57 4683.22,4937.57 L 4682.58,4937.57 L 4682.65,4966.97 C 4682.65,4970.29 4683.09,4972.47 4683.98,4973.5 C 4684.96,4974.66 4687.05,4975.25 4690.26,4975.25 L 4690.26,4981.02 L 4661.56,4981.02 L 4661.63,4975.25 L 4662.69,4975.17 C 4663.43,4975.13 4664.24,4975.06 4665.13,4974.97 C 4665.97,4974.92 4666.63,4974.76 4667.09,4974.47 C 4668.44,4973.63 4669.11,4971.34 4669.11,4967.6 L 4669.11,4937.65 L 4668.7,4937.65 C 4664.12,4937.65 4661.13,4940.45 4659.74,4946.06 L 4654.01,4946.06 Z "/>
		<path id="dp_path025" fill="#e75f5a" fill-rule="evenodd" d="M 4512.89,5035.84 L 4518.99,5035.91 C 4519.32,5038.8 4520.4,5041.21 4522.22,5043.12 C 4523.99,5045.04 4526.3,5045.99 4529.13,5045.99 C 4531.19,5045.99 4532.89,5045.39 4534.23,5044.17 C 4535.59,5043.01 4536.26,5041.42 4536.26,5039.42 C 4536.26,5037.03 4534.33,5034.76 4530.46,5032.61 C 4523.79,5028.89 4520.18,5026.81 4519.63,5026.39 C 4515.7,5023.21 4513.73,5019.21 4513.73,5014.4 C 4513.73,5009.69 4515.53,5006.05 4519.14,5003.48 C 4522.26,5001.19 4526.27,5000.05 4531.17,5000.05 C 4532.35,5000.05 4535.52,5000.45 4540.7,5001.24 C 4541.3,5001.35 4541.84,5001.4 4542.31,5001.4 C 4543.71,5001.4 4544.83,5001.26 4545.67,5000.99 C 4545.91,5000.9 4546.6,5000.64 4547.72,5000.23 L 4547.72,5017.08 L 4541.75,5017.08 C 4541.42,5014.23 4540.6,5011.94 4539.29,5010.22 C 4537.76,5008.12 4535.66,5007.06 4533.01,5007.06 C 4531.28,5007.06 4529.84,5007.53 4528.68,5008.46 C 4527.51,5009.44 4526.92,5010.77 4526.92,5012.46 C 4526.92,5014.6 4528.91,5016.68 4532.87,5018.68 C 4539.23,5021.91 4542.97,5023.96 4544.08,5024.85 C 4548.09,5028.11 4550.1,5032.27 4550.1,5037.31 C 4550.1,5042.59 4548.3,5046.63 4544.71,5049.41 C 4541.39,5052.04 4537.05,5053.35 4531.67,5053.35 C 4529.01,5053.35 4526.16,5053.05 4523.12,5052.45 L 4521.02,5052.01 C 4520.33,5051.88 4519.62,5051.81 4518.91,5051.81 C 4518.09,5051.81 4517.03,5051.95 4515.77,5052.24 L 4512.89,5052.82 Z "/>
		<path id="dp_path026" fill="#e75f5a" fill-rule="evenodd" d="M 4547.53,5001.01 C 4551.55,5001.39 4555.32,5001.57 4558.87,5001.57 L 4578.4,5001.57 C 4582.46,5001.57 4586.77,5001.29 4591.36,5000.73 L 4591.36,5017.05 L 4585.62,5017.05 L 4584.85,5014.94 C 4583.31,5010.68 4580.61,5008.55 4576.75,5008.55 L 4576.11,5008.55 L 4576.18,5037.96 C 4576.18,5041.28 4576.62,5043.45 4577.51,5044.48 C 4578.49,5045.64 4580.58,5046.23 4583.79,5046.23 L 4583.79,5052.01 L 4555.09,5052.01 L 4555.16,5046.23 L 4556.21,5046.16 C 4556.96,5046.11 4557.77,5046.05 4558.65,5045.95 C 4559.5,5045.91 4560.16,5045.74 4560.62,5045.46 C 4561.97,5044.61 4562.64,5042.32 4562.64,5038.59 L 4562.64,5008.64 L 4562.23,5008.64 C 4557.65,5008.64 4554.66,5011.44 4553.27,5017.05 L 4547.53,5017.05 Z "/>
		<path id="dp_path027" fill="#e75f5a" fill-rule="evenodd" d="M 4591.12,5001.57 L 4617.91,5001.57 L 4617.91,5007.75 L 4616.5,5007.75 C 4614.16,5007.75 4612.57,5008.5 4611.73,5009.99 C 4611.17,5011.08 4610.89,5012.9 4610.89,5015.47 L 4610.96,5032.61 C 4611.01,5041.03 4613.88,5045.24 4619.58,5045.24 C 4623.59,5045.24 4626.44,5043.95 4628.13,5041.37 C 4629.49,5039.28 4630.16,5036.1 4630.16,5031.85 L 4630.16,5013.92 C 4630.16,5011.45 4629.72,5009.81 4628.83,5009.01 C 4627.89,5008.21 4626.17,5007.82 4623.65,5007.82 L 4623.65,5001.57 L 4645.67,5001.57 L 4645.67,5007.82 L 4644.4,5007.82 C 4640.71,5007.82 4638.86,5010.39 4638.86,5015.53 L 4638.86,5033.04 C 4638.86,5039.43 4637.25,5044.48 4634.03,5048.17 C 4630.62,5052.09 4625.76,5054.05 4619.45,5054.05 C 4617.48,5054.05 4615.41,5053.84 4613.2,5053.42 C 4607.6,5052.35 4603.56,5050.2 4601.08,5046.97 C 4598.56,5043.75 4597.3,5039.24 4597.3,5033.46 L 4597.37,5014.4 C 4597.37,5011.79 4596.97,5010.04 4596.17,5009.15 C 4595.37,5008.26 4593.69,5007.82 4591.12,5007.82 Z "/>
		<path id="dp_path028" fill="#e75f5a" fill-rule="evenodd" d="M 4646.33,5046.12 C 4649.03,5046.12 4650.83,5045.59 4651.71,5044.52 C 4652.42,5043.58 4652.78,5041.72 4652.78,5038.91 L 4652.78,5015.31 C 4652.78,5012.84 4652.68,5011.27 4652.48,5010.61 C 4651.92,5008.61 4649.92,5007.6 4646.47,5007.6 L 4646.47,5001.57 L 4678.12,5001.57 C 4683.36,5001.57 4687.3,5001.32 4689.96,5000.8 L 4689.96,5017.07 L 4684.01,5017.13 C 4683.45,5013.86 4682.3,5011.62 4680.58,5010.41 C 4679.09,5009.38 4676.6,5008.87 4673.14,5008.87 L 4666.2,5008.87 L 4666.2,5021.77 L 4669.42,5021.77 C 4671.9,5021.77 4673.67,5021.33 4674.75,5020.43 C 4675.83,5019.55 4676.37,5017.89 4676.37,5015.45 L 4682.47,5015.45 L 4682.47,5036.17 L 4676.31,5036.17 C 4676.31,5033.79 4675.83,5032.02 4674.9,5030.86 C 4673.97,5029.74 4672.33,5029.18 4669.99,5029.18 L 4666.2,5029.18 L 4666.2,5038.28 C 4666.2,5041.31 4666.53,5043.27 4667.18,5044.16 C 4668.07,5045.33 4669.87,5045.99 4672.59,5046.12 L 4674.21,5046.19 L 4674.21,5052.01 L 4646.33,5052.01 Z "/>
		<path id="dp_path029" fill="#e75f5a" fill-rule="evenodd" d="M 4690.41,5046.12 C 4693.11,5046.12 4694.91,5045.59 4695.8,5044.52 C 4696.5,5043.58 4696.86,5041.72 4696.86,5038.91 L 4696.86,5015.31 C 4696.86,5012.84 4696.76,5011.27 4696.57,5010.61 C 4696.01,5008.61 4694.01,5007.6 4690.55,5007.6 L 4690.55,5001.57 L 4722.21,5001.57 C 4727.44,5001.57 4731.39,5001.32 4734.04,5000.8 L 4734.04,5017.07 L 4728.09,5017.13 C 4727.53,5013.86 4726.38,5011.62 4724.66,5010.41 C 4723.17,5009.38 4720.69,5008.87 4717.22,5008.87 L 4710.29,5008.87 L 4710.29,5021.77 L 4713.5,5021.77 C 4715.98,5021.77 4717.76,5021.33 4718.84,5020.43 C 4719.92,5019.55 4720.45,5017.89 4720.45,5015.45 L 4726.55,5015.45 L 4726.55,5036.17 L 4720.39,5036.17 C 4720.39,5033.79 4719.92,5032.02 4718.98,5030.86 C 4718.05,5029.74 4716.41,5029.18 4714.07,5029.18 L 4710.29,5029.18 L 4710.29,5038.28 C 4710.29,5041.31 4710.61,5043.27 4711.26,5044.16 C 4712.15,5045.33 4713.96,5045.99 4716.68,5046.12 L 4718.29,5046.19 L 4718.29,5052.01 L 4690.41,5052.01 Z "/>
		<path id="dp_path030" fill="#31323d" fill-rule="evenodd" fill-opacity="0.501961" d="M 4615.53,5173.53 C 4617.76,5183.32 4472.96,5088.25 4444.86,5037.02 C 4386.25,4959.31 4429.76,4904.27 4438.24,4895.13 S 4412.64,4927.76 4445.26,4987.68 C 4491.59,5072.77 4613.3,5163.74 4615.53,5173.53 Z "/>
	</g>
</svg>