<svg id="chesehat" xmlns="http://www.w3.org/2000/svg" width="3000" height="3000" viewBox="0 0 3000 3000">
  <defs>
    <style>
      .cls-1 {
        fill: #fc0;
      }

      .cls-1, .cls-2, .cls-3, .cls-4, .cls-5, .cls-6, .cls-7, .cls-8, .cls-9 {
        fill-rule: evenodd;
      }

      .cls-2 {
        fill: #fcdd62;
      }

      .cls-3 {
        fill: #ffec00;
      }

      .cls-4 {
        fill: #fff89c;
      }

      .cls-5 {
        fill: #a57c1b;
      }

      .cls-6 {
        fill: #d4b020;
      }

      .cls-7, .cls-8 {
        fill: #31323d;
      }

      .cls-7 {
        opacity: 0.2;
      }

      .cls-9 {
        fill: #dbb308;
      }
    </style>
  </defs>
  <g id="asset_" data-name="asset ">
    <path id="left" class="cls-1" d="M963.025,760.366s-22.746,12.377-93.708,54.548c-16.412,10.472-20.03,4.7-18.972,33.189,0.6,98,.116,170.347-0.056,208.607,0.317,35.27-.258,67.12-0.258,67.12v16.03s-1.441,15.27,23.52,15.13q1.66-.015,3.479-0.12c28.57-1.63,37-25.03,37-25.03L1443,921.574,1446,477,1135.02,659.235s-1.79,41.539-52,30.039Z"/>
    <path class="cls-2" d="M1449,477l-1,66L854,873l-2-56,225-125,10-3s36.92,3.151,55-37c1.29-2.856,11-7,11-7Z"/>
    <path id="right" class="cls-3" d="M1446.01,475c22.4,2.109,117.67,78.855,140.31,95.3l422.95,296.935q1.005,66.7,2.01,133.415c-15.48-3.263-20.53,3.65-27.07,12.04-1.5,22.75,5.52,35.43,27.07,32.1,1.82,54.91,16.33,131.41-47.11,96.31-10.61,6.92-39.73-3.58-49.17-10.1,5.34,0,22.78-5.95,28.12-5.95Q1692.59,1023.23,1442,921.405,1444.01,698.225,1446.01,475Zm478.07,649.04h0Z"/>
    <path class="cls-4" d="M1448,482l4,64,560,378V870Z"/>
    <path id="shade" class="cls-5" d="M1047.81,1076.07s-20.66,41.89-8.01,84.93l-189.236-1.04s-6.442-4.54,7.009-11.39Zm773.97,68.36s10.37-50.48-4.01-70.43L2002,1148.57s0.95,11.72-13.02,9.32S1821.78,1144.43,1821.78,1144.43Z"/>
    <path class="cls-6" d="M1863,1122l119,20-2,14-164-5s5.13-17.14,8-28C1838.05,1122.98,1823.24,1123.67,1863,1122Zm-992,30,8-8,49-16s36.754-2.66,105-1c-0.07,16.82-.26,19.08,1,28C1003.57,1150,871,1152,871,1152Z"/>
    <path class="cls-6" d="M1979,1146L1442,924v24l476,198,63,2Z"/>
    <path class="cls-6" d="M942,1149l500-200V929l-316,116-247,98"/>
    <path id="shadow_copy" data-name="shadow copy" class="cls-7" d="M853.97,1149.96L1446.47,922l552.47,225.95s-82.57-14.39-90.94-15.95c-17.61-3.28-34.69-7.59-50-9-21.45.44-29.79-3.13-35,0,0.72,3.82.07,12-4,12-19.43-33.75-161.18-110.43-240-91-151.14-54.185-130.42-68.569-308.07,11.99-17.75-3.2-38.52-3.53-47.77-2.71-65.78,5.81-123.36,33.15-160.6,56.78-12.39,7.86-20.01,17.71-24.56,28.94-2.35,5.79-3.09-3.78-2-12,0,0-33.43.32-46,2s-119,21-119,21S848.991,1156.06,853.97,1149.96Z"/>
    <path class="cls-8" d="M1816,1126"/>
    <path id="holes_shade" data-name="holes shade" class="cls-5" d="M1320,601c19.05,4.949,40.16,8.435,41.35,26.276,1.18,1.694,5.68,16.418,5.02,19.165-1.59,6.549-12.36,25.684-17.05,29.253-4.3,3.282-9.34,4.3-13.03,8.07-29.85,2.208-34.83-17.663-51.13-31.271-0.25-20.339,6.41-37.013,18.05-45.392C1308.02,603.633,1315.73,604.949,1320,601Zm-180.21,53.511a12.594,12.594,0,0,1,4.01,1.009c-1.97,11.031-.73,22.355-3.01,32.279-12.99,9.094-25.35,21.674-48.12,12.1-5.21-2.191-9.03-1.649-11.03-7.061-1.55-2.368-.58-4.318,0-7.061h3.01c5.67,3.778,17.38-.257,21.05-2.017C1120.36,676.747,1135.61,671.764,1139.79,654.511ZM1567,680a96.755,96.755,0,0,0,11,3c10.89,2.77,27.04,33.073,20.76,52.223-3.41,10.391-10.68,15-18.85,21.168-4.27,3.222-1.94,8.11-9.02,9.079-6.17-4.172-17.2-2.831-23.06-7.061-4.74-3.416-23.19-25.44-18.05-37.323q2.01-1.512,4.01-3.026V707.973a71.842,71.842,0,0,1,10.03-20.174C1550.84,678.328,1557.66,685.644,1567,680Zm196,74c16.7,0.959,15.76,6.109,24,15,0.47,14.8-2.62,27.808-17.61,27.74-3.37-.015-5.26-1.389-7.39-2.74-8.97-5.686-15.11-22.988-7.65-34.583C1756.59,755.947,1760.42,757.189,1763,754ZM983.393,804.81c23.3-.523,35.447,3.489,44.117,17.148,8.35,13.171,7.1,35.207-4.02,43.375-5.36,3.941-20.1,12.192-26.062,14.122-8.925,2.887-17.467-2.906-22.056-5.044C954.682,864.773,953.485,852.586,955,826c5.982-3.768,7.272-10.6,12.749-15.035C972.7,808.172,978.046,806.491,983.393,804.81ZM1261.1,870.376c22.41-.379,24.76,10.179,35.09,21.183,0.39,9.065.47,18.284-4.01,25.218-4.52,6.987-25.03,22.368-40.1,18.157-12.71-3.549-19.25-11.79-27.07-20.174-1.65-20.851,0-36.363,17.04-41.358C1248.4,871.54,1256.07,873.488,1261.1,870.376Zm497.26,36.314c31.05-.784,46.23,7.378,52.14,31.27,5.5,22.25-15.14,44-29.08,48.419-3.76,1.19-20.24,2.476-21.05,2.017-10.62-3.908-31.51-26.208-26.07-48.418C1737.85,925.5,1747.98,915.425,1758.36,906.69Zm232.6,88.767c7.34-.11,10.85,1.608,16.04,3.026v1.009c-9.28-.121-11.46,3.138-18.05,5.048-3.08,5.88-9.83,17.61-4.01,26.22a30.572,30.572,0,0,0,12.03,16.14c3.6,2.25,8.68.51,11.03,4.04h-2.01c-2.4,3.19-7.27,1.06-12.99,1.06-4.43-3.01-8.16-1.02-13.07-3.08-18.45-7.74-20.84-26.4-7.41-42.61C1977.18,1000.69,1978.13,997.062,1990.96,995.457ZM948,1013c19.886,4.07,30.073,22.37,31.383,45-6.357,8.11-12.241,17.81-23.059,21.18-16.38,5.1-37.183-14.81-40.1-24.21-3.677-11.84,4.3-27.12,9.778-30.97C932.168,1019.27,941.48,1017.58,948,1013Z"/>
    <path class="cls-9" d="M1310.1,604c2.88,1.128,1.85.175,3.01,3.021,2.15,4.219-2.27,16.5,0,24.171,2.72,9.186,9.02,13.345,15.04,19.136,6.27,0.467,13.58,2.16,20.06,0,5.61-1.874,12.42-5.036,19.05-4.029v5.036c-6.18,7.219-6.88,19.13-13.04,26.185-2.44,2.792-7.11,2.588-11.03,4.028-22.6,8.309-26.17,2.079-46.12-5.035-5.41-11.361-14.36-34.924-8.02-50.356C1293.16,616.144,1302.39,610.556,1310.1,604Zm-172.46,57.406h6.01a2.846,2.846,0,0,0,1,1.007c-0.68,2.469-2.42,3.981-3,6.043-1.61,5.655,1.69,13.911-1.01,18.128-3.21,10.255-15.18,18.469-26.07,21.149-11.82,2.913-34.63-5.61-35.09-14.1,10.19-9.033,13.85-.465,25.07-4.029C1120.31,684.6,1129.69,674.523,1137.64,661.406Zm413.11,19.135c2.1,4.646-3.45,18.243-1,27.192,4.05,14.794,16.55,26.09,33.09,28.2a51.047,51.047,0,0,1,16.04-8.057v8.057c-3.18,4.634-5.61,14.9-7.02,20.142-5.93,3.12-12.21,8-19.05,10.071-18.17,5.492-29.92-8.364-37.1-15.107,2.01-6.632-1.61-12.347-3.01-18.128q0.51-16.111,1.01-32.228C1536.46,691.216,1544.51,686.58,1550.75,680.541Zm208.57,74.527a12.729,12.729,0,0,1,4.01,1.007c2.95,7.533.25,20.1,8.02,23.164a34.968,34.968,0,0,0,10.65,1.116c3.77-.186,1.48.019,5-1.355-10.77-1.193,6.97-9.625-5,13-2.68,3.055-5.31,4.687-11,6-10.71-4.329-20.76-8.518-20.71-25.811C1753.91,767.008,1756.27,760.158,1759.32,755.068ZM967.175,808.445c2.935,0.954,3.521,1.777,5.014,4.029,3.528,4.99,1.646,14.919,5.013,20.142,9.426,14.622,42.2,21.352,56.148,6.043,1.76,0.635.98,0.194,2.01,1.007,0.8,1.188.77,1.693,1,4.028-1.1,1.769-.19,4.275-1,7.05-1.39,4.756-4.37,9.612-7.02,14.1-5.35,9.06-19.12,7.806-26.34,15.156C955.206,881.1,935.3,838.5,967.175,808.445ZM1249.94,869.88c3.25,0.833,1.53-.494,3.01,2.014-14.63,15.632,3.83,39.546,22.06,39.277,2.66-2.057,13.07-7.018,16.04-8.056,2.13,1.962,2.54,3.111,4.95,4.885-2.99,3.6-3.62,9.244-6,14s-17.33,11.29-28,14c-5.68,1.442-9.51-4.919-14-3-19.65-7.45-20.4-15.488-22-43,4.79-4.815,7.86-6.882,12.91-11.056,1.69-1.4,2.32-4.781,4.01-6.043C1245.12,871.252,1248.04,871.646,1249.94,869.88Zm504.36,39.277h3.01c5.57,11.231-3.23,9.337,0,21.15,1.97,7.191,7.11,18.728,14.04,21.149,10.67,10.021,23.99-.9,34.09-2.014,3.04,3.1,4.73,2.706,5.02,9.064-3.24,4.378-5.3,12.1-8.46,16.494-3.74,5.2-22.29,13.631-30.68,15.932-3.41-.551-8.06-0.174-12-2.212-8.5-4.4-14.52-10.835-21.06-17.121-0.49-14.885-7.56-35.139.74-47.6C1742.67,918.486,1749.54,913.646,1754.3,909.157ZM2012,1047.13c-0.08,3.35-4.97,4.35-7,5.87-9.79-1.91-5.19-2.97-2.49-1.08-26.82-.97-28.65-3.47-37.44-18.45-7.22-12.3,6.83-34.38,15.85-38.708,7.61-3.424,20.65,2.269,10.02,8.058-4.12,2.24-7.09,8.12-8.94,11.18-4.58,7.55-1.63,19.04,3.99,22.5C1995.78,1042.02,1997.97,1048.19,2012,1047.13Zm-1079.92-29.2c3.631,4.81-2.332,9.83,0,18.12,3.781,13.46,19.312,26.49,36.1,17.13,5.336-2.98,5.984-9.74,12.032-12.09v7.05c3.042,4.62-.382,11.9-2,15.11-2.381,2.64-11.968,6.63-8.205,6.75,4.66,0.15-22.614,8.97-31.9,6.34-17.345-4.92-28.978-20.03-22.059-40.29,1.133-3.31.176-5.64,2-8.05C921.308,1023.69,928.548,1022.15,932.08,1017.93Z"/>
    <path class="cls-8" d="M1443,488c6.04-3.646-47.03,28-81,47-49.81,27.862-103.43,56.551-155,87q-27.615,16.306-55,32.646c0.68,15.093-3.73,30.213-14,41.354-11.55,12.526-18.4,14.2-34,16-13.98-2.525-23.22-11.371-28-16-108.953,61.93-161.644,92.646-218,126,0,37.535,2.55,243.93,3,322,27.121-11.16,68.352-28.62,141.96-57.88,54.09-23.95,190.67-72.44,289.09-113.386C1348.17,950.887,1418.86,924.022,1436,918c2.96-98.923,4.94-209.32,6-287Zm11.1,0.065c-0.23,143.419-2.77,284.793-4.1,427.935,183.37,75.25,368.63,151.75,552,227,1.67-19.45,2.31-70.13,1.28-85.99h-1v-1c-25.72,5.62-52.53-16.25-42.02-44.15,6.19-16.424,23.16-26.445,45.02-20.071,1.38-33.3.38-71.868-1-118.4-4.07-3.2-8.1-6.282-12.28-9.384,39.56,29.348-280.94-191.973-396.85-276.6C1538.63,546.145,1442.44,478.688,1454.1,488.065ZM1318.06,598.443c26.83-.561,40.57,10.666,48.01,29.1,12.18,30.184-12.09,57.112-33.01,62.212-30.92,7.54-58.46-28.851-49.01-59.2,3.07-9.876,10.9-21.049,19-26.089,0.48-.3,1.09-0.6,1.66-0.894A62.783,62.783,0,0,1,1318.06,598.443ZM1360,643a36.019,36.019,0,0,0-9.66-25.122c-8.59-9.065-21.27-12.594-33.28-10.4-1.92,3.608-2.12,8.831-2,15.051a42.046,42.046,0,0,0,2,8.028c3.56,9.952,9.23,15.4,12.94,17.447a24.919,24.919,0,0,0,11,3,23.96,23.96,0,0,0,11-2A23.2,23.2,0,0,0,1360,643Zm-50-33a37.482,37.482,0,0,0-12.95,12.525c-9.78,15.943-7.01,40.524,8,52.179a31.225,31.225,0,0,0,18.16,6.6c14.99,0.377,30.94-10.85,38.79-31.3,0.47-1.105,1.21-2.89,1-3a3.871,3.871,0,0,0-1,1c-0.1.1-.94,0.937-1,1-1.89,1.882-14.48,10.168-29.22,5.4-15.11-4.886-20.3-19.077-21.73-24.856A41.6,41.6,0,0,1,1309,620,47.185,47.185,0,0,1,1310,610Zm-172,56.677c-3.68,6.966-8.62,13.818-15,18.323a45.639,45.639,0,0,1-34,8c0.33,0.667.67,1.333,1,2a34.311,34.311,0,0,0,4,3,35.035,35.035,0,0,0,13,5,33.387,33.387,0,0,0,16-5,42.752,42.752,0,0,0,8-7,45.048,45.048,0,0,0,6-8c3.9-6.821,6.48-15.762,6-24C1141.67,661.226,1139.33,664.451,1138,666.677ZM1561,678c9.81,0,19,2.659,26.29,8.385,17.58,13.813,17.78,40.4,10.71,57.615-4.77,11.605-13.14,23.3-25.86,26.03-15.16,3.25-27.23-6.04-32.14-11.03a40.98,40.98,0,0,1-6-8,52.129,52.129,0,0,1-6-17c-1.84-9.963-1.34-18.447,0-24,1.94-8.042,7.6-23.214,21.13-29.275A31.856,31.856,0,0,1,1561,678Zm1,8-9,2c-0.12.851-.25,1.688-0.39,2.537-0.19,1.165-.39,2.3-0.61,3.463a28.585,28.585,0,0,0,0,8,30.563,30.563,0,0,0,6,14c7.47,9.648,22.14,13.835,38,11,0.04-1.047.06-2.068,0.05-3.116A71.923,71.923,0,0,0,1595,712a41.206,41.206,0,0,0-1.85-5.186c-3.77-8.583-8.71-13.451-13.46-16.326A31.927,31.927,0,0,0,1562,686Zm32.15,48.91c-13.76,3.316-28.52,1.823-37.69-7.42-1.98-1.992-5.19-6.845-7.46-12.49a54.568,54.568,0,0,1-3.87-20.227,2.834,2.834,0,0,1-1,1c-11.37,18.305-14.68,47.957,5,61.21C1568.25,769.858,1591.82,754.439,1594.15,734.91ZM1766,751a22.976,22.976,0,0,1,17.99,4.857c8.37,7.084,7.7,18.653,7.01,23.143-0.71,4.658-4.02,18.176-15.8,21.133-11.15,2.8-22.35-6.494-26.2-16.133a24.914,24.914,0,0,1-.81-15.977,24.2,24.2,0,0,1,3.07-6.637A26.155,26.155,0,0,1,1766,751Zm1,7a8.341,8.341,0,0,1,0,1c-0.01.2-.03,0.382-0.05,0.57A10.542,10.542,0,0,0,1767,762a28.836,28.836,0,0,0,1.05,5.974A29.237,29.237,0,0,0,1770,773a13.841,13.841,0,0,0,14.21,3.051v-4.014A12.537,12.537,0,0,0,1783,767a14.237,14.237,0,0,0-4.24-4.948A15.961,15.961,0,0,0,1775.2,760a9.835,9.835,0,0,0-1.57-1.008A10.935,10.935,0,0,0,1767,758Zm-6,3a13.8,13.8,0,0,0-6,5,12.879,12.879,0,0,0-2,5,13.06,13.06,0,0,0,0,4,40.429,40.429,0,0,0,2,8,19.086,19.086,0,0,0,4,6,16.24,16.24,0,0,0,9,5,13.845,13.845,0,0,0,15-8c0.31-.681.71-1.32,1-2a18.756,18.756,0,0,0,1-3,16.354,16.354,0,0,1-5.8,2.075,14.374,14.374,0,0,1-5.64-.151A13.18,13.18,0,0,1,1768,780,19.28,19.28,0,0,1,1761,761ZM983.951,802.14c24.939-.552,39.139,6.926,48.019,22.076,16.64,28.422-9.69,55.007-31.01,60.206-29.464,7.183-61.581-24.082-51.02-53.182,3.94-10.858,13.647-21.692,24.007-26.09C977.474,803.654,981.119,804.066,983.951,802.14Zm43.009,38.131c-0.63-27.84-28.576-32-52.012-26.09v1c2.9,2.616,2.854,6.555,5,10.034,5.47,8.862,19.354,22.481,37.011,18.062C1020.08,842.5,1023.04,840.853,1026.96,840.271ZM968.946,818.2c-2.59,3.724-7.139,6.786-9,11.038-8.229,18.772,3.155,38.3,17,44.151,22.811,9.639,49.412-4.514,50.012-27.093h-1c-16.17,12.875-44.247-6.171-50.012-15.051C973.2,827.012,973.242,820.811,968.946,818.2Zm283.094,49.168c21.38-.523,35.22,5.287,43.01,18.062,14.29,23.451-5.61,46.59-23.01,52.179-25.61,8.228-58.6-14.749-51.01-42.145,2.67-9.637,9.32-19.883,19-24.082,1.39-.6,4.5-1.566,6.97-2.377Q1249.52,868.169,1252.04,867.363Zm4,8.028A10.983,10.983,0,0,0,1253,876a9.9,9.9,0,0,0-.96.394V878.4a41.924,41.924,0,0,0,.41,5.809A37.13,37.13,0,0,0,1254,891a26.022,26.022,0,0,0,7,11,23.712,23.712,0,0,0,5.04,3.494A15.563,15.563,0,0,0,1270,907a18.732,18.732,0,0,0,7,0,23.914,23.914,0,0,0,11.08-5.137A23.511,23.511,0,0,0,1291,899a34.586,34.586,0,0,0-16.11-19.566A34.136,34.136,0,0,0,1256.04,875.391Zm-12.01,4.013a29.409,29.409,0,0,0-10,8.028c-3.96,4.978-5.79,9.974-6.03,14.568-0.63,11.807,8.36,19.837,12.03,22.559,12.42,9.2,31.5,7.747,42.97-2.559a33.974,33.974,0,0,0,10-17c-1.33,1-2.67,2-4,3-1.7.657-3.35,1.317-5,2-1.37.566-2.65,1.083-3.95,1.514A33.056,33.056,0,0,1,1274,913a23.557,23.557,0,0,1-12.24-2.521c-9.89-4.9-15.27-17.708-15.73-31.075h-2ZM1764,903c12.43-1.1,24.83,2.078,34.43,9.966a41.192,41.192,0,0,1,10.78,13.6c15.21,29.864-6.83,59.559-30.01,65.223-29.89,7.306-57.71-27.709-48.01-57.2,3.72-11.323,11-20.354,18.01-25.085A45.275,45.275,0,0,1,1764,903Zm4.2,8.514c-1.29.881-2.47,0.9-5,1L1762,915a22.863,22.863,0,0,0-1,4,23.8,23.8,0,0,0,0,7c0.64,5,1.97,10.013,3,12a25.919,25.919,0,0,0,41,6c0-.1-0.01-0.2-0.01-0.293a33.169,33.169,0,0,0-1.78-9.114,34.044,34.044,0,0,0-11.11-15.466C1786.08,914.4,1778.12,911.523,1768.2,911.514ZM1754,916a38.792,38.792,0,0,0-13.81,18.593c-5.51,16.375,1.46,34.988,14.01,44.151,6.04,4.412,11.8,6.087,16.8,6.256,8.39,0.284,16.19-3.757,22-9a37.542,37.542,0,0,0,12-25l-2.79,2.659c-4.25,4.021-15.98,5.035-23.01,3.01a33.469,33.469,0,0,1-16.97-10.729c-7.24-8.964-8.68-21.094-5.23-31.94Zm228,83a38.084,38.084,0,0,0-12,12,28.907,28.907,0,0,0-4,10,23.79,23.79,0,0,0,5,18,25.166,25.166,0,0,0,22.27,8.98,27.4,27.4,0,0,1-17-34.12A27.879,27.879,0,0,1,1994,996ZM940,1012c11.9-1.28,24.006,1.09,32.926,8.65a31.23,31.23,0,0,1,7.023,8.27c6.5,11.27,4.793,25.22-.949,35.08a36.358,36.358,0,0,1-23.058,17.09A37.054,37.054,0,0,1,918,1067a35.129,35.129,0,0,1-6.072-28.05c2.312-10.39,9.287-17.83,16-22.08A36.829,36.829,0,0,1,940,1012Zm-2,9c-1.022.63-2.043,1.26-3.065,1.9,0.022,0.36.043,0.73,0.065,1.1a30.328,30.328,0,0,0,3.936,11.94A30.747,30.747,0,0,0,952,1048c10.3,2.64,18.269.33,21.409-4.53a10.3,10.3,0,0,0,1.539-4.52A31.116,31.116,0,0,0,938,1021Zm-10,5c-5.416,4.58-9.25,10.41-10,17-1.729,15.2,13.066,32.66,31,32,14.042-.52,26.819-12.07,29-28a27.908,27.908,0,0,1-3,4,27.15,27.15,0,0,1-2,2c-1.012.33-2,.66-3,1-2.118.72-4.19,1.57-6,2a27.92,27.92,0,0,1-12,0,29.781,29.781,0,0,1-10-4C933.324,1046.44,928.85,1036.24,928,1026Zm-48.083,122.32M2015,1160c0.37-46.19.05-77.61,1-124-0.05.58-3.03,2.36-5,4a10.46,10.46,0,0,1-3.72,1.96,19.961,19.961,0,0,1-3.28.04,20.35,20.35,0,0,1-5-1,18.15,18.15,0,0,1-8-5,16.25,16.25,0,0,1-3-5,21.227,21.227,0,0,1-2-14c0.55-2.59,2.88-10.92,9.64-12.93a12.975,12.975,0,0,1,5.64-.24c6.41,0.93,9.42,5.37,12,10.03a13.834,13.834,0,0,0,4-1V909.508c0-8.347,2.17-34.009-1-39.134-1.06-5.252-50.95-38.565-140.04-101.347-69.8-49.181-140.02-98-210.07-147.5-28.58-20.2-57.12-42.444-86.03-62.213-29.28-20.026-55.04-41.257-85.04-61.779-16.05-10.985-35.18-30.356-48.82-26.972C1430.87,474.381,1141.71,643.082,1142,644c0.01,0.024-4.25,3.417-4,3.611,0.7,0.554-3.59,6.594-9,15.052-4.78,7.431-7.54,12.671-14.33,15.923-19.51,9.346-27.26,5.412-38.54,1.012-81.657,45.9-184,102.323-228.414,133.349-5.548,3.876-1.694,22.235-1.809,31.337-0.249,19.558,1,96.767,1,114.392,0,38.15.994,77.764,1,114.394v60.2c0,37.14.781,19.65,0.093,27.73,8.8-.18,180.61-71.88,144.138-56.17-18.222,7.85,38.092-15.81,69.782-28.47,19.35-8.42,68.95-26.9,78.08-30.39,74.18-28.32,156.29-61.886,237.1-91.577,32.65-11.992-80.81,29.691,0,0,32.65-11.992,63.74-24.916,66.16-24.67,0.02,0-.17.185,0.74,0.277-6.26-2.315,35.63,13.658,61.12,24.662,46.37,20.027,93.5,37.4,139.04,57.2,42.37,18.41,85.27,34.68,127.04,52.18C1894.19,1115.56,1971.15,1144.65,2015,1160Zm-87.75-19.7M1552,695h0Z"/>
    <path class="cls-8" d="M850,1161c0.333-6,0-15,0-15s73.183-.6,186-1c1.58,7.47,6,18,6,18S950.965,1161.84,850,1161Zm964.83-.5c118.96-.28,199.17-0.5,199.17-0.5l1-14-9,4-30-8s-63.23,1.66-159,2C1809.79,1160.98,1815.24,1160.5,1814.83,1160.5Z"/>
    <path class="cls-8" d="M1439,927l-1,23,7-1,1-22h-7Z"/>
    <path class="cls-8" d="M1823,1110l8,1s-0.52,24.31-11,47l-2,3h-10S1819.5,1143.35,1823,1110Z"/>
    <path class="cls-8" d="M1038,1109l-9,5a135.4,135.4,0,0,0,3,48l9-1S1035.07,1132.82,1038,1109Z"/>
    <path class="cls-8" d="M1032,1130c-29.25.17-40,0-40,0l-109,21-3-6,111-20c-3.453.12,6.367,0.02,16.42-.08,7.91-.07,12.59-0.84,26.58-0.92m790-5c12.63,0.33,19,0,19,0L1443,956l-435,169H991l451-177,417,172,116,23v7l-124-24s170.15-1.15-29,0C1825.17,1124.5,1824.28,1123.34,1824,1119Z"/>
  </g>
</svg>
