<?xml version="1.0" encoding="UTF-8" standalone="no"?>
<!DOCTYPE svg PUBLIC "-//W3C//DTD SVG 1.1//EN" "http://www.w3.org/Graphics/SVG/1.1/DTD/svg11.dtd">
<svg width="100%" height="100%" viewBox="0 0 3000 3000" version="1.1" xmlns="http://www.w3.org/2000/svg" xmlns:xlink="http://www.w3.org/1999/xlink" xml:space="preserve" xmlns:serif="http://www.serif.com/" style="fill-rule:evenodd;clip-rule:evenodd;stroke-linecap:round;stroke-linejoin:round;stroke-miterlimit:1.5;">
    <g transform="matrix(3.17959,0,0,3.25941,-618.367,-539.749)">
        <rect x="194.48" y="165.597" width="943.517" height="920.411" style="fill:none;"/>
    </g>
    <g transform="matrix(1,0,0,1,-7,-6)">
        <g transform="matrix(1.15584,0,0,1.12632,63.2996,-116.08)">
            <path d="M954.161,911.053C1060.4,911.053 1146.66,996.189 1146.66,1101.05C1146.66,1205.92 1060.4,1291.05 954.161,1291.05C847.917,1291.05 761.661,1205.92 761.661,1101.05C761.661,996.189 847.917,911.053 954.161,911.053ZM954.161,958.553C1033.84,958.553 1098.54,1022.4 1098.54,1101.05C1098.54,1179.7 1033.84,1243.55 954.161,1243.55C874.478,1243.55 809.786,1179.7 809.786,1101.05C809.786,1022.4 874.478,958.553 954.161,958.553Z" style="fill:rgb(49,50,61);stroke:rgb(49,50,61);stroke-width:9.29px;"/>
        </g>
        <g transform="matrix(1.15584,0,0,1.12632,602.3,-134.08)">
            <path d="M954.161,911.053C1060.4,911.053 1146.66,996.189 1146.66,1101.05C1146.66,1205.92 1060.4,1291.05 954.161,1291.05C847.917,1291.05 761.661,1205.92 761.661,1101.05C761.661,996.189 847.917,911.053 954.161,911.053ZM954.161,958.553C1033.84,958.553 1098.54,1022.4 1098.54,1101.05C1098.54,1179.7 1033.84,1243.55 954.161,1243.55C874.478,1243.55 809.786,1179.7 809.786,1101.05C809.786,1022.4 874.478,958.553 954.161,958.553Z" style="fill:rgb(49,50,61);stroke:rgb(49,50,61);stroke-width:9.29px;"/>
        </g>
        <g transform="matrix(0.999896,-0.0144018,0.0201527,1.39917,-22.6052,-437.78)">
            <path d="M1519.66,1071.28L1365.66,1071.28L1365.88,1150.56C1417.5,1135.06 1468.82,1135.77 1519.88,1150.56L1519.66,1071.28Z" style="fill:rgb(49,50,61);stroke:rgb(49,50,61);stroke-width:8.72px;"/>
        </g>
        <g transform="matrix(0.00638444,0.70127,-0.91106,0.00829439,2923.36,76.3115)">
            <rect x="1365.66" y="1071.28" width="154" height="90" style="fill:rgb(49,50,61);stroke:rgb(49,50,61);stroke-width:13.04px;"/>
        </g>
        <g transform="matrix(-0.00638444,0.70127,0.91106,0.00829439,-53.264,82.3115)">
            <rect x="1365.66" y="1071.28" width="154" height="90" style="fill:rgb(49,50,61);stroke:rgb(49,50,61);stroke-width:13.04px;"/>
        </g>
    </g>
    <g transform="matrix(0.999977,0.00680909,-0.00680909,0.999977,10.0719,-9.85615)">
        <path d="M1137.94,1641.5L1768.6,1621.5C1771.97,1673.01 1766.35,1713.33 1751.27,1764.17C1726.41,1780.44 1689.78,1785.94 1657.94,1776.17C1608.4,1758.23 1559.63,1731.29 1511.27,1697.5C1479.27,1700.03 1447.27,1700.93 1415.27,1698.83C1387.69,1723.47 1352.77,1744.54 1313.94,1768.17C1283.96,1784.9 1237.74,1793.83 1200.6,1781.5L1159.27,1746.83C1147.43,1711.62 1140.44,1676.47 1137.94,1641.5Z" style="fill:rgb(49,50,61);fill-opacity:0.192157;"/>
        <g id="dp_path014" transform="matrix(1.07273,0.654169,-0.637344,1.12264,-654.833,-7086.39)">
            <path d="M4818,4893.35C4792.98,4885.7 4769.68,4881.07 4738.95,4879.99C4709.2,4878.95 4618.92,4888.62 4620.15,4917.41C4621.23,4942.83 4634.05,4987.15 4651.3,5017.56C4668.58,5048.01 4705.85,5090.45 4723.79,5100.12C4731.8,5104.43 4737.87,5101.24 4741.16,5100.69C4775.17,5095.07 4823.07,5044.61 4841.6,4980.24C4846,4964.96 4849.96,4952.27 4847.07,4937.67C4843.45,4919.32 4832.02,4908.7 4818,4893.35Z" style="fill:rgb(234,95,90);stroke:rgb(49,50,61);stroke-width:8.67px;stroke-linecap:butt;stroke-linejoin:miter;stroke-miterlimit:4;"/>
        </g>
        <g transform="matrix(1.60402,0.784129,-0.664559,1.35942,-344.007,-2056.66)">
            <path d="M1662.31,1626.14C1657.4,1626.73 1652.38,1627.55 1647.27,1628.52L1650.09,1752.75C1654.57,1761.64 1660.65,1773.04 1665.16,1778.15L1662.31,1626.14Z" style="fill:rgb(208,152,92);stroke:rgb(49,50,61);stroke-width:5.07px;"/>
        </g>
        <g transform="matrix(1.43483,1.06254,-1.35493,1.82968,1179.14,-3226.81)">
            <path d="M1665.14,1629.95C1659.26,1628.55 1652.66,1629.15 1646.01,1629.56L1646.31,1754.14C1652.99,1754.3 1658.74,1753.69 1662.81,1751.68L1665.14,1629.95Z" style="fill:rgb(208,152,92);stroke:rgb(49,50,61);stroke-width:4.1px;"/>
        </g>
        <g id="dp_path0141" serif:id="dp_path014" transform="matrix(1.10943,0.584488,-0.559136,1.1393,-1195.34,-6816.15)">
            <path d="M4818,4893.35C4792.98,4885.7 4769.68,4881.07 4738.95,4879.99C4709.2,4878.95 4618.92,4888.62 4620.15,4917.41C4621.23,4942.83 4623.67,4986.46 4640.13,5015.48C4657.41,5045.93 4705.85,5090.45 4723.79,5100.12C4731.8,5104.43 4737.87,5101.24 4741.16,5100.69C4775.17,5095.07 4823.07,5044.61 4841.6,4980.24C4846,4964.96 4849.96,4952.27 4847.07,4937.67C4843.45,4919.32 4832.02,4908.7 4818,4893.35Z" style="fill:rgb(234,95,90);stroke:rgb(49,50,61);stroke-width:8.67px;stroke-linecap:butt;stroke-linejoin:miter;stroke-miterlimit:4;"/>
        </g>
        <g id="dp_path0142" serif:id="dp_path014" transform="matrix(-0.936917,0.848545,0.827068,0.981318,1956.45,-7297.52)">
            <path d="M4818,4893.35C4792.98,4885.7 4769.68,4881.07 4738.95,4879.99C4709.2,4878.95 4618.92,4888.62 4620.15,4917.41C4621.23,4942.83 4635.72,4987.68 4652.99,5018.13C4670.27,5048.58 4705.85,5090.45 4723.79,5100.12C4731.8,5104.43 4737.87,5101.24 4741.16,5100.69C4775.17,5095.07 4823.07,5044.61 4841.6,4980.24C4846,4964.96 4849.96,4952.27 4847.07,4937.67C4843.45,4919.32 4832.02,4908.7 4818,4893.35Z" style="fill:rgb(234,95,90);stroke:rgb(49,50,61);stroke-width:8.67px;stroke-linecap:butt;stroke-linejoin:miter;stroke-miterlimit:4;"/>
        </g>
        <g id="dp_path0143" serif:id="dp_path014" transform="matrix(-0.936917,0.848545,0.827068,0.981318,1956.45,-7297.52)">
            <path d="M4818,4893.35C4792.98,4885.7 4769.68,4881.07 4738.95,4879.99C4709.2,4878.95 4618.92,4888.62 4620.15,4917.41C4621.23,4942.83 4635.72,4987.68 4652.99,5018.13C4670.27,5048.58 4705.85,5090.45 4723.79,5100.12C4731.8,5104.43 4737.87,5101.24 4741.16,5100.69C4775.17,5095.07 4823.07,5044.61 4841.6,4980.24C4846,4964.96 4849.96,4952.27 4847.07,4937.67C4843.45,4919.32 4832.02,4908.7 4818,4893.35Z" style="fill:rgb(49,50,61);fill-opacity:0.160784;stroke:rgb(49,50,61);stroke-width:8.67px;stroke-linecap:butt;stroke-linejoin:miter;stroke-miterlimit:4;"/>
        </g>
        <g transform="matrix(1.69497,0.561084,-0.621816,1.87843,-157.119,-2522.48)">
            <path d="M1660.89,1617.7C1655.52,1619.89 1651.09,1623.69 1646.99,1628.06L1647.12,1755.32C1653.04,1758.27 1658.63,1759.63 1663.56,1757.67L1660.89,1617.7Z" style="fill:rgb(208,152,92);stroke:rgb(49,50,61);stroke-width:4.45px;"/>
        </g>
        <g id="dp_path0144" serif:id="dp_path014" transform="matrix(-1.05381,0.685634,0.657084,1.08413,3372.74,-7026.92)">
            <path d="M4818,4893.35C4792.98,4885.7 4769.68,4881.07 4738.95,4879.99C4709.2,4878.95 4618.92,4888.62 4620.15,4917.41C4621.23,4942.83 4634.91,4991.33 4652.19,5021.78C4669.46,5052.23 4705.85,5090.45 4723.79,5100.12C4731.8,5104.43 4737.87,5101.24 4741.16,5100.69C4775.17,5095.07 4823.07,5044.61 4841.6,4980.24C4846,4964.96 4849.96,4952.27 4847.07,4937.67C4843.45,4919.32 4832.02,4908.7 4818,4893.35Z" style="fill:rgb(234,95,90);stroke:rgb(49,50,61);stroke-width:8.67px;stroke-linecap:butt;stroke-linejoin:miter;stroke-miterlimit:4;"/>
        </g>
        <g transform="matrix(1.15717,1.35967,-0.964239,0.820631,1424.38,-1938.41)">
            <path d="M1659.88,1637.29C1656.21,1630.96 1651.18,1622.47 1645.92,1618.34C1648.1,1665.07 1647.89,1712.54 1647.01,1760.23C1652.54,1758.56 1657.69,1753.4 1661.77,1747.19C1663.35,1706.37 1664.87,1656.6 1659.88,1637.29Z" style="fill:rgb(208,152,92);stroke:rgb(49,50,61);stroke-width:5.42px;"/>
        </g>
        <g transform="matrix(1.72119,0.474575,-0.310297,1.12539,-662.074,-1146.82)">
            <path d="M1668.15,1615.8C1662.59,1617.76 1654.85,1624.38 1650.49,1630.21C1652.16,1670.85 1648.75,1712.92 1646.31,1754.14L1664.39,1743.84C1666.9,1701.4 1669.18,1663.3 1668.15,1615.8Z" style="fill:rgb(208,152,92);stroke:rgb(49,50,61);stroke-width:5.56px;"/>
        </g>
        <g transform="matrix(0.320423,1.75643,-1.14843,0.209506,2987.77,-1640.17)">
            <path d="M1655.24,1615.9L1650.19,1643.57L1650.51,1701.13L1643.82,1755.73L1666.85,1754.32L1650.45,1691.07L1665.48,1630.16L1655.24,1615.9Z" style="fill:rgb(208,152,92);stroke:rgb(49,50,61);stroke-width:5.56px;"/>
        </g>
        <g transform="matrix(0.999943,0.0106686,-0.0106686,0.999943,17.2087,-15.415)">
            <path d="M1280.97,1617.84C1288.34,1616.28 1295.53,1615.67 1302.58,1615.88L1361,1618.79L1420.6,1617.5" style="fill:none;stroke:rgb(49,50,61);stroke-width:7.32px;"/>
        </g>
        <g transform="matrix(1.45709,1.0318,-0.724563,1.02321,76.1249,-1742.5)">
            <path d="M1665.44,1603.89C1663.1,1604.09 1656.05,1610.86 1650.27,1617.08C1650.5,1661.06 1651.37,1715.4 1648.69,1761.97C1654.87,1760.95 1660.25,1756.54 1664.94,1750.65C1667.24,1705.22 1667.03,1647.56 1665.44,1603.89Z" style="fill:rgb(208,152,92);stroke:rgb(49,50,61);stroke-width:5.44px;"/>
        </g>
        <g transform="matrix(1.47871,1.00058,-0.627975,0.928055,-188.015,-1677.18)">
            <path d="M1662.75,1612.84C1656.4,1614.92 1651.07,1619.77 1646.31,1626.14C1644.98,1662.67 1645.68,1703.13 1648.19,1747.13C1651.78,1759.3 1656.83,1772.94 1662.87,1782.22C1658.77,1709.97 1657.47,1640.9 1662.75,1612.84Z" style="fill:rgb(208,152,92);stroke:rgb(49,50,61);stroke-width:5.63px;"/>
        </g>
        <g transform="matrix(0.999943,0.0106686,-0.00815836,0.764662,-1.59386,372.153)">
            <path d="M1517.23,1616.82C1517.23,1616.82 1540.32,1603.35 1563.7,1593.49C1574.44,1588.96 1581.91,1595.65 1590.56,1594.31C1597.92,1593.16 1611.36,1582.17 1622.63,1582.04C1662.11,1581.56 1715.9,1585.95 1715.9,1585.95C1715.9,1585.95 1704.33,1589.42 1688.16,1594.65C1669.89,1600.55 1715.91,1643.5 1715.66,1648.39C1715.41,1653.35 1667.52,1620.98 1659.17,1623.32C1650.66,1625.7 1627.26,1612.27 1619.51,1614.21C1609.79,1616.65 1599.1,1609.86 1592.56,1610.87C1585.1,1612.03 1577.36,1620.99 1567.34,1620.76C1543.14,1620.18 1517.23,1616.82 1517.23,1616.82Z" style="fill:rgb(49,50,61);fill-opacity:0.396078;"/>
        </g>
        <g transform="matrix(1.05381,0.130167,-0.122589,0.992458,-147.725,-181.476)">
            <path d="M1487.19,1659.93C1487.19,1659.93 1531.74,1604.06 1544.26,1600.53C1548.34,1599.38 1517.99,1579.96 1514.08,1577.22C1504.21,1570.29 1549,1584.98 1574.4,1593.25C1587.92,1597.66 1604.42,1589.87 1613.59,1589.05C1635.18,1587.11 1691.19,1594.11 1691.19,1594.11C1691.19,1594.11 1634.98,1605.81 1614.71,1607.63C1598.82,1609.06 1561.29,1623.02 1540.1,1621.14C1528.4,1620.11 1487.19,1659.93 1487.19,1659.93Z" style="fill:rgb(49,50,61);fill-opacity:0.396078;"/>
        </g>
        <path d="M1176.77,1702.83C1174.1,1705.5 1188.44,1753.17 1206.77,1761.83C1225.1,1770.5 1263.77,1765.17 1286.77,1754.83C1309.21,1744.75 1334.1,1729.33 1350.77,1717.83C1363.99,1708.72 1394.77,1684 1386.77,1685.83C1378.77,1687.67 1330.1,1718.83 1302.77,1728.83C1277.17,1738.2 1243.77,1750.17 1222.77,1745.83C1202.21,1741.59 1179.44,1700.17 1176.77,1702.83Z" style="fill:rgb(49,50,61);fill-opacity:0.2;"/>
        <g transform="matrix(-0.999729,0.0232974,0.0213371,0.915607,2897.04,111.151)">
            <path d="M1176.77,1702.83C1174.1,1705.5 1188.44,1753.17 1206.77,1761.83C1225.1,1770.5 1263.77,1765.17 1286.77,1754.83C1309.21,1744.75 1334.91,1728.22 1350.77,1717.83C1361.96,1710.5 1389.91,1690.68 1381.91,1692.51C1373.91,1694.34 1329.3,1719.95 1302.77,1728.83C1276.92,1737.5 1243.77,1750.17 1222.77,1745.83C1202.21,1741.59 1179.44,1700.17 1176.77,1702.83Z" style="fill:rgb(49,50,61);fill-opacity:0.2;"/>
        </g>
        <g transform="matrix(1.30452,-0.0231165,0.0188135,1.06169,-475.101,-40.8318)">
            <path d="M1507.67,1567.59C1507.67,1552.66 1497.81,1540.55 1485.67,1540.55L1441.67,1540.55C1429.53,1540.55 1419.67,1552.66 1419.67,1567.59L1419.67,1629.52C1419.67,1644.44 1429.53,1656.55 1441.67,1656.55L1485.67,1656.55C1497.81,1656.55 1507.67,1644.44 1507.67,1629.52L1507.67,1567.59Z" style="fill:rgb(234,95,90);stroke:rgb(49,50,61);stroke-width:8.91px;"/>
        </g>
        <g transform="matrix(0.907424,1.53763,-0.405436,0.239266,682.392,-1279.07)">
            <path d="M1656.84,1638.67L1650.62,1623.33L1647.67,1793.95C1649.23,1791 1653.26,1756.97 1658.18,1724.94C1662.95,1693.84 1663.53,1653.78 1656.84,1638.67Z" style="fill:rgb(208,152,92);stroke:rgb(49,50,61);stroke-width:6.42px;"/>
        </g>
        <g transform="matrix(-0.626141,-1.04943,0.357996,-0.213598,1858.06,3669.67)">
            <path d="M1656.84,1638.67L1650.62,1623.33L1647.67,1793.95C1649.23,1791 1653.26,1756.97 1658.18,1724.94C1662.95,1693.84 1663.53,1653.78 1656.84,1638.67Z" style="fill:rgb(208,152,92);stroke:rgb(49,50,61);stroke-width:9.19px;"/>
        </g>
    </g>
</svg>
