<svg xmlns="http://www.w3.org/2000/svg" width="3000" height="3000" viewBox="0 0 3000 3000">
  <defs>
    <style>
      .cls-1 {
        fill: #4c4b51;
      }

      .cls-1, .cls-10, .cls-11, .cls-12, .cls-13, .cls-2, .cls-3, .cls-4, .cls-5, .cls-6, .cls-7, .cls-8, .cls-9 {
        fill-rule: evenodd;
      }

      .cls-2, .cls-8 {
        fill: #32323b;
      }

      .cls-2 {
        opacity: 0.2;
      }

      .cls-3 {
        fill: #b5b4b9;
      }

      .cls-4 {
        fill: #d3d2d8;
      }

      .cls-5 {
        fill: #66656c;
      }

      .cls-6 {
        fill: #f9e137;
      }

      .cls-7 {
        fill: #fceb65;
      }

      .cls-9 {
        fill: #fbf243;
      }

      .cls-10 {
        fill: #ebbd38;
      }

      .cls-11 {
        fill: #fada3c;
      }

      .cls-12 {
        fill: #fdfdc9;
      }

      .cls-13 {
        fill: #f2d67a;
      }
    </style>
  </defs>
  <path class="cls-1" d="M1778,1926v77l-2,43-19,18h-48l-75-1-23-12-244,13H1092l-567-1H473s-20.5-12.5-15-32-2-201-2-201l2-87,16-21,210,2,288-2,267,2,356-3,153,3,28,24,2,102v76Z"/>
  <path class="cls-2" d="M1575,2469s99,30,3,63l-1206-9s-84-45,15-66Z"/>
  <path class="cls-3" d="M1542,2067l-57,2v421s13,22.5,26,24,29.5-15,31-23S1542,2067,1542,2067Z"/>
  <path id="Shape_78_copy" data-name="Shape 78 copy" class="cls-3" d="M718,2067l-57,2v421s13,22.5,26,24,29.5-15,31-23S718,2067,718,2067Z"/>
  <path class="cls-4" d="M1542,2064l-14,2v426a23.248,23.248,0,0,1-12,17c-11,6,12,2,12,2l10-11,5-10Z"/>
  <path id="Shape_77_copy" data-name="Shape 77 copy" class="cls-4" d="M721,2064l-14,2v426s-6,11-17,17,17,2,17,2l10-11,5-10Z"/>
  <path class="cls-5" d="M460.155,1997.71C460.436,1915.7,461,1751,461,1751v-20l15-10,409-2,807,3,60,2,18,3,6,36,1,274-12.25,12.25C1760.6,2053.4,1737,2063,1737,2063s20.93-14.96,19.81-33.5c-0.49-73.12-1.81-267.39-1.81-275.5,0-10-12-14-12-14H489c-13.5,0-15,13-15,13s-0.41,182.14,0,261l-13,11S460.062,2024.9,460.155,1997.71Z"/>
  <path class="cls-6" d="M1757,1728l-405,335,280-3,143-119,3-190-9-18Z"/>
  <path class="cls-6" d="M1542,1723l-406,338-259,1,406-338Z"/>
  <path class="cls-6" d="M1070,1721L653,2063l-180,1-12-10-3-26,378-312,99,5h135Z"/>
  <path class="cls-6" d="M608,1724L455,1843l-2-73,5-27,6-13,16-11,81,2Z"/>
  <path class="cls-7" d="M1770,1945l-14,12V1749s-1.5-9-14-9l16-13,16,15,7,71-3,133Z"/>
  <path class="cls-7" d="M1521,1740l18-14-259-4,1,4-18,14h258Z"/>
  <path class="cls-7" d="M1066,1723l-18,16-241,1,21-19Z"/>
  <path class="cls-7" d="M609,1723l-22,17H489s-14-3.5-14,11v77l-13,10-6-69,4-31,19-20Z"/>
  <path class="cls-7" d="M461,2025l13-10,2,20s0.5,12.5,16,21-13,5-13,5l-17-5-6-24Z"/>
  <path class="cls-8" d="M588.748,1709.7q409.863,0.525,819.812,1.06,120.96,0.255,241.96.53h68.45c14.89,0,31.12-1.04,41.92,3.18,21.76,8.51,21.86,26.21,26,53.07v23.88q0.27,90.48.53,180.97c0,28.55,3.88,66.53-8.49,83.32-14.03,19.03-38.32,15.39-70.57,15.39q-79.32.255-158.66,0.53-0.525,172.725-1.06,345.48c0,26.53.69,62.56,0.36,74.89-2,22-19.3,28.73-34,30-3.44.3-31.51-3.71-33-33,0-18.67-1.28-54.2-1.28-84.63q-0.795-166.62-1.59-333.27c-248.84.35-500.748,0.71-749.584,1.06q-0.53,173.52-1.061,347.07c-0.177,26.18-1.308,39.59-1.485,65.77-4.747,24.09-20.245,30.61-35,32-14.351.45-29.28-12.05-32.5-30-3.045-13.7-1.985-303.41-2.516-414.84H514.462c-19.553,0-45.7,2.96-56.777-5.84-15.612-12.4-11.675-53.37-11.674-80.66q-0.264-91.545-.53-183.09c0-28-3.521-62.4,8.49-78.54C465.28,1703.15,517.063,1708.38,588.748,1709.7Zm24.409,15.92q-52.527.525-105.063,1.06c-13.5,0-29.693.03-37.094,6.32-12.391,10.53-9.6,42.99-9.6,65.32q0.531,91.8,1.062,183.62c0,19.7-4.225,68.42,8.49,73.77q474.857-.27,949.809-0.53h262.13c31.96,0,78.31,7.75,87.02-16.45,6.21-17.29-1.86-43.12,1.06-62.63V1810.53c-1.55-25.48,5.19-62.75-8.49-76.42-10.93-10.92-56.62-6.37-79.59-6.37q-106.92-.525-213.84-1.06Q1041.145,1726.14,613.157,1725.62Zm56.031,346.54q0.266,172.455.531,344.95c0,25.47-1.021,62.35,1.781,71.89,3.732,12.7,13.739,18.86,24.5,17,9.894-3.35,14.513-8.02,19-18,3.232-21.21,2.344-51.15,2.342-77.26q0.266-169.275.531-338.58H669.188Zm869.9,2.12q-24.4.27-48.82,0.53,0.54,167.685,1.06,335.4c0,27.06.34,76.12,1.67,83.79s13.94,20.01,26.46,16.92c6.17-1.53,18.23-11.12,18.57-16.45s0-61.8,0-91.69Q1538.555,2238.545,1539.09,2074.28Z"/>
  <path class="cls-9" d="M1084,954s-75.79-225.551,73-320l6-1s8.39,38.07,26,101c0,0,35.76,32.508,32-6l-27-113s8.19-20.235,47-26l38,123s23.05,24.675,32-6l-36-126s20.81-9.429,50-9c0,0,33.1,62.379,40,117,0,0,20.86,27.83,31-6,0,0,4.96-20.061-32-109,0,0,159.95,1.026,238,227l4,15s0.84-34.169,28-9c0,0,32.14,23.051-4,43,0,0-55.4,78.471-227,123s-218.96,53.08-333,35C1027.97,971.207,1065.11,951.639,1084,954Z"/>
  <path class="cls-10" d="M1288,946l-17-61s-8-15,34-13l80-26s14-7,19,9l14,59-78,25Z"/>
  <path class="cls-10" d="M1163,636s11,69,35,108c0,0,20,9,26-7l-27-96-5-23-18,9Z"/>
  <path class="cls-10" d="M1246,593s21.2-19.124,30-5c11.62,18.635,29.47,78.969,35.49,116.184C1306.33,728.06,1283,718,1277,709S1246,593,1246,593Z"/>
  <path class="cls-10" d="M1328,576s35,70,39,113c2.13,22.923,29,3,30-8,0,0-17-80-38-105l-14-2Z"/>
  <path class="cls-11" d="M1121,1011s-8-30,14-41,5-6,5-6-50-206,3-315c0,0-129,73-59,305,0,0-5-10-20-3s-26,41-6,52S1121,1011,1121,1011Z"/>
  <path class="cls-12" d="M1575,829s11-155-183-249c0,0,124,5,214,222,0,0,38-21,43,31l-40,39S1611,838,1575,829Z"/>
  <path class="cls-13" d="M1379,851s6-15,20-5,18,67,18,67l-15,5-5,2Z"/>
  <path class="cls-8" d="M1314.03,563.141c4.64-.041,11.42-0.666,14.66,1.124,2.26,1.249,2.58,4.411,5.35,5.061,6.46-2.975,13.65-1.351,20.57-.562,4.01-6.89,19.64-3.593,27.9-1.687,23.92,5.521,45.38,12.745,64.52,23.055,59.82,32.209,99.47,80.691,133.57,138.612,11.31,19.217,18.43,40.856,28.46,61.573,23.27-2.764,31.67,6.581,41.14,20.806,4.42,6.64,8.2,17.775,3.94,27.554-2.79,6.406-9.46,11.054-14.65,15.182-8.75,6.953-16.92,14.875-25.92,21.65-70.95,53.372-160.21,89.841-257.55,116.681-38.22,10.54-78.17,15.77-120.04,23.06-17.02,2.96-34.76,1.51-52.69,4.21-10.4,1.57-25.7,2.23-36.63.56l-25.08-.84c-21.45-3.38-43.04-3.27-62.27-9-15.15-4.51-25.61-30.819-17.47-49.48,5.23-12.013,14.82-14.831,29.86-17.432v-1.124c-6.57-18.266-8.46-39.391-12.39-60.169-1.96-10.346-.51-20.4-2.26-31.489a111.882,111.882,0,0,1,0-30.366q0.15-5.481.28-10.965c2.54-15.26,2.97-30.273,6.77-44.142,8.7-31.757,19.68-59.574,36.35-83.223,5.31-7.534,11.52-14.292,17.18-21.368,9.91-12.377,28.18-30.189,41.99-38.238,3.61-2.1,7.49,1.583,9.3.562q2.955-2.249,5.92-4.5,4.785-1.968,9.58-3.936c0.11-15.127,29.07-28.991,41.98-33.177,3.83-1.24,17.6-4.755,21.13-2.531q1.845,2.389,3.67,4.78c3.29-1.564,6.52-3.515,10.42-4.5l8.17-1.125,3.39-3.936c6.02-4.407,15.79-6.841,23.95-8.716Zm1.69,10.965-10.98.843c-5.54.986-20.61,3.766-22.83,7.31-0.73,2.761,6.8,23.629,8.17,27.554q13.11,43.154,26.21,86.316c4.13,17.957-7.61,26.377-20.57,29.241-19.49,4.3-22.05-16.272-25.93-29.241q-10.845-39.5-21.69-79.006c-1.69-5.979-4.33-24.593-7.89-27.835-15.45,4.431-26.23,8.154-36.92,16.589-2.73,2.157-7.18,4.7-7.6,9q4.65,20.382,9.3,40.768,9.825,33.363,20.85,64.667c3.97,11.291,3.57,24.926-6.77,29.24-23.62,9.86-29.33-6.35-35.5-22.492-10.49-27.445-16.88-58.708-23.67-90.253-0.19-.093-0.37-0.187-0.56-0.281-3.45,1.314-5.75,4.624-8.46,6.748a178.983,178.983,0,0,0-30.15,30.365c-27.65,35.214-40.69,66.964-50.72,120.337-2.27,12.087-1.41,24.106-2.25,37.675-0.71,11.534-.74,25.373,1.13,36.551,1.91,11.47,2.68,23.642,5.07,34.3,3.77,16.861,6.19,39.571,13.52,52.858,12.72,1.855,26.44,2.944,40.02,5.061h35.78l24.24-1.125c15.12-2.5,31-3.155,45.36-5.9,12.28-2.35,24.25-3.744,35.79-6.186,4.18-.886,8.71-0.859,12.11-2.53v-0.281q-6.33-24.6-12.68-49.2c-1.51-6.655-4.65-15.092-.56-21.649,6.17-9.893,24.35-6.253,38.04-8.716,26.81-4.823,50.67-9.452,70.45-20.806,5.76-3.31,15.74-9.978,24.23-5.061,10.68,6.184,14.27,37.894,18.31,51.733,1.3,4.439,1.27,12.467,4.23,15.464q5.49-2.109,10.99-4.217c12.09-4.793,23.53-9.893,34.94-14.9a553.956,553.956,0,0,0,95.81-53.982c10.03-7.052,19.52-14.262,29.02-21.65,2.81-2.184,6.58-4.245,8.45-7.31-0.98-6.9-5.48-15.112-8.17-21.087-6.78-15.053-12.81-29.46-20.29-43.3-30.64-56.723-68.31-101.827-122.85-134.676-17.86-10.752-37.05-17.75-59.46-24.461-3.24-.97-19.84-5.42-22.54-3.655,10.77,27.693,22.42,55.126,31,86.035,5.06,18.243-1.33,35.827-18.32,38.8-21.53,3.767-20.11-19.073-23.67-33.739a433.6,433.6,0,0,0-24.23-71.977c-1.98-4.52-7.41-19.538-10.99-21.368Zm27.62,1.687c-2.23.866-4.49,0.645-5.92,2.249q7.47,17.008,14.94,34.02c6.83,16.78,11.04,34.985,16.06,53.421,2.19,8.053.72,30.045,14.09,24.742,12.19-4.841,7.51-23.432,3.94-34.3-6.9-21.014-13.69-41.5-21.98-60.73C1360.24,585.375,1357.27,575.757,1343.34,575.793Zm-77.49,11.246c-4.94,2.386-8.69,2.555-12.12,6.186,0.05,8.433,5.77,23.536,8.18,31.49q8.58,31.908,17.18,63.823c2.21,7.777,4.25,29.155,15.5,25.866,17.74-5.186,10.25-20.943,5.64-35.145q-14.235-45.683-28.46-91.376A13.15,13.15,0,0,0,1265.85,587.039ZM1184.7,623.59c-5.5,3.594-11.13,5.2-14.09,11.246q2.535,12.37,5.07,24.742c4.97,20.633,9.64,41.988,16.91,60.45,4.33,10.99,7.83,29.526,23.95,17.994,3.11-10.064-5.76-26.533-8.74-34.864-8.94-25.012-15.37-51.706-21.41-79.287Zm432.25,176.568-3.38.562-0.57.563c2.95,10.207-8.08,15.3-13.8,19.681a655.986,655.986,0,0,1-58.05,40.206c-55.21,33.611-118,60.455-188.23,79.005-40.25,10.631-81.48,17.067-124.55,25.305l-47.34,5.342-10.98.281c-16.02,2.444-37.77,1.7-52.98-.843-8.91-1.492-31.93-1.732-37.19-5.624-2.72-2.011-3.2-7.293-5.08-10.121-12.51-.176-20.54,3.312-23.67,12.371-3.9,11.313,3.21,29.307,10.15,32.333,8.78,3.831,20.35,3.521,30.43,5.341,22.87,4.12,49.73,5.09,76.08,4.5,74.08-1.65,142.06-14.725,202.04-31.772,84.53-24.023,163.78-58.233,227.67-103.466,11.37-8.045,21.63-17.583,32.41-26.148,4.54-3.611,11.38-7.941,14.09-13.215C1651.34,820.15,1629.74,800.621,1616.95,800.158Zm-225.71,48.359c-12.23,6.33-24.38,12.554-38.32,17.432-11.83,4.14-24.9,6.089-38.04,8.716-6.27,1.255-36.07,1.738-38.04,5.061-2.45,4.135,2.01,13.215,3.1,16.87q5.775,22.772,11.55,45.548c4.77,1.228,27.26-5.219,32.69-6.748,23.5-6.625,46.55-10.959,68.19-18.557,6.47-2.272,13.84-3.457,19.44-6.748q-5.91-23.473-11.83-46.953c-1.41-4.834-1.14-12.337-5.36-14.339Z"/>
</svg>
