<?xml version="1.0" encoding="UTF-8" standalone="no"?>
<!DOCTYPE svg PUBLIC "-//W3C//DTD SVG 1.1//EN" "http://www.w3.org/Graphics/SVG/1.1/DTD/svg11.dtd">
<svg width="100%" height="100%" viewBox="0 0 3000 3000" version="1.1" xmlns="http://www.w3.org/2000/svg" xmlns:xlink="http://www.w3.org/1999/xlink" xml:space="preserve" xmlns:serif="http://www.serif.com/" style="fill-rule:evenodd;clip-rule:evenodd;stroke-linecap:round;stroke-linejoin:round;stroke-miterlimit:1.5;">
    <g transform="matrix(3.17959,0,0,3.25941,-618.367,-539.749)">
        <rect x="194.48" y="165.597" width="943.517" height="920.411" style="fill:none;"/>
    </g>
    <g id="Cucumber" transform="matrix(1,0,0,1,5,1)">
        <g transform="matrix(1.0182,-0.0422342,0.0479704,1.1067,-143.611,-181.634)">
            <path d="M580.995,1924.95C776.925,1924.95 940.999,1966.72 940.999,2002.59C940.999,2014.85 958.116,2036.17 925.173,2043.33C863.503,2056.72 715.238,2064.87 585.999,2067.59C390.112,2071.72 240.999,2038.47 240.999,2002.59C240.999,1966.72 385.065,1924.95 580.995,1924.95Z" style="fill:rgb(49,50,61);fill-opacity:0.192157;"/>
        </g>
        <g transform="matrix(1.01912,0.000801406,-0.000266688,1,-30.4431,51.5057)">
            <g>
                <g transform="matrix(0.057657,-0.998336,0.998336,0.057657,-1512.4,1975.85)">
                    <path d="M253.687,1744.5L194.094,1751.6C203.662,1733.13 209.384,1717.07 213.009,1702.33C217.926,1706.48 220.292,1709.87 239.187,1705.5C237.001,1721.7 241.068,1735.05 253.687,1744.5Z" style="fill:rgb(69,164,82);stroke:rgb(49,50,61);stroke-width:8.65px;"/>
                </g>
                <g transform="matrix(0.0469587,-0.813095,0.576639,0.0333026,-787.675,1975.89)">
                    <path d="M239.535,1739.29L210.507,1721.94C211.792,1716.01 208.083,1718.43 213.009,1702.33C217.926,1706.48 220.292,1709.87 239.187,1705.5C239.33,1721.76 236.447,1735.38 239.535,1739.29Z" style="fill:rgb(86,203,102);"/>
                </g>
                <path d="M981.52,1635.33C981.52,1635.33 940.631,1844.22 920.187,1948.67L802.853,1968.67L782.853,1974C767.726,1976.27 752.622,1975.97 737.52,1975.33L641.52,1987.33C570.754,1993.09 482.326,1997.81 429.687,1993.5C416.363,1992.41 400.609,1994.29 387.646,1991.34C378.339,1989.21 371.762,1982.66 362.54,1979.74C352.914,1976.69 343.312,1973.26 333.687,1969.5C303.893,1953.86 269.353,1927.83 252.687,1907.5C239.388,1891.28 236.519,1872.63 233.687,1847.5C232.479,1829.76 233.154,1812.05 245.687,1794.5C261.867,1772.63 288.453,1754.77 317.353,1739.5C334.069,1733.14 351.662,1720.69 370.553,1722.99C374.108,1723.42 377.677,1721.22 381.255,1720.38C397.196,1716.63 413.31,1713.46 429.02,1710.83C482.853,1701.83 567.384,1692.98 637.687,1685.5L727.868,1673.27L750.975,1668.76L814.687,1661.5L891.563,1642.76L916.594,1645.52L981.52,1635.33" style="fill:rgb(77,183,92);stroke:rgb(49,50,61);stroke-width:9.71px;"/>
                <path d="M361.601,1970.67C395.435,1992.51 489.935,1988.84 551.601,1988.67C611.935,1988.51 691.435,1973.84 731.601,1969.67C751.924,1967.57 766.028,1971.83 792.601,1963.67C818.424,1955.76 915.864,1943.81 915.601,1943.01C915.017,1941.22 925.881,1896.37 922.268,1897.67C831.75,1930.37 815.546,1876.07 744.268,1887.34C688.876,1896.1 507.546,1910.62 441.601,1905.67C406.814,1903.07 361.935,1846.84 348.601,1857.67C335.268,1868.51 329.744,1950.12 361.601,1970.67Z" style="fill:rgb(139,225,122);stroke:rgb(139,225,122);stroke-width:4.44px;"/>
                <g transform="matrix(1.03296,-0.0229984,0.022259,0.999752,-71.9965,12.4748)">
                    <path d="M392.331,1822.58C361.569,1817.23 611.198,1757.81 828.077,1731.98C878.305,1726 969.367,1695.6 961.255,1692.7C953.143,1689.8 828.84,1707.92 779.406,1714.57C741.032,1719.73 702.895,1726.53 664.654,1732.6C620.538,1739.6 550.365,1751.58 514.707,1756.58C493.487,1759.55 471.377,1756.93 450.707,1762.58C425.518,1769.46 373.3,1787.87 363.571,1797.87C354.757,1806.92 402.867,1824.41 392.331,1822.58Z" style="fill:rgb(139,225,122);stroke:rgb(139,225,122);stroke-width:4.36px;"/>
                </g>
                <g transform="matrix(1.01068,-8.67362e-19,0,1,-3.57524,2)">
                    <path d="M497.52,1706C497.52,1706 896.853,1648.67 972.187,1643.33C984.866,1642.44 961.723,1670.44 949.52,1674C917.52,1683.33 836.536,1690.28 780.187,1699.33C705.52,1711.33 566.631,1732.44 501.52,1746C463.26,1753.97 417.298,1764.89 389.52,1780.67C365.994,1794.03 326.631,1822.22 334.853,1840.67C343.076,1859.11 400.354,1889.13 438.853,1891.33C516.631,1895.78 718.964,1875.67 801.52,1867.33C846.356,1862.81 933.348,1837.5 934.187,1841.33C937.356,1855.84 929.742,1871.22 926.187,1884C922.923,1895.73 927.068,1914.29 912.853,1918C907.995,1919.27 674.964,1960 602.853,1971.33C562.173,1977.73 518.853,1985.5 480.187,1986C443.538,1986.47 401.71,1977.14 370.853,1974.33C345.884,1972.06 328.166,1960.23 314.853,1951C291.745,1934.98 260.831,1914.08 248.187,1878C235.492,1841.78 232.691,1788.22 301.52,1750C346.308,1725.13 497.52,1706 497.52,1706Z" style="fill:rgb(64,151,76);"/>
                </g>
                <path d="M981.52,1635.33C981.52,1635.33 940.631,1844.22 920.187,1948.67L802.853,1968.67L782.853,1974C767.726,1976.27 752.622,1975.97 737.52,1975.33L641.52,1987.33C570.754,1993.09 482.326,1997.81 429.687,1993.5C416.363,1992.41 400.609,1994.29 387.646,1991.34C378.339,1989.21 371.762,1982.66 362.54,1979.74C352.914,1976.69 343.312,1973.26 333.687,1969.5C303.893,1953.86 269.353,1927.83 252.687,1907.5C239.388,1891.28 236.519,1872.63 233.687,1847.5C232.479,1829.76 233.154,1812.05 245.687,1794.5C261.867,1772.63 288.453,1754.77 317.353,1739.5C334.069,1733.14 351.662,1720.69 370.553,1722.99C374.108,1723.42 377.677,1721.22 381.255,1720.38C397.196,1716.63 413.31,1713.46 429.02,1710.83C482.853,1701.83 567.384,1692.98 637.687,1685.5L727.868,1673.27L750.975,1668.76L814.687,1661.5L891.563,1642.76L916.594,1645.52L981.52,1635.33" style="fill:rgb(80,152,91);fill-opacity:0.882353;stroke:rgb(49,50,61);stroke-width:9.71px;"/>
            </g>
            <g transform="matrix(1.00537,-2.11233e-05,-1.76011e-05,1,-1.22011,0.00480115)">
                <path d="M963.967,1679.54C940.929,1684.78 909.49,1687.09 890.665,1690.25C853.758,1696.43 728.599,1714.39 711.999,1716.91C647.072,1726.8 456.354,1756.87 425.639,1760.24C390.748,1764.08 360.65,1772.83 327.999,1784.83C312.911,1790.38 288.452,1798.36 272.717,1807.16C258.094,1815.35 246.09,1830.86 233.332,1842.25" style="fill:none;stroke:rgb(86,203,102);stroke-width:7.93px;"/>
            </g>
            <g transform="matrix(1.00537,-2.11233e-05,-1.76011e-05,1,-1.22011,0.00480115)">
                <path d="M926.999,1864.58C912.809,1872.25 760.694,1887.8 756.897,1894.58C753.634,1900.4 412.152,1908.2 384.35,1897.05C364.65,1889.15 282.304,1882.91 240.665,1862.25" style="fill:none;stroke:rgb(86,203,102);stroke-width:7.93px;"/>
            </g>
            <g transform="matrix(1.00537,-2.11233e-05,-1.76011e-05,1,-9.59897,45.3383)">
                <path d="M925.999,1867.58C911.809,1875.25 716.526,1889.43 704.897,1891.58C672.631,1897.53 540.882,1900.34 536.665,1900.25C513.699,1899.74 454.638,1896.93 435.97,1897.06C426.709,1897.12 382.458,1891.57 372.683,1890.05C293.828,1877.77 273.732,1844.95 247.332,1827.58" style="fill:none;stroke:rgb(86,203,102);stroke-width:7.93px;"/>
            </g>
            <g transform="matrix(1.00537,-2.11233e-05,-1.76011e-05,1,-11.9427,-75.995)">
                <path d="M947.889,1879.21C914.217,1888.24 683.722,1923.16 658.665,1920.91C648.216,1919.98 508.344,1935.19 488.683,1935.38C455.428,1935.71 309.975,1944.57 249.332,1928.91" style="fill:none;stroke:rgb(86,203,102);stroke-width:7.93px;"/>
            </g>
            <g transform="matrix(1.00368,-0.0579654,-0.0582378,-0.998319,99.2137,3782.62)">
                <path d="M965.752,1989.39C939.07,1996.55 855.65,1974.64 845.857,1973.81C803.541,1970.25 790.564,1967.6 748.152,1965.11C718.439,1963.36 688.669,1962.69 658.957,1960.94C602.8,1957.64 546.784,1951.62 490.555,1949.96C454.179,1948.88 403.238,1943.02 398.185,1942.69C376.582,1941.27 353.76,1942.83 310.18,1937.73C295.462,1936 265.353,1931.34 251,1927.64" style="fill:none;stroke:rgb(86,203,102);stroke-width:7.95px;"/>
            </g>
            <g transform="matrix(1.00524,0,4.33681e-19,1,-2.23336,2)">
                <path d="M497.52,1706C497.52,1706 745.48,1659.6 888.368,1646.99C942.578,1642.2 969.568,1647.34 983.225,1638.42C984.798,1637.39 992.236,1658.99 960.97,1665.35C833.883,1691.2 505.771,1741.15 434.35,1767.48C397.681,1780.99 382.069,1822.84 395.812,1846.14C477.379,1984.46 952.146,1873.22 945.249,1833.42C942.714,1818.79 934.637,1867 930.187,1884.03C925.24,1902.96 929.785,1943.28 915.571,1946.99C912.951,1947.67 844.79,1961.63 773.986,1970.74C713.504,1978.53 648.955,1981.44 615.751,1984.43C570.743,1988.49 521.934,1986.45 481.163,1989.01C456.309,1990.57 418.103,1990.42 397.685,1987.77C382.062,1985.74 377.883,1975.01 370.853,1974.33C345.895,1971.94 328.166,1960.23 314.853,1951C291.745,1934.98 253.839,1913.03 241.195,1876.94C228.5,1840.72 232.691,1788.22 301.52,1750C346.308,1725.13 497.52,1706 497.52,1706Z" style="fill:rgb(49,50,61);fill-opacity:0.207843;"/>
            </g>
            <path d="M232.999,1826.58C232.075,1844.01 233.585,1862.15 238.332,1881.25" style="fill:none;stroke:rgb(49,50,61);stroke-width:7.95px;"/>
        </g>
    </g>
</svg>
