<svg id="Dada" xmlns="http://www.w3.org/2000/svg" width="3000" height="3000" viewBox="0 0 3000 3000">
  <defs>
    <style>
      .cls-1 {
        fill: #575861;
      }

      .cls-2 {
        fill: #e4e1da;
      }

      .cls-2, .cls-3 {
        fill-rule: evenodd;
      }

      .cls-3 {
        fill: #31323d;
      }
    </style>
  </defs>
  <g id="dada-placard-portraitadele">
    <rect id="Rectangle_2_copy" data-name="Rectangle 2 copy" class="cls-1" x="155" y="1980" width="291" height="187"/>
    <path id="Rectangle_2_copy_2" data-name="Rectangle 2 copy 2" class="cls-2" d="M159.98,1984.99H441.02v177.02H159.98V1984.99Z"/>
    <path id="dada.nyc" class="cls-3" d="M187.636,2123.36l0.415-.6v2.64h3.012v-26.56h-3.246v10.03l-0.253-.36a6.475,6.475,0,0,0-5.628-3.02,7.169,7.169,0,0,0-5.79,2.67,10.673,10.673,0,0,0-2.218,7.03,12.281,12.281,0,0,0,2.29,7.83,7.434,7.434,0,0,0,6.169,2.9h0a6.337,6.337,0,0,0,5.249-2.56h0Zm-1.181-12.8a11.359,11.359,0,0,1,1.362,6.09,7.251,7.251,0,0,1-1.443,4.71,4.651,4.651,0,0,1-3.806,1.78,4.465,4.465,0,0,1-3.888-1.93,9.5,9.5,0,0,1-1.361-5.51q0-3.795,1.262-5.54a4.594,4.594,0,0,1,3.987-1.74A4.34,4.34,0,0,1,186.455,2110.56Zm17.2,13.18a7.322,7.322,0,0,0,.83-0.87,4.282,4.282,0,0,0,.776,1.9,3.271,3.271,0,0,0,2.669,1.01,4.679,4.679,0,0,0,.884-0.11,6.139,6.139,0,0,0,.992-0.29v-2.35a5.2,5.2,0,0,1-.6.11c-0.187.02-.328,0.04-0.424,0.04a1.081,1.081,0,0,1-.8-0.3,1.069,1.069,0,0,1-.3-0.79v-10.62a5.442,5.442,0,0,0-1.84-4.45,8.189,8.189,0,0,0-5.357-1.53,8.978,8.978,0,0,0-5.736,1.6,6.38,6.38,0,0,0-2.237,4.78H195.5a4.117,4.117,0,0,1,1.362-2.78,4.783,4.783,0,0,1,3.13-.93,5.384,5.384,0,0,1,3.265.88,2.854,2.854,0,0,1,1.172,2.43v0.16a2.063,2.063,0,0,1-.343,1.23,1.629,1.629,0,0,1-.974.65,5.555,5.555,0,0,1-1.028.18l-4.419.56a7.622,7.622,0,0,0-4.555,1.92,5.526,5.526,0,0,0-1.56,4.13,5.3,5.3,0,0,0,1.66,4.11,6.4,6.4,0,0,0,4.491,1.51h0a8.618,8.618,0,0,0,5.952-2.18h0Zm0.722-4.85a3.767,3.767,0,0,1-.108.75,4.742,4.742,0,0,1-1.606,2.2,6.767,6.767,0,0,1-4.329,1.39,3.386,3.386,0,0,1-2.507-.88,3.348,3.348,0,0,1-.884-2.5,2.413,2.413,0,0,1,1.082-2.08,7.89,7.89,0,0,1,3.428-1.1l2.976-.43a6.957,6.957,0,0,0,2-.6v2.1h0a11.1,11.1,0,0,1-.054,1.15h0Zm18.437,4.47,0.415-.6v2.64h3.012v-26.56H223v10.03l-0.252-.36a6.475,6.475,0,0,0-5.628-3.02,7.169,7.169,0,0,0-5.79,2.67,10.673,10.673,0,0,0-2.218,7.03,12.281,12.281,0,0,0,2.29,7.83,7.434,7.434,0,0,0,6.169,2.9h0a6.337,6.337,0,0,0,5.249-2.56h0Zm-1.181-12.8a11.36,11.36,0,0,1,1.361,6.09,7.245,7.245,0,0,1-1.443,4.71,4.648,4.648,0,0,1-3.8,1.78,4.465,4.465,0,0,1-3.888-1.93,9.5,9.5,0,0,1-1.361-5.51q0-3.795,1.262-5.54a4.594,4.594,0,0,1,3.987-1.74A4.34,4.34,0,0,1,221.634,2110.56Zm17.2,13.18a7.322,7.322,0,0,0,.83-0.87,4.282,4.282,0,0,0,.776,1.9,3.271,3.271,0,0,0,2.669,1.01,4.679,4.679,0,0,0,.884-0.11,6.139,6.139,0,0,0,.992-0.29v-2.35a5.2,5.2,0,0,1-.6.11c-0.187.02-.328,0.04-0.424,0.04a1.081,1.081,0,0,1-.8-0.3,1.069,1.069,0,0,1-.3-0.79v-10.62a5.442,5.442,0,0,0-1.84-4.45,8.189,8.189,0,0,0-5.357-1.53,8.978,8.978,0,0,0-5.736,1.6,6.38,6.38,0,0,0-2.237,4.78h2.994a4.117,4.117,0,0,1,1.362-2.78,4.783,4.783,0,0,1,3.13-.93,5.384,5.384,0,0,1,3.265.88,2.854,2.854,0,0,1,1.172,2.43v0.16a2.063,2.063,0,0,1-.343,1.23,1.629,1.629,0,0,1-.974.65,5.555,5.555,0,0,1-1.028.18l-4.419.56a7.622,7.622,0,0,0-4.555,1.92,5.526,5.526,0,0,0-1.56,4.13,5.3,5.3,0,0,0,1.66,4.11,6.4,6.4,0,0,0,4.491,1.51h0a8.618,8.618,0,0,0,5.952-2.18h0Zm0.722-4.85a3.767,3.767,0,0,1-.108.75,4.742,4.742,0,0,1-1.606,2.2,6.767,6.767,0,0,1-4.329,1.39,3.386,3.386,0,0,1-2.507-.88,3.348,3.348,0,0,1-.884-2.5,2.413,2.413,0,0,1,1.082-2.08,7.89,7.89,0,0,1,3.428-1.1l2.976-.43a6.957,6.957,0,0,0,2-.6v2.1h0a11.1,11.1,0,0,1-.054,1.15h0Zm6.641,6.51h3.86v-3.92H246.2v3.92Zm6.5,0h3.247v-10.35a7.706,7.706,0,0,1,1.371-4.82,4.457,4.457,0,0,1,3.715-1.78,4.028,4.028,0,0,1,3.184,1.13,5.56,5.56,0,0,1,.983,3.68v12.14h3.247v-13.24a6.731,6.731,0,0,0-11.941-4.2l-0.722.96v-2.85h-3.084v19.33h0Zm33.246-19.33h-3.556l-5.227,15.99h0l-5.153-15.99H268.3l7.162,19.65v0.01l-0.054.3a13.153,13.153,0,0,1-1.677,3.38,2.29,2.29,0,0,1-1.84.9,5.712,5.712,0,0,1-1.858-.28v3.01a4.862,4.862,0,0,0,1.569.2,5.308,5.308,0,0,0,3.977-1.37c0.884-.92,1.891-2.86,3.021-5.84l7.341-19.96h0Zm11.962,12.37a6.179,6.179,0,0,1-1.687,3.46,4.838,4.838,0,0,1-7.025-.64,9.712,9.712,0,0,1-1.3-5.55,9.285,9.285,0,0,1,1.4-5.44,4.46,4.46,0,0,1,3.851-1.98,4.723,4.723,0,0,1,3.319,1.14,4.791,4.791,0,0,1,1.443,3.21h3.12a7.218,7.218,0,0,0-2.218-5.24,7.851,7.851,0,0,0-5.556-1.91,7.956,7.956,0,0,0-6.376,2.77,11.089,11.089,0,0,0-2.372,7.45,11.312,11.312,0,0,0,2.291,7.45,7.561,7.561,0,0,0,6.132,2.76,7.844,7.844,0,0,0,5.52-1.91,8.965,8.965,0,0,0,2.579-5.57H297.9Z"/>
    <path id="Ma_Fer_Garzón_Gustav_Klimt_Portrait_of_Adele_Bloch-Bauer_I" data-name="Ma Fer Garzón Gustav Klimt Portrait of Adele Bloch-Bauer I" class="cls-3" d="M175.846,2016.74h0l2.82,8.43h1.3l2.81-8.46h0v8.46h1.31v-9.99h-1.941l-2.826,8.5h0l-2.852-8.5h-1.941v9.99h1.31v-8.43Zm13.746,7.8a2.605,2.605,0,0,0,.312-0.32,1.638,1.638,0,0,0,.292.71,1.236,1.236,0,0,0,1,.38,1.488,1.488,0,0,0,.332-0.04,2.182,2.182,0,0,0,.373-0.11v-0.88a2.228,2.228,0,0,1-.227.04,1.051,1.051,0,0,1-.159.01,0.425,0.425,0,0,1-.3-0.11,0.39,0.39,0,0,1-.112-0.3v-3.99a2.065,2.065,0,0,0-.692-1.68,3.1,3.1,0,0,0-2.015-.57,3.392,3.392,0,0,0-2.158.6,2.4,2.4,0,0,0-.841,1.8h1.126a1.582,1.582,0,0,1,.512-1.05,1.82,1.82,0,0,1,1.178-.35,2.014,2.014,0,0,1,1.228.33,1.088,1.088,0,0,1,.441.92v0.06a0.764,0.764,0,0,1-.129.46,0.633,0.633,0,0,1-.367.25,2.341,2.341,0,0,1-.386.06l-1.663.22a2.824,2.824,0,0,0-1.713.72,2.067,2.067,0,0,0-.587,1.55,1.975,1.975,0,0,0,.625,1.54,2.413,2.413,0,0,0,1.689.58h0a3.23,3.23,0,0,0,2.239-.83h0Zm0.271-1.82a1.375,1.375,0,0,1-.04.28,1.794,1.794,0,0,1-.6.83,2.545,2.545,0,0,1-1.629.52,1.282,1.282,0,0,1-.943-0.33,1.263,1.263,0,0,1-.332-0.94,0.9,0.9,0,0,1,.407-0.78,2.876,2.876,0,0,1,1.289-.41l1.12-.17a2.557,2.557,0,0,0,.753-0.22v0.79h0a3.992,3.992,0,0,1-.021.43h0Zm7.024,2.45h0.671v-4.55h4.865v-1.19h-4.865v-3.06h5.557v-1.19h-6.907v9.99h0.679Zm12.016-.43a3.074,3.074,0,0,0,1.085-1.83h-1.207a1.622,1.622,0,0,1-.638,1.01,1.983,1.983,0,0,1-1.22.39,1.9,1.9,0,0,1-1.628-.69,3.141,3.141,0,0,1-.495-1.66h5.3l0.014-.43a4.238,4.238,0,0,0-.875-2.79,2.828,2.828,0,0,0-2.3-1.06,3.145,3.145,0,0,0-2.507,1.08,4.344,4.344,0,0,0-.933,2.92,3.922,3.922,0,0,0,.882,2.71,3.1,3.1,0,0,0,2.422.98h0A3.329,3.329,0,0,0,208.9,2024.74Zm-4.1-3.76a2.774,2.774,0,0,1,.55-1.49,1.872,1.872,0,0,1,1.54-.72,1.735,1.735,0,0,1,1.452.63,2.7,2.7,0,0,1,.5,1.58H204.8Zm6.39,4.19h1.221v-3.9a2.438,2.438,0,0,1,.539-1.69,1.952,1.952,0,0,1,1.53-.6l0.251,0.01v-1.25a1.068,1.068,0,0,0-.346-0.06,2.061,2.061,0,0,0-1.7.93,4.842,4.842,0,0,0-.332.53v-1.24h-1.16v7.27h0Zm14.837-1.18,0.075-.09,0.326,1.26h0.841v-5.29H222.9v1.15h3.127v0.12a3.952,3.952,0,0,1-.112.9,2.422,2.422,0,0,1-.275.74,3.553,3.553,0,0,1-.271.38,3.1,3.1,0,0,1-2.49,1.12,3,3,0,0,1-2.46-1.06,5.5,5.5,0,0,1,.031-5.99,2.885,2.885,0,0,1,2.361-1.13,3.433,3.433,0,0,1,2.008.54,2.318,2.318,0,0,1,.964,1.54h1.3a3.541,3.541,0,0,0-1.38-2.36,4.445,4.445,0,0,0-2.813-.91,4.387,4.387,0,0,0-3.426,1.45,5.487,5.487,0,0,0-1.309,3.82,5.55,5.55,0,0,0,1.282,3.81,4.256,4.256,0,0,0,3.357,1.45h0a4.013,4.013,0,0,0,3.229-1.45h0Zm6.774,0.55a2.605,2.605,0,0,0,.312-0.32,1.638,1.638,0,0,0,.291.71,1.238,1.238,0,0,0,1,.38,1.488,1.488,0,0,0,.332-0.04,2.182,2.182,0,0,0,.373-0.11v-0.88a2.228,2.228,0,0,1-.227.04,1.056,1.056,0,0,1-.16.01,0.424,0.424,0,0,1-.3-0.11,0.39,0.39,0,0,1-.112-0.3v-3.99a2.065,2.065,0,0,0-.692-1.68,3.1,3.1,0,0,0-2.016-.57,3.391,3.391,0,0,0-2.157.6,2.4,2.4,0,0,0-.841,1.8h1.126a1.578,1.578,0,0,1,.512-1.05,1.817,1.817,0,0,1,1.177-.35,2.012,2.012,0,0,1,1.228.33,1.088,1.088,0,0,1,.441.92v0.06a0.764,0.764,0,0,1-.129.46,0.634,0.634,0,0,1-.366.25,2.337,2.337,0,0,1-.387.06l-1.662.22a2.824,2.824,0,0,0-1.713.72,2.067,2.067,0,0,0-.587,1.55,1.978,1.978,0,0,0,.624,1.54,2.414,2.414,0,0,0,1.69.58h0a3.23,3.23,0,0,0,2.239-.83h0Zm0.271-1.82a1.36,1.36,0,0,1-.041.28,1.787,1.787,0,0,1-.6.83,2.542,2.542,0,0,1-1.628.52,1.282,1.282,0,0,1-.943-0.33,1.259,1.259,0,0,1-.332-0.94,0.9,0.9,0,0,1,.407-0.78,2.876,2.876,0,0,1,1.289-.41l1.119-.17a2.539,2.539,0,0,0,.753-0.22v0.79h0a4.009,4.009,0,0,1-.02.43h0Zm2.918,2.45h1.221v-3.9a2.433,2.433,0,0,1,.54-1.69,1.949,1.949,0,0,1,1.53-.6l0.251,0.01v-1.25a1.073,1.073,0,0,0-.346-0.06,2.06,2.06,0,0,0-1.7.93,4.7,4.7,0,0,0-.333.53v-1.24h-1.16v7.27h0Zm3.427-.48v0.48h6.092v-1.02H241.05l4.358-5.3v-0.95h-5.666v1.02h4.033l-4.358,5.29h0v0.48Zm9.825,0.68a3.1,3.1,0,0,0,2.449-1.07,4.624,4.624,0,0,0,0-5.56,3.349,3.349,0,0,0-4.889,0,4.612,4.612,0,0,0,0,5.56,3.093,3.093,0,0,0,2.44,1.07h0Zm0-1.06a1.816,1.816,0,0,1-1.53-.75,3.935,3.935,0,0,1,0-4.07,1.923,1.923,0,0,1,3.063,0,3.918,3.918,0,0,1,0,4.07,1.826,1.826,0,0,1-1.533.75h0Zm0.346-7.39,1.791-1.96h-1.5l-1.235,1.96h0.944Zm3.867,8.25h1.222v-3.9a2.9,2.9,0,0,1,.515-1.81,1.689,1.689,0,0,1,1.4-.67,1.521,1.521,0,0,1,1.2.43,2.07,2.07,0,0,1,.37,1.38v4.57h1.221v-4.98a2.531,2.531,0,0,0-4.491-1.58l-0.271.36v-1.07h-1.161v7.27h0Zm-71.4,26.63,0.075-.09,0.325,1.26h0.841v-5.29h-4.366v1.14h3.127v0.12a4.025,4.025,0,0,1-.112.91,2.678,2.678,0,0,1-.275.74,3.436,3.436,0,0,1-.271.37,3.108,3.108,0,0,1-2.49,1.13,3,3,0,0,1-2.46-1.07,5.483,5.483,0,0,1,.03-5.98,2.888,2.888,0,0,1,2.362-1.13,3.435,3.435,0,0,1,2.008.54,2.315,2.315,0,0,1,.963,1.53h1.3a3.5,3.5,0,0,0-1.381-2.35,4.449,4.449,0,0,0-2.812-.92,4.4,4.4,0,0,0-3.426,1.46,6.249,6.249,0,0,0-.028,7.62,4.266,4.266,0,0,0,3.358,1.46h0a4.046,4.046,0,0,0,3.229-1.45h0Zm3.883-6.1h-1.221v5a2.185,2.185,0,0,0,2.469,2.47,2.446,2.446,0,0,0,1.954-.93,3.445,3.445,0,0,0,.272-0.37v1.1h1.16v-7.27h-1.221v3.88a2.985,2.985,0,0,1-.516,1.85,1.654,1.654,0,0,1-1.4.69,1.447,1.447,0,0,1-1.146-.41,1.99,1.99,0,0,1-.353-1.32v-4.69h0Zm11.214,2.11a2.239,2.239,0,0,0-.8-1.71,3.087,3.087,0,0,0-2.018-.62,3.021,3.021,0,0,0-1.977.61,1.989,1.989,0,0,0-.729,1.62,1.663,1.663,0,0,0,.435,1.23,3.038,3.038,0,0,0,1.459.68l1.262,0.3a3.579,3.579,0,0,1,1.12.4,0.653,0.653,0,0,1,.278.57,1.048,1.048,0,0,1-.425.91,2.068,2.068,0,0,1-1.245.32,2.325,2.325,0,0,1-1.4-.35,1.533,1.533,0,0,1-.546-1.12H191.39a2.513,2.513,0,0,0,.834,1.91,3.569,3.569,0,0,0,2.287.61,3.238,3.238,0,0,0,2.1-.63,2.085,2.085,0,0,0,.777-1.71,1.7,1.7,0,0,0-.45-1.26,3.217,3.217,0,0,0-1.513-.71l-1.262-.3a3.822,3.822,0,0,1-1.106-.4,0.658,0.658,0,0,1-.279-0.58,0.887,0.887,0,0,1,.4-0.78,2.154,2.154,0,0,1,1.158-.26,1.91,1.91,0,0,1,1.177.33,1.267,1.267,0,0,1,.492.94h1.147Zm3.754,4.21h-0.434a0.892,0.892,0,0,1-.519-0.14,0.459,0.459,0,0,1-.194-0.39v-4.79H200.9v-1h-1.147v-2.04h-1.221v2.04h-1v1h1v4.79a1.787,1.787,0,0,0,.329,1.22,1.521,1.521,0,0,0,1.13.35,7.169,7.169,0,0,0,.909-0.09h0v-0.95Zm4.791,0.33a2.673,2.673,0,0,0,.312-0.33,1.631,1.631,0,0,0,.291.72,1.238,1.238,0,0,0,1,.38,2.473,2.473,0,0,0,.332-0.04,3.8,3.8,0,0,0,.373-0.11v-0.89a2.228,2.228,0,0,1-.227.04,1.451,1.451,0,0,1-.16.02,0.383,0.383,0,0,1-.413-0.41v-4a2.044,2.044,0,0,0-.692-1.67,3.105,3.105,0,0,0-2.016-.58,3.391,3.391,0,0,0-2.157.61,2.4,2.4,0,0,0-.841,1.79h1.126a1.531,1.531,0,0,1,.512-1.04,1.817,1.817,0,0,1,1.177-.35,2.012,2.012,0,0,1,1.228.33,1.07,1.07,0,0,1,.441.91v0.07a0.807,0.807,0,0,1-.129.46,0.62,0.62,0,0,1-.366.24,2.329,2.329,0,0,1-.387.07l-1.662.21a2.947,2.947,0,0,0-1.713.72,2.09,2.09,0,0,0-.587,1.56,1.978,1.978,0,0,0,.624,1.54,2.409,2.409,0,0,0,1.69.57h0a3.222,3.222,0,0,0,2.239-.82h0Zm0.271-1.82a1.484,1.484,0,0,1-.041.28,1.763,1.763,0,0,1-.6.82,2.548,2.548,0,0,1-1.628.53,1.154,1.154,0,0,1-1.275-1.27,0.918,0.918,0,0,1,.407-0.79,3.007,3.007,0,0,1,1.289-.41l1.119-.16a2.547,2.547,0,0,0,.753-0.23v0.79h0a4.206,4.206,0,0,1-.02.44h0Zm4.668,2.44h1.31l2.707-7.27H213.3l-2.013,5.96h0l-1.947-5.96h-1.427Zm7.933,0h1.35v-3.48l1.5-1.46,3.544,4.94h1.756l-4.308-5.91,4.227-4.08h-1.866l-4.858,4.85v-4.85h-1.35v9.99h0Zm8.583,0h1.221v-9.99h-1.221v9.99h0Zm2.545,0h1.221v-7.27h-1.221v7.27h0Zm-0.014-8.6h1.249v-1.39H229.68v1.39Zm2.5,8.6h1.222v-3.89a2.906,2.906,0,0,1,.519-1.79,1.6,1.6,0,0,1,1.333-.69,1.12,1.12,0,0,1,.9.36,1.518,1.518,0,0,1,.308,1.03v4.98h1.222v-4.08a2.7,2.7,0,0,1,.468-1.67,1.508,1.508,0,0,1,1.262-.62,1.176,1.176,0,0,1,.99.43,1.965,1.965,0,0,1,.34,1.25v4.69h1.221v-5.1a2.175,2.175,0,0,0-2.382-2.39,2.408,2.408,0,0,0-1.879.92l-0.2.25a1.862,1.862,0,0,0-.4-0.59,2.12,2.12,0,0,0-1.554-.58,2.493,2.493,0,0,0-1.961.98l-0.251.32v-1.08h-1.16v7.27h0Zm13.686-.95h-0.435a0.892,0.892,0,0,1-.519-0.14,0.458,0.458,0,0,1-.193-0.39v-4.79h1.147v-1h-1.147v-2.04H243.5v2.04h-1v1h1v4.79a1.782,1.782,0,0,0,.329,1.22,1.518,1.518,0,0,0,1.129.35,7.2,7.2,0,0,0,.91-0.09h0v-0.95Zm-71.157,28.76h1.35v-4.2c0.737-.01,1.741-0.02,3.012-0.01a3.087,3.087,0,0,0,2.27-.81,2.953,2.953,0,0,0,.817-2.22,2.573,2.573,0,0,0-.817-2.02,3.275,3.275,0,0,0-2.27-.73h-4.362v9.99h0Zm1.35-8.84h2.68a2.4,2.4,0,0,1,1.54.4,1.481,1.481,0,0,1,.488,1.23,1.824,1.824,0,0,1-.488,1.4,2.274,2.274,0,0,1-1.54.44h-2.68v-3.47Zm10.028,9.04a3.12,3.12,0,0,0,2.449-1.06,4.635,4.635,0,0,0,0-5.57,3.348,3.348,0,0,0-4.888,0,4.623,4.623,0,0,0,0,5.57,3.116,3.116,0,0,0,2.439,1.06h0Zm0-1.06a1.818,1.818,0,0,1-1.53-.75,3.941,3.941,0,0,1,0-4.07,1.923,1.923,0,0,1,3.063,0,3.918,3.918,0,0,1,0,4.07,1.826,1.826,0,0,1-1.533.75h0Zm4.383,0.86H191.7v-3.89a2.443,2.443,0,0,1,.539-1.7,1.952,1.952,0,0,1,1.53-.6l0.251,0.01v-1.25a1.073,1.073,0,0,0-.346-0.06,2.06,2.06,0,0,0-1.7.93,4.694,4.694,0,0,0-.332.53v-1.24h-1.161v7.27h0Zm6.569-.95h-0.435a0.825,0.825,0,0,1-.519-0.15,0.44,0.44,0,0,1-.193-0.38v-4.79h1.147v-1H195.9v-2.04h-1.221v2.04h-1v1h1v4.79a1.752,1.752,0,0,0,.329,1.21,1.478,1.478,0,0,0,1.129.36,6.019,6.019,0,0,0,.91-0.1h0v-0.94Zm0.807,0.95h1.222v-3.89a2.448,2.448,0,0,1,.539-1.7,1.952,1.952,0,0,1,1.53-.6l0.251,0.01v-1.25a1.073,1.073,0,0,0-.346-0.06,2.06,2.06,0,0,0-1.7.93,4.694,4.694,0,0,0-.332.53v-1.24H197.85v7.27h0Zm8.054-.63a2.544,2.544,0,0,0,.313-0.32,1.587,1.587,0,0,0,.291.71,1.237,1.237,0,0,0,1,.38,1.49,1.49,0,0,0,.333-0.04,2.209,2.209,0,0,0,.373-0.11v-0.88a2.228,2.228,0,0,1-.227.04,1.063,1.063,0,0,1-.16.01,0.382,0.382,0,0,1-.414-0.4v-4a2.075,2.075,0,0,0-.692-1.68,3.1,3.1,0,0,0-2.015-.57,3.391,3.391,0,0,0-2.157.6,2.4,2.4,0,0,0-.841,1.8h1.126a1.526,1.526,0,0,1,.512-1.04,1.761,1.761,0,0,1,1.177-.35,2.012,2.012,0,0,1,1.228.33,1.07,1.07,0,0,1,.441.91v0.06a0.764,0.764,0,0,1-.129.46,0.591,0.591,0,0,1-.366.25c-0.122.03-.251,0.05-0.387,0.07l-1.662.21a2.824,2.824,0,0,0-1.713.72,2.067,2.067,0,0,0-.587,1.55,2.015,2.015,0,0,0,.624,1.55,2.408,2.408,0,0,0,1.689.57h0a3.226,3.226,0,0,0,2.239-.83h0Zm0.272-1.82a1.36,1.36,0,0,1-.041.28,1.739,1.739,0,0,1-.6.83,2.542,2.542,0,0,1-1.628.52,1.28,1.28,0,0,1-.943-0.33,1.26,1.26,0,0,1-.333-0.94,0.9,0.9,0,0,1,.408-0.78,3.007,3.007,0,0,1,1.289-.41l1.119-.17a2.539,2.539,0,0,0,.753-0.22v0.79h0a4.287,4.287,0,0,1-.02.43h0Zm2.789,2.45h1.221v-7.27h-1.221v7.27h0Zm-0.014-8.6H210.2v-1.39h-1.249v1.39Zm5.171,7.65h-0.434a0.821,0.821,0,0,1-.519-0.15,0.441,0.441,0,0,1-.194-0.38v-4.79h1.147v-1h-1.147v-2.04h-1.221v2.04h-1v1h1v4.79a1.758,1.758,0,0,0,.329,1.21,1.479,1.479,0,0,0,1.13.36,6,6,0,0,0,.909-0.1h0v-0.94Zm6.9,1.15a3.121,3.121,0,0,0,2.449-1.06,4.635,4.635,0,0,0,0-5.57,3.348,3.348,0,0,0-4.888,0,4.623,4.623,0,0,0,0,5.57,3.116,3.116,0,0,0,2.439,1.06h0Zm0-1.06a1.818,1.818,0,0,1-1.53-.75,3.935,3.935,0,0,1,0-4.07,1.923,1.923,0,0,1,3.063,0,3.918,3.918,0,0,1,0,4.07,1.826,1.826,0,0,1-1.533.75h0Zm6.948-5.4v-1.01h-1.214v-0.89a0.962,0.962,0,0,1,.189-0.64,0.646,0.646,0,0,1,.543-0.23l0.482,0.02v-1.1l-0.536-.02a2.152,2.152,0,0,0-1.425.4,1.535,1.535,0,0,0-.475,1.22v1.24h-1v1.01h1v6.26h1.222v-6.26h1.214Zm3.17,6.26h1.392l1.048-2.9h3.982l1.017,2.9h1.448l-3.582-9.99h-1.54l-3.765,9.99h0Zm4.473-8.52h0l1.539,4.43H234.01l1.6-4.43h0Zm9.687,7.75,0.156-.22v0.99h1.133v-9.99h-1.221v3.77l-0.095-.14a2.453,2.453,0,0,0-2.117-1.13,2.7,2.7,0,0,0-2.178,1.01,4,4,0,0,0-.835,2.64,4.639,4.639,0,0,0,.862,2.95,2.821,2.821,0,0,0,2.32,1.09h0a2.4,2.4,0,0,0,1.975-.97h0Zm-0.445-4.81a4.25,4.25,0,0,1,.513,2.29,2.738,2.738,0,0,1-.543,1.77,1.743,1.743,0,0,1-1.432.67,1.672,1.672,0,0,1-1.462-.73,4.609,4.609,0,0,1-.037-4.15,1.72,1.72,0,0,1,1.5-.66A1.632,1.632,0,0,1,244.856,2075.2Zm7.929,5.15a3.074,3.074,0,0,0,1.085-1.83h-1.207a1.6,1.6,0,0,1-.638,1.01,1.983,1.983,0,0,1-1.22.39,1.9,1.9,0,0,1-1.628-.69,3.141,3.141,0,0,1-.5-1.66h5.3l0.014-.43a4.256,4.256,0,0,0-.875-2.79,2.827,2.827,0,0,0-2.3-1.06,3.145,3.145,0,0,0-2.507,1.08,4.344,4.344,0,0,0-.933,2.92,3.905,3.905,0,0,0,.882,2.71,3.1,3.1,0,0,0,2.422.98h0A3.329,3.329,0,0,0,252.785,2080.35Zm-4.1-3.76a2.774,2.774,0,0,1,.55-1.49,1.872,1.872,0,0,1,1.54-.72,1.735,1.735,0,0,1,1.452.63,2.724,2.724,0,0,1,.5,1.58h-4.044Zm6.247,4.19h1.222v-9.99h-1.222v9.99h0Zm7.559-.43a3.075,3.075,0,0,0,1.086-1.83h-1.208a1.592,1.592,0,0,1-.638,1.01,1.983,1.983,0,0,1-1.22.39,1.9,1.9,0,0,1-1.628-.69,3.141,3.141,0,0,1-.5-1.66h5.3l0.014-.43a4.251,4.251,0,0,0-.875-2.79,2.827,2.827,0,0,0-2.3-1.06,3.145,3.145,0,0,0-2.507,1.08,4.344,4.344,0,0,0-.933,2.92,3.905,3.905,0,0,0,.882,2.71,3.106,3.106,0,0,0,2.423.98h0A3.328,3.328,0,0,0,262.488,2080.35Zm-4.1-3.76a2.782,2.782,0,0,1,.55-1.49,1.874,1.874,0,0,1,1.54-.72,1.735,1.735,0,0,1,1.452.63,2.732,2.732,0,0,1,.5,1.58h-4.045Zm9.654,4.19h4.078a4.018,4.018,0,0,0,2.649-.79,2.659,2.659,0,0,0,.953-2.17,2.3,2.3,0,0,0-.977-1.98,3.087,3.087,0,0,0-.861-0.44,2.564,2.564,0,0,0,.454-0.28,2.318,2.318,0,0,0,.923-1.95,2.128,2.128,0,0,0-.78-1.72,3.078,3.078,0,0,0-2.056-.66h-4.383v9.99h0Zm1.35-8.84h2.585a2.5,2.5,0,0,1,1.472.35,1.292,1.292,0,0,1,.468,1.1,1.513,1.513,0,0,1-.508,1.26,2.657,2.657,0,0,1-1.608.39h-2.409v-3.1h0Zm0,4.2h2.653a3.163,3.163,0,0,1,1.771.39,1.392,1.392,0,0,1,.563,1.23,1.741,1.741,0,0,1-.54,1.42,2.693,2.693,0,0,1-1.7.44h-2.748v-3.48h0Zm7.26,4.64h1.221v-9.99h-1.221v9.99h0Zm5.462,0.2a3.122,3.122,0,0,0,2.45-1.06,4.639,4.639,0,0,0,0-5.57,3.349,3.349,0,0,0-4.889,0,4.623,4.623,0,0,0,0,5.57,3.116,3.116,0,0,0,2.439,1.06h0Zm0-1.06a1.815,1.815,0,0,1-1.529-.75,3.935,3.935,0,0,1,0-4.07,1.923,1.923,0,0,1,3.063,0,3.918,3.918,0,0,1,0,4.07,1.827,1.827,0,0,1-1.534.75h0Zm8.767-1.76a2.317,2.317,0,0,1-.635,1.3,1.817,1.817,0,0,1-2.642-.24,3.621,3.621,0,0,1-.489-2.08,3.493,3.493,0,0,1,.526-2.05,1.675,1.675,0,0,1,1.449-.75,1.665,1.665,0,0,1,1.791,1.64h1.174a2.711,2.711,0,0,0-.835-1.97,2.961,2.961,0,0,0-2.09-.72,3.009,3.009,0,0,0-2.4,1.04,4.182,4.182,0,0,0-.892,2.81,4.274,4.274,0,0,0,.861,2.8,2.854,2.854,0,0,0,2.307,1.04,2.94,2.94,0,0,0,2.076-.72,3.379,3.379,0,0,0,.971-2.1h-1.174Zm1.839,2.62h1.221v-3.89a2.808,2.808,0,0,1,.543-1.82,1.806,1.806,0,0,1,1.466-.67,1.44,1.44,0,0,1,1.126.4,1.983,1.983,0,0,1,.346,1.3v4.68h1.221v-4.98a2.269,2.269,0,0,0-2.5-2.51,2.5,2.5,0,0,0-1.988.93l-0.211.27v-3.7h-1.221v9.99h0Zm6.88-3.22H303v-1.26H299.6v1.26Zm4.492,3.22h4.078a4.014,4.014,0,0,0,2.649-.79,2.657,2.657,0,0,0,.954-2.17,2.3,2.3,0,0,0-.977-1.98,3.107,3.107,0,0,0-.862-0.44,2.529,2.529,0,0,0,.454-0.28,2.315,2.315,0,0,0,.923-1.95,2.128,2.128,0,0,0-.78-1.72,3.077,3.077,0,0,0-2.056-.66h-4.383v9.99h0Zm1.35-8.84h2.585a2.5,2.5,0,0,1,1.473.35,1.292,1.292,0,0,1,.468,1.1,1.514,1.514,0,0,1-.509,1.26,2.652,2.652,0,0,1-1.608.39h-2.409v-3.1h0Zm0,4.2h2.653a3.161,3.161,0,0,1,1.771.39,1.392,1.392,0,0,1,.563,1.23,1.744,1.744,0,0,1-.539,1.42,2.7,2.7,0,0,1-1.7.44h-2.748v-3.48h0Zm11.386,4.01a2.605,2.605,0,0,0,.312-0.32,1.587,1.587,0,0,0,.291.71,1.238,1.238,0,0,0,1,.38,1.488,1.488,0,0,0,.332-0.04,2.182,2.182,0,0,0,.373-0.11v-0.88a2.228,2.228,0,0,1-.227.04,1.051,1.051,0,0,1-.159.01,0.382,0.382,0,0,1-.414-0.4v-4a2.078,2.078,0,0,0-.692-1.68,3.1,3.1,0,0,0-2.015-.57,3.392,3.392,0,0,0-2.158.6,2.4,2.4,0,0,0-.841,1.8h1.126a1.531,1.531,0,0,1,.512-1.04,1.761,1.761,0,0,1,1.177-.35,2.012,2.012,0,0,1,1.228.33,1.07,1.07,0,0,1,.441.91v0.06a0.764,0.764,0,0,1-.129.46,0.589,0.589,0,0,1-.366.25c-0.122.03-.251,0.05-0.387,0.07l-1.662.21a2.824,2.824,0,0,0-1.713.72,2.067,2.067,0,0,0-.587,1.55,2.015,2.015,0,0,0,.624,1.55,2.411,2.411,0,0,0,1.69.57h0a3.23,3.23,0,0,0,2.239-.83h0Zm0.271-1.82a1.36,1.36,0,0,1-.041.28,1.739,1.739,0,0,1-.6.83,2.542,2.542,0,0,1-1.628.52,1.282,1.282,0,0,1-.943-0.33,1.259,1.259,0,0,1-.332-0.94,0.9,0.9,0,0,1,.407-0.78,3.007,3.007,0,0,1,1.289-.41l1.119-.17a2.539,2.539,0,0,0,.753-0.22v0.79h0a4.009,4.009,0,0,1-.02.43h0Zm4.01-4.82h-1.221v4.99a2.188,2.188,0,0,0,2.47,2.48,2.447,2.447,0,0,0,1.954-.93,3.553,3.553,0,0,0,.271-0.38v1.11h1.16v-7.27h-1.221v3.88a3,3,0,0,1-.516,1.85,1.643,1.643,0,0,1-1.4.68,1.447,1.447,0,0,1-1.147-.4,2,2,0,0,1-.353-1.32v-4.69h0Zm10.965,6.84a3.069,3.069,0,0,0,1.085-1.83h-1.207a1.592,1.592,0,0,1-.638,1.01,1.983,1.983,0,0,1-1.22.39,1.9,1.9,0,0,1-1.628-.69,3.141,3.141,0,0,1-.5-1.66h5.3l0.014-.43a4.251,4.251,0,0,0-.875-2.79,2.827,2.827,0,0,0-2.3-1.06,3.145,3.145,0,0,0-2.507,1.08,4.344,4.344,0,0,0-.933,2.92,3.905,3.905,0,0,0,.882,2.71,3.105,3.105,0,0,0,2.422.98h0A3.329,3.329,0,0,0,332.071,2080.35Zm-4.1-3.76a2.782,2.782,0,0,1,.55-1.49,1.872,1.872,0,0,1,1.54-.72,1.735,1.735,0,0,1,1.452.63,2.732,2.732,0,0,1,.5,1.58h-4.045Zm6.39,4.19h1.221v-3.89a2.443,2.443,0,0,1,.54-1.7,1.949,1.949,0,0,1,1.53-.6l0.251,0.01v-1.25a1.073,1.073,0,0,0-.346-0.06,2.06,2.06,0,0,0-1.7.93,4.7,4.7,0,0,0-.333.53v-1.24h-1.16v7.27h0Zm7.566,0h1.35v-9.99h-1.35v9.99h0Z"/>
  </g>
</svg>
