<svg id="Dada" xmlns="http://www.w3.org/2000/svg" width="3000" height="3000" viewBox="0 0 3000 3000">
  <defs>
    <style>
      .cls-1 {
        fill: #575861;
      }

      .cls-2 {
        fill: #e4e1da;
      }

      .cls-2, .cls-3 {
        fill-rule: evenodd;
      }

      .cls-3 {
        fill: #31323d;
      }
    </style>
  </defs>
  <g id="dada-placard-jupiterlo">
    <rect id="Rectangle_2_copy" data-name="Rectangle 2 copy" class="cls-1" x="155" y="1980" width="291" height="187"/>
    <path id="Rectangle_2_copy_2" data-name="Rectangle 2 copy 2" class="cls-2" d="M159.98,1984.99H441.02v177.02H159.98V1984.99Z"/>
    <path id="dada.nyc" class="cls-3" d="M187.636,2123.36l0.415-.6v2.64h3.012v-26.56h-3.246v10.03l-0.253-.36a6.475,6.475,0,0,0-5.628-3.02,7.169,7.169,0,0,0-5.79,2.67,10.673,10.673,0,0,0-2.218,7.03,12.281,12.281,0,0,0,2.29,7.83,7.434,7.434,0,0,0,6.169,2.9h0a6.337,6.337,0,0,0,5.249-2.56h0Zm-1.181-12.8a11.359,11.359,0,0,1,1.362,6.09,7.251,7.251,0,0,1-1.443,4.71,4.651,4.651,0,0,1-3.806,1.78,4.465,4.465,0,0,1-3.888-1.93,9.5,9.5,0,0,1-1.361-5.51q0-3.795,1.262-5.54a4.594,4.594,0,0,1,3.987-1.74A4.34,4.34,0,0,1,186.455,2110.56Zm17.2,13.18a7.322,7.322,0,0,0,.83-0.87,4.282,4.282,0,0,0,.776,1.9,3.271,3.271,0,0,0,2.669,1.01,4.679,4.679,0,0,0,.884-0.11,6.139,6.139,0,0,0,.992-0.29v-2.35a5.2,5.2,0,0,1-.6.11c-0.187.02-.328,0.04-0.424,0.04a1.081,1.081,0,0,1-.8-0.3,1.069,1.069,0,0,1-.3-0.79v-10.62a5.442,5.442,0,0,0-1.84-4.45,8.189,8.189,0,0,0-5.357-1.53,8.978,8.978,0,0,0-5.736,1.6,6.38,6.38,0,0,0-2.237,4.78H195.5a4.117,4.117,0,0,1,1.362-2.78,4.783,4.783,0,0,1,3.13-.93,5.384,5.384,0,0,1,3.265.88,2.854,2.854,0,0,1,1.172,2.43v0.16a2.063,2.063,0,0,1-.343,1.23,1.629,1.629,0,0,1-.974.65,5.555,5.555,0,0,1-1.028.18l-4.419.56a7.622,7.622,0,0,0-4.555,1.92,5.526,5.526,0,0,0-1.56,4.13,5.3,5.3,0,0,0,1.66,4.11,6.4,6.4,0,0,0,4.491,1.51h0a8.618,8.618,0,0,0,5.952-2.18h0Zm0.722-4.85a3.767,3.767,0,0,1-.108.75,4.742,4.742,0,0,1-1.606,2.2,6.767,6.767,0,0,1-4.329,1.39,3.386,3.386,0,0,1-2.507-.88,3.348,3.348,0,0,1-.884-2.5,2.413,2.413,0,0,1,1.082-2.08,7.89,7.89,0,0,1,3.428-1.1l2.976-.43a6.957,6.957,0,0,0,2-.6v2.1h0a11.1,11.1,0,0,1-.054,1.15h0Zm18.437,4.47,0.415-.6v2.64h3.012v-26.56H223v10.03l-0.252-.36a6.475,6.475,0,0,0-5.628-3.02,7.169,7.169,0,0,0-5.79,2.67,10.673,10.673,0,0,0-2.218,7.03,12.281,12.281,0,0,0,2.29,7.83,7.434,7.434,0,0,0,6.169,2.9h0a6.337,6.337,0,0,0,5.249-2.56h0Zm-1.181-12.8a11.36,11.36,0,0,1,1.361,6.09,7.245,7.245,0,0,1-1.443,4.71,4.648,4.648,0,0,1-3.8,1.78,4.465,4.465,0,0,1-3.888-1.93,9.5,9.5,0,0,1-1.361-5.51q0-3.795,1.262-5.54a4.594,4.594,0,0,1,3.987-1.74A4.34,4.34,0,0,1,221.634,2110.56Zm17.2,13.18a7.322,7.322,0,0,0,.83-0.87,4.282,4.282,0,0,0,.776,1.9,3.271,3.271,0,0,0,2.669,1.01,4.679,4.679,0,0,0,.884-0.11,6.139,6.139,0,0,0,.992-0.29v-2.35a5.2,5.2,0,0,1-.6.11c-0.187.02-.328,0.04-0.424,0.04a1.081,1.081,0,0,1-.8-0.3,1.069,1.069,0,0,1-.3-0.79v-10.62a5.442,5.442,0,0,0-1.84-4.45,8.189,8.189,0,0,0-5.357-1.53,8.978,8.978,0,0,0-5.736,1.6,6.38,6.38,0,0,0-2.237,4.78h2.994a4.117,4.117,0,0,1,1.362-2.78,4.783,4.783,0,0,1,3.13-.93,5.384,5.384,0,0,1,3.265.88,2.854,2.854,0,0,1,1.172,2.43v0.16a2.063,2.063,0,0,1-.343,1.23,1.629,1.629,0,0,1-.974.65,5.555,5.555,0,0,1-1.028.18l-4.419.56a7.622,7.622,0,0,0-4.555,1.92,5.526,5.526,0,0,0-1.56,4.13,5.3,5.3,0,0,0,1.66,4.11,6.4,6.4,0,0,0,4.491,1.51h0a8.618,8.618,0,0,0,5.952-2.18h0Zm0.722-4.85a3.767,3.767,0,0,1-.108.75,4.742,4.742,0,0,1-1.606,2.2,6.767,6.767,0,0,1-4.329,1.39,3.386,3.386,0,0,1-2.507-.88,3.348,3.348,0,0,1-.884-2.5,2.413,2.413,0,0,1,1.082-2.08,7.89,7.89,0,0,1,3.428-1.1l2.976-.43a6.957,6.957,0,0,0,2-.6v2.1h0a11.1,11.1,0,0,1-.054,1.15h0Zm6.641,6.51h3.86v-3.92H246.2v3.92Zm6.5,0h3.247v-10.35a7.706,7.706,0,0,1,1.371-4.82,4.457,4.457,0,0,1,3.715-1.78,4.028,4.028,0,0,1,3.184,1.13,5.56,5.56,0,0,1,.983,3.68v12.14h3.247v-13.24a6.731,6.731,0,0,0-11.941-4.2l-0.722.96v-2.85h-3.084v19.33h0Zm33.246-19.33h-3.556l-5.227,15.99h0l-5.153-15.99H268.3l7.162,19.65v0.01l-0.054.3a13.153,13.153,0,0,1-1.677,3.38,2.29,2.29,0,0,1-1.84.9,5.712,5.712,0,0,1-1.858-.28v3.01a4.862,4.862,0,0,0,1.569.2,5.308,5.308,0,0,0,3.977-1.37c0.884-.92,1.891-2.86,3.021-5.84l7.341-19.96h0Zm11.962,12.37a6.179,6.179,0,0,1-1.687,3.46,4.838,4.838,0,0,1-7.025-.64,9.712,9.712,0,0,1-1.3-5.55,9.285,9.285,0,0,1,1.4-5.44,4.46,4.46,0,0,1,3.851-1.98,4.723,4.723,0,0,1,3.319,1.14,4.791,4.791,0,0,1,1.443,3.21h3.12a7.218,7.218,0,0,0-2.218-5.24,7.851,7.851,0,0,0-5.556-1.91,7.956,7.956,0,0,0-6.376,2.77,11.089,11.089,0,0,0-2.372,7.45,11.312,11.312,0,0,0,2.291,7.45,7.561,7.561,0,0,0,6.132,2.76,7.844,7.844,0,0,0,5.52-1.91,8.965,8.965,0,0,0,2.579-5.57H297.9Z"/>
    <path id="Serste_Antonio_Da_Correggio_Jupiter_and_Io" data-name="Serste Antonio Da Correggio Jupiter and Io" class="cls-3" d="M181.894,2018.07a3.078,3.078,0,0,0-1.064-2.32,4.024,4.024,0,0,0-2.679-.84,3.886,3.886,0,0,0-2.628.84,2.835,2.835,0,0,0-.973,2.27,2.063,2.063,0,0,0,.561,1.54,4.007,4.007,0,0,0,1.881.87l1.739,0.42a4.8,4.8,0,0,1,1.7.64,1.3,1.3,0,0,1,.425,1.07,1.426,1.426,0,0,1-.645,1.26,3.48,3.48,0,0,1-1.888.42,3.287,3.287,0,0,1-2.1-.59,2.091,2.091,0,0,1-.788-1.68h-1.241v0.08a3.047,3.047,0,0,0,1.072,2.47,4.64,4.64,0,0,0,3.055.92,4.446,4.446,0,0,0,2.786-.8,2.9,2.9,0,0,0,.429-3.98,3.909,3.909,0,0,0-2-.98l-1.737-.42a4.822,4.822,0,0,1-1.581-.56,1,1,0,0,1-.394-0.86,1.533,1.533,0,0,1,.59-1.3,2.892,2.892,0,0,1,1.73-.44,2.734,2.734,0,0,1,1.761.52,1.977,1.977,0,0,1,.743,1.45h1.241Zm6.293,6.67a3.075,3.075,0,0,0,1.086-1.83h-1.208a1.621,1.621,0,0,1-.637,1.01,1.984,1.984,0,0,1-1.221.39,1.9,1.9,0,0,1-1.627-.69,3.141,3.141,0,0,1-.5-1.66h5.3l0.015-.43a4.238,4.238,0,0,0-.875-2.79,2.828,2.828,0,0,0-2.3-1.06,3.144,3.144,0,0,0-2.507,1.08,4.344,4.344,0,0,0-.933,2.92,3.922,3.922,0,0,0,.882,2.71,3.1,3.1,0,0,0,2.422.98h0A3.324,3.324,0,0,0,188.187,2024.74Zm-4.1-3.76a2.773,2.773,0,0,1,.549-1.49,1.874,1.874,0,0,1,1.541-.72,1.735,1.735,0,0,1,1.452.63,2.707,2.707,0,0,1,.5,1.58h-4.044Zm6.389,4.19H191.7v-3.9a2.433,2.433,0,0,1,.539-1.69,1.952,1.952,0,0,1,1.53-.6l0.251,0.01v-1.25a1.073,1.073,0,0,0-.346-0.06,2.06,2.06,0,0,0-1.7.93,4.694,4.694,0,0,0-.332.53v-1.24h-1.161v7.27h0Zm9.206-5.17a2.215,2.215,0,0,0-.8-1.7,3.087,3.087,0,0,0-2.018-.62,3.018,3.018,0,0,0-1.977.6,2,2,0,0,0-.729,1.63,1.655,1.655,0,0,0,.435,1.22,3.037,3.037,0,0,0,1.459.69l1.262,0.3a3.637,3.637,0,0,1,1.12.39,0.659,0.659,0,0,1,.278.58,1.062,1.062,0,0,1-.424.91,2.074,2.074,0,0,1-1.246.31,2.331,2.331,0,0,1-1.4-.34,1.583,1.583,0,0,1-.546-1.13h-1.174a2.553,2.553,0,0,0,.835,1.92,3.628,3.628,0,0,0,2.286.61,3.241,3.241,0,0,0,2.1-.64,2.085,2.085,0,0,0,.777-1.71,1.707,1.707,0,0,0-.449-1.26,3.226,3.226,0,0,0-1.514-.71l-1.262-.3a3.6,3.6,0,0,1-1.106-.39,0.675,0.675,0,0,1-.278-0.59,0.856,0.856,0,0,1,.4-0.77,2.055,2.055,0,0,1,1.157-.27,1.852,1.852,0,0,1,1.178.34,1.252,1.252,0,0,1,.492.93h1.146Zm3.754,4.22H203a0.825,0.825,0,0,1-.519-0.15,0.44,0.44,0,0,1-.193-0.38v-4.79h1.146v-1h-1.146v-2.04h-1.222v2.04h-1v1h1v4.79a1.758,1.758,0,0,0,.329,1.21,1.481,1.481,0,0,0,1.13.36,7.7,7.7,0,0,0,.909-0.1h0v-0.94Zm5.693,0.52a3.075,3.075,0,0,0,1.086-1.83h-1.208a1.621,1.621,0,0,1-.637,1.01,1.986,1.986,0,0,1-1.221.39,1.9,1.9,0,0,1-1.627-.69,3.123,3.123,0,0,1-.5-1.66h5.3l0.015-.43a4.233,4.233,0,0,0-.876-2.79,2.827,2.827,0,0,0-2.3-1.06,3.145,3.145,0,0,0-2.507,1.08,4.344,4.344,0,0,0-.932,2.92,3.922,3.922,0,0,0,.882,2.71,3.1,3.1,0,0,0,2.422.98h0A3.326,3.326,0,0,0,209.127,2024.74Zm-4.1-3.76a2.773,2.773,0,0,1,.549-1.49,1.874,1.874,0,0,1,1.541-.72,1.738,1.738,0,0,1,1.452.63,2.707,2.707,0,0,1,.5,1.58h-4.044Zm-31.31,31.99h1.393l1.047-2.89h3.983l1.016,2.89H182.6l-3.582-9.99h-1.54l-3.766,9.99h0Zm4.474-8.52h0l1.538,4.43h-3.139l1.6-4.43h0Zm4.944,8.52h1.221v-3.89a2.88,2.88,0,0,1,.516-1.81,1.659,1.659,0,0,1,1.4-.67,1.522,1.522,0,0,1,1.2.42,2.125,2.125,0,0,1,.37,1.39v4.56h1.221v-4.98a2.526,2.526,0,0,0-4.492-1.57l-0.271.36v-1.08h-1.16v7.27h0Zm9.838-.95h-0.434a0.892,0.892,0,0,1-.519-0.14,0.458,0.458,0,0,1-.193-0.39v-4.79h1.146v-1h-1.146v-2.04H190.6v2.04h-1v1h1v4.79a1.787,1.787,0,0,0,.329,1.22,1.521,1.521,0,0,0,1.13.35,7.169,7.169,0,0,0,.909-0.09h0v-0.95Zm3.6,1.15a3.089,3.089,0,0,0,2.449-1.06,4.639,4.639,0,0,0,0-5.57,3.348,3.348,0,0,0-4.888,0,4.623,4.623,0,0,0,0,5.57,3.081,3.081,0,0,0,2.439,1.06h0Zm0-1.05a1.8,1.8,0,0,1-1.53-.76,3.917,3.917,0,0,1,0-4.06,1.923,1.923,0,0,1,3.063,0,3.9,3.9,0,0,1,0,4.06,1.81,1.81,0,0,1-1.533.76h0Zm4.213,0.85H202v-3.89a2.886,2.886,0,0,1,.515-1.81,1.663,1.663,0,0,1,1.4-.67,1.518,1.518,0,0,1,1.2.42,2.119,2.119,0,0,1,.37,1.39v4.56H206.7v-4.98a2.525,2.525,0,0,0-4.491-1.57l-0.271.36v-1.08h-1.161v7.27h0Zm7.213,0h1.221v-7.27h-1.221v7.27h0Zm-0.013-8.6h1.248v-1.39h-1.248v1.39Zm5.462,8.8a3.089,3.089,0,0,0,2.449-1.06,4.635,4.635,0,0,0,0-5.57,3.348,3.348,0,0,0-4.888,0,4.623,4.623,0,0,0,0,5.57,3.084,3.084,0,0,0,2.439,1.06h0Zm0-1.05a1.8,1.8,0,0,1-1.53-.76,3.917,3.917,0,0,1,0-4.06,1.923,1.923,0,0,1,3.063,0,3.9,3.9,0,0,1,0,4.06,1.81,1.81,0,0,1-1.533.76h0Zm7.742,0.85h3.99a3.869,3.869,0,0,0,3.1-1.35,5.415,5.415,0,0,0,1.15-3.63,5.54,5.54,0,0,0-1.123-3.65,3.737,3.737,0,0,0-3.023-1.36h-4.1v9.99h0Zm1.35-8.83h2.585a2.542,2.542,0,0,1,2.158,1,4.651,4.651,0,0,1,.76,2.85,4.472,4.472,0,0,1-.791,2.83,2.683,2.683,0,0,1-2.242,1h-2.47v-7.68Zm12.057,8.21a2.53,2.53,0,0,0,.312-0.33,1.631,1.631,0,0,0,.292.72,1.237,1.237,0,0,0,1,.38,2.485,2.485,0,0,0,.333-0.04,3.8,3.8,0,0,0,.373-0.11v-0.89a2.277,2.277,0,0,1-.227.04,1.51,1.51,0,0,1-.16.02,0.383,0.383,0,0,1-.414-0.41v-4a2.041,2.041,0,0,0-.692-1.67,3.1,3.1,0,0,0-2.015-.58,3.391,3.391,0,0,0-2.157.61,2.4,2.4,0,0,0-.842,1.79h1.127a1.526,1.526,0,0,1,.512-1.04,1.815,1.815,0,0,1,1.177-.35,2.012,2.012,0,0,1,1.228.33,1.07,1.07,0,0,1,.441.91v0.07a0.807,0.807,0,0,1-.129.46,0.62,0.62,0,0,1-.366.24,2.329,2.329,0,0,1-.387.07l-1.662.21a2.947,2.947,0,0,0-1.713.72,2.086,2.086,0,0,0-.587,1.56,1.978,1.978,0,0,0,.624,1.54,2.408,2.408,0,0,0,1.689.57h0a3.22,3.22,0,0,0,2.239-.82h0Zm0.272-1.82a1.484,1.484,0,0,1-.041.28,1.77,1.77,0,0,1-.6.82,2.548,2.548,0,0,1-1.628.53,1.155,1.155,0,0,1-1.276-1.27,0.92,0.92,0,0,1,.407-0.79,3.012,3.012,0,0,1,1.289-.41l1.12-.16a2.547,2.547,0,0,0,.753-0.23v0.79h0c0,0.16-.007.31-0.02,0.44h0Zm13.312-1.23a3.607,3.607,0,0,1-1.017,2.03,2.705,2.705,0,0,1-1.927.72,2.881,2.881,0,0,1-2.392-1.04,4.772,4.772,0,0,1-.824-3.02,4.623,4.623,0,0,1,.889-2.98,2.919,2.919,0,0,1,2.388-1.1,3.072,3.072,0,0,1,1.876.54,2.382,2.382,0,0,1,.919,1.53h1.3a3.59,3.59,0,0,0-1.3-2.4,4.3,4.3,0,0,0-2.775-.87,4.355,4.355,0,0,0-3.416,1.43,5.6,5.6,0,0,0-1.272,3.85,5.68,5.68,0,0,0,1.225,3.83,4.117,4.117,0,0,0,3.287,1.43,4.189,4.189,0,0,0,2.927-1.05,4.632,4.632,0,0,0,1.415-2.9h-1.3Zm5.178,3.87a3.089,3.089,0,0,0,2.449-1.06,4.639,4.639,0,0,0,0-5.57,3.349,3.349,0,0,0-4.889,0,4.627,4.627,0,0,0,0,5.57,3.085,3.085,0,0,0,2.44,1.06h0Zm0-1.05a1.8,1.8,0,0,1-1.53-.76,3.917,3.917,0,0,1,0-4.06,1.923,1.923,0,0,1,3.063,0,3.9,3.9,0,0,1,0,4.06,1.81,1.81,0,0,1-1.533.76h0Zm4.383,0.85h1.221v-3.89a2.46,2.46,0,0,1,.54-1.7,1.978,1.978,0,0,1,1.53-.59l0.251,0.01v-1.25a0.873,0.873,0,0,0-.346-0.07,2.046,2.046,0,0,0-1.7.94,3.4,3.4,0,0,0-.333.53v-1.25h-1.16v7.27h0Zm4.071,0h1.222v-3.89a2.46,2.46,0,0,1,.539-1.7,1.981,1.981,0,0,1,1.53-.59l0.251,0.01v-1.25a0.873,0.873,0,0,0-.346-0.07,2.046,2.046,0,0,0-1.7.94,3.4,3.4,0,0,0-.332.53v-1.25h-1.161v7.27h0Zm8.957-.43a3.078,3.078,0,0,0,1.085-1.82h-1.207a1.575,1.575,0,0,1-.638,1,1.93,1.93,0,0,1-1.22.4,1.879,1.879,0,0,1-1.628-.7,3.132,3.132,0,0,1-.5-1.65h5.3l0.014-.44a4.256,4.256,0,0,0-.875-2.79,2.857,2.857,0,0,0-2.3-1.06,3.153,3.153,0,0,0-2.507,1.09,4.309,4.309,0,0,0-.933,2.92,3.878,3.878,0,0,0,.882,2.7,3.1,3.1,0,0,0,2.422.98h0A3.329,3.329,0,0,0,270.765,2052.54Zm-4.1-3.76a2.771,2.771,0,0,1,.55-1.48,1.872,1.872,0,0,1,1.54-.72,1.757,1.757,0,0,1,1.452.62,2.75,2.75,0,0,1,.5,1.58h-4.044Zm7.831,5.94a1.414,1.414,0,0,1-.519-0.9h-1.248a2.421,2.421,0,0,0,.875,1.65,3.1,3.1,0,0,0,1.961.58,3.287,3.287,0,0,0,2.524-.89,3.921,3.921,0,0,0,.828-2.72v-6.74h-1.147v1.05l-0.088-.13a2.382,2.382,0,0,0-2.076-1.14,2.769,2.769,0,0,0-2.219,1.01,3.957,3.957,0,0,0-.848,2.64,4.633,4.633,0,0,0,.862,2.95,2.794,2.794,0,0,0,2.32,1.09,2.383,2.383,0,0,0,1.968-.96l0.006-.01v0.24a2.964,2.964,0,0,1-.549,1.93,1.964,1.964,0,0,1-1.6.66h0A1.674,1.674,0,0,1,274.493,2054.72Zm2.769-7.35a4.356,4.356,0,0,1,.492,2.31,2.69,2.69,0,0,1-.543,1.76,1.743,1.743,0,0,1-1.432.67,1.679,1.679,0,0,1-1.455-.72,3.56,3.56,0,0,1-.512-2.07,3.6,3.6,0,0,1,.471-2.07,1.731,1.731,0,0,1,1.5-.65A1.648,1.648,0,0,1,277.262,2047.37Zm4.4,7.35a1.414,1.414,0,0,1-.519-0.9H279.9a2.417,2.417,0,0,0,.875,1.65,3.1,3.1,0,0,0,1.961.58,3.287,3.287,0,0,0,2.524-.89,3.921,3.921,0,0,0,.828-2.72v-6.74h-1.147v1.05l-0.088-.13a2.382,2.382,0,0,0-2.076-1.14,2.768,2.768,0,0,0-2.219,1.01,3.957,3.957,0,0,0-.848,2.64,4.633,4.633,0,0,0,.862,2.95,2.794,2.794,0,0,0,2.32,1.09,2.383,2.383,0,0,0,1.968-.96l0.006-.01v0.24a2.964,2.964,0,0,1-.549,1.93,1.965,1.965,0,0,1-1.6.66h0A1.672,1.672,0,0,1,281.665,2054.72Zm2.769-7.35a4.366,4.366,0,0,1,.491,2.31,2.69,2.69,0,0,1-.542,1.76,1.743,1.743,0,0,1-1.432.67,1.679,1.679,0,0,1-1.455-.72,3.56,3.56,0,0,1-.512-2.07,3.6,3.6,0,0,1,.471-2.07,1.731,1.731,0,0,1,1.5-.65A1.649,1.649,0,0,1,284.434,2047.37Zm2.833,5.6h1.221v-7.27h-1.221v7.27h0Zm-0.014-8.6H288.5v-1.39h-1.249v1.39Zm5.462,8.8a3.09,3.09,0,0,0,2.45-1.06,4.639,4.639,0,0,0,0-5.57,3.349,3.349,0,0,0-4.889,0,4.623,4.623,0,0,0,0,5.57,3.084,3.084,0,0,0,2.439,1.06h0Zm0-1.05a1.8,1.8,0,0,1-1.53-.76,3.923,3.923,0,0,1,0-4.06,1.924,1.924,0,0,1,3.064,0,3.9,3.9,0,0,1,0,4.06,1.81,1.81,0,0,1-1.534.76h0Zm-114.6,25.85a2.13,2.13,0,0,1-.427,1.41,1.413,1.413,0,0,1-1.16.52,1.431,1.431,0,0,1-1.12-.43,1.771,1.771,0,0,1-.393-1.23v-0.69h-1.262v0.69a2.572,2.572,0,0,0,.7,2.06,2.938,2.938,0,0,0,2.157.75,2.756,2.756,0,0,0,2.114-.8,3.235,3.235,0,0,0,.743-2.28v-7.18h-1.351v7.18Zm3.956-4.46h-1.221v4.99a2.188,2.188,0,0,0,2.47,2.48,2.447,2.447,0,0,0,1.954-.93,3.553,3.553,0,0,0,.271-0.38v1.11h1.16v-7.27h-1.221v3.88a3.011,3.011,0,0,1-.515,1.85,1.646,1.646,0,0,1-1.4.68,1.447,1.447,0,0,1-1.147-.4,2,2,0,0,1-.353-1.32v-4.69h0Zm5.815,10.14h1.222v-3.67l0.04,0.05a2.342,2.342,0,0,0,1.954.95,2.777,2.777,0,0,0,2.324-1.08,4.73,4.73,0,0,0,.838-2.97,3.992,3.992,0,0,0-.831-2.66,2.814,2.814,0,0,0-2.256-.98,2.4,2.4,0,0,0-2.069,1.16l-0.061.09v-1.03h-1.161v10.14Zm1.724-4.37a2.815,2.815,0,0,1-.5-1.79,4.526,4.526,0,0,1,.464-2.34,1.608,1.608,0,0,1,1.476-.75,1.686,1.686,0,0,1,1.466.66,3.471,3.471,0,0,1,.475,2.02,3.716,3.716,0,0,1-.5,2.11,1.658,1.658,0,0,1-1.452.73h0A1.7,1.7,0,0,1,189.613,2079.28Zm5.584,1.5h1.221v-7.27H195.2v7.27h0Zm-0.013-8.6h1.248v-1.39h-1.248v1.39Zm5.17,7.65H199.92a0.825,0.825,0,0,1-.519-0.15,0.441,0.441,0,0,1-.194-0.38v-4.79h1.147v-1h-1.147v-2.04h-1.221v2.04h-1v1h1v4.79a1.758,1.758,0,0,0,.329,1.21,1.481,1.481,0,0,0,1.13.36,6,6,0,0,0,.909-0.1h0v-0.94Zm5.693,0.52a3.069,3.069,0,0,0,1.085-1.83h-1.207a1.6,1.6,0,0,1-.638,1.01,1.983,1.983,0,0,1-1.22.39,1.9,1.9,0,0,1-1.628-.69,3.141,3.141,0,0,1-.5-1.66h5.3l0.014-.43a4.251,4.251,0,0,0-.875-2.79,2.827,2.827,0,0,0-2.3-1.06,3.145,3.145,0,0,0-2.507,1.08,4.344,4.344,0,0,0-.933,2.92,3.905,3.905,0,0,0,.882,2.71,3.105,3.105,0,0,0,2.422.98h0A3.329,3.329,0,0,0,206.047,2080.35Zm-4.1-3.76a2.782,2.782,0,0,1,.55-1.49,1.872,1.872,0,0,1,1.54-.72,1.735,1.735,0,0,1,1.452.63,2.732,2.732,0,0,1,.5,1.58h-4.045Zm6.39,4.19h1.221v-3.89a2.443,2.443,0,0,1,.54-1.7,1.949,1.949,0,0,1,1.529-.6l0.252,0.01v-1.25a1.074,1.074,0,0,0-.347-0.06,2.058,2.058,0,0,0-1.7.93,4.7,4.7,0,0,0-.333.53v-1.24h-1.16v7.27h0Zm11.359-.63a2.605,2.605,0,0,0,.312-0.32,1.587,1.587,0,0,0,.291.71,1.238,1.238,0,0,0,1,.38,1.488,1.488,0,0,0,.332-0.04,2.209,2.209,0,0,0,.373-0.11v-0.88a2.228,2.228,0,0,1-.227.04,1.056,1.056,0,0,1-.16.01,0.382,0.382,0,0,1-.413-0.4v-4a2.078,2.078,0,0,0-.692-1.68,3.105,3.105,0,0,0-2.016-.57,3.391,3.391,0,0,0-2.157.6,2.4,2.4,0,0,0-.841,1.8h1.126a1.531,1.531,0,0,1,.512-1.04,1.761,1.761,0,0,1,1.177-.35,2.012,2.012,0,0,1,1.228.33,1.07,1.07,0,0,1,.441.91v0.06a0.764,0.764,0,0,1-.129.46,0.591,0.591,0,0,1-.366.25c-0.122.03-.251,0.05-0.387,0.07l-1.662.21a2.824,2.824,0,0,0-1.713.72,2.067,2.067,0,0,0-.587,1.55,2.015,2.015,0,0,0,.624,1.55,2.409,2.409,0,0,0,1.69.57h0a3.23,3.23,0,0,0,2.239-.83h0Zm0.271-1.82a1.36,1.36,0,0,1-.041.28,1.739,1.739,0,0,1-.6.83,2.542,2.542,0,0,1-1.628.52,1.282,1.282,0,0,1-.943-0.33,1.259,1.259,0,0,1-.332-0.94,0.9,0.9,0,0,1,.407-0.78,3.007,3.007,0,0,1,1.289-.41l1.119-.17a2.539,2.539,0,0,0,.753-0.22v0.79h0a4.009,4.009,0,0,1-.02.43h0Zm2.748,2.45h1.222v-3.89a2.911,2.911,0,0,1,.515-1.82,1.689,1.689,0,0,1,1.4-.67,1.521,1.521,0,0,1,1.2.43,2.07,2.07,0,0,1,.37,1.38v4.57h1.221v-4.98a2.269,2.269,0,0,0-2.5-2.51,2.506,2.506,0,0,0-1.988.93l-0.272.36v-1.07h-1.16v7.27h0Zm11.915-.77,0.156-.22v0.99h1.133v-9.99H234.7v3.77l-0.095-.14a2.453,2.453,0,0,0-2.117-1.13,2.7,2.7,0,0,0-2.178,1.01,4,4,0,0,0-.835,2.64,4.639,4.639,0,0,0,.862,2.95,2.821,2.821,0,0,0,2.32,1.09h0a2.4,2.4,0,0,0,1.975-.97h0Zm-0.445-4.81a4.25,4.25,0,0,1,.513,2.29,2.738,2.738,0,0,1-.543,1.77,1.743,1.743,0,0,1-1.432.67,1.672,1.672,0,0,1-1.462-.73,4.609,4.609,0,0,1-.037-4.15,1.72,1.72,0,0,1,1.5-.66A1.632,1.632,0,0,1,234.182,2075.2Zm6.538,5.58h1.351v-9.99H240.72v9.99h0Zm5.9,0.2a3.121,3.121,0,0,0,2.449-1.06,4.635,4.635,0,0,0,0-5.57,3.348,3.348,0,0,0-4.888,0,4.623,4.623,0,0,0,0,5.57,3.115,3.115,0,0,0,2.439,1.06h0Zm0-1.06a1.816,1.816,0,0,1-1.53-.75,3.935,3.935,0,0,1,0-4.07,1.923,1.923,0,0,1,3.063,0,3.918,3.918,0,0,1,0,4.07,1.826,1.826,0,0,1-1.533.75h0Z"/>
  </g>
</svg>
