<svg id="Dada" xmlns="http://www.w3.org/2000/svg" width="3000" height="3000" viewBox="0 0 3000 3000">
  <defs>
    <style>
      .cls-1 {
        fill: #575861;
      }

      .cls-2 {
        fill: #e4e1da;
      }

      .cls-2, .cls-3 {
        fill-rule: evenodd;
      }

      .cls-3 {
        fill: #31323d;
      }
    </style>
  </defs>
  <g id="dada-placard-anatomylesson">
    <rect id="Rectangle_2_copy" data-name="Rectangle 2 copy" class="cls-1" x="155" y="1980" width="291" height="187"/>
    <path id="Rectangle_2_copy_2" data-name="Rectangle 2 copy 2" class="cls-2" d="M159.98,1984.99H441.02v177.02H159.98V1984.99Z"/>
    <path id="dada.nyc" class="cls-3" d="M187.636,2123.36l0.415-.6v2.64h3.012v-26.56h-3.246v10.03l-0.253-.36a6.475,6.475,0,0,0-5.628-3.02,7.169,7.169,0,0,0-5.79,2.67,10.673,10.673,0,0,0-2.218,7.03,12.281,12.281,0,0,0,2.29,7.83,7.434,7.434,0,0,0,6.169,2.9h0a6.337,6.337,0,0,0,5.249-2.56h0Zm-1.181-12.8a11.359,11.359,0,0,1,1.362,6.09,7.251,7.251,0,0,1-1.443,4.71,4.651,4.651,0,0,1-3.806,1.78,4.465,4.465,0,0,1-3.888-1.93,9.5,9.5,0,0,1-1.361-5.51q0-3.795,1.262-5.54a4.594,4.594,0,0,1,3.987-1.74A4.34,4.34,0,0,1,186.455,2110.56Zm17.2,13.18a7.322,7.322,0,0,0,.83-0.87,4.282,4.282,0,0,0,.776,1.9,3.271,3.271,0,0,0,2.669,1.01,4.679,4.679,0,0,0,.884-0.11,6.139,6.139,0,0,0,.992-0.29v-2.35a5.2,5.2,0,0,1-.6.11c-0.187.02-.328,0.04-0.424,0.04a1.081,1.081,0,0,1-.8-0.3,1.069,1.069,0,0,1-.3-0.79v-10.62a5.442,5.442,0,0,0-1.84-4.45,8.189,8.189,0,0,0-5.357-1.53,8.978,8.978,0,0,0-5.736,1.6,6.38,6.38,0,0,0-2.237,4.78H195.5a4.117,4.117,0,0,1,1.362-2.78,4.783,4.783,0,0,1,3.13-.93,5.384,5.384,0,0,1,3.265.88,2.854,2.854,0,0,1,1.172,2.43v0.16a2.063,2.063,0,0,1-.343,1.23,1.629,1.629,0,0,1-.974.65,5.555,5.555,0,0,1-1.028.18l-4.419.56a7.622,7.622,0,0,0-4.555,1.92,5.526,5.526,0,0,0-1.56,4.13,5.3,5.3,0,0,0,1.66,4.11,6.4,6.4,0,0,0,4.491,1.51h0a8.618,8.618,0,0,0,5.952-2.18h0Zm0.722-4.85a3.767,3.767,0,0,1-.108.75,4.742,4.742,0,0,1-1.606,2.2,6.767,6.767,0,0,1-4.329,1.39,3.386,3.386,0,0,1-2.507-.88,3.348,3.348,0,0,1-.884-2.5,2.413,2.413,0,0,1,1.082-2.08,7.89,7.89,0,0,1,3.428-1.1l2.976-.43a6.957,6.957,0,0,0,2-.6v2.1h0a11.1,11.1,0,0,1-.054,1.15h0Zm18.437,4.47,0.415-.6v2.64h3.012v-26.56H223v10.03l-0.252-.36a6.475,6.475,0,0,0-5.628-3.02,7.169,7.169,0,0,0-5.79,2.67,10.673,10.673,0,0,0-2.218,7.03,12.281,12.281,0,0,0,2.29,7.83,7.434,7.434,0,0,0,6.169,2.9h0a6.337,6.337,0,0,0,5.249-2.56h0Zm-1.181-12.8a11.36,11.36,0,0,1,1.361,6.09,7.245,7.245,0,0,1-1.443,4.71,4.648,4.648,0,0,1-3.8,1.78,4.465,4.465,0,0,1-3.888-1.93,9.5,9.5,0,0,1-1.361-5.51q0-3.795,1.262-5.54a4.594,4.594,0,0,1,3.987-1.74A4.34,4.34,0,0,1,221.634,2110.56Zm17.2,13.18a7.322,7.322,0,0,0,.83-0.87,4.282,4.282,0,0,0,.776,1.9,3.271,3.271,0,0,0,2.669,1.01,4.679,4.679,0,0,0,.884-0.11,6.139,6.139,0,0,0,.992-0.29v-2.35a5.2,5.2,0,0,1-.6.11c-0.187.02-.328,0.04-0.424,0.04a1.081,1.081,0,0,1-.8-0.3,1.069,1.069,0,0,1-.3-0.79v-10.62a5.442,5.442,0,0,0-1.84-4.45,8.189,8.189,0,0,0-5.357-1.53,8.978,8.978,0,0,0-5.736,1.6,6.38,6.38,0,0,0-2.237,4.78h2.994a4.117,4.117,0,0,1,1.362-2.78,4.783,4.783,0,0,1,3.13-.93,5.384,5.384,0,0,1,3.265.88,2.854,2.854,0,0,1,1.172,2.43v0.16a2.063,2.063,0,0,1-.343,1.23,1.629,1.629,0,0,1-.974.65,5.555,5.555,0,0,1-1.028.18l-4.419.56a7.622,7.622,0,0,0-4.555,1.92,5.526,5.526,0,0,0-1.56,4.13,5.3,5.3,0,0,0,1.66,4.11,6.4,6.4,0,0,0,4.491,1.51h0a8.618,8.618,0,0,0,5.952-2.18h0Zm0.722-4.85a3.767,3.767,0,0,1-.108.75,4.742,4.742,0,0,1-1.606,2.2,6.767,6.767,0,0,1-4.329,1.39,3.386,3.386,0,0,1-2.507-.88,3.348,3.348,0,0,1-.884-2.5,2.413,2.413,0,0,1,1.082-2.08,7.89,7.89,0,0,1,3.428-1.1l2.976-.43a6.957,6.957,0,0,0,2-.6v2.1h0a11.1,11.1,0,0,1-.054,1.15h0Zm6.641,6.51h3.86v-3.92H246.2v3.92Zm6.5,0h3.247v-10.35a7.706,7.706,0,0,1,1.371-4.82,4.457,4.457,0,0,1,3.715-1.78,4.028,4.028,0,0,1,3.184,1.13,5.56,5.56,0,0,1,.983,3.68v12.14h3.247v-13.24a6.731,6.731,0,0,0-11.941-4.2l-0.722.96v-2.85h-3.084v19.33h0Zm33.246-19.33h-3.556l-5.227,15.99h0l-5.153-15.99H268.3l7.162,19.65v0.01l-0.054.3a13.153,13.153,0,0,1-1.677,3.38,2.29,2.29,0,0,1-1.84.9,5.712,5.712,0,0,1-1.858-.28v3.01a4.862,4.862,0,0,0,1.569.2,5.308,5.308,0,0,0,3.977-1.37c0.884-.92,1.891-2.86,3.021-5.84l7.341-19.96h0Zm11.962,12.37a6.179,6.179,0,0,1-1.687,3.46,4.838,4.838,0,0,1-7.025-.64,9.712,9.712,0,0,1-1.3-5.55,9.285,9.285,0,0,1,1.4-5.44,4.46,4.46,0,0,1,3.851-1.98,4.723,4.723,0,0,1,3.319,1.14,4.791,4.791,0,0,1,1.443,3.21h3.12a7.218,7.218,0,0,0-2.218-5.24,7.851,7.851,0,0,0-5.556-1.91,7.956,7.956,0,0,0-6.376,2.77,11.089,11.089,0,0,0-2.372,7.45,11.312,11.312,0,0,0,2.291,7.45,7.561,7.561,0,0,0,6.132,2.76,7.844,7.844,0,0,0,5.52-1.91,8.965,8.965,0,0,0,2.579-5.57H297.9Z"/>
    <path id="Javier_Errecarte_Rembrandt_van_Rijn_The_Anatomy_Lesson_of_Dr._N" data-name="Javier Errecarte Rembrandt van Rijn The Anatomy Lesson of Dr. N" class="cls-3" d="M178.118,2022.36a2.166,2.166,0,0,1-.427,1.41,1.413,1.413,0,0,1-1.16.52,1.431,1.431,0,0,1-1.12-.43,1.771,1.771,0,0,1-.393-1.23v-0.69h-1.262v0.69a2.572,2.572,0,0,0,.7,2.06,2.938,2.938,0,0,0,2.157.75,2.756,2.756,0,0,0,2.114-.8,3.252,3.252,0,0,0,.743-2.28v-7.18h-1.351v7.18Zm6.847,2.18a2.605,2.605,0,0,0,.312-0.32,1.638,1.638,0,0,0,.292.71,1.236,1.236,0,0,0,1,.38,1.488,1.488,0,0,0,.332-0.04,2.182,2.182,0,0,0,.373-0.11v-0.88a2.228,2.228,0,0,1-.227.04,1.051,1.051,0,0,1-.159.01,0.425,0.425,0,0,1-.3-0.11,0.39,0.39,0,0,1-.112-0.3v-3.99a2.065,2.065,0,0,0-.692-1.68,3.1,3.1,0,0,0-2.015-.57,3.392,3.392,0,0,0-2.158.6,2.4,2.4,0,0,0-.841,1.8H181.9a1.582,1.582,0,0,1,.512-1.05,1.817,1.817,0,0,1,1.177-.35,2.012,2.012,0,0,1,1.228.33,1.088,1.088,0,0,1,.441.92v0.06a0.77,0.77,0,0,1-.128.46,0.636,0.636,0,0,1-.367.25,2.337,2.337,0,0,1-.387.06l-1.662.22a2.824,2.824,0,0,0-1.713.72,2.067,2.067,0,0,0-.587,1.55,1.978,1.978,0,0,0,.624,1.54,2.416,2.416,0,0,0,1.69.58h0a3.23,3.23,0,0,0,2.239-.83h0Zm0.271-1.82a1.36,1.36,0,0,1-.041.28,1.784,1.784,0,0,1-.6.83,2.547,2.547,0,0,1-1.629.52,1.282,1.282,0,0,1-.943-0.33,1.259,1.259,0,0,1-.332-0.94,0.9,0.9,0,0,1,.407-0.78,2.876,2.876,0,0,1,1.289-.41l1.119-.17a2.539,2.539,0,0,0,.753-0.22v0.79h0a4.009,4.009,0,0,1-.02.43h0Zm4.669,2.45h1.309l2.707-7.27h-1.347l-2.013,5.95h0l-1.946-5.95h-1.427Zm4.512,0h1.221v-7.27h-1.221v7.27h0Zm-0.014-8.61h1.249v-1.38H194.4v1.38Zm7.559,8.18a3.075,3.075,0,0,0,1.086-1.83H201.84a1.618,1.618,0,0,1-.638,1.01,1.983,1.983,0,0,1-1.22.39,1.9,1.9,0,0,1-1.628-.69,3.141,3.141,0,0,1-.5-1.66h5.3l0.014-.43a4.232,4.232,0,0,0-.875-2.79,2.827,2.827,0,0,0-2.3-1.06,3.145,3.145,0,0,0-2.507,1.08,4.344,4.344,0,0,0-.933,2.92,3.922,3.922,0,0,0,.882,2.71,3.106,3.106,0,0,0,2.423.98h0A3.328,3.328,0,0,0,201.962,2024.74Zm-4.1-3.76a2.782,2.782,0,0,1,.55-1.49,1.874,1.874,0,0,1,1.54-.72,1.738,1.738,0,0,1,1.453.63,2.714,2.714,0,0,1,.5,1.58h-4.045Zm6.39,4.19h1.221v-3.9a2.433,2.433,0,0,1,.54-1.69,1.949,1.949,0,0,1,1.53-.6l0.251,0.01v-1.25a1.073,1.073,0,0,0-.346-0.06,2.06,2.06,0,0,0-1.7.93,4.7,4.7,0,0,0-.333.53v-1.24h-1.16v7.27h0Zm14.866,0v-1.2H213.1v-3.35h5.428v-1.19H213.1v-3.06h5.944v-1.19h-7.294v9.99h7.368Zm1.222,0h1.221v-3.9a2.433,2.433,0,0,1,.54-1.69,1.949,1.949,0,0,1,1.53-.6l0.251,0.01v-1.25a1.073,1.073,0,0,0-.346-0.06,2.06,2.06,0,0,0-1.7.93,4.7,4.7,0,0,0-.333.53v-1.24h-1.16v7.27h0Zm4.071,0h1.222v-3.9a2.438,2.438,0,0,1,.539-1.69,1.952,1.952,0,0,1,1.53-.6l0.251,0.01v-1.25a1.073,1.073,0,0,0-.346-0.06,2.06,2.06,0,0,0-1.7.93,4.694,4.694,0,0,0-.332.53v-1.24h-1.161v7.27h0Zm8.957-.43a3.074,3.074,0,0,0,1.085-1.83h-1.207a1.622,1.622,0,0,1-.638,1.01,1.983,1.983,0,0,1-1.22.39,1.9,1.9,0,0,1-1.628-.69,3.141,3.141,0,0,1-.5-1.66h5.3l0.014-.43a4.232,4.232,0,0,0-.875-2.79,2.827,2.827,0,0,0-2.3-1.06,3.145,3.145,0,0,0-2.507,1.08,4.344,4.344,0,0,0-.933,2.92,3.922,3.922,0,0,0,.882,2.71,3.105,3.105,0,0,0,2.422.98h0A3.329,3.329,0,0,0,233.365,2024.74Zm-4.1-3.76a2.774,2.774,0,0,1,.55-1.49,1.872,1.872,0,0,1,1.54-.72,1.735,1.735,0,0,1,1.452.63,2.707,2.707,0,0,1,.5,1.58h-4.045Zm10.773,1.57a2.317,2.317,0,0,1-.635,1.3,1.817,1.817,0,0,1-2.642-.24,3.621,3.621,0,0,1-.489-2.08,3.493,3.493,0,0,1,.526-2.05,1.674,1.674,0,0,1,1.449-.75,1.665,1.665,0,0,1,1.791,1.64h1.173a2.69,2.69,0,0,0-.834-1.97,2.961,2.961,0,0,0-2.09-.72,3.009,3.009,0,0,0-2.4,1.04,4.182,4.182,0,0,0-.892,2.81,4.274,4.274,0,0,0,.861,2.8,2.854,2.854,0,0,0,2.307,1.04,2.9,2.9,0,0,0,2.076-.73,3.345,3.345,0,0,0,.97-2.09h-1.173Zm5.991,1.99a2.467,2.467,0,0,0,.312-0.32,1.638,1.638,0,0,0,.292.71,1.237,1.237,0,0,0,1,.38,1.5,1.5,0,0,0,.333-0.04,2.209,2.209,0,0,0,.373-0.11v-0.88a2.294,2.294,0,0,1-.228.04,1.051,1.051,0,0,1-.159.01,0.426,0.426,0,0,1-.3-0.11,0.39,0.39,0,0,1-.112-0.3v-3.99a2.065,2.065,0,0,0-.692-1.68,3.1,3.1,0,0,0-2.015-.57,3.4,3.4,0,0,0-2.158.6,2.4,2.4,0,0,0-.841,1.8h1.126a1.578,1.578,0,0,1,.513-1.05,1.815,1.815,0,0,1,1.177-.35,2.014,2.014,0,0,1,1.228.33,1.088,1.088,0,0,1,.441.92v0.06a0.764,0.764,0,0,1-.129.46,0.634,0.634,0,0,1-.366.25,2.353,2.353,0,0,1-.387.06l-1.662.22a2.83,2.83,0,0,0-1.714.72,2.066,2.066,0,0,0-.586,1.55,1.978,1.978,0,0,0,.624,1.54,2.413,2.413,0,0,0,1.689.58h0a3.228,3.228,0,0,0,2.239-.83h0Zm0.272-1.82a1.434,1.434,0,0,1-.041.28,1.794,1.794,0,0,1-.6.83,2.542,2.542,0,0,1-1.628.52,1.28,1.28,0,0,1-.943-0.33,1.26,1.26,0,0,1-.333-0.94,0.9,0.9,0,0,1,.407-0.78,2.881,2.881,0,0,1,1.289-.41l1.12-.17a2.539,2.539,0,0,0,.753-0.22v0.79h0a4.287,4.287,0,0,1-.02.43h0Zm2.917,2.45h1.222v-3.9a2.438,2.438,0,0,1,.539-1.69,1.952,1.952,0,0,1,1.53-.6l0.251,0.01v-1.25a1.073,1.073,0,0,0-.346-0.06,2.06,2.06,0,0,0-1.7.93,4.694,4.694,0,0,0-.332.53v-1.24h-1.161v7.27h0Zm6.569-.95h-0.435a0.825,0.825,0,0,1-.519-0.15,0.44,0.44,0,0,1-.193-0.38v-4.79h1.147v-1h-1.147v-2.04h-1.221v2.04h-1v1h1v4.79a1.752,1.752,0,0,0,.329,1.21,1.478,1.478,0,0,0,1.129.36,7.734,7.734,0,0,0,.91-0.1h0v-0.94Zm5.693,0.52a3.079,3.079,0,0,0,1.085-1.83h-1.208a1.616,1.616,0,0,1-.637,1.01,1.984,1.984,0,0,1-1.221.39,1.9,1.9,0,0,1-1.627-.69,3.141,3.141,0,0,1-.5-1.66h5.3l0.014-.43a4.238,4.238,0,0,0-.875-2.79,2.828,2.828,0,0,0-2.3-1.06,3.144,3.144,0,0,0-2.507,1.08,4.344,4.344,0,0,0-.933,2.92,3.922,3.922,0,0,0,.882,2.71,3.1,3.1,0,0,0,2.422.98h0A3.329,3.329,0,0,0,261.477,2024.74Zm-4.1-3.76a2.766,2.766,0,0,1,.55-1.49,1.871,1.871,0,0,1,1.54-.72,1.735,1.735,0,0,1,1.452.63,2.7,2.7,0,0,1,.5,1.58h-4.044Zm-82.634,31.99h1.35v-4.31h3.2a2.041,2.041,0,0,1,1.4.4,1.84,1.84,0,0,1,.455,1.33l0.03,0.79c0.018,0.42.045,0.8,0.081,1.15a2.882,2.882,0,0,0,.109.64h1.66v-0.22a0.864,0.864,0,0,1-.394-0.34,1.621,1.621,0,0,1-.115-0.65l-0.054-1.82a1.94,1.94,0,0,0-.943-1.76l-0.224-.11a2.889,2.889,0,0,0,.468-0.32,2.573,2.573,0,0,0,.861-2.05,2.5,2.5,0,0,0-.827-2.03,3.688,3.688,0,0,0-2.416-.69h-4.64v9.99h0Zm1.35-8.85h3.236a2.155,2.155,0,0,1,1.449.4,1.6,1.6,0,0,1,.458,1.26,1.7,1.7,0,0,1-.435,1.3,1.912,1.912,0,0,1-1.37.42H176.09v-3.38Zm12.864,8.42a3.079,3.079,0,0,0,1.086-1.82h-1.208a1.573,1.573,0,0,1-.637,1,1.933,1.933,0,0,1-1.221.4,1.877,1.877,0,0,1-1.627-.7,3.114,3.114,0,0,1-.5-1.65h5.3l0.015-.44a4.251,4.251,0,0,0-.876-2.79,2.856,2.856,0,0,0-2.3-1.06,3.153,3.153,0,0,0-2.507,1.09,4.308,4.308,0,0,0-.932,2.92,3.874,3.874,0,0,0,.882,2.7,3.1,3.1,0,0,0,2.422.98h0A3.326,3.326,0,0,0,188.954,2052.54Zm-4.1-3.76a2.77,2.77,0,0,1,.549-1.48,1.874,1.874,0,0,1,1.541-.72,1.759,1.759,0,0,1,1.452.62,2.757,2.757,0,0,1,.5,1.58h-4.044Zm6.219,4.19h1.222v-3.89a2.906,2.906,0,0,1,.519-1.79,1.6,1.6,0,0,1,1.333-.69,1.12,1.12,0,0,1,.9.36,1.513,1.513,0,0,1,.309,1.03v4.98h1.221v-4.08a2.7,2.7,0,0,1,.468-1.67,1.508,1.508,0,0,1,1.262-.62,1.179,1.179,0,0,1,.991.43,1.965,1.965,0,0,1,.339,1.25v4.69h1.221v-5.1a2.175,2.175,0,0,0-2.381-2.39,2.408,2.408,0,0,0-1.88.92l-0.2.25a1.862,1.862,0,0,0-.4-0.59,2.118,2.118,0,0,0-1.554-.58,2.491,2.491,0,0,0-1.96.98l-0.251.32v-1.08h-1.161v7.27h0Zm10.924,0h1.147v-0.89l0.115,0.15a2.333,2.333,0,0,0,1.954.94,2.777,2.777,0,0,0,2.324-1.08,4.71,4.71,0,0,0,.838-2.97,3.964,3.964,0,0,0-.831-2.65,2.791,2.791,0,0,0-2.256-.99,2.393,2.393,0,0,0-2.069,1.17v-3.67H202v9.99Zm1.724-1.49a2.826,2.826,0,0,1-.5-1.8,4.551,4.551,0,0,1,.464-2.34,1.621,1.621,0,0,1,1.476-.74,1.7,1.7,0,0,1,1.466.65,3.507,3.507,0,0,1,.474,2.03,3.761,3.761,0,0,1-.5,2.11,1.65,1.65,0,0,1-1.452.72h0a1.723,1.723,0,0,1-1.431-.63h0Zm5.713,1.49h1.221v-3.89a2.46,2.46,0,0,1,.54-1.7,1.978,1.978,0,0,1,1.53-.59l0.251,0.01v-1.25a0.873,0.873,0,0,0-.346-0.07,2.046,2.046,0,0,0-1.7.94,3.4,3.4,0,0,0-.333.53v-1.25h-1.16v7.27h0Zm8.054-.62a2.673,2.673,0,0,0,.312-0.33,1.631,1.631,0,0,0,.292.72,1.237,1.237,0,0,0,1,.38,2.473,2.473,0,0,0,.332-0.04,3.721,3.721,0,0,0,.373-0.11v-0.89a2.228,2.228,0,0,1-.227.04,1.468,1.468,0,0,1-.159.02,0.383,0.383,0,0,1-.414-0.41v-4a2.044,2.044,0,0,0-.692-1.67,3.1,3.1,0,0,0-2.015-.58,3.394,3.394,0,0,0-2.158.61,2.4,2.4,0,0,0-.841,1.79h1.126a1.535,1.535,0,0,1,.512-1.04,1.82,1.82,0,0,1,1.178-.35,2.014,2.014,0,0,1,1.228.33,1.07,1.07,0,0,1,.441.91v0.07a0.807,0.807,0,0,1-.129.46,0.619,0.619,0,0,1-.367.24,2.335,2.335,0,0,1-.386.07l-1.663.21a2.95,2.95,0,0,0-1.713.72,2.09,2.09,0,0,0-.587,1.56,1.975,1.975,0,0,0,.625,1.54,2.408,2.408,0,0,0,1.689.57h0a3.222,3.222,0,0,0,2.239-.82h0Zm0.271-1.82a1.5,1.5,0,0,1-.04.28,1.77,1.77,0,0,1-.6.82,2.551,2.551,0,0,1-1.629.53,1.154,1.154,0,0,1-1.275-1.27,0.92,0.92,0,0,1,.407-0.79,3.007,3.007,0,0,1,1.289-.41l1.12-.16a2.566,2.566,0,0,0,.753-0.23v0.79h0a4.189,4.189,0,0,1-.021.44h0Zm2.749,2.44h1.221v-3.89a2.88,2.88,0,0,1,.516-1.81,1.659,1.659,0,0,1,1.4-.67,1.522,1.522,0,0,1,1.2.42,2.125,2.125,0,0,1,.369,1.39v4.56h1.222v-4.98a2.526,2.526,0,0,0-4.492-1.57l-0.271.36v-1.08h-1.16v7.27h0Zm11.914-.76,0.156-.23v0.99h1.133v-9.99h-1.221v3.78l-0.095-.14a2.439,2.439,0,0,0-2.117-1.14,2.7,2.7,0,0,0-2.178,1.01,4,4,0,0,0-.834,2.64,4.639,4.639,0,0,0,.861,2.95,2.8,2.8,0,0,0,2.321,1.09h0a2.389,2.389,0,0,0,1.974-.96h0Zm-0.444-4.82a4.284,4.284,0,0,1,.512,2.29,2.7,2.7,0,0,1-.543,1.77,1.742,1.742,0,0,1-1.431.67,1.685,1.685,0,0,1-1.462-.72,4.626,4.626,0,0,1-.038-4.16,1.717,1.717,0,0,1,1.5-.65A1.624,1.624,0,0,1,231.976,2047.39Zm5.54,4.63h-0.434a0.892,0.892,0,0,1-.519-0.14,0.459,0.459,0,0,1-.194-0.39v-4.79h1.147v-1h-1.147v-2.04h-1.221v2.04h-1v1h1v4.79a1.787,1.787,0,0,0,.329,1.22,1.519,1.519,0,0,0,1.13.35,7.169,7.169,0,0,0,.909-0.09h0v-0.95Zm5.863,0.95h1.309l2.708-7.27h-1.347l-2.014,5.96h0l-1.947-5.96h-1.427Zm8.624-.62a2.673,2.673,0,0,0,.312-0.33,1.631,1.631,0,0,0,.292.72,1.237,1.237,0,0,0,1,.38,2.473,2.473,0,0,0,.332-0.04,3.721,3.721,0,0,0,.373-0.11v-0.89a2.228,2.228,0,0,1-.227.04,1.468,1.468,0,0,1-.159.02,0.383,0.383,0,0,1-.414-0.41v-4a2.044,2.044,0,0,0-.692-1.67,3.1,3.1,0,0,0-2.015-.58,3.394,3.394,0,0,0-2.158.61,2.4,2.4,0,0,0-.841,1.79h1.126a1.535,1.535,0,0,1,.512-1.04,1.82,1.82,0,0,1,1.178-.35,2.014,2.014,0,0,1,1.228.33,1.07,1.07,0,0,1,.441.91v0.07a0.807,0.807,0,0,1-.129.46,0.619,0.619,0,0,1-.367.24,2.335,2.335,0,0,1-.386.07l-1.663.21a2.95,2.95,0,0,0-1.713.72,2.09,2.09,0,0,0-.587,1.56,1.975,1.975,0,0,0,.625,1.54,2.408,2.408,0,0,0,1.689.57h0a3.222,3.222,0,0,0,2.239-.82h0Zm0.271-1.82a1.5,1.5,0,0,1-.04.28,1.77,1.77,0,0,1-.6.82,2.551,2.551,0,0,1-1.629.53,1.154,1.154,0,0,1-1.275-1.27,0.92,0.92,0,0,1,.407-0.79,3.007,3.007,0,0,1,1.289-.41l1.12-.16a2.566,2.566,0,0,0,.753-0.23v0.79h0a4.189,4.189,0,0,1-.021.44h0Zm2.749,2.44h1.221v-3.89a2.88,2.88,0,0,1,.516-1.81,1.659,1.659,0,0,1,1.4-.67,1.522,1.522,0,0,1,1.2.42,2.125,2.125,0,0,1,.369,1.39v4.56h1.222v-4.98a2.526,2.526,0,0,0-4.492-1.57l-0.271.36v-1.08h-1.16v7.27h0Zm10.795,0h1.35v-4.31h3.2a2.042,2.042,0,0,1,1.4.4,1.84,1.84,0,0,1,.454,1.33l0.03,0.79c0.019,0.42.046,0.8,0.082,1.15a2.971,2.971,0,0,0,.108.64h1.66v-0.22a0.866,0.866,0,0,1-.393-0.34,1.617,1.617,0,0,1-.116-0.65l-0.054-1.82a1.94,1.94,0,0,0-.943-1.76l-0.224-.11a2.846,2.846,0,0,0,.468-0.32,2.571,2.571,0,0,0,.862-2.05,2.5,2.5,0,0,0-.828-2.03,3.687,3.687,0,0,0-2.415-.69h-4.641v9.99h0Zm1.35-8.85H270.4a2.151,2.151,0,0,1,1.448.4,1.6,1.6,0,0,1,.458,1.26,1.7,1.7,0,0,1-.434,1.3,1.915,1.915,0,0,1-1.371.42h-3.338v-3.38Zm7.851,8.85h1.221v-7.27h-1.221v7.27h0Zm-0.014-8.6h1.249v-1.39h-1.249v1.39Zm2.525,9.6a0.855,0.855,0,0,1-.187.64,1.125,1.125,0,0,1-.716.16H276.39v1.07a4.036,4.036,0,0,0,.515.04,1.9,1.9,0,0,0,1.412-.45,2.06,2.06,0,0,0,.434-1.46v-8.27H277.53v8.27Zm-0.014-9.6h1.248v-1.39h-1.248v1.39Zm2.524,8.6h1.222v-3.89a2.886,2.886,0,0,1,.515-1.81,1.663,1.663,0,0,1,1.4-.67,1.522,1.522,0,0,1,1.2.42,2.125,2.125,0,0,1,.369,1.39v4.56h1.222v-4.98a2.526,2.526,0,0,0-4.492-1.57l-0.271.36v-1.08H280.04v7.27h0Zm-102.953,27.81h1.35v-8.79h3.372v-1.2h-8.094v1.2h3.372v8.79h0Zm5.266,0h1.221v-3.89a2.808,2.808,0,0,1,.543-1.82,1.8,1.8,0,0,1,1.465-.67,1.438,1.438,0,0,1,1.126.4,1.977,1.977,0,0,1,.346,1.3v4.68h1.222v-4.98a2.27,2.27,0,0,0-2.5-2.51,2.506,2.506,0,0,0-1.988.93l-0.21.27v-3.7h-1.221v9.99h0Zm12.226-.43a3.075,3.075,0,0,0,1.086-1.83h-1.208a1.6,1.6,0,0,1-.637,1.01,1.986,1.986,0,0,1-1.221.39,1.9,1.9,0,0,1-1.627-.69,3.123,3.123,0,0,1-.5-1.66h5.3l0.015-.43a4.251,4.251,0,0,0-.876-2.79,2.827,2.827,0,0,0-2.3-1.06,3.145,3.145,0,0,0-2.507,1.08,4.344,4.344,0,0,0-.932,2.92,3.905,3.905,0,0,0,.882,2.71,3.1,3.1,0,0,0,2.422.98h0A3.326,3.326,0,0,0,194.579,2080.35Zm-4.1-3.76a2.773,2.773,0,0,1,.549-1.49,1.874,1.874,0,0,1,1.541-.72,1.738,1.738,0,0,1,1.452.63,2.732,2.732,0,0,1,.5,1.58h-4.044Zm8.819,4.19h1.392l1.048-2.9h3.982l1.017,2.9h1.449l-3.583-9.99h-1.54l-3.765,9.99h0Zm4.474-8.52h-0.005l1.539,4.43h-3.139l1.605-4.43h0Zm4.943,8.52h1.222v-3.89a2.911,2.911,0,0,1,.515-1.82,1.689,1.689,0,0,1,1.4-.67,1.521,1.521,0,0,1,1.2.43,2.07,2.07,0,0,1,.37,1.38v4.57h1.221v-4.98a2.269,2.269,0,0,0-2.5-2.51,2.506,2.506,0,0,0-1.988.93l-0.272.36v-1.07h-1.16v7.27h0Zm11.325-.63a2.605,2.605,0,0,0,.312-0.32,1.587,1.587,0,0,0,.291.71,1.237,1.237,0,0,0,1,.38,1.49,1.49,0,0,0,.333-0.04,2.209,2.209,0,0,0,.373-0.11v-0.88a2.228,2.228,0,0,1-.227.04,1.056,1.056,0,0,1-.16.01,0.382,0.382,0,0,1-.414-0.4v-4a2.075,2.075,0,0,0-.692-1.68,3.1,3.1,0,0,0-2.015-.57,3.391,3.391,0,0,0-2.157.6,2.4,2.4,0,0,0-.841,1.8h1.126a1.531,1.531,0,0,1,.512-1.04,1.761,1.761,0,0,1,1.177-.35,2.012,2.012,0,0,1,1.228.33,1.07,1.07,0,0,1,.441.91v0.06a0.764,0.764,0,0,1-.129.46,0.591,0.591,0,0,1-.366.25c-0.122.03-.251,0.05-0.387,0.07l-1.662.21a2.824,2.824,0,0,0-1.713.72,2.067,2.067,0,0,0-.587,1.55,2.015,2.015,0,0,0,.624,1.55,2.409,2.409,0,0,0,1.69.57h0a3.23,3.23,0,0,0,2.239-.83h0Zm0.271-1.82a1.36,1.36,0,0,1-.041.28,1.739,1.739,0,0,1-.6.83,2.542,2.542,0,0,1-1.628.52,1.282,1.282,0,0,1-.943-0.33,1.26,1.26,0,0,1-.333-0.94,0.9,0.9,0,0,1,.408-0.78,3.007,3.007,0,0,1,1.289-.41l1.119-.17a2.539,2.539,0,0,0,.753-0.22v0.79h0a4.287,4.287,0,0,1-.02.43h0Zm5.415,1.5h-0.435a0.825,0.825,0,0,1-.519-0.15,0.44,0.44,0,0,1-.193-0.38v-4.79h1.147v-1h-1.147v-2.04h-1.221v2.04h-1v1h1v4.79a1.752,1.752,0,0,0,.329,1.21,1.478,1.478,0,0,0,1.129.36,6.019,6.019,0,0,0,.91-0.1h0v-0.94Zm3.6,1.15a3.12,3.12,0,0,0,2.449-1.06,4.635,4.635,0,0,0,0-5.57,3.348,3.348,0,0,0-4.888,0,4.623,4.623,0,0,0,0,5.57,3.116,3.116,0,0,0,2.439,1.06h0Zm0-1.06a1.818,1.818,0,0,1-1.53-.75,3.941,3.941,0,0,1,0-4.07,1.923,1.923,0,0,1,3.063,0,3.918,3.918,0,0,1,0,4.07,1.826,1.826,0,0,1-1.533.75h0Zm4.214,0.86h1.221v-3.89a2.906,2.906,0,0,1,.519-1.79,1.609,1.609,0,0,1,1.333-.7,1.119,1.119,0,0,1,.9.36,1.541,1.541,0,0,1,.309,1.04v4.98h1.221v-4.09a2.721,2.721,0,0,1,.468-1.67,1.509,1.509,0,0,1,1.262-.62,1.2,1.2,0,0,1,.991.43,2.016,2.016,0,0,1,.339,1.26v4.69h1.221v-5.1a2.38,2.38,0,0,0-4.26-1.47l-0.2.25a1.879,1.879,0,0,0-.4-0.59,2.082,2.082,0,0,0-1.554-.58,2.481,2.481,0,0,0-1.961.97l-0.251.33v-1.08h-1.16v7.27h0Zm16.908-7.27H249.1l-1.966,6.01h0l-1.939-6.01h-1.394l2.694,7.39h0l-0.02.12a5.032,5.032,0,0,1-.631,1.27,0.878,0.878,0,0,1-.692.34,2.255,2.255,0,0,1-.7-0.11v1.13a1.832,1.832,0,0,0,.59.08,1.968,1.968,0,0,0,1.5-.52,7.022,7.022,0,0,0,1.137-2.19l2.761-7.51h0Zm10.368,7.27v-1.2h-5.055v-8.79h-1.35v9.99h6.405Zm5.666-.43a3.074,3.074,0,0,0,1.085-1.83h-1.207a1.6,1.6,0,0,1-.638,1.01,1.983,1.983,0,0,1-1.22.39,1.9,1.9,0,0,1-1.628-.69,3.141,3.141,0,0,1-.5-1.66h5.3l0.014-.43a4.256,4.256,0,0,0-.875-2.79,2.828,2.828,0,0,0-2.3-1.06,3.145,3.145,0,0,0-2.507,1.08,4.344,4.344,0,0,0-.933,2.92,3.905,3.905,0,0,0,.882,2.71,3.1,3.1,0,0,0,2.422.98h0A3.329,3.329,0,0,0,266.476,2080.35Zm-4.1-3.76a2.774,2.774,0,0,1,.55-1.49,1.872,1.872,0,0,1,1.54-.72,1.735,1.735,0,0,1,1.452.63,2.724,2.724,0,0,1,.5,1.58h-4.044Zm11.524-.98a2.218,2.218,0,0,0-.8-1.7,3.087,3.087,0,0,0-2.018-.62,3.018,3.018,0,0,0-1.977.6,2.008,2.008,0,0,0-.729,1.63,1.655,1.655,0,0,0,.435,1.22,2.949,2.949,0,0,0,1.459.69l1.262,0.3a3.637,3.637,0,0,1,1.12.39,0.671,0.671,0,0,1,.278.58,1.062,1.062,0,0,1-.424.91,2.076,2.076,0,0,1-1.246.31,2.331,2.331,0,0,1-1.4-.34,1.56,1.56,0,0,1-.546-1.13h-1.174a2.55,2.55,0,0,0,.835,1.92,3.628,3.628,0,0,0,2.286.61,3.185,3.185,0,0,0,2.1-.64,2.085,2.085,0,0,0,.777-1.71,1.707,1.707,0,0,0-.449-1.26,3.226,3.226,0,0,0-1.514-.71l-1.262-.3a3.6,3.6,0,0,1-1.106-.39,0.675,0.675,0,0,1-.278-0.59,0.868,0.868,0,0,1,.4-0.77,2.055,2.055,0,0,1,1.157-.27,1.847,1.847,0,0,1,1.177.34,1.25,1.25,0,0,1,.493.93H273.9Zm6.392,0a2.218,2.218,0,0,0-.8-1.7,3.087,3.087,0,0,0-2.018-.62,3.018,3.018,0,0,0-1.977.6,2.008,2.008,0,0,0-.729,1.63,1.655,1.655,0,0,0,.435,1.22,2.945,2.945,0,0,0,1.459.69l1.262,0.3a3.637,3.637,0,0,1,1.12.39,0.671,0.671,0,0,1,.278.58,1.06,1.06,0,0,1-.425.91,2.073,2.073,0,0,1-1.245.31,2.329,2.329,0,0,1-1.4-.34,1.561,1.561,0,0,1-.547-1.13H274.53a2.553,2.553,0,0,0,.834,1.92,3.631,3.631,0,0,0,2.287.61,3.185,3.185,0,0,0,2.1-.64,2.085,2.085,0,0,0,.777-1.71,1.7,1.7,0,0,0-.45-1.26,3.217,3.217,0,0,0-1.513-.71l-1.262-.3a3.6,3.6,0,0,1-1.106-.39,0.676,0.676,0,0,1-.279-0.59,0.87,0.87,0,0,1,.4-0.77,2.06,2.06,0,0,1,1.158-.27,1.849,1.849,0,0,1,1.177.34,1.246,1.246,0,0,1,.492.93h1.147Zm4.046,5.37a3.121,3.121,0,0,0,2.449-1.06,4.639,4.639,0,0,0,0-5.57,3.348,3.348,0,0,0-4.888,0,4.623,4.623,0,0,0,0,5.57,3.115,3.115,0,0,0,2.439,1.06h0Zm0-1.06a1.816,1.816,0,0,1-1.53-.75,3.935,3.935,0,0,1,0-4.07,1.923,1.923,0,0,1,3.063,0,3.918,3.918,0,0,1,0,4.07,1.826,1.826,0,0,1-1.533.75h0Zm4.214,0.86h1.221v-3.89a2.917,2.917,0,0,1,.515-1.82,1.689,1.689,0,0,1,1.4-.67,1.525,1.525,0,0,1,1.2.43,2.076,2.076,0,0,1,.369,1.38v4.57h1.222v-4.98a2.27,2.27,0,0,0-2.5-2.51,2.506,2.506,0,0,0-1.988.93l-0.271.36v-1.07h-1.16v7.27h0Zm13.434,0.2a3.123,3.123,0,0,0,2.45-1.06,4.639,4.639,0,0,0,0-5.57,3.349,3.349,0,0,0-4.889,0,4.623,4.623,0,0,0,0,5.57,3.116,3.116,0,0,0,2.439,1.06h0Zm0-1.06a1.818,1.818,0,0,1-1.53-.75,3.941,3.941,0,0,1,0-4.07,1.924,1.924,0,0,1,3.064,0,3.918,3.918,0,0,1,0,4.07,1.828,1.828,0,0,1-1.534.75h0Zm6.948-5.4v-1.01h-1.214v-0.89a0.957,0.957,0,0,1,.19-0.64,0.644,0.644,0,0,1,.543-0.23l0.481,0.02v-1.1l-0.536-.02a2.147,2.147,0,0,0-1.424.4,1.532,1.532,0,0,0-.475,1.22v1.24h-1v1.01h1v6.26h1.221v-6.26h1.214Zm4.1,6.26h3.99a3.869,3.869,0,0,0,3.1-1.35,5.443,5.443,0,0,0,1.15-3.64,5.559,5.559,0,0,0-1.123-3.65,3.729,3.729,0,0,0-3.023-1.35h-4.1v9.99h0Zm1.351-8.84h2.585a2.549,2.549,0,0,1,2.157,1.01,4.612,4.612,0,0,1,.76,2.84,4.459,4.459,0,0,1-.79,2.83,2.685,2.685,0,0,1-2.243,1h-2.469v-7.68Zm8.074,8.84h1.221v-3.89a2.443,2.443,0,0,1,.54-1.7,1.949,1.949,0,0,1,1.529-.6L326,2074.6v-1.25a1.068,1.068,0,0,0-.346-0.06,2.058,2.058,0,0,0-1.7.93,4.7,4.7,0,0,0-.333.53v-1.24h-1.16v7.27h0Zm4.207,0h1.452v-1.48h-1.452v1.48Zm7.763-8.15,5.136,8.15h1.479v-9.99h-1.3v8.12l-4.993-8.12h-1.622v9.99h1.3v-8.15Zm8.06,8.15h1.222v-7.27h-1.222v7.27h0Zm-0.013-8.6h1.248v-1.39h-1.248v1.39Zm7.057,5.98a2.323,2.323,0,0,1-.635,1.3,1.817,1.817,0,0,1-2.642-.24,3.621,3.621,0,0,1-.489-2.08,3.486,3.486,0,0,1,.526-2.05,1.673,1.673,0,0,1,1.448-.75,1.665,1.665,0,0,1,1.792,1.64H350.7a2.707,2.707,0,0,0-.834-1.97,2.961,2.961,0,0,0-2.09-.72,3.007,3.007,0,0,0-2.4,1.04,4.182,4.182,0,0,0-.893,2.81,4.274,4.274,0,0,0,.862,2.8,2.854,2.854,0,0,0,2.307,1.04,2.94,2.94,0,0,0,2.076-.72,3.374,3.374,0,0,0,.97-2.1h-1.173Zm4.8,2.82a3.121,3.121,0,0,0,2.449-1.06,4.635,4.635,0,0,0,0-5.57,3.348,3.348,0,0,0-4.888,0,4.623,4.623,0,0,0,0,5.57,3.116,3.116,0,0,0,2.439,1.06h0Zm0-1.06a1.817,1.817,0,0,1-1.53-.75,3.935,3.935,0,0,1,0-4.07,1.923,1.923,0,0,1,3.063,0,3.918,3.918,0,0,1,0,4.07,1.826,1.826,0,0,1-1.533.75h0Zm4.241,0.86h1.221v-9.99h-1.221v9.99h0Zm6.656-.63a2.467,2.467,0,0,0,.312-0.32,1.587,1.587,0,0,0,.292.71,1.237,1.237,0,0,0,1,.38,1.5,1.5,0,0,0,.333-0.04,2.209,2.209,0,0,0,.373-0.11v-0.88a2.294,2.294,0,0,1-.228.04,1.051,1.051,0,0,1-.159.01,0.387,0.387,0,0,1-.3-0.11,0.382,0.382,0,0,1-.112-0.29v-4a2.078,2.078,0,0,0-.692-1.68,3.1,3.1,0,0,0-2.015-.57,3.4,3.4,0,0,0-2.158.6,2.4,2.4,0,0,0-.841,1.8h1.126a1.531,1.531,0,0,1,.513-1.04,1.76,1.76,0,0,1,1.177-.35,2.014,2.014,0,0,1,1.228.33,1.07,1.07,0,0,1,.441.91v0.06a0.764,0.764,0,0,1-.129.46,0.591,0.591,0,0,1-.366.25c-0.123.03-.251,0.05-0.387,0.07l-1.662.21a2.83,2.83,0,0,0-1.714.72,2.066,2.066,0,0,0-.586,1.55,2.015,2.015,0,0,0,.624,1.55,2.408,2.408,0,0,0,1.689.57h0a3.23,3.23,0,0,0,2.239-.83h0Zm0.272-1.82a1.434,1.434,0,0,1-.041.28,1.746,1.746,0,0,1-.6.83,2.542,2.542,0,0,1-1.628.52,1.28,1.28,0,0,1-.943-0.33,1.26,1.26,0,0,1-.333-0.94,0.9,0.9,0,0,1,.407-0.78,3.012,3.012,0,0,1,1.289-.41l1.12-.17a2.539,2.539,0,0,0,.753-0.22v0.79h0a4.287,4.287,0,0,1-.02.43h0Zm7.8,2.02a3.075,3.075,0,0,0,1.086-1.83h-1.208a1.6,1.6,0,0,1-.637,1.01,1.984,1.984,0,0,1-1.221.39,1.9,1.9,0,0,1-1.627-.69,3.141,3.141,0,0,1-.5-1.66h5.3l0.015-.43a4.256,4.256,0,0,0-.875-2.79,2.828,2.828,0,0,0-2.3-1.06,3.144,3.144,0,0,0-2.507,1.08,4.344,4.344,0,0,0-.933,2.92,3.905,3.905,0,0,0,.882,2.71,3.1,3.1,0,0,0,2.422.98h0A3.324,3.324,0,0,0,373.3,2080.35Zm-4.1-3.76a2.773,2.773,0,0,1,.549-1.49,1.874,1.874,0,0,1,1.541-.72,1.735,1.735,0,0,1,1.452.63,2.732,2.732,0,0,1,.5,1.58H369.2Zm11.524-.98a2.221,2.221,0,0,0-.8-1.7,3.087,3.087,0,0,0-2.018-.62,3.018,3.018,0,0,0-1.977.6,2.008,2.008,0,0,0-.729,1.63,1.655,1.655,0,0,0,.435,1.22,2.945,2.945,0,0,0,1.459.69l1.262,0.3a3.637,3.637,0,0,1,1.12.39,0.671,0.671,0,0,1,.278.58,1.06,1.06,0,0,1-.425.91,2.073,2.073,0,0,1-1.245.31,2.329,2.329,0,0,1-1.4-.34,1.561,1.561,0,0,1-.547-1.13H374.96a2.553,2.553,0,0,0,.834,1.92,3.631,3.631,0,0,0,2.287.61,3.185,3.185,0,0,0,2.1-.64,2.085,2.085,0,0,0,.777-1.71,1.7,1.7,0,0,0-.45-1.26,3.217,3.217,0,0,0-1.513-.71l-1.262-.3a3.6,3.6,0,0,1-1.106-.39,0.676,0.676,0,0,1-.279-0.59,0.87,0.87,0,0,1,.4-0.77,2.06,2.06,0,0,1,1.158-.27,1.849,1.849,0,0,1,1.177.34,1.246,1.246,0,0,1,.492.93h1.147Zm7.059,5.17h1.35v-8.79H392.5v-1.2h-8.094v1.2h3.372v8.79h0Zm6.527-7.27h-1.221v4.99a2.187,2.187,0,0,0,2.469,2.48,2.446,2.446,0,0,0,1.954-.93,3.562,3.562,0,0,0,.272-0.38v1.11h1.16v-7.27h-1.221v3.88a3,3,0,0,1-.516,1.85,1.646,1.646,0,0,1-1.4.68,1.445,1.445,0,0,1-1.146-.4,2,2,0,0,1-.353-1.32v-4.69h0Zm5.937,7.27h1.221v-9.99h-1.221v9.99h0Zm2.409,2.87h1.222v-3.67l0.04,0.05a2.342,2.342,0,0,0,1.954.95,2.777,2.777,0,0,0,2.324-1.08,4.73,4.73,0,0,0,.838-2.97,3.992,3.992,0,0,0-.831-2.66,2.814,2.814,0,0,0-2.256-.98,2.4,2.4,0,0,0-2.069,1.16l-0.062.09v-1.03h-1.16v10.14Zm1.724-4.37a2.815,2.815,0,0,1-.5-1.79,4.516,4.516,0,0,1,.464-2.34,1.608,1.608,0,0,1,1.476-.75,1.683,1.683,0,0,1,1.465.66,3.463,3.463,0,0,1,.475,2.02,3.716,3.716,0,0,1-.5,2.11,1.658,1.658,0,0,1-1.452.73h0A1.7,1.7,0,0,1,404.375,2079.28Z"/>
  </g>
</svg>
