<svg id="Dada" xmlns="http://www.w3.org/2000/svg" width="3000" height="3000" viewBox="0 0 3000 3000">
  <defs>
    <style>
      .cls-1 {
        fill: #575861;
      }

      .cls-2 {
        fill: #e4e1da;
      }

      .cls-2, .cls-3 {
        fill-rule: evenodd;
      }

      .cls-3 {
        fill: #31323d;
      }
    </style>
  </defs>
  <g id="dada-placard-pearlearring">
    <rect id="Rectangle_2_copy" data-name="Rectangle 2 copy" class="cls-1" x="155" y="1980" width="291" height="187"/>
    <path id="Rectangle_2_copy_2" data-name="Rectangle 2 copy 2" class="cls-2" d="M159.98,1984.99H441.02v177.02H159.98V1984.99Z"/>
    <path id="dada.nyc" class="cls-3" d="M187.636,2123.36l0.415-.6v2.64h3.012v-26.56h-3.246v10.03l-0.253-.36a6.475,6.475,0,0,0-5.628-3.02,7.169,7.169,0,0,0-5.79,2.67,10.673,10.673,0,0,0-2.218,7.03,12.281,12.281,0,0,0,2.29,7.83,7.434,7.434,0,0,0,6.169,2.9h0a6.337,6.337,0,0,0,5.249-2.56h0Zm-1.181-12.8a11.359,11.359,0,0,1,1.362,6.09,7.251,7.251,0,0,1-1.443,4.71,4.651,4.651,0,0,1-3.806,1.78,4.465,4.465,0,0,1-3.888-1.93,9.5,9.5,0,0,1-1.361-5.51q0-3.795,1.262-5.54a4.594,4.594,0,0,1,3.987-1.74A4.34,4.34,0,0,1,186.455,2110.56Zm17.2,13.18a7.322,7.322,0,0,0,.83-0.87,4.282,4.282,0,0,0,.776,1.9,3.271,3.271,0,0,0,2.669,1.01,4.679,4.679,0,0,0,.884-0.11,6.139,6.139,0,0,0,.992-0.29v-2.35a5.2,5.2,0,0,1-.6.11c-0.187.02-.328,0.04-0.424,0.04a1.081,1.081,0,0,1-.8-0.3,1.069,1.069,0,0,1-.3-0.79v-10.62a5.442,5.442,0,0,0-1.84-4.45,8.189,8.189,0,0,0-5.357-1.53,8.978,8.978,0,0,0-5.736,1.6,6.38,6.38,0,0,0-2.237,4.78H195.5a4.117,4.117,0,0,1,1.362-2.78,4.783,4.783,0,0,1,3.13-.93,5.384,5.384,0,0,1,3.265.88,2.854,2.854,0,0,1,1.172,2.43v0.16a2.063,2.063,0,0,1-.343,1.23,1.629,1.629,0,0,1-.974.65,5.555,5.555,0,0,1-1.028.18l-4.419.56a7.622,7.622,0,0,0-4.555,1.92,5.526,5.526,0,0,0-1.56,4.13,5.3,5.3,0,0,0,1.66,4.11,6.4,6.4,0,0,0,4.491,1.51h0a8.618,8.618,0,0,0,5.952-2.18h0Zm0.722-4.85a3.767,3.767,0,0,1-.108.75,4.742,4.742,0,0,1-1.606,2.2,6.767,6.767,0,0,1-4.329,1.39,3.386,3.386,0,0,1-2.507-.88,3.348,3.348,0,0,1-.884-2.5,2.413,2.413,0,0,1,1.082-2.08,7.89,7.89,0,0,1,3.428-1.1l2.976-.43a6.957,6.957,0,0,0,2-.6v2.1h0a11.1,11.1,0,0,1-.054,1.15h0Zm18.437,4.47,0.415-.6v2.64h3.012v-26.56H223v10.03l-0.252-.36a6.475,6.475,0,0,0-5.628-3.02,7.169,7.169,0,0,0-5.79,2.67,10.673,10.673,0,0,0-2.218,7.03,12.281,12.281,0,0,0,2.29,7.83,7.434,7.434,0,0,0,6.169,2.9h0a6.337,6.337,0,0,0,5.249-2.56h0Zm-1.181-12.8a11.36,11.36,0,0,1,1.361,6.09,7.245,7.245,0,0,1-1.443,4.71,4.648,4.648,0,0,1-3.8,1.78,4.465,4.465,0,0,1-3.888-1.93,9.5,9.5,0,0,1-1.361-5.51q0-3.795,1.262-5.54a4.594,4.594,0,0,1,3.987-1.74A4.34,4.34,0,0,1,221.634,2110.56Zm17.2,13.18a7.322,7.322,0,0,0,.83-0.87,4.282,4.282,0,0,0,.776,1.9,3.271,3.271,0,0,0,2.669,1.01,4.679,4.679,0,0,0,.884-0.11,6.139,6.139,0,0,0,.992-0.29v-2.35a5.2,5.2,0,0,1-.6.11c-0.187.02-.328,0.04-0.424,0.04a1.081,1.081,0,0,1-.8-0.3,1.069,1.069,0,0,1-.3-0.79v-10.62a5.442,5.442,0,0,0-1.84-4.45,8.189,8.189,0,0,0-5.357-1.53,8.978,8.978,0,0,0-5.736,1.6,6.38,6.38,0,0,0-2.237,4.78h2.994a4.117,4.117,0,0,1,1.362-2.78,4.783,4.783,0,0,1,3.13-.93,5.384,5.384,0,0,1,3.265.88,2.854,2.854,0,0,1,1.172,2.43v0.16a2.063,2.063,0,0,1-.343,1.23,1.629,1.629,0,0,1-.974.65,5.555,5.555,0,0,1-1.028.18l-4.419.56a7.622,7.622,0,0,0-4.555,1.92,5.526,5.526,0,0,0-1.56,4.13,5.3,5.3,0,0,0,1.66,4.11,6.4,6.4,0,0,0,4.491,1.51h0a8.618,8.618,0,0,0,5.952-2.18h0Zm0.722-4.85a3.767,3.767,0,0,1-.108.75,4.742,4.742,0,0,1-1.606,2.2,6.767,6.767,0,0,1-4.329,1.39,3.386,3.386,0,0,1-2.507-.88,3.348,3.348,0,0,1-.884-2.5,2.413,2.413,0,0,1,1.082-2.08,7.89,7.89,0,0,1,3.428-1.1l2.976-.43a6.957,6.957,0,0,0,2-.6v2.1h0a11.1,11.1,0,0,1-.054,1.15h0Zm6.641,6.51h3.86v-3.92H246.2v3.92Zm6.5,0h3.247v-10.35a7.706,7.706,0,0,1,1.371-4.82,4.457,4.457,0,0,1,3.715-1.78,4.028,4.028,0,0,1,3.184,1.13,5.56,5.56,0,0,1,.983,3.68v12.14h3.247v-13.24a6.731,6.731,0,0,0-11.941-4.2l-0.722.96v-2.85h-3.084v19.33h0Zm33.246-19.33h-3.556l-5.227,15.99h0l-5.153-15.99H268.3l7.162,19.65v0.01l-0.054.3a13.153,13.153,0,0,1-1.677,3.38,2.29,2.29,0,0,1-1.84.9,5.712,5.712,0,0,1-1.858-.28v3.01a4.862,4.862,0,0,0,1.569.2,5.308,5.308,0,0,0,3.977-1.37c0.884-.92,1.891-2.86,3.021-5.84l7.341-19.96h0Zm11.962,12.37a6.179,6.179,0,0,1-1.687,3.46,4.838,4.838,0,0,1-7.025-.64,9.712,9.712,0,0,1-1.3-5.55,9.285,9.285,0,0,1,1.4-5.44,4.46,4.46,0,0,1,3.851-1.98,4.723,4.723,0,0,1,3.319,1.14,4.791,4.791,0,0,1,1.443,3.21h3.12a7.218,7.218,0,0,0-2.218-5.24,7.851,7.851,0,0,0-5.556-1.91,7.956,7.956,0,0,0-6.376,2.77,11.089,11.089,0,0,0-2.372,7.45,11.312,11.312,0,0,0,2.291,7.45,7.561,7.561,0,0,0,6.132,2.76,7.844,7.844,0,0,0,5.52-1.91,8.965,8.965,0,0,0,2.579-5.57H297.9Z"/>
    <path id="Boris_Toledo_Doorm_Johannes_Vermeer_Girl_with_a_Pearl_Earring" data-name="Boris Toledo Doorm Johannes Vermeer Girl with a Pearl Earring" class="cls-3" d="M174.55,2025.17h4.077a4.019,4.019,0,0,0,2.65-.79,2.659,2.659,0,0,0,.953-2.17,2.3,2.3,0,0,0-.977-1.98,3.093,3.093,0,0,0-.862-0.44,2.537,2.537,0,0,0,.455-0.28,2.318,2.318,0,0,0,.923-1.95,2.162,2.162,0,0,0-.781-1.73,3.123,3.123,0,0,0-2.055-.65H174.55v9.99h0Zm1.35-8.84h2.585a2.5,2.5,0,0,1,1.472.35,1.292,1.292,0,0,1,.468,1.1,1.477,1.477,0,0,1-.509,1.25,2.58,2.58,0,0,1-1.608.4H175.9v-3.1h0Zm0,4.2h2.653a3.157,3.157,0,0,1,1.77.39,1.39,1.39,0,0,1,.564,1.23,1.719,1.719,0,0,1-.54,1.41,2.628,2.628,0,0,1-1.7.45H175.9v-3.48h0Zm10.191,4.84a3.1,3.1,0,0,0,2.449-1.07,4.62,4.62,0,0,0,0-5.56,3.348,3.348,0,0,0-4.888,0,4.608,4.608,0,0,0,0,5.56,3.092,3.092,0,0,0,2.439,1.07h0Zm0-1.06a1.818,1.818,0,0,1-1.53-.75,3.941,3.941,0,0,1,0-4.07,1.923,1.923,0,0,1,3.063,0,3.918,3.918,0,0,1,0,4.07,1.826,1.826,0,0,1-1.533.75h0Zm4.383,0.86H191.7v-3.9a2.433,2.433,0,0,1,.539-1.69,1.952,1.952,0,0,1,1.53-.6l0.251,0.01v-1.25a1.073,1.073,0,0,0-.346-0.06,2.06,2.06,0,0,0-1.7.93,4.694,4.694,0,0,0-.332.53v-1.24h-1.161v7.27h0Zm3.943,0h1.221v-7.27h-1.221v7.27h0Zm-0.014-8.61h1.249v-1.38H194.4v1.38Zm7.808,3.44a2.215,2.215,0,0,0-.8-1.7,3.084,3.084,0,0,0-2.017-.62,3.021,3.021,0,0,0-1.978.6,2,2,0,0,0-.729,1.63,1.651,1.651,0,0,0,.436,1.22,3.029,3.029,0,0,0,1.458.69l1.263,0.3a3.628,3.628,0,0,1,1.119.39,0.659,0.659,0,0,1,.278.58,1.059,1.059,0,0,1-.424.91,2.074,2.074,0,0,1-1.246.31,2.331,2.331,0,0,1-1.4-.34,1.583,1.583,0,0,1-.546-1.13h-1.174a2.557,2.557,0,0,0,.835,1.92,3.629,3.629,0,0,0,2.287.61,3.241,3.241,0,0,0,2.1-.64,2.084,2.084,0,0,0,.776-1.71,1.7,1.7,0,0,0-.449-1.26,3.221,3.221,0,0,0-1.514-.71l-1.262-.3a3.608,3.608,0,0,1-1.106-.39,0.677,0.677,0,0,1-.278-0.59,0.856,0.856,0,0,1,.4-0.77,2.057,2.057,0,0,1,1.157-.27,1.852,1.852,0,0,1,1.178.34,1.246,1.246,0,0,1,.492.93h1.146Zm7.059,5.17h1.35v-8.8h3.372v-1.19H205.9v1.19h3.372v8.8h0Zm8.224,0.2a3.1,3.1,0,0,0,2.449-1.07,4.62,4.62,0,0,0,0-5.56,3.348,3.348,0,0,0-4.888,0,4.608,4.608,0,0,0,0,5.56,3.092,3.092,0,0,0,2.439,1.07h0Zm0-1.06a1.816,1.816,0,0,1-1.53-.75,3.935,3.935,0,0,1,0-4.07,1.923,1.923,0,0,1,3.063,0,3.918,3.918,0,0,1,0,4.07,1.826,1.826,0,0,1-1.533.75h0Zm4.241,0.86h1.221v-9.99h-1.221v9.99h0Zm7.558-.43a3.075,3.075,0,0,0,1.086-1.83h-1.208a1.621,1.621,0,0,1-.637,1.01,1.984,1.984,0,0,1-1.221.39,1.9,1.9,0,0,1-1.627-.69,3.141,3.141,0,0,1-.5-1.66h5.3l0.015-.43a4.238,4.238,0,0,0-.875-2.79,2.828,2.828,0,0,0-2.3-1.06,3.144,3.144,0,0,0-2.507,1.08,4.344,4.344,0,0,0-.933,2.92,3.922,3.922,0,0,0,.882,2.71,3.1,3.1,0,0,0,2.422.98h0A3.324,3.324,0,0,0,229.293,2024.74Zm-4.1-3.76a2.766,2.766,0,0,1,.55-1.49,1.871,1.871,0,0,1,1.54-.72,1.735,1.735,0,0,1,1.452.63,2.7,2.7,0,0,1,.5,1.58h-4.044Zm10.962,3.42,0.156-.22v0.99h1.133v-9.99h-1.221v3.77l-0.095-.14a2.452,2.452,0,0,0-2.117-1.13,2.693,2.693,0,0,0-2.178,1,4.046,4.046,0,0,0-.834,2.65,4.584,4.584,0,0,0,.862,2.94,2.8,2.8,0,0,0,2.32,1.1h0a2.4,2.4,0,0,0,1.974-.97h0Zm-0.444-4.81a4.26,4.26,0,0,1,.512,2.29,2.738,2.738,0,0,1-.543,1.77,1.742,1.742,0,0,1-1.431.67,1.671,1.671,0,0,1-1.462-.73,3.539,3.539,0,0,1-.513-2.07,3.579,3.579,0,0,1,.475-2.08,1.723,1.723,0,0,1,1.5-.66A1.633,1.633,0,0,1,235.709,2019.59Zm5.832,5.78a3.1,3.1,0,0,0,2.449-1.07,4.62,4.62,0,0,0,0-5.56,3.348,3.348,0,0,0-4.888,0,4.608,4.608,0,0,0,0,5.56,3.092,3.092,0,0,0,2.439,1.07h0Zm0-1.06a1.818,1.818,0,0,1-1.53-.75,3.935,3.935,0,0,1,0-4.07,1.923,1.923,0,0,1,3.063,0,3.918,3.918,0,0,1,0,4.07,1.826,1.826,0,0,1-1.533.75h0Zm7.742,0.86h3.99a3.869,3.869,0,0,0,3.1-1.35,5.461,5.461,0,0,0,1.15-3.64,5.559,5.559,0,0,0-1.123-3.65,3.729,3.729,0,0,0-3.023-1.35h-4.1v9.99h0Zm1.35-8.84h2.585a2.55,2.55,0,0,1,2.158,1.01,4.6,4.6,0,0,1,.76,2.84,4.453,4.453,0,0,1-.791,2.83,2.683,2.683,0,0,1-2.242,1h-2.47v-7.68Zm10.863,9.04a3.1,3.1,0,0,0,2.45-1.07,4.624,4.624,0,0,0,0-5.56,3.349,3.349,0,0,0-4.889,0,4.608,4.608,0,0,0,0,5.56,3.092,3.092,0,0,0,2.439,1.07h0Zm0-1.06a1.818,1.818,0,0,1-1.53-.75,3.941,3.941,0,0,1,0-4.07,1.924,1.924,0,0,1,3.064,0,3.918,3.918,0,0,1,0,4.07,1.827,1.827,0,0,1-1.534.75h0Zm7.172,1.06a3.1,3.1,0,0,0,2.45-1.07,4.624,4.624,0,0,0,0-5.56,3.349,3.349,0,0,0-4.889,0,4.608,4.608,0,0,0,0,5.56,3.092,3.092,0,0,0,2.439,1.07h0Zm0-1.06a1.818,1.818,0,0,1-1.53-.75,3.941,3.941,0,0,1,0-4.07,1.924,1.924,0,0,1,3.064,0,3.918,3.918,0,0,1,0,4.07,1.828,1.828,0,0,1-1.534.75h0Zm4.384,0.86h1.221v-3.9a2.438,2.438,0,0,1,.539-1.69,1.952,1.952,0,0,1,1.53-.6l0.251,0.01v-1.25a1.068,1.068,0,0,0-.346-0.06,2.061,2.061,0,0,0-1.7.93,4.842,4.842,0,0,0-.332.53v-1.24h-1.16v7.27h0Zm3.9,0h1.222v-3.9a2.875,2.875,0,0,1,.519-1.78,1.583,1.583,0,0,1,1.333-.7,1.12,1.12,0,0,1,.9.36,1.541,1.541,0,0,1,.309,1.04v4.98h1.221v-4.09a2.7,2.7,0,0,1,.468-1.67,1.508,1.508,0,0,1,1.262-.62,1.207,1.207,0,0,1,.991.43,2.016,2.016,0,0,1,.339,1.26v4.69h1.221v-5.11a2.381,2.381,0,0,0-4.261-1.46l-0.2.25a1.862,1.862,0,0,0-.4-0.59,2.079,2.079,0,0,0-1.554-.58,2.481,2.481,0,0,0-1.96.97l-0.251.33v-1.08h-1.161v7.27h0Zm-98.835,25a2.166,2.166,0,0,1-.427,1.41,1.442,1.442,0,0,1-1.16.52,1.467,1.467,0,0,1-1.12-.43,1.771,1.771,0,0,1-.393-1.23v-0.69h-1.262v0.69a2.585,2.585,0,0,0,.7,2.06,2.938,2.938,0,0,0,2.157.75,2.725,2.725,0,0,0,2.114-.81,3.208,3.208,0,0,0,.743-2.27v-7.19h-1.351v7.19Zm5.653,3a3.089,3.089,0,0,0,2.449-1.06,4.639,4.639,0,0,0,0-5.57,3.348,3.348,0,0,0-4.888,0,4.623,4.623,0,0,0,0,5.57,3.081,3.081,0,0,0,2.439,1.06h0Zm0-1.05a1.8,1.8,0,0,1-1.53-.76,3.917,3.917,0,0,1,0-4.06,1.923,1.923,0,0,1,3.063,0,3.9,3.9,0,0,1,0,4.06,1.81,1.81,0,0,1-1.533.76h0Zm4.213,0.85h1.222v-3.89a2.785,2.785,0,0,1,.542-1.81,1.779,1.779,0,0,1,1.466-.67,1.4,1.4,0,0,1,1.126.4,1.959,1.959,0,0,1,.346,1.3v4.67h1.221v-4.98a2.525,2.525,0,0,0-4.491-1.57l-0.21.27v-3.71h-1.222v9.99h0Zm11.325-.62a2.673,2.673,0,0,0,.312-0.33,1.631,1.631,0,0,0,.291.72,1.238,1.238,0,0,0,1,.38,2.473,2.473,0,0,0,.332-0.04,3.721,3.721,0,0,0,.373-0.11v-0.89a2.228,2.228,0,0,1-.227.04,1.468,1.468,0,0,1-.159.02,0.383,0.383,0,0,1-.414-0.41v-4a2.044,2.044,0,0,0-.692-1.67,3.1,3.1,0,0,0-2.015-.58,3.392,3.392,0,0,0-2.158.61,2.4,2.4,0,0,0-.841,1.79h1.126a1.531,1.531,0,0,1,.512-1.04,1.817,1.817,0,0,1,1.177-.35,2.012,2.012,0,0,1,1.228.33,1.07,1.07,0,0,1,.441.91v0.07a0.807,0.807,0,0,1-.129.46,0.617,0.617,0,0,1-.366.24,2.329,2.329,0,0,1-.387.07l-1.662.21a2.947,2.947,0,0,0-1.713.72,2.09,2.09,0,0,0-.587,1.56,1.978,1.978,0,0,0,.624,1.54,2.411,2.411,0,0,0,1.69.57h0a3.222,3.222,0,0,0,2.239-.82h0Zm0.271-1.82a1.484,1.484,0,0,1-.041.28,1.763,1.763,0,0,1-.6.82,2.548,2.548,0,0,1-1.628.53,1.154,1.154,0,0,1-1.275-1.27,0.918,0.918,0,0,1,.407-0.79,3.007,3.007,0,0,1,1.289-.41l1.119-.16a2.547,2.547,0,0,0,.753-0.23v0.79h0a4.206,4.206,0,0,1-.02.44h0Zm2.748,2.44h1.222v-3.89a2.88,2.88,0,0,1,.515-1.81,1.663,1.663,0,0,1,1.4-.67,1.518,1.518,0,0,1,1.2.42,2.119,2.119,0,0,1,.37,1.39v4.56h1.221v-4.98a2.525,2.525,0,0,0-4.491-1.57l-0.271.36v-1.08h-1.161v7.27h0Zm7.172,0h1.222v-3.89a2.88,2.88,0,0,1,.515-1.81,1.663,1.663,0,0,1,1.4-.67,1.518,1.518,0,0,1,1.2.42,2.119,2.119,0,0,1,.37,1.39v4.56h1.221v-4.98a2.525,2.525,0,0,0-4.491-1.57l-0.271.36v-1.08H209.5v7.27h0Zm12.227-.43a3.078,3.078,0,0,0,1.085-1.82h-1.207a1.575,1.575,0,0,1-.638,1,1.93,1.93,0,0,1-1.22.4,1.879,1.879,0,0,1-1.628-.7,3.132,3.132,0,0,1-.5-1.65h5.3l0.014-.44a4.251,4.251,0,0,0-.875-2.79,2.856,2.856,0,0,0-2.3-1.06,3.153,3.153,0,0,0-2.507,1.09,4.309,4.309,0,0,0-.933,2.92,3.878,3.878,0,0,0,.882,2.7,3.105,3.105,0,0,0,2.422.98h0A3.329,3.329,0,0,0,221.727,2052.54Zm-4.1-3.76a2.779,2.779,0,0,1,.55-1.48,1.872,1.872,0,0,1,1.54-.72,1.757,1.757,0,0,1,1.452.62,2.757,2.757,0,0,1,.5,1.58h-4.045Zm11.524-.97a2.236,2.236,0,0,0-.8-1.71,3.085,3.085,0,0,0-2.018-.62,3.021,3.021,0,0,0-1.977.61,1.989,1.989,0,0,0-.729,1.62,1.663,1.663,0,0,0,.435,1.23,3.038,3.038,0,0,0,1.459.68l1.262,0.3a3.579,3.579,0,0,1,1.12.4,0.653,0.653,0,0,1,.278.57,1.047,1.047,0,0,1-.424.91,2.071,2.071,0,0,1-1.246.32,2.327,2.327,0,0,1-1.4-.35,1.54,1.54,0,0,1-.546-1.12h-1.174a2.513,2.513,0,0,0,.835,1.91,3.566,3.566,0,0,0,2.286.61,3.238,3.238,0,0,0,2.1-.63,2.085,2.085,0,0,0,.777-1.71,1.707,1.707,0,0,0-.449-1.26,3.221,3.221,0,0,0-1.514-.71l-1.262-.3a3.822,3.822,0,0,1-1.106-.4,0.657,0.657,0,0,1-.278-0.58,0.885,0.885,0,0,1,.4-0.78,2.15,2.15,0,0,1,1.157-.26,1.913,1.913,0,0,1,1.178.33,1.273,1.273,0,0,1,.492.94h1.146Zm7.4,5.16H238l3.63-9.99h-1.495l-2.85,8.54h-0.007l-2.858-8.54h-1.5Zm10.761-.43a3.079,3.079,0,0,0,1.086-1.82h-1.208a1.573,1.573,0,0,1-.637,1,1.931,1.931,0,0,1-1.221.4,1.877,1.877,0,0,1-1.627-.7,3.123,3.123,0,0,1-.495-1.65h5.3l0.015-.44a4.256,4.256,0,0,0-.875-2.79,2.859,2.859,0,0,0-2.3-1.06,3.15,3.15,0,0,0-2.507,1.09,4.309,4.309,0,0,0-.933,2.92,3.878,3.878,0,0,0,.882,2.7,3.1,3.1,0,0,0,2.422.98h0A3.324,3.324,0,0,0,247.307,2052.54Zm-4.1-3.76a2.77,2.77,0,0,1,.549-1.48,1.874,1.874,0,0,1,1.541-.72,1.757,1.757,0,0,1,1.452.62,2.757,2.757,0,0,1,.5,1.58h-4.044Zm6.389,4.19h1.222v-3.89a2.46,2.46,0,0,1,.539-1.7,1.98,1.98,0,0,1,1.53-.59l0.251,0.01v-1.25a0.873,0.873,0,0,0-.346-0.07,2.046,2.046,0,0,0-1.7.94,3.4,3.4,0,0,0-.332.53v-1.25h-1.161v7.27h0Zm3.9,0h1.221v-3.89a2.906,2.906,0,0,1,.519-1.79,1.6,1.6,0,0,1,1.334-.69,1.12,1.12,0,0,1,.9.36,1.518,1.518,0,0,1,.308,1.03v4.98H259v-4.08a2.7,2.7,0,0,1,.469-1.67,1.507,1.507,0,0,1,1.262-.62,1.176,1.176,0,0,1,.99.43,1.965,1.965,0,0,1,.339,1.25v4.69h1.222v-5.1a2.175,2.175,0,0,0-2.382-2.39,2.406,2.406,0,0,0-1.879.92l-0.2.25a1.862,1.862,0,0,0-.4-0.59,2.121,2.121,0,0,0-1.554-.58,2.493,2.493,0,0,0-1.961.98l-0.251.32v-1.08H253.5v7.27h0Zm16.074-.43a3.083,3.083,0,0,0,1.085-1.82h-1.208a1.569,1.569,0,0,1-.637,1,1.931,1.931,0,0,1-1.221.4,1.877,1.877,0,0,1-1.627-.7,3.132,3.132,0,0,1-.5-1.65h5.3l0.014-.44a4.256,4.256,0,0,0-.875-2.79,2.857,2.857,0,0,0-2.3-1.06,3.151,3.151,0,0,0-2.507,1.09,4.309,4.309,0,0,0-.933,2.92,3.878,3.878,0,0,0,.882,2.7,3.1,3.1,0,0,0,2.422.98h0A3.329,3.329,0,0,0,269.57,2052.54Zm-4.1-3.76a2.763,2.763,0,0,1,.55-1.48,1.872,1.872,0,0,1,1.54-.72,1.757,1.757,0,0,1,1.452.62,2.75,2.75,0,0,1,.5,1.58h-4.044Zm11.275,3.76a3.083,3.083,0,0,0,1.085-1.82h-1.208a1.569,1.569,0,0,1-.637,1,1.931,1.931,0,0,1-1.221.4,1.877,1.877,0,0,1-1.627-.7,3.132,3.132,0,0,1-.5-1.65h5.3l0.014-.44a4.256,4.256,0,0,0-.875-2.79,2.857,2.857,0,0,0-2.3-1.06,3.151,3.151,0,0,0-2.507,1.09,4.309,4.309,0,0,0-.933,2.92,3.878,3.878,0,0,0,.882,2.7,3.1,3.1,0,0,0,2.422.98h0A3.329,3.329,0,0,0,276.742,2052.54Zm-4.1-3.76a2.763,2.763,0,0,1,.55-1.48,1.871,1.871,0,0,1,1.54-.72,1.757,1.757,0,0,1,1.452.62,2.75,2.75,0,0,1,.5,1.58h-4.044Zm6.39,4.19h1.221v-3.89a2.465,2.465,0,0,1,.539-1.7,1.981,1.981,0,0,1,1.53-.59l0.251,0.01v-1.25a0.873,0.873,0,0,0-.346-0.07,2.046,2.046,0,0,0-1.7.94,3.4,3.4,0,0,0-.332.53v-1.25h-1.16v7.27h0Zm-96.977,26.63,0.075-.09,0.325,1.26h0.841v-5.28h-4.366v1.14h3.127v0.12a3.941,3.941,0,0,1-.112.9,2.449,2.449,0,0,1-.275.74,2.769,2.769,0,0,1-.271.38,3.108,3.108,0,0,1-2.49,1.13,3,3,0,0,1-2.46-1.07,5.5,5.5,0,0,1,.03-5.99,2.888,2.888,0,0,1,2.362-1.13,3.435,3.435,0,0,1,2.008.54,2.313,2.313,0,0,1,.963,1.54h1.3a3.542,3.542,0,0,0-1.381-2.36,4.442,4.442,0,0,0-2.812-.91,4.387,4.387,0,0,0-3.426,1.45,5.488,5.488,0,0,0-1.31,3.82,5.555,5.555,0,0,0,1.282,3.81,4.258,4.258,0,0,0,3.358,1.45h0a4.016,4.016,0,0,0,3.229-1.45h0Zm2.662,1.18h1.221v-7.27h-1.221v7.27h0Zm-0.014-8.6h1.249v-1.39H184.7v1.39Zm2.674,8.6H188.6v-3.89a2.448,2.448,0,0,1,.539-1.7,1.952,1.952,0,0,1,1.53-.6l0.251,0.01v-1.25a1.068,1.068,0,0,0-.346-0.06,2.061,2.061,0,0,0-1.7.93,4.842,4.842,0,0,0-.332.53v-1.24h-1.16v7.27h0Zm3.929,0h1.221v-9.99H191.3v9.99h0Zm7.824,0h0.651l1.418-5.68h0l1.5,5.68h1.31l2.055-7.27h-1.212l-1.472,5.83h0l-1.459-5.83h-1.357l-1.417,5.79h0l-1.4-5.79h-1.34l2.062,7.27h0.659Zm7.5,0h1.221v-7.27h-1.221v7.27h0Zm-0.014-8.6h1.249v-1.39h-1.249v1.39Zm5.171,7.65h-0.434a0.825,0.825,0,0,1-.519-0.15,0.441,0.441,0,0,1-.194-0.38v-4.79h1.147v-1h-1.147v-2.04H209.42v2.04h-1v1h1v4.79a1.758,1.758,0,0,0,.329,1.21,1.479,1.479,0,0,0,1.13.36,6,6,0,0,0,.909-0.1h0v-0.94Zm0.638,0.95h1.221v-3.89a2.808,2.808,0,0,1,.543-1.82,1.808,1.808,0,0,1,1.466-.67,1.44,1.44,0,0,1,1.126.4,1.977,1.977,0,0,1,.346,1.3v4.68h1.221v-4.98a2.269,2.269,0,0,0-2.5-2.51,2.506,2.506,0,0,0-1.988.93l-0.211.27v-3.7h-1.221v9.99h0Zm14.629-.63a2.467,2.467,0,0,0,.312-0.32,1.587,1.587,0,0,0,.292.71,1.237,1.237,0,0,0,1,.38,1.488,1.488,0,0,0,.332-0.04,2.193,2.193,0,0,0,.374-0.11v-0.88a2.294,2.294,0,0,1-.228.04,1.051,1.051,0,0,1-.159.01,0.387,0.387,0,0,1-.3-0.11,0.382,0.382,0,0,1-.112-0.29v-4a2.078,2.078,0,0,0-.692-1.68,3.1,3.1,0,0,0-2.015-.57,3.394,3.394,0,0,0-2.158.6,2.4,2.4,0,0,0-.841,1.8h1.126a1.531,1.531,0,0,1,.513-1.04,1.76,1.76,0,0,1,1.177-.35,2.014,2.014,0,0,1,1.228.33,1.07,1.07,0,0,1,.441.91v0.06a0.764,0.764,0,0,1-.129.46,0.591,0.591,0,0,1-.366.25c-0.123.03-.252,0.05-0.387,0.07l-1.662.21a2.83,2.83,0,0,0-1.714.72,2.066,2.066,0,0,0-.586,1.55,2.015,2.015,0,0,0,.624,1.55,2.408,2.408,0,0,0,1.689.57h0a3.23,3.23,0,0,0,2.239-.83h0Zm0.271-1.82a1.375,1.375,0,0,1-.04.28,1.746,1.746,0,0,1-.6.83,2.542,2.542,0,0,1-1.628.52,1.283,1.283,0,0,1-.944-0.33,1.263,1.263,0,0,1-.332-0.94,0.9,0.9,0,0,1,.407-0.78,3.012,3.012,0,0,1,1.289-.41l1.12-.17a2.539,2.539,0,0,0,.753-0.22v0.79h0a3.992,3.992,0,0,1-.021.43h0Zm6.345,2.45h1.35v-4.2c0.738-.01,1.742-0.02,3.013-0.01a3.083,3.083,0,0,0,2.269-.81,2.954,2.954,0,0,0,.818-2.22,2.574,2.574,0,0,0-.818-2.02,3.27,3.27,0,0,0-2.269-.73h-4.363v9.99h0Zm1.35-8.84h2.68a2.4,2.4,0,0,1,1.54.4,1.479,1.479,0,0,1,.489,1.23,1.821,1.821,0,0,1-.489,1.4,2.273,2.273,0,0,1-1.54.44h-2.68v-3.47Zm12.125,8.41a3.075,3.075,0,0,0,1.086-1.83h-1.208a1.6,1.6,0,0,1-.637,1.01,1.986,1.986,0,0,1-1.221.39,1.9,1.9,0,0,1-1.627-.69,3.123,3.123,0,0,1-.495-1.66h5.3l0.015-.43a4.251,4.251,0,0,0-.876-2.79,2.827,2.827,0,0,0-2.3-1.06,3.145,3.145,0,0,0-2.507,1.08,4.344,4.344,0,0,0-.932,2.92,3.9,3.9,0,0,0,.882,2.71,3.1,3.1,0,0,0,2.422.98h0A3.326,3.326,0,0,0,247.146,2080.35Zm-4.1-3.76a2.773,2.773,0,0,1,.549-1.49,1.874,1.874,0,0,1,1.541-.72,1.738,1.738,0,0,1,1.452.63,2.732,2.732,0,0,1,.5,1.58h-4.044Zm10.372,3.56a2.605,2.605,0,0,0,.312-0.32,1.587,1.587,0,0,0,.292.71,1.236,1.236,0,0,0,1,.38,1.488,1.488,0,0,0,.332-0.04,2.182,2.182,0,0,0,.373-0.11v-0.88a2.228,2.228,0,0,1-.227.04,1.051,1.051,0,0,1-.159.01,0.382,0.382,0,0,1-.414-0.4v-4a2.078,2.078,0,0,0-.692-1.68,3.1,3.1,0,0,0-2.015-.57,3.392,3.392,0,0,0-2.158.6,2.4,2.4,0,0,0-.841,1.8h1.126a1.535,1.535,0,0,1,.512-1.04,1.761,1.761,0,0,1,1.177-.35,2.012,2.012,0,0,1,1.228.33,1.07,1.07,0,0,1,.441.91v0.06a0.77,0.77,0,0,1-.128.46,0.593,0.593,0,0,1-.367.25c-0.122.03-.251,0.05-0.387,0.07l-1.662.21a2.824,2.824,0,0,0-1.713.72,2.067,2.067,0,0,0-.587,1.55,2.015,2.015,0,0,0,.624,1.55,2.413,2.413,0,0,0,1.69.57h0a3.23,3.23,0,0,0,2.239-.83h0Zm0.271-1.82a1.36,1.36,0,0,1-.041.28,1.737,1.737,0,0,1-.6.83,2.547,2.547,0,0,1-1.629.52,1.282,1.282,0,0,1-.943-0.33,1.263,1.263,0,0,1-.332-0.94,0.9,0.9,0,0,1,.407-0.78,3.007,3.007,0,0,1,1.289-.41l1.119-.17a2.539,2.539,0,0,0,.753-0.22v0.79h0a4.009,4.009,0,0,1-.02.43h0Zm2.918,2.45h1.221v-3.89a2.443,2.443,0,0,1,.54-1.7,1.949,1.949,0,0,1,1.53-.6l0.251,0.01v-1.25a1.073,1.073,0,0,0-.346-0.06,2.06,2.06,0,0,0-1.7.93,4.7,4.7,0,0,0-.333.53v-1.24h-1.16v7.27h0Zm3.929,0h1.221v-9.99h-1.221v9.99h0Zm13.469,0v-1.2h-6.018v-3.35h5.427v-1.19h-5.427v-3.05h5.943v-1.2h-7.294v9.99H274Zm5.2-.63a2.467,2.467,0,0,0,.312-0.32,1.587,1.587,0,0,0,.292.71,1.237,1.237,0,0,0,1,.38,1.488,1.488,0,0,0,.332-0.04,2.193,2.193,0,0,0,.374-0.11v-0.88a2.294,2.294,0,0,1-.228.04,1.051,1.051,0,0,1-.159.01,0.387,0.387,0,0,1-.3-0.11,0.382,0.382,0,0,1-.112-0.29v-4a2.078,2.078,0,0,0-.692-1.68,3.1,3.1,0,0,0-2.015-.57,3.394,3.394,0,0,0-2.158.6,2.4,2.4,0,0,0-.841,1.8h1.126a1.531,1.531,0,0,1,.513-1.04,1.76,1.76,0,0,1,1.177-.35,2.014,2.014,0,0,1,1.228.33,1.07,1.07,0,0,1,.441.91v0.06a0.764,0.764,0,0,1-.129.46,0.591,0.591,0,0,1-.366.25c-0.123.03-.252,0.05-0.387,0.07l-1.662.21a2.83,2.83,0,0,0-1.714.72,2.066,2.066,0,0,0-.586,1.55,2.015,2.015,0,0,0,.624,1.55,2.408,2.408,0,0,0,1.689.57h0a3.23,3.23,0,0,0,2.239-.83h0Zm0.271-1.82a1.375,1.375,0,0,1-.04.28,1.746,1.746,0,0,1-.6.83,2.542,2.542,0,0,1-1.628.52,1.28,1.28,0,0,1-.943-0.33,1.26,1.26,0,0,1-.333-0.94,0.9,0.9,0,0,1,.407-0.78,3.012,3.012,0,0,1,1.289-.41l1.12-.17a2.539,2.539,0,0,0,.753-0.22v0.79h0a3.992,3.992,0,0,1-.021.43h0Zm2.918,2.45h1.222v-3.89a2.443,2.443,0,0,1,.539-1.7,1.952,1.952,0,0,1,1.53-.6l0.251,0.01v-1.25a1.073,1.073,0,0,0-.346-0.06,2.06,2.06,0,0,0-1.7.93,4.694,4.694,0,0,0-.332.53v-1.24H282.4v7.27h0Zm4.072,0h1.221v-3.89a2.448,2.448,0,0,1,.539-1.7,1.952,1.952,0,0,1,1.53-.6l0.251,0.01v-1.25a1.068,1.068,0,0,0-.346-0.06,2.061,2.061,0,0,0-1.7.93,4.842,4.842,0,0,0-.332.53v-1.24h-1.16v7.27h0Zm3.942,0h1.221v-7.27H290.41v7.27h0Zm-0.013-8.6h1.248v-1.39H290.4v1.39Zm2.5,8.6h1.221v-3.89a2.911,2.911,0,0,1,.516-1.82,1.686,1.686,0,0,1,1.4-.67,1.525,1.525,0,0,1,1.2.43,2.076,2.076,0,0,1,.37,1.38v4.57h1.221v-4.98a2.531,2.531,0,0,0-4.492-1.58l-0.271.36v-1.07H292.9v7.27h0Zm8.783,1.74a1.406,1.406,0,0,1-.519-0.9h-1.248a2.418,2.418,0,0,0,.875,1.66,3.091,3.091,0,0,0,1.961.57,3.285,3.285,0,0,0,2.524-.88,3.927,3.927,0,0,0,.827-2.73v-6.73h-1.146v1.04l-0.089-.13a2.394,2.394,0,0,0-2.076-1.13,2.767,2.767,0,0,0-2.218,1.01,3.952,3.952,0,0,0-.848,2.64,4.639,4.639,0,0,0,.861,2.95,2.823,2.823,0,0,0,2.321,1.09,2.392,2.392,0,0,0,1.967-.97l0.007-.01v0.24a2.988,2.988,0,0,1-.55,1.94,1.964,1.964,0,0,1-1.6.66h0A1.675,1.675,0,0,1,301.684,2082.52Zm2.768-7.34a4.332,4.332,0,0,1,.492,2.31,2.69,2.69,0,0,1-.543,1.76,1.771,1.771,0,0,1-1.431.67,1.69,1.69,0,0,1-1.456-.73,4.58,4.58,0,0,1-.04-4.13,1.712,1.712,0,0,1,1.5-.66A1.635,1.635,0,0,1,304.452,2075.18Z"/>
  </g>
</svg>
