<svg id="Dada" xmlns="http://www.w3.org/2000/svg" width="3000" height="3000" viewBox="0 0 3000 3000">
  <defs>
    <style>
      .cls-1 {
        fill: #575861;
      }

      .cls-2 {
        fill: #e4e1da;
      }

      .cls-2, .cls-3 {
        fill-rule: evenodd;
      }

      .cls-3 {
        fill: #31323d;
      }
    </style>
  </defs>
  <g id="dada-placard-whistlersmother">
    <rect id="Rectangle_2_copy" data-name="Rectangle 2 copy" class="cls-1" x="155" y="1980" width="291" height="187"/>
    <path id="Rectangle_2_copy_2" data-name="Rectangle 2 copy 2" class="cls-2" d="M159.98,1984.99H441.02v177.02H159.98V1984.99Z"/>
    <path id="dada.nyc" class="cls-3" d="M187.636,2123.36l0.415-.6v2.64h3.012v-26.56h-3.246v10.03l-0.253-.36a6.475,6.475,0,0,0-5.628-3.02,7.169,7.169,0,0,0-5.79,2.67,10.673,10.673,0,0,0-2.218,7.03,12.281,12.281,0,0,0,2.29,7.83,7.434,7.434,0,0,0,6.169,2.9h0a6.337,6.337,0,0,0,5.249-2.56h0Zm-1.181-12.8a11.359,11.359,0,0,1,1.362,6.09,7.251,7.251,0,0,1-1.443,4.71,4.651,4.651,0,0,1-3.806,1.78,4.465,4.465,0,0,1-3.888-1.93,9.5,9.5,0,0,1-1.361-5.51q0-3.795,1.262-5.54a4.594,4.594,0,0,1,3.987-1.74A4.34,4.34,0,0,1,186.455,2110.56Zm17.2,13.18a7.322,7.322,0,0,0,.83-0.87,4.282,4.282,0,0,0,.776,1.9,3.271,3.271,0,0,0,2.669,1.01,4.679,4.679,0,0,0,.884-0.11,6.139,6.139,0,0,0,.992-0.29v-2.35a5.2,5.2,0,0,1-.6.11c-0.187.02-.328,0.04-0.424,0.04a1.081,1.081,0,0,1-.8-0.3,1.069,1.069,0,0,1-.3-0.79v-10.62a5.442,5.442,0,0,0-1.84-4.45,8.189,8.189,0,0,0-5.357-1.53,8.978,8.978,0,0,0-5.736,1.6,6.38,6.38,0,0,0-2.237,4.78H195.5a4.117,4.117,0,0,1,1.362-2.78,4.783,4.783,0,0,1,3.13-.93,5.384,5.384,0,0,1,3.265.88,2.854,2.854,0,0,1,1.172,2.43v0.16a2.063,2.063,0,0,1-.343,1.23,1.629,1.629,0,0,1-.974.65,5.555,5.555,0,0,1-1.028.18l-4.419.56a7.622,7.622,0,0,0-4.555,1.92,5.526,5.526,0,0,0-1.56,4.13,5.3,5.3,0,0,0,1.66,4.11,6.4,6.4,0,0,0,4.491,1.51h0a8.618,8.618,0,0,0,5.952-2.18h0Zm0.722-4.85a3.767,3.767,0,0,1-.108.75,4.742,4.742,0,0,1-1.606,2.2,6.767,6.767,0,0,1-4.329,1.39,3.386,3.386,0,0,1-2.507-.88,3.348,3.348,0,0,1-.884-2.5,2.413,2.413,0,0,1,1.082-2.08,7.89,7.89,0,0,1,3.428-1.1l2.976-.43a6.957,6.957,0,0,0,2-.6v2.1h0a11.1,11.1,0,0,1-.054,1.15h0Zm18.437,4.47,0.415-.6v2.64h3.012v-26.56H223v10.03l-0.252-.36a6.475,6.475,0,0,0-5.628-3.02,7.169,7.169,0,0,0-5.79,2.67,10.673,10.673,0,0,0-2.218,7.03,12.281,12.281,0,0,0,2.29,7.83,7.434,7.434,0,0,0,6.169,2.9h0a6.337,6.337,0,0,0,5.249-2.56h0Zm-1.181-12.8a11.36,11.36,0,0,1,1.361,6.09,7.245,7.245,0,0,1-1.443,4.71,4.648,4.648,0,0,1-3.8,1.78,4.465,4.465,0,0,1-3.888-1.93,9.5,9.5,0,0,1-1.361-5.51q0-3.795,1.262-5.54a4.594,4.594,0,0,1,3.987-1.74A4.34,4.34,0,0,1,221.634,2110.56Zm17.2,13.18a7.322,7.322,0,0,0,.83-0.87,4.282,4.282,0,0,0,.776,1.9,3.271,3.271,0,0,0,2.669,1.01,4.679,4.679,0,0,0,.884-0.11,6.139,6.139,0,0,0,.992-0.29v-2.35a5.2,5.2,0,0,1-.6.11c-0.187.02-.328,0.04-0.424,0.04a1.081,1.081,0,0,1-.8-0.3,1.069,1.069,0,0,1-.3-0.79v-10.62a5.442,5.442,0,0,0-1.84-4.45,8.189,8.189,0,0,0-5.357-1.53,8.978,8.978,0,0,0-5.736,1.6,6.38,6.38,0,0,0-2.237,4.78h2.994a4.117,4.117,0,0,1,1.362-2.78,4.783,4.783,0,0,1,3.13-.93,5.384,5.384,0,0,1,3.265.88,2.854,2.854,0,0,1,1.172,2.43v0.16a2.063,2.063,0,0,1-.343,1.23,1.629,1.629,0,0,1-.974.65,5.555,5.555,0,0,1-1.028.18l-4.419.56a7.622,7.622,0,0,0-4.555,1.92,5.526,5.526,0,0,0-1.56,4.13,5.3,5.3,0,0,0,1.66,4.11,6.4,6.4,0,0,0,4.491,1.51h0a8.618,8.618,0,0,0,5.952-2.18h0Zm0.722-4.85a3.767,3.767,0,0,1-.108.75,4.742,4.742,0,0,1-1.606,2.2,6.767,6.767,0,0,1-4.329,1.39,3.386,3.386,0,0,1-2.507-.88,3.348,3.348,0,0,1-.884-2.5,2.413,2.413,0,0,1,1.082-2.08,7.89,7.89,0,0,1,3.428-1.1l2.976-.43a6.957,6.957,0,0,0,2-.6v2.1h0a11.1,11.1,0,0,1-.054,1.15h0Zm6.641,6.51h3.86v-3.92H246.2v3.92Zm6.5,0h3.247v-10.35a7.706,7.706,0,0,1,1.371-4.82,4.457,4.457,0,0,1,3.715-1.78,4.028,4.028,0,0,1,3.184,1.13,5.56,5.56,0,0,1,.983,3.68v12.14h3.247v-13.24a6.731,6.731,0,0,0-11.941-4.2l-0.722.96v-2.85h-3.084v19.33h0Zm33.246-19.33h-3.556l-5.227,15.99h0l-5.153-15.99H268.3l7.162,19.65v0.01l-0.054.3a13.153,13.153,0,0,1-1.677,3.38,2.29,2.29,0,0,1-1.84.9,5.712,5.712,0,0,1-1.858-.28v3.01a4.862,4.862,0,0,0,1.569.2,5.308,5.308,0,0,0,3.977-1.37c0.884-.92,1.891-2.86,3.021-5.84l7.341-19.96h0Zm11.962,12.37a6.179,6.179,0,0,1-1.687,3.46,4.838,4.838,0,0,1-7.025-.64,9.712,9.712,0,0,1-1.3-5.55,9.285,9.285,0,0,1,1.4-5.44,4.46,4.46,0,0,1,3.851-1.98,4.723,4.723,0,0,1,3.319,1.14,4.791,4.791,0,0,1,1.443,3.21h3.12a7.218,7.218,0,0,0-2.218-5.24,7.851,7.851,0,0,0-5.556-1.91,7.956,7.956,0,0,0-6.376,2.77,11.089,11.089,0,0,0-2.372,7.45,11.312,11.312,0,0,0,2.291,7.45,7.561,7.561,0,0,0,6.132,2.76,7.844,7.844,0,0,0,5.52-1.91,8.965,8.965,0,0,0,2.579-5.57H297.9Z"/>
    <path id="vVs_James_Abbott_NcNeil_Whistler_Whistler_s_Mother" data-name="vVs James Abbott NcNeil Whistler Whistler&apos;s Mother" class="cls-3" d="M176.341,2025.17h1.309l2.707-7.27h-1.346L177,2023.85h0l-1.946-5.95h-1.427Zm7.477,0h1.452l3.63-9.99h-1.5l-2.85,8.54h-0.007l-2.858-8.54h-1.5Zm11.011-5.17a2.221,2.221,0,0,0-.8-1.7,3.089,3.089,0,0,0-2.018-.62,3.018,3.018,0,0,0-1.977.6,1.993,1.993,0,0,0-.73,1.63,1.651,1.651,0,0,0,.436,1.22,3.033,3.033,0,0,0,1.459.69l1.262,0.3a3.617,3.617,0,0,1,1.119.39,0.657,0.657,0,0,1,.278.58,1.059,1.059,0,0,1-.424.91,2.074,2.074,0,0,1-1.246.31,2.326,2.326,0,0,1-1.4-.34,1.58,1.58,0,0,1-.547-1.13h-1.174a2.557,2.557,0,0,0,.835,1.92,3.629,3.629,0,0,0,2.287.61,3.241,3.241,0,0,0,2.1-.64,2.085,2.085,0,0,0,.777-1.71,1.7,1.7,0,0,0-.45-1.26,3.222,3.222,0,0,0-1.513-.71l-1.262-.3a3.617,3.617,0,0,1-1.107-.39,0.677,0.677,0,0,1-.278-0.59,0.856,0.856,0,0,1,.4-0.77,2.059,2.059,0,0,1,1.157-.27,1.852,1.852,0,0,1,1.178.34,1.246,1.246,0,0,1,.492.93h1.147Zm-16.711,30.17a2.166,2.166,0,0,1-.427,1.41,1.442,1.442,0,0,1-1.16.52,1.467,1.467,0,0,1-1.12-.43,1.771,1.771,0,0,1-.393-1.23v-0.69h-1.262v0.69a2.585,2.585,0,0,0,.7,2.06,2.938,2.938,0,0,0,2.157.75,2.725,2.725,0,0,0,2.114-.81,3.208,3.208,0,0,0,.743-2.27v-7.19h-1.351v7.19Zm6.847,2.18a2.673,2.673,0,0,0,.312-0.33,1.631,1.631,0,0,0,.292.72,1.236,1.236,0,0,0,1,.38,2.473,2.473,0,0,0,.332-0.04,3.721,3.721,0,0,0,.373-0.11v-0.89a2.228,2.228,0,0,1-.227.04,1.468,1.468,0,0,1-.159.02,0.383,0.383,0,0,1-.414-0.41v-4a2.044,2.044,0,0,0-.692-1.67,3.1,3.1,0,0,0-2.015-.58,3.392,3.392,0,0,0-2.158.61,2.4,2.4,0,0,0-.841,1.79H181.9a1.535,1.535,0,0,1,.512-1.04,1.817,1.817,0,0,1,1.177-.35,2.012,2.012,0,0,1,1.228.33,1.07,1.07,0,0,1,.441.91v0.07a0.814,0.814,0,0,1-.128.46,0.622,0.622,0,0,1-.367.24,2.329,2.329,0,0,1-.387.07l-1.662.21a2.947,2.947,0,0,0-1.713.72,2.09,2.09,0,0,0-.587,1.56,1.978,1.978,0,0,0,.624,1.54,2.411,2.411,0,0,0,1.69.57h0a3.222,3.222,0,0,0,2.239-.82h0Zm0.271-1.82a1.484,1.484,0,0,1-.041.28,1.76,1.76,0,0,1-.6.82,2.553,2.553,0,0,1-1.629.53,1.154,1.154,0,0,1-1.275-1.27,0.918,0.918,0,0,1,.407-0.79,3.007,3.007,0,0,1,1.289-.41l1.119-.16a2.547,2.547,0,0,0,.753-0.23v0.79h0a4.206,4.206,0,0,1-.02.44h0Zm2.748,2.44h1.222v-3.89a2.906,2.906,0,0,1,.519-1.79,1.6,1.6,0,0,1,1.333-.69,1.12,1.12,0,0,1,.9.36,1.513,1.513,0,0,1,.309,1.03v4.98h1.221v-4.08a2.7,2.7,0,0,1,.468-1.67,1.508,1.508,0,0,1,1.262-.62,1.176,1.176,0,0,1,.99.43,1.959,1.959,0,0,1,.34,1.25v4.69h1.221v-5.1a2.175,2.175,0,0,0-2.381-2.39,2.408,2.408,0,0,0-1.88.92l-0.2.25a1.862,1.862,0,0,0-.4-0.59,2.118,2.118,0,0,0-1.554-.58,2.491,2.491,0,0,0-1.96.98l-0.251.32v-1.08h-1.161v7.27h0Zm16.074-.43a3.073,3.073,0,0,0,1.085-1.82h-1.207a1.571,1.571,0,0,1-.638,1,1.93,1.93,0,0,1-1.22.4,1.879,1.879,0,0,1-1.628-.7,3.132,3.132,0,0,1-.495-1.65h5.3l0.014-.44a4.251,4.251,0,0,0-.875-2.79,2.856,2.856,0,0,0-2.3-1.06,3.153,3.153,0,0,0-2.507,1.09,4.309,4.309,0,0,0-.933,2.92,3.878,3.878,0,0,0,.882,2.7,3.105,3.105,0,0,0,2.422.98h0A3.329,3.329,0,0,0,204.058,2052.54Zm-4.1-3.76a2.779,2.779,0,0,1,.55-1.48,1.872,1.872,0,0,1,1.54-.72,1.757,1.757,0,0,1,1.452.62,2.757,2.757,0,0,1,.5,1.58h-4.045Zm11.524-.97a2.236,2.236,0,0,0-.8-1.71,3.084,3.084,0,0,0-2.017-.62,3.022,3.022,0,0,0-1.978.61,1.989,1.989,0,0,0-.729,1.62,1.663,1.663,0,0,0,.435,1.23,3.038,3.038,0,0,0,1.459.68l1.262,0.3a3.579,3.579,0,0,1,1.12.4,0.653,0.653,0,0,1,.278.57,1.047,1.047,0,0,1-.424.91,2.071,2.071,0,0,1-1.246.32,2.327,2.327,0,0,1-1.4-.35,1.54,1.54,0,0,1-.546-1.12H205.72a2.513,2.513,0,0,0,.835,1.91,3.566,3.566,0,0,0,2.286.61,3.238,3.238,0,0,0,2.1-.63,2.085,2.085,0,0,0,.777-1.71,1.707,1.707,0,0,0-.449-1.26,3.221,3.221,0,0,0-1.514-.71l-1.262-.3a3.834,3.834,0,0,1-1.106-.4,0.657,0.657,0,0,1-.278-0.58,0.885,0.885,0,0,1,.4-0.78,2.15,2.15,0,0,1,1.157-.26,1.913,1.913,0,0,1,1.178.33,1.273,1.273,0,0,1,.492.94h1.146Zm3.687,5.16h1.393l1.047-2.89h3.983l1.016,2.89h1.449l-3.582-9.99h-1.54l-3.766,9.99h0Zm4.474-8.52h0l1.538,4.43h-3.139l1.6-4.43h0Zm4.849,8.52h1.146v-0.89l0.116,0.15a2.332,2.332,0,0,0,1.954.94,2.778,2.778,0,0,0,2.324-1.08,4.717,4.717,0,0,0,.837-2.97,3.964,3.964,0,0,0-.831-2.65,2.791,2.791,0,0,0-2.256-.99,2.4,2.4,0,0,0-2.069,1.17v-3.67h-1.221v9.99Zm1.723-1.49a2.826,2.826,0,0,1-.5-1.8,4.539,4.539,0,0,1,.465-2.34,1.62,1.62,0,0,1,1.475-.74,1.7,1.7,0,0,1,1.466.65,3.5,3.5,0,0,1,.475,2.03,3.761,3.761,0,0,1-.5,2.11,1.652,1.652,0,0,1-1.452.72h0a1.725,1.725,0,0,1-1.432-.63h0Zm5.449,1.49h1.146v-0.89l0.116,0.15a2.332,2.332,0,0,0,1.954.94,2.775,2.775,0,0,0,2.323-1.08,4.71,4.71,0,0,0,.838-2.97,3.964,3.964,0,0,0-.831-2.65,2.791,2.791,0,0,0-2.256-.99,2.394,2.394,0,0,0-2.069,1.17v-3.67h-1.221v9.99Zm1.723-1.49a2.826,2.826,0,0,1-.5-1.8,4.539,4.539,0,0,1,.465-2.34,1.62,1.62,0,0,1,1.475-.74,1.7,1.7,0,0,1,1.466.65,3.507,3.507,0,0,1,.475,2.03,3.761,3.761,0,0,1-.5,2.11,1.652,1.652,0,0,1-1.452.72h0a1.725,1.725,0,0,1-1.432-.63h0Zm8.5,1.69a3.089,3.089,0,0,0,2.449-1.06,4.635,4.635,0,0,0,0-5.57,3.348,3.348,0,0,0-4.888,0,4.623,4.623,0,0,0,0,5.57,3.084,3.084,0,0,0,2.439,1.06h0Zm0-1.05a1.8,1.8,0,0,1-1.53-.76,3.917,3.917,0,0,1,0-4.06,1.923,1.923,0,0,1,3.063,0,3.9,3.9,0,0,1,0,4.06,1.81,1.81,0,0,1-1.533.76h0Zm6.88-.1h-0.434a0.892,0.892,0,0,1-.519-0.14,0.459,0.459,0,0,1-.194-0.39v-4.79h1.147v-1h-1.147v-2.04H246.4v2.04h-1v1h1v4.79a1.787,1.787,0,0,0,.329,1.22,1.521,1.521,0,0,0,1.13.35,7.169,7.169,0,0,0,.909-0.09h0v-0.95Zm3.305,0h-0.434a0.893,0.893,0,0,1-.52-0.14,0.46,0.46,0,0,1-.193-0.39v-4.79h1.147v-1h-1.147v-2.04H249.7v2.04h-1v1h1v4.79a1.782,1.782,0,0,0,.329,1.22,1.519,1.519,0,0,0,1.13.35,7.169,7.169,0,0,0,.909-0.09h0v-0.95Zm5.4-7.2,5.136,8.15h1.48v-9.99h-1.3v8.12l-4.994-8.12H256.17v9.99h1.3v-8.15Zm12.573,5.54a2.349,2.349,0,0,1-.634,1.3,1.819,1.819,0,0,1-2.643-.24,3.658,3.658,0,0,1-.488-2.09,3.515,3.515,0,0,1,.525-2.05,1.69,1.69,0,0,1,1.449-.74,1.665,1.665,0,0,1,1.791,1.64h1.174a2.731,2.731,0,0,0-.835-1.98,3.321,3.321,0,0,0-4.488.33,4.154,4.154,0,0,0-.892,2.8,4.25,4.25,0,0,0,.862,2.8,2.851,2.851,0,0,0,2.306,1.04,2.944,2.944,0,0,0,2.077-.72,3.377,3.377,0,0,0,.97-2.09h-1.174Zm3.3-5.54,5.136,8.15h1.479v-9.99h-1.3v8.12l-4.993-8.12H272.04v9.99h1.3v-8.15Zm13.075,7.72a3.083,3.083,0,0,0,1.085-1.82H286.3a1.569,1.569,0,0,1-.637,1,1.931,1.931,0,0,1-1.221.4,1.878,1.878,0,0,1-1.627-.7,3.132,3.132,0,0,1-.5-1.65h5.3l0.014-.44a4.256,4.256,0,0,0-.875-2.79,2.857,2.857,0,0,0-2.3-1.06,3.151,3.151,0,0,0-2.507,1.09,4.309,4.309,0,0,0-.933,2.92,3.878,3.878,0,0,0,.882,2.7,3.1,3.1,0,0,0,2.422.98h0A3.329,3.329,0,0,0,286.418,2052.54Zm-4.1-3.76a2.763,2.763,0,0,1,.55-1.48,1.872,1.872,0,0,1,1.54-.72,1.757,1.757,0,0,1,1.452.62,2.75,2.75,0,0,1,.5,1.58h-4.044Zm6.261,4.19H289.8v-7.27h-1.221v7.27h0Zm-0.014-8.6h1.248v-1.39h-1.248v1.39Zm2.531,8.6h1.222v-9.99h-1.222v9.99h0Zm8.469,0h0.726l2.115-7.72c0.036-.13.065-0.26,0.088-0.38a1.769,1.769,0,0,0,.034-0.28h0a1.608,1.608,0,0,0,.041.27c0.027,0.13.059,0.26,0.095,0.39l2.165,7.72h1.452l2.612-9.99h-1.452l-1.8,7.86c-0.032.13-.058,0.26-0.079,0.39a1.848,1.848,0,0,0-.03.26h0a1.909,1.909,0,0,0-.034-0.28,3.549,3.549,0,0,0-.089-0.37l-2.095-7.86h-1.52l-2.111,7.9q-0.048.18-.081,0.36a1.566,1.566,0,0,0-.034.27h0a1.653,1.653,0,0,0-.031-0.25c-0.02-.12-0.046-0.25-0.078-0.38l-1.778-7.9h-1.458l2.612,9.99h0.726Zm9.9,0h1.221v-3.89a2.779,2.779,0,0,1,.543-1.81,1.778,1.778,0,0,1,1.466-.67,1.405,1.405,0,0,1,1.126.4,1.959,1.959,0,0,1,.346,1.3v4.67h1.221v-4.98a2.525,2.525,0,0,0-4.491-1.57l-0.211.27v-3.71h-1.221v9.99h0Zm7.213,0H317.9v-7.27h-1.221v7.27h0Zm-0.014-8.6h1.249v-1.39H316.66v1.39Zm7.808,3.44a2.236,2.236,0,0,0-.8-1.71,3.084,3.084,0,0,0-2.017-.62,3.022,3.022,0,0,0-1.978.61,1.989,1.989,0,0,0-.729,1.62,1.663,1.663,0,0,0,.435,1.23,3.038,3.038,0,0,0,1.459.68l1.262,0.3a3.579,3.579,0,0,1,1.12.4,0.653,0.653,0,0,1,.278.57,1.047,1.047,0,0,1-.424.91,2.071,2.071,0,0,1-1.246.32,2.327,2.327,0,0,1-1.4-.35,1.54,1.54,0,0,1-.546-1.12h-1.174a2.513,2.513,0,0,0,.835,1.91,3.566,3.566,0,0,0,2.286.61,3.238,3.238,0,0,0,2.1-.63,2.085,2.085,0,0,0,.777-1.71,1.707,1.707,0,0,0-.449-1.26,3.221,3.221,0,0,0-1.514-.71l-1.262-.3a3.834,3.834,0,0,1-1.106-.4,0.657,0.657,0,0,1-.278-0.58,0.885,0.885,0,0,1,.4-0.78,2.15,2.15,0,0,1,1.157-.26,1.913,1.913,0,0,1,1.178.33,1.273,1.273,0,0,1,.492.94h1.146Zm3.754,4.21h-0.434a0.892,0.892,0,0,1-.519-0.14,0.458,0.458,0,0,1-.193-0.39v-4.79h1.146v-1h-1.146v-2.04h-1.221v2.04h-1v1h1v4.79a1.782,1.782,0,0,0,.329,1.22,1.517,1.517,0,0,0,1.129.35,7.169,7.169,0,0,0,.909-0.09h0v-0.95Zm0.666,0.95h1.221v-9.99h-1.221v9.99h0Zm7.559-.43a3.083,3.083,0,0,0,1.085-1.82h-1.208a1.569,1.569,0,0,1-.637,1,1.931,1.931,0,0,1-1.221.4,1.877,1.877,0,0,1-1.627-.7,3.132,3.132,0,0,1-.5-1.65h5.3l0.014-.44a4.256,4.256,0,0,0-.875-2.79,2.857,2.857,0,0,0-2.3-1.06,3.151,3.151,0,0,0-2.507,1.09,4.309,4.309,0,0,0-.933,2.92,3.878,3.878,0,0,0,.882,2.7,3.1,3.1,0,0,0,2.422.98h0A3.329,3.329,0,0,0,336.447,2052.54Zm-4.1-3.76a2.763,2.763,0,0,1,.55-1.48,1.871,1.871,0,0,1,1.54-.72,1.757,1.757,0,0,1,1.452.62,2.75,2.75,0,0,1,.5,1.58h-4.044Zm6.39,4.19h1.221v-3.89a2.465,2.465,0,0,1,.539-1.7,1.981,1.981,0,0,1,1.53-.59l0.251,0.01v-1.25a0.873,0.873,0,0,0-.346-0.07,2.048,2.048,0,0,0-1.7.94,3.4,3.4,0,0,0-.332.53v-1.25h-1.16v7.27h0ZM177.08,2080.78h0.726l2.115-7.73a3.542,3.542,0,0,0,.088-0.37,1.777,1.777,0,0,0,.034-0.28h0a1.4,1.4,0,0,0,.041.26c0.027,0.13.058,0.26,0.095,0.39l2.164,7.73H183.8l2.612-9.99h-1.452l-1.8,7.86c-0.031.13-.058,0.26-0.078,0.38a2.117,2.117,0,0,0-.03.27h0a1.777,1.777,0,0,0-.034-0.28,3.028,3.028,0,0,0-.088-0.37l-2.1-7.86h-1.519l-2.111,7.9a3.436,3.436,0,0,0-.082.36,1.675,1.675,0,0,0-.034.27h0a1.894,1.894,0,0,0-.031-0.26c-0.02-.12-0.046-0.24-0.078-0.37l-1.778-7.9h-1.459l2.612,9.99h0.726Zm9.9,0H188.2v-3.89a2.808,2.808,0,0,1,.543-1.82,1.806,1.806,0,0,1,1.465-.67,1.442,1.442,0,0,1,1.127.4,1.983,1.983,0,0,1,.346,1.3v4.68H192.9v-4.98a2.531,2.531,0,0,0-4.492-1.58l-0.21.27v-3.7H186.98v9.99h0Zm7.212,0h1.222v-7.27h-1.222v7.27h0Zm-0.013-8.6h1.248v-1.39h-1.248v1.39Zm7.808,3.43a2.218,2.218,0,0,0-.8-1.7,3.087,3.087,0,0,0-2.018-.62,3.018,3.018,0,0,0-1.977.6,2.008,2.008,0,0,0-.729,1.63,1.655,1.655,0,0,0,.435,1.22,2.949,2.949,0,0,0,1.459.69l1.262,0.3a3.637,3.637,0,0,1,1.12.39,0.671,0.671,0,0,1,.278.58,1.06,1.06,0,0,1-.425.91,2.071,2.071,0,0,1-1.245.31,2.331,2.331,0,0,1-1.4-.34,1.556,1.556,0,0,1-.546-1.13h-1.174a2.553,2.553,0,0,0,.834,1.92,3.631,3.631,0,0,0,2.287.61,3.185,3.185,0,0,0,2.1-.64,2.085,2.085,0,0,0,.777-1.71,1.7,1.7,0,0,0-.45-1.26,3.217,3.217,0,0,0-1.513-.71l-1.262-.3a3.6,3.6,0,0,1-1.106-.39,0.675,0.675,0,0,1-.278-0.59,0.868,0.868,0,0,1,.4-0.77,2.055,2.055,0,0,1,1.157-.27,1.849,1.849,0,0,1,1.177.34,1.246,1.246,0,0,1,.492.93h1.147Zm3.754,4.22h-0.434a0.825,0.825,0,0,1-.519-0.15,0.441,0.441,0,0,1-.194-0.38v-4.79h1.147v-1h-1.147v-2.04h-1.221v2.04h-1v1h1v4.79a1.758,1.758,0,0,0,.329,1.21,1.481,1.481,0,0,0,1.13.36,6,6,0,0,0,.909-0.1h0v-0.94Zm0.666,0.95h1.221v-9.99h-1.221v9.99h0Zm7.558-.43a3.075,3.075,0,0,0,1.086-1.83h-1.208a1.6,1.6,0,0,1-.637,1.01,1.986,1.986,0,0,1-1.221.39,1.9,1.9,0,0,1-1.627-.69,3.123,3.123,0,0,1-.5-1.66h5.3l0.015-.43a4.251,4.251,0,0,0-.876-2.79,2.827,2.827,0,0,0-2.3-1.06,3.145,3.145,0,0,0-2.507,1.08,4.349,4.349,0,0,0-.932,2.92,3.905,3.905,0,0,0,.882,2.71,3.1,3.1,0,0,0,2.422.98h0A3.326,3.326,0,0,0,213.965,2080.35Zm-4.1-3.76a2.773,2.773,0,0,1,.549-1.49,1.874,1.874,0,0,1,1.541-.72,1.736,1.736,0,0,1,1.452.63,2.732,2.732,0,0,1,.5,1.58h-4.044Zm6.389,4.19h1.221v-3.89a2.443,2.443,0,0,1,.54-1.7,1.949,1.949,0,0,1,1.53-.6l0.251,0.01v-1.25a1.073,1.073,0,0,0-.346-0.06,2.06,2.06,0,0,0-1.7.93,4.7,4.7,0,0,0-.333.53v-1.24h-1.16v7.27h0Zm4.831-6.45v-3.54h-1.01v3.54h1.01Zm6.472,1.28a2.218,2.218,0,0,0-.8-1.7,3.087,3.087,0,0,0-2.018-.62,3.018,3.018,0,0,0-1.977.6,2.008,2.008,0,0,0-.729,1.63,1.655,1.655,0,0,0,.435,1.22,2.949,2.949,0,0,0,1.459.69l1.262,0.3a3.637,3.637,0,0,1,1.12.39,0.671,0.671,0,0,1,.278.58,1.06,1.06,0,0,1-.425.91,2.071,2.071,0,0,1-1.245.31,2.329,2.329,0,0,1-1.4-.34,1.556,1.556,0,0,1-.546-1.13H221.8a2.553,2.553,0,0,0,.834,1.92,3.631,3.631,0,0,0,2.287.61,3.185,3.185,0,0,0,2.1-.64,2.085,2.085,0,0,0,.777-1.71,1.7,1.7,0,0,0-.45-1.26,3.217,3.217,0,0,0-1.513-.71l-1.262-.3a3.6,3.6,0,0,1-1.106-.39,0.676,0.676,0,0,1-.279-0.59,0.87,0.87,0,0,1,.4-0.77,2.06,2.06,0,0,1,1.158-.27,1.849,1.849,0,0,1,1.177.34,1.246,1.246,0,0,1,.492.93h1.147Zm5.817-3.26h0l2.82,8.43h1.3l2.811-8.45h0v8.45h1.309v-9.99h-1.94l-2.827,8.5h0l-2.853-8.5h-1.94v9.99h1.309v-8.43Zm12.552,8.63a3.122,3.122,0,0,0,2.45-1.06,4.639,4.639,0,0,0,0-5.57,3.349,3.349,0,0,0-4.889,0,4.623,4.623,0,0,0,0,5.57,3.116,3.116,0,0,0,2.439,1.06h0Zm0-1.06a1.818,1.818,0,0,1-1.53-.75,3.941,3.941,0,0,1,0-4.07,1.924,1.924,0,0,1,3.064,0,3.918,3.918,0,0,1,0,4.07,1.827,1.827,0,0,1-1.534.75h0Zm6.881-.09H252.37a0.825,0.825,0,0,1-.519-0.15,0.44,0.44,0,0,1-.193-0.38v-4.79h1.147v-1h-1.147v-2.04h-1.221v2.04h-1v1h1v4.79a1.752,1.752,0,0,0,.329,1.21,1.478,1.478,0,0,0,1.129.36,6.019,6.019,0,0,0,.91-0.1h0v-0.94Zm0.638,0.95h1.221v-3.89a2.808,2.808,0,0,1,.543-1.82,1.806,1.806,0,0,1,1.465-.67,1.442,1.442,0,0,1,1.127.4,1.983,1.983,0,0,1,.346,1.3v4.68h1.221v-4.98a2.269,2.269,0,0,0-2.5-2.51,2.508,2.508,0,0,0-1.988.93l-0.21.27v-3.7h-1.221v9.99h0Zm12.226-.43a3.075,3.075,0,0,0,1.086-1.83h-1.208a1.6,1.6,0,0,1-.637,1.01,1.984,1.984,0,0,1-1.221.39,1.9,1.9,0,0,1-1.627-.69,3.141,3.141,0,0,1-.5-1.66h5.3l0.015-.43a4.256,4.256,0,0,0-.875-2.79,2.828,2.828,0,0,0-2.3-1.06,3.144,3.144,0,0,0-2.507,1.08,4.344,4.344,0,0,0-.933,2.92,3.905,3.905,0,0,0,.882,2.71,3.1,3.1,0,0,0,2.422.98h0A3.324,3.324,0,0,0,265.669,2080.35Zm-4.1-3.76a2.773,2.773,0,0,1,.549-1.49,1.874,1.874,0,0,1,1.541-.72,1.735,1.735,0,0,1,1.452.63,2.732,2.732,0,0,1,.5,1.58h-4.044Zm6.389,4.19h1.222v-3.89a2.443,2.443,0,0,1,.539-1.7,1.952,1.952,0,0,1,1.53-.6l0.251,0.01v-1.25a1.073,1.073,0,0,0-.346-0.06,2.06,2.06,0,0,0-1.7.93,4.694,4.694,0,0,0-.332.53v-1.24h-1.161v7.27h0Z"/>
  </g>
</svg>
