<svg id="Dada" xmlns="http://www.w3.org/2000/svg" width="3000" height="3000" viewBox="0 0 3000 3000">
  <defs>
    <style>
      .cls-1 {
        fill: #575861;
      }

      .cls-2 {
        fill: #e4e1da;
      }

      .cls-2, .cls-3 {
        fill-rule: evenodd;
      }

      .cls-3 {
        fill: #31323d;
      }
    </style>
  </defs>
  <g id="dada-placard-birthvenus">
    <rect id="Rectangle_2_copy" data-name="Rectangle 2 copy" class="cls-1" x="155" y="1980" width="291" height="187"/>
    <path id="Rectangle_2_copy_2" data-name="Rectangle 2 copy 2" class="cls-2" d="M159.98,1984.99H441.02v177.02H159.98V1984.99Z"/>
    <path id="dada.nyc" class="cls-3" d="M187.636,2123.36l0.415-.6v2.64h3.012v-26.56h-3.246v10.03l-0.253-.36a6.475,6.475,0,0,0-5.628-3.02,7.169,7.169,0,0,0-5.79,2.67,10.673,10.673,0,0,0-2.218,7.03,12.281,12.281,0,0,0,2.29,7.83,7.434,7.434,0,0,0,6.169,2.9h0a6.337,6.337,0,0,0,5.249-2.56h0Zm-1.181-12.8a11.359,11.359,0,0,1,1.362,6.09,7.251,7.251,0,0,1-1.443,4.71,4.651,4.651,0,0,1-3.806,1.78,4.465,4.465,0,0,1-3.888-1.93,9.5,9.5,0,0,1-1.361-5.51q0-3.795,1.262-5.54a4.594,4.594,0,0,1,3.987-1.74A4.34,4.34,0,0,1,186.455,2110.56Zm17.2,13.18a7.322,7.322,0,0,0,.83-0.87,4.282,4.282,0,0,0,.776,1.9,3.271,3.271,0,0,0,2.669,1.01,4.679,4.679,0,0,0,.884-0.11,6.139,6.139,0,0,0,.992-0.29v-2.35a5.2,5.2,0,0,1-.6.11c-0.187.02-.328,0.04-0.424,0.04a1.081,1.081,0,0,1-.8-0.3,1.069,1.069,0,0,1-.3-0.79v-10.62a5.442,5.442,0,0,0-1.84-4.45,8.189,8.189,0,0,0-5.357-1.53,8.978,8.978,0,0,0-5.736,1.6,6.38,6.38,0,0,0-2.237,4.78H195.5a4.117,4.117,0,0,1,1.362-2.78,4.783,4.783,0,0,1,3.13-.93,5.384,5.384,0,0,1,3.265.88,2.854,2.854,0,0,1,1.172,2.43v0.16a2.063,2.063,0,0,1-.343,1.23,1.629,1.629,0,0,1-.974.65,5.555,5.555,0,0,1-1.028.18l-4.419.56a7.622,7.622,0,0,0-4.555,1.92,5.526,5.526,0,0,0-1.56,4.13,5.3,5.3,0,0,0,1.66,4.11,6.4,6.4,0,0,0,4.491,1.51h0a8.618,8.618,0,0,0,5.952-2.18h0Zm0.722-4.85a3.767,3.767,0,0,1-.108.75,4.742,4.742,0,0,1-1.606,2.2,6.767,6.767,0,0,1-4.329,1.39,3.386,3.386,0,0,1-2.507-.88,3.348,3.348,0,0,1-.884-2.5,2.413,2.413,0,0,1,1.082-2.08,7.89,7.89,0,0,1,3.428-1.1l2.976-.43a6.957,6.957,0,0,0,2-.6v2.1h0a11.1,11.1,0,0,1-.054,1.15h0Zm18.437,4.47,0.415-.6v2.64h3.012v-26.56H223v10.03l-0.252-.36a6.475,6.475,0,0,0-5.628-3.02,7.169,7.169,0,0,0-5.79,2.67,10.673,10.673,0,0,0-2.218,7.03,12.281,12.281,0,0,0,2.29,7.83,7.434,7.434,0,0,0,6.169,2.9h0a6.337,6.337,0,0,0,5.249-2.56h0Zm-1.181-12.8a11.36,11.36,0,0,1,1.361,6.09,7.245,7.245,0,0,1-1.443,4.71,4.648,4.648,0,0,1-3.8,1.78,4.465,4.465,0,0,1-3.888-1.93,9.5,9.5,0,0,1-1.361-5.51q0-3.795,1.262-5.54a4.594,4.594,0,0,1,3.987-1.74A4.34,4.34,0,0,1,221.634,2110.56Zm17.2,13.18a7.322,7.322,0,0,0,.83-0.87,4.282,4.282,0,0,0,.776,1.9,3.271,3.271,0,0,0,2.669,1.01,4.679,4.679,0,0,0,.884-0.11,6.139,6.139,0,0,0,.992-0.29v-2.35a5.2,5.2,0,0,1-.6.11c-0.187.02-.328,0.04-0.424,0.04a1.081,1.081,0,0,1-.8-0.3,1.069,1.069,0,0,1-.3-0.79v-10.62a5.442,5.442,0,0,0-1.84-4.45,8.189,8.189,0,0,0-5.357-1.53,8.978,8.978,0,0,0-5.736,1.6,6.38,6.38,0,0,0-2.237,4.78h2.994a4.117,4.117,0,0,1,1.362-2.78,4.783,4.783,0,0,1,3.13-.93,5.384,5.384,0,0,1,3.265.88,2.854,2.854,0,0,1,1.172,2.43v0.16a2.063,2.063,0,0,1-.343,1.23,1.629,1.629,0,0,1-.974.65,5.555,5.555,0,0,1-1.028.18l-4.419.56a7.622,7.622,0,0,0-4.555,1.92,5.526,5.526,0,0,0-1.56,4.13,5.3,5.3,0,0,0,1.66,4.11,6.4,6.4,0,0,0,4.491,1.51h0a8.618,8.618,0,0,0,5.952-2.18h0Zm0.722-4.85a3.767,3.767,0,0,1-.108.75,4.742,4.742,0,0,1-1.606,2.2,6.767,6.767,0,0,1-4.329,1.39,3.386,3.386,0,0,1-2.507-.88,3.348,3.348,0,0,1-.884-2.5,2.413,2.413,0,0,1,1.082-2.08,7.89,7.89,0,0,1,3.428-1.1l2.976-.43a6.957,6.957,0,0,0,2-.6v2.1h0a11.1,11.1,0,0,1-.054,1.15h0Zm6.641,6.51h3.86v-3.92H246.2v3.92Zm6.5,0h3.247v-10.35a7.706,7.706,0,0,1,1.371-4.82,4.457,4.457,0,0,1,3.715-1.78,4.028,4.028,0,0,1,3.184,1.13,5.56,5.56,0,0,1,.983,3.68v12.14h3.247v-13.24a6.731,6.731,0,0,0-11.941-4.2l-0.722.96v-2.85h-3.084v19.33h0Zm33.246-19.33h-3.556l-5.227,15.99h0l-5.153-15.99H268.3l7.162,19.65v0.01l-0.054.3a13.153,13.153,0,0,1-1.677,3.38,2.29,2.29,0,0,1-1.84.9,5.712,5.712,0,0,1-1.858-.28v3.01a4.862,4.862,0,0,0,1.569.2,5.308,5.308,0,0,0,3.977-1.37c0.884-.92,1.891-2.86,3.021-5.84l7.341-19.96h0Zm11.962,12.37a6.179,6.179,0,0,1-1.687,3.46,4.838,4.838,0,0,1-7.025-.64,9.712,9.712,0,0,1-1.3-5.55,9.285,9.285,0,0,1,1.4-5.44,4.46,4.46,0,0,1,3.851-1.98,4.723,4.723,0,0,1,3.319,1.14,4.791,4.791,0,0,1,1.443,3.21h3.12a7.218,7.218,0,0,0-2.218-5.24,7.851,7.851,0,0,0-5.556-1.91,7.956,7.956,0,0,0-6.376,2.77,11.089,11.089,0,0,0-2.372,7.45,11.312,11.312,0,0,0,2.291,7.45,7.561,7.561,0,0,0,6.132,2.76,7.844,7.844,0,0,0,5.52-1.91,8.965,8.965,0,0,0,2.579-5.57H297.9Z"/>
    <path id="CROMOMANIACO_Sandro_Boticelli_The_Birth_of_Venus" data-name="CROMOMANIACO Sandro Boticelli The Birth of Venus" class="cls-3" d="M181.68,2021.49a3.637,3.637,0,0,1-1.017,2.04,2.742,2.742,0,0,1-1.927.71,2.853,2.853,0,0,1-2.392-1.04,4.772,4.772,0,0,1-.824-3.02,4.575,4.575,0,0,1,.889-2.97,2.9,2.9,0,0,1,2.388-1.11,3.072,3.072,0,0,1,1.876.54,2.376,2.376,0,0,1,.919,1.54h1.3a3.59,3.59,0,0,0-1.3-2.4,4.823,4.823,0,0,0-6.191.56,5.555,5.555,0,0,0-1.272,3.84,5.69,5.69,0,0,0,1.225,3.84,4.109,4.109,0,0,0,3.287,1.42,4.189,4.189,0,0,0,2.927-1.05,4.632,4.632,0,0,0,1.415-2.9h-1.3Zm2.538,3.68h1.351v-4.31h3.2a1.992,1.992,0,0,1,1.4.4,1.806,1.806,0,0,1,.454,1.33l0.031,0.78c0.018,0.43.045,0.81,0.081,1.15a2.84,2.84,0,0,0,.108.64H192.5v-0.22a0.764,0.764,0,0,1-.394-0.34,1.564,1.564,0,0,1-.115-0.64l-0.055-1.82a1.927,1.927,0,0,0-.943-1.76l-0.224-.11a3.71,3.71,0,0,0,.469-0.33,2.559,2.559,0,0,0,.861-2.05,2.475,2.475,0,0,0-.828-2.02,3.683,3.683,0,0,0-2.415-.69h-4.641v9.99h0Zm1.351-8.86h3.236a2.206,2.206,0,0,1,1.448.4,1.6,1.6,0,0,1,.458,1.27,1.713,1.713,0,0,1-.434,1.3,1.959,1.959,0,0,1-1.37.41h-3.338v-3.38Zm12.308,9.13a4.561,4.561,0,0,0,3.524-1.45,6.1,6.1,0,0,0,0-7.63,5,5,0,0,0-7.039,0,6.09,6.09,0,0,0,0,7.63,4.557,4.557,0,0,0,3.515,1.45h0Zm0-1.2a3.133,3.133,0,0,1-2.511-1.12,5.014,5.014,0,0,1,0-5.89,3.362,3.362,0,0,1,5.028,0,5.014,5.014,0,0,1,0,5.89,3.139,3.139,0,0,1-2.517,1.12h0Zm7.178-7.5h0l2.82,8.43h1.3l2.811-8.46h0v8.46h1.309v-9.99h-1.94l-2.827,8.5h0l-2.853-8.5h-1.94v9.99h1.309v-8.43Zm14.093,8.7a4.561,4.561,0,0,0,3.524-1.45,6.1,6.1,0,0,0,0-7.63,5,5,0,0,0-7.039,0,6.09,6.09,0,0,0,0,7.63,4.557,4.557,0,0,0,3.515,1.45h0Zm0-1.2a3.133,3.133,0,0,1-2.511-1.12,5.014,5.014,0,0,1,0-5.89,3.362,3.362,0,0,1,5.028,0,5.014,5.014,0,0,1,0,5.89,3.139,3.139,0,0,1-2.517,1.12h0Zm7.178-7.5h0l2.82,8.43h1.3l2.811-8.46h0v8.46h1.31v-9.99h-1.941l-2.827,8.5h0l-2.853-8.5h-1.94v9.99h1.309v-8.43Zm8.889,8.43h1.392l1.048-2.9h3.982l1.017,2.9H244.1l-3.583-9.99h-1.54l-3.765,9.99h0Zm4.474-8.52h0l1.538,4.43h-3.139l1.6-4.43h0Zm6.4,0.37,5.136,8.15h1.479v-9.99h-1.3v8.12l-4.994-8.12h-1.621v9.99h1.3v-8.15Zm8.38,8.15h1.35v-9.99h-1.35v9.99h0Zm2.239,0H258.1l1.048-2.9h3.982l1.016,2.9H265.6l-3.582-9.99h-1.54l-3.766,9.99h0Zm4.474-8.52h0l1.538,4.43H259.58l1.6-4.43h0Zm12.2,4.84a3.644,3.644,0,0,1-1.018,2.04,2.74,2.74,0,0,1-1.927.71,2.85,2.85,0,0,1-2.391-1.04,4.766,4.766,0,0,1-.825-3.02,4.581,4.581,0,0,1,.889-2.97,2.9,2.9,0,0,1,2.388-1.11,3.07,3.07,0,0,1,1.876.54,2.376,2.376,0,0,1,.919,1.54h1.3a3.59,3.59,0,0,0-1.3-2.4,4.823,4.823,0,0,0-6.191.56,5.555,5.555,0,0,0-1.272,3.84,5.69,5.69,0,0,0,1.225,3.84,4.109,4.109,0,0,0,3.287,1.42,4.19,4.19,0,0,0,2.928-1.05,4.636,4.636,0,0,0,1.414-2.9h-1.3Zm6.717,3.95a4.564,4.564,0,0,0,3.525-1.45,6.1,6.1,0,0,0,0-7.63,5,5,0,0,0-7.039,0,6.087,6.087,0,0,0,0,7.63,4.555,4.555,0,0,0,3.514,1.45h0Zm0-1.2a3.131,3.131,0,0,1-2.51-1.12,5.01,5.01,0,0,1,0-5.89,3.36,3.36,0,0,1,5.027,0,5.01,5.01,0,0,1,0,5.89,3.139,3.139,0,0,1-2.517,1.12h0Zm-98.211,21.64a3.1,3.1,0,0,0-1.064-2.33,4.024,4.024,0,0,0-2.679-.84,3.886,3.886,0,0,0-2.628.84,2.849,2.849,0,0,0-.973,2.27,2.087,2.087,0,0,0,.561,1.55,4.007,4.007,0,0,0,1.881.87l1.739,0.41a4.758,4.758,0,0,1,1.7.65,1.281,1.281,0,0,1,.425,1.06,1.4,1.4,0,0,1-.645,1.26,3.386,3.386,0,0,1-1.888.43,3.349,3.349,0,0,1-2.1-.59,2.12,2.12,0,0,1-.788-1.68h-1.241v0.07a3.068,3.068,0,0,0,1.072,2.48,4.64,4.64,0,0,0,3.055.92,4.446,4.446,0,0,0,2.786-.8,2.9,2.9,0,0,0,.429-3.98,3.835,3.835,0,0,0-2-.99l-1.737-.41a5.015,5.015,0,0,1-1.581-.57,0.983,0.983,0,0,1-.394-0.86,1.5,1.5,0,0,1,.59-1.29,2.892,2.892,0,0,1,1.73-.44,2.791,2.791,0,0,1,1.761.51,2,2,0,0,1,.743,1.46h1.241Zm5.391,6.47a2.53,2.53,0,0,0,.312-0.33,1.631,1.631,0,0,0,.292.72,1.237,1.237,0,0,0,1,.38,2.5,2.5,0,0,0,.333-0.04,3.8,3.8,0,0,0,.373-0.11v-0.89a2.294,2.294,0,0,1-.228.04,1.468,1.468,0,0,1-.159.02,0.426,0.426,0,0,1-.3-0.11,0.421,0.421,0,0,1-.112-0.3v-4a2.044,2.044,0,0,0-.692-1.67,3.1,3.1,0,0,0-2.015-.58,3.4,3.4,0,0,0-2.158.61,2.4,2.4,0,0,0-.841,1.79h1.126a1.531,1.531,0,0,1,.513-1.04,1.815,1.815,0,0,1,1.177-.35,2.014,2.014,0,0,1,1.228.33,1.07,1.07,0,0,1,.441.91v0.07a0.807,0.807,0,0,1-.129.46,0.62,0.62,0,0,1-.366.24,2.347,2.347,0,0,1-.387.07l-1.662.21a2.953,2.953,0,0,0-1.714.72,2.09,2.09,0,0,0-.586,1.56,1.978,1.978,0,0,0,.624,1.54,2.408,2.408,0,0,0,1.689.57h0a3.222,3.222,0,0,0,2.239-.82h0Zm0.271-1.82a1.5,1.5,0,0,1-.04.28,1.77,1.77,0,0,1-.6.82,2.548,2.548,0,0,1-1.628.53,1.155,1.155,0,0,1-1.276-1.27,0.92,0.92,0,0,1,.407-0.79,3.012,3.012,0,0,1,1.289-.41l1.12-.16a2.547,2.547,0,0,0,.753-0.23v0.79h0a4.189,4.189,0,0,1-.021.44h0Zm2.749,2.44h1.221v-3.89a2.88,2.88,0,0,1,.516-1.81,1.659,1.659,0,0,1,1.4-.67,1.522,1.522,0,0,1,1.2.42,2.125,2.125,0,0,1,.37,1.39v4.56h1.221v-4.98a2.526,2.526,0,0,0-4.492-1.57l-0.271.36v-1.08h-1.16v7.27h0Zm11.914-.76,0.156-.23v0.99h1.133v-9.99h-1.221v3.78l-0.095-.14a2.439,2.439,0,0,0-2.117-1.14,2.7,2.7,0,0,0-2.178,1.01,4,4,0,0,0-.834,2.64,4.633,4.633,0,0,0,.862,2.95,2.793,2.793,0,0,0,2.32,1.09h0a2.389,2.389,0,0,0,1.974-.96h0Zm-0.444-4.82a4.284,4.284,0,0,1,.512,2.29,2.7,2.7,0,0,1-.543,1.77,1.742,1.742,0,0,1-1.431.67,1.685,1.685,0,0,1-1.462-.72,4.626,4.626,0,0,1-.038-4.16,1.717,1.717,0,0,1,1.5-.65A1.624,1.624,0,0,1,201.775,2047.39Zm3.043,5.58h1.222v-3.89a2.46,2.46,0,0,1,.539-1.7,1.98,1.98,0,0,1,1.53-.59l0.251,0.01v-1.25a0.873,0.873,0,0,0-.346-0.07,2.046,2.046,0,0,0-1.7.94,3.4,3.4,0,0,0-.332.53v-1.25h-1.161v7.27h0Zm6.86,0.2a3.088,3.088,0,0,0,2.449-1.06,4.635,4.635,0,0,0,0-5.57,3.348,3.348,0,0,0-4.888,0,4.623,4.623,0,0,0,0,5.57,3.084,3.084,0,0,0,2.439,1.06h0Zm0-1.05a1.8,1.8,0,0,1-1.53-.76,3.923,3.923,0,0,1,0-4.06,1.924,1.924,0,0,1,3.064,0,3.906,3.906,0,0,1,0,4.06,1.811,1.811,0,0,1-1.534.76h0Zm7.648,0.85H223.4a4.073,4.073,0,0,0,2.65-.78,2.666,2.666,0,0,0,.953-2.18,2.326,2.326,0,0,0-.977-1.98,3.742,3.742,0,0,0-.862-0.44,2.537,2.537,0,0,0,.455-0.28,2.287,2.287,0,0,0,.923-1.94,2.148,2.148,0,0,0-.781-1.73,3.074,3.074,0,0,0-2.055-.66h-4.383v9.99h0Zm1.35-8.83h2.585a2.5,2.5,0,0,1,1.472.35,1.28,1.28,0,0,1,.468,1.1,1.477,1.477,0,0,1-.509,1.25,2.58,2.58,0,0,1-1.608.4h-2.408v-3.1h0Zm0,4.19h2.653a3.157,3.157,0,0,1,1.77.39,1.4,1.4,0,0,1,.564,1.24,1.733,1.733,0,0,1-.54,1.41,2.628,2.628,0,0,1-1.7.45h-2.748v-3.49h0Zm10.191,4.84a3.089,3.089,0,0,0,2.449-1.06,4.635,4.635,0,0,0,0-5.57,3.348,3.348,0,0,0-4.888,0,4.623,4.623,0,0,0,0,5.57,3.084,3.084,0,0,0,2.439,1.06h0Zm0-1.05a1.8,1.8,0,0,1-1.53-.76,3.917,3.917,0,0,1,0-4.06,1.923,1.923,0,0,1,3.063,0,3.9,3.9,0,0,1,0,4.06,1.81,1.81,0,0,1-1.533.76h0Zm6.88-.1h-0.434a0.892,0.892,0,0,1-.519-0.14,0.458,0.458,0,0,1-.193-0.39v-4.79h1.146v-1H236.6v-2.04h-1.222v2.04h-1v1h1v4.79a1.787,1.787,0,0,0,.329,1.22,1.521,1.521,0,0,0,1.13.35,7.169,7.169,0,0,0,.909-0.09h0v-0.95Zm0.679,0.95h1.221v-7.27h-1.221v7.27h0Zm-0.013-8.6h1.248v-1.39h-1.248v1.39Zm7.056,5.99a2.349,2.349,0,0,1-.634,1.3,1.819,1.819,0,0,1-2.643-.24,3.666,3.666,0,0,1-.488-2.09,3.507,3.507,0,0,1,.526-2.05,1.687,1.687,0,0,1,1.448-.74,1.665,1.665,0,0,1,1.791,1.64h1.174a2.727,2.727,0,0,0-.835-1.98,2.958,2.958,0,0,0-2.089-.72,2.988,2.988,0,0,0-2.4,1.05,4.159,4.159,0,0,0-.892,2.8,4.25,4.25,0,0,0,.862,2.8,2.851,2.851,0,0,0,2.307,1.04,2.94,2.94,0,0,0,2.076-.72,3.377,3.377,0,0,0,.97-2.09h-1.174Zm6.894,2.18a3.079,3.079,0,0,0,1.086-1.82h-1.208a1.571,1.571,0,0,1-.638,1,1.93,1.93,0,0,1-1.22.4,1.879,1.879,0,0,1-1.628-.7,3.132,3.132,0,0,1-.5-1.65h5.3l0.014-.44a4.251,4.251,0,0,0-.875-2.79,2.856,2.856,0,0,0-2.3-1.06,3.153,3.153,0,0,0-2.507,1.09,4.309,4.309,0,0,0-.933,2.92,3.878,3.878,0,0,0,.882,2.7,3.106,3.106,0,0,0,2.423.98h0A3.328,3.328,0,0,0,252.363,2052.54Zm-4.1-3.76a2.779,2.779,0,0,1,.55-1.48,1.874,1.874,0,0,1,1.54-.72,1.76,1.76,0,0,1,1.453.62,2.764,2.764,0,0,1,.5,1.58H248.26Zm6.248,4.19h1.221v-9.99h-1.221v9.99h0Zm2.531,0h1.221v-9.99h-1.221v9.99h0Zm2.545,0h1.221v-7.27h-1.221v7.27h0Zm-0.014-8.6h1.248v-1.39H259.57v1.39Zm-82.483,36.41h1.35v-8.79h3.372v-1.2h-8.094v1.2h3.372v8.79h0Zm5.266,0h1.221v-3.89a2.808,2.808,0,0,1,.543-1.82,1.8,1.8,0,0,1,1.465-.67,1.438,1.438,0,0,1,1.126.4,1.977,1.977,0,0,1,.346,1.3v4.68h1.222v-4.98a2.27,2.27,0,0,0-2.5-2.51,2.506,2.506,0,0,0-1.988.93l-0.21.27v-3.7h-1.221v9.99h0Zm12.226-.43a3.075,3.075,0,0,0,1.086-1.83h-1.208a1.6,1.6,0,0,1-.637,1.01,1.986,1.986,0,0,1-1.221.39,1.9,1.9,0,0,1-1.627-.69,3.123,3.123,0,0,1-.5-1.66h5.3l0.015-.43a4.251,4.251,0,0,0-.876-2.79,2.827,2.827,0,0,0-2.3-1.06,3.145,3.145,0,0,0-2.507,1.08,4.344,4.344,0,0,0-.932,2.92,3.905,3.905,0,0,0,.882,2.71,3.1,3.1,0,0,0,2.422.98h0A3.326,3.326,0,0,0,194.579,2080.35Zm-4.1-3.76a2.773,2.773,0,0,1,.549-1.49,1.874,1.874,0,0,1,1.541-.72,1.738,1.738,0,0,1,1.452.63,2.732,2.732,0,0,1,.5,1.58h-4.044Zm9.653,4.19h4.078a4.016,4.016,0,0,0,2.649-.79,2.656,2.656,0,0,0,.953-2.17,2.3,2.3,0,0,0-.977-1.98,3.087,3.087,0,0,0-.861-0.44,2.529,2.529,0,0,0,.454-0.28,2.318,2.318,0,0,0,.923-1.95,2.128,2.128,0,0,0-.78-1.72,3.077,3.077,0,0,0-2.056-.66H200.13v9.99h0Zm1.35-8.84h2.585a2.5,2.5,0,0,1,1.473.35,1.292,1.292,0,0,1,.468,1.1,1.514,1.514,0,0,1-.509,1.26,2.652,2.652,0,0,1-1.608.39H201.48v-3.1h0Zm0,4.2h2.653a3.163,3.163,0,0,1,1.771.39,1.392,1.392,0,0,1,.563,1.23,1.744,1.744,0,0,1-.539,1.42,2.7,2.7,0,0,1-1.7.44H201.48v-3.48h0Zm7.274,4.64h1.221v-7.27h-1.221v7.27h0Zm-0.014-8.6h1.249v-1.39H208.74v1.39Zm2.674,8.6h1.221v-3.89a2.443,2.443,0,0,1,.54-1.7,1.949,1.949,0,0,1,1.53-.6l0.251,0.01v-1.25a1.073,1.073,0,0,0-.346-0.06,2.06,2.06,0,0,0-1.7.93,4.7,4.7,0,0,0-.333.53v-1.24h-1.16v7.27h0Zm6.568-.95h-0.434a0.825,0.825,0,0,1-.519-0.15,0.44,0.44,0,0,1-.193-0.38v-4.79h1.146v-1h-1.146v-2.04h-1.222v2.04h-1v1h1v4.79a1.758,1.758,0,0,0,.329,1.21,1.481,1.481,0,0,0,1.13.36,6,6,0,0,0,.909-0.1h0v-0.94Zm0.639,0.95h1.221v-3.89a2.808,2.808,0,0,1,.543-1.82,1.8,1.8,0,0,1,1.465-.67,1.438,1.438,0,0,1,1.126.4,1.977,1.977,0,0,1,.346,1.3v4.68h1.222v-4.98a2.27,2.27,0,0,0-2.5-2.51,2.506,2.506,0,0,0-1.988.93l-0.21.27v-3.7h-1.221v9.99h0Zm13.434,0.2a3.122,3.122,0,0,0,2.45-1.06,4.639,4.639,0,0,0,0-5.57,3.349,3.349,0,0,0-4.889,0,4.623,4.623,0,0,0,0,5.57,3.116,3.116,0,0,0,2.439,1.06h0Zm0-1.06a1.818,1.818,0,0,1-1.53-.75,3.941,3.941,0,0,1,0-4.07,1.924,1.924,0,0,1,3.064,0,3.918,3.918,0,0,1,0,4.07,1.827,1.827,0,0,1-1.534.75h0Zm6.948-5.4v-1.01h-1.214v-0.89a0.957,0.957,0,0,1,.19-0.64,0.645,0.645,0,0,1,.543-0.23l0.481,0.02v-1.1l-0.536-.02a2.147,2.147,0,0,0-1.424.4,1.532,1.532,0,0,0-.475,1.22v1.24h-1v1.01h1v6.26h1.221v-6.26H239Zm6.881,6.26h1.452l3.63-9.99h-1.5l-2.85,8.54h-0.007l-2.858-8.54h-1.5Zm10.761-.43a3.075,3.075,0,0,0,1.086-1.83h-1.208a1.6,1.6,0,0,1-.637,1.01,1.984,1.984,0,0,1-1.221.39,1.9,1.9,0,0,1-1.627-.69,3.123,3.123,0,0,1-.5-1.66h5.3l0.015-.43a4.251,4.251,0,0,0-.876-2.79,2.827,2.827,0,0,0-2.3-1.06,3.142,3.142,0,0,0-2.506,1.08,4.344,4.344,0,0,0-.933,2.92,3.905,3.905,0,0,0,.882,2.71,3.1,3.1,0,0,0,2.422.98h0A3.326,3.326,0,0,0,256.645,2080.35Zm-4.1-3.76a2.773,2.773,0,0,1,.549-1.49,1.874,1.874,0,0,1,1.541-.72,1.735,1.735,0,0,1,1.452.63,2.732,2.732,0,0,1,.5,1.58h-4.044Zm6.22,4.19h1.221v-3.89a2.911,2.911,0,0,1,.516-1.82,1.686,1.686,0,0,1,1.4-.67,1.525,1.525,0,0,1,1.2.43,2.076,2.076,0,0,1,.369,1.38v4.57h1.222v-4.98a2.27,2.27,0,0,0-2.5-2.51,2.506,2.506,0,0,0-1.988.93l-0.271.36v-1.07h-1.16v7.27h0Zm8.434-7.27h-1.222v4.99a2.188,2.188,0,0,0,2.47,2.48,2.447,2.447,0,0,0,1.954-.93,3.553,3.553,0,0,0,.271-0.38v1.11h1.16v-7.27h-1.221v3.88a3.011,3.011,0,0,1-.515,1.85,1.646,1.646,0,0,1-1.4.68,1.447,1.447,0,0,1-1.147-.4,2,2,0,0,1-.352-1.32v-4.69h0Zm11.214,2.1a2.221,2.221,0,0,0-.8-1.7,3.089,3.089,0,0,0-2.018-.62,3.018,3.018,0,0,0-1.977.6,2.006,2.006,0,0,0-.73,1.63,1.651,1.651,0,0,0,.436,1.22,2.945,2.945,0,0,0,1.459.69l1.262,0.3a3.617,3.617,0,0,1,1.119.39,0.669,0.669,0,0,1,.278.58,1.059,1.059,0,0,1-.424.91,2.074,2.074,0,0,1-1.246.31,2.326,2.326,0,0,1-1.4-.34,1.561,1.561,0,0,1-.547-1.13h-1.174a2.557,2.557,0,0,0,.835,1.92,3.629,3.629,0,0,0,2.287.61,3.185,3.185,0,0,0,2.1-.64,2.085,2.085,0,0,0,.777-1.71,1.7,1.7,0,0,0-.45-1.26,3.222,3.222,0,0,0-1.513-.71l-1.263-.3a3.608,3.608,0,0,1-1.106-.39,0.677,0.677,0,0,1-.278-0.59,0.868,0.868,0,0,1,.4-0.77,2.059,2.059,0,0,1,1.157-.27,1.852,1.852,0,0,1,1.178.34,1.246,1.246,0,0,1,.492.93h1.147Z"/>
  </g>
</svg>
