<svg id="Dada" xmlns="http://www.w3.org/2000/svg" width="3000" height="3000" viewBox="0 0 3000 3000">
  <defs>
    <style>
      .cls-1 {
        fill: #575861;
      }

      .cls-2 {
        fill: #e4e1da;
      }

      .cls-2, .cls-3 {
        fill-rule: evenodd;
      }

      .cls-3 {
        fill: #31323d;
      }
    </style>
  </defs>
  <g id="dada-placard-womansun">
    <rect id="Rectangle_2_copy" data-name="Rectangle 2 copy" class="cls-1" x="155" y="1980" width="291" height="187"/>
    <path id="Rectangle_2_copy_2" data-name="Rectangle 2 copy 2" class="cls-2" d="M159.98,1984.99H441.02v177.02H159.98V1984.99Z"/>
    <path id="dada.nyc" class="cls-3" d="M187.636,2123.36l0.415-.6v2.64h3.012v-26.56h-3.246v10.03l-0.253-.36a6.475,6.475,0,0,0-5.628-3.02,7.169,7.169,0,0,0-5.79,2.67,10.673,10.673,0,0,0-2.218,7.03,12.281,12.281,0,0,0,2.29,7.83,7.434,7.434,0,0,0,6.169,2.9h0a6.337,6.337,0,0,0,5.249-2.56h0Zm-1.181-12.8a11.359,11.359,0,0,1,1.362,6.09,7.251,7.251,0,0,1-1.443,4.71,4.651,4.651,0,0,1-3.806,1.78,4.465,4.465,0,0,1-3.888-1.93,9.5,9.5,0,0,1-1.361-5.51q0-3.795,1.262-5.54a4.594,4.594,0,0,1,3.987-1.74A4.34,4.34,0,0,1,186.455,2110.56Zm17.2,13.18a7.322,7.322,0,0,0,.83-0.87,4.282,4.282,0,0,0,.776,1.9,3.271,3.271,0,0,0,2.669,1.01,4.679,4.679,0,0,0,.884-0.11,6.139,6.139,0,0,0,.992-0.29v-2.35a5.2,5.2,0,0,1-.6.11c-0.187.02-.328,0.04-0.424,0.04a1.081,1.081,0,0,1-.8-0.3,1.069,1.069,0,0,1-.3-0.79v-10.62a5.442,5.442,0,0,0-1.84-4.45,8.189,8.189,0,0,0-5.357-1.53,8.978,8.978,0,0,0-5.736,1.6,6.38,6.38,0,0,0-2.237,4.78H195.5a4.117,4.117,0,0,1,1.362-2.78,4.783,4.783,0,0,1,3.13-.93,5.384,5.384,0,0,1,3.265.88,2.854,2.854,0,0,1,1.172,2.43v0.16a2.063,2.063,0,0,1-.343,1.23,1.629,1.629,0,0,1-.974.65,5.555,5.555,0,0,1-1.028.18l-4.419.56a7.622,7.622,0,0,0-4.555,1.92,5.526,5.526,0,0,0-1.56,4.13,5.3,5.3,0,0,0,1.66,4.11,6.4,6.4,0,0,0,4.491,1.51h0a8.618,8.618,0,0,0,5.952-2.18h0Zm0.722-4.85a3.767,3.767,0,0,1-.108.75,4.742,4.742,0,0,1-1.606,2.2,6.767,6.767,0,0,1-4.329,1.39,3.386,3.386,0,0,1-2.507-.88,3.348,3.348,0,0,1-.884-2.5,2.413,2.413,0,0,1,1.082-2.08,7.89,7.89,0,0,1,3.428-1.1l2.976-.43a6.957,6.957,0,0,0,2-.6v2.1h0a11.1,11.1,0,0,1-.054,1.15h0Zm18.437,4.47,0.415-.6v2.64h3.012v-26.56H223v10.03l-0.252-.36a6.475,6.475,0,0,0-5.628-3.02,7.169,7.169,0,0,0-5.79,2.67,10.673,10.673,0,0,0-2.218,7.03,12.281,12.281,0,0,0,2.29,7.83,7.434,7.434,0,0,0,6.169,2.9h0a6.337,6.337,0,0,0,5.249-2.56h0Zm-1.181-12.8a11.36,11.36,0,0,1,1.361,6.09,7.245,7.245,0,0,1-1.443,4.71,4.648,4.648,0,0,1-3.8,1.78,4.465,4.465,0,0,1-3.888-1.93,9.5,9.5,0,0,1-1.361-5.51q0-3.795,1.262-5.54a4.594,4.594,0,0,1,3.987-1.74A4.34,4.34,0,0,1,221.634,2110.56Zm17.2,13.18a7.322,7.322,0,0,0,.83-0.87,4.282,4.282,0,0,0,.776,1.9,3.271,3.271,0,0,0,2.669,1.01,4.679,4.679,0,0,0,.884-0.11,6.139,6.139,0,0,0,.992-0.29v-2.35a5.2,5.2,0,0,1-.6.11c-0.187.02-.328,0.04-0.424,0.04a1.081,1.081,0,0,1-.8-0.3,1.069,1.069,0,0,1-.3-0.79v-10.62a5.442,5.442,0,0,0-1.84-4.45,8.189,8.189,0,0,0-5.357-1.53,8.978,8.978,0,0,0-5.736,1.6,6.38,6.38,0,0,0-2.237,4.78h2.994a4.117,4.117,0,0,1,1.362-2.78,4.783,4.783,0,0,1,3.13-.93,5.384,5.384,0,0,1,3.265.88,2.854,2.854,0,0,1,1.172,2.43v0.16a2.063,2.063,0,0,1-.343,1.23,1.629,1.629,0,0,1-.974.65,5.555,5.555,0,0,1-1.028.18l-4.419.56a7.622,7.622,0,0,0-4.555,1.92,5.526,5.526,0,0,0-1.56,4.13,5.3,5.3,0,0,0,1.66,4.11,6.4,6.4,0,0,0,4.491,1.51h0a8.618,8.618,0,0,0,5.952-2.18h0Zm0.722-4.85a3.767,3.767,0,0,1-.108.75,4.742,4.742,0,0,1-1.606,2.2,6.767,6.767,0,0,1-4.329,1.39,3.386,3.386,0,0,1-2.507-.88,3.348,3.348,0,0,1-.884-2.5,2.413,2.413,0,0,1,1.082-2.08,7.89,7.89,0,0,1,3.428-1.1l2.976-.43a6.957,6.957,0,0,0,2-.6v2.1h0a11.1,11.1,0,0,1-.054,1.15h0Zm6.641,6.51h3.86v-3.92H246.2v3.92Zm6.5,0h3.247v-10.35a7.706,7.706,0,0,1,1.371-4.82,4.457,4.457,0,0,1,3.715-1.78,4.028,4.028,0,0,1,3.184,1.13,5.56,5.56,0,0,1,.983,3.68v12.14h3.247v-13.24a6.731,6.731,0,0,0-11.941-4.2l-0.722.96v-2.85h-3.084v19.33h0Zm33.246-19.33h-3.556l-5.227,15.99h0l-5.153-15.99H268.3l7.162,19.65v0.01l-0.054.3a13.153,13.153,0,0,1-1.677,3.38,2.29,2.29,0,0,1-1.84.9,5.712,5.712,0,0,1-1.858-.28v3.01a4.862,4.862,0,0,0,1.569.2,5.308,5.308,0,0,0,3.977-1.37c0.884-.92,1.891-2.86,3.021-5.84l7.341-19.96h0Zm11.962,12.37a6.179,6.179,0,0,1-1.687,3.46,4.838,4.838,0,0,1-7.025-.64,9.712,9.712,0,0,1-1.3-5.55,9.285,9.285,0,0,1,1.4-5.44,4.46,4.46,0,0,1,3.851-1.98,4.723,4.723,0,0,1,3.319,1.14,4.791,4.791,0,0,1,1.443,3.21h3.12a7.218,7.218,0,0,0-2.218-5.24,7.851,7.851,0,0,0-5.556-1.91,7.956,7.956,0,0,0-6.376,2.77,11.089,11.089,0,0,0-2.372,7.45,11.312,11.312,0,0,0,2.291,7.45,7.561,7.561,0,0,0,6.132,2.76,7.844,7.844,0,0,0,5.52-1.91,8.965,8.965,0,0,0,2.579-5.57H297.9Z"/>
    <path id="Pinasco_Lorena_Joan_Miró_Woman_in_Front_of_the_Sun" data-name="Pinasco Lorena Joan Miró Woman in Front of the Sun" class="cls-3" d="M174.713,2025.17h1.35v-4.2c0.737-.02,1.741-0.02,3.012-0.02a3.082,3.082,0,0,0,2.27-.8,2.953,2.953,0,0,0,.817-2.22,2.573,2.573,0,0,0-.817-2.02,3.275,3.275,0,0,0-2.27-.73h-4.362v9.99h0Zm1.35-8.84h2.68a2.463,2.463,0,0,1,1.54.39,1.5,1.5,0,0,1,.488,1.24,1.785,1.785,0,0,1-.488,1.39,2.222,2.222,0,0,1-1.54.45h-2.68v-3.47Zm7.111,8.84H184.4v-7.27h-1.221v7.27h0Zm-0.014-8.61h1.248v-1.38H183.16v1.38Zm2.5,8.61h1.221v-3.9a2.9,2.9,0,0,1,.516-1.81,1.689,1.689,0,0,1,1.4-.67,1.522,1.522,0,0,1,1.2.43,2.07,2.07,0,0,1,.37,1.38v4.57h1.221v-4.98a2.531,2.531,0,0,0-4.491-1.58l-0.272.36v-1.07h-1.16v7.27h0Zm11.324-.63a2.467,2.467,0,0,0,.312-0.32,1.638,1.638,0,0,0,.292.71,1.237,1.237,0,0,0,1,.38,1.5,1.5,0,0,0,.333-0.04,2.209,2.209,0,0,0,.373-0.11v-0.88a2.277,2.277,0,0,1-.227.04,1.07,1.07,0,0,1-.16.01,0.426,0.426,0,0,1-.3-0.11,0.394,0.394,0,0,1-.112-0.3v-3.99a2.062,2.062,0,0,0-.692-1.68,3.1,3.1,0,0,0-2.015-.57,3.391,3.391,0,0,0-2.157.6,2.4,2.4,0,0,0-.842,1.8h1.127a1.573,1.573,0,0,1,.512-1.05,1.815,1.815,0,0,1,1.177-.35,2.012,2.012,0,0,1,1.228.33,1.088,1.088,0,0,1,.441.92v0.06a0.764,0.764,0,0,1-.129.46,0.634,0.634,0,0,1-.366.25,2.337,2.337,0,0,1-.387.06l-1.662.22a2.824,2.824,0,0,0-1.713.72,2.063,2.063,0,0,0-.587,1.55,1.978,1.978,0,0,0,.624,1.54,2.413,2.413,0,0,0,1.689.58h0a3.228,3.228,0,0,0,2.239-.83h0Zm0.272-1.82a1.36,1.36,0,0,1-.041.28,1.794,1.794,0,0,1-.6.83,2.542,2.542,0,0,1-1.628.52,1.28,1.28,0,0,1-.943-0.33,1.26,1.26,0,0,1-.333-0.94,0.9,0.9,0,0,1,.407-0.78,2.881,2.881,0,0,1,1.289-.41l1.12-.17a2.539,2.539,0,0,0,.753-0.22v0.79h0a4.287,4.287,0,0,1-.02.43h0Zm8.052-2.72a2.218,2.218,0,0,0-.8-1.7,3.087,3.087,0,0,0-2.018-.62,3.018,3.018,0,0,0-1.977.6,2,2,0,0,0-.729,1.63,1.655,1.655,0,0,0,.435,1.22,3.037,3.037,0,0,0,1.459.69l1.262,0.3a3.637,3.637,0,0,1,1.12.39,0.659,0.659,0,0,1,.278.58,1.06,1.06,0,0,1-.425.91,2.071,2.071,0,0,1-1.245.31,2.331,2.331,0,0,1-1.4-.34,1.579,1.579,0,0,1-.546-1.13h-1.174a2.553,2.553,0,0,0,.834,1.92,3.631,3.631,0,0,0,2.287.61,3.241,3.241,0,0,0,2.1-.64,2.085,2.085,0,0,0,.777-1.71,1.707,1.707,0,0,0-.449-1.26,3.226,3.226,0,0,0-1.514-.71l-1.262-.3a3.6,3.6,0,0,1-1.106-.39,0.675,0.675,0,0,1-.278-0.59,0.856,0.856,0,0,1,.4-0.77,2.055,2.055,0,0,1,1.157-.27,1.849,1.849,0,0,1,1.177.34,1.246,1.246,0,0,1,.492.93h1.147Zm5.64,2.55a2.316,2.316,0,0,1-.634,1.3,1.819,1.819,0,0,1-2.643-.24,3.63,3.63,0,0,1-.488-2.08,3.486,3.486,0,0,1,.526-2.05,1.673,1.673,0,0,1,1.448-.75,1.665,1.665,0,0,1,1.791,1.64h1.174a2.687,2.687,0,0,0-.835-1.97,2.958,2.958,0,0,0-2.089-.72,3.011,3.011,0,0,0-2.4,1.04,4.187,4.187,0,0,0-.892,2.81,4.268,4.268,0,0,0,.862,2.8,2.851,2.851,0,0,0,2.307,1.04,2.9,2.9,0,0,0,2.076-.73,3.351,3.351,0,0,0,.97-2.09h-1.174Zm4.8,2.82a3.1,3.1,0,0,0,2.449-1.07,4.624,4.624,0,0,0,0-5.56,3.349,3.349,0,0,0-4.889,0,4.612,4.612,0,0,0,0,5.56,3.093,3.093,0,0,0,2.44,1.07h0Zm0-1.06a1.816,1.816,0,0,1-1.53-.75,3.935,3.935,0,0,1,0-4.07,1.923,1.923,0,0,1,3.063,0,3.918,3.918,0,0,1,0,4.07,1.826,1.826,0,0,1-1.533.75h0Zm14.079,0.86v-1.2h-5.055v-8.79h-1.35v9.99h6.405Zm3.569,0.2a3.1,3.1,0,0,0,2.449-1.07,4.62,4.62,0,0,0,0-5.56,3.348,3.348,0,0,0-4.888,0,4.608,4.608,0,0,0,0,5.56,3.092,3.092,0,0,0,2.439,1.07h0Zm0-1.06a1.818,1.818,0,0,1-1.53-.75,3.941,3.941,0,0,1,0-4.07,1.924,1.924,0,0,1,3.064,0,3.924,3.924,0,0,1,0,4.07,1.828,1.828,0,0,1-1.534.75h0Zm4.384,0.86H239v-3.9a2.438,2.438,0,0,1,.539-1.69,1.952,1.952,0,0,1,1.53-.6l0.251,0.01v-1.25a1.068,1.068,0,0,0-.346-0.06,2.061,2.061,0,0,0-1.7.93,4.842,4.842,0,0,0-.332.53v-1.24h-1.16v7.27h0Zm8.956-.43a3.075,3.075,0,0,0,1.086-1.83h-1.208a1.618,1.618,0,0,1-.638,1.01,1.983,1.983,0,0,1-1.22.39,1.9,1.9,0,0,1-1.628-.69,3.141,3.141,0,0,1-.5-1.66h5.3l0.014-.43a4.232,4.232,0,0,0-.875-2.79,2.827,2.827,0,0,0-2.3-1.06,3.145,3.145,0,0,0-2.507,1.08,4.344,4.344,0,0,0-.933,2.92,3.922,3.922,0,0,0,.882,2.71,3.106,3.106,0,0,0,2.423.98h0A3.328,3.328,0,0,0,246.738,2024.74Zm-4.1-3.76a2.782,2.782,0,0,1,.55-1.49,1.874,1.874,0,0,1,1.54-.72,1.735,1.735,0,0,1,1.452.63,2.707,2.707,0,0,1,.5,1.58h-4.045Zm6.22,4.19h1.222v-3.9a2.9,2.9,0,0,1,.515-1.81,1.689,1.689,0,0,1,1.4-.67,1.521,1.521,0,0,1,1.2.43,2.07,2.07,0,0,1,.37,1.38v4.57h1.221v-4.98a2.531,2.531,0,0,0-4.491-1.58l-0.271.36v-1.07h-1.161v7.27h0Zm11.325-.63a2.605,2.605,0,0,0,.312-0.32,1.638,1.638,0,0,0,.291.71,1.238,1.238,0,0,0,1,.38,1.488,1.488,0,0,0,.332-0.04,2.209,2.209,0,0,0,.373-0.11v-0.88a2.228,2.228,0,0,1-.227.04,1.056,1.056,0,0,1-.16.01,0.428,0.428,0,0,1-.3-0.11,0.393,0.393,0,0,1-.111-0.3v-3.99a2.062,2.062,0,0,0-.693-1.68,3.1,3.1,0,0,0-2.015-.57,3.391,3.391,0,0,0-2.157.6,2.4,2.4,0,0,0-.841,1.8h1.126a1.578,1.578,0,0,1,.512-1.05,1.817,1.817,0,0,1,1.177-.35,2.012,2.012,0,0,1,1.228.33,1.088,1.088,0,0,1,.441.92v0.06a0.764,0.764,0,0,1-.129.46,0.634,0.634,0,0,1-.366.25,2.337,2.337,0,0,1-.387.06l-1.662.22a2.824,2.824,0,0,0-1.713.72,2.067,2.067,0,0,0-.587,1.55,1.978,1.978,0,0,0,.624,1.54,2.414,2.414,0,0,0,1.69.58h0a3.23,3.23,0,0,0,2.239-.83h0Zm0.271-1.82a1.36,1.36,0,0,1-.041.28,1.787,1.787,0,0,1-.6.83,2.542,2.542,0,0,1-1.628.52,1.282,1.282,0,0,1-.943-0.33,1.259,1.259,0,0,1-.332-0.94,0.9,0.9,0,0,1,.407-0.78,2.876,2.876,0,0,1,1.289-.41l1.119-.17a2.539,2.539,0,0,0,.753-0.22v0.79h0a4.287,4.287,0,0,1-.02.43h0Zm-82.333,27.45a2.166,2.166,0,0,1-.427,1.41,1.442,1.442,0,0,1-1.16.52,1.467,1.467,0,0,1-1.12-.43,1.771,1.771,0,0,1-.393-1.23v-0.69h-1.262v0.69a2.585,2.585,0,0,0,.7,2.06,2.938,2.938,0,0,0,2.157.75,2.725,2.725,0,0,0,2.114-.81,3.208,3.208,0,0,0,.743-2.27v-7.19h-1.351v7.19Zm5.653,3a3.089,3.089,0,0,0,2.449-1.06,4.639,4.639,0,0,0,0-5.57,3.348,3.348,0,0,0-4.888,0,4.623,4.623,0,0,0,0,5.57,3.081,3.081,0,0,0,2.439,1.06h0Zm0-1.05a1.8,1.8,0,0,1-1.53-.76,3.917,3.917,0,0,1,0-4.06,1.923,1.923,0,0,1,3.063,0,3.9,3.9,0,0,1,0,4.06,1.81,1.81,0,0,1-1.533.76h0Zm8.366,0.23a2.673,2.673,0,0,0,.312-0.33,1.631,1.631,0,0,0,.292.72,1.236,1.236,0,0,0,1,.38,2.473,2.473,0,0,0,.332-0.04,3.721,3.721,0,0,0,.373-0.11v-0.89a2.228,2.228,0,0,1-.227.04,1.468,1.468,0,0,1-.159.02,0.383,0.383,0,0,1-.414-0.41v-4a2.044,2.044,0,0,0-.692-1.67,3.1,3.1,0,0,0-2.015-.58,3.392,3.392,0,0,0-2.158.61,2.4,2.4,0,0,0-.841,1.79h1.126a1.535,1.535,0,0,1,.512-1.04,1.817,1.817,0,0,1,1.177-.35,2.012,2.012,0,0,1,1.228.33,1.07,1.07,0,0,1,.441.91v0.07a0.814,0.814,0,0,1-.128.46,0.622,0.622,0,0,1-.367.24,2.329,2.329,0,0,1-.387.07l-1.662.21a2.947,2.947,0,0,0-1.713.72,2.09,2.09,0,0,0-.587,1.56,1.978,1.978,0,0,0,.624,1.54,2.411,2.411,0,0,0,1.69.57h0a3.222,3.222,0,0,0,2.239-.82h0Zm0.271-1.82a1.484,1.484,0,0,1-.041.28,1.76,1.76,0,0,1-.6.82,2.553,2.553,0,0,1-1.629.53,1.154,1.154,0,0,1-1.275-1.27,0.918,0.918,0,0,1,.407-0.79,3.007,3.007,0,0,1,1.289-.41l1.119-.16a2.547,2.547,0,0,0,.753-0.23v0.79h0a4.206,4.206,0,0,1-.02.44h0Zm2.748,2.44h1.222v-3.89a2.886,2.886,0,0,1,.515-1.81,1.663,1.663,0,0,1,1.4-.67,1.518,1.518,0,0,1,1.2.42,2.119,2.119,0,0,1,.37,1.39v4.56h1.221v-4.98a2.525,2.525,0,0,0-4.491-1.57l-0.271.36v-1.08h-1.161v7.27h0Zm11.9-8.42h0l2.82,8.42h1.3l2.811-8.45h0v8.45h1.309v-9.99h-1.94l-2.827,8.51h0l-2.853-8.51h-1.941v9.99h1.31v-8.42Zm9.635,8.42h1.221v-7.27h-1.221v7.27h0Zm-0.014-8.6h1.248v-1.39h-1.248v1.39Zm2.674,8.6h1.221v-3.89a2.465,2.465,0,0,1,.539-1.7,1.981,1.981,0,0,1,1.53-.59l0.251,0.01v-1.25a0.87,0.87,0,0,0-.346-0.07,2.048,2.048,0,0,0-1.7.94,3.472,3.472,0,0,0-.332.53v-1.25h-1.16v7.27h0Zm6.86,0.2a3.089,3.089,0,0,0,2.449-1.06,4.639,4.639,0,0,0,0-5.57,3.348,3.348,0,0,0-4.888,0,4.623,4.623,0,0,0,0,5.57,3.083,3.083,0,0,0,2.439,1.06h0Zm0-1.05a1.8,1.8,0,0,1-1.53-.76,3.917,3.917,0,0,1,0-4.06,1.923,1.923,0,0,1,3.063,0,3.9,3.9,0,0,1,0,4.06,1.81,1.81,0,0,1-1.533.76h0Zm0.346-7.4,1.791-1.95h-1.5l-1.234,1.95h0.943Zm-49.479,36.06h0.726l2.115-7.73a3.542,3.542,0,0,0,.088-0.37,1.777,1.777,0,0,0,.034-0.28h0a1.4,1.4,0,0,0,.041.26c0.027,0.13.058,0.26,0.095,0.39l2.164,7.73H183.8l2.612-9.99h-1.452l-1.8,7.86c-0.031.13-.058,0.26-0.078,0.38a2.117,2.117,0,0,0-.03.27h0a1.777,1.777,0,0,0-.034-0.28,3.028,3.028,0,0,0-.088-0.37l-2.1-7.86h-1.519l-2.111,7.9a3.436,3.436,0,0,0-.082.36,1.675,1.675,0,0,0-.034.27h0a1.894,1.894,0,0,0-.031-0.26c-0.02-.12-0.046-0.24-0.078-0.37l-1.778-7.9h-1.459l2.612,9.99h0.726Zm12.858,0.2a3.121,3.121,0,0,0,2.449-1.06,4.635,4.635,0,0,0,0-5.57,3.348,3.348,0,0,0-4.888,0,4.623,4.623,0,0,0,0,5.57,3.116,3.116,0,0,0,2.439,1.06h0Zm0-1.06a1.818,1.818,0,0,1-1.53-.75,3.935,3.935,0,0,1,0-4.07,1.923,1.923,0,0,1,3.063,0,3.918,3.918,0,0,1,0,4.07,1.826,1.826,0,0,1-1.533.75h0Zm4.214,0.86h1.221v-3.89a2.906,2.906,0,0,1,.519-1.79,1.608,1.608,0,0,1,1.333-.7,1.119,1.119,0,0,1,.9.36,1.541,1.541,0,0,1,.309,1.04v4.98h1.221v-4.09a2.721,2.721,0,0,1,.468-1.67,1.508,1.508,0,0,1,1.262-.62,1.206,1.206,0,0,1,.991.43,2.016,2.016,0,0,1,.339,1.26v4.69h1.221v-5.1a2.381,2.381,0,0,0-4.261-1.47l-0.2.25a1.865,1.865,0,0,0-.4-0.59,2.078,2.078,0,0,0-1.553-.58,2.481,2.481,0,0,0-1.961.97l-0.251.33v-1.08h-1.16v7.27h0Zm15.171-.63a2.605,2.605,0,0,0,.312-0.32,1.587,1.587,0,0,0,.292.71,1.236,1.236,0,0,0,1,.38,1.488,1.488,0,0,0,.332-0.04,2.182,2.182,0,0,0,.373-0.11v-0.88a2.228,2.228,0,0,1-.227.04,1.051,1.051,0,0,1-.159.01,0.382,0.382,0,0,1-.414-0.4v-4a2.078,2.078,0,0,0-.692-1.68,3.1,3.1,0,0,0-2.015-.57,3.392,3.392,0,0,0-2.158.6,2.4,2.4,0,0,0-.841,1.8h1.126a1.535,1.535,0,0,1,.512-1.04,1.762,1.762,0,0,1,1.178-.35,2.014,2.014,0,0,1,1.228.33,1.07,1.07,0,0,1,.441.91v0.06a0.764,0.764,0,0,1-.129.46,0.591,0.591,0,0,1-.367.25c-0.122.03-.251,0.05-0.386,0.07l-1.663.21a2.824,2.824,0,0,0-1.713.72,2.067,2.067,0,0,0-.587,1.55,2.012,2.012,0,0,0,.625,1.55,2.408,2.408,0,0,0,1.689.57h0a3.23,3.23,0,0,0,2.239-.83h0Zm0.271-1.82a1.375,1.375,0,0,1-.04.28,1.746,1.746,0,0,1-.6.83,2.545,2.545,0,0,1-1.629.52,1.282,1.282,0,0,1-.943-0.33,1.263,1.263,0,0,1-.332-0.94,0.9,0.9,0,0,1,.407-0.78,3.007,3.007,0,0,1,1.289-.41l1.119-.17a2.555,2.555,0,0,0,.754-0.22v0.79h0a3.992,3.992,0,0,1-.021.43h0Zm2.749,2.45h1.221v-3.89a2.917,2.917,0,0,1,.515-1.82,1.689,1.689,0,0,1,1.4-.67,1.525,1.525,0,0,1,1.2.43,2.076,2.076,0,0,1,.369,1.38v4.57h1.222v-4.98a2.27,2.27,0,0,0-2.5-2.51,2.506,2.506,0,0,0-1.988.93l-0.271.36v-1.07h-1.16v7.27h0Zm10.517,0h1.221v-7.27H222.86v7.27h0Zm-0.014-8.6H224.1v-1.39h-1.249v1.39Zm2.5,8.6h1.222v-3.89a2.917,2.917,0,0,1,.515-1.82,1.689,1.689,0,0,1,1.4-.67,1.521,1.521,0,0,1,1.2.43,2.07,2.07,0,0,1,.37,1.38v4.57h1.221v-4.98a2.269,2.269,0,0,0-2.5-2.51,2.506,2.506,0,0,0-1.988.93l-0.271.36v-1.07H225.35v7.27h0Zm11.447,0h0.672v-4.55h4.865v-1.19h-4.865v-3.05h5.557v-1.2h-6.907v9.99H236.8Zm7.132,0h1.221v-3.89a2.448,2.448,0,0,1,.539-1.7,1.952,1.952,0,0,1,1.53-.6l0.251,0.01v-1.25a1.068,1.068,0,0,0-.346-0.06,2.061,2.061,0,0,0-1.7.93,4.842,4.842,0,0,0-.332.53v-1.24h-1.16v7.27h0Zm6.859,0.2a3.122,3.122,0,0,0,2.45-1.06,4.639,4.639,0,0,0,0-5.57,3.349,3.349,0,0,0-4.889,0,4.623,4.623,0,0,0,0,5.57,3.116,3.116,0,0,0,2.439,1.06h0Zm0-1.06a1.818,1.818,0,0,1-1.53-.75,3.941,3.941,0,0,1,0-4.07,1.924,1.924,0,0,1,3.064,0,3.918,3.918,0,0,1,0,4.07,1.827,1.827,0,0,1-1.534.75h0Zm4.214,0.86h1.222v-3.89a2.911,2.911,0,0,1,.515-1.82,1.689,1.689,0,0,1,1.4-.67,1.521,1.521,0,0,1,1.2.43,2.07,2.07,0,0,1,.37,1.38v4.57h1.221v-4.98a2.269,2.269,0,0,0-2.5-2.51,2.506,2.506,0,0,0-1.988.93l-0.272.36v-1.07H255v7.27h0Zm9.839-.95h-0.435a0.825,0.825,0,0,1-.519-0.15,0.44,0.44,0,0,1-.193-0.38v-4.79h1.147v-1h-1.147v-2.04h-1.221v2.04h-1v1h1v4.79a1.752,1.752,0,0,0,.329,1.21,1.478,1.478,0,0,0,1.129.36,6.019,6.019,0,0,0,.91-0.1h0v-0.94Zm6.9,1.15a3.121,3.121,0,0,0,2.449-1.06,4.635,4.635,0,0,0,0-5.57,3.348,3.348,0,0,0-4.888,0,4.623,4.623,0,0,0,0,5.57,3.116,3.116,0,0,0,2.439,1.06h0Zm0-1.06a1.816,1.816,0,0,1-1.53-.75,3.935,3.935,0,0,1,0-4.07,1.923,1.923,0,0,1,3.063,0,3.918,3.918,0,0,1,0,4.07,1.826,1.826,0,0,1-1.533.75h0Zm6.948-5.4v-1.01h-1.215v-0.89a0.962,0.962,0,0,1,.19-0.64,0.646,0.646,0,0,1,.543-0.23l0.482,0.02v-1.1l-0.536-.02a2.152,2.152,0,0,0-1.425.4,1.532,1.532,0,0,0-.475,1.22v1.24h-1v1.01h1v6.26h1.221v-6.26h1.215Zm6.541,5.31H284.8a0.825,0.825,0,0,1-.519-0.15,0.44,0.44,0,0,1-.193-0.38v-4.79h1.146v-1h-1.146v-2.04h-1.222v2.04h-1v1h1v4.79a1.752,1.752,0,0,0,.33,1.21,1.477,1.477,0,0,0,1.129.36,6,6,0,0,0,.909-0.1h0v-0.94Zm0.639,0.95h1.221v-3.89a2.808,2.808,0,0,1,.543-1.82,1.8,1.8,0,0,1,1.465-.67,1.438,1.438,0,0,1,1.126.4,1.977,1.977,0,0,1,.346,1.3v4.68h1.222v-4.98a2.27,2.27,0,0,0-2.5-2.51,2.506,2.506,0,0,0-1.988.93l-0.21.27v-3.7H285.87v9.99h0Zm12.226-.43a3.075,3.075,0,0,0,1.086-1.83h-1.208a1.6,1.6,0,0,1-.637,1.01,1.986,1.986,0,0,1-1.221.39,1.9,1.9,0,0,1-1.627-.69,3.123,3.123,0,0,1-.495-1.66h5.3l0.015-.43a4.251,4.251,0,0,0-.876-2.79,2.827,2.827,0,0,0-2.3-1.06,3.145,3.145,0,0,0-2.507,1.08,4.349,4.349,0,0,0-.932,2.92,3.905,3.905,0,0,0,.882,2.71,3.1,3.1,0,0,0,2.422.98h0A3.326,3.326,0,0,0,298.1,2080.35Zm-4.1-3.76a2.773,2.773,0,0,1,.549-1.49,1.874,1.874,0,0,1,1.541-.72,1.738,1.738,0,0,1,1.452.63,2.732,2.732,0,0,1,.5,1.58h-4.044Zm17-2.91a3.076,3.076,0,0,0-1.065-2.32,4.024,4.024,0,0,0-2.679-.84,3.886,3.886,0,0,0-2.628.84,2.838,2.838,0,0,0-.973,2.27,2.063,2.063,0,0,0,.561,1.54,4.011,4.011,0,0,0,1.882.87l1.739,0.42a4.8,4.8,0,0,1,1.7.64,1.3,1.3,0,0,1,.424,1.07,1.426,1.426,0,0,1-.645,1.26,3.476,3.476,0,0,1-1.887.42,3.284,3.284,0,0,1-2.1-.59,2.088,2.088,0,0,1-.788-1.68h-1.242v0.08a3.048,3.048,0,0,0,1.073,2.47,4.639,4.639,0,0,0,3.054.92,4.441,4.441,0,0,0,2.786-.79,2.911,2.911,0,0,0,.429-3.99,3.9,3.9,0,0,0-2-.98l-1.737-.42a4.822,4.822,0,0,1-1.581-.56,1,1,0,0,1-.393-0.86,1.5,1.5,0,0,1,.59-1.29,2.818,2.818,0,0,1,1.73-.45,2.731,2.731,0,0,1,1.76.52,1.973,1.973,0,0,1,.743,1.45h1.242Zm2.5-.17h-1.221v4.99a2.187,2.187,0,0,0,2.47,2.48,2.449,2.449,0,0,0,1.954-.93,3.553,3.553,0,0,0,.271-0.38v1.11h1.16v-7.27H316.9v3.88a3,3,0,0,1-.516,1.85,1.643,1.643,0,0,1-1.4.68,1.447,1.447,0,0,1-1.147-.4,2,2,0,0,1-.353-1.32v-4.69h0Zm5.91,7.27h1.222v-3.89a2.911,2.911,0,0,1,.515-1.82,1.689,1.689,0,0,1,1.4-.67,1.521,1.521,0,0,1,1.2.43,2.07,2.07,0,0,1,.37,1.38v4.57h1.221v-4.98a2.269,2.269,0,0,0-2.5-2.51,2.506,2.506,0,0,0-1.988.93l-0.272.36v-1.07H319.4v7.27h0Z"/>
  </g>
</svg>
