<svg id="Funky_3D_Glasses" data-name="Funky 3D Glasses" xmlns="http://www.w3.org/2000/svg" xmlns:xlink="http://www.w3.org/1999/xlink" width="3000" height="3000" viewBox="0 0 1500 1500" shape-rendering="geometricPrecision">
  <defs>
    <style>
      .cls-1, .cls-2, .cls-3, .cls-4, .cls-5, .cls-6 {
        fill-rule: evenodd;
      }

      .cls-1 {
        fill: url(#linear-gradient);
      }

      .cls-2 {
        fill: url(#linear-gradient-2);
      }

      .cls-3 {
        fill: #31323d;
      }

      .cls-4 {
        fill: #393a42;
      }

      .cls-5 {
        fill: #424350;
      }

      .cls-6 {
        fill: #fff;
      }
    </style>
    <linearGradient id="linear-gradient" x1="580.219" y1="608.031" x2="580.219" y2="498.844" gradientUnits="userSpaceOnUse">
      <stop offset="0" stop-color="#1089b3" stop-opacity="0.639"/>
      <stop offset="1" stop-color="#1089b3" stop-opacity="0.431"/>
    </linearGradient>
    <linearGradient id="linear-gradient-2" x1="847.594" y1="606.656" x2="847.594" y2="491.188" gradientUnits="userSpaceOnUse">
      <stop offset="0" stop-color="#f93524" stop-opacity="0.639"/>
      <stop offset="1" stop-color="#f93524" stop-opacity="0.431"/>
    </linearGradient>
  </defs>
  <path id="Color_Fill_50_copy_2" data-name="Color Fill 50 copy 2" class="cls-1" d="M521,599c-6.781-3.875-1-90,2-96s105-5,110,0,13,97,8,103S528,603,521,599Z"/>
  <path id="Color_Fill_50_copy" data-name="Color Fill 50 copy" class="cls-2" d="M907.813,594.7c-6.936,4.236-112.389,16.14-117.727,10.445-5.36-5.718-6.772-98.776-2.392-104.3,4.514-5.69,109.554-13.635,113.044-7.319C904.287,499.956,914.631,590.539,907.813,594.7Z"/>
  <path id="Square_Glasses_Base" data-name="Square Glasses Base" class="cls-3" d="M934.7,620.149c-9.959,6.129-166.745,14.107-171.805,10.418-2.391-1.742-3.89-33.2-4.2-67.023-18.612,2.359-56.817,6.434-88.548,4.86,3.3,32.4,5.11,61.794,2.858,63.6-5,4-167-1-177-7-5.491-3.294-7-136,0-141s153-10,160-3c2.313,2.313,5.5,19.153,8.55,40.808,21.81,2.285,63.715,4.968,94.479-3.5,0.568-20.746,1.754-36.752,3.654-39.236,6.21-8.123,158.6-13.734,166.362-8.724C936.766,475.336,940.41,616.636,934.7,620.149ZM633,503c-5-5-107-6-110,0s-8.781,92.125-2,96c7,4,115,13,120,7S638,508,633,503Zm267.738-9.469c-3.49-6.316-108.53,1.629-113.044,7.319-4.38,5.522-2.968,98.58,2.392,104.3,5.338,5.695,110.791-6.209,117.727-10.445C914.631,590.539,904.287,499.956,900.738,493.531Z"/>
  <path id="Sqaure_Glasses_Color" data-name="Sqaure Glasses Color" class="cls-4" d="M928.27,614.295c-9.929,6.168-155.4,14.233-160.479,10.528-2.663-1.941-3.781-37.4-3.406-72.162-15.075,2.078-64.17,8.192-101.337,5.366C667.02,591.264,669.49,624.008,667,626c-5,4-155-1-165-7-5.491-3.294-7-125,0-130s141-9,148-2c2.56,2.56,6.19,21.307,9.521,44.253,20.965,2.455,71.941,6.718,105.452-4.763,0.765-21.516,2.193-38.761,4.271-41.452,6.216-8.05,145.685-13.612,153.456-8.59C930.414,481.433,933.935,610.775,928.27,614.295ZM639,497c-5-5-119-6-122,0s-8.781,104.125-2,108c7,4,127,13,132,7S644,502,639,497Zm267.847-10.516c-3.492-6.35-121.2,2.692-125.7,8.416-4.355,5.544-1.484,110.483,3.86,116.174,5.319,5.666,122.3-6.282,129.257-10.494C921.142,596.421,910.361,492.875,906.847,486.484Z"/>
  <path id="Square_Glasses_Highlight" data-name="Square Glasses Highlight" class="cls-5" d="M915,482c-6.031-3.656-133.71,2.408-138,8-2.5,3.252-4.865-.963-7.157-5.473,11.531-7.772,145.252-12.994,152.857-8.079,7.66,4.95,11.184,132.506,5.685,137.732L923,607S921.031,485.656,915,482Zm-413,7c7-5,141-9,148-2,2.56,2.56,6.19,21.307,9.521,44.253,20.8,2.436,71.14,6.643,104.657-4.506,4.143,5.226,7.43,10,5.822,10.253-3.614.562-112.824,6.887-116,2s-5.05-38.543-9-45-112.9-7.554-137-1a6.89,6.89,0,0,1-7.213-1.754A4.576,4.576,0,0,1,502,489Z"/>
  <path id="Left_Glare" data-name="Left Glare" class="cls-6" d="M633.16,531.88c-3.958-11.719-2.1-25.916-22.193-26.3s-11.264,21.979-.571,30.144S637.117,543.6,633.16,531.88Z"/>
  <path id="Right_Glare" data-name="Right Glare" class="cls-6" d="M866,505c3,12,0,26,20,28s13-21,3-30S863,493,866,505Z"/>
</svg>
