<?xml version="1.0" encoding="UTF-8" standalone="no"?>
<svg version="1.1" xmlns="http://www.w3.org/2000/svg" xmlns:xlink="http://www.w3.org/1999/xlink" xmlns:i="http://ns.adobe.com/AdobeIllustrator/10.0/" width="3000" height="3000">
	<g id="dp_dp001" transform="matrix(1,0,0,1,-4343.79,-2504.34)">
		<path id="dp_path002" fill="#ffccd8" fill-rule="evenodd" stroke="#31323d" stroke-width="14" d="M 4807.47,2820.65 C 4828.33,2772.04 4882.55,2764.49 4912.78,2783.13 C 4943.01,2801.77 4949.25,2846.6 4928.39,2895.2 C 4914.1,2931.47 4869.99,2971.89 4832.45,2999.97 C 4788.67,2983.22 4735.19,2956.39 4711.53,2925.41 C 4678.18,2884.36 4671.94,2839.53 4695.92,2813.34 C 4719.91,2787.14 4774.12,2779.59 4807.47,2820.65 Z "/>
		<path id="dp_path003" fill="#ffccd8" fill-rule="evenodd" stroke="#31323d" stroke-width="14" d="M 6573.63,3827.89 C 6582.58,3813.16 6600.47,3813.16 6609.42,3820.53 C 6618.37,3827.89 6618.37,3842.63 6609.42,3857.37 C 6603.16,3868.42 6587.05,3879.47 6573.63,3886.84 C 6560.21,3879.47 6544.1,3868.42 6537.84,3857.37 C 6528.89,3842.63 6528.89,3827.89 6537.84,3820.53 C 6546.79,3813.16 6564.68,3813.16 6573.63,3827.89 Z "/>
		<path id="dp_path004" fill="#ffccd8" fill-rule="evenodd" stroke="#31323d" stroke-width="14" d="M 6997.63,2936.26 C 7008.87,2903.69 7046.41,2893.36 7068.96,2901.89 C 7091.51,2910.42 7099.05,2937.83 7087.82,2970.4 C 7080.33,2994.57 7052.19,3024.42 7027.8,3045.87 C 6995.87,3039.92 6956.41,3028.67 6937.61,3011.74 C 6911.3,2989.51 6903.75,2962.11 6918.76,2943.24 C 6933.76,2924.37 6971.31,2914.03 6997.63,2936.26 Z "/>
		<path id="dp_path005" fill="#ffccd8" fill-rule="evenodd" stroke="#31323d" stroke-width="14" d="M 6626.16,3412.23 C 6607.04,3362.91 6553.12,3353.45 6522.25,3371 C 6491.38,3388.56 6483.55,3433.14 6502.68,3482.46 C 6515.68,3519.21 6558.33,3561.16 6594.85,3590.55 C 6639.2,3575.36 6693.59,3550.45 6718.33,3520.33 C 6753.11,3480.48 6760.94,3435.9 6737.9,3408.87 C 6714.86,3381.85 6660.95,3372.38 6626.16,3412.23 Z "/>
		<path id="dp_path006" fill="#ffccd8" fill-rule="evenodd" stroke="#31323d" stroke-width="14" d="M 4578.37,3838.58 C 4587.31,3823.84 4605.21,3823.84 4614.16,3831.21 C 4623.1,3838.58 4623.1,3853.31 4614.16,3868.05 C 4607.89,3879.1 4591.79,3890.16 4578.37,3897.52 C 4564.95,3890.16 4548.84,3879.1 4542.58,3868.05 C 4533.63,3853.31 4533.63,3838.58 4542.58,3831.21 C 4551.52,3823.84 4569.42,3823.84 4578.37,3838.58 Z "/>
		<path id="dp_path007" fill="#ffccd8" fill-rule="evenodd" stroke="#31323d" stroke-width="14" d="M 5066.84,3290 C 5075.79,3275.26 5093.68,3275.26 5102.63,3282.63 C 5111.58,3290 5111.58,3304.74 5102.63,3319.47 C 5096.37,3330.53 5080.26,3341.58 5066.84,3348.95 C 5053.42,3341.58 5037.31,3330.53 5031.05,3319.47 C 5022.1,3304.74 5022.1,3290 5031.05,3282.63 C 5040,3275.26 5057.89,3275.26 5066.84,3290 Z "/>
		<path id="dp_path008" fill="#ff7b7b" fill-rule="evenodd" stroke="#31323d" stroke-width="14" d="M 5377.37,2821.05 C 5386.31,2806.32 5404.21,2806.32 5413.16,2813.68 C 5422.1,2821.05 5422.1,2835.79 5413.16,2850.53 C 5406.89,2861.58 5390.79,2872.63 5377.37,2880 C 5363.95,2872.63 5347.84,2861.58 5341.58,2850.53 C 5332.63,2835.79 5332.63,2821.05 5341.58,2813.68 C 5350.52,2806.32 5368.42,2806.32 5377.37,2821.05 Z "/>
		<path id="dp_path009" fill="#ffccd8" fill-rule="evenodd" stroke="#31323d" stroke-width="14" d="M 6630,2794.74 C 6638.95,2780 6656.84,2780 6665.79,2787.37 C 6674.74,2794.74 6674.74,2809.47 6665.79,2824.21 C 6659.53,2835.26 6643.42,2846.32 6630,2853.68 C 6616.58,2846.32 6600.47,2835.26 6594.21,2824.21 C 6585.26,2809.47 6585.26,2794.74 6594.21,2787.37 C 6603.16,2780 6621.05,2780 6630,2794.74 Z "/>
		<path id="dp_path010" fill="#ff7b7b" fill-rule="evenodd" stroke="#31323d" stroke-width="14" d="M 6382.63,3118.79 C 6391.58,3104.05 6409.47,3104.05 6418.42,3111.42 C 6427.37,3118.79 6427.37,3133.53 6418.42,3148.26 C 6412.16,3159.32 6396.05,3170.37 6382.63,3177.74 C 6369.21,3170.37 6353.1,3159.32 6346.84,3148.26 C 6337.89,3133.53 6337.89,3118.79 6346.84,3111.42 C 6355.79,3104.05 6373.68,3104.05 6382.63,3118.79 Z "/>
		<path id="dp_path011" fill="#ff7b7b" fill-rule="evenodd" stroke="#31323d" stroke-width="14" d="M 6987.89,3346.63 C 6996.84,3331.89 7014.73,3331.89 7023.68,3339.26 C 7032.63,3346.63 7032.63,3361.37 7023.68,3376.1 C 7017.42,3387.16 7001.31,3398.21 6987.89,3405.58 C 6974.47,3398.21 6958.37,3387.16 6952.1,3376.1 C 6943.15,3361.37 6943.15,3346.63 6952.1,3339.26 C 6961.05,3331.89 6978.94,3331.89 6987.89,3346.63 Z "/>
		<path id="dp_path012" fill="#ff7b7b" fill-rule="evenodd" stroke="#31323d" stroke-width="14" d="M 5061.58,4309.05 C 5070.53,4294.32 5088.42,4294.32 5097.37,4301.68 C 5106.31,4309.05 5106.31,4323.79 5097.37,4338.53 C 5091.1,4349.58 5075,4360.63 5061.58,4368 C 5048.16,4360.63 5032.05,4349.58 5025.79,4338.53 C 5016.84,4323.79 5016.84,4309.05 5025.79,4301.68 C 5034.73,4294.32 5052.63,4294.32 5061.58,4309.05 Z "/>
		<path id="dp_path013" fill="#e75f5a" fill-rule="evenodd" stroke="#31323d" stroke-width="14" d="M 5992.87,2760.65 C 6031.52,2712.28 6096.37,2720.01 6125.68,2749.99 C 6155,2779.98 6148.77,2832.21 6110.11,2880.58 C 6082.74,2917.05 6019.7,2949.26 5967.95,2969.58 C 5922.43,2937.66 5868.73,2891.53 5850.7,2849.65 C 5824.51,2793.55 5830.73,2741.31 5866.27,2719.06 C 5901.82,2696.81 5966.67,2704.55 5992.87,2760.65 Z "/>
		<path id="dp_path014" fill="#e75f5a" fill-rule="evenodd" stroke="#31323d" stroke-width="14" d="M 4949.49,3754.45 C 4966.4,3704.34 5019.83,3692.47 5051.46,3708.63 C 5083.08,3724.79 5092.89,3768.98 5075.99,3819.1 C 5064.64,3856.39 5023.91,3900.21 4988.74,3931.2 C 4943.76,3918.01 4888.31,3895.55 4862.24,3866.56 C 4825.71,3828.31 4815.9,3784.12 4837.71,3756.09 C 4859.53,3728.07 4912.96,3716.2 4949.49,3754.45 Z "/>
		<path id="dp_path015" fill="#e75f5a" fill-rule="evenodd" stroke="#31323d" stroke-width="14" d="M 7035.81,3699.34 C 7050.01,3667.95 7088.36,3661.14 7110.02,3671.73 C 7131.68,3682.31 7136.65,3710.3 7122.44,3741.69 C 7112.75,3765.06 7081.96,3792.17 7055.69,3811.27 C 7024.44,3802.39 6986.2,3787.53 6969.05,3768.93 C 6944.91,3744.35 6939.94,3716.36 6956.63,3698.97 C 6973.32,3681.57 7011.66,3674.76 7035.81,3699.34 Z "/>
		<path id="dp_path016" fill="#ffccd8" fill-rule="evenodd" stroke="#31323d" stroke-width="14" d="M 4632.39,4315.84 C 4604.97,4294.98 4568,4307.23 4553.98,4326.84 C 4539.96,4346.45 4548.89,4373.43 4576.31,4394.29 C 4595.95,4410.24 4635.93,4419.46 4668.12,4423.77 C 4691.39,4401.09 4717.96,4369.84 4724.2,4345.32 C 4733.76,4312.22 4724.82,4285.24 4701.87,4277.87 C 4678.92,4270.5 4641.94,4282.74 4632.39,4315.84 Z "/>
		<path id="dp_path017" fill="#e75f5a" fill-rule="evenodd" stroke="#31323d" stroke-width="14" d="M 4626.88,3370.85 C 4611.89,3339.82 4573.39,3333.97 4552,3345.1 C 4530.61,3356.22 4526.34,3384.32 4541.33,3415.34 C 4551.6,3438.47 4583.05,3464.81 4609.8,3483.24 C 4640.81,3473.58 4678.67,3457.77 4695.35,3438.75 C 4718.87,3413.57 4723.14,3385.48 4706.02,3368.5 C 4688.9,3351.53 4650.4,3345.67 4626.88,3370.85 Z "/>
	</g>
</svg>