<?xml version="1.0" encoding="utf-8"?>
<svg viewBox="0 0 3000 3000" xmlns="http://www.w3.org/2000/svg">
  <title>apple watch</title>
  <g id="Layer_2" data-name="Layer 2" transform="matrix(1, 0, 0, 1, 409.006744, 603.625427)">
    <path class="cls-2" d="M 1303.866 1563.995 L 1319.166 1653.913 C 1319.166 1653.913 1311.613 1646.833 1295.448 1651.065 C 1293.736 1651.432 1292.079 1650.25 1291.87 1648.513 L 1279.954 1578.496 C 1279.669 1576.823 1280.609 1575.232 1282.09 1574.943 C 1286.965 1573.979 1297.406 1571.166 1303.866 1563.995 Z" style="fill: rgb(255, 255, 255);" transform="matrix(0.996544, 0.083072, -0.083072, 0.996544, 138.150573, -102.393507)"/>
    <path class="cls-2" d="M 1432.558 1648.182 L 1420.853 1557.728 C 1420.853 1557.728 1428.116 1565.104 1444.441 1561.516 C 1446.168 1561.214 1447.78 1562.466 1447.915 1564.215 L 1457.029 1634.647 C 1457.246 1636.356 1456.249 1637.883 1454.751 1638.116 C 1449.858 1638.88 1439.303 1641.278 1432.558 1648.182 Z" style="fill: rgb(255, 255, 255);" transform="matrix(0.996544, 0.083072, -0.083072, 0.996544, 138.134134, -113.996227)"/>
    <rect class="cls-2" x="119.739" y="157.664" width="19.027" height="6.662" rx="0.26" ry="0.26" transform="matrix(0.997745, -0.067152, 0.067174, 0.997739, 1251.353876, 1508.839716)" style="fill: rgb(255, 255, 255);"/>
    <path class="cls-3" d="M 1426.086 1648.402 L 1415.474 1649.997 L 1415.412 1649.997 L 1415.218 1649.997 L 1403.399 1651.763 L 1398.272 1652.527 L 1393.231 1653.289 L 1322.987 1663.753 C 1322.987 1663.753 1322.987 1663.753 1322.987 1663.753 C 1319.035 1662.279 1315.575 1659.73 1312.996 1656.394 C 1312.996 1656.394 1312.996 1656.394 1312.996 1656.394 L 1312.956 1656.16 L 1311.424 1645.908 C 1311.413 1645.897 1311.413 1645.878 1311.424 1645.867 C 1311.424 1645.759 1311.424 1645.674 1311.384 1645.571 L 1301.131 1576.871 C 1301.108 1576.752 1301.094 1576.632 1301.091 1576.512 L 1300.453 1572.241 L 1299.536 1566.008 L 1299.536 1566.008 L 1301.98 1567.603 L 1301.98 1567.603 L 1423.534 1646.779 Z" style="fill: rgb(51, 51, 51); stroke: rgb(255, 255, 255); stroke-miterlimit: 10; stroke-width: 0.5px;" transform="matrix(0.996544, 0.083072, -0.083072, 0.996544, 138.862678, -107.630265)"/>
    <path class="cls-3" d="M 1435.156 1645.187 C 1435.155 1644.937 1435.134 1644.688 1435.093 1644.441 L 1435.007 1643.871 C 1435.007 1643.871 1435.007 1643.871 1435.007 1643.871 L 1433.435 1633.305 C 1433.435 1633.197 1433.435 1633.112 1433.395 1633.009 L 1423.188 1564.28 C 1423.188 1564.155 1423.148 1564.024 1423.125 1563.921 L 1422.214 1557.712 L 1421.576 1553.395" style="fill: rgb(51, 51, 51); stroke: rgb(255, 255, 255); stroke-miterlimit: 10; stroke-width: 0.5px;" transform="matrix(0.996543, 0.083073, -0.083073, 0.996543, 137.795255, -113.130754)"/>
    <path class="cls-4" d="M 1312.584 1555.833 L 1312.584 1555.833 L 1323.281 1554.239 L 1390.724 1544.202 L 1404.735 1542.116 C 1404.844 1542.116 1404.969 1542.116 1405.078 1542.077 L 1415.667 1540.505" style="fill: none; stroke: rgb(255, 255, 255); stroke-miterlimit: 10; stroke-width: 0.5px;" transform="matrix(0.996544, 0.083072, -0.083072, 0.996544, 133.325317, -107.970051)"/>
    <path class="cls-5" d="M 1422.702 1559.25 L 1432.921 1627.939 C 1434.52 1638.729 1427.058 1648.771 1416.266 1650.354 L 1334.812 1662.469 C 1326.303 1663.74 1317.95 1659.364 1314.151 1651.646 C 1313.251 1649.833 1312.65 1647.886 1312.369 1645.881 L 1302.161 1577.187 C 1300.557 1566.388 1308.007 1556.333 1318.806 1554.721 L 1400.26 1542.605 C 1411.044 1541.057 1421.064 1548.481 1422.724 1559.25 Z" style="fill: rgb(51, 51, 51);" transform="matrix(0.996544, 0.083072, -0.083072, 0.996544, 137.85314, -108.065026)"/>
    <path class="cls-2" d="M 1435.764 1627.54 L 1425.511 1558.84 C 1425.377 1557.65 1425.106 1556.48 1424.703 1555.354 C 1424.577 1554.949 1424.446 1554.568 1424.298 1554.186 C 1422.043 1548.099 1417.266 1543.285 1411.197 1540.982 C 1410.941 1540.874 1410.685 1540.789 1410.434 1540.703 C 1408.099 1539.909 1405.649 1539.507 1403.183 1539.513 C 1402.078 1539.52 1400.975 1539.614 1399.885 1539.792 L 1318.431 1551.89 C 1314.689 1552.454 1311.157 1553.977 1308.178 1556.311 L 1308.178 1556.311 L 1308.178 1556.311 C 1304.784 1558.86 1302.181 1562.318 1300.67 1566.284 L 1300.67 1566.284 C 1299.294 1569.871 1298.876 1573.754 1299.457 1577.551 L 1309.522 1646.292 C 1309.872 1648.606 1310.583 1650.851 1311.63 1652.945 C 1312.227 1654.175 1312.948 1655.341 1313.783 1656.425 C 1313.849 1656.533 1313.927 1656.632 1314.016 1656.721 C 1314.016 1656.721 1314.016 1656.721 1314.016 1656.721 C 1316.595 1660.058 1320.056 1662.607 1324.007 1664.081 C 1324.007 1664.081 1324.007 1664.081 1324.007 1664.081 C 1326.524 1665.051 1329.199 1665.545 1331.896 1665.539 C 1333.02 1665.526 1334.142 1665.448 1335.257 1665.305 L 1385.542 1657.798 L 1404.339 1655.012 L 1416.711 1653.161 C 1420.5 1652.586 1424.083 1651.066 1427.129 1648.741 C 1428.808 1647.477 1430.292 1645.972 1431.532 1644.275 C 1432.27 1643.284 1432.924 1642.232 1433.486 1641.131 C 1433.867 1640.394 1434.2 1639.633 1434.483 1638.853 C 1434.504 1638.829 1434.518 1638.799 1434.523 1638.767 C 1434.523 1638.767 1434.523 1638.767 1434.523 1638.767 C 1435.889 1635.192 1436.316 1631.327 1435.764 1627.54 Z M 1433.064 1629.249 C 1433.074 1629.298 1433.074 1629.348 1433.064 1629.397 L 1433.064 1629.397 C 1433.496 1635.188 1431.339 1640.872 1427.175 1644.919 C 1426.378 1645.721 1425.502 1646.441 1424.56 1647.066 C 1424.56 1647.106 1424.52 1647.106 1424.498 1647.106 C 1423.534 1647.762 1422.517 1648.334 1421.456 1648.815 L 1421.456 1648.815 C 1419.883 1649.523 1418.225 1650.023 1416.523 1650.302 L 1416.46 1650.302 C 1416.398 1650.325 1416.333 1650.339 1416.267 1650.342 L 1404.447 1652.085 L 1399.321 1652.848 L 1394.28 1653.611 L 1334.852 1662.474 L 1334.852 1662.474 C 1333.883 1662.636 1332.901 1662.714 1331.919 1662.708 C 1330.979 1662.712 1330.04 1662.641 1329.111 1662.497 C 1325.702 1662.03 1322.48 1660.664 1319.775 1658.538 C 1319.228 1658.119 1318.708 1657.664 1318.22 1657.177 C 1317.88 1656.872 1317.56 1656.545 1317.263 1656.197 C 1316.011 1654.842 1314.973 1653.306 1314.181 1651.64 C 1313.971 1651.213 1313.777 1650.769 1313.612 1650.302 C 1313.196 1649.294 1312.883 1648.246 1312.677 1647.175 C 1312.59 1646.847 1312.526 1646.514 1312.484 1646.178 C 1312.484 1646.07 1312.484 1645.984 1312.444 1645.882 L 1302.191 1577.192 C 1302.005 1576.004 1301.934 1574.8 1301.98 1573.598 C 1301.98 1573.319 1301.98 1573.029 1301.98 1572.767 C 1301.98 1572.505 1302.02 1572.322 1302.043 1572.089 L 1302.043 1572.089 C 1302.071 1571.697 1302.121 1571.307 1302.191 1570.921 C 1302.231 1570.71 1302.254 1570.494 1302.316 1570.283 C 1302.402 1569.856 1302.487 1569.451 1302.613 1569.03 C 1302.704 1568.644 1302.818 1568.263 1302.954 1567.891 C 1303.017 1567.72 1303.08 1567.532 1303.148 1567.378 L 1303.148 1567.338 C 1303.359 1566.809 1303.575 1566.273 1303.826 1565.766 C 1304.076 1565.259 1304.396 1564.684 1304.675 1564.171 C 1304.883 1563.795 1305.117 1563.433 1305.375 1563.089 C 1305.461 1562.964 1305.546 1562.833 1305.631 1562.73 C 1305.95 1562.286 1306.292 1561.859 1306.651 1561.431 L 1306.651 1561.431 C 1306.993 1561.05 1307.329 1560.685 1307.693 1560.326 C 1308.058 1559.967 1308.502 1559.563 1308.93 1559.187 C 1309.357 1558.811 1309.738 1558.526 1310.183 1558.207 C 1310.462 1558.014 1310.752 1557.826 1311.054 1557.638 L 1311.094 1557.638 C 1311.864 1557.134 1312.671 1556.69 1313.509 1556.311 C 1314.355 1555.944 1315.22 1555.625 1316.101 1555.354 C 1316.545 1555.228 1316.995 1555.097 1317.439 1554.995 C 1317.884 1554.892 1318.374 1554.801 1318.841 1554.738 L 1364.808 1547.903 L 1386.22 1544.69 L 1400.232 1542.606 C 1400.34 1542.606 1400.466 1542.606 1400.574 1542.566 C 1401.427 1542.449 1402.287 1542.384 1403.149 1542.372 C 1405.26 1542.37 1407.357 1542.715 1409.357 1543.392 C 1409.699 1543.517 1410.035 1543.625 1410.4 1543.796 L 1411.038 1544.053 C 1411.442 1544.223 1411.847 1544.411 1412.205 1544.622 L 1412.205 1544.622 C 1412.889 1544.954 1413.543 1545.345 1414.159 1545.79 C 1414.393 1545.938 1414.603 1546.086 1414.82 1546.234 C 1415.223 1546.53 1415.627 1546.849 1416.033 1547.191 C 1416.415 1547.51 1416.796 1547.869 1417.172 1548.234 L 1417.172 1548.234 C 1417.912 1548.955 1418.582 1549.744 1419.172 1550.592 C 1419.254 1550.682 1419.324 1550.781 1419.382 1550.888 C 1419.937 1551.657 1420.422 1552.475 1420.829 1553.332 C 1421.065 1553.779 1421.27 1554.241 1421.444 1554.716 C 1421.665 1555.199 1421.856 1555.695 1422.014 1556.202 C 1422.261 1557.024 1422.451 1557.861 1422.584 1558.709 C 1422.596 1558.743 1422.596 1558.782 1422.584 1558.817 C 1422.588 1558.83 1422.588 1558.844 1422.584 1558.857 C 1422.584 1558.965 1422.624 1559.09 1422.646 1559.216 L 1432.911 1627.945 C 1432.911 1628.053 1432.911 1628.138 1432.951 1628.241 C 1432.996 1628.583 1433.042 1628.924 1433.064 1629.26 Z" style="fill: rgb(255, 255, 255);" transform="matrix(0.996543, 0.083073, -0.083073, 0.996543, 137.853943, -108.071598)"/>
    <path class="cls-1" d="M 1319.749 1558.359 C 1319.749 1558.359 1336.136 1562.277 1362.504 1558.359 C 1388.87 1554.439 1405.434 1545.331 1405.434 1545.331 Z" style="fill: rgb(191, 191, 191);" transform="matrix(0.996544, 0.083072, -0.083072, 0.996544, 133.696794, -107.826218)"/>
    <path class="cls-6" d="M 1416.32 1560.86 C 1416.32 1560.86 1409.906 1573.916 1413.825 1597.913 C 1417.443 1620.053 1426.294 1634.614 1426.294 1634.614 Z" style="fill: rgb(145, 145, 145);" transform="matrix(0.996544, 0.083072, -0.083072, 0.996544, 137.633247, -112.391889)"/>
  </g>
</svg>