<?xml version="1.0" encoding="UTF-8" standalone="no"?>
<!DOCTYPE svg PUBLIC "-//W3C//DTD SVG 1.1//EN" "http://www.w3.org/Graphics/SVG/1.1/DTD/svg11.dtd">
<svg width="100%" height="100%" viewBox="0 0 3000 3000" version="1.1" xmlns="http://www.w3.org/2000/svg" xmlns:xlink="http://www.w3.org/1999/xlink" xml:space="preserve" xmlns:serif="http://www.serif.com/" style="fill-rule:evenodd;clip-rule:evenodd;stroke-linecap:round;stroke-linejoin:round;stroke-miterlimit:1.5;">
    <g transform="matrix(3.17959,0,0,3.25941,-618.367,-539.749)">
        <rect x="194.48" y="165.597" width="943.517" height="920.411" style="fill:none;"/>
    </g>
    <g id="Keyboard">
        <g transform="matrix(1.03287,0,0,1,-86.1093,-4)">
            <path d="M2557.57,2468.14L415.971,2496.14L226.209,2900.14L2782.19,2900.14L2557.57,2468.14Z" style="fill:rgb(49,50,61);fill-opacity:0.207843;"/>
        </g>
        <g id="Layer3">
            <g transform="matrix(1,0,0,1,-0.83565,-3)">
                <g id="Layer4">
                    <g>
                        <g transform="matrix(1,0,0,1,-33,-10)">
                            <path d="M2554.36,2474.03C2544.36,2419.68 2534.71,2406.03 2504.36,2406.03L472.359,2414.03C458.009,2414.03 428.359,2477.68 428.359,2492.03C428.359,2492.03 392.009,2552.03 406.359,2552.03L2582.36,2544.03C2596.71,2544.03 2554.36,2474.03 2554.36,2474.03Z" style="fill:rgb(245,245,245);stroke:rgb(49,50,61);stroke-width:6.26px;"/>
                        </g>
                        <g transform="matrix(-1.03279,0.0126309,0.00771974,0.631221,2993.59,936.387)">
                            <path d="M2557.57,2468.14L415.971,2496.14L358.4,2846.06L2642.66,2900.14L2557.57,2468.14Z" style="fill:rgb(49,50,61);fill-opacity:0.207843;"/>
                        </g>
                        <g transform="matrix(1,0,0,1,7,-11)">
                            <g transform="matrix(0.628165,0.238636,-0.35513,0.934817,1070.74,43.7657)">
                                <path d="M454.436,2473.08C454.436,2469.19 449.731,2466.03 443.936,2466.03L422.936,2466.03C417.141,2466.03 412.436,2469.19 412.436,2473.08L412.436,2574.97C412.436,2578.86 417.141,2582.03 422.936,2582.03L443.936,2582.03C449.731,2582.03 454.436,2578.86 454.436,2574.97L454.436,2473.08Z" style="fill:rgb(49,50,61);stroke:rgb(49,50,61);stroke-width:1.17px;"/>
                            </g>
                            <g transform="matrix(0.631782,0.228888,-0.340624,0.9402,1078.56,34.5764)">
                                <path d="M454.436,2473.08C454.436,2469.19 449.731,2466.03 443.936,2466.03L422.936,2466.03C417.141,2466.03 412.436,2469.19 412.436,2473.08L412.436,2574.97C412.436,2578.86 417.141,2582.03 422.936,2582.03L443.936,2582.03C449.731,2582.03 454.436,2578.86 454.436,2574.97L454.436,2473.08Z" style="fill:rgb(49,50,61);stroke:rgb(49,50,61);stroke-width:1.17px;"/>
                            </g>
                            <g transform="matrix(0.631782,0.228888,-0.340624,0.9402,1124.56,34.5764)">
                                <path d="M454.436,2473.08C454.436,2469.19 449.731,2466.03 443.936,2466.03L422.936,2466.03C417.141,2466.03 412.436,2469.19 412.436,2473.08L412.436,2574.97C412.436,2578.86 417.141,2582.03 422.936,2582.03L443.936,2582.03C449.731,2582.03 454.436,2578.86 454.436,2574.97L454.436,2473.08Z" style="fill:rgb(49,50,61);stroke:rgb(49,50,61);stroke-width:1.17px;"/>
                            </g>
                            <g transform="matrix(0.631782,0.228888,-0.340624,0.9402,1194.56,34.5764)">
                                <path d="M454.436,2473.08C454.436,2469.19 449.731,2466.03 443.936,2466.03L422.936,2466.03C417.141,2466.03 412.436,2469.19 412.436,2473.08L412.436,2574.97C412.436,2578.86 417.141,2582.03 422.936,2582.03L443.936,2582.03C449.731,2582.03 454.436,2578.86 454.436,2574.97L454.436,2473.08Z" style="fill:rgb(49,50,61);stroke:rgb(49,50,61);stroke-width:1.17px;"/>
                            </g>
                            <g transform="matrix(0.631782,0.228888,-0.340624,0.9402,1240.56,34.5764)">
                                <path d="M454.436,2473.08C454.436,2469.19 449.731,2466.03 443.936,2466.03L422.936,2466.03C417.141,2466.03 412.436,2469.19 412.436,2473.08L412.436,2574.97C412.436,2578.86 417.141,2582.03 422.936,2582.03L443.936,2582.03C449.731,2582.03 454.436,2578.86 454.436,2574.97L454.436,2473.08Z" style="fill:rgb(49,50,61);stroke:rgb(49,50,61);stroke-width:1.17px;"/>
                            </g>
                            <g transform="matrix(0.647445,0.17987,-0.267677,0.963509,1121.65,-2.33746)">
                                <path d="M454.436,2473.08C454.436,2469.19 449.731,2466.03 443.936,2466.03L422.936,2466.03C417.141,2466.03 412.436,2469.19 412.436,2473.08L412.436,2574.97C412.436,2578.86 417.141,2582.03 422.936,2582.03L443.936,2582.03C449.731,2582.03 454.436,2578.86 454.436,2574.97L454.436,2473.08Z" style="fill:rgb(49,50,61);stroke:rgb(49,50,61);stroke-width:1.17px;"/>
                            </g>
                            <g transform="matrix(0.647445,0.17987,-0.267677,0.963509,1167.65,-2.33746)">
                                <path d="M454.436,2473.08C454.436,2469.19 449.731,2466.03 443.936,2466.03L422.936,2466.03C417.141,2466.03 412.436,2469.19 412.436,2473.08L412.436,2574.97C412.436,2578.86 417.141,2582.03 422.936,2582.03L443.936,2582.03C449.731,2582.03 454.436,2578.86 454.436,2574.97L454.436,2473.08Z" style="fill:rgb(49,50,61);stroke:rgb(49,50,61);stroke-width:1.17px;"/>
                            </g>
                            <g transform="matrix(0.647445,0.17987,-0.267677,0.963509,1213.65,-2.33746)">
                                <path d="M454.436,2473.08C454.436,2469.19 449.731,2466.03 443.936,2466.03L422.936,2466.03C417.141,2466.03 412.436,2469.19 412.436,2473.08L412.436,2574.97C412.436,2578.86 417.141,2582.03 422.936,2582.03L443.936,2582.03C449.731,2582.03 454.436,2578.86 454.436,2574.97L454.436,2473.08Z" style="fill:rgb(49,50,61);stroke:rgb(49,50,61);stroke-width:1.17px;"/>
                            </g>
                            <g transform="matrix(0.655537,0.14768,-0.219773,0.975551,1159.23,-18.5049)">
                                <path d="M454.436,2473.08C454.436,2469.19 449.731,2466.03 443.936,2466.03L422.936,2466.03C417.141,2466.03 412.436,2469.19 412.436,2473.08L412.436,2574.97C412.436,2578.86 417.141,2582.03 422.936,2582.03L443.936,2582.03C449.731,2582.03 454.436,2578.86 454.436,2574.97L454.436,2473.08Z" style="fill:rgb(49,50,61);stroke:rgb(49,50,61);stroke-width:1.17px;"/>
                            </g>
                            <g transform="matrix(0.655537,0.14768,-0.219773,0.975551,1211.23,-18.5049)">
                                <path d="M454.436,2473.08C454.436,2469.19 449.731,2466.03 443.936,2466.03L422.936,2466.03C417.141,2466.03 412.436,2469.19 412.436,2473.08L412.436,2574.97C412.436,2578.86 417.141,2582.03 422.936,2582.03L443.936,2582.03C449.731,2582.03 454.436,2578.86 454.436,2574.97L454.436,2473.08Z" style="fill:rgb(49,50,61);stroke:rgb(49,50,61);stroke-width:1.17px;"/>
                            </g>
                            <g transform="matrix(0.66236,0.113217,-0.168486,0.985704,1150.83,-29.0388)">
                                <path d="M454.436,2473.08C454.436,2469.19 449.731,2466.03 443.936,2466.03L422.936,2466.03C417.141,2466.03 412.436,2469.19 412.436,2473.08L412.436,2574.97C412.436,2578.86 417.141,2582.03 422.936,2582.03L443.936,2582.03C449.731,2582.03 454.436,2578.86 454.436,2574.97L454.436,2473.08Z" style="fill:rgb(49,50,61);stroke:rgb(49,50,61);stroke-width:1.17px;"/>
                            </g>
                            <g transform="matrix(0.66236,0.113217,-0.168486,0.985704,1198.83,-29.0388)">
                                <path d="M454.436,2473.08C454.436,2469.19 449.731,2466.03 443.936,2466.03L422.936,2466.03C417.141,2466.03 412.436,2469.19 412.436,2473.08L412.436,2574.97C412.436,2578.86 417.141,2582.03 422.936,2582.03L443.936,2582.03C449.731,2582.03 454.436,2578.86 454.436,2574.97L454.436,2473.08Z" style="fill:rgb(49,50,61);stroke:rgb(49,50,61);stroke-width:1.17px;"/>
                            </g>
                            <g transform="matrix(0.664278,0.101357,-0.150837,0.988559,1202.78,-31.0827)">
                                <path d="M454.436,2473.08C454.436,2469.19 449.731,2466.03 443.936,2466.03L422.936,2466.03C417.141,2466.03 412.436,2469.19 412.436,2473.08L412.436,2574.97C412.436,2578.86 417.141,2582.03 422.936,2582.03L443.936,2582.03C449.731,2582.03 454.436,2578.86 454.436,2574.97L454.436,2473.08Z" style="fill:rgb(49,50,61);stroke:rgb(49,50,61);stroke-width:1.17px;"/>
                            </g>
                            <g transform="matrix(0.669802,0.0538905,-0.0801983,0.996779,1092.76,-31.3372)">
                                <path d="M454.436,2473.08C454.436,2469.19 449.731,2466.03 443.936,2466.03L422.936,2466.03C417.141,2466.03 412.436,2469.19 412.436,2473.08L412.436,2574.97C412.436,2578.86 417.141,2582.03 422.936,2582.03L443.936,2582.03C449.731,2582.03 454.436,2578.86 454.436,2574.97L454.436,2473.08Z" style="fill:rgb(49,50,61);stroke:rgb(49,50,61);stroke-width:1.17px;"/>
                            </g>
                            <g transform="matrix(0.669802,0.0538905,-0.0801983,0.996779,1143.43,-31.3372)">
                                <path d="M454.436,2473.08C454.436,2469.19 449.731,2466.03 443.936,2466.03L422.936,2466.03C417.141,2466.03 412.436,2469.19 412.436,2473.08L412.436,2574.97C412.436,2578.86 417.141,2582.03 422.936,2582.03L443.936,2582.03C449.731,2582.03 454.436,2578.86 454.436,2574.97L454.436,2473.08Z" style="fill:rgb(49,50,61);stroke:rgb(49,50,61);stroke-width:1.17px;"/>
                            </g>
                            <g transform="matrix(-0.64635,0.183766,0.273475,0.961879,1875.89,0.0448554)">
                                <path d="M454.436,2473.08C454.436,2469.19 449.731,2466.03 443.936,2466.03L422.936,2466.03C417.141,2466.03 412.436,2469.19 412.436,2473.08L412.436,2574.97C412.436,2578.86 417.141,2582.03 422.936,2582.03L443.936,2582.03C449.731,2582.03 454.436,2578.86 454.436,2574.97L454.436,2473.08Z" style="fill:rgb(49,50,61);stroke:rgb(49,50,61);stroke-width:1.17px;"/>
                            </g>
                            <g transform="matrix(-0.643694,0.192863,0.287013,0.957927,1915.24,5.97219)">
                                <path d="M454.436,2473.08C454.436,2469.19 449.731,2466.03 443.936,2466.03L422.936,2466.03C417.141,2466.03 412.436,2469.19 412.436,2473.08L412.436,2574.97C412.436,2578.86 417.141,2582.03 422.936,2582.03L443.936,2582.03C449.731,2582.03 454.436,2578.86 454.436,2574.97L454.436,2473.08Z" style="fill:rgb(49,50,61);stroke:rgb(49,50,61);stroke-width:1.17px;"/>
                            </g>
                            <g transform="matrix(-0.634359,0.221646,0.329847,0.944034,1851.07,28.1556)">
                                <path d="M454.436,2473.08C454.436,2469.19 449.731,2466.03 443.936,2466.03L422.936,2466.03C417.141,2466.03 412.436,2469.19 412.436,2473.08L412.436,2574.97C412.436,2578.86 417.141,2582.03 422.936,2582.03L443.936,2582.03C449.731,2582.03 454.436,2578.86 454.436,2574.97L454.436,2473.08Z" style="fill:rgb(49,50,61);stroke:rgb(49,50,61);stroke-width:1.17px;"/>
                            </g>
                            <g transform="matrix(-0.624413,0.248289,0.369496,0.929232,1824.02,53.4939)">
                                <path d="M454.436,2473.08C454.436,2469.19 449.731,2466.03 443.936,2466.03L422.936,2466.03C417.141,2466.03 412.436,2469.19 412.436,2473.08L412.436,2574.97C412.436,2578.86 417.141,2582.03 422.936,2582.03L443.936,2582.03C449.731,2582.03 454.436,2578.86 454.436,2574.97L454.436,2473.08Z" style="fill:rgb(49,50,61);stroke:rgb(49,50,61);stroke-width:1.17px;"/>
                            </g>
                            <g transform="matrix(-0.649628,0.171822,0.2557,0.966756,1874.8,-6.96497)">
                                <path d="M454.436,2473.08C454.436,2469.19 449.731,2466.03 443.936,2466.03L422.936,2466.03C417.141,2466.03 412.436,2469.19 412.436,2473.08L412.436,2574.97C412.436,2578.86 417.141,2582.03 422.936,2582.03L443.936,2582.03C449.731,2582.03 454.436,2578.86 454.436,2574.97L454.436,2473.08Z" style="fill:rgb(49,50,61);stroke:rgb(49,50,61);stroke-width:1.17px;"/>
                            </g>
                            <g transform="matrix(-0.649921,0.170708,0.254043,0.967193,1830.54,-7.57395)">
                                <path d="M454.436,2473.08C454.436,2469.19 449.731,2466.03 443.936,2466.03L422.936,2466.03C417.141,2466.03 412.436,2469.19 412.436,2473.08L412.436,2574.97C412.436,2578.86 417.141,2582.03 422.936,2582.03L443.936,2582.03C449.731,2582.03 454.436,2578.86 454.436,2574.97L454.436,2473.08Z" style="fill:rgb(49,50,61);stroke:rgb(49,50,61);stroke-width:1.17px;"/>
                            </g>
                            <g transform="matrix(-0.65233,0.161256,0.239977,0.970779,1791.66,-12.4442)">
                                <path d="M454.436,2473.08C454.436,2469.19 449.731,2466.03 443.936,2466.03L422.936,2466.03C417.141,2466.03 412.436,2469.19 412.436,2473.08L412.436,2574.97C412.436,2578.86 417.141,2582.03 422.936,2582.03L443.936,2582.03C449.731,2582.03 454.436,2578.86 454.436,2574.97L454.436,2473.08Z" style="fill:rgb(49,50,61);stroke:rgb(49,50,61);stroke-width:1.17px;"/>
                            </g>
                            <g transform="matrix(-0.65622,0.144616,0.215213,0.976567,1807.21,-19.7218)">
                                <path d="M454.436,2473.08C454.436,2469.19 449.731,2466.03 443.936,2466.03L422.936,2466.03C417.141,2466.03 412.436,2469.19 412.436,2473.08L412.436,2574.97C412.436,2578.86 417.141,2582.03 422.936,2582.03L443.936,2582.03C449.731,2582.03 454.436,2578.86 454.436,2574.97L454.436,2473.08Z" style="fill:rgb(49,50,61);stroke:rgb(49,50,61);stroke-width:1.17px;"/>
                            </g>
                            <g transform="matrix(-0.660269,0.124836,0.185776,0.982592,1808.04,-26.2563)">
                                <path d="M454.436,2473.08C454.436,2469.19 449.731,2466.03 443.936,2466.03L422.936,2466.03C417.141,2466.03 412.436,2469.19 412.436,2473.08L412.436,2574.97C412.436,2578.86 417.141,2582.03 422.936,2582.03L443.936,2582.03C449.731,2582.03 454.436,2578.86 454.436,2574.97L454.436,2473.08Z" style="fill:rgb(49,50,61);stroke:rgb(49,50,61);stroke-width:1.17px;"/>
                            </g>
                            <g transform="matrix(-0.663404,0.106931,0.159131,0.987257,1828.69,-30.2219)">
                                <path d="M454.436,2473.08C454.436,2469.19 449.731,2466.03 443.936,2466.03L422.936,2466.03C417.141,2466.03 412.436,2469.19 412.436,2473.08L412.436,2574.97C412.436,2578.86 417.141,2582.03 422.936,2582.03L443.936,2582.03C449.731,2582.03 454.436,2578.86 454.436,2574.97L454.436,2473.08Z" style="fill:rgb(49,50,61);stroke:rgb(49,50,61);stroke-width:1.17px;"/>
                            </g>
                            <g transform="matrix(-0.66676,0.0834811,0.124234,0.992253,1862.18,-32.6586)">
                                <path d="M454.436,2473.08C454.436,2469.19 449.731,2466.03 443.936,2466.03L422.936,2466.03C417.141,2466.03 412.436,2469.19 412.436,2473.08L412.436,2574.97C412.436,2578.86 417.141,2582.03 422.936,2582.03L443.936,2582.03C449.731,2582.03 454.436,2578.86 454.436,2574.97L454.436,2473.08Z" style="fill:rgb(49,50,61);stroke:rgb(49,50,61);stroke-width:1.17px;"/>
                            </g>
                            <g transform="matrix(-0.667803,0.0746808,0.111138,0.993805,1827.8,-32.7752)">
                                <path d="M454.436,2473.08C454.436,2469.19 449.731,2466.03 443.936,2466.03L422.936,2466.03C417.141,2466.03 412.436,2469.19 412.436,2473.08L412.436,2574.97C412.436,2578.86 417.141,2582.03 422.936,2582.03L443.936,2582.03C449.731,2582.03 454.436,2578.86 454.436,2574.97L454.436,2473.08Z" style="fill:rgb(49,50,61);stroke:rgb(49,50,61);stroke-width:1.17px;"/>
                            </g>
                            <g transform="matrix(-0.668183,0.0712089,0.105971,0.994369,1787.11,-32.7022)">
                                <path d="M454.436,2473.08C454.436,2469.19 449.731,2466.03 443.936,2466.03L422.936,2466.03C417.141,2466.03 412.436,2469.19 412.436,2473.08L412.436,2574.97C412.436,2578.86 417.141,2582.03 422.936,2582.03L443.936,2582.03C449.731,2582.03 454.436,2578.86 454.436,2574.97L454.436,2473.08Z" style="fill:rgb(49,50,61);stroke:rgb(49,50,61);stroke-width:1.17px;"/>
                            </g>
                            <g transform="matrix(-0.669607,0.0562568,0.0837197,0.996489,1773.22,-31.6218)">
                                <path d="M454.436,2473.08C454.436,2469.19 449.731,2466.03 443.936,2466.03L422.936,2466.03C417.141,2466.03 412.436,2469.19 412.436,2473.08L412.436,2574.97C412.436,2578.86 417.141,2582.03 422.936,2582.03L443.936,2582.03C449.731,2582.03 454.436,2578.86 454.436,2574.97L454.436,2473.08Z" style="fill:rgb(49,50,61);stroke:rgb(49,50,61);stroke-width:1.17px;"/>
                            </g>
                            <g transform="matrix(-0.671758,0.0167156,0.0248757,0.999691,1873.34,-22.8155)">
                                <path d="M454.436,2473.08C454.436,2469.19 449.731,2466.03 443.936,2466.03L422.936,2466.03C417.141,2466.03 412.436,2469.19 412.436,2473.08L412.436,2574.97C412.436,2578.86 417.141,2582.03 422.936,2582.03L443.936,2582.03C449.731,2582.03 454.436,2578.86 454.436,2574.97L454.436,2473.08Z" style="fill:rgb(49,50,61);stroke:rgb(49,50,61);stroke-width:1.17px;"/>
                            </g>
                            <g transform="matrix(-0.671758,0.0167156,0.0248757,0.999691,1825.34,-22.8155)">
                                <path d="M454.436,2473.08C454.436,2469.19 449.731,2466.03 443.936,2466.03L422.936,2466.03C417.141,2466.03 412.436,2469.19 412.436,2473.08L412.436,2574.97C412.436,2578.86 417.141,2582.03 422.936,2582.03L443.936,2582.03C449.731,2582.03 454.436,2578.86 454.436,2574.97L454.436,2473.08Z" style="fill:rgb(49,50,61);stroke:rgb(49,50,61);stroke-width:1.17px;"/>
                            </g>
                            <g transform="matrix(-0.671891,-0.0100507,-0.0149572,0.999888,1852.61,-11.7727)">
                                <path d="M454.436,2473.08C454.436,2469.19 449.731,2466.03 443.936,2466.03L422.936,2466.03C417.141,2466.03 412.436,2469.19 412.436,2473.08L412.436,2574.97C412.436,2578.86 417.141,2582.03 422.936,2582.03L443.936,2582.03C449.731,2582.03 454.436,2578.86 454.436,2574.97L454.436,2473.08Z" style="fill:rgb(49,50,61);stroke:rgb(49,50,61);stroke-width:1.17px;"/>
                            </g>
                            <g transform="matrix(-0.671891,-0.0100507,-0.0149572,0.999888,1801.94,-11.7727)">
                                <path d="M454.436,2473.08C454.436,2469.19 449.731,2466.03 443.936,2466.03L422.936,2466.03C417.141,2466.03 412.436,2469.19 412.436,2473.08L412.436,2574.97C412.436,2578.86 417.141,2582.03 422.936,2582.03L443.936,2582.03C449.731,2582.03 454.436,2578.86 454.436,2574.97L454.436,2473.08Z" style="fill:rgb(49,50,61);stroke:rgb(49,50,61);stroke-width:1.17px;"/>
                            </g>
                            <g transform="matrix(-0.671891,-0.0100507,-0.0149572,0.999888,1727.27,-11.7727)">
                                <path d="M454.436,2473.08C454.436,2469.19 449.731,2466.03 443.936,2466.03L422.936,2466.03C417.141,2466.03 412.436,2469.19 412.436,2473.08L412.436,2574.97C412.436,2578.86 417.141,2582.03 422.936,2582.03L443.936,2582.03C449.731,2582.03 454.436,2578.86 454.436,2574.97L454.436,2473.08Z" style="fill:rgb(49,50,61);stroke:rgb(49,50,61);stroke-width:1.17px;"/>
                            </g>
                            <g transform="matrix(-0.671162,-0.0328658,-0.0489099,0.998803,1765.99,1.03904)">
                                <path d="M454.436,2473.08C454.436,2469.19 449.731,2466.03 443.936,2466.03L422.936,2466.03C417.141,2466.03 412.436,2469.19 412.436,2473.08L412.436,2574.97C412.436,2578.86 417.141,2582.03 422.936,2582.03L443.936,2582.03C449.731,2582.03 454.436,2578.86 454.436,2574.97L454.436,2473.08Z" style="fill:rgb(49,50,61);stroke:rgb(49,50,61);stroke-width:1.17px;"/>
                            </g>
                            <g transform="matrix(-0.671162,-0.0328658,-0.0489099,0.998803,1719.32,1.03904)">
                                <path d="M454.436,2473.08C454.436,2469.19 449.731,2466.03 443.936,2466.03L422.936,2466.03C417.141,2466.03 412.436,2469.19 412.436,2473.08L412.436,2574.97C412.436,2578.86 417.141,2582.03 422.936,2582.03L443.936,2582.03C449.731,2582.03 454.436,2578.86 454.436,2574.97L454.436,2473.08Z" style="fill:rgb(49,50,61);stroke:rgb(49,50,61);stroke-width:1.17px;"/>
                            </g>
                        </g>
                        <g transform="matrix(1,5.55112e-17,-6.93889e-17,1,7,-11)">
                            <path d="M388.436,2418.03C401.77,2415.36 415.103,2415.36 428.436,2418.03L362.436,2554.03C1098.81,2561.83 1830.22,2555.36 2550.44,2542.03L2490.44,2408.03C2503.71,2405.18 2517.05,2405.53 2530.44,2408.03C2595.91,2505.8 2654.77,2605.46 2710.44,2706.03C2706.64,2760.05 2697.95,2813.52 2680.44,2866.03C1865.73,2878.48 1051.06,2879.51 236.436,2868.03C213.704,2813.54 203.351,2758.83 198.436,2704.03C253.453,2604.74 315.281,2508.69 388.436,2418.03Z" style="fill:rgb(67,66,77);stroke:rgb(49,50,61);stroke-width:12.45px;"/>
                        </g>
                        <g transform="matrix(1,0,0,1,7,-11)">
                            <path d="M202.936,2700.03L2704.94,2697.03" style="fill:none;stroke:rgb(49,50,61);stroke-width:10.32px;"/>
                        </g>
                        <g transform="matrix(1,0,0,1,39,-23)">
                            <g transform="matrix(1,0,0,1,-33.6667,-14)">
                                <path d="M625.169,2634.86C625.169,2633.39 623.974,2632.19 622.503,2632.19L566.503,2632.19C565.031,2632.19 563.836,2633.39 563.836,2634.86L563.836,2640.19C563.836,2641.66 565.031,2642.86 566.503,2642.86L622.503,2642.86C623.974,2642.86 625.169,2641.66 625.169,2640.19L625.169,2634.86Z" style="fill:rgb(67,66,77);stroke:rgb(49,50,61);stroke-width:14.58px;"/>
                            </g>
                            <g transform="matrix(1,0,0,1,74.9167,-14)">
                                <path d="M625.169,2634.86C625.169,2633.39 623.974,2632.19 622.503,2632.19L566.503,2632.19C565.031,2632.19 563.836,2633.39 563.836,2634.86L563.836,2640.19C563.836,2641.66 565.031,2642.86 566.503,2642.86L622.503,2642.86C623.974,2642.86 625.169,2641.66 625.169,2640.19L625.169,2634.86Z" style="fill:rgb(67,66,77);stroke:rgb(49,50,61);stroke-width:14.58px;"/>
                            </g>
                            <g transform="matrix(1,0,0,1,183.5,-14)">
                                <path d="M625.169,2634.86C625.169,2633.39 623.974,2632.19 622.503,2632.19L566.503,2632.19C565.031,2632.19 563.836,2633.39 563.836,2634.86L563.836,2640.19C563.836,2641.66 565.031,2642.86 566.503,2642.86L622.503,2642.86C623.974,2642.86 625.169,2641.66 625.169,2640.19L625.169,2634.86Z" style="fill:rgb(67,66,77);stroke:rgb(49,50,61);stroke-width:14.58px;"/>
                            </g>
                            <g transform="matrix(1,0,0,1,292.083,-14)">
                                <path d="M625.169,2634.86C625.169,2633.39 623.974,2632.19 622.503,2632.19L566.503,2632.19C565.031,2632.19 563.836,2633.39 563.836,2634.86L563.836,2640.19C563.836,2641.66 565.031,2642.86 566.503,2642.86L622.503,2642.86C623.974,2642.86 625.169,2641.66 625.169,2640.19L625.169,2634.86Z" style="fill:rgb(67,66,77);stroke:rgb(49,50,61);stroke-width:14.58px;"/>
                            </g>
                            <g transform="matrix(1,0,0,1,400.667,-14)">
                                <path d="M625.169,2634.86C625.169,2633.39 623.974,2632.19 622.503,2632.19L566.503,2632.19C565.031,2632.19 563.836,2633.39 563.836,2634.86L563.836,2640.19C563.836,2641.66 565.031,2642.86 566.503,2642.86L622.503,2642.86C623.974,2642.86 625.169,2641.66 625.169,2640.19L625.169,2634.86Z" style="fill:rgb(67,66,77);stroke:rgb(49,50,61);stroke-width:14.58px;"/>
                            </g>
                            <g transform="matrix(1,0,0,1,509.25,-14)">
                                <path d="M625.169,2634.86C625.169,2633.39 623.974,2632.19 622.503,2632.19L566.503,2632.19C565.031,2632.19 563.836,2633.39 563.836,2634.86L563.836,2640.19C563.836,2641.66 565.031,2642.86 566.503,2642.86L622.503,2642.86C623.974,2642.86 625.169,2641.66 625.169,2640.19L625.169,2634.86Z" style="fill:rgb(67,66,77);stroke:rgb(49,50,61);stroke-width:14.58px;"/>
                            </g>
                            <g transform="matrix(1,0,0,1,617.833,-14)">
                                <path d="M625.169,2634.86C625.169,2633.39 623.974,2632.19 622.503,2632.19L566.503,2632.19C565.031,2632.19 563.836,2633.39 563.836,2634.86L563.836,2640.19C563.836,2641.66 565.031,2642.86 566.503,2642.86L622.503,2642.86C623.974,2642.86 625.169,2641.66 625.169,2640.19L625.169,2634.86Z" style="fill:rgb(67,66,77);stroke:rgb(49,50,61);stroke-width:14.58px;"/>
                            </g>
                            <g transform="matrix(1,0,0,1,726.417,-14)">
                                <path d="M625.169,2634.86C625.169,2633.39 623.974,2632.19 622.503,2632.19L566.503,2632.19C565.031,2632.19 563.836,2633.39 563.836,2634.86L563.836,2640.19C563.836,2641.66 565.031,2642.86 566.503,2642.86L622.503,2642.86C623.974,2642.86 625.169,2641.66 625.169,2640.19L625.169,2634.86Z" style="fill:rgb(67,66,77);stroke:rgb(49,50,61);stroke-width:14.58px;"/>
                            </g>
                            <g transform="matrix(1,0,0,1,835,-14)">
                                <path d="M625.169,2634.86C625.169,2633.39 623.974,2632.19 622.503,2632.19L566.503,2632.19C565.031,2632.19 563.836,2633.39 563.836,2634.86L563.836,2640.19C563.836,2641.66 565.031,2642.86 566.503,2642.86L622.503,2642.86C623.974,2642.86 625.169,2641.66 625.169,2640.19L625.169,2634.86Z" style="fill:rgb(67,66,77);stroke:rgb(49,50,61);stroke-width:14.58px;"/>
                            </g>
                            <g transform="matrix(1,0,0,1,943.583,-14)">
                                <path d="M625.169,2634.86C625.169,2633.39 623.974,2632.19 622.503,2632.19L566.503,2632.19C565.031,2632.19 563.836,2633.39 563.836,2634.86L563.836,2640.19C563.836,2641.66 565.031,2642.86 566.503,2642.86L622.503,2642.86C623.974,2642.86 625.169,2641.66 625.169,2640.19L625.169,2634.86Z" style="fill:rgb(67,66,77);stroke:rgb(49,50,61);stroke-width:14.58px;"/>
                            </g>
                            <g transform="matrix(1,0,0,1,1052.17,-14)">
                                <path d="M625.169,2634.86C625.169,2633.39 623.974,2632.19 622.503,2632.19L566.503,2632.19C565.031,2632.19 563.836,2633.39 563.836,2634.86L563.836,2640.19C563.836,2641.66 565.031,2642.86 566.503,2642.86L622.503,2642.86C623.974,2642.86 625.169,2641.66 625.169,2640.19L625.169,2634.86Z" style="fill:rgb(67,66,77);stroke:rgb(49,50,61);stroke-width:14.58px;"/>
                            </g>
                            <g transform="matrix(1,0,0,1,1160.75,-14)">
                                <path d="M625.169,2634.86C625.169,2633.39 623.974,2632.19 622.503,2632.19L566.503,2632.19C565.031,2632.19 563.836,2633.39 563.836,2634.86L563.836,2640.19C563.836,2641.66 565.031,2642.86 566.503,2642.86L622.503,2642.86C623.974,2642.86 625.169,2641.66 625.169,2640.19L625.169,2634.86Z" style="fill:rgb(67,66,77);stroke:rgb(49,50,61);stroke-width:14.58px;"/>
                            </g>
                            <g transform="matrix(1,0,0,1,1269.33,-14)">
                                <path d="M625.169,2634.86C625.169,2633.39 623.974,2632.19 622.503,2632.19L566.503,2632.19C565.031,2632.19 563.836,2633.39 563.836,2634.86L563.836,2640.19C563.836,2641.66 565.031,2642.86 566.503,2642.86L622.503,2642.86C623.974,2642.86 625.169,2641.66 625.169,2640.19L625.169,2634.86Z" style="fill:rgb(67,66,77);stroke:rgb(49,50,61);stroke-width:14.58px;"/>
                            </g>
                            <g transform="matrix(1,0,0,1,1377.92,-14)">
                                <path d="M625.169,2634.86C625.169,2633.39 623.974,2632.19 622.503,2632.19L566.503,2632.19C565.031,2632.19 563.836,2633.39 563.836,2634.86L563.836,2640.19C563.836,2641.66 565.031,2642.86 566.503,2642.86L622.503,2642.86C623.974,2642.86 625.169,2641.66 625.169,2640.19L625.169,2634.86Z" style="fill:rgb(67,66,77);stroke:rgb(49,50,61);stroke-width:14.58px;"/>
                            </g>
                            <g transform="matrix(1,0,0,1,1486.5,-14)">
                                <path d="M625.169,2634.86C625.169,2633.39 623.974,2632.19 622.503,2632.19L566.503,2632.19C565.031,2632.19 563.836,2633.39 563.836,2634.86L563.836,2640.19C563.836,2641.66 565.031,2642.86 566.503,2642.86L622.503,2642.86C623.974,2642.86 625.169,2641.66 625.169,2640.19L625.169,2634.86Z" style="fill:rgb(67,66,77);stroke:rgb(49,50,61);stroke-width:14.58px;"/>
                            </g>
                            <g transform="matrix(1,0,0,1,1595.08,-14)">
                                <path d="M625.169,2634.86C625.169,2633.39 623.974,2632.19 622.503,2632.19L566.503,2632.19C565.031,2632.19 563.836,2633.39 563.836,2634.86L563.836,2640.19C563.836,2641.66 565.031,2642.86 566.503,2642.86L622.503,2642.86C623.974,2642.86 625.169,2641.66 625.169,2640.19L625.169,2634.86Z" style="fill:rgb(67,66,77);stroke:rgb(49,50,61);stroke-width:14.58px;"/>
                            </g>
                            <g transform="matrix(1,0,0,1,1703.67,-14)">
                                <path d="M625.169,2634.86C625.169,2633.39 623.974,2632.19 622.503,2632.19L566.503,2632.19C565.031,2632.19 563.836,2633.39 563.836,2634.86L563.836,2640.19C563.836,2641.66 565.031,2642.86 566.503,2642.86L622.503,2642.86C623.974,2642.86 625.169,2641.66 625.169,2640.19L625.169,2634.86Z" style="fill:rgb(67,66,77);stroke:rgb(49,50,61);stroke-width:14.58px;"/>
                            </g>
                        </g>
                    </g>
                </g>
            </g>
            <g transform="matrix(1.03287,0,0,1,-122.109,-20)">
                <path d="M2309.22,2870.91C2122.07,2859.42 366.004,2973.89 389.808,2699.45C390.488,2691.61 387.566,2707.34 389.808,2699.45C399.123,2666.7 385.511,2615.63 450.826,2482.8C400.209,2555.85 353.423,2641.87 315.316,2713.26C316.017,2711.94 324.152,2877.19 366.871,2878.25C619.478,2884.53 2324.7,2871.86 2309.22,2870.91Z" style="fill:rgb(49,50,61);fill-opacity:0.266667;"/>
            </g>
            <g transform="matrix(-1.03287,0,0,1,3044.58,-24.6667)">
                <path d="M2309.22,2870.91C2122.07,2859.42 366.004,2973.89 389.808,2699.45C390.488,2691.61 387.566,2707.34 389.808,2699.45C399.123,2666.7 385.511,2615.63 450.826,2482.8C400.209,2555.85 353.423,2641.87 315.316,2713.26C316.017,2711.94 324.152,2877.19 366.871,2878.25C619.478,2884.53 2324.7,2871.86 2309.22,2870.91Z" style="fill:rgb(49,50,61);fill-opacity:0.266667;"/>
            </g>
        </g>
    </g>
</svg>
