<svg id="kittyhawk_cape" data-name="kittyhawk cape" xmlns="http://www.w3.org/2000/svg" width="3000" height="3000" viewBox="0 0 1500 1500" shape-rendering="geometricPrecision">
  <defs>
    <style>
      .cls-1 {
        fill: #31323d;
      }

      .cls-1, .cls-2 {
        fill-rule: evenodd;
      }

      .cls-2 {
        fill: #b4b5be;
      }
    </style>
  </defs>
  <path id="cape_foreground" data-name="cape foreground" class="cls-1" d="M1006,970L941,761l4-2c36.326,120.532,104,190,104,190Zm-545,69c-70.324-2.86-181-19-181-19,50.48-15.8,225-253,225-253s-42.918,218.633-45,233S461,1039,461,1039Z"/>
  <path id="Color_Fill_51" data-name="Color Fill 51" class="cls-1" d="M946,488c-1.076,27.127-17.458,111.259-56,146s-100.461,9.122-126-32c-15.418-24.826-31.3-34-50-34s-27.015,5.929-48,39c-36.319,57.235-80.218,52.877-121,40-57.17-18.052-66.414-171.387-59-151s24,14,24,14l-3-19c11.53,9.74,13.181,5.7,30,5s51.756-26.478,87-17,51.865,21,91,21,57.858-20.593,99-30,79,19,79,19c18.206,5.268,35-10,35-10l-9,20C934.17,510.562,946,488,946,488ZM535,565c66.721,67.339,100-9,100-9C583.633,497.914,535,565,535,565Zm258-14s33.278,76.339,100,9C893,560,844.367,492.914,793,551Z"/>
  <path id="Color_Fill_53" data-name="Color Fill 53" class="cls-1" d="M714,490c-170.658,12.366-261.5-23-265-40-2.607-12.665,13.123-46.97,107.3-67.574,1.294-29.463,2.5-63.51,1.7-73.426-1.5-18.5,59.5-29,134-32s150.5-.5,153,17c1.364,9.545,6.892,44.673,11.636,74.639C926.627,375.583,952.588,392.705,963,417,979.5,455.5,817.5,482.5,714,490Z"/>
  <path id="Color_Fill_55" data-name="Color Fill 55" class="cls-2" d="M863,415a7.065,7.065,0,0,1-.931,1.024C851.87,421.272,800.911,445.329,719,448c-40.236,1.312-69.09.329-92.211-2.2-41.733-5.441-66.64-13.7-72.747-16.962,0.106-2.942.409-11.368,0.806-23.011C562.76,412.7,599.112,436.145,720,427c117.341-8.877,137.719-24.678,141.832-31.844,0.787,7.187,1.4,12.825,1.773,16.221A12.2,12.2,0,0,1,863,415Z"/>
</svg>
