<?xml version="1.0" encoding="utf-8"?>
<svg viewBox="0 0 3000 3000" xmlns="http://www.w3.org/2000/svg">
  <g id="Draw_Layer" data-name="Draw Layer" transform="matrix(1.344568, 0, 0, 1.344568, 460.29715, 1078.120361)">
    <path class="cls-1" d="M562,802.13q-.21,2.09-.42,4.18h0l0,0c-.45,4.67-.86,9.34-1.27,14v.11c-.48,5.44-1,11.06-1.52,16.59-.64,6.4-1.26,11.89-1.91,16.94q-.24,1.93-.5,3.86l0-.07a309,309,0,0,1-7.83,40.41,168.28,168.28,0,0,1-7.26,21.34h0v0l0,0,0,0,0,.1-.07.11v0l0-.07a104.45,104.45,0,0,1-13,22.94,72.26,72.26,0,0,1-12.37,12.54,60,60,0,0,1-10.45,6.43q-1.31.64-2.66,1.21l.18-.06a64,64,0,0,1-11.36,3.53c-2.35.49-5,.93-8,1.35h-.2l.05,0-.11,0c-5,.66-10.21,1.13-16.09,1.45-4.45.23-8.93.36-13.34.36q-2.84,0-5.67-.06A179.12,179.12,0,0,1,428.8,968l-.16,0a85.38,85.38,0,0,1-21.17-5.29,37.82,37.82,0,0,1-8.06-4.55,24,24,0,0,1-3.82-3.78,19.6,19.6,0,0,1-2.24-3.85,14,14,0,0,1-.89-2.84,1.42,1.42,0,0,0-.53-.8v0l-.17-.12a1.59,1.59,0,0,0-2.17.57,1.68,1.68,0,0,0-.16,1.22,25.72,25.72,0,0,0,.7,3.16,19.22,19.22,0,0,0,1.37,3.21,21.73,21.73,0,0,0,4.17,5.37,38.46,38.46,0,0,0,13.37,7.8,83,83,0,0,0,17.14,4.11,160.64,160.64,0,0,0,19.7,1.55,232.68,232.68,0,0,0,36.3-2.25,114,114,0,0,0,13.17-2.42,61.31,61.31,0,0,0,16.89-7.22,65.06,65.06,0,0,0,13.64-11.41,86,86,0,0,0,10.75-14.79,122,122,0,0,0,8.24-17.37,178.93,178.93,0,0,0,6.11-19,312.89,312.89,0,0,0,7.57-40.58c1.64-12.81,2.76-25.68,3.86-38.55.51-6,1-12,1.63-18a1,1,0,0,0-1-1,1.05,1.05,0,0,0-1,1Z" style="fill: rgb(103, 20, 0);"/>
    <path class="cls-1" d="M434.94,818.74a2,2,0,0,0-.84.48h0a1.94,1.94,0,0,0-.3.39,2.07,2.07,0,0,0-.2,1.49c.55,3.09,1.13,6.18,1.66,9.28q.86,4.95,1.52,9.93l-.08-.59c.78,5.81,1.39,11.65,1.63,17.51a95.41,95.41,0,0,1-.52,16,37.33,37.33,0,0,1-2.23,8.65,26.32,26.32,0,0,1-3,5.3,27,27,0,0,1-4.54,4.5,49.48,49.48,0,0,1-7.88,4.72c-3,1.5-6.09,2.87-9.09,4.37a68.44,68.44,0,0,0-9.29,5.48,50,50,0,0,0-4.62,3.74,29,29,0,0,0-4.37,5.15,33.54,33.54,0,0,0-5.3,17.95,44.68,44.68,0,0,0,.86,9.57,47,47,0,0,0,2.84,9.29,1.38,1.38,0,0,0,.58.75,1.25,1.25,0,0,0,1,.13,1.27,1.27,0,0,0,.75-.57,1.21,1.21,0,0,0,.13-1,45.09,45.09,0,0,1-1.58-4.38l0,0a45.7,45.7,0,0,1-1.48-6.72,41.45,41.45,0,0,1-.2-8.67c.05-.6.11-1.19.18-1.78l0,.1a34.35,34.35,0,0,1,2.18-8.14,29.25,29.25,0,0,1,3.45-6,33,33,0,0,1,5.51-5.37,58.38,58.38,0,0,1,9.29-5.71c2.08-1.05,4.29-2.05,6.25-2.94l.31-.14,2.72-1.24a63.94,63.94,0,0,0,8.45-4.55,33.82,33.82,0,0,0,3.91-3,26.88,26.88,0,0,0,3.39-3.74,29,29,0,0,0,4.75-10,45.84,45.84,0,0,0,1.25-6.86c.25-2.13.43-4.5.53-7.24A141.14,141.14,0,0,0,442,849.3c-.37-5.2-1-10.61-1.93-16.11-.63-3.81-1.3-7.17-2.05-10.28h0c-.23-.95-.48-1.89-.74-2.83a1.94,1.94,0,0,0-.8-1.09h0a1.92,1.92,0,0,0-1-.31,2,2,0,0,0-.5.06Z" style="fill: rgb(103, 20, 0);"/>
    <path class="cls-1" d="M421.44,772.32a8.49,8.49,0,0,0-3.67,2.42c-2.05,2.34-2.65,5.56-2.88,8.57a63.76,63.76,0,0,0,.31,9.61c.1,1.39.23,2.78.27,4.17.06,1.8,0,3.6.05,5.39a56.59,56.59,0,0,0,.79,9,21.92,21.92,0,0,0,.95,3.59,15.93,15.93,0,0,0,1.86,3.75,15.17,15.17,0,0,0,1.36,1.68,13.26,13.26,0,0,0,1.77,1.5,11.64,11.64,0,0,0,3.86,1.8,17.11,17.11,0,0,0,2.59.43,16.15,16.15,0,0,0,2.34.06c1,0,2-.17,3-.31s2-.3,3-.5a2,2,0,0,0,1-.56v0a3.22,3.22,0,0,0,.32-.39h0a2.41,2.41,0,0,0,.37-1.25,2.32,2.32,0,0,0-.43-1.35h0a2.08,2.08,0,0,0-.23-.27,2.3,2.3,0,0,0-1.46-.68h-.15c-.77.1-1.55.18-2.32.22l0,0c-.41,0-.82,0-1.22,0a21.45,21.45,0,0,1-2.29-.12,15.42,15.42,0,0,1-3.15-.83,11.41,11.41,0,0,1-1.76-1,10.56,10.56,0,0,1-1.28-1.3,13.43,13.43,0,0,1-1.3-2.28,29.62,29.62,0,0,1-1.59-6.53c-.2-1.62-.36-3.27-.53-5.09V802c-.19-2-.37-4.09-.68-6.13-.18-1.23-.43-2.48-.68-3.68l0-.14-.12-.59c-.38-1.91-.66-3.57-.87-5.08a25.78,25.78,0,0,1-.16-6,11.56,11.56,0,0,1,.65-2.48l0-.1,0,0a8.38,8.38,0,0,1,.72-1.23,7.27,7.27,0,0,1,.93-.93,8,8,0,0,1,1.34-.78,9.76,9.76,0,0,1,2.08-.55,15.24,15.24,0,0,1,2.6-.05,1.23,1.23,0,0,0,1.23-1.23,1.24,1.24,0,0,0-1.23-1.23c-.4,0-.81,0-1.21,0a13.31,13.31,0,0,0-4.2.61Z" style="fill: rgb(103, 20, 0);"/>
    <path class="cls-1" d="M561.7,802.37l-.67.31a34.09,34.09,0,0,1-5.45,1.71v0c-.81.18-1.69.35-2.61.49a61.44,61.44,0,0,1-7.79.44c-2.73,0-5.5-.12-8.18-.25l-.66,0c-2.84-.13-5.3-.19-7.52-.19h-1c-3.05,0-6.27.13-9.83.34-6.07.36-12.51,1.05-19.68,2.12-6.39.95-12,2-17.26,3.34-3.82,1-7.7,2-11.68,3.11l-1.19.33-4.75,1.28a151,151,0,0,1-18.16,3.91l-.16,0c-2.51.32-4.73.52-6.79.6h0a46.84,46.84,0,0,1-7.87-.29h0a1.37,1.37,0,0,0-1,.13,1.26,1.26,0,0,0-.57.74,1.24,1.24,0,0,0,.87,1.52,58.85,58.85,0,0,0,8.61.53l0,0c2.27,0,4.61-.16,7-.42A164.91,164.91,0,0,0,462,819.23c3.57-.75,7.18-1.64,10.66-2.5l.11,0c1.86-.46,3.73-.92,5.59-1.36,2.87-.68,5.38-1.23,7.67-1.69,3.21-.63,6.37-1.13,8.77-1.5,1.2-.18,2.4-.35,3.61-.5l.66-.09h0l-.15,0,.14,0h-.14a229.91,229.91,0,0,1,30.2-2.09q2.14,0,4.28,0l2.45.06H536c2,.05,4.07.11,6.1.11,2.39,0,4.49-.07,6.43-.23a47.53,47.53,0,0,0,7.78-1.25,31.65,31.65,0,0,0,3.44-1.11c.61-.24,1.19-.5,1.8-.79h0c.63-.3,1.25-.63,1.86-1a1.74,1.74,0,0,0,.62-2.36,1.65,1.65,0,0,0-1.46-.83,2.06,2.06,0,0,0-.9.21Z" style="fill: rgb(103, 20, 0);"/>
    <path class="cls-1" d="M545.71,750.8a167.21,167.21,0,0,0-18.2,2.65c-4.8.93-9.58,2-14.36,3.07-1.93.43-3.86.85-5.8,1.24-2.75.55-5.54.95-8.32,1.32h0c-11.57,1.53-23.23,2.35-34.76,4.22q-4.34.71-8.64,1.66c-2.88.64-5.73,1.41-8.58,2.18-5.73,1.56-11.44,3.23-17.21,4.66-3.11.77-6.23,1.46-9.38,2a1,1,0,0,0,.54,2l1-.18.05,0c6.72-1.28,13.4-3.12,19.86-4.89l3.32-.91c3.63-1,7.85-2.12,12-3,3.56-.75,7.36-1.39,11.94-2l.24,0c5.46-.71,11.23-1.29,15.94-1.75,6.2-.62,12.61-1.26,18.89-2.18,3.63-.52,7.39-1.33,10.71-2.05l2.67-.57c5.11-1.07,10.55-2.17,16.09-3q1.62-.25,3.25-.48h-.07c4-.53,7.49-.85,10.75-1q1.43-.05,2.86-.05a49.52,49.52,0,0,1,5.62.29l1.18.13h0l-.2,0,.18,0-.18,0a29,29,0,0,1,7,1.77,16.89,16.89,0,0,1,3.3,1.87,12.62,12.62,0,0,1,1.88,1.88,12.44,12.44,0,0,1,1.24,2.16,14.67,14.67,0,0,1,.8,3,20.88,20.88,0,0,1-.06,4.72c-.12.79-.27,1.56-.44,2.34-.07.37-.15.74-.21,1.11-.28,1.5-.49,3-.68,4.46s-.36,2.88-.53,4.32c-.13,1.11-.26,2.24-.43,3.37l-.08.66v0l0-.33,0,.32.07-.32a41.84,41.84,0,0,1-2.37,10.12,17.83,17.83,0,0,1-1.81,3.19,13.68,13.68,0,0,1-1.93,1.94,14.39,14.39,0,0,1-2.57,1.51,17.62,17.62,0,0,1-3.41.92,1.85,1.85,0,0,0-1.33,1.39h0a1.8,1.8,0,0,0,0,.41,1.9,1.9,0,0,0,.55,1.34,1.81,1.81,0,0,0,1.34.55,20.39,20.39,0,0,0,5.37-1.24,13.79,13.79,0,0,0,4.47-2.74,16.08,16.08,0,0,0,3-3.71,22.34,22.34,0,0,0,2.1-4.75,32.87,32.87,0,0,0,1.11-4.69c.33-1.94.55-3.89.73-5.84.29-3.2.42-6.4.82-9.59.22-1.53.51-3,.64-4.59a21.3,21.3,0,0,0,0-4,15.65,15.65,0,0,0-2.27-6.95,14.94,14.94,0,0,0-4.83-4.62,21.88,21.88,0,0,0-6.46-2.5,41.19,41.19,0,0,0-7.85-.95c-.75,0-1.51,0-2.27,0-2.08,0-4.17.1-6.24.27Z" style="fill: rgb(103, 20, 0);"/>
    <path class="cls-1" d="M449.41,766.26c-.77.19-1.55.33-2.32.48l-2.63.49c-2,.35-4,.67-5.93,1a59.52,59.52,0,0,0-12.29,3.45c-1,.42-2,.86-2.92,1.37a23.76,23.76,0,0,0-2.5,1.57,15.42,15.42,0,0,0-3.84,4,.59.59,0,0,0,.21.8.59.59,0,0,0,.8-.21l.32-.46a11.35,11.35,0,0,1,.82-.92l0-.05a12,12,0,0,1,1.2-1.06A19,19,0,0,1,422,775.6h.06a26.63,26.63,0,0,1,3-1.51,43.56,43.56,0,0,1,5.84-1.89c2.09-.54,4.19-1,6.3-1.43s4.05-.8,6.08-1.18c1.77-.34,3.53-.66,5.28-1.06.45-.11.89-.23,1.33-.34a1,1,0,0,0-.27-1.94,1.1,1.1,0,0,0-.25,0Z" style="fill: rgb(103, 20, 0);"/>
    <path class="cls-2" d="M561.56,806.32h0c-.61.29-1.19.55-1.8.79a31,31,0,0,1-3.44,1.11,47.5,47.5,0,0,1-7.78,1.25c-1.94.16-4,.23-6.42.23-2,0-4.1-.05-6.1-.11h-.22l-2.45-.06q-2.14,0-4.28,0a229.52,229.52,0,0,0-30.2,2.09h.27c-1.46.16-2.92.37-4.37.59-2.4.36-5.56.87-8.77,1.5-2.29.45-4.8,1-7.67,1.68-1.87.44-3.73.9-5.59,1.36l-.11,0c-3.48.86-7.08,1.75-10.65,2.5a165,165,0,0,1-16.66,2.88c-2.34.25-4.68.39-7,.42a3.22,3.22,0,0,1-.32.39c.75,3.11,1.43,6.47,2.06,10.28.91,5.49,1.56,10.91,1.93,16.11a141.14,141.14,0,0,1,.36,15.62c-.11,2.74-.28,5.11-.53,7.24a45.74,45.74,0,0,1-1.26,6.86,28.94,28.94,0,0,1-4.75,10,27.15,27.15,0,0,1-3.39,3.74,34.13,34.13,0,0,1-3.91,3,64,64,0,0,1-8.45,4.55l-2.72,1.24-.31.14c-2,.88-4.17,1.89-6.25,2.94a58.35,58.35,0,0,0-9.29,5.72,32.92,32.92,0,0,0-5.51,5.38,29.28,29.28,0,0,0-3.45,6,34.26,34.26,0,0,0-2.18,8.14l.06-.16a40.34,40.34,0,0,0,0,10.52,45.68,45.68,0,0,0,1.48,6.72,1.43,1.43,0,0,1,.53.81,13.91,13.91,0,0,0,.89,2.84,19.67,19.67,0,0,0,2.24,3.85,23.84,23.84,0,0,0,3.82,3.78,37.89,37.89,0,0,0,8.06,4.55A85.33,85.33,0,0,0,428.65,968l.16,0a178.29,178.29,0,0,0,19.42,1.42q2.84.06,5.67.06c4.4,0,8.89-.12,13.34-.36,5.87-.32,11.13-.79,16.09-1.45l.11,0-.11,0h.26c3-.42,5.62-.86,8-1.35a64,64,0,0,0,11.37-3.52l-.36.11a59.15,59.15,0,0,0,13.28-7.71,72,72,0,0,0,12.38-12.54,104.39,104.39,0,0,0,13-22.94l-.09.13.12-.2,0-.14h0a168.28,168.28,0,0,0,7.26-21.35,309.05,309.05,0,0,0,7.82-40.4l-.06.14c.86-6.14,1.63-12.78,2.44-20.87.55-5.52,1-11.15,1.52-16.59v-.11c.41-4.67.82-9.34,1.27-14v0Z" style="fill: rgb(220, 53, 34);"/>
    <path class="cls-2" d="M550.49,753.67q-1.43,0-2.86.05c-3.26.13-6.78.45-10.75,1l.12,0c-6.69.88-13.27,2.2-19.38,3.48l-2.67.57c-3.32.72-7.08,1.53-10.72,2.05-6.28.91-12.69,1.55-18.89,2.17-4.71.47-10.47,1-15.94,1.75l-.24,0c-4.59.62-8.38,1.26-11.94,2-4.19.88-8.41,2-12,3l-3.32.91c-6.46,1.77-13.14,3.61-19.86,4.89a18.23,18.23,0,0,0-1.66,1.11,11.73,11.73,0,0,0-1.2,1.06l0,.1a11.44,11.44,0,0,0-.65,2.48,25.57,25.57,0,0,0,.16,6c.2,1.51.49,3.18.87,5.08l.12.59,0,.14c.24,1.2.5,2.45.68,3.68.3,2,.49,4.11.68,6.13v.12c.17,1.82.32,3.47.53,5.09a29.49,29.49,0,0,0,1.59,6.53,13.53,13.53,0,0,0,1.31,2.28,10.83,10.83,0,0,0,1.28,1.29,11.45,11.45,0,0,0,1.76,1,15.35,15.35,0,0,0,3.15.83,20.89,20.89,0,0,0,2.29.12c.41,0,.81,0,1.22,0a2,2,0,0,1,.83-.48,1.85,1.85,0,0,1,.5-.06,1.9,1.9,0,0,1,1,.31h.12a2.31,2.31,0,0,1,1.46.68,1.86,1.86,0,0,1,.23.27c2.07-.08,4.29-.28,6.79-.6l.16,0a150.71,150.71,0,0,0,18.16-3.91l4.75-1.28,1.19-.32c4-1.09,7.87-2.15,11.68-3.11,5.22-1.3,10.87-2.4,17.26-3.35,7.17-1.07,13.61-1.76,19.68-2.12,3.56-.21,6.77-.32,9.83-.34h1c2.22,0,4.68.06,7.52.19l.66,0c2.68.12,5.45.25,8.18.25a61.45,61.45,0,0,0,7.79-.44c.92-.14,1.8-.3,2.61-.48A1.86,1.86,0,0,1,556.9,803a17.56,17.56,0,0,0,3.41-.91,14.51,14.51,0,0,0,2.57-1.51,13.68,13.68,0,0,0,1.93-1.94,17.82,17.82,0,0,0,1.81-3.19A41.82,41.82,0,0,0,569,785.34l-.14.67c.24-1.45.41-2.92.57-4.33s.34-2.88.53-4.32.4-3,.68-4.46c.07-.37.14-.74.22-1.11.16-.77.32-1.55.43-2.33a20.65,20.65,0,0,0,.06-4.72,14.61,14.61,0,0,0-.8-3,9.8,9.8,0,0,0-3.13-4,16.85,16.85,0,0,0-3.3-1.87,29,29,0,0,0-7-1.76l.38.1a46.26,46.26,0,0,0-7-.47Z" style="fill: rgb(220, 53, 34);"/>
    <path class="cls-1" d="M909.48,814.68c.66,15.68,4,31.08,6.84,46.46.7,3.81,1.37,7.63,2,11.46s1.16,7.51,1.79,11.26a168.09,168.09,0,0,0,5,22.13,100.12,100.12,0,0,0,20.13,35.71A81.92,81.92,0,0,0,959.94,955a64.05,64.05,0,0,0,17.66,8.66,94,94,0,0,0,20.54,3.71,172.12,172.12,0,0,0,21.34.24c7-.3,13.92-.87,20.87-1.45,6.3-.53,12.66-.86,18.86-2.19a39.29,39.29,0,0,0,8.71-3,26.43,26.43,0,0,0,7.45-5.39c4.14-4.25,6.49-9.95,7.55-15.72a41.72,41.72,0,0,0-.59-18.21,30.91,30.91,0,0,0-1.54-4.28,23.79,23.79,0,0,0-2-3.68,23.44,23.44,0,0,0-2.86-3.51,23.94,23.94,0,0,0-3.77-3,31,31,0,0,0-5.48-2.77c-1.71-.71-3.46-1.3-5.24-1.84-3.49-1.06-7.07-1.81-10.46-3.16a22.06,22.06,0,0,1-4.08-2.32,17.72,17.72,0,0,1-1.46-1.3,2.88,2.88,0,0,0-4.93,2,2.71,2.71,0,0,0,.44,1.49q.35.48.73.94a21.53,21.53,0,0,0,4.63,3.94h0a37.68,37.68,0,0,0,5.48,2.85c2,.85,4.1,1.66,6.64,2.55l1,.36.17.06c1.54.54,3.14,1.1,4.68,1.72a29.75,29.75,0,0,1,5.54,3.12,21.15,21.15,0,0,1,2.84,2.84,25.2,25.2,0,0,1,2.67,4.66,33.17,33.17,0,0,1,1.93,7.21,36.8,36.8,0,0,1,0,8.6,32.58,32.58,0,0,1-1.87,7.05,24.33,24.33,0,0,1-2.64,4.58,25.24,25.24,0,0,1-3.74,3.74,28.4,28.4,0,0,1-5.4,3.11,49.48,49.48,0,0,1-11.77,3c-3.44.45-7,.77-10.36,1.07l-.2,0-.87.08-2.62.24c-6.25.59-11,1-15.46,1.27-5.29.33-10,.49-14.32.49a135.32,135.32,0,0,1-17.27-1,78,78,0,0,1-19.16-4.94A64.34,64.34,0,0,1,958.38,949a86.71,86.71,0,0,1-15-15.18,98.73,98.73,0,0,1-12.45-21.11l0-.1c-5.33-12.86-7.56-26.8-9.72-40.29-1-6.21-2.19-12.49-3.36-18.58-1.51-7.91-3.08-16.1-4.2-24.22-.43-3.24-.75-6.18-1-9q-.24-2.9-.37-5.81a1.37,1.37,0,1,0-2.75,0Z" style="fill: rgb(103, 20, 0);"/>
    <path class="cls-1" d="M1042.94,796.41a2.17,2.17,0,0,0-2,1.36h0a1.82,1.82,0,0,0-.05.19q-.51,2.23-1,4.46l0,0c-1.82,8.38-3.2,15.88-4.21,23a200.11,200.11,0,0,0-2.16,27.76c0,2.88.09,5.81.19,8.64v.28q.08,2,.14,4,0,1.61.08,3.22v.16c.05,2.39.11,4.87.25,7.3a59.25,59.25,0,0,0,1.52,11.1,34.21,34.21,0,0,0,4.23,9.9,26.14,26.14,0,0,0,4.86,5.68,2.89,2.89,0,0,0,1.62.77l0,0h.23a2.71,2.71,0,0,0,1.91-.79,2.73,2.73,0,0,0,0-3.81c-.44-.48-.86-1-1.27-1.47a26.32,26.32,0,0,1-2.87-4.93,47.55,47.55,0,0,1-2.66-11c-.53-4.26-.78-8.55-1-12.84-.3-5.06-.93-10.09-1.18-15.16a185.68,185.68,0,0,1,1.49-33.75c1-7.2,2.35-14.35,4-21.44a2.18,2.18,0,0,0-1.5-2.64,2.16,2.16,0,0,0-.53-.07l0,0Zm-1.16,86c0,.1,0,.2,0,.3,0-.1,0-.2,0-.3Z" style="fill: rgb(103, 20, 0);"/>
    <path class="cls-1" d="M904.91,765.68a14,14,0,0,0-5.15,1.38,8.27,8.27,0,0,0-3.14,3,10.15,10.15,0,0,0-1.32,4.22,18.54,18.54,0,0,0,.16,4.86,49.53,49.53,0,0,0,2.3,8.86c.41,1.24.84,2.47,1.23,3.71a25.89,25.89,0,0,1,.84,3.75c.29,2.39.41,4.79.64,7.17a37.15,37.15,0,0,0,1.5,8.14,14.34,14.34,0,0,0,4.2,6.63,12.82,12.82,0,0,0,1.83,1.28,13,13,0,0,0,2.12.9,9.29,9.29,0,0,0,1.81.39l.65.08v0a14.29,14.29,0,0,0,1.69.11l.62,0a3.29,3.29,0,0,0,2.05-.75h0l.16-.15A3.18,3.18,0,0,0,918,817a3.1,3.1,0,0,0-.55-1.76h0a3.24,3.24,0,0,0-2.6-1.38q-.73,0-1.45-.07a5.39,5.39,0,0,1-2.62-1,9.23,9.23,0,0,1-.92-.95,11.64,11.64,0,0,1-1.05-1.87,40.58,40.58,0,0,1-2-8.46l-.14-1-.12-.85v-.1a64.49,64.49,0,0,0-1.3-7.1,27.65,27.65,0,0,0-1.2-3.36l0-.11-.66-1.62-.93-2.29a39.84,39.84,0,0,1-2.59-8.5,13.87,13.87,0,0,1-.05-2.82,8.57,8.57,0,0,1,.34-1.29,5.45,5.45,0,0,1,.34-.62h0l.16-.24a7.26,7.26,0,0,1,.65-.65,8.09,8.09,0,0,1,1.11-.64,11.71,11.71,0,0,1,2.19-.57l.27,0a2.15,2.15,0,0,0,1.42-.59,2,2,0,0,0,.59-1.42,2,2,0,0,0-1.86-2Zm-.51,4.07-.16,0,.16,0Z" style="fill: rgb(103, 20, 0);"/>
    <path class="cls-1" d="M1040.73,750c-6,.05-12,.79-18,1.36-3,.29-6,.45-9,.62q-5.38.3-10.75.71c-7.13.54-14.25,1.24-21.36,2q-10.3,1.15-20.57,2.63-5.1.73-10.2,1.54c-3.25.51-6.5,1.07-9.76,1.51h.11c-7.3,1-14.64,1.6-21.91,2.74a100.75,100.75,0,0,0-10.75,2.23,59.5,59.5,0,0,0-10.37,3.87,1.69,1.69,0,0,0-.6,2.3,1.72,1.72,0,0,0,2.3.6l.59-.28,0,0,1.27-.57a79.79,79.79,0,0,1,19.62-4.85h0l-.13,0,.12,0h-.12c3.81-.51,7.6-.89,11.8-1.3l1.36-.13,2.6-.27c4.28-.43,8.58-1,12.74-1.62,1.45-.2,2.89-.4,4.34-.58H954c15.69-2.1,29.49-3.59,42.18-4.54,6.26-.46,13-.83,21.26-1.17,3.25-.13,6.49-.41,9.69-.68,2.55-.21,5.19-.44,7.79-.59,2-.11,3.88-.17,5.64-.17a64.52,64.52,0,0,1,8,.46c1.1.16,2.19.36,3.28.56,1.52.28,3,.55,4.46.71l.36.11.18,0h0a2,2,0,0,0,1.38-3.77c-.59-.3-1.1-.71-1.68-1a15.92,15.92,0,0,0-2.15-.9,22.66,22.66,0,0,0-4.35-1,58.31,58.31,0,0,0-8.54-.57Z" style="fill: rgb(103, 20, 0);"/>
    <path class="cls-1" d="M1053.18,753.61a1.14,1.14,0,0,0,0,2.29c.32,0,.63,0,.95.06a7.2,7.2,0,0,1,1.4.36,5.39,5.39,0,0,1,.74.43,4.84,4.84,0,0,1,.4.4l.05.08h0a4.53,4.53,0,0,1,.22.4,6.26,6.26,0,0,1,.2.73,7.87,7.87,0,0,1,0,1.54,16.1,16.1,0,0,1-1,3.35,54.35,54.35,0,0,1-3.79,7c-.52.84-1.06,1.67-1.65,2.56-.73,1.12-1.5,2.28-2.19,3.45-1.87,3.2-2.37,6.86-2.86,10.41a36.37,36.37,0,0,1-1.73,8,10.22,10.22,0,0,1-.75,1.37q-.2.32-.41.63a16.36,16.36,0,0,1-1.51,1.53,2.93,2.93,0,0,0,2.85,4.9,9.49,9.49,0,0,0,2.76-1.43,12.34,12.34,0,0,0,1.4-1.19,13.11,13.11,0,0,0,1.31-1.66A13.25,13.25,0,0,0,1051,796a15.23,15.23,0,0,0,.73-2.78,45.66,45.66,0,0,0,.62-6.4c.07-1.71.11-3.41.3-5.11a14.49,14.49,0,0,1,.76-3c.91-2.1,1.94-4.14,2.91-6.21a50.32,50.32,0,0,0,3.31-8.55,18.32,18.32,0,0,0,.58-3.9,7.37,7.37,0,0,0-.66-3.37,5,5,0,0,0-2.2-2.23,9.3,9.3,0,0,0-4.12-.87Zm.32,24.87-.05.13.05-.12Z" style="fill: rgb(103, 20, 0);"/>
    <path class="cls-1" d="M1044.34,796.78c-1.14.33-2.27.66-3.42,1v0l-1.55.4c-1.71.43-3.54.86-5.6,1.31-3.93.85-7.92,1.61-11.3,2.24-6.43,1.18-13.48,2.32-22.2,3.58-8.88,1.28-16,2.35-22.4,3.38-5.09.81-11.48,1.81-18.19,2.75l-4.9.68h.17a316,316,0,0,1-37.46,3.09h0q-4.4.07-8.79-.05a2,2,0,1,0,0,4.1q4.11.12,8.22.14l0,0h1.67c3.77,0,7.5-.07,11.06-.21,6.7-.26,13.62-.75,21.17-1.51,9.92-1,20-2.4,29.7-3.78l.73-.1c2.84-.4,5.69-.8,8.52-1.17l2.21-.3h-.1l2.53-.34c8.22-1.09,16.71-2.23,25-3.84a128.46,128.46,0,0,0,13.38-3.28c2.34-.72,4.69-1.54,7-2.41h0v0q3-1.12,5.85-2.4a1.77,1.77,0,0,0,.82-2,1.81,1.81,0,0,0-1.73-1.31,1.71,1.71,0,0,0-.46.06Z" style="fill: rgb(103, 20, 0);"/>
    <path class="cls-2" d="M1077.38,938.17a32.64,32.64,0,0,1-1.87,7,23.93,23.93,0,0,1-2.63,4.58,25.42,25.42,0,0,1-3.74,3.74,28.26,28.26,0,0,1-5.4,3.11,49.6,49.6,0,0,1-11.77,3c-3.44.45-7,.77-10.36,1.08h-.2l-.87.08-2.62.24c-6.26.59-11,1-15.46,1.27-5.29.33-10,.49-14.32.49a136.12,136.12,0,0,1-17.27-1,78,78,0,0,1-19.15-4.94A64.24,64.24,0,0,1,958.38,949a86.23,86.23,0,0,1-15-15.18,98.77,98.77,0,0,1-12.45-21.11l0-.1c-5.33-12.86-7.56-26.8-9.72-40.29-1-6.21-2.19-12.49-3.35-18.58-1.52-7.91-3.08-16.1-4.2-24.22-.46-3.42-.79-6.51-1-9.46a13.24,13.24,0,0,0,1.69.11l.62,0a3.31,3.31,0,0,0,2.05-.75h1.67c3.77,0,7.49-.07,11.06-.2,6.7-.26,13.62-.75,21.17-1.51,9.92-1,20-2.4,29.7-3.78l.74-.1c3.6-.51,7.22-1,10.81-1.47a.69.69,0,0,1-.18,0l2.53-.33c8.22-1.1,16.72-2.23,25-3.84a131.37,131.37,0,0,0,13.39-3.28c2.33-.73,4.68-1.54,7-2.41l0,0c-1.82,8.37-3.2,15.89-4.22,23a202.15,202.15,0,0,0-2.16,27.76c0,2.88.09,5.81.19,8.64v.27c.05,1.33.1,2.66.14,4,0,1.08,0,2.15.08,3.22v.16c.05,2.4.11,4.88.25,7.31a58.93,58.93,0,0,0,1.52,11.09,34.18,34.18,0,0,0,4.24,9.9,26,26,0,0,0,4.85,5.69,3,3,0,0,0,1.63.77,38,38,0,0,0,5.48,2.85c2,.85,4.1,1.66,6.64,2.55l1,.36.17.06c1.54.54,3.14,1.1,4.68,1.72a29.92,29.92,0,0,1,5.53,3.12,20.07,20.07,0,0,1,2.84,2.84,25.47,25.47,0,0,1,2.67,4.66,32.82,32.82,0,0,1,1.93,7.2A36.92,36.92,0,0,1,1077.38,938.17Z" style="fill: rgb(220, 53, 34);"/>
    <path class="cls-2" d="M1040.54,755.36c-1.76,0-3.61.05-5.65.17-2.6.15-5.24.37-7.79.59-3.19.27-6.44.55-9.69.68-8.25.34-15,.71-21.26,1.17-12.69,1-26.49,2.44-42.18,4.54h.12c-1.45.18-2.89.38-4.34.58-4.16.58-8.46,1.18-12.74,1.62l-2.6.26-1.35.14c-4.2.41-8,.79-11.81,1.3h.13a79.88,79.88,0,0,0-19.62,4.85l-1.27.57a5.4,5.4,0,0,0-.34.63,8.24,8.24,0,0,0-.34,1.29,13.61,13.61,0,0,0,.05,2.83,39.8,39.8,0,0,0,2.58,8.5l.93,2.29L904,789l0,.11a27.44,27.44,0,0,1,1.2,3.36,63.77,63.77,0,0,1,1.3,7.1v.1l.12.85.14,1a40.35,40.35,0,0,0,1.95,8.46,11.88,11.88,0,0,0,1.06,1.87,9.15,9.15,0,0,0,.92.94,10.31,10.31,0,0,0,1,.59,10.86,10.86,0,0,0,1.61.43q.73.06,1.45.07a3.23,3.23,0,0,1,2.6,1.39,316.07,316.07,0,0,0,37.46-3.1h-.33c8.5-1.11,16.88-2.42,23.24-3.43s13.52-2.1,22.4-3.38c8.72-1.26,15.77-2.4,22.2-3.58,3.38-.63,7.37-1.39,11.3-2.24,2.06-.45,3.89-.88,5.6-1.3l1.55-.4a2.17,2.17,0,0,1,2-1.36,9.44,9.44,0,0,0,1-1.72,36.41,36.41,0,0,0,1.73-8c.49-3.55,1-7.21,2.86-10.41.69-1.17,1.45-2.33,2.19-3.45.59-.89,1.13-1.72,1.65-2.56a54.32,54.32,0,0,0,3.79-7,15.89,15.89,0,0,0,1-3.35,7.89,7.89,0,0,0,0-1.55,5.69,5.69,0,0,0-.19-.73,4.5,4.5,0,0,0-.22-.4l-.18,0-.36-.1c-1.46-.16-2.94-.43-4.46-.71-1.09-.2-2.18-.4-3.28-.56a64,64,0,0,0-8-.46Z" style="fill: rgb(220, 53, 34);"/>
    <path class="cls-3" d="M1015.77,764.66c-8.3.15-16.58.68-24.85,1.29-6.14.45-12.27,1.11-18.38,1.83s-12.27,1.55-18.37,2.5a0,0,0,0,0,0,0c8.27-.09,16.55-.18,24.82-.33s16.57-.48,24.85-.95a342.09,342.09,0,0,0,36.77-4.35,0,0,0,0,0,0,0c-4.79,0-9.59-.08-14.38-.08-3.49,0-7,0-10.46.09Z" style="fill: rgb(247, 110, 78);"/>
    <path class="cls-3" d="M1021.88,867a139,139,0,0,0,1,17.15,60.44,60.44,0,0,0,1.45,7.4,43.7,43.7,0,0,0,2.52,7,36.54,36.54,0,0,0,8.79,11.78,47.4,47.4,0,0,0,6.8,5,69.3,69.3,0,0,0,8.29,4.25c3.8,1.69,7.69,3.33,11,5.89l-.05,0a20.48,20.48,0,0,1,3.48,3.45h0l.23.31s0,0,0,0c-2.57-4.1-6.55-6.91-10.61-9.38-2.05-1.25-4.15-2.43-6.19-3.71s-3.75-2.49-5.54-3.86a50.81,50.81,0,0,1-9-8.84,46.28,46.28,0,0,1-5.62-9.81,77.58,77.58,0,0,1-3.68-11.9c-1.14-4.85-2-9.77-2.87-14.67h0Zm6.62,26.67.11.27-.11-.27Zm36.67,35.22h0Z" style="fill: rgb(247, 110, 78);"/>
    <path class="cls-3" d="M506.07,765.49q-10.71.47-21.37,1.69a199.58,199.58,0,0,0-21.17,3.44,136.59,136.59,0,0,0-28,9.48,0,0,0,0,0,0,0c6.41-2,12.93-3.59,19.51-4.94,6.86-1.41,13.78-2.58,20.71-3.59l2.54-.36-.43.06c7.08-.95,14.2-1.62,21.33-2.06s14.16-.64,21.25-.91c8.92-.33,17.84-.63,26.77-.73a0,0,0,1,0,0,0c-6.68-.87-13.37-1.57-20.1-2q-5.23-.3-10.46-.35h-1.37c-3.08,0-6.17.09-9.25.22Z" style="fill: rgb(247, 110, 78);"/>
    <path class="cls-3" d="M460.16,871.36a52.88,52.88,0,0,1-16.3,19.84l.45-.35c-2.16,1.66-4.4,3.22-6.67,4.74q-3.64,2.45-7.31,4.86c-4.39,2.88-8.83,5.7-13,8.85a55.44,55.44,0,0,0-10.93,10.3c-2.53,3.28-4.52,7.35-4.09,11.59a0,0,0,0,0,0,0c0-.23,0-.46.07-.69h0a12.71,12.71,0,0,1,.84-3.06,17.67,17.67,0,0,1,2.26-3.78h0a34.43,34.43,0,0,1,5.9-5.69,125.64,125.64,0,0,1,13.76-8.74c2.21-1.28,4.38-2.62,6.54-4,2.51-1.55,5-3.1,7.47-4.78a58.31,58.31,0,0,0,12.44-11.07,41.09,41.09,0,0,0,4.64-7,44.91,44.91,0,0,0,3.28-8.37c.25-.88.47-1.77.68-2.66a0,0,0,0,0,0,0Zm-48.52,46.43-.15.12.15-.12Z" style="fill: rgb(247, 110, 78);"/>
    <path class="cls-1" d="M309.7,765.49c-3.05,1.07-6,2.34-9,3.65s-5.75,2.63-8.58,4c-5.54,2.74-11,5.7-16.4,8.67-4.74,2.6-9.46,5.25-14.29,7.7-3.16,1.61-6.37,3.1-9.57,4.61-8,3.77-16,7.58-23.78,11.91-8.07,4.51-16,9.59-22.67,16-5.84,5.57-11,12.62-12.27,20.75a27.7,27.7,0,0,0-.34,6.28,43.33,43.33,0,0,0,.75,5.39,39.24,39.24,0,0,0,2.93,8.79A38.31,38.31,0,0,0,207,876.63a52.68,52.68,0,0,0,7.73,5.29,70.07,70.07,0,0,0,9,4.15,98.57,98.57,0,0,0,19.57,5.1C259,893.76,275,893.92,290.82,893A437.31,437.31,0,0,0,340,887.26c13.43-2.29,26.79-5.08,40-8.5,4-1,8-2.09,12-3.4a106.38,106.38,0,0,0,11.71-4.8c5.55-2.63,11.05-5.38,16.71-7.78q2-.83,4-1.59s0,0,0,0c-2.47.33-4.92.78-7.35,1.29a2,2,0,0,1-.27.87,2.05,2.05,0,0,1-1.22.94,2.16,2.16,0,0,1-.54.07,2.29,2.29,0,0,1-.54-.07l-.62-.09a9,9,0,0,1-1.12-.2,9.32,9.32,0,0,1-1-.32h0l-5.05,1.25-3.6.89c-4,1-8.11,1.93-11.77,2.77l-1.75.4c-2.15.5-4.29,1-6.43,1.54l-.23.05-.76.19c-2.45.59-5,1.2-7.43,1.75-14.54,3.28-28.08,5.89-41.39,8-3.65.57-7.38,1.11-11.09,1.62A366.58,366.58,0,0,1,274,885.66h-.2a198.46,198.46,0,0,1-25.62-1.55,100.48,100.48,0,0,1-24.6-6.27,54.64,54.64,0,0,1-11.11-6.35,39.1,39.1,0,0,1-6.21-6.15,34.36,34.36,0,0,1-4-6.77,38.42,38.42,0,0,1-2.33-8.65,25.37,25.37,0,0,1,0-5.7,26.61,26.61,0,0,1,1.59-5.66,36.35,36.35,0,0,1,4.25-7.12A64.46,64.46,0,0,1,216.55,821,154.16,154.16,0,0,1,240,806.53c4.22-2.2,8.56-4.31,12.77-6.35l.36-.17c2.89-1.41,5.89-2.86,8.81-4.33,5-2.5,9.87-5.27,14.62-7.95l.16-.09q2.65-1.5,5.3-3A269.61,269.61,0,0,1,307,772c9-3.79,18.69-7.61,29-9a57.36,57.36,0,0,1,7.29-.48h.29l.25,0,.34,0h.08s0,0,0,0a47.75,47.75,0,0,0-11.34-1.32,71.06,71.06,0,0,0-23.21,4.32Z" style="fill: rgb(103, 20, 0);"/>
    <path class="cls-2" d="M343.82,762.48h-.54A57.41,57.41,0,0,0,336,763c-10.3,1.43-20,5.25-29,9a270.09,270.09,0,0,0-25,12.65q-2.66,1.48-5.3,3l-.16.09c-4.75,2.68-9.67,5.45-14.62,7.95-2.92,1.47-5.91,2.92-8.81,4.33l-.35.17c-4.2,2-8.54,4.15-12.77,6.35A154.37,154.37,0,0,0,216.55,821a64.47,64.47,0,0,0-10.8,10.44,36.46,36.46,0,0,0-4.26,7.12,26.48,26.48,0,0,0-1.58,5.66,25.39,25.39,0,0,0,0,5.71,38.43,38.43,0,0,0,2.33,8.65,34.27,34.27,0,0,0,4,6.77,39.12,39.12,0,0,0,6.22,6.15,54.52,54.52,0,0,0,11.1,6.35,100.32,100.32,0,0,0,24.6,6.27,198.15,198.15,0,0,0,25.63,1.55h.2a366.17,366.17,0,0,0,48.19-3.53c3.7-.51,7.43-1.05,11.09-1.62,13.31-2.09,26.85-4.7,41.39-8,2.48-.56,5-1.16,7.43-1.75l.76-.18.24-.06c2.14-.52,4.28-1,6.42-1.54l1.75-.4c3.66-.84,7.81-1.8,11.77-2.77l3.6-.89,5.05-1.25-.14-.08a8,8,0,0,0,2.26.57l.61.09a2.11,2.11,0,0,0,1.08,0,2,2,0,0,0,.9-3.42l-.66-.64-.56-.54a14.48,14.48,0,0,0-1.46-1.15l-.48-.35c-1.15-.85-2.3-1.68-3.47-2.5-2-1.45-4.25-3.09-6.76-5a133.49,133.49,0,0,1-22.71-23A203.69,203.69,0,0,1,362.16,799c-4.7-8.84-9.34-18.7-14.19-30.17l-.21-.5-.26-.61q-.76-1.81-1.5-3.61a2.42,2.42,0,0,0-1-1.34,2.28,2.28,0,0,0-1.14-.31Z" style="fill: rgb(220, 53, 34);"/>
    <path class="cls-1" d="M1161.43,772.26a4.81,4.81,0,0,0-1.73,6.58l.65.84h0a3.91,3.91,0,0,1,2.68-1.09,3.64,3.64,0,0,1,1.84.5,3.73,3.73,0,0,1,1.34,1.34,3.69,3.69,0,0,1,.51,1.88l0,.34c2.34.88,4.81,1.75,6.79,2.44l6.69,2.33,5,1.75c7,2.45,15.22,5.33,23.38,8.42l8,3q7.28,2.77,14.57,5.52l3.29,1.24q4.13,1.56,8.27,3.1c1.81.66,4.18,1.55,6.54,2.53a140.42,140.42,0,0,1,30,17.41,85.25,85.25,0,0,1,14.54,14,43.13,43.13,0,0,1,5.09,8.41,27,27,0,0,1,1.65,5.79,20.67,20.67,0,0,1,0,4.42,19.72,19.72,0,0,1-1.06,3.83,22.58,22.58,0,0,1-2.36,4,32.07,32.07,0,0,1-4.93,4.84,57.4,57.4,0,0,1-12,6.75,117.66,117.66,0,0,1-28.86,7.61,175,175,0,0,1-22.05,1.3,373.4,373.4,0,0,1-38.46-2.48l-11.24-1.19c-6.32-.68-12.65-1.35-19-2-11.27-1.14-20.71-2.16-30.19-3.41a309.41,309.41,0,0,1-40.56-7.89l-.37-.1-.3.38c-.52.69-1,1.39-1.52,2.1a3.23,3.23,0,0,1-1.86,1.43,3,3,0,0,1-.83.11,3.08,3.08,0,0,1-1.57-.43,3.27,3.27,0,0,1-1.48-2.09,2.73,2.73,0,0,1,.37-2.16l.83-1.19a2.83,2.83,0,0,0-1.37,5.49c22.44,6.9,45.85,9.94,69.12,12.46,11.46,1.24,22.94,2.39,34.4,3.66,11.66,1.29,23.33,2.51,35.05,3,22.23.95,45.18-1,65.63-10.37a53.4,53.4,0,0,0,9.84-5.75,39.89,39.89,0,0,0,3.84-3.23,31.62,31.62,0,0,0,3.24-3.76,22.39,22.39,0,0,0,4.39-15c-.41-5.66-2.75-11-5.78-15.71a73,73,0,0,0-12.85-14.65,130.67,130.67,0,0,0-17.37-13,144.48,144.48,0,0,0-18.55-9.93c-2.79-1.24-5.62-2.36-8.46-3.47q-6.79-2.66-13.51-5.49l1,.43c-10.95-4.63-21.83-9.41-32.79-14-5.4-2.26-10.84-4.44-16.36-6.42a115.6,115.6,0,0,0-17.41-5,7.38,7.38,0,0,0-1.35-.14,4.51,4.51,0,0,0-2.36.63Z" style="fill: rgb(103, 20, 0);"/>
    <path class="cls-2" d="M1163,778.58a3.9,3.9,0,0,0-2.68,1.08,22.3,22.3,0,0,0-3.61,4.9c-1.13,1.88-2.11,3.9-2.94,5.65-1.24,2.62-2.43,5.32-3.57,7.94l-1.38,3.14c-2.85,6.41-6.44,13.88-11.52,20.64a98.61,98.61,0,0,1-12.7,12.94c-4.93,4.31-10.15,8.34-15.19,12.24s-10.11,7.88-14.81,12.26a86.18,86.18,0,0,0-12.42,14.31,2.73,2.73,0,0,0-.37,2.16,3.27,3.27,0,0,0,1.48,2.09,3.1,3.1,0,0,0,2.39.31,3.25,3.25,0,0,0,1.86-1.43c.5-.71,1-1.41,1.52-2.1l.3-.38a307.76,307.76,0,0,0,40.93,8c9.48,1.26,18.93,2.28,30.19,3.41,6.33.64,12.66,1.31,19,2l11.24,1.19a373,373,0,0,0,38.46,2.48,174.47,174.47,0,0,0,22.05-1.3,117.54,117.54,0,0,0,28.86-7.6,57.54,57.54,0,0,0,12-6.75,32.08,32.08,0,0,0,4.93-4.84,22.67,22.67,0,0,0,2.36-4,19.49,19.49,0,0,0,1.06-3.83,20.42,20.42,0,0,0,0-4.42,26.85,26.85,0,0,0-1.65-5.78,43.09,43.09,0,0,0-5.09-8.41,85,85,0,0,0-14.54-14,140.48,140.48,0,0,0-30-17.41c-2.35-1-4.73-1.87-6.54-2.53q-4.14-1.53-8.27-3.1l-3.29-1.24q-7.29-2.74-14.57-5.52l-8-3c-8.15-3.08-16.34-6-23.38-8.42l-5-1.75-6.69-2.33c-2-.69-4.45-1.56-6.79-2.44l0-.33a3.73,3.73,0,0,0-1.85-3.22,3.64,3.64,0,0,0-1.84-.5Z" style="fill: rgb(220, 53, 34);"/>
    <path class="cls-3" d="M1198.85,801.28c9.53,5.07,19.25,9.78,28.84,14.74q7.83,4.05,15.52,8.38c5.06,2.86,10.05,5.86,14.84,9.14q2.78,1.91,5.46,4l-.32-.25A77.62,77.62,0,0,1,1277.25,851a55.44,55.44,0,0,1,4,5.91s0,0,0,0c-4-10-11.38-18.36-19.65-25.13a113.49,113.49,0,0,0-14.54-10.06,157.41,157.41,0,0,0-15.77-8c-10.06-4.47-20.45-8.11-30.8-11.84l-1.63-.59h0s0,0,0,0Z" style="fill: rgb(247, 110, 78);"/>
    <path class="cls-3" d="M319.47,789.35a193.19,193.19,0,0,0-39.92,8.89,166.27,166.27,0,0,0-19.15,8.18,140.35,140.35,0,0,0-17.48,10.29,141.76,141.76,0,0,0-26.45,23.67,0,0,0,0,0,0,0q2.43-2,4.92-3.92l-.06,0a228.79,228.79,0,0,1,34.39-21.6c3.36-1.75,6.74-3.46,10.18-5.07s7.05-3.15,10.61-4.66l-.66.28q18.95-8,38.49-14.45,2.55-.84,5.12-1.65s0,0,0,0Z" style="fill: rgb(247, 110, 78);"/>
  </g>
</svg>