<svg id="Monocle" xmlns="http://www.w3.org/2000/svg" xmlns:xlink="http://www.w3.org/1999/xlink" width="3000" height="3000" viewBox="0 0 3000 3000" shape-rendering="geometricPrecision">
  <defs>
    <style>
      .cls-1 {
        fill: #31323d;
      }

      .cls-1, .cls-2, .cls-3 {
        fill-rule: evenodd;
      }

      .cls-2 {
        fill: url(#linear-gradient);
      }

      .cls-3 {
        fill: url(#linear-gradient-2);
      }
    </style>
    <linearGradient id="linear-gradient" x1="1597.719" y1="1244.41" x2="1792.661" y2="976.094" gradientUnits="userSpaceOnUse">
      <stop offset="0" stop-color="#NaNNaNNaN" stop-opacity="0"/>
      <stop offset="0.51" stop-color="#fff" stop-opacity="0.169"/>
      <stop offset="1" stop-color="#fff" stop-opacity="0.361"/>
    </linearGradient>
    <linearGradient id="linear-gradient-2" x1="1815.986" y1="976.094" x2="1574.394" y2="1244.41" xlink:href="#linear-gradient"/>
  </defs>
  <path id="chain" class="cls-1" d="M1894.5,1705.52a24.854,24.854,0,0,1,1.73,15.09,20.069,20.069,0,0,1-1.76,5.38,24.665,24.665,0,0,1,1.76,15.13,20.059,20.059,0,0,1-1.84,5.54,28.789,28.789,0,0,1,1.94,15.72,20.6,20.6,0,0,1-1.22,4.24,20.006,20.006,0,0,1,1.12,3.94,25.074,25.074,0,0,1-1.51,14.61,21.322,21.322,0,0,1,1.61,5.15,28.8,28.8,0,0,1-1.83,15.48,24.854,24.854,0,0,1,1.73,15.09,20.069,20.069,0,0,1-1.76,5.38,24.665,24.665,0,0,1,1.76,15.13,20.059,20.059,0,0,1-1.84,5.54,28.789,28.789,0,0,1,1.94,15.72,20.6,20.6,0,0,1-1.22,4.24,20.006,20.006,0,0,1,1.12,3.94c2.09,12.01-3.33,21.86-12.94,24.65-9.5,2.76-16.78-6.2-18.23-14.59a29.079,29.079,0,0,1,1.35-14.28,25.241,25.241,0,0,1-1.25-14.01,20.233,20.233,0,0,1,1.84-5.55,28.789,28.789,0,0,1-1.94-15.72,21.2,21.2,0,0,1,1.7-5.35,28.916,28.916,0,0,1-1.7-15.16,21.236,21.236,0,0,1,1.71-5.37,20.077,20.077,0,0,1-1.61-5.09,25.03,25.03,0,0,1,1.51-14.6,21.322,21.322,0,0,1-1.61-5.15,29.079,29.079,0,0,1,1.35-14.28,25.241,25.241,0,0,1-1.25-14.01,20.233,20.233,0,0,1,1.84-5.55,28.789,28.789,0,0,1-1.94-15.72,21.2,21.2,0,0,1,1.7-5.35,28.916,28.916,0,0,1-1.7-15.16,21.236,21.236,0,0,1,1.71-5.37,20.077,20.077,0,0,1-1.61-5.09,25.03,25.03,0,0,1,1.51-14.6,21.322,21.322,0,0,1-1.61-5.15,29.079,29.079,0,0,1,1.35-14.28,25.241,25.241,0,0,1-1.25-14.01,20.233,20.233,0,0,1,1.84-5.55,28.779,28.779,0,0,1-1.94-15.72,21.2,21.2,0,0,1,1.7-5.35,28.916,28.916,0,0,1-1.7-15.16,21.236,21.236,0,0,1,1.71-5.37,20.077,20.077,0,0,1-1.61-5.09,25.03,25.03,0,0,1,1.51-14.6,21.322,21.322,0,0,1-1.61-5.15,29.079,29.079,0,0,1,1.35-14.28,25.241,25.241,0,0,1-1.25-14.01,20.233,20.233,0,0,1,1.84-5.55,28.779,28.779,0,0,1-1.94-15.72,21.2,21.2,0,0,1,1.7-5.35,28.916,28.916,0,0,1-1.7-15.16,21.236,21.236,0,0,1,1.71-5.37,20.077,20.077,0,0,1-1.61-5.09,25.448,25.448,0,0,1,1.12-13.67,20.7,20.7,0,0,1-1.22-4.23,29.079,29.079,0,0,1,1.35-14.28,25.25,25.25,0,0,1-1.25-14.01,20.233,20.233,0,0,1,1.84-5.55,28.789,28.789,0,0,1-1.94-15.72,21.2,21.2,0,0,1,1.7-5.35,28.926,28.926,0,0,1-1.7-15.16,21.434,21.434,0,0,1,1.71-5.38,19.882,19.882,0,0,1-1.61-5.08,25.03,25.03,0,0,1,1.51-14.6,21.322,21.322,0,0,1-1.61-5.15,29.079,29.079,0,0,1,1.35-14.28,25.25,25.25,0,0,1-1.25-14.01,20.233,20.233,0,0,1,1.84-5.55,28.789,28.789,0,0,1-1.94-15.72,21.2,21.2,0,0,1,1.7-5.35,28.916,28.916,0,0,1-1.7-15.16,21.434,21.434,0,0,1,1.71-5.38,19.882,19.882,0,0,1-1.61-5.08,25.03,25.03,0,0,1,1.51-14.6,21.322,21.322,0,0,1-1.61-5.15,29.079,29.079,0,0,1,1.35-14.28,25.241,25.241,0,0,1-1.25-14.01,20.233,20.233,0,0,1,1.84-5.55,28.789,28.789,0,0,1-1.94-15.72,21.2,21.2,0,0,1,1.7-5.35,28.916,28.916,0,0,1-1.7-15.16,21.236,21.236,0,0,1,1.71-5.37,20.077,20.077,0,0,1-1.61-5.09,25.03,25.03,0,0,1,1.51-14.6,21.322,21.322,0,0,1-1.61-5.15,29.079,29.079,0,0,1,1.35-14.28,25.241,25.241,0,0,1-1.25-14.01,20.233,20.233,0,0,1,1.84-5.55,28.789,28.789,0,0,1-1.94-15.72,21.2,21.2,0,0,1,1.7-5.35,28.916,28.916,0,0,1-1.7-15.16,21.236,21.236,0,0,1,1.71-5.37,20.077,20.077,0,0,1-1.61-5.09c-2.09-12.01,3.33-21.85,12.94-24.65,9.5-2.76,16.78,6.2,18.23,14.6a28.8,28.8,0,0,1-1.83,15.48,24.831,24.831,0,0,1,1.73,15.08,20.02,20.02,0,0,1-1.76,5.39,24.665,24.665,0,0,1,1.76,15.13,20.059,20.059,0,0,1-1.84,5.54,28.789,28.789,0,0,1,1.94,15.72,20.6,20.6,0,0,1-1.22,4.24,20.006,20.006,0,0,1,1.12,3.94,25.03,25.03,0,0,1-1.51,14.6,21.4,21.4,0,0,1,1.61,5.16,28.8,28.8,0,0,1-1.83,15.48,24.831,24.831,0,0,1,1.73,15.08,20.02,20.02,0,0,1-1.76,5.39,24.665,24.665,0,0,1,1.76,15.13,20.059,20.059,0,0,1-1.84,5.54,28.789,28.789,0,0,1,1.94,15.72,20.6,20.6,0,0,1-1.22,4.24,20.006,20.006,0,0,1,1.12,3.94,25.03,25.03,0,0,1-1.51,14.6,21.4,21.4,0,0,1,1.61,5.16,28.8,28.8,0,0,1-1.83,15.48,24.831,24.831,0,0,1,1.73,15.08,19.842,19.842,0,0,1-1.76,5.38,24.707,24.707,0,0,1,1.76,15.14,20.059,20.059,0,0,1-1.84,5.54,28.789,28.789,0,0,1,1.94,15.72,20.6,20.6,0,0,1-1.22,4.24,20.006,20.006,0,0,1,1.12,3.94,25.03,25.03,0,0,1-1.51,14.6,21.4,21.4,0,0,1,1.61,5.16,28.8,28.8,0,0,1-1.83,15.48,24.831,24.831,0,0,1,1.73,15.08,19.842,19.842,0,0,1-1.76,5.38,24.707,24.707,0,0,1,1.76,15.14,20.169,20.169,0,0,1-1.84,5.54,28.789,28.789,0,0,1,1.94,15.72,20.6,20.6,0,0,1-1.22,4.24,20.006,20.006,0,0,1,1.12,3.94,25.448,25.448,0,0,1-1.12,13.67,20.6,20.6,0,0,1,1.22,4.24,28.8,28.8,0,0,1-1.83,15.48,24.854,24.854,0,0,1,1.73,15.09,20.069,20.069,0,0,1-1.76,5.38,24.665,24.665,0,0,1,1.76,15.13,20.059,20.059,0,0,1-1.84,5.54,28.814,28.814,0,0,1,1.94,15.73,20.966,20.966,0,0,1-1.22,4.24,19.723,19.723,0,0,1,1.12,3.93,25.074,25.074,0,0,1-1.51,14.61,21.322,21.322,0,0,1,1.61,5.15,28.8,28.8,0,0,1-1.83,15.48,24.854,24.854,0,0,1,1.73,15.09,20.069,20.069,0,0,1-1.76,5.38,24.665,24.665,0,0,1,1.76,15.13,20.059,20.059,0,0,1-1.84,5.54,28.814,28.814,0,0,1,1.94,15.73,20.966,20.966,0,0,1-1.22,4.24,19.723,19.723,0,0,1,1.12,3.93,25.074,25.074,0,0,1-1.51,14.61,21.322,21.322,0,0,1,1.61,5.15A28.8,28.8,0,0,1,1894.5,1705.52Zm-20.58-570.93c0.07,1.37.13,2.78,0.32,4.1a11.773,11.773,0,0,1,9.67-1.63,14.886,14.886,0,0,1,3.56,1.56c0.01-.41.01-0.83-0.01-1.27-0.36-6.86-1.38-9.52-7.17-9.83C1874.58,1127.22,1873.67,1129.8,1873.92,1134.59Zm0.02,21.85c0,0.13.01,0.26,0.02,0.39a14.53,14.53,0,0,1,3.52-1.53,11.815,11.815,0,0,1,9.87,1.75c-0.29-4.09-1.17-7.91-6.85-8.21C1875.31,1148.57,1873.67,1151.28,1873.94,1156.44Zm6.95,10.63c-6.67.35-6.72,5.56-6.97,10.35a2.81,2.81,0,0,0-.01.29,17.892,17.892,0,0,1,4.19-1.82,11.8,11.8,0,0,1,9.2,1c0.06-.69.11-1.42,0.16-2.22C1887.72,1169.51,1886.08,1166.8,1880.89,1167.07Zm-6.97,47.29c0.06,1.17.11,2.37,0.25,3.51a11.782,11.782,0,0,1,9.12-.95,17.95,17.95,0,0,1,4.18,1.8c0.02-.51.01-1.04-0.01-1.61-0.36-6.85-1.38-9.51-7.17-9.82C1874.58,1206.99,1873.67,1209.57,1873.92,1214.36Zm0,20.51c0.07,1.37.13,2.78,0.32,4.1a11.773,11.773,0,0,1,9.67-1.63,14.886,14.886,0,0,1,3.56,1.56c0.01-.41.01-0.83-0.01-1.28-0.36-6.85-1.38-9.51-7.17-9.82C1874.58,1227.5,1873.67,1230.08,1873.92,1234.87Zm0.02,21.85c0,0.13.01,0.26,0.02,0.39a14.53,14.53,0,0,1,3.52-1.53,11.815,11.815,0,0,1,9.87,1.75c-0.29-4.09-1.17-7.91-6.85-8.21C1875.31,1248.84,1873.67,1251.56,1873.94,1256.72Zm6.95,10.63c-6.67.35-6.72,5.56-6.97,10.35a2.81,2.81,0,0,0-.01.29,17.892,17.892,0,0,1,4.19-1.82,11.8,11.8,0,0,1,9.2,1c0.06-.69.11-1.42,0.16-2.22C1887.72,1269.79,1886.08,1267.08,1880.89,1267.35Zm-6.97,47.29c0.06,1.17.11,2.37,0.25,3.51a11.782,11.782,0,0,1,9.12-.95,17.95,17.95,0,0,1,4.18,1.8c0.02-.51.01-1.04-0.01-1.61-0.36-6.85-1.38-9.52-7.17-9.82C1874.58,1307.27,1873.67,1309.85,1873.92,1314.64Zm0,20.51c0.07,1.37.13,2.78,0.32,4.1a11.773,11.773,0,0,1,9.67-1.63,14.886,14.886,0,0,1,3.56,1.56c0.01-.41.01-0.83-0.01-1.28-0.36-6.85-1.38-9.51-7.17-9.82C1874.58,1327.78,1873.67,1330.36,1873.92,1335.15Zm0.02,21.85c0,0.13.01,0.26,0.02,0.39a14.53,14.53,0,0,1,3.52-1.53,11.815,11.815,0,0,1,9.87,1.75c-0.29-4.09-1.17-7.91-6.85-8.21C1875.31,1349.12,1873.67,1351.84,1873.94,1357Zm6.95,10.63c-6.67.35-6.72,5.56-6.97,10.35a2.81,2.81,0,0,0-.01.29,17.892,17.892,0,0,1,4.19-1.82,11.8,11.8,0,0,1,9.2,1c0.06-.69.11-1.42,0.16-2.22C1887.72,1370.07,1886.08,1367.36,1880.89,1367.63Zm-6.97,47.29c0.06,1.17.11,2.37,0.25,3.51a11.739,11.739,0,0,1,9.12-.95,17.95,17.95,0,0,1,4.18,1.8c0.02-.51.01-1.04-0.01-1.61-0.36-6.85-1.38-9.52-7.17-9.82C1874.58,1407.55,1873.67,1410.13,1873.92,1414.92Zm0,20.51c0.07,1.37.13,2.78,0.32,4.1a11.773,11.773,0,0,1,9.67-1.63,14.886,14.886,0,0,1,3.56,1.56c0.01-.41.01-0.83-0.01-1.28-0.36-6.85-1.38-9.51-7.17-9.82C1874.58,1428.06,1873.67,1430.64,1873.92,1435.43Zm6.97,32.48c-5.93.31-6.63,4.46-6.88,8.73a18.231,18.231,0,0,1,4.09-1.76,11.857,11.857,0,0,1,9.33,1.07c0.01-.15.02-0.29,0.03-0.44C1887.72,1470.35,1886.08,1467.64,1880.89,1467.91Zm-3.41-11.77a11.815,11.815,0,0,1,9.87,1.75c-0.29-4.09-1.17-7.91-6.85-8.21-5.19-.28-6.83,2.44-6.56,7.6,0,0.13.01,0.26,0.02,0.38A14.91,14.91,0,0,1,1877.48,1456.14Zm-3.56,57.21c0.06,1.17.11,2.37,0.25,3.51a11.782,11.782,0,0,1,9.12-.95,17.95,17.95,0,0,1,4.18,1.8c0.02-.51.01-1.04-0.01-1.61-0.36-6.85-1.38-9.51-7.17-9.82C1874.58,1505.98,1873.67,1508.56,1873.92,1513.35Zm0,20.51c0.07,1.38.13,2.78,0.32,4.1a11.81,11.81,0,0,1,9.67-1.63,14.886,14.886,0,0,1,3.56,1.56c0.01-.41.01-0.83-0.01-1.27-0.36-6.86-1.38-9.52-7.17-9.83C1874.58,1526.49,1873.67,1529.08,1873.92,1533.86Zm0.02,21.85c0,0.13.01,0.26,0.02,0.39a14.53,14.53,0,0,1,3.52-1.53,11.851,11.851,0,0,1,9.87,1.75c-0.29-4.09-1.17-7.91-6.85-8.21C1875.31,1547.84,1873.67,1550.55,1873.94,1555.71Zm6.95,10.63c-6.67.35-6.72,5.57-6.97,10.35a2.81,2.81,0,0,0-.01.29,17.892,17.892,0,0,1,4.19-1.82,11.8,11.8,0,0,1,9.2,1c0.06-.69.11-1.42,0.16-2.22C1887.72,1568.78,1886.08,1566.07,1880.89,1566.34Zm-6.97,47.29c0.06,1.17.11,2.37,0.25,3.51a11.782,11.782,0,0,1,9.12-.95,17.95,17.95,0,0,1,4.18,1.8c0.02-.51.01-1.04-0.01-1.61-0.36-6.85-1.38-9.51-7.17-9.82C1874.58,1606.26,1873.67,1608.84,1873.92,1613.63Zm0,20.51c0.07,1.38.13,2.78,0.32,4.1a11.81,11.81,0,0,1,9.67-1.63,14.886,14.886,0,0,1,3.56,1.56c0.01-.41.01-0.83-0.01-1.27-0.36-6.86-1.38-9.52-7.17-9.83C1874.58,1626.77,1873.67,1629.36,1873.92,1634.14Zm0.02,21.85c0,0.13.01,0.26,0.02,0.39a14.53,14.53,0,0,1,3.52-1.53,11.851,11.851,0,0,1,9.87,1.75c-0.29-4.09-1.17-7.91-6.85-8.21C1875.31,1648.12,1873.67,1650.83,1873.94,1655.99Zm6.95,10.63c-6.67.35-6.72,5.57-6.97,10.35a2.81,2.81,0,0,0-.01.29,17.892,17.892,0,0,1,4.19-1.82,11.8,11.8,0,0,1,9.2,1c0.06-.69.11-1.42,0.16-2.22C1887.72,1669.06,1886.08,1666.35,1880.89,1666.62Zm-6.97,47.29c0.06,1.17.11,2.37,0.25,3.51a11.782,11.782,0,0,1,9.12-.95,17.95,17.95,0,0,1,4.18,1.8c0.02-.51.01-1.04-0.01-1.61-0.36-6.85-1.38-9.51-7.17-9.82C1874.58,1706.54,1873.67,1709.12,1873.92,1713.91Zm0,20.51c0.07,1.37.13,2.78,0.32,4.1a11.773,11.773,0,0,1,9.67-1.63,14.886,14.886,0,0,1,3.56,1.56c0.01-.41.01-0.83-0.01-1.27-0.36-6.86-1.38-9.52-7.17-9.83C1874.58,1727.05,1873.67,1729.64,1873.92,1734.42Zm0.02,21.85c0,0.13.01,0.26,0.02,0.39a14.53,14.53,0,0,1,3.52-1.53,11.815,11.815,0,0,1,9.87,1.75c-0.29-4.09-1.17-7.91-6.85-8.21C1875.31,1748.4,1873.67,1751.11,1873.94,1756.27Zm6.95,10.63c-6.67.35-6.72,5.57-6.97,10.35a2.81,2.81,0,0,0-.01.29,17.892,17.892,0,0,1,4.19-1.82,11.8,11.8,0,0,1,9.2,1c0.06-.69.11-1.42,0.16-2.22C1887.72,1769.34,1886.08,1766.63,1880.89,1766.9Zm2.4,28.31a11.8,11.8,0,0,1-9.2-.99c-0.06.68-.11,1.42-0.15,2.21q-0.03.465-.03,0.9a11.768,11.768,0,0,1,9.38-1.09,17.689,17.689,0,0,1,3.84,1.61,40.428,40.428,0,0,0,.34-4.17,2.715,2.715,0,0,0,.01-0.28A18.294,18.294,0,0,1,1883.29,1795.21Zm0.62,41.96a14.886,14.886,0,0,1,3.56,1.56c0.01-.41.01-0.83-0.01-1.27-0.06-1.04-.13-1.97-0.22-2.82a11.842,11.842,0,0,1-9.76,1.68,15.461,15.461,0,0,1-3.56-1.55c0.07,1.35.13,2.73,0.32,4.03A11.773,11.773,0,0,1,1883.91,1837.17Zm-9.74-19.47a11.782,11.782,0,0,1,9.12-.95,17.95,17.95,0,0,1,4.18,1.8c0.02-.51.01-1.04-0.01-1.61-0.05-.93-0.11-1.78-0.2-2.56a15.793,15.793,0,0,1-3.35,1.43,11.952,11.952,0,0,1-10-1.83c0,0.07.01,0.14,0.01,0.21C1873.98,1815.36,1874.03,1816.56,1874.17,1817.7Zm12.98,37.51a17.48,17.48,0,0,1-1.71.9,14.833,14.833,0,0,1,1.91,1.05C1887.3,1856.5,1887.24,1855.84,1887.15,1855.21Zm-13.23,22.32c-0.25,4.79.66,7.38,6.37,7.07,5.36-.28,6.63-2.59,7.07-8.37a11.773,11.773,0,0,1-9.26,1.03,18.514,18.514,0,0,1-4.07-1.75C1873.99,1876.19,1873.95,1876.86,1873.92,1877.53Zm1.61-21.41a16.307,16.307,0,0,1-1.61-.84c-0.01.41-.01,0.82,0.02,1.27,0,0.13.01,0.26,0.02,0.39A13.714,13.714,0,0,1,1875.53,1856.12Zm-1.61-742.04c0.06,1.17.11,2.37,0.25,3.51a11.782,11.782,0,0,1,9.12-.95,17.95,17.95,0,0,1,4.18,1.8c0.02-.51.01-1.04-0.01-1.61-0.36-6.85-1.38-9.51-7.17-9.82C1874.58,1106.71,1873.67,1109.29,1873.92,1114.08Zm7.18-27.58c-5.79.3-6.81,2.97-7.16,9.82q-0.03.465-.03,0.9a11.768,11.768,0,0,1,9.38-1.09,17.689,17.689,0,0,1,3.84,1.61,40.428,40.428,0,0,0,.34-4.17C1887.72,1088.78,1886.81,1086.2,1881.1,1086.5Zm0,100.28c-5.79.3-6.81,2.97-7.16,9.82q-0.03.465-.03,0.9a11.81,11.81,0,0,1,9.38-1.1,18.223,18.223,0,0,1,3.84,1.62,40.428,40.428,0,0,0,.34-4.17C1887.72,1189.06,1886.81,1186.48,1881.1,1186.78Zm0,100.28c-5.79.3-6.81,2.97-7.16,9.82q-0.03.465-.03,0.9a11.81,11.81,0,0,1,9.38-1.1,18.223,18.223,0,0,1,3.84,1.62,40.428,40.428,0,0,0,.34-4.17C1887.72,1289.34,1886.81,1286.76,1881.1,1287.06Zm0,100.28c-5.79.3-6.81,2.97-7.16,9.82q-0.03.465-.03,0.9a11.81,11.81,0,0,1,9.38-1.1,18.223,18.223,0,0,1,3.84,1.62,40.428,40.428,0,0,0,.34-4.17C1887.72,1389.62,1886.81,1387.04,1881.1,1387.34Zm0,98.43c-5.79.3-6.81,2.97-7.16,9.82q-0.03.465-.03,0.9a11.768,11.768,0,0,1,9.38-1.09,18.2,18.2,0,0,1,3.84,1.61,40.428,40.428,0,0,0,.34-4.17C1887.72,1488.05,1886.81,1485.47,1881.1,1485.77Zm0,100.28c-5.79.3-6.81,2.97-7.16,9.82q-0.03.465-.03,0.9a11.768,11.768,0,0,1,9.38-1.09,17.689,17.689,0,0,1,3.84,1.61,40.428,40.428,0,0,0,.34-4.17C1887.72,1588.33,1886.81,1585.75,1881.1,1586.05Zm0,100.28c-5.79.3-6.81,2.97-7.16,9.82q-0.03.465-.03,0.9a11.768,11.768,0,0,1,9.38-1.09,17.689,17.689,0,0,1,3.84,1.61,40.428,40.428,0,0,0,.34-4.17C1887.72,1688.61,1886.81,1686.03,1881.1,1686.33Z"/>
  <path id="nobbin" class="cls-1" d="M1877.5,1100.65c-8.67,0-15.58-4.07-19.32-12.32a94.8,94.8,0,0,0-22.26-.45s-2.57-20.6,9.59-19.17a24.174,24.174,0,0,0,9.97-1.16c2.51-15.42,18.34-18,28.41-18,13.7,0,22.39,14.39,22.39,31.94C1906.28,1093.58,1890.71,1100.65,1877.5,1100.65Z"/>
  <path id="lens" class="cls-2" d="M1691.99,1244.39c-75.64,0-134.34-73.15-134.34-134.15,0-81.05,59.58-134.159,143.93-134.159,83.35,0,131.14,71.149,131.14,127.769S1789.32,1244.39,1691.99,1244.39Z"/>
  <path id="lens_glare" data-name="lens glare" class="cls-3" d="M1691.99,1244.39c-75.64,0-134.34-73.15-134.34-134.15,0-81.05,59.58-134.159,143.93-134.159,83.35,0,131.14,71.149,131.14,127.769S1789.32,1244.39,1691.99,1244.39Z"/>
  <path id="frame" class="cls-1" d="M1741.42,1262.87c-81.54,27.86-172.72-16.37-197.72-101.98-30.02-102.79,10.55-172.6,108.7-204.466,90.32-29.327,175.13,34.7,195.11,96.246C1875.67,1139.45,1845.57,1231.02,1741.42,1262.87Zm-39.84-286.789c-84.35,0-143.93,53.109-143.93,134.159,0,61,58.7,134.15,134.34,134.15,97.33,0,140.73-83.92,140.73-140.54S1784.93,976.081,1701.58,976.081Z"/>
</svg>
