<?xml version="1.0" encoding="utf-8"?>
<svg viewBox="0 0 3000 3000" xmlns="http://www.w3.org/2000/svg">
  <g id="Draw_Layer" data-name="Draw Layer" transform="matrix(1.113411, 0, 0, 1.113411, 578.941162, 321.418304)">
    <path class="cls-1" d="M1292.51,569.47a3.44,3.44,0,0,0-2.38-1.22h-.21a3.36,3.36,0,0,0-.7.08h-.09c-15-1.4-30.19-3.09-44.9-4.73-33.69-3.74-68.52-7.6-103-8.28-3.23-.06-6.62-.09-10.06-.09-8,0-16.65.17-26.39.52-11.5.41-23.59,1.1-35.93,2-23,1.76-47.44,4.51-72.54,8.18l-6.21.93c-45.81,2.62-91.69,3.89-137.57,4.19-79.53.51-159-1.92-238.5-5.19q-48-2-95.93-4.25c-9.52-.89-19-1.58-28.22-2.07-11-.57-22.31-.86-34.5-.86-2.57,0-5.14,0-7.71,0-29.71.29-58.61,2.3-83,4.25-11,.88-22.28,1.84-33.13,2.77-22.72,1.95-46.21,4-69.36,5.33A3.6,3.6,0,0,0,260,572a3.31,3.31,0,0,0-.64-.07,3.48,3.48,0,0,0-2.46,1.07,3.15,3.15,0,0,0-.92,2.31c.7,20.54,4.14,41.29,7.6,60.8a3.3,3.3,0,0,0,1.63,3.4A62,62,0,0,1,274,645a63,63,0,0,1,10.37,10.45,92.23,92.23,0,0,1,11,19.35,257.59,257.59,0,0,1,8.71,25.43,3.35,3.35,0,0,0,.35.79c1.89,8.67,3.38,17.57,4.82,26.18,1.38,8.25,2.81,16.79,4.59,25.12,1,4.53,2.14,9.11,3.26,13.52l.28,1.07c1.23,4.86,2.3,8.95,3.43,13.08a195.86,195.86,0,0,0,8.64,25.27A109.82,109.82,0,0,0,335.32,817,97.45,97.45,0,0,0,343,828.18c5.11,6.57,11.63,12.8,20.52,19.62,14.35,11,31.34,19.75,50.51,26a266.85,266.85,0,0,0,43.66,9.74c12.93,1.9,26.59,3.25,41.79,4.12a3,3,0,0,0,1.27.33h.19l1.54-.14h.37a3.13,3.13,0,0,0,.73-.09c4.94-.45,9.87-.85,14.82-1.26,11.74-1,23.87-2,35.77-3.45,21-2.64,37.46-6.41,51.93-11.84a141.71,141.71,0,0,0,24.13-11.72,143.2,143.2,0,0,0,22-17.1,245.69,245.69,0,0,0,36-42.19,323.21,323.21,0,0,0,26.65-47.94c3.66-8,7.22-16.45,10.84-25.81,1.81-4.64,3.57-9.39,5.27-14,1.77-4.79,3.61-9.74,5.49-14.58l.71-1.8a3.59,3.59,0,0,0,2.07-2.07c.49-1.24,1-2.47,1.6-3.65a46.83,46.83,0,0,1,6-9,42,42,0,0,1,6.92-6.14,38.48,38.48,0,0,1,7.7-3.87,37.62,37.62,0,0,1,8.41-1.72c.74,0,1.51-.07,2.28-.07a52.16,52.16,0,0,1,9.38.91A47.33,47.33,0,0,1,792.27,674a46.66,46.66,0,0,1,8.93,6,59.71,59.71,0,0,1,9,10.41l.41.63c8.92,28.19,17.47,50.75,26.91,71a309.23,309.23,0,0,0,22.16,40.1A191.72,191.72,0,0,0,888,836.53a137.69,137.69,0,0,0,19.26,15.26,113.19,113.19,0,0,0,15.6,8.46,248.87,248.87,0,0,0,24.8,11.56,268.26,268.26,0,0,0,51.73,14.72,272,272,0,0,0,48.78,4.4c1.6,0,3.2,0,4.79,0a253.65,253.65,0,0,0,53-6.44c4.95-1.16,10-2.53,15.11-4.09a4,4,0,0,0,1.71-.95,175.53,175.53,0,0,0,28.81-10.9,138.54,138.54,0,0,0,24.58-15.34,131.86,131.86,0,0,0,18.59-17.92c10-11.55,18.49-25.42,26-42.41,6-13.53,11-28.72,15.94-47.8,3.73-14.52,6.83-29.44,9.83-43.88l.81-3.87a3.8,3.8,0,0,0,.87-2.07c.19-1.19.41-2.41.67-3.72a101.66,101.66,0,0,1,8-24.07,59.32,59.32,0,0,1,7.87-12,38.71,38.71,0,0,1,6.45-5.76,31.15,31.15,0,0,1,6.06-3.06c.52-.18,1-.33,1.58-.47a3.55,3.55,0,0,0,2.11-1.43l.1-.15a3.75,3.75,0,0,0,.89-2.05c1.23-11.35,3.42-22.75,5.53-33.78,2.3-12,4.68-24.46,5.84-36.87A3.14,3.14,0,0,0,1292.51,569.47Zm-612.17,125c-3.6,25.94-9.38,48.25-17.68,68.17A157.24,157.24,0,0,1,643,797.14a152.7,152.7,0,0,1-13.33,14.76,198.65,198.65,0,0,1-17.3,15c-5.29,4.06-10.74,7.83-16.2,11.23a126.94,126.94,0,0,1-16.95,9.08,111.26,111.26,0,0,1-27.15,7.07,209.53,209.53,0,0,1-27.23,1.54c-7.39,0-14.91-.24-22.18-.48l-.86,0c-3.75-.12-7.49-.24-11.24-.32-1.35-.16-2.71-.33-4.06-.51a311.89,311.89,0,0,1-33.72-6.62,192.92,192.92,0,0,1-27.13-8.64,129.69,129.69,0,0,1-27.87-16.1,118.87,118.87,0,0,1-20.4-20.37,126.16,126.16,0,0,1-12.31-19.71,5.37,5.37,0,0,0-.42-1.28c-.57-1.27-1.11-2.54-1.66-3.82a224.66,224.66,0,0,1-15.15-113.56l0-.12v-.08a.14.14,0,0,0,0-.06l0-.11V664c.47-3.38,1-6.73,1.65-10a4.13,4.13,0,0,0,.59-1.9c0-.43.08-.85.14-1.28.13-.85.27-1.64.42-2.39s.39-1.7.59-2.56a50.12,50.12,0,0,1,2.15-6.44,59.14,59.14,0,0,1,7-11.82,78.79,78.79,0,0,1,13.4-13.17,103,103,0,0,1,21.68-12.5A100.16,100.16,0,0,1,420,595.13a2.7,2.7,0,0,0,1.33-.7c2.54-.46,5.19-.89,7.87-1.27,15-2,30-2.39,47.88-2.39l7,0c8.26,0,17.06.09,25.79.42,9.06.35,18.22.94,27.23,1.76,6.25.57,12.63,1.29,19,2.14l-.39-.07a357.72,357.72,0,0,1,37,6.95,229.29,229.29,0,0,1,34.46,11.2c1,.43,2,.88,3,1.33l.11.06.21.08.12.05,2.84,1.32.27.12a99.15,99.15,0,0,1,16.85,10.34,94.56,94.56,0,0,1,16,16A85.09,85.09,0,0,1,677,660.15a77.89,77.89,0,0,1,5.1,18.43c-.49,5.36-1.1,10.76-1.81,16Zm125.25-91.33a1.45,1.45,0,0,1,.41-.12c1.13-.16,2.26-.3,3.4-.44Zm12.77-1.38a.48.48,0,0,0,0-.11l1.49,0Zm20.14-4.6h0l.17,0Zm365.79,95.28c-.46,4.57-1,9.22-1.5,13.71q-.32,2.72-.62,5.46c-.28,2.41-.52,4.81-.78,7.21-.46,4.39-.94,8.93-1.53,13.38-2.64,19.11-6.73,35.16-12.5,49.07a136,136,0,0,1-14.3,25.61,3.27,3.27,0,0,0-.64.8l-.11.19-.11.21c-.6.82-1.21,1.63-1.82,2.44a115.85,115.85,0,0,1-11.52,12.79c-3.46,3.29-7.07,6.33-11.1,9.68a108.13,108.13,0,0,1-14.54,7.51c-13.58,5.64-29.13,9.51-48.95,12.19l.9-.1c-5.86.76-12,1.43-18.85,2-7.88.7-15,1.19-21.85,1.5-5.35.24-10.6.35-15.63.35a264.8,264.8,0,0,1-35.06-2.18,169.87,169.87,0,0,1-42.19-11c-3-1.29-6-2.68-8.79-4.13-1.43-.73-2.85-1.52-4.23-2.28l-.33-.18-.14-.08c-1.79-1-3.64-2-5.4-3.1a3,3,0,0,0-.36-.19l-1.37-1A134.44,134.44,0,0,1,908.08,809,206.14,206.14,0,0,1,882.34,764,252.15,252.15,0,0,1,865,700.75c-.43-3.26-.78-6.57-1.05-9.87-.12-1.5-.23-3.1-.32-5a190.14,190.14,0,0,1,1.33-21.1A81.21,81.21,0,0,1,870,645a48.26,48.26,0,0,1,12.68-17.87,135.72,135.72,0,0,1,25.28-13.89c14.14-5.93,30.39-10.69,51.13-15,9.22-1.9,18.55-3.52,25.64-4.73,8.41-1.43,17.44-2.92,26.45-4.14l0,0h.19l.13,0,.12,0h.19l.11,0a449.32,449.32,0,0,1,59.21-4.2c7.29,0,14.47.23,21.49.67s13.87,1.11,20.52,2a243.37,243.37,0,0,1,25,4.77,163,163,0,0,1,23.11,7.38A98.6,98.6,0,0,1,1182,611.75a71.58,71.58,0,0,1,12,11.86l.71.95a2.43,2.43,0,0,0,.41,1,47.56,47.56,0,0,1,5.16,9.07,71.69,71.69,0,0,1,4.45,17.32C1206.47,665.8,1205.55,679.61,1204.29,692.48Z" style="fill: rgb(44, 44, 44);"/>
  </g>
  <g id="Draw_Layer-2" data-name="Draw Layer" transform="matrix(1.113411, 0, 0, 1.113411, 578.941162, 321.418304)">
    <path class="cls-2" d="M748.8,553.86a196.66,196.66,0,0,0-41.35,4.54c-3.5.8-7.18,1.84-9.57,4.5-2.17,2.42-2.92,5.78-3.36,9-1.87,13.53.13,27.27,2.16,40.78,2.37,15.67,12,125.8,28.92,122.6,4.22-.8,7.51-4,10.71-6.85,11.18-10,25.56-17.83,40.47-16.36,19.8,2,34.12,19.11,46.18,34.94,11.75-19.13,13.34-42.74,12.49-65.18s-3.8-45.09.09-67.21c1.59-9.06,4.33-18,4.45-27.2s-2.93-19.11-10.52-24.32c-5.41-3.72-12.24-4.51-18.77-5.19C790.18,555.75,769.39,553.61,748.8,553.86ZM713,675l-.15-1.15,0-.41L713,675Z" style="fill: rgb(255, 249, 233);"/>
    <path class="cls-1" d="M448.69,634.33c-10.57,7.24-30.28,25.48-33,62.11L263.53,636.07l-1.34-65Z" style="fill: rgb(44, 44, 44);"/>
    <path class="cls-1" d="M1091.92,624.46c9.87,8.17,27.84,28.13,27.21,64.85l157-46.29,7.23-64.58Z" style="fill: rgb(44, 44, 44);"/>
  </g>
</svg>