<?xml version="1.0" encoding="utf-8"?>
<!-- Generator: Adobe Illustrator 16.0.0, SVG Export Plug-In . SVG Version: 6.00 Build 0)  -->
<!DOCTYPE svg PUBLIC "-//W3C//DTD SVG 1.1//EN" "http://www.w3.org/Graphics/SVG/1.1/DTD/svg11.dtd">
<svg version="1.1" xmlns="http://www.w3.org/2000/svg" xmlns:xlink="http://www.w3.org/1999/xlink" x="0px" y="0px" width="3000px"
	 height="3000px" viewBox="0 0 3000 3000" enable-background="new 0 0 3000 3000" xml:space="preserve">
<g id="Layer_1">
</g>
<g id="Layer_2">
	<path fill="#6BCDEC" stroke="#31323D" stroke-width="9" stroke-miterlimit="10" d="M1006.072,1148.393
		c2.599-16.964,76.002-179.492,85.013-192.309c24.81-35.273,123.323-76.59,167.064-85.54c20.506-4.199,409.56-28.092,431.685-6.677
		c17.85,17.265,87.882,78.914,98.804,103.81c4.84,11.069,55.249,119.719,64.929,127.375c5.466,4.329-5.498,68.706,0.328,66.684
		c20.242-7.068,42.02-43.632,63.181-68.355c41.726-48.75,93.394-129.131,104.241-191.985
		c27.677-160.366-13.012-246.435-97.366-331.464c-62.726-63.227-205.704-116.903-277.159-129.334
		c-121.209-21.087-296.091-10.71-449.454,39.368c-104.621,34.167-190.448,91.206-246.581,175.404
		c-76.883,115.327-87.072,206.452-74.549,281.049c9.828,58.546,73.16,225.673,126.623,256.414L1006.072,1148.393z"/>
	<path opacity="0.1" d="M1679.602,748.836h-49.689c0,0-55.908,21.198-141.914-12.726c-86.006-33.925-54.084,96.851,33.991,125.631
		s359.964,124.946,358.49-57.112C1879.007,622.571,1679.602,748.836,1679.602,748.836z"/>
	<path opacity="0.4" fill="#FFFFFF" d="M1889.076,552.068c0,0,152.475,100.233,133.122,296.019
		c-23.838,241.172-167.515,268.273-167.515,268.273s39.391-26.408-20.032-117.15c-54.028-82.504,123.107-90.909,7.212-473.241
		C1835.183,503.932,1889.076,552.068,1889.076,552.068z"/>
	<path opacity="0.1" d="M1065.518,561.992c-22.495,10.255-301.692,202.451-103.89,565.673
		c32.543,59.759-39.891-245.764,129.692-529.946C1118.733,551.78,1088.012,551.737,1065.518,561.992z"/>
	<g opacity="0.6">
		<g>
			<path fill="#FFFFFF" d="M1845.648,935.784c21.118-13.411,42.624-26.206,63.924-39.324c20.091-12.374,40.064-25.019,57.853-40.62
				c16.14-14.156,35.028-34.937,32.054-58.232c-2.996-23.472-27.252-32.164-48.119-26.632
				c-13.594,3.604-25.563,12.659-36.188,21.494c-10.655,8.859-20.322,18.911-29.499,29.273c-6.388,7.213,4.182,17.862,10.607,10.606
				c14.826-16.742,31.24-33.919,51.486-44.021c8.249-4.117,18.943-5.934,27.613-1.939c7.748,3.57,9.931,11.075,9.215,19.05
				c-0.917,10.209-8.352,19.712-14.862,27.078c-8.277,9.364-18.017,17.474-28.024,24.911
				c-18.937,14.073-39.484,25.988-59.601,38.262c-14.718,8.979-29.476,17.899-44.029,27.142
				C1829.939,928,1837.457,940.986,1845.648,935.784L1845.648,935.784z"/>
		</g>
	</g>
	<g opacity="0.5">
		<g>
			<path fill="#FFFFFF" d="M1744.315,835.883c36.563-40.715,73.356-82.765,96.357-132.956
				c14.298-31.199,25.595-67.769,16.663-102.217c-3.649-14.072-12.886-25.689-28.137-26.792
				c-18.19-1.315-35.343,11.817-45.252,25.81c-19.616,27.7-21.852,64.848-25.121,97.49c-0.079,0.787-0.166,1.572-0.26,2.357
				c-0.485,4.069,3.779,7.5,7.5,7.5c4.455,0,7.016-3.442,7.5-7.5c3.697-31.007,4.87-64.513,22.735-91.405
				c4.485-6.752,10.437-12.039,17.71-15.582c3.577-1.743,7.425-2.922,11.341-3.602c2.629-0.456,4.689-0.181,7.561,0.777
				c2.079,0.694-1.221-0.636,0.699,0.34c0.596,0.303,1.157,0.671,1.716,1.036c1.791,1.172-1.038-0.934,0.578,0.475
				c0.507,0.442,0.97,0.933,1.432,1.42c0.694,0.734,3.212,4.878,3.588,5.781c2.61,6.267,3.537,12.515,4.015,18.474
				c0.447,5.589,0.419,11.216,0.144,16.813c-0.124,2.521-0.328,5.037-0.581,7.546c-0.1,0.984-0.216,1.966-0.338,2.946
				c-0.234,1.892,0.238-1.679-0.017,0.098c-0.066,0.466-0.141,0.932-0.215,1.397c-3.534,22.121-13.062,44.091-23.339,63.823
				c-22.362,42.931-54.75,79.579-86.887,115.364C1727.266,832.451,1737.839,843.095,1744.315,835.883L1744.315,835.883z"/>
		</g>
	</g>
	<g opacity="0.4">
		<g>
			<path fill="#FFFFFF" d="M1620.546,803.725c-6.475-27.205-12.263-54.608-16.417-82.271c-2.514-16.73-5.126-34.23-3.443-51.178
				c0.89-8.969,3.406-18.894,10.346-25.137c5.306-4.774,12.684-4.867,19.136-2.777c15.979,5.175,27.227,22.158,31.077,37.732
				c0.387,1.564,2.797,0.9,2.41-0.665c-3.742-15.139-13.41-29.395-27.217-37.023c-11.341-6.266-24.291-4.879-31.718,6.326
				c-8.79,13.261-7.488,31.881-6.211,46.987c1.995,23.597,6.343,47.03,11.071,70.208c2.625,12.87,5.515,25.686,8.556,38.463
				C1618.509,805.957,1620.919,805.292,1620.546,803.725L1620.546,803.725z"/>
		</g>
	</g>
	<g opacity="0.5">
		<g>
			<path fill="#FFFFFF" d="M1490.499,818.297c7.013-15.631,9.376-33.021,11.397-49.89c2.496-20.835,3.456-41.869,3.694-62.842
				c0.44-38.777-2.94-77.028-15.695-113.971c-5.114-14.812-13.666-32.852-30.76-36.149c-8.404-1.621-16.945,0.524-24.514,4.222
				c-7.221,3.528-11.754,10.31-14.73,17.496c-6.667,16.095-3.38,36.178-0.378,52.692c2.961,16.29,7.76,32.115,11.848,48.134
				c0.487,1.908,0.944,3.825,1.322,5.757c1.856,9.488,16.313,5.46,14.464-3.987c-2.821-14.416-7.645-28.447-10.888-42.781
				c-3.661-16.18-7.375-34.785-3.492-50.875c1.531-6.345,4.215-10.701,9.425-13.483c2.308-1.232,6.883-2.451,8.615-2.646
				c1.601-0.18,3.214-0.14,4.815-0.005c-1.136-0.096,3.702,1.145,2.728,0.724c5.912,2.554,9.398,7.977,12.603,14.165
				c4.646,8.971,7.3,19.013,9.78,28.752c4.379,17.193,7.698,33.034,8.83,49.194c1.17,16.708,1.246,33.508,0.91,50.246
				c-0.38,18.885-1.471,37.787-3.719,56.545c-0.929,7.756-2.19,15.479-3.839,23.115c-0.731,3.384-1.587,6.739-2.563,10.061
				c-0.475,1.62-1.008,3.221-1.57,4.813c-0.262,0.742-0.546,1.476-0.833,2.209c-0.896,2.299,0.566-1.223-0.403,0.936
				c-1.673,3.73-1.114,8.032,2.691,10.261C1483.477,822.885,1488.824,822.028,1490.499,818.297L1490.499,818.297z"/>
		</g>
	</g>
	<g opacity="0.5">
		<g>
			<path fill="#FFFFFF" d="M1346.983,821.743c-17.96-15.697-34.588-32.975-49.672-51.449
				c-15.002-18.374-29.418-39.043-36.577-61.882c-5.174-16.506-6.357-41.12,10.759-51.085c1.378-0.802,2.821-1.499,4.384-1.83
				c-2.062,0.437-0.708,0.125-0.09,0.128c1.725,0.007-1.754-0.357-0.005-0.021c0.525,0.101,1.036,0.266,1.544,0.427
				c1.797,0.569-1.458-0.715,0.332,0.119c1.364,0.636,2.637,1.464,3.874,2.316c1.34,0.922,0.934,0.659,2.53,2.05
				c1.242,1.083,2.419,2.237,3.581,3.404c2.847,2.857,5.465,5.939,8.007,9.067c10.781,13.271,19.728,28.114,28.595,42.696
				c6.814,11.205,13.013,23.13,21.152,33.457c2.535,3.216,7.972,2.635,10.606,0c3.144-3.144,2.528-7.399,0-10.606
				c1.608,2.04-0.395-0.589-0.744-1.09c-0.673-0.965-1.317-1.949-1.959-2.935c-1.767-2.712-3.455-5.476-5.14-8.24
				c-4.237-6.949-8.391-13.948-12.631-20.895c-9.536-15.621-19.408-31.181-31.142-45.267c-7.82-9.387-19.372-21.852-32.958-18.977
				c-9.864,2.087-18.597,10.898-23.118,19.487c-4.911,9.331-6.155,20.296-5.646,30.691c1.376,28.112,17.036,53.673,33.286,75.743
				c17.58,23.875,38.11,45.794,60.427,65.298C1343.626,838.685,1354.28,828.12,1346.983,821.743L1346.983,821.743z"/>
		</g>
	</g>
	<g opacity="0.5">
		<g>
			<path fill="#FFFFFF" d="M1199.331,857.998c-1.1-0.212,2.082,1.174,0.366,0.1c-1.892-1.184,0.967,0.868-0.61-0.458
				c-1.951-1.64-3.751-3.465-5.532-5.285c-5.138-5.25-9.959-10.814-14.709-16.413c-11.228-13.233-21.963-26.961-31.686-41.342
				c-3.601-5.325-7.149-10.793-9.852-16.639c-0.802-1.735,0.577,1.48-0.068-0.17c-0.169-0.432-0.313-0.872-0.456-1.313
				c-0.301-0.938-0.432-1.862-0.534-2.84c-0.43-4.097-0.278-7.088,0.902-10.759c1.31-4.077,4.561-5.736,9.362-5.704
				c6.715,0.045,15.203,4.861,21.118,9.502c9.184,7.206,16.719,16.371,23.229,25.992c5.388,7.961,18.39,0.465,12.952-7.571
				c-12.013-17.752-29.485-38.593-51.999-42.358c-8.127-1.359-15.502,0.106-22.04,5.167c-6.162,4.77-8.312,13.288-8.684,20.662
				c-0.712,14.106,7.643,25.706,15.292,36.786c10.235,14.827,21.483,29.022,33.164,42.733c4.768,5.597,9.645,11.125,14.84,16.331
				c2.913,2.92,6.7,7.224,10.957,8.043C1204.793,874.282,1208.823,859.827,1199.331,857.998L1199.331,857.998z"/>
		</g>
	</g>
	<g opacity="0.5">
		<g>
			<path fill="#FFFFFF" d="M1114.402,894.782c-10.628-8.367-18.382-20.667-26.066-31.573c-11.315-16.06-22.03-32.537-32.938-48.874
				c-9.069-13.583-18.071-27.39-28.519-39.972c-10.078-12.136-26.867-24.315-43.316-23.037
				c-15.108,1.175-27.274,15.95-29.763,30.331c-2.035,11.757,2.036,24.307,6.107,35.202c5.208,13.937,12.08,27.367,20.487,39.644
				c7.085,10.345,15.603,20.863,27.474,25.757c3.787,1.562,8.242-1.66,9.226-5.238c1.185-4.308-1.461-7.669-5.238-9.226
				c1.519,0.626-0.604-0.369-0.734-0.438c-0.665-0.354-1.299-0.764-1.932-1.17c-1.336-0.857-1.654-1.152-3.083-2.397
				c-3.197-2.786-6.01-6.007-8.675-9.294c-5.914-7.292-10.707-15.618-15.052-23.911c-4.379-8.358-8.067-17.05-10.875-26.06
				c-1.17-3.752-2.112-7.576-2.792-11.447c-0.161-0.918-0.3-2.207-0.399-3.817c-0.046-0.747-0.047-1.496-0.046-2.244
				c0.001-0.341,0.257-3.24-0.003-1.374c1.042-7.488,6.785-16.922,14.388-19.072c8.214-2.323,17.681,4.378,23.93,9.04
				c10.509,7.839,16.718,18.262,24.09,28.91c13.235,19.117,25.762,38.713,38.906,57.893c6.137,8.956,12.436,17.791,19.077,26.381
				c4.532,5.861,9.282,11.979,15.14,16.592c3.209,2.526,7.461,3.145,10.606,0C1117.035,902.755,1117.62,897.315,1114.402,894.782
				L1114.402,894.782z"/>
		</g>
	</g>
	<g>
		<path fill="#F8F07B" d="M1543.174,595.933c-3.042-2.702-30.854-27.333-34.07-52.095c-3.553-27.368,6.791-29.861,34.967-27.209
			c10.864,0.635,46.396-0.769,70.124-15.433c20.543-12.695,51.979-29.471,77.105-28.319c15.062,0.684,33.11,8.295,47.113,16.85
			c21.319,13.025,34.99,31.875,38.447,60.45c1.951,16.126-8.165,118.131,24.221,152.546c10.94,11.631,48.17,23.841,64.684,25.69
			c18.484,0.565,65.211-12.298,80.99-3c29.625,15.645,21.87,40.041,9.523,66.154c-14.9,34.017-50.592,76.75-138.454,96.045
			c-58.603,12.87-131.254-9.721-169.191-29.785c-59.256-31.334-104.936-74.723-121.379-140.144
			c-10.639-42.349,19.681-87.966,19.791-108.238C1547.045,609.444,1546.216,598.634,1543.174,595.933z"/>
		<g>
			<path fill="#31323D" d="M1544.941,594.166c-13.771-12.237-27.35-27.633-32.379-45.696c-1.988-7.137-3.78-19.505,1.577-25.756
				c4.87-5.683,15.311-4.56,21.884-4.213c19.984,1.051,39.365-0.082,58.688-5.983c11.601-3.543,21.408-9.794,31.845-15.749
				c11.881-6.779,24.269-12.762,37.292-16.998c12.965-4.217,25.98-5.7,39.341-2.572c13.712,3.21,26.965,9.795,38.573,17.678
				c18.823,12.782,31.052,33.901,32.723,56.658c0.924,12.588-0.165,25.451-0.174,38.06c-0.016,19.199,0.736,38.423,3.355,57.458
				c2.392,17.388,6.429,35.691,16.214,50.553c10.395,15.786,30.636,22.411,47.833,27.799c8.331,2.61,17.644,5.648,26.47,5.512
				c9.142-0.14,18.326-1.875,27.353-3.176c10.77-1.552,21.6-3.081,32.499-3.211c10.528-0.126,18.756,2.429,26.887,9.359
				c18.484,15.754,6.37,40.694-1.739,58.509c-6.195,13.608-14.796,25.981-25.064,36.823c-13.74,14.508-30.48,25.798-48.289,34.703
				c-23.893,11.947-51.035,20.581-77.578,23.766c-27.212,3.265-55.041-0.096-81.597-6.271c-23.329-5.425-46.32-13.38-67.72-24.176
				c-42.654-21.519-81.862-52.625-105.44-94.802c-7.973-14.262-13.791-29.609-17.829-45.422
				c-4.503-17.635-1.436-36.092,3.467-53.285c4.09-14.346,10.17-28.026,14.323-42.343
				C1549.822,613.227,1551.309,601.063,1544.941,594.166c-2.191-2.374-5.718,1.17-3.535,3.535c4.791,5.191,3.105,15.34,1.501,21.374
				c-2.659,9.999-6.723,19.634-10.126,29.391c-8.221,23.567-13.674,48.149-7.177,72.817c12.122,46.024,41.53,83.935,79.245,112.141
				c38.778,29,84.318,47.929,131.912,56.396c25.914,4.61,52.71,5.814,78.657,0.841c25.24-4.838,50.28-13.445,72.969-25.536
				c29.797-15.878,55.328-39.929,69.43-70.904c7.728-16.975,17.896-37.784,7.443-55.821c-4.587-7.916-13.639-14.6-22.326-17.262
				c-8.598-2.634-18.409-1.722-27.205-0.931c-10.548,0.949-21.016,2.681-31.501,4.134c-8.703,1.207-16.879,2.138-25.542,0.364
				c-10.647-2.182-21.094-5.614-31.185-9.616c-8.798-3.49-18.712-7.692-25.252-14.784c-11.837-12.836-16.063-32.063-18.871-48.734
				c-3.263-19.375-3.963-39.171-4.063-58.785c-0.067-13.326,0.764-26.715,0.234-40.033c-0.793-19.971-10.096-39.64-24.375-53.422
				c-8.773-8.469-19.601-14.685-30.592-19.783c-11.726-5.439-24.496-9.436-37.527-9.202c-25.03,0.449-49.688,13.991-70.603,26.541
				c-18.636,11.183-39.106,16.065-60.718,17.188c-7.846,0.407-15.5-0.473-23.329-0.73c-6.437-0.211-13.7,0.017-19.265,3.665
				c-12.834,8.414-6.732,31.533-1.829,42.502c6.565,14.689,18.156,27.583,30.093,38.189
				C1543.808,599.834,1547.356,596.311,1544.941,594.166z"/>
		</g>
	</g>
	<g>
		<path fill="#F8B846" d="M1577.627,521.448c16.197-0.55-17.575,64.758-20.974,68.87c-10.952,12.874-37.613-28.993-39.54-33.355
			c-5.847-14.771-10.059-30.936,3.29-36.352C1531.972,515.9,1561.413,521.999,1577.627,521.448z"/>
	</g>
	<path fill="#31323D" d="M1655.282,567c-2.691,12.506,5.289,24.816,17.798,27.496c12.509,2.676,24.817-5.297,27.48-17.799
		c2.69-12.507-5.276-24.815-17.785-27.492C1670.267,546.529,1657.958,554.498,1655.282,567z"/>
	<g>
		<path fill="#F8F07B" d="M1662.924,697.246c13.514,7.978,30.184,11.115,45.231,13.915c14.723,2.309,31.499-2.982,45.628,2.153
			c11.688,4.617,12.127,21.325,4.219,29.661c-7.71,8.124-32.553,9.57-51.254,6.36c6.434,3.498,38.56,7.53,44.31,15.545
			c5.489,7.679,3.816,25.29-10.94,31.185c-14.675,5.862-28.366,0.977-43.552-7.051c6.213,5.016,15.768,15.966,15.273,21.459
			c-1.343,14.911-9.312,32.735-45.722,13.464c-37.112-19.644-37.747-60.09-40.87-75.126"/>
		<g>
			<path fill="#31323D" d="M1660.671,698.845c13.792,7.903,29.371,11.098,44.829,13.995c7.526,1.41,15.198,0.893,22.795,0.459
				c8.379-0.479,18.917-1.535,26.314,3.276c5.015,3.26,6.218,10.057,5.603,15.538c-0.699,6.238-4.283,10.96-9.951,13.383
				c-12.655,5.409-29.271,4.025-42.476,1.858c-1.463-0.24-5.937,2.242-3.29,3.58c6.274,3.172,13.908,4.088,20.672,5.753
				c7.043,1.732,18.423,3.351,23.228,9.431c5.863,7.421,1.904,20.1-4.625,25.569c-12.957,10.855-32.316,2.327-44.951-4.273
				c-1.904-0.995-7.138,1.013-4.506,3.198c5.183,4.304,14.661,12.708,14.602,20.12c-0.038,4.575-1.592,9.587-3.927,13.479
				c-8.565,14.281-32.227,1.088-41.732-4.853c-13.978-8.735-23.179-22.679-28.313-38.091c-3.614-10.848-4.551-22.102-6.797-33.232
				c-0.506-2.508-6.314-1.022-5.795,1.553c2.701,13.391,3.941,26.678,9.095,39.5c7.424,18.469,21.504,32.072,39.67,39.978
				c12.81,5.574,30.378,9.49,39.375-4.337c2.631-4.042,4.893-10.948,4.254-15.813c-1.113-8.479-9.719-16.347-15.925-21.5
				c-1.502,1.066-3.004,2.132-4.506,3.198c13.966,7.296,29.697,13.483,45.361,7.649c11.076-4.125,17.765-13.757,17.095-25.648
				c-0.594-10.533-9.213-14.053-18.046-16.852c-5.531-1.752-11.208-3.045-16.849-4.388c-4.194-0.999-8.988-1.673-12.873-3.637
				c-1.097,1.193-2.193,2.387-3.29,3.58c14.669,2.407,31.867,3.17,45.996-2.28c11.313-4.365,17.385-16.16,13.296-27.93
				c-5.457-15.709-28.658-12.137-41.319-11.482c-10.438,0.54-20.218-1.341-30.354-3.647c-9.796-2.228-19.407-5.318-28.153-10.33
				C1663.131,694.474,1657.953,697.288,1660.671,698.845L1660.671,698.845z"/>
		</g>
	</g>
	<path fill="#B6E4F3" stroke="#31323D" stroke-width="8" stroke-miterlimit="10" d="M1794.813,1129.898
		c9.104-47.749,40.846-44.235,38.705-52.975c-1.365-5.578-16.109,6.931-52.723-8.927c-19.476-8.435-26.043-38.704-18.607-64.258
		c4.063-13.965,9.948-23.601,20.534-33.736c2.39-2.288-9.741,12.193-31.45,18.396c-28.328,8.094-59.377-8.753-66.492-21.172
		c-18.193-31.757,5.398-62.856,0-67.483c-2.314-1.985-5.968,29.272-37.38,49.289c-37.232,23.727-90.732,2.873-104.202-21.502
		c-13.895-25.141-7.01-38.365-11.075-47.075c-1.363-2.922-2.556,31.914-18.367,52.037c-21.833,27.787-71.123,26.133-99.24,6.285
		c-35.312-24.925-26.575-49.628-30.738-48.963c-4.163,0.666,2.063,10.542-7.215,38.641c-11.579,35.065-83.631,37.108-103.896,22.89
		c-40.276-28.257-32.374-37.048-34.901-38.362c-3.372-1.752,14.449,27.49,2.498,58.365c-10.285,26.568-53.207,39.573-79.012,36.196
		c-14.853-1.944-45.865-23.157-52.123-25.518c-2.486-0.938,23.253,18.364,26.354,42.926c5.182,41.038-16.644,66.403-42.673,72.446
		c-13.894,3.225-35.603-4.962-34.463-1.088c0.811,2.753,17.344,13.246,24.539,28.379c7.682,16.16,9.044,31.606,3.473,48.628
		c-2.977,9.098-20.094,42.931-59.586,41.185c-29.938-1.323-42.001-26.031-41.919-36.503c-1.125-19.487,13.936-120.264,52.5-179.345
		c58.301-89.317,120.459-122.066,202.829-148.861c83.969-27.315,268.25-52.326,477.866,10.067
		c73.841,21.979,142.203,72.169,164.25,184.443c4.008,20.409,12.205,76.427,1.461,104.701c-5.357,14.098-44.1,45.627-61.033,41.185
		S1788.238,1164.384,1794.813,1129.898z"/>
	<path fill="#B2E2F4" stroke="#31323D" stroke-width="4" stroke-miterlimit="10" d="M1810.038,1291.15
		c0,58.005,47.013,105.03,105.03,105.03c58.019,0,105.043-47.025,105.043-105.03c0-58.018-47.024-105.057-105.043-105.057
		C1857.051,1186.094,1810.038,1233.133,1810.038,1291.15z"/>
	<path fill="#B2E2F4" stroke="#31323D" stroke-width="4" stroke-miterlimit="10" d="M1877.344,1014.376
		c0,75.124,60.896,136.032,136.006,136.032c75.127,0,136.033-60.908,136.033-136.032c0-75.119-60.906-136.02-136.033-136.02
		C1938.24,878.356,1877.344,939.258,1877.344,1014.376z"/>
	<path fill="#FFFFFF" d="M1936.807,1269.604c0,18.14,14.695,32.821,32.82,32.821c18.127,0,32.822-14.682,32.822-32.821
		c0-18.127-14.695-32.821-32.822-32.821C1951.502,1236.784,1936.807,1251.478,1936.807,1269.604z"/>
	<path fill="#FFFFFF" d="M2061.538,1006.365c0,18.887,15.302,34.188,34.188,34.188c18.876,0,34.188-15.3,34.188-34.188
		c0-18.875-15.313-34.189-34.188-34.189C2076.84,972.176,2061.538,987.49,2061.538,1006.365z"/>
	<path fill="#FFFFFF" d="M2001.934,1053.249c0,13.765,11.146,24.913,24.899,24.913c13.764,0,24.926-11.147,24.926-24.913
		c0-13.766-11.162-24.913-24.926-24.913C2013.079,1028.335,2001.934,1039.482,2001.934,1053.249z"/>
	<path fill="#FFFFFF" d="M1905.92,1324.01c0,11.869,9.626,21.494,21.508,21.494c11.867,0,21.494-9.625,21.494-21.494
		c0-11.882-9.627-21.507-21.494-21.507C1915.546,1302.503,1905.92,1312.127,1905.92,1324.01z"/>
	<path fill="#B2E2F4" stroke="#31323D" stroke-width="4" stroke-miterlimit="10" d="M930.583,1532.201
		c0,75.123,60.901,136.031,136.019,136.031c75.122,0,136.02-60.908,136.02-136.031c0-75.113-60.898-136.021-136.02-136.021
		C991.484,1396.18,930.583,1457.088,930.583,1532.201z"/>
	<path fill="#FFFFFF" d="M1094.367,1543.98c0,21.621,17.533,39.154,39.156,39.154c21.631,0,39.161-17.533,39.161-39.154
		c0-21.638-17.529-39.17-39.161-39.17C1111.9,1504.811,1094.367,1522.343,1094.367,1543.98z"/>
	<path fill="#FFFFFF" d="M1024.01,1583.135c0,15.752,12.769,28.525,28.528,28.525c15.758,0,28.537-12.773,28.537-28.525
		c0-15.778-12.779-28.537-28.537-28.537C1036.778,1554.598,1024.01,1567.356,1024.01,1583.135z"/>
	<path fill="#B2E2F4" stroke="#31323D" stroke-width="4" stroke-miterlimit="10" d="M825.547,904.973
		c0,58.005,47.013,105.029,105.03,105.029c58.019,0,105.043-47.024,105.043-105.029c0-58.018-47.024-105.057-105.043-105.057
		C872.56,799.916,825.547,846.955,825.547,904.973z"/>
	<path fill="#FFFFFF" d="M952.315,883.427c0,18.14,14.695,32.821,32.82,32.821c18.127,0,32.822-14.682,32.822-32.821
		c0-18.127-14.695-32.821-32.822-32.821C967.011,850.606,952.315,865.3,952.315,883.427z"/>
	<path fill="#FFFFFF" d="M921.429,937.832c0,11.869,9.626,21.494,21.508,21.494c11.867,0,21.494-9.625,21.494-21.494
		c0-11.882-9.627-21.507-21.494-21.507C931.055,916.325,921.429,925.95,921.429,937.832z"/>
	<g>
		<g>
			<path fill="#31323D" d="M333-752.5c3.224,0,3.224-5,0-5S329.776-752.5,333-752.5L333-752.5z"/>
		</g>
	</g>
</g>
</svg>
