<?xml version="1.0" encoding="utf-8"?>
<svg viewBox="0 0 3000 3000" xmlns="http://www.w3.org/2000/svg">
  <g id="highlight">
    <defs>
      <clipPath id="highlightClipPath">
        <path fill="none" d="M1211.5 866.4a240.2 240.2 0 0 1 129.5-37.8h158.2A240.5 240.5 0 0 1 1607 854c24.5-19.2 89.4-68.2 129.3-66.3a15 15 0 0 1 12.1 22.9L1684 914.8a240.5 240.5 0 0 1 47.2 89.2l295.1 960.1a248.1 248.1 0 0 1-6.4 155.9l.8.3c47.5 13.8 136.8 46.1 179.8 75.5 26.1 17.8 10.1 55.9-23.2 55.3l-261.6-5a246.8 246.8 0 0 1-65.3 28c2.8 13.3 12.3 21 28.1 21.9 18.2 1 23.7 18.6 24.5 25.5 2.3 21.2-5.8 34.7-27.9 36.9l-91.8 3a53.5 53.5 0 0 1-22.3-4 71.6 71.6 0 0 1-43.1-54.3l-3.5-20.7h-533.5l-5 26.6a71.4 71.4 0 0 1-8.8 23.9c-13.4 22.8-38.9 35.7-65.3 34.1l-84.3-5c-21.4-1.6-31.9-18.9-27.2-40.4 2.5-11.1 15.1-20.3 30.6-21.1 23.3-1.2 30.3-20.2 29.9-43.6v-3.3q-7.1-3.7-13.9-7.9L770 2251c-33.3.6-49.7-38.2-23.2-55.3 54-34.9 146.4-69.2 184.5-78.3l.6-.2a248.9 248.9 0 0 1-12.6-117.6l182.9-961.4a240.3 240.3 0 0 1 33-93.8l-60.5-108.1a15 15 0 0 1 .9-16c24.9-34.9 89.3 8.5 130.8 42.6z"/>
      </clipPath>
      <linearGradient id="highlightLinearGradient" x1="1844.99" x2="1844.99" y1="2256.39" y2="835.98" gradientUnits="userSpaceOnUse">
        <stop offset="0" stop-color="#fff" stop-opacity="0"/>
        <stop offset="0.72" stop-color="#fff"/>
      </linearGradient>
    </defs>
    <g clip-path="url(#highlightClipPath)" opacity=".2" style="mix-blend-mode:overlay">
      <path fill="url(#highlightLinearGradient)" d="M1547.8 836.6s29 33.5 51 64.8 44.1 86.3 65.6 181c58.9 258.7 229.4 683.2 275.5 888s-51.2 286-51.2 286l61.1-35.5s63-74.8 72.5-107.6c20.8-71.9 139-33 117.2-147.7-31.7-166.5-305.7-970.5-305.7-970.5s-123.4-29.9-151.2-79.3c-20.7-36.8-73.2-64.7-124.1-79.9z"/>
    </g>
  </g>
  <g id="Draw_Layer-2" data-name="Draw Layer" transform="matrix(0.815482, 0, 0, 0.815482, 823.593933, 531.751343)">
    <path class="cls-2" d="M1321.81,676.41a32.66,32.66,0,0,0-4.63-11.28,18.5,18.5,0,0,0-9.14-7.05l-.2-.07a52.32,52.32,0,0,1-9.51-7.8c-21.39-21.88-28.6-53.68-50.67-75.38-42.54-41.8-120.17-43.68-176-45.59-74.84-2.54-149.48,6-223.65,14.9-37.16,4.45-74.4,8.89-111.82,9.74-143.85,3.23-281.79-35.72-424.19,3.87a169.75,169.75,0,0,0-34.92,13.74,130.53,130.53,0,0,0-31.44,23.61C235,606,226.54,618.72,219.23,632q-.93,1.68-1.82,3.36c-1.19,2.77-2.47,5.51-3.87,8.18a89.27,89.27,0,0,1-6.23,10.21,81.93,81.93,0,0,1-13.63,14.51c-1,.86-2.1,1.7-3.19,2.48s-2.06,1.41-3.1,2.09a51.94,51.94,0,0,0-6.14,4.53,16.67,16.67,0,0,0-2.46,2.79,12.68,12.68,0,0,0-1.62,3.23,11.26,11.26,0,0,0-.52,3.77,14.93,14.93,0,0,0,.81,4.36,2.12,2.12,0,0,0,.14.34c.37,12.63.87,25.31,2.93,37.78a18.41,18.41,0,0,0,1.24,8.09,21.83,21.83,0,0,0,4.59,6.76,75.1,75.1,0,0,0,5.85,5.22,48.48,48.48,0,0,1,5.66,5.44,46.07,46.07,0,0,1,5.72,9.25l.09.19c3.64,8.06,5.52,16.77,7.12,25.42,1.11,6,2,12.08,3.35,18.06C246.49,956.84,414,1007.55,544,944.92c80.77-38.9,116.3-108.64,150.59-186.49,2.54-5.78,5-11.57,7.59-17.34,2.2-5,4.5-9.87,7.06-14.65q1.46-2.72,3.07-5.36A71.87,71.87,0,0,1,723,707.35a48.87,48.87,0,0,1,9.33-7,47.37,47.37,0,0,1,10.94-4.3,55.5,55.5,0,0,1,6.46-1.13c3.77.75,7.53,1.59,11.22,2.67a54.13,54.13,0,0,1,12,5.16,43.27,43.27,0,0,1,7.8,6.3,52.83,52.83,0,0,1,5,6.33c1.72,2.51,3.26,5.16,4.75,7.82l.05.1c9.65,17.45,15.85,36.49,22.75,55.13,25.79,69.73,74.24,128.77,142.67,160,62.29,28.45,135.38,31.75,200.47,10.46,38-12.44,74.36-34.9,99.18-66.68,28.07-35.95,34.87-84.68,44.85-128a2.11,2.11,0,0,0-.34-1.65,20,20,0,0,1,1.54-3.29,35.42,35.42,0,0,1,5.19-6.11c2.64-2.53,5.42-4.93,7.89-7.64a28.74,28.74,0,0,0,3.13-4.1,26.26,26.26,0,0,0,2.63-5.66,54,54,0,0,0,2.31-13.26c.3-4.43.29-8.88.4-13.33C1323.46,691.6,1323.51,683.9,1321.81,676.41ZM278.08,610.33l19.14-15a19.77,19.77,0,0,1,12.19-4.21H652.76a17.54,17.54,0,0,1,13.36,6.17l7.49,8.8a5.52,5.52,0,0,1-4.2,9.1H279.74A2.7,2.7,0,0,1,278.08,610.33ZM487,925.24c-22.91,7.56-76.38,20.12-132.77-2.51a2.71,2.71,0,0,1,1.08-5.22l131,3A2.41,2.41,0,0,1,487,925.24ZM593.3,873.15l-8.57,9.16a28.21,28.21,0,0,1-21,8.94L292.6,887.13A18.87,18.87,0,0,1,276.69,878l-3.3-5.51a5.71,5.71,0,0,1,4.9-8.65H589.24A5.55,5.55,0,0,1,593.3,873.15ZM634,818l-2.48,7a15.5,15.5,0,0,1-14.61,10.32H266.43a11.54,11.54,0,0,1-11-8l-3.61-11.19a6.46,6.46,0,0,1,6.15-8.44H626.73A7.74,7.74,0,0,1,634,818Zm23.9-57.07L656.51,769a13.22,13.22,0,0,1-13,11H248.7a6.44,6.44,0,0,1-6.33-5.23l-2.31-12.08a7.18,7.18,0,0,1,7.05-8.53H652.25A5.75,5.75,0,0,1,657.92,760.91Zm15.78-56.17-2.11,9.93a16.13,16.13,0,0,1-15.77,12.77H242a3.58,3.58,0,0,1-3.58-3.58V705.63a6.7,6.7,0,0,1,6.7-6.7H669A4.81,4.81,0,0,1,673.7,704.74Zm12.44-52.14-1.29,8a12.68,12.68,0,0,1-12.52,10.67H250.26a6.89,6.89,0,0,1-6.62-8.81l3.29-11.37A10.47,10.47,0,0,1,257,643.56H678.44A7.8,7.8,0,0,1,686.14,652.6Zm376.61-118.94h-.6Zm-239.44,66,7.49-8.79a17.54,17.54,0,0,1,13.36-6.17H1187.5a19.72,19.72,0,0,1,12.19,4.21l19.14,15a2.7,2.7,0,0,1-1.66,4.82H827.51A5.52,5.52,0,0,1,823.31,599.71Zm-11.25,54.57-1.29-8a7.8,7.8,0,0,1,7.7-9h421.45a10.47,10.47,0,0,1,10.06,7.56l3.29,11.37a6.89,6.89,0,0,1-6.62,8.81H824.58A12.68,12.68,0,0,1,812.06,654.29ZM1142.74,916.4c-56.4,22.63-109.87,10.06-132.77,2.51a2.4,2.4,0,0,1,.7-4.69l131-3A2.71,2.71,0,0,1,1142.74,916.4Zm80.79-50.28-3.3,5.51a18.87,18.87,0,0,1-15.91,9.17l-271.1,4.11a28.17,28.17,0,0,1-21-8.93l-8.57-9.16a5.55,5.55,0,0,1,4.06-9.35h310.95A5.72,5.72,0,0,1,1223.53,866.12Zm21.55-56.36-3.61,11.19a11.54,11.54,0,0,1-11,8H880a15.51,15.51,0,0,1-14.62-10.32l-2.48-7a7.74,7.74,0,0,1,7.29-10.33h368.74A6.46,6.46,0,0,1,1245.08,809.76Zm11.78-53.39-2.31,12.08a6.45,6.45,0,0,1-6.33,5.23H853.44a13.23,13.23,0,0,1-13-11l-1.4-8.13a5.75,5.75,0,0,1,5.66-6.73h405.14A7.18,7.18,0,0,1,1256.86,756.37Zm1.63-38.85a3.58,3.58,0,0,1-3.58,3.59H841.09a16.13,16.13,0,0,1-15.77-12.77l-2.11-9.93a4.81,4.81,0,0,1,4.71-5.81h423.87a6.7,6.7,0,0,1,6.7,6.7Z" style="fill: rgb(254, 254, 254); stroke: rgb(16, 16, 16); stroke-width: 2.45254;"/>
  </g>
</svg>