<svg id="sign" xmlns="http://www.w3.org/2000/svg" width="3000" height="3000" viewBox="0 0 3000 3000" shape-rendering="geometricPrecision">
  <defs>
    <style>
      .cls-1 {
        fill: #31323d;
      }

      .cls-1, .cls-2, .cls-3, .cls-4 {
        fill-rule: evenodd;
      }

      .cls-2 {
        fill: #756650;
      }

      .cls-3 {
        fill: #f7ebda;
      }

      .cls-4 {
        fill: #ff8b8b;
      }
    </style>
  </defs>
  <path id="Color_Fill_667" data-name="Color Fill 667" class="cls-1" d="M947,1660l12.771,3.44c7.983,65.73,16.841,141.58,24.523,209.31L978,1876l7.115,4c11.07,97.84,19.485,177.03,18.885,181-1.6,10.62-9.724,9.15-18,14s-317,42-317,42l3.874,310.04c-15.842-13.62-28.12-48.29-38.874-43.04-13.351,6.52,19.974,74.61,12,75s-33.417-36.81-45-25,5,48,5,48c-16.134.17-49.046-48.56-60.75-68.59L542,2138.85s-334.681,39.07-338.993,40.31c1.366-1.03-10.264-91.45-24.316-199.51L192,1971l-14.584-1.15c-7.017-53.93-14.547-111.64-21.314-164.46L168,1796l-12.885,1.68c-12.609-98.62-22.282-178.33-20.454-181,4.878-7.14,9.011-20.18,16.339-22.68s426-52,426-52,76.622-30.8,86-40,0,33,0,33,268.231-43.06,274-38c2.006,1.76,10.913,69.22,21.61,156.9ZM203.007,2179.16c-0.009,0-.015.03-0.025,0.03C202.935,2179.18,202.954,2179.17,203.007,2179.16Z"/>
  <path id="Color_Fill_668" data-name="Color Fill 668" class="cls-2" d="M634,2384c-13.351,6.52,19.974,74.61,12,75s-33.417-36.81-45-25,5,48,5,48c-11.534.12-31.643-27.31-46.449-50.27L555,2145l110-21,2.837,295.05C654.383,2403.99,643.587,2379.32,634,2384Z"/>
  <path id="Color_Fill_670" data-name="Color Fill 670" class="cls-2" d="M993,2056s-760.1,98.3-765,95-31-175-31-175l34-15s-17.89-3.53-35-3c0,0-24.03-153.07-18-158s54-15,54-15-33.187-12.87-56-5c0,0-31.468-164.64-22-174s425-56,425-56l78-35-4,31s265.428-45.31,274-40,19,145,19,145l-24,7s31.175,3.91,27,16l23,193-27,2s32.472,10,29,20S996.084,2028.24,993,2056Z"/>
  <path id="Color_Fill_665" data-name="Color Fill 665" class="cls-1" d="M691.028,2353.37c-20.265,0,13.972,93.83,13.972,93.83-56.909-3.15-47.649-52.52-61-46s21.908,71.49,14.057,72.94c-24.423,4.51-39.588-41.67-51.171-29.86S626,2499.2,626,2499.2c-53.755-2.87-85-81-85-81-41.781,45.04-2.453,104.37-8.943,103.06S492,2477.2,492,2477.2c4.042,20.21-13.579,23.7-17.328,47.04-9.035-21.58,22.15-40.13,17.328-64.24,0,0,21.51,40.69,28,42s-20.781-55.96,21-101c0,0,45.172,81.21,65,81,0,0-16.583-36.19-5-48s37.026,25.39,45,25-25.351-68.48-12-75,29.046,43.88,51,46c0,0-15.265-90,5-90s17.707,61.3,65,87a11.321,11.321,0,0,1,4.74,4.55C698.687,2407.37,710.547,2353.37,691.028,2353.37Z"/>
  <g>
    <path id="Color_Fill_671_copy" data-name="Color Fill 671 copy" class="cls-3" d="M327.191,1614.94c80.872-33.8,147.082,12.21,171.381,70.36s-11.012,148.75-71.434,174-144.369-16.1-172.317-82.98S276.79,1636,327.191,1614.94Z"/>
    <g>
      <path id="Color_Fill_684" data-name="Color Fill 684" class="cls-1" d="M462.95,1761.06l-0.973,74.16a108.163,108.163,0,0,1-34.839,24.08c-28.517,11.91-62.272,8.99-92.909-4.44L314.7,1802.12s-40.589-1.06-44.254-39.95c-3.768-39.99,16.595-49.94,16.595-49.94s-17.148-36.62,21.021-61.04,57.529-1.11,57.529-1.11,30.695-42.4,63.06-21.08c24.706,16.27,16.6,43.28,16.6,43.28s33.743,3.88,36.509,35.51S462.95,1761.06,462.95,1761.06Z"/>
      <path id="Color_Fill_685" data-name="Color Fill 685" class="cls-3" d="M450.781,1754.4v90.84a101.928,101.928,0,0,1-23.643,14.06c-24.049,10.05-51.825,9.54-78.314,1.08l-25.271-69.36s-40.42.91-42.04-29.96c-1.66-31.63,18.807-45.5,18.807-45.5s-14.463-31.52,11.064-53.27c25.646-21.85,55.316,0,55.316,0s25.549-38.49,49.785-25.52c29.789,15.94,17.7,43.28,17.7,43.28s33.205,0.78,36.509,28.85C474.154,1738.29,450.781,1754.4,450.781,1754.4Z"/>
      <path id="Color_Fill_688" data-name="Color Fill 688" class="cls-1" d="M295,1761.62c5.9,9.24,40.5,35.91,42.707-19.28C339.714,1692.1,284.526,1745.24,295,1761.62Zm43.722-51.28c-14.9,2-31.394-7.36-28.768-20.3s20.391-35.37,38.357-19.33S353.625,1708.33,338.722,1710.34Zm47.946-19.33c-14.191-6.85-9.833-25.64-.959-33.83s15.528-15.53,29.727-5.8C438.291,1667.03,416.223,1705.27,386.668,1691.01Zm31.645,12.56c-7.071,14.65,10.47,36.83,19.178,37.7s23.405-18.37,19.179-31.9S426.067,1687.51,418.313,1703.57Z"/>
      <path id="Color_Fill_689" data-name="Color Fill 689" class="cls-4" d="M301.331,1756.51c3.033,9.13,13.746,15.64,20.462,12.57,6.635-3.04,13.74-35.52,5.277-39.17C317.649,1725.84,298.036,1746.59,301.331,1756.51Zm32.6-52.94c-11.8,0-24.8-7.7-13.425-22.23,9.561-12.21,17.915-11.96,26.85-.97S344.334,1703.57,333.927,1703.57Zm55.618-19.33c6.645,9.85,29.6-1.04,28.768-13.53s-14.717-19.03-21.1-14.5S377.473,1666.36,389.545,1684.24Zm49.864,48.33c11.786-.09,13.726-11.73,11.507-19.33s-20.172-19.86-24.932-8.7S427.623,1732.65,439.409,1732.57Z"/>
      <path id="Color_Fill_686" data-name="Color Fill 686" class="cls-1" d="M370.8,1695.58s-45.213,60.38-21.635,82.42c19.381,18.11,38.762-8.15,38.762-8.15s36.508,7.24,35.155-22.65S370.8,1695.58,370.8,1695.58Z"/>
      <path id="Color_Fill_687" data-name="Color Fill 687" class="cls-4" d="M372.284,1703.57s-33.562,54.13-20.137,69.6,34.521-12.57,34.521-12.57,31.165,5.32,31.645-10.63S372.284,1703.57,372.284,1703.57Z"/>
    </g>
  </g>
  <path id="Color_Fill_680" data-name="Color Fill 680" class="cls-3" d="M580.29,1804.06c-24.546,3.18-26.918-182.36-6.889-187.3s60.05,73.33,69.92,69.41-4.757-77.36,14.254-77.79,89.624,149.69,77.791,163.35-50.391-94.11-60.261-90.19-1.464,29.51-17.138,34.01-54.836-50.34-64.417-43.52S604.889,1800.88,580.29,1804.06Zm205.87-37.39s-52.685-161.44-27.14-169.86,98.554-40.66,103.336-22.04-82.735,37.61-80.706,43.28-3.209,41.45,5.643,42.03,43.255-21.93,47.314-10.58,12.327,20.8,5.793,28.79-26.707,11.47-33.241,19.47-3.788,35.62,2.162,36.5,83.313-31.8,88.678-22.05,12.616,23.71,3.908,24.58S797.62,1778.75,786.16,1766.67ZM421.209,2090.66c19.869-2.28-.11-88.57,19.987-88.86s91.788-24.64,82.06-56.74-59.925-48.48-96.992-38.18-48.3,17.63-55.11,28.48,33.931,155.14,34.159,157.13S401.34,2092.94,421.209,2090.66Zm143.912-201.75c-27.025,3.11-.211,120.82,8.489,143.98s103.617,8.22,110.812-16.76-49.834,21.83-74.2,2.48-6.823-111.95-23.86-120.06S575.055,1887.77,565.121,1888.91Zm156.054-25.98c-42.992,14.41-38,54.7-18.685,82.67s70.548-34.27,84.592.35-49.994,37.96-60.546,51.25,8.244,19.18,24.139,17.35,118.429-46.82,95.518-75.39-86.493-21.27-110.336-18.53,16.263-51.19,40.106-53.93S785.145,1841.49,721.175,1862.93ZM433.181,1984.6s61.823-5.09,52.323-35.2-55.541-27.84-63.535-9.81S408.424,1979.39,433.181,1984.6Z"/>
</svg>
