<?xml version="1.0" encoding="utf-8"?>
<svg viewBox="0 0 3000 3000" xmlns="http://www.w3.org/2000/svg">
  <g id="tail"/>
  <g id="Layer_6" data-name="Layer 6" transform="matrix(0.338171, 0, 0, 0.338171, 1157.623535, 539.157837)">
    <path class="cls-1" d="M834.05,405.81l.23.23a1.69,1.69,0,0,1,.27-.25A4.35,4.35,0,0,0,834.05,405.81Z" style="fill: rgb(255, 211, 78);"/>
    <path class="cls-1" d="M834.05,405.81l.23.23a1.69,1.69,0,0,1,.27-.25A4.35,4.35,0,0,0,834.05,405.81Z" style="fill: rgb(255, 211, 78);"/>
    <path class="cls-1" d="M834.05,405.81l.23.23a1.69,1.69,0,0,1,.27-.25A4.35,4.35,0,0,0,834.05,405.81Z" style="fill: rgb(255, 211, 78);"/>
    <path class="cls-1" d="M432.95,747.18c1.6,1.73,3.27,3.4,5,5.08A21.4,21.4,0,0,0,432.95,747.18Z" style="fill: rgb(255, 211, 78);"/>
    <polygon class="cls-1" points="1124.02 695.53 1124.02 695.51 1123.9 695.41 1124.02 695.53" style="fill: rgb(255, 211, 78);"/>
    <path class="cls-1" d="M1149.82,716.57c0,.42,0,.83,0,1.25a21.15,21.15,0,0,0,5.9-4.12A21.26,21.26,0,0,1,1149.82,716.57Z" style="fill: rgb(255, 211, 78);"/>
    <path class="cls-1" d="M1145.88,701.55l-.08.12a3.87,3.87,0,0,0,.88-.48c-.1-.17-.17-.37-.27-.54C1146.25,701,1146.07,701.24,1145.88,701.55Z" style="fill: rgb(255, 211, 78);"/>
    <path class="cls-1" d="M1150.82,707.7a8.68,8.68,0,0,1-.81.46q-.46.26-.92.46l.12.56A11.68,11.68,0,0,0,1150.82,707.7Z" style="fill: rgb(255, 211, 78);"/>
    <path class="cls-1" d="M1145.88,701.55l-.08.12a3.87,3.87,0,0,0,.88-.48c-.1-.17-.17-.37-.27-.54C1146.25,701,1146.07,701.24,1145.88,701.55Z" style="fill: rgb(255, 211, 78);"/>
    <path class="cls-1" d="M1150,708.16q-.46.26-.92.46l.12.56a11.68,11.68,0,0,0,1.62-1.48A8.68,8.68,0,0,1,1150,708.16Z" style="fill: rgb(255, 211, 78);"/>
    <polygon class="cls-1" points="1124.02 695.53 1124.02 695.51 1123.9 695.41 1124.02 695.53" style="fill: rgb(255, 211, 78);"/>
    <polygon class="cls-1" points="1124.02 695.53 1124.02 695.51 1123.9 695.41 1124.02 695.53" style="fill: rgb(255, 211, 78);"/>
    <path class="cls-1" d="M1146.42,700.64c-.17.31-.35.6-.54.9l-.08.12a3.87,3.87,0,0,0,.88-.48C1146.59,701,1146.52,700.82,1146.42,700.64Z" style="fill: rgb(255, 211, 78);"/>
    <path class="cls-1" d="M1320.73,908.78l-3.71-3.31-.42-.33c-4.71-21.64-10-41.6-18.6-60.92a133,133,0,0,0-19.35-31.42,145.74,145.74,0,0,0-22.6-21.19,125.84,125.84,0,0,0-22.9-13.92,79.73,79.73,0,0,0-25.31-7.33,42.63,42.63,0,0,0-5.31-.31c-.27,0-.54,0-.81,0a97.46,97.46,0,0,0-.67-10.58,52.11,52.11,0,0,0-2.73-12,65.7,65.7,0,0,0-6.31-13.92,69.48,69.48,0,0,0-9.17-11.85,74.41,74.41,0,0,0-11.5-9.5,83.59,83.59,0,0,0-13.33-7,67,67,0,0,0-11.1-3.58,89.45,89.45,0,0,0-36.19-1.52,72.42,72.42,0,0,0-9.63,2c-.06-.54-.12-1-.17-1.54A72.37,72.37,0,0,0,1098.5,689a102.4,102.4,0,0,0-5.44-14.4,79.89,79.89,0,0,0-5.87-10.31,121.82,121.82,0,0,0-9.21-12.33,101,101,0,0,0-8.48-8.52,141.9,141.9,0,0,0-12.14-9.83,130.85,130.85,0,0,0-24.65-13.4c-7.77-3.27-16.21-5.65-27.35-7.71a103.45,103.45,0,0,0-24.73-1.54h0a113.47,113.47,0,0,0-20.42,2.79,105,105,0,0,0-11.85,3.67,154.16,154.16,0,0,0-.75-23.54,106.69,106.69,0,0,0-7.13-28,93.18,93.18,0,0,0-15-25,83.42,83.42,0,0,0-9.5-9.73,119.16,119.16,0,0,0-14-10.9A128.09,128.09,0,0,0,884.44,511a80.17,80.17,0,0,0-15.69-5.15,88.7,88.7,0,0,0-18.54-2.29h-.15a83.46,83.46,0,0,0-18,1.94c-.69.15-1.38.33-2.1.5h0c-1.44.37-2.88.79-4.37,1.27a23.27,23.27,0,0,0,6.88-6c.37-.46.71-.94,1-1.42a23.31,23.31,0,0,0,3.33-17.75l-1.62-4.75-.42-1a23.28,23.28,0,0,0-7.4-8.46l0,0c-7.81-6.9-15.29-14.62-22.54-22.08l-.9-.92a380.59,380.59,0,0,0-29.33-27.67l-.71-.58-4.46-2.19-1-.38a23.47,23.47,0,0,0-12.25-.69l0,0a23.44,23.44,0,0,0-14.46,9.88c-.38.6-.75,1.19-1.08,1.81-9.9,9-19.39,18.54-28.58,27.79-7.58,7.63-15.42,15.52-23.37,23a24.35,24.35,0,0,0-6.27,9.5c0,.06-.06.13-.08.21a24,24,0,0,0-1.67,7.9,22.16,22.16,0,0,0,6.06,16.35c1.46,1.52,2.94,3,4.44,4.52,1.06,1.1,2.13,2.15,3.23,3.21-1.56-.42-3.1-.77-4.62-1.1s-3.17-.65-4.73-.94a79.76,79.76,0,0,0-14.94-1.4c-.87,0-1.73,0-2.6,0a98,98,0,0,0-20.38,2.6,104.67,104.67,0,0,0-19,6.75,114.59,114.59,0,0,0-43,36.38,104,104,0,0,0-8.73,14.42,121.08,121.08,0,0,0-7.79,18.64A109.69,109.69,0,0,0,564,616.86c-10.23-5.54-23.35-11.9-37.67-15.15A94.09,94.09,0,0,0,503,598.93a91.07,91.07,0,0,0-21.23,2.88A118.53,118.53,0,0,0,463,608.55a105.36,105.36,0,0,0-14.67,8.23,131.12,131.12,0,0,0-14,10.52,118.06,118.06,0,0,0-12.17,12.62,94.88,94.88,0,0,0-16,26.73,84.62,84.62,0,0,0-4.4,16.79c-.25,1.42-.46,2.87-.6,4.35a127.32,127.32,0,0,0-14.67-1.4c-1.29,0-2.56-.06-3.85-.06-2.83,0-5.69.1-8.58.31a135.16,135.16,0,0,0-15.87,1.87,88.81,88.81,0,0,0-11.71,3.06,101.33,101.33,0,0,0-14.27,5.85,81.09,81.09,0,0,0-12.71,8.42,68.66,68.66,0,0,0-10.6,11A63.48,63.48,0,0,0,301,730.24c-2.38,5.13-3.48,10.37-4.46,15.71a61.2,61.2,0,0,0-.92,13.56A101.15,101.15,0,0,0,298,778.18l.23,1c-4.54,0-9.15.31-13,.65a99.8,99.8,0,0,0-32.06,8.92,96.91,96.91,0,0,0-13,7.23,132.69,132.69,0,0,0-14.73,11.06,143.19,143.19,0,0,0-31.31,40.54,179.27,179.27,0,0,0-11.35,26.65,169.51,169.51,0,0,0-5.33,20.81,23.35,23.35,0,0,0-4.1,11.92c0,.38,0,.79,0,1.12a23.33,23.33,0,0,0,5.92,15.65A23.61,23.61,0,0,0,195,931.44l5.92.6,14.62,1.46,6.56.63c14.27,1.38,28.77,2.75,43,4l26.89,2.31c18.06,1.52,36.31,2.94,54.25,4.25l12.56.9c97.69,6.88,200,11.17,312.45,13.13h.38c31,.54,62.65.88,94.19,1.06l4.44,0c12.83.06,25.87.08,39,.08q12.52,0,25.08,0l16.17-.06c1.62,0,3.25,0,4.87,0,0,0,0,0,0,0l18.56-.12h0c18.23-.12,36.6-.31,54.77-.54l3.21-.06h.58c51.35-.69,104.37-1.85,157.56-3.38l2-.06c4.79-.13,9.56-.27,14.35-.42l8.5-.27c21-.65,42.25-1.38,63.15-2.15l14.58-.54,1.21-.06c22.31-.85,45.42-1.81,68.73-2.83l5.12-.23q17.57-.78,35.15-1.62l4.4-.35,1.06-.15a23.25,23.25,0,0,0,12.37-38.21ZM762.43,457.72a1.67,1.67,0,0,0-.27.25l-.23-.23A4.35,4.35,0,0,1,762.43,457.72ZM733,537a40,40,0,0,1,4.81-2.4,54,54,0,0,1,9.38-1.9,75.61,75.61,0,0,1,15.42,1A81.93,81.93,0,0,1,779,539.09c.21.12.44.23.65.37-.81.92-1.62,1.9-2.44,2.9a139.14,139.14,0,0,0-16,24.75c-.77,1.5-1.5,3-2.21,4.44-3.17-4.92-6.69-10.08-10.46-15.1a122.37,122.37,0,0,0-16.85-18.37C732.14,537.72,732.59,537.34,733,537ZM356.81,898.86l-7.31-.52c-17.92-1.31-36.29-2.75-54.58-4.27l-.63,7.65.42-7.67-25.31-2.19c-14.08-1.25-28.21-2.58-42.12-3.9a140.43,140.43,0,0,1,6.12-15.37,124.49,124.49,0,0,1,14.85-22.73,98.67,98.67,0,0,1,15.06-13.62,80.65,80.65,0,0,1,14.4-7.44,73.28,73.28,0,0,1,14.44-3.12,76.35,76.35,0,0,1,15.6.92A94.38,94.38,0,0,1,327,833.2c1.6.83,3.23,1.71,4.87,2.65l.06.06a186.25,186.25,0,0,0,26.42,20.79,258.55,258.55,0,0,0,26.48,14.9c9.6,4.77,19.71,9.4,30.08,13.75,6.58,2.77,13.29,5.46,19.79,8.08l5.6,2.25c7.69,3.1,15.44,6.38,23.08,9.63C427,903.49,391.62,901.34,356.81,898.86Zm320,13.5c-80.89-1.31-152.21-32.87-227.18-63-14.23-5.71-28.12-11.38-41.37-17.77-16.6-8.27-29.35-16.31-40.08-25.31-.75-.67-1.52-1.38-2.25-2.06l0-.06c-1.77-1.67-3.44-3.35-5.06-5.1a96.43,96.43,0,0,1-7.9-9.52,83.25,83.25,0,0,1-7.65-14.81,74.12,74.12,0,0,1-3.15-14.23,47.39,47.39,0,0,1,.35-8,36.43,36.43,0,0,1,1.58-4.77,30.82,30.82,0,0,1,2.42-3.65,37.58,37.58,0,0,1,4.23-3.73A53.65,53.65,0,0,1,359,736.2a80,80,0,0,1,16.19-3.27,103.89,103.89,0,0,1,23.23,1.35,91.72,91.72,0,0,1,12.29,3.48l-.13.65a36.31,36.31,0,0,0-1.06,8.62,45.35,45.35,0,0,0,1.06,9.73,56.56,56.56,0,0,0,2.92,8.62,34.83,34.83,0,0,0,2.77,5.25,65.84,65.84,0,0,0,5.21,7.31,52.2,52.2,0,0,0,6.12,5.87l.81.67a44.23,44.23,0,0,0,12.85,7.44,38.34,38.34,0,0,0,7.81,2l1.25.21a22.75,22.75,0,0,0,4.19.37,48.52,48.52,0,0,0,5-.33l.9-.08a31.76,31.76,0,0,0,8.33-2.21l.9-.35a32.66,32.66,0,0,0,7.75-4.4l1-.71a24.2,24.2,0,0,0,3.73-3.25,56.16,56.16,0,0,0,5.54-6.62,33.65,33.65,0,0,0,2.83-4.83l.33-.65a36.66,36.66,0,0,0,3.54-9.21l.1-.52a40.53,40.53,0,0,0,1.17-9.13,47.15,47.15,0,0,0-1.1-10.13,53.14,53.14,0,0,0-3-8.73,41.78,41.78,0,0,0-4.52-7.56l-.58-.83a42.54,42.54,0,0,0-10.71-10.38,44,44,0,0,0-7.77-4.08l-.19-.08a34.45,34.45,0,0,0-8.83-2.25l-.75-.12a29.06,29.06,0,0,0-7.08,0,53.93,53.93,0,0,1-2.35-4.88,46.16,46.16,0,0,1-1.46-6.77,44.42,44.42,0,0,1,.44-7.29,52.92,52.92,0,0,1,3.13-9.13,71.12,71.12,0,0,1,7.63-11.35,72.9,72.9,0,0,1,29.67-20.29,67.93,67.93,0,0,1,12.75-2.9,63.79,63.79,0,0,1,11.94.79,109.66,109.66,0,0,1,22.6,8.08c11.12,5.62,21.92,12.52,32.39,19.21l3.44,2.19a267.62,267.62,0,0,0,12.08,32,352.8,352.8,0,0,0,17.52,33.81c13.6,23.35,29.08,45.1,42.44,63.31,3.25,4.42,6.54,8.87,9.81,13.29,4.38,5.92,8.77,11.83,13.1,17.79,3.58,4.88,7.15,9.81,10.71,14.71q7.15,9.87,14.35,19.71c9.75,13.31,20.58,27.89,32.21,42.65C707.91,912.82,692.28,912.61,676.78,912.36ZM755.9,879c-16.08-20.56-31.42-41.69-46.44-62.4-8.29-11.42-16.87-23.25-25.42-34.77s-15.52-21.23-21.67-30.12c-21.15-31-34.62-55.77-43.54-80a161.2,161.2,0,0,1-8.56-37.42,95,95,0,0,1,.83-20.6A84.39,84.39,0,0,1,616.72,597a89.45,89.45,0,0,1,10.17-15.37,85.93,85.93,0,0,1,12.71-11.42,76.11,76.11,0,0,1,13.21-6.81,66.61,66.61,0,0,1,12.87-2.81,65,65,0,0,1,12.65.73,64.36,64.36,0,0,1,11.54,3.77,65.87,65.87,0,0,1,10.35,7,114.72,114.72,0,0,1,15.92,18.56c4.58,6.85,8.88,14.15,13,21.23,1.94,3.31,3.92,6.67,6,10a29.39,29.39,0,0,0-8.06,7.4c-4,4.9-5,10.81-5.6,14.67a17.64,17.64,0,0,0-.21,3.69,43.53,43.53,0,0,0,3.85,17.83l.19.5a68.64,68.64,0,0,0,9.87,16.58,51.62,51.62,0,0,0,5.31,5.94,58.54,58.54,0,0,0,8.94,7.31,39,39,0,0,0,10.6,4.92,36,36,0,0,0,10,1.46,38.07,38.07,0,0,0,6.13-.52c6.33-1,11.25-4.27,14.83-7a29.63,29.63,0,0,0,4.83-5c.27-.33.54-.65.81-1a25.64,25.64,0,0,0,2.88-4.23A57.18,57.18,0,0,0,805,671a83.34,83.34,0,0,0,2.79-16.81,55.72,55.72,0,0,0-.31-8.33l-.1-1.13a25,25,0,0,0-1.1-5.62l-.17-.56a31.48,31.48,0,0,0-3.19-7.5,44.57,44.57,0,0,0-3.54-5,28.56,28.56,0,0,0-4-3.71q-.46-.35-.87-.69a18.92,18.92,0,0,0-3.73-2.42,149.58,149.58,0,0,1,9.85-27.6,124.91,124.91,0,0,1,15-23.12,82.78,82.78,0,0,1,12.5-11.4,59,59,0,0,1,9.94-5.17A52.74,52.74,0,0,1,847,550a55,55,0,0,1,9.54.58A69.29,69.29,0,0,1,869.19,555a84.56,84.56,0,0,1,14.6,9.56,68.44,68.44,0,0,1,8.85,9.81,67.15,67.15,0,0,1,5.85,11.48,81.54,81.54,0,0,1,3.46,16.85,127.28,127.28,0,0,1-2.08,29.48c-3.9,19.1-11.21,39.54-22.27,62.46A493.17,493.17,0,0,1,853,738.26c-9.44,15-20,29.87-30,43.77q-4.87,6.75-9.75,13.52C793.86,822.51,773.92,850.15,755.9,879Zm237.43-2.48C986,878.74,978.44,881,971,883.34c-8,2.52-16.12,5.17-23.92,7.75-4.83,1.58-9.64,3.17-14.46,4.73-20.25,6.56-41.81,13.12-63.64,17.44h0c-8.19.06-16.29.1-24.35.13l-6.87,0c-16.08.06-32.29.06-48.44,0,19.15-31.73,41.06-62.1,62.4-91.66,5.56-7.71,11.13-15.42,16.65-23.17,10.92-15.33,19.62-28.33,27.33-40.94a525.71,525.71,0,0,0,27.4-51c3.75-8,7.06-15.75,9.92-23.27l1.46-.5.92-.42a23,23,0,0,0,8.25-7.1,72.44,72.44,0,0,1,9.88-8.83,70.23,70.23,0,0,1,11.92-6.08,76,76,0,0,1,15.21-3.19,89,89,0,0,1,18.94,1.13,98.88,98.88,0,0,1,20.46,6.87,96,96,0,0,1,16.67,10.94,79.14,79.14,0,0,1,10.58,11.69,65.8,65.8,0,0,1,5.67,10.94,55.55,55.55,0,0,1,2.21,10.23,56.75,56.75,0,0,1-.6,10.35,63,63,0,0,1-3,9.54l-.6-.27-.9-.4a37.1,37.1,0,0,0-9.81-2.62l-.92-.15a43.5,43.5,0,0,0-10.85.1l-.69.08a36.36,36.36,0,0,0-9.1,2.46l-1.25.46a36.47,36.47,0,0,0-9.25,5.37l-.54.38a39.3,39.3,0,0,0-7.62,7.87,37.21,37.21,0,0,0-5.58,10.62,40.9,40.9,0,0,0-2.21,11.73,41.55,41.55,0,0,0,.29,6.17c0,.5.1,1,.13,1.5a24.62,24.62,0,0,0,.85,4.6A40.47,40.47,0,0,0,1004.69,796a46.79,46.79,0,0,0,8.33,6.46,47.55,47.55,0,0,0,10.12,4.52,45.89,45.89,0,0,0,13.4,2,48.81,48.81,0,0,0,8.31-.71,42.39,42.39,0,0,0,9.62-3.15,37.83,37.83,0,0,0,9.17-6,38.26,38.26,0,0,0,7.38-8.58,42.44,42.44,0,0,0,5.12-11.4,43.16,43.16,0,0,0,1.54-9.46c0-.42,0-.83,0-1.25a21.25,21.25,0,0,0,5.87-2.87l.08-.06a18.06,18.06,0,0,0,2.62-2.27,74.73,74.73,0,0,1,9.75-8.58,70.41,70.41,0,0,1,12.21-6.27,67.72,67.72,0,0,1,13.29-2.87,62.87,62.87,0,0,1,12.08.63,53,53,0,0,1,9,2.94,45,45,0,0,1,5.71,3.73,39.32,39.32,0,0,1,3.5,3.9,35.45,35.45,0,0,1,2.21,4.35,36.72,36.72,0,0,1,1.23,5.88,50.64,50.64,0,0,1-.6,9.06,78.08,78.08,0,0,1-5.21,15.08,90.46,90.46,0,0,1-10.52,15.67,133.36,133.36,0,0,1-22.58,19.65c-17.81,11.94-38.69,22-67.69,32.44-17.52,6.19-35.15,11.58-53.21,17Zm200,29.25-2.46.1-.38,0-16.08.6h-.33c-19.19.71-38.62,1.37-57.73,2l-6.77.21q-8.91.29-17.83.54l-2.29.06q-24.61.72-49.06,1.29c11.1-3.6,21-7,30.37-10.44,22-8.06,39.52-16,55.29-25.06,17.27-9.9,32.79-22.5,47.73-35.56,7.3-6.38,14.24-14.29,22.19-19.82,6.47-4.5,12-3.08,19,.59a104.11,104.11,0,0,1,18.23,12.4,99.69,99.69,0,0,1,14,15.25,136.29,136.29,0,0,1,13.31,27.15c3.12,9,5.67,18.38,7.87,27.62C1242.92,903.82,1217.67,904.86,1193.31,905.8Z" style="fill: rgb(255, 211, 78);"/>
    <polygon class="cls-2" points="759.36 427.32 766.49 458.92 793.89 441.63 776.59 469.02 808.19 476.16 776.59 483.3 793.89 510.69 766.49 493.39 759.36 524.99 752.22 493.39 724.82 510.69 742.12 483.3 710.52 476.16 742.12 469.02 724.82 441.63 752.22 458.92 759.36 427.32" style="fill: rgb(255, 255, 255);"/>
  </g>
</svg>