<?xml version="1.0" encoding="UTF-8" standalone="no"?>
<!DOCTYPE svg PUBLIC "-//W3C//DTD SVG 1.1//EN" "http://www.w3.org/Graphics/SVG/1.1/DTD/svg11.dtd">
<svg width="100%" height="100%" viewBox="0 0 3000 3000" version="1.1" xmlns="http://www.w3.org/2000/svg" xmlns:xlink="http://www.w3.org/1999/xlink" xml:space="preserve" xmlns:serif="http://www.serif.com/" style="fill-rule:evenodd;clip-rule:evenodd;stroke-linecap:round;stroke-linejoin:round;stroke-miterlimit:1.5;">
    <g transform="matrix(3.17959,0,0,3.25941,-618.367,-539.749)">
        <rect x="194.48" y="165.597" width="943.517" height="920.411" style="fill:none;"/>
    </g>
    <g transform="matrix(5.30035,0,0,6.07287,-843.586,-11564.8)">
        <rect x="159.156" y="1904.33" width="566" height="494" style="fill:none;"/>
    </g>
    <g transform="matrix(0.797243,-0.153554,0.149741,0.808762,-202.44,615.391)">
        <path d="M560.321,2510.51L129.548,2568.49L303.023,2777.12L797.933,2769.47L560.321,2510.51Z" style="fill:rgb(67,65,77);fill-opacity:0.2;"/>
    </g>
    <g transform="matrix(0.90268,-0.00384867,0.00358779,0.867704,146.859,308.698)">
        <path d="M717.984,2482.37L352.509,2529.83L352.509,2856.5L716.709,2787.28L717.984,2482.37Z" style="fill:url(#_Linear1);stroke:rgb(49,50,61);stroke-width:7.87px;"/>
    </g>
    <g transform="matrix(0.90268,-0.00384867,0.00358779,0.867704,145.651,308.699)">
        <path d="M198.845,2454.21L352.509,2529.83L352.509,2856.5L196.29,2738.99L197.838,2566.49L198.845,2454.21Z" style="fill:url(#_Linear2);stroke:rgb(49,50,61);stroke-width:7.87px;"/>
    </g>
    <g transform="matrix(0.6655,-0.0253966,0.044754,1.18262,121.487,-472.891)">
        <path d="M624.352,2444.6L156.797,2462.22L359.136,2521.1L857.132,2495.92L624.352,2444.6Z" style="fill:url(#_Linear3);"/>
    </g>
    <g transform="matrix(0.6655,-0.0253966,0.044754,1.18262,121.487,-472.891)">
        <path d="M624.352,2444.6L156.797,2462.22L110.457,2371.8L565.117,2353.63L624.352,2444.6Z" style="fill:url(#_Linear4);stroke:rgb(49,50,61);stroke-width:7.26px;"/>
    </g>
    <g transform="matrix(0.797243,-0.153554,0.149741,0.808762,-188.44,275.391)">
        <path d="M526.191,2720.35C281.248,2708.64 152.537,2668.77 134.841,2567.02L160.955,2693.43L304.459,2809.54C391.824,2788.22 494.108,2782.6 526.191,2720.35Z" style="fill:rgb(67,65,77);fill-opacity:0.2;"/>
    </g>
    <g transform="matrix(0.6655,-0.0253966,0.044754,1.18262,121.487,-472.891)">
        <path d="M624.352,2444.6L720.195,2367.55L957.995,2418.38L857.132,2495.92L624.352,2444.6Z" style="fill:url(#_Linear5);stroke:rgb(49,50,61);stroke-width:7.26px;"/>
    </g>
    <g transform="matrix(0.90268,-0.00384867,0.00358779,0.867704,145.651,308.699)">
        <path d="M198.845,2454.21L352.509,2529.83L252.418,2413.64L100.892,2350.59L198.845,2454.21Z" style="fill:url(#_Linear6);stroke:rgb(49,50,61);stroke-width:7.87px;"/>
    </g>
    <g transform="matrix(0.797243,-0.153554,0.149741,0.808762,-236.44,305.39)">
        <path d="M273.648,2647.73L139.147,2564.13L214.788,2677.87L159.713,2972.47L302.013,3119.2L361.111,2786.71L273.648,2647.73Z" style="fill:rgb(67,65,77);fill-opacity:0.101961;"/>
    </g>
    <g transform="matrix(0.797243,-0.153554,0.149741,0.808762,-178.44,253.391)">
        <path d="M787.694,2758.87C710.817,2821.27 609.708,2799.47 520.333,2751.8C579.052,2787.31 638.173,2817.71 697.258,2848.57L787.694,2758.87Z" style="fill:rgb(67,65,77);fill-opacity:0.2;"/>
    </g>
    <g transform="matrix(0.6655,-0.0253966,0.0475172,1.25564,114.522,-655.161)">
        <path d="M963.907,2442.2L921.294,2444.1L432.445,2465.9L359.136,2521.1L857.132,2495.92L963.907,2442.2Z" style="fill:url(#_Linear7);stroke:rgb(49,50,61);stroke-width:6.93px;"/>
    </g>
    <g transform="matrix(0.797243,-0.153554,0.149741,0.808762,-10.4402,489.391)">
        <path d="M558.183,2524.11L154.83,2496.21L140.51,2513.21L125.235,2599.52C113.976,2530.62 457.459,2527.69 533.684,2573.6L538.817,2545.45L558.183,2524.11Z" style="fill:rgb(67,65,77);fill-opacity:0.14902;"/>
    </g>
    <g transform="matrix(1.01524,-0.0958279,0.0939034,1.0353,-537.132,18.2351)">
        <path d="M909.231,2649.62C909.982,2650.3 911.785,2650.86 912.741,2651.08C914.57,2651.49 916.563,2651.88 918.431,2651.39C919.952,2650.99 922.541,2650.24 922.135,2648.11C922.051,2647.66 921.83,2647.25 921.603,2646.86C921.368,2646.46 921.07,2646.1 920.76,2645.75C918.356,2643.05 913.372,2643.17 910.189,2644.03C908.092,2644.6 907.787,2648.3 909.231,2649.62" style="fill:none;stroke:rgb(49,50,61);stroke-width:4.36px;"/>
    </g>
    <g transform="matrix(1.14701,-0.00141928,0.0014166,1.25862,-410.092,-658.406)">
        <ellipse cx="895.397" cy="2644.53" rx="2" ry="1.583" style="fill:rgb(67,65,77);stroke:rgb(49,50,61);stroke-width:3.72px;"/>
    </g>
    <g transform="matrix(1.01957,-0.00126159,0.00117024,1.03973,-295.581,-80.0321)">
        <path d="M910.064,2626.62C913.303,2623.53 913.913,2621.91 917.522,2619.26C917.9,2618.98 920.698,2616.99 921.158,2616.9C922.497,2616.65 924.502,2616.97 925.637,2617.35C926.866,2617.76 928.946,2618.79 929.579,2620.24C931.004,2623.51 931.555,2626.27 932.731,2629.62" style="fill:none;stroke:rgb(49,50,61);stroke-width:4.35px;"/>
    </g>
    <g transform="matrix(1.01957,-0.00126159,0.00117024,1.03973,-295.581,-80.0321)">
        <path d="M946.176,2639.2C950.527,2636.03 953.928,2630.61 958.827,2628.39C962.397,2626.76 962.022,2658.41 961.681,2658.07C959.361,2655.72 950.272,2651.13 945.509,2650.53C939.951,2649.84 936.68,2663.78 929.509,2666.53C914.474,2672.3 898.154,2675.14 884.509,2665.53C884.051,2665.21 893.007,2660.08 892.842,2659.87C891.752,2658.49 881.113,2662.26 880.176,2658.53C879.505,2655.87 879.714,2654.31 880.309,2651.63C885.168,2629.76 910.16,2623.24 929.509,2628.53C936.372,2630.41 940.448,2635.53 946.176,2639.2" style="fill:none;stroke:rgb(49,50,61);stroke-width:4.35px;"/>
    </g>
    <g transform="matrix(1.01957,-0.00126159,0.00117024,1.03973,-295.581,-80.0321)">
        <path d="M901.221,2629.87C902.998,2632.64 907.019,2638.2 907.554,2641.45C908.221,2645.51 908.893,2652.48 907.721,2657.7C906.498,2663.14 904.971,2665.98 902.971,2671.53" style="fill:none;stroke:rgb(49,50,61);stroke-width:4.35px;"/>
    </g>
    <g transform="matrix(1.01957,-0.00126159,0.00117024,1.03973,-295.581,-80.0321)">
        <path d="M920.856,2670.58C920.66,2671.16 925.07,2674.38 926.408,2674.29C929.258,2674.11 930.77,2673.73 932.106,2671.58C932.78,2670.48 932.967,2669.45 933.199,2668.2C933.439,2666.91 933.548,2665.6 933.856,2664.33" style="fill:none;stroke:rgb(49,50,61);stroke-width:4.35px;"/>
    </g>
    <g transform="matrix(1.01957,-0.00126159,0.00117024,1.03973,-295.567,-67.5554)">
        <path d="M780.509,2604.2C862.181,2572.01 951.887,2560.04 1051.18,2572.2" style="fill:none;stroke:rgb(49,50,61);stroke-width:4.35px;"/>
    </g>
    <g transform="matrix(1.01957,-0.00126159,0.00117024,1.03973,-288.746,-46.4227)">
        <path d="M781.842,2600.2C863.459,2569.35 939.823,2558.95 1039.18,2569.53" style="fill:none;stroke:rgb(49,50,61);stroke-width:4.35px;"/>
    </g>
    <g transform="matrix(0.711507,-0.172621,0.189332,0.811761,-249.94,578.072)">
        <path d="M377.645,2547.51L390.338,2573.29L403.177,2545.32C403.663,2544.28 404,2543.64 404.187,2543.38C405.123,2541.56 406.601,2540.7 408.621,2540.77L411.651,2540.77L412.099,2540.94L412.773,2540.94C414.644,2540.94 416.084,2540.83 417.095,2540.6L417.375,2540.77L417.767,2541.26C417.842,2541.54 417.88,2541.73 417.88,2541.8C417.88,2542.16 417.711,2542.4 417.373,2542.5L416.809,2542.61L416.19,2542.67L414.95,2542.84L414.443,2542.89C413.016,2543.3 412.133,2543.95 411.795,2544.85C411.645,2545.26 411.57,2546.43 411.57,2548.37L411.57,2576.67C411.57,2578.09 412.594,2578.96 414.641,2579.3L415.311,2579.41L416.651,2579.58L416.875,2579.63L417.154,2579.69C417.526,2579.76 417.712,2580.23 417.712,2581.09C417.712,2581.42 417.377,2581.57 416.707,2581.53L414.027,2581.53L405.93,2581.53C404.701,2581.53 404.087,2581.53 404.087,2581.53C403.826,2581.53 403.473,2581.48 403.026,2581.37C402.691,2581.37 402.449,2581.37 402.3,2581.37L400.178,2581.37C400.364,2581.37 399.843,2581.42 398.615,2581.53C398.242,2581.53 398.038,2581.44 398,2581.26L397.944,2580.81C397.87,2580.17 398.184,2579.8 398.886,2579.69L401.434,2579.35C402.947,2579.16 403.907,2578.57 404.314,2577.56C404.572,2576.96 404.701,2575.74 404.701,2573.91L404.701,2548.7L390.24,2580.36C389.979,2581.29 389.29,2581.76 388.173,2581.76C387.019,2581.76 386.312,2581.37 386.051,2580.59L385.492,2578.91L384.487,2576.57L382.979,2573.66L371.196,2550.21L371.196,2573.61C371.196,2575.88 371.364,2577.33 371.699,2577.96C372.22,2578.97 373.467,2579.47 375.44,2579.47L375.664,2579.53L377.115,2579.69C377.339,2579.69 377.525,2579.73 377.674,2579.8L377.841,2580.14C377.953,2580.44 377.99,2580.7 377.953,2580.92C377.841,2581.33 377.488,2581.53 376.892,2581.53L374.603,2581.48L370.917,2581.31L369.688,2581.2C367.492,2581.2 365.389,2581.31 363.378,2581.53L363.155,2581.53C362.708,2581.42 362.485,2581.13 362.485,2580.64L362.485,2580.14C362.559,2579.88 362.894,2579.69 363.49,2579.58L363.769,2579.58L365.054,2579.36C366.654,2579.1 367.678,2578.46 368.125,2577.46C368.423,2576.79 368.572,2575.52 368.572,2573.66L368.292,2545.07C367.473,2543.77 366.133,2542.99 364.272,2542.72L363.602,2542.72L363.322,2542.72L362.094,2542.72C361.722,2542.72 361.498,2542.44 361.424,2541.88L361.48,2541.33C361.591,2540.81 361.926,2540.57 362.484,2540.6L364.268,2540.77C364.901,2540.81 366.202,2540.79 368.173,2540.72C369.14,2540.68 370.237,2540.64 371.464,2540.6C372.543,2540.57 373.398,2540.79 374.03,2541.27C374.514,2541.65 375.034,2542.38 375.592,2543.46L376.261,2544.74L377.645,2547.51Z" style="fill:rgb(49,50,61);fill-rule:nonzero;"/>
    </g>
    <g transform="matrix(0.711507,-0.172621,0.189332,0.811761,-249.94,578.072)">
        <path d="M425.251,2545.41C425.251,2543.95 424.387,2543.12 422.658,2542.89L421.756,2542.78L421.53,2542.78L420.515,2542.67C419.726,2542.6 419.35,2542.18 419.388,2541.44C419.388,2540.88 419.816,2540.62 420.672,2540.66L422.347,2540.55L424.134,2540.94C425.139,2540.94 426.982,2540.94 429.663,2540.94C432.715,2540.97 434.446,2540.97 434.856,2540.94L440.608,2540.55C441.24,2540.62 441.724,2540.66 442.06,2540.66C444.368,2540.66 445.875,2540.62 446.583,2540.55L450.883,2540.94L450.827,2542.45L450.827,2545.68C450.827,2546.21 450.873,2547.01 450.966,2548.09C451.059,2549.16 451.106,2549.97 451.106,2550.49C451.106,2551.16 450.806,2551.49 450.207,2551.49L449.477,2551.49C449.065,2551.45 448.747,2551.1 448.522,2550.42L448.466,2550.09L447.96,2547.95L447.679,2547.11C447.155,2545.57 446.584,2544.59 445.966,2544.15C445.348,2543.72 444.215,2543.45 442.567,2543.34L441.669,2543.06L440.489,2543.06L439.029,2543.06L437.85,2543.06L436.445,2543.06L435.714,2543.12C434.179,2543.23 433.281,2543.41 433.018,2543.67C432.531,2544.12 432.251,2544.96 432.175,2546.19L432.12,2546.97L432.12,2556.97L436.724,2556.97C438.708,2556.97 439.961,2556.83 440.485,2556.57C441.271,2556.2 441.87,2555.2 442.282,2553.56L442.45,2552.89L442.45,2552.5L442.562,2551.38C442.562,2550.6 443.046,2550.28 444.014,2550.43C444.535,2550.51 444.796,2550.91 444.796,2551.66C444.796,2551.29 444.74,2552.03 444.628,2553.89L444.349,2558.53L444.293,2562.77L444.349,2563.44L444.461,2565.45C444.498,2566.27 444.144,2566.68 443.4,2566.68C442.841,2566.68 442.488,2566.51 442.339,2566.17L442.283,2565.95L442.171,2565.56L442.171,2565.33L441.947,2563.87L441.834,2563.25C441.61,2562.05 441.31,2561.2 440.936,2560.72C440.449,2560.04 439.663,2559.68 438.577,2559.64L437.454,2559.64L432.12,2559.64L432.12,2576.12C432.12,2577.35 432.715,2578.17 433.907,2578.58C434.577,2578.8 435.694,2578.91 437.257,2578.91L438.821,2578.91C441.724,2578.91 444.051,2578.52 445.801,2577.74C447.737,2576.84 449.468,2575.26 450.994,2572.99L451.441,2572.32C451.739,2571.87 451.888,2571.63 451.888,2571.6C452.111,2571.37 452.353,2571.24 452.614,2571.2L453.284,2571.2C453.879,2571.2 454.177,2571.43 454.177,2571.87C454.177,2572.06 454.159,2572.21 454.121,2572.32L453.563,2573.61L450.492,2581.2L448.481,2581.37C447.7,2581.37 446.21,2581.41 444.014,2581.48C442.041,2581.55 440.757,2581.59 440.161,2581.59L439.658,2581.59L431.952,2581.14L425.028,2581.14C424.767,2581.14 424.227,2581.18 423.408,2581.26L420.951,2581.48L420.058,2581.59C419.35,2581.66 418.941,2581.33 418.829,2580.59C418.755,2579.96 419.09,2579.59 419.836,2579.48L421.568,2579.26C423.131,2579.08 424.135,2578.73 424.581,2578.23C425.028,2577.73 425.251,2576.69 425.251,2575.13L425.251,2545.41Z" style="fill:rgb(49,50,61);fill-rule:nonzero;"/>
    </g>
    <g transform="matrix(0.711507,-0.172621,0.189332,0.811761,-249.94,578.072)">
        <path d="M456.187,2562.33L456.187,2560.09C456.187,2555.14 457.77,2550.91 460.934,2547.42C463.95,2543.99 467.933,2541.78 472.884,2540.77C474.522,2540.43 476.03,2540.27 477.407,2540.27C481.279,2540.27 485.095,2541.48 488.855,2543.9C492.801,2546.43 495.24,2549.5 496.17,2553.11C497.138,2556.83 497.622,2559.68 497.622,2561.66C497.622,2567.61 495.565,2572.47 491.452,2576.23C487.338,2579.99 482.284,2581.87 476.291,2581.87C472.195,2581.87 468.342,2580.74 464.731,2578.46C460.822,2576.01 458.421,2572.92 457.528,2569.19C456.634,2565.47 456.187,2563.18 456.187,2562.33ZM463.559,2555.74C463.484,2556.37 463.447,2557.22 463.447,2558.3C463.447,2559.24 463.67,2561.3 464.117,2564.5C464.452,2566.85 465.299,2569.21 466.658,2571.6C468.017,2573.98 469.627,2575.86 471.488,2577.24C473.536,2578.76 475.862,2579.53 478.468,2579.53C483.271,2579.53 486.64,2577.16 488.576,2572.43C489.506,2570.16 489.972,2567.07 489.972,2563.16C489.972,2561.45 489.618,2559.11 488.911,2556.13C488.055,2552.48 486.528,2549.43 484.332,2546.97C481.8,2544.07 478.822,2542.61 475.397,2542.61C473.201,2542.61 471.228,2543.21 469.478,2544.4C467.728,2545.59 466.388,2547.19 465.457,2549.2C464.452,2551.36 463.819,2553.54 463.559,2555.74Z" style="fill:rgb(49,50,61);fill-rule:nonzero;"/>
    </g>
    <g transform="matrix(0.72366,-0.107953,0.118384,0.825631,-73.2653,509.834)">
        <path d="M508.679,2548.47L518.395,2574.39L526.437,2556.35L522.807,2546.36C522.621,2545.83 522.314,2545.23 521.885,2544.54C521.457,2543.85 521.02,2543.39 520.573,2543.17L519.4,2542.95L518.451,2542.78C517.967,2542.71 517.725,2542.43 517.725,2541.94L517.725,2541.39C517.874,2540.86 518.172,2540.6 518.619,2540.6L519.065,2540.66L520.964,2540.77C522.23,2540.85 523.309,2540.88 524.203,2540.88L528.335,2540.88L532.97,2540.6L533.193,2540.55C533.677,2540.62 533.919,2541.07 533.919,2541.89C533.882,2542.22 533.547,2542.46 532.914,2542.61L532.467,2542.72L531.574,2542.89C530.197,2543.34 529.508,2543.99 529.508,2544.85C529.508,2545.33 529.713,2546.13 530.122,2547.25L540.224,2574.43L541.907,2570.48C543.371,2567.06 545.004,2563.06 546.806,2558.49L547.275,2557.19L549.754,2550.39C550.701,2547.73 551.174,2545.97 551.174,2545.08C551.174,2543.94 550.486,2543.24 549.108,2542.98L548.494,2542.87C547.489,2542.8 546.931,2542.48 546.819,2541.93C546.744,2541.19 546.968,2540.77 547.489,2540.66L547.768,2540.6L548.382,2540.64L549.443,2540.72L550.895,2540.8C551.863,2540.86 552.608,2540.88 553.129,2540.88C553.799,2540.88 554.674,2540.81 555.754,2540.66L557.373,2540.43L557.708,2540.49C558.304,2540.6 558.546,2541.01 558.434,2541.72C558.397,2541.98 558.304,2542.18 558.155,2542.33L557.708,2542.56L556.591,2542.95C555.437,2543.36 554.544,2544.47 553.911,2546.3C552.906,2549.2 551.007,2554.43 548.215,2561.99C546.912,2565.38 545.776,2568.17 544.809,2570.37C544.209,2571.7 543.048,2574.38 541.325,2578.4L540.453,2580.59L540.173,2581.59C540.023,2582.08 539.295,2582.28 537.988,2582.2L536.812,2582.2L536.532,2582.2C536.083,2582.13 535.747,2581.74 535.523,2581.02L535.467,2580.86L535.019,2579.22L533.787,2576.3L527.737,2560.15L519.016,2579.17C518.756,2579.73 518.552,2580.35 518.403,2581.02L518.236,2581.76C517.938,2582.05 516.713,2582.2 514.558,2582.2C514.001,2582.2 513.573,2581.78 513.276,2580.92C513.239,2580.7 513.109,2580.03 512.886,2578.91L511.27,2574.88L500.07,2545.41C499.513,2543.92 498.64,2543.05 497.452,2542.78L496.95,2542.67L496.504,2542.56C496.207,2542.41 496.059,2542.21 496.059,2541.95L496.059,2541.39L496.114,2540.94C496.301,2540.72 496.431,2540.6 496.505,2540.6L497.566,2540.6L498.907,2540.74L500.805,2540.87C501.438,2540.92 503.169,2540.94 505.998,2540.94L507.394,2540.94C507.73,2540.88 507.972,2540.85 508.12,2540.85L510.577,2540.6L510.913,2540.6C511.508,2540.67 511.806,2540.99 511.806,2541.55C511.806,2542.36 511.38,2542.83 510.529,2542.95L510.03,2543.01L509.355,2543.07C508.234,2543.26 507.674,2543.76 507.674,2544.57C507.674,2545.39 507.897,2546.39 508.344,2547.58L508.679,2548.47Z" style="fill:rgb(49,50,61);fill-rule:nonzero;"/>
    </g>
    <g transform="matrix(0.730268,-0.0407045,0.0446038,0.833175,107.627,451.83)">
        <path d="M589.118,2547.51L601.811,2573.29L614.65,2545.32C615.136,2544.28 615.473,2543.64 615.66,2543.38C616.596,2541.56 618.074,2540.7 620.094,2540.77L623.124,2540.77L623.573,2540.94L624.246,2540.94C626.117,2540.94 627.557,2540.83 628.568,2540.6L628.848,2540.77L629.241,2541.26C629.316,2541.54 629.353,2541.73 629.353,2541.8C629.353,2542.16 629.184,2542.4 628.846,2542.5L628.282,2542.61L627.663,2542.67L626.423,2542.84L625.916,2542.89C624.489,2543.3 623.606,2543.95 623.268,2544.85C623.118,2545.26 623.043,2546.43 623.043,2548.37L623.043,2576.67C623.043,2578.09 624.067,2578.96 626.114,2579.3L626.784,2579.41L628.125,2579.58L628.348,2579.63L628.627,2579.69C628.999,2579.76 629.186,2580.23 629.186,2581.09C629.186,2581.42 628.851,2581.57 628.18,2581.53L625.5,2581.53L617.403,2581.53C616.174,2581.53 615.56,2581.53 615.56,2581.53C615.3,2581.53 614.946,2581.48 614.499,2581.37C614.164,2581.37 613.922,2581.37 613.773,2581.37L611.651,2581.37C611.837,2581.37 611.316,2581.42 610.088,2581.53C609.715,2581.53 609.511,2581.44 609.473,2581.26L609.418,2580.81C609.343,2580.17 609.657,2579.8 610.359,2579.69L612.907,2579.35C614.42,2579.16 615.38,2578.57 615.787,2577.56C616.045,2576.96 616.174,2575.74 616.174,2573.91L616.174,2548.7L601.713,2580.36C601.453,2581.29 600.764,2581.76 599.646,2581.76C598.492,2581.76 597.785,2581.37 597.524,2580.59L596.965,2578.91L595.96,2576.57L594.452,2573.66L582.669,2550.21L582.669,2573.61C582.669,2575.88 582.837,2577.33 583.172,2577.96C583.693,2578.97 584.94,2579.47 586.913,2579.47L587.137,2579.53L588.589,2579.69C588.812,2579.69 588.998,2579.73 589.147,2579.8L589.314,2580.14C589.426,2580.44 589.463,2580.7 589.426,2580.92C589.314,2581.33 588.961,2581.53 588.365,2581.53L586.076,2581.48L582.39,2581.31L581.162,2581.2C578.965,2581.2 576.862,2581.31 574.851,2581.53L574.628,2581.53C574.181,2581.42 573.958,2581.13 573.958,2580.64L573.958,2580.14C574.032,2579.88 574.367,2579.69 574.963,2579.58L575.242,2579.58L576.527,2579.36C578.127,2579.1 579.151,2578.46 579.598,2577.46C579.896,2576.79 580.045,2575.52 580.045,2573.66L579.766,2545.07C578.947,2543.77 577.606,2542.99 575.745,2542.72L575.075,2542.72L574.796,2542.72L573.567,2542.72C573.195,2542.72 572.971,2542.44 572.897,2541.88L572.953,2541.33C573.064,2540.81 573.399,2540.57 573.957,2540.6L575.741,2540.77C576.374,2540.81 577.675,2540.79 579.646,2540.72C580.613,2540.68 581.71,2540.64 582.937,2540.6C584.016,2540.57 584.871,2540.79 585.503,2541.27C585.987,2541.65 586.507,2542.38 587.065,2543.46L587.734,2544.74L589.118,2547.51Z" style="fill:rgb(49,50,61);fill-rule:nonzero;"/>
    </g>
    <g transform="matrix(0.731353,-0.00171605,0.00182902,0.834416,217.887,423.825)">
        <path d="M636.724,2545.41C636.724,2543.95 635.86,2543.12 634.131,2542.89L633.229,2542.78L633.003,2542.78L631.988,2542.67C631.199,2542.6 630.824,2542.18 630.861,2541.44C630.861,2540.88 631.289,2540.62 632.145,2540.66L633.82,2540.55L635.607,2540.94C636.613,2540.94 638.455,2540.94 641.136,2540.94C644.188,2540.97 645.92,2540.97 646.329,2540.94L652.081,2540.55C652.714,2540.62 653.198,2540.66 653.533,2540.66C655.841,2540.66 657.348,2540.62 658.056,2540.55L662.356,2540.94L662.3,2542.45L662.3,2545.68C662.3,2546.21 662.346,2547.01 662.439,2548.09C662.532,2549.16 662.579,2549.97 662.579,2550.49C662.579,2551.16 662.279,2551.49 661.68,2551.49L660.95,2551.49C660.538,2551.45 660.22,2551.1 659.995,2550.42L659.939,2550.09L659.434,2547.95L659.153,2547.11C658.628,2545.57 658.057,2544.59 657.439,2544.15C656.821,2543.72 655.688,2543.45 654.04,2543.34L653.142,2543.06L651.962,2543.06L650.502,2543.06L649.323,2543.06L647.918,2543.06L647.188,2543.12C645.653,2543.23 644.754,2543.41 644.491,2543.67C644.005,2544.12 643.724,2544.96 643.649,2546.19L643.593,2546.97L643.593,2556.97L648.197,2556.97C650.181,2556.97 651.434,2556.83 651.959,2556.57C652.744,2556.2 653.343,2555.2 653.755,2553.56L653.924,2552.89L653.924,2552.5L654.035,2551.38C654.035,2550.6 654.519,2550.28 655.487,2550.43C656.008,2550.51 656.269,2550.91 656.269,2551.66C656.269,2551.29 656.213,2552.03 656.101,2553.89L655.822,2558.53L655.766,2562.77L655.822,2563.44L655.934,2565.45C655.971,2566.27 655.617,2566.68 654.873,2566.68C654.314,2566.68 653.961,2566.51 653.812,2566.17L653.756,2565.95L653.644,2565.56L653.644,2565.33L653.42,2563.87L653.307,2563.25C653.083,2562.05 652.783,2561.2 652.409,2560.72C651.922,2560.04 651.136,2559.68 650.05,2559.64L648.927,2559.64L643.593,2559.64L643.593,2576.12C643.593,2577.35 644.188,2578.17 645.38,2578.58C646.05,2578.8 647.167,2578.91 648.73,2578.91L650.294,2578.91C653.198,2578.91 655.524,2578.52 657.274,2577.74C659.21,2576.84 660.941,2575.26 662.467,2572.99L662.914,2572.32C663.212,2571.87 663.361,2571.63 663.361,2571.6C663.584,2571.37 663.826,2571.24 664.087,2571.2L664.757,2571.2C665.352,2571.2 665.65,2571.43 665.65,2571.87C665.65,2572.06 665.632,2572.21 665.594,2572.32L665.036,2573.61L661.965,2581.2L659.954,2581.37C659.173,2581.37 657.684,2581.41 655.487,2581.48C653.514,2581.55 652.23,2581.59 651.634,2581.59L651.131,2581.59L643.425,2581.14L636.501,2581.14C636.24,2581.14 635.7,2581.18 634.881,2581.26L632.424,2581.48L631.531,2581.59C630.824,2581.66 630.414,2581.33 630.302,2580.59C630.228,2579.96 630.564,2579.59 631.309,2579.48L633.041,2579.26C634.604,2579.08 635.608,2578.73 636.055,2578.23C636.501,2577.73 636.724,2576.69 636.724,2575.13L636.724,2545.41Z" style="fill:rgb(49,50,61);fill-rule:nonzero;"/>
    </g>
    <g transform="matrix(0.731353,-0.00171605,0.00182902,0.834416,217.887,423.825)">
        <path d="M667.661,2562.33L667.661,2560.09C667.661,2555.14 669.243,2550.91 672.407,2547.42C675.423,2543.99 679.406,2541.78 684.357,2540.77C685.995,2540.43 687.503,2540.27 688.881,2540.27C692.752,2540.27 696.568,2541.48 700.328,2543.9C704.274,2546.43 706.713,2549.5 707.643,2553.11C708.611,2556.83 709.095,2559.68 709.095,2561.66C709.095,2567.61 707.038,2572.47 702.925,2576.23C698.811,2579.99 693.757,2581.87 687.764,2581.87C683.669,2581.87 679.816,2580.74 676.204,2578.46C672.295,2576.01 669.894,2572.92 669.001,2569.19C668.107,2565.47 667.661,2563.18 667.661,2562.33ZM675.032,2555.74C674.957,2556.37 674.92,2557.22 674.92,2558.3C674.92,2559.24 675.143,2561.3 675.59,2564.5C675.925,2566.85 676.772,2569.21 678.131,2571.6C679.49,2573.98 681.1,2575.86 682.961,2577.24C685.009,2578.76 687.336,2579.53 689.941,2579.53C694.744,2579.53 698.113,2577.16 700.049,2572.43C700.98,2570.16 701.445,2567.07 701.445,2563.16C701.445,2561.45 701.091,2559.11 700.384,2556.13C699.528,2552.48 698.001,2549.43 695.805,2546.97C693.273,2544.07 690.295,2542.61 686.87,2542.61C684.674,2542.61 682.701,2543.21 680.951,2544.4C679.201,2545.59 677.861,2547.19 676.93,2549.2C675.925,2551.36 675.292,2553.54 675.032,2555.74Z" style="fill:rgb(49,50,61);fill-rule:nonzero;"/>
    </g>
    <g transform="matrix(0.731353,-0.00171605,0.00182902,0.834416,217.887,423.825)">
        <path d="M720.152,2548.47L729.868,2574.39L737.91,2556.35L734.28,2546.36C734.094,2545.83 733.787,2545.23 733.359,2544.54C732.93,2543.85 732.493,2543.39 732.046,2543.17L730.874,2542.95L729.924,2542.78C729.44,2542.71 729.198,2542.43 729.198,2541.94L729.198,2541.39C729.347,2540.86 729.645,2540.6 730.092,2540.6L730.539,2540.66L732.437,2540.77C733.703,2540.85 734.783,2540.88 735.676,2540.88L739.808,2540.88L744.443,2540.6L744.667,2540.55C745.15,2540.62 745.392,2541.07 745.392,2541.89C745.355,2542.22 745.02,2542.46 744.387,2542.61L743.941,2542.72L743.047,2542.89C741.67,2543.34 740.981,2543.99 740.981,2544.85C740.981,2545.33 741.186,2546.13 741.595,2547.25L751.697,2574.43L753.38,2570.48C754.845,2567.06 756.477,2563.06 758.279,2558.49L758.748,2557.19L761.227,2550.39C762.174,2547.73 762.648,2545.97 762.648,2545.08C762.648,2543.94 761.959,2543.24 760.581,2542.98L759.967,2542.87C758.962,2542.8 758.404,2542.48 758.292,2541.93C758.217,2541.19 758.441,2540.77 758.962,2540.66L759.241,2540.6L759.855,2540.64L760.916,2540.72L762.368,2540.8C763.336,2540.86 764.081,2540.88 764.602,2540.88C765.272,2540.88 766.147,2540.81 767.227,2540.66L768.846,2540.43L769.181,2540.49C769.777,2540.6 770.019,2541.01 769.907,2541.72C769.87,2541.98 769.777,2542.18 769.628,2542.33L769.181,2542.56L768.064,2542.95C766.91,2543.36 766.017,2544.47 765.384,2546.3C764.379,2549.2 762.48,2554.43 759.688,2561.99C758.385,2565.38 757.25,2568.17 756.282,2570.37C755.682,2571.7 754.521,2574.38 752.798,2578.4L751.926,2580.59L751.646,2581.59C751.496,2582.08 750.768,2582.28 749.461,2582.2L748.285,2582.2L748.005,2582.2C747.556,2582.13 747.22,2581.74 746.996,2581.02L746.94,2580.86L746.492,2579.22L745.26,2576.3L739.21,2560.15L730.489,2579.17C730.229,2579.73 730.025,2580.35 729.876,2581.02L729.709,2581.76C729.412,2582.05 728.186,2582.2 726.031,2582.2C725.474,2582.2 725.047,2581.78 724.749,2580.92C724.712,2580.7 724.582,2580.03 724.359,2578.91L722.743,2574.88L711.544,2545.41C710.986,2543.92 710.113,2543.05 708.925,2542.78L708.423,2542.67L707.978,2542.56C707.68,2542.41 707.532,2542.21 707.532,2541.95L707.532,2541.39L707.588,2540.94C707.774,2540.72 707.904,2540.6 707.978,2540.6L709.039,2540.6L710.38,2540.74L712.278,2540.87C712.911,2540.92 714.642,2540.94 717.472,2540.94L718.868,2540.94C719.203,2540.88 719.445,2540.85 719.594,2540.85L722.051,2540.6L722.386,2540.6C722.981,2540.67 723.279,2540.99 723.279,2541.55C723.279,2542.36 722.854,2542.83 722.003,2542.95L721.503,2543.01L720.828,2543.07C719.707,2543.26 719.147,2543.76 719.147,2544.57C719.147,2545.39 719.37,2546.39 719.817,2547.58L720.152,2548.47Z" style="fill:rgb(49,50,61);fill-rule:nonzero;"/>
    </g>
    <defs>
        <linearGradient id="_Linear1" x1="0" y1="0" x2="1" y2="0" gradientUnits="userSpaceOnUse" gradientTransform="matrix(15.232,69.7918,-67.0856,15.837,538.073,2812.25)"><stop offset="0" style="stop-color:rgb(205,144,103);stop-opacity:1"/><stop offset="0.44" style="stop-color:rgb(188,127,87);stop-opacity:1"/><stop offset="1" style="stop-color:rgb(147,88,48);stop-opacity:1"/></linearGradient>
        <linearGradient id="_Linear2" x1="0" y1="0" x2="1" y2="0" gradientUnits="userSpaceOnUse" gradientTransform="matrix(20.1281,-47.1618,45.3371,20.9455,328.958,2525.51)"><stop offset="0" style="stop-color:rgb(205,144,103);stop-opacity:1"/><stop offset="1" style="stop-color:rgb(147,88,48);stop-opacity:1"/></linearGradient>
        <linearGradient id="_Linear3" x1="0" y1="0" x2="1" y2="0" gradientUnits="userSpaceOnUse" gradientTransform="matrix(51.179,-113.054,200.916,28.8365,619.922,2449.2)"><stop offset="0" style="stop-color:rgb(170,134,100);stop-opacity:1"/><stop offset="1" style="stop-color:rgb(107,82,58);stop-opacity:1"/></linearGradient>
        <linearGradient id="_Linear4" x1="0" y1="0" x2="1" y2="0" gradientUnits="userSpaceOnUse" gradientTransform="matrix(105.562,-251.408,446.788,59.4841,553.749,2360.68)"><stop offset="0" style="stop-color:rgb(211,157,120);stop-opacity:1"/><stop offset="0.52" style="stop-color:rgb(199,143,104);stop-opacity:1"/><stop offset="1" style="stop-color:rgb(161,97,53);stop-opacity:1"/></linearGradient>
        <linearGradient id="_Linear5" x1="0" y1="0" x2="1" y2="0" gradientUnits="userSpaceOnUse" gradientTransform="matrix(133.936,-137.067,243.614,75.4148,816.889,2402.69)"><stop offset="0" style="stop-color:rgb(211,157,120);stop-opacity:1"/><stop offset="1" style="stop-color:rgb(161,97,53);stop-opacity:1"/></linearGradient>
        <linearGradient id="_Linear6" x1="0" y1="0" x2="1" y2="0" gradientUnits="userSpaceOnUse" gradientTransform="matrix(62.3479,-78.0912,75.0734,64.8711,224.158,2414.41)"><stop offset="0" style="stop-color:rgb(205,144,103);stop-opacity:1"/><stop offset="1" style="stop-color:rgb(147,88,48);stop-opacity:1"/></linearGradient>
        <linearGradient id="_Linear7" x1="0" y1="0" x2="1" y2="0" gradientUnits="userSpaceOnUse" gradientTransform="matrix(1.2854,13.5649,-25.593,0.676966,675.19,2500.04)"><stop offset="0" style="stop-color:rgb(205,144,103);stop-opacity:1"/><stop offset="0.54" style="stop-color:rgb(192,132,91);stop-opacity:1"/><stop offset="1" style="stop-color:rgb(147,88,48);stop-opacity:1"/></linearGradient>
    </defs>
</svg>
