<svg id="Group_1_copy_2" data-name="Group 1 copy 2" xmlns="http://www.w3.org/2000/svg" width="3000" height="3000" viewBox="0 0 3000 3000">
  <defs>
    <style>
      .cls-1 {
        fill: #345bbe;
      }

      .cls-1, .cls-2, .cls-3, .cls-4, .cls-5, .cls-6, .cls-7, .cls-8, .cls-9 {
        fill-rule: evenodd;
      }

      .cls-2 {
        fill: #4c7aef;
      }

      .cls-3 {
        fill: #515dcb;
      }

      .cls-4 {
        fill: #31323d;
      }

      .cls-5 {
        fill: #31398a;
      }

      .cls-5, .cls-6 {
        fill-opacity: 0.8;
      }

      .cls-6, .cls-7, .cls-9 {
        fill: #40499f;
      }

      .cls-7 {
        stroke: #31323d;
        stroke-width: 8px;
      }

      .cls-8 {
        fill: #a8b0f5;
      }
    </style>
  </defs>
  <path class="cls-1" d="M1218.5,699.971c254.66-100.338,517.38-122.214,564.33-34.251,48.09,90.091-157.33,252.837-438,349.97-267.09,92.44-484.657,86.94-509.586,1.29C811.044,933.829,972.587,796.866,1218.5,699.971Z"/>
  <path id="Ellipse_1_copy" data-name="Ellipse 1 copy" class="cls-2" d="M1212.69,689.427c253.74-100.413,515.37-122.71,562.03-35.24,47.78,89.582-156.93,251.991-436.49,349.273-266.1,92.6-482.856,87.63-507.632,2.41C806.543,923.129,967.617,786.409,1212.69,689.427Z"/>
  <path id="Color_Fill_1" data-name="Color Fill 1" class="cls-2" d="M1048.43,913.424S1054.48,813.069,797.3,412c-19.581-29.942,30.135-79.661,267.257-165.956,236.37-86.023,349.54-95.634,352.35-53.955,4.33,64.246-10.05,321.123,88.99,578.186C1536.16,848.815,1179.93,990.715,1048.43,913.424Z"/>
  <path id="Color_Fill_2" data-name="Color Fill 2" class="cls-3" d="M1048.43,913.424s2.38-39.586-59.535-168.357c18.165,8.768,75.325,26.048,198.195-15.952,119.52-40.857,223.13-80.3,264.68-144.1,12.58,59.883,29.97,122.563,54.13,185.261C1536.16,848.815,1179.93,990.715,1048.43,913.424Z"/>
  <path id="Color_Fill_3" data-name="Color Fill 3" class="cls-4" d="M1586,590c75.05-1.082,139.01,4.511,180,37,77.85,61.711-.26,160.7-48,199-152.37,122.236-335.74,198.42-560,251-98.54,23.11-280.4,34.36-326-41-51.153-84.544,56.764-172.192,104-207,122.72-90.433,266.58-152.733,432-202,46.17-13.751,95.1-20.728,145-30Z"/>
  <g>
    <path id="brim_extrusion" data-name="brim extrusion" class="cls-1" d="M1218.5,699.971c254.66-100.338,517.38-122.214,564.33-34.251,48.09,90.091-157.33,252.837-438,349.97-267.09,92.44-484.657,86.94-509.586,1.29C811.044,933.829,972.587,796.866,1218.5,699.971Z"/>
    <path id="brim_extrustion_shadow" data-name="brim extrustion shadow" class="cls-5" d="M1043.9,782.992c8.75,20.689,32.66,53.8,49.1,155.008,14.45,88.97-22,128-22,128l2.41,13.24c-131.47,13.56-222.561-8.64-238.166-62.26C817.406,955.688,900.5,865.161,1043.9,782.992Z"/>
    <path id="brim_color" data-name="brim color" class="cls-2" d="M1212.69,689.427c253.74-100.413,515.37-122.71,562.03-35.24,47.78,89.582-156.93,251.991-436.49,349.273-266.1,92.6-482.856,87.63-507.632,2.41C806.543,923.129,967.617,786.409,1212.69,689.427Z"/>
  </g>
  <path id="top_hat_color" data-name="top hat color" class="cls-2" d="M1048.43,913.424S1054.48,813.069,797.3,412c-19.581-29.942,30.135-79.661,267.257-165.956,236.37-86.023,349.54-95.634,352.35-53.955,4.33,64.246-10.05,321.123,88.99,578.186C1536.16,848.815,1179.93,990.715,1048.43,913.424Z"/>
  <path id="brim_shadow" data-name="brim shadow" class="cls-6" d="M1040.56,771.375c0.12,0.823.26,1.682,0.44,2.625,4,21,33,47,52,164-1.52-.436-22,128-22,128l0.17,0.95c-132.767,14.52-224.931-7.29-240.572-61.08C812.789,944.613,896.468,853.774,1040.56,771.375Z"/>
  <path id="top_shadow" data-name="top shadow" class="cls-6" d="M1414.7,186.344a15.454,15.454,0,0,1,.21,4.745c1.21,12.837-13.63,30.469-41.58,50.38C1333.3,271.758,1264.45,308.878,1164,346c-184,68-249,71-249,71s83,198,129,332c4,14-7,4-3,25,3.9,20.5,31.63,45.777,50.62,155.788-16.08-3.629-30.66-9-43.19-16.364,0,0,5.05-102.355-252.127-503.427-19.581-29.942,31.135-80.661,268.257-166.956C1289.36,161.227,1401.72,151.535,1414.7,186.344Z"/>
  <path id="top_outline" data-name="top outline" class="cls-7" d="M1083.05,373.67c-176.239,56.867-288.941,59.819-290.679,27.7-0.332-6.121,1.192-17.8,8.211-29.831,25.94-30.052,104.658-72.521,263.978-130.5,176.7-64.308,286.54-84.907,330.91-74.3a51.16,51.16,0,0,1,19.54,15.12C1442.59,217.442,1271.64,312.82,1083.05,373.67Z"/>
  <path id="Color_Fill_5" data-name="Color Fill 5" class="cls-4" d="M1354,158c26.59-.183,55.37.282,66,16,13.77,20.346,10.82,61.374,7,114-1.56,29.109-2.33,56.669-1,80-0.47,62.091,9.4,95.643,23,161,13.25,63.705,27.71,127.7,46,186,5.19,16.544,25.13,53.194,21,73-8.59,41.159-55.89,64.079-88,83-65.51,38.6-220.92,95.926-331,70-21.6-5.086-38.72-15.439-57-22,0.72-47.571-30.03-99.272-45-135-57.277-136.707-84.3-173.584-134-255-19.665-31.663-42.335-63.337-62-95-5.745-9.139-19.449-21-17-37,6.915-45.169,89.78-81.773,129-99a2757.949,2757.949,0,0,1,299-111l96-23Zm11,9-43,4-90,20c-105.29,31.644-206.4,67.5-301,109-38.5,16.888-120.668,51.2-133,90-5.414,17.032,9.7,30.33,16,40l57,92a1848.969,1848.969,0,0,1,143,271q14,39.5,28,79,4.005,21.5,8,43c17.67,5.9,34.88,13.911,56,18,106.5,20.621,258.98-36.031,322-73,28.52-16.731,72.34-36.69,80-73,3.78-17.934-19.19-58.077-25-73-21.44-55.1-32.4-116.466-46-179-15.4-70.814-21.19-123.687-22-233-0.31-42.458,8.2-105.816-2-121C1404.84,168.86,1383.84,168.517,1365,167Z"/>
  <path id="Color_Fill_2_copy" data-name="Color Fill 2 copy" class="cls-3" d="M1048.43,913.424s2.38-39.585-59.535-168.357c18.165,8.768,75.325,26.048,198.195-15.952,119.52-40.857,223.13-80.3,264.68-144.1,12.58,59.883,29.97,122.563,54.13,185.261C1536.16,848.815,1179.93,990.715,1048.43,913.424Z"/>
  <path id="Color_Fill_6" data-name="Color Fill 6" class="cls-4" d="M1446,576c9.48-.293,11.2,1.4,16,5,9.88,50.472,22.51,99.42,39,145,6.47,17.877,23.55,42.147,16,68-9.34,31.974-45.73,53.021-72,69-69.57,42.319-149.45,63.742-246,81-59.28,10.6-128.78-1.54-161-26,0.42-50.772-27.39-96.19-44-134-5.313-12.092-23.229-37.886-9-49,25.62,0.64,45.62,16.4,78,11C1198.73,723.348,1379.95,664.875,1446,576Zm5,10c-65.25,86.112-213.63,130.809-320,160-40.34,11.071-105.22,15.887-142-1,15.5,35.578,32.56,70.868,46,109q7.5,30.5,15,61c17.64,5.994,34.82,13.9,56,18,105.19,20.384,255.72-34.531,318-71,30.33-17.759,68.83-35.7,82-70,6.46-16.831-5.05-36.2-10-50-11.56-32.215-22.36-67.452-32-102Q1457.505,613,1451,586Z"/>
  <path id="Color_Fill_3_copy" data-name="Color Fill 3 copy" class="cls-8" d="M1485.88,819.565a176.5,176.5,0,0,1-13.55,11.954c-0.01,0-.01,0-0.01.008q-2.5,1.993-5.14,3.985c-7.4-38.783-9.1-73.762-2.97-90.215,8.56-22.978-15.56-50.767-34.01-63.41-18.06-12.379-20.7-34.986-18.82-54.5q7.8-6.067,14.72-12.456c-2.98,19.988-2.82,37.671,4.82,44.486,24.41,21.765,55.09,45.1,48.72,92.186-2.82,20.875.1,44.3,6.24,67.959h0Z"/>
  <path id="Color_Fill_3_copy_2" data-name="Color Fill 3 copy 2" class="cls-8" d="M1446.9,849.423q-2.04,1.285-4.14,2.565l-0.48.293c-1.19.723-2.39,1.445-3.61,2.165-0.3.181-.61,0.362-0.92,0.542q-1.7,1-3.42,1.995l-0.84.482q-2.07,1.19-4.19,2.373a0.219,0.219,0,0,0-.05.03q-4.545,2.533-9.28,5.031c-0.15.078-.29,0.156-0.44,0.235q-2.13,1.118-4.29,2.229l-0.54.277q-2.325,1.2-4.7,2.383h-0.01c-8.49-43.477-10.76-85.84-4.28-103.226,8.56-22.978-15.56-50.767-34.01-63.41-13.62-9.336-15.62-25.913-12.84-42.94q15.36-8.065,29.03-16.661c-0.91,11.688.43,21.084,5.53,25.634,24.41,21.765,56.7,42.347,48.72,89.186-5.22,30.622-2.31,61.7,4.76,90.817h0Z"/>
  <path id="Ellipse_1_copy_5" data-name="Ellipse 1 copy 5" class="cls-9" d="M1044.58,756.064c-1.34,3.812-6.53,2.465-3.58,17.936,3.9,20.5,31.63,45.777,50.62,155.788-16.08-3.629-30.66-9-43.19-16.364,0,0,2.38-39.585-59.535-168.357C997.578,749.257,1015.18,755.384,1044.58,756.064Z"/>
</svg>
