<svg id="Dada" xmlns="http://www.w3.org/2000/svg" width="3000" height="3000" viewBox="0 0 3000 3000">
  <defs>
    <style>
      .cls-1 {
        fill: #575861;
      }

      .cls-2 {
        fill: #e4e1da;
      }

      .cls-2, .cls-3 {
        fill-rule: evenodd;
      }

      .cls-3 {
        fill: #31323d;
      }
    </style>
  </defs>
  <g id="dada-placard-creationadam">
    <rect id="Rectangle_2_copy" data-name="Rectangle 2 copy" class="cls-1" x="155" y="1980" width="291" height="187"/>
    <path id="Rectangle_2_copy_2" data-name="Rectangle 2 copy 2" class="cls-2" d="M159.98,1984.99H441.02v177.02H159.98V1984.99Z"/>
    <path id="dada.nyc" class="cls-3" d="M187.636,2123.36l0.415-.6v2.64h3.012v-26.56h-3.246v10.03l-0.253-.36a6.475,6.475,0,0,0-5.628-3.02,7.169,7.169,0,0,0-5.79,2.67,10.673,10.673,0,0,0-2.218,7.03,12.281,12.281,0,0,0,2.29,7.83,7.434,7.434,0,0,0,6.169,2.9h0a6.337,6.337,0,0,0,5.249-2.56h0Zm-1.181-12.8a11.359,11.359,0,0,1,1.362,6.09,7.251,7.251,0,0,1-1.443,4.71,4.651,4.651,0,0,1-3.806,1.78,4.465,4.465,0,0,1-3.888-1.93,9.5,9.5,0,0,1-1.361-5.51q0-3.795,1.262-5.54a4.594,4.594,0,0,1,3.987-1.74A4.34,4.34,0,0,1,186.455,2110.56Zm17.2,13.18a7.322,7.322,0,0,0,.83-0.87,4.282,4.282,0,0,0,.776,1.9,3.271,3.271,0,0,0,2.669,1.01,4.679,4.679,0,0,0,.884-0.11,6.139,6.139,0,0,0,.992-0.29v-2.35a5.2,5.2,0,0,1-.6.11c-0.187.02-.328,0.04-0.424,0.04a1.081,1.081,0,0,1-.8-0.3,1.069,1.069,0,0,1-.3-0.79v-10.62a5.442,5.442,0,0,0-1.84-4.45,8.189,8.189,0,0,0-5.357-1.53,8.978,8.978,0,0,0-5.736,1.6,6.38,6.38,0,0,0-2.237,4.78H195.5a4.117,4.117,0,0,1,1.362-2.78,4.783,4.783,0,0,1,3.13-.93,5.384,5.384,0,0,1,3.265.88,2.854,2.854,0,0,1,1.172,2.43v0.16a2.063,2.063,0,0,1-.343,1.23,1.629,1.629,0,0,1-.974.65,5.555,5.555,0,0,1-1.028.18l-4.419.56a7.622,7.622,0,0,0-4.555,1.92,5.526,5.526,0,0,0-1.56,4.13,5.3,5.3,0,0,0,1.66,4.11,6.4,6.4,0,0,0,4.491,1.51h0a8.618,8.618,0,0,0,5.952-2.18h0Zm0.722-4.85a3.767,3.767,0,0,1-.108.75,4.742,4.742,0,0,1-1.606,2.2,6.767,6.767,0,0,1-4.329,1.39,3.386,3.386,0,0,1-2.507-.88,3.348,3.348,0,0,1-.884-2.5,2.413,2.413,0,0,1,1.082-2.08,7.89,7.89,0,0,1,3.428-1.1l2.976-.43a6.957,6.957,0,0,0,2-.6v2.1h0a11.1,11.1,0,0,1-.054,1.15h0Zm18.437,4.47,0.415-.6v2.64h3.012v-26.56H223v10.03l-0.252-.36a6.475,6.475,0,0,0-5.628-3.02,7.169,7.169,0,0,0-5.79,2.67,10.673,10.673,0,0,0-2.218,7.03,12.281,12.281,0,0,0,2.29,7.83,7.434,7.434,0,0,0,6.169,2.9h0a6.337,6.337,0,0,0,5.249-2.56h0Zm-1.181-12.8a11.36,11.36,0,0,1,1.361,6.09,7.245,7.245,0,0,1-1.443,4.71,4.648,4.648,0,0,1-3.8,1.78,4.465,4.465,0,0,1-3.888-1.93,9.5,9.5,0,0,1-1.361-5.51q0-3.795,1.262-5.54a4.594,4.594,0,0,1,3.987-1.74A4.34,4.34,0,0,1,221.634,2110.56Zm17.2,13.18a7.322,7.322,0,0,0,.83-0.87,4.282,4.282,0,0,0,.776,1.9,3.271,3.271,0,0,0,2.669,1.01,4.679,4.679,0,0,0,.884-0.11,6.139,6.139,0,0,0,.992-0.29v-2.35a5.2,5.2,0,0,1-.6.11c-0.187.02-.328,0.04-0.424,0.04a1.081,1.081,0,0,1-.8-0.3,1.069,1.069,0,0,1-.3-0.79v-10.62a5.442,5.442,0,0,0-1.84-4.45,8.189,8.189,0,0,0-5.357-1.53,8.978,8.978,0,0,0-5.736,1.6,6.38,6.38,0,0,0-2.237,4.78h2.994a4.117,4.117,0,0,1,1.362-2.78,4.783,4.783,0,0,1,3.13-.93,5.384,5.384,0,0,1,3.265.88,2.854,2.854,0,0,1,1.172,2.43v0.16a2.063,2.063,0,0,1-.343,1.23,1.629,1.629,0,0,1-.974.65,5.555,5.555,0,0,1-1.028.18l-4.419.56a7.622,7.622,0,0,0-4.555,1.92,5.526,5.526,0,0,0-1.56,4.13,5.3,5.3,0,0,0,1.66,4.11,6.4,6.4,0,0,0,4.491,1.51h0a8.618,8.618,0,0,0,5.952-2.18h0Zm0.722-4.85a3.767,3.767,0,0,1-.108.75,4.742,4.742,0,0,1-1.606,2.2,6.767,6.767,0,0,1-4.329,1.39,3.386,3.386,0,0,1-2.507-.88,3.348,3.348,0,0,1-.884-2.5,2.413,2.413,0,0,1,1.082-2.08,7.89,7.89,0,0,1,3.428-1.1l2.976-.43a6.957,6.957,0,0,0,2-.6v2.1h0a11.1,11.1,0,0,1-.054,1.15h0Zm6.641,6.51h3.86v-3.92H246.2v3.92Zm6.5,0h3.247v-10.35a7.706,7.706,0,0,1,1.371-4.82,4.457,4.457,0,0,1,3.715-1.78,4.028,4.028,0,0,1,3.184,1.13,5.56,5.56,0,0,1,.983,3.68v12.14h3.247v-13.24a6.731,6.731,0,0,0-11.941-4.2l-0.722.96v-2.85h-3.084v19.33h0Zm33.246-19.33h-3.556l-5.227,15.99h0l-5.153-15.99H268.3l7.162,19.65v0.01l-0.054.3a13.153,13.153,0,0,1-1.677,3.38,2.29,2.29,0,0,1-1.84.9,5.712,5.712,0,0,1-1.858-.28v3.01a4.862,4.862,0,0,0,1.569.2,5.308,5.308,0,0,0,3.977-1.37c0.884-.92,1.891-2.86,3.021-5.84l7.341-19.96h0Zm11.962,12.37a6.179,6.179,0,0,1-1.687,3.46,4.838,4.838,0,0,1-7.025-.64,9.712,9.712,0,0,1-1.3-5.55,9.285,9.285,0,0,1,1.4-5.44,4.46,4.46,0,0,1,3.851-1.98,4.723,4.723,0,0,1,3.319,1.14,4.791,4.791,0,0,1,1.443,3.21h3.12a7.218,7.218,0,0,0-2.218-5.24,7.851,7.851,0,0,0-5.556-1.91,7.956,7.956,0,0,0-6.376,2.77,11.089,11.089,0,0,0-2.372,7.45,11.312,11.312,0,0,0,2.291,7.45,7.561,7.561,0,0,0,6.132,2.76,7.844,7.844,0,0,0,5.52-1.91,8.965,8.965,0,0,0,2.579-5.57H297.9Z"/>
    <path id="Boris_Z._Simunich_Michelangelo_The_Creation_of_Adam" data-name="Boris Z. Simunich Michelangelo The Creation of Adam" class="cls-3" d="M174.55,2025.17h4.077a4.019,4.019,0,0,0,2.65-.79,2.659,2.659,0,0,0,.953-2.17,2.3,2.3,0,0,0-.977-1.98,3.093,3.093,0,0,0-.862-0.44,2.537,2.537,0,0,0,.455-0.28,2.318,2.318,0,0,0,.923-1.95,2.162,2.162,0,0,0-.781-1.73,3.123,3.123,0,0,0-2.055-.65H174.55v9.99h0Zm1.35-8.84h2.585a2.5,2.5,0,0,1,1.472.35,1.292,1.292,0,0,1,.468,1.1,1.477,1.477,0,0,1-.509,1.25,2.58,2.58,0,0,1-1.608.4H175.9v-3.1h0Zm0,4.2h2.653a3.157,3.157,0,0,1,1.77.39,1.39,1.39,0,0,1,.564,1.23,1.719,1.719,0,0,1-.54,1.41,2.628,2.628,0,0,1-1.7.45H175.9v-3.48h0Zm10.191,4.84a3.1,3.1,0,0,0,2.449-1.07,4.62,4.62,0,0,0,0-5.56,3.348,3.348,0,0,0-4.888,0,4.608,4.608,0,0,0,0,5.56,3.092,3.092,0,0,0,2.439,1.07h0Zm0-1.06a1.818,1.818,0,0,1-1.53-.75,3.941,3.941,0,0,1,0-4.07,1.923,1.923,0,0,1,3.063,0,3.918,3.918,0,0,1,0,4.07,1.826,1.826,0,0,1-1.533.75h0Zm4.383,0.86H191.7v-3.9a2.433,2.433,0,0,1,.539-1.69,1.952,1.952,0,0,1,1.53-.6l0.251,0.01v-1.25a1.073,1.073,0,0,0-.346-0.06,2.06,2.06,0,0,0-1.7.93,4.694,4.694,0,0,0-.332.53v-1.24h-1.161v7.27h0Zm3.943,0h1.221v-7.27h-1.221v7.27h0Zm-0.014-8.61h1.249v-1.38H194.4v1.38Zm7.808,3.44a2.215,2.215,0,0,0-.8-1.7,3.084,3.084,0,0,0-2.017-.62,3.021,3.021,0,0,0-1.978.6,2,2,0,0,0-.729,1.63,1.651,1.651,0,0,0,.436,1.22,3.029,3.029,0,0,0,1.458.69l1.263,0.3a3.628,3.628,0,0,1,1.119.39,0.659,0.659,0,0,1,.278.58,1.059,1.059,0,0,1-.424.91,2.074,2.074,0,0,1-1.246.31,2.331,2.331,0,0,1-1.4-.34,1.583,1.583,0,0,1-.546-1.13h-1.174a2.557,2.557,0,0,0,.835,1.92,3.629,3.629,0,0,0,2.287.61,3.241,3.241,0,0,0,2.1-.64,2.084,2.084,0,0,0,.776-1.71,1.7,1.7,0,0,0-.449-1.26,3.221,3.221,0,0,0-1.514-.71l-1.262-.3a3.608,3.608,0,0,1-1.106-.39,0.677,0.677,0,0,1-.278-0.59,0.856,0.856,0,0,1,.4-0.77,2.057,2.057,0,0,1,1.157-.27,1.852,1.852,0,0,1,1.178.34,1.246,1.246,0,0,1,.492.93h1.146Zm3.809,4.58v0.59h7.837v-1.2h-6.145l6.151-7.62v-1.17H206.5v1.19h5.669l-6.151,7.62h0v0.59Zm8.821,0.59h1.452v-1.48h-1.452v1.48Zm13.778-7.1a3.082,3.082,0,0,0-1.065-2.32,4.024,4.024,0,0,0-2.679-.84,3.886,3.886,0,0,0-2.628.84,2.835,2.835,0,0,0-.973,2.27,2.063,2.063,0,0,0,.561,1.54,4.012,4.012,0,0,0,1.881.87l1.739,0.42a4.8,4.8,0,0,1,1.7.64,1.3,1.3,0,0,1,.424,1.07,1.426,1.426,0,0,1-.645,1.26,3.478,3.478,0,0,1-1.888.42,3.287,3.287,0,0,1-2.1-.59,2.087,2.087,0,0,1-.787-1.68h-1.242v0.08a3.048,3.048,0,0,0,1.073,2.47,4.639,4.639,0,0,0,3.054.92,4.444,4.444,0,0,0,2.786-.8,2.9,2.9,0,0,0,.429-3.98,3.9,3.9,0,0,0-2-.98l-1.737-.42a4.822,4.822,0,0,1-1.581-.56,1,1,0,0,1-.394-0.86,1.531,1.531,0,0,1,.591-1.3,2.89,2.89,0,0,1,1.73-.44,2.731,2.731,0,0,1,1.76.52,1.973,1.973,0,0,1,.743,1.45h1.242Zm1.279,7.1h1.221v-7.27H229.9v7.27h0Zm-0.014-8.61h1.249v-1.38h-1.249v1.38Zm2.5,8.61h1.222v-3.9a2.875,2.875,0,0,1,.519-1.78,1.583,1.583,0,0,1,1.333-.7,1.12,1.12,0,0,1,.9.36,1.541,1.541,0,0,1,.308,1.04v4.98h1.222v-4.09a2.7,2.7,0,0,1,.468-1.67,1.508,1.508,0,0,1,1.262-.62,1.2,1.2,0,0,1,.99.43,2.01,2.01,0,0,1,.34,1.26v4.69h1.221v-5.11a2.381,2.381,0,0,0-4.261-1.46l-0.2.25a1.862,1.862,0,0,0-.4-0.59,2.079,2.079,0,0,0-1.554-.58,2.479,2.479,0,0,0-1.96.97l-0.251.33v-1.08h-1.161v7.27h0Zm12.281-7.27h-1.221v4.99a2.187,2.187,0,0,0,2.47,2.48,2.458,2.458,0,0,0,1.954-.94,2.667,2.667,0,0,0,.271-0.37v1.11h1.16v-7.27h-1.221v3.88a3,3,0,0,1-.516,1.85,1.669,1.669,0,0,1-1.4.68,1.446,1.446,0,0,1-1.147-.4,2,2,0,0,1-.353-1.32v-4.69h0Zm5.91,7.27H251.8v-3.9a2.9,2.9,0,0,1,.516-1.81,1.689,1.689,0,0,1,1.4-.67,1.521,1.521,0,0,1,1.2.43,2.07,2.07,0,0,1,.37,1.38v4.57H256.5v-4.98a2.531,2.531,0,0,0-4.491-1.58l-0.272.36v-1.07h-1.16v7.27h0Zm7.213,0h1.221v-7.27h-1.221v7.27h0Zm-0.014-8.61h1.249v-1.38h-1.249v1.38Zm7.057,5.99a2.323,2.323,0,0,1-.634,1.3,1.819,1.819,0,0,1-2.643-.24,3.622,3.622,0,0,1-.488-2.08,3.493,3.493,0,0,1,.525-2.05,1.675,1.675,0,0,1,1.449-.75,1.665,1.665,0,0,1,1.791,1.64h1.174a2.694,2.694,0,0,0-.835-1.97,2.961,2.961,0,0,0-2.09-.72,3.009,3.009,0,0,0-2.4,1.04,4.182,4.182,0,0,0-.892,2.81,4.268,4.268,0,0,0,.862,2.8,2.851,2.851,0,0,0,2.306,1.04,2.9,2.9,0,0,0,2.076-.73,3.346,3.346,0,0,0,.971-2.09h-1.174Zm1.839,2.62H267.9v-3.9a2.8,2.8,0,0,1,.543-1.81,1.806,1.806,0,0,1,1.466-.67,1.44,1.44,0,0,1,1.126.4,1.977,1.977,0,0,1,.346,1.3v4.68H272.6v-4.98a2.531,2.531,0,0,0-4.491-1.58l-0.211.27v-3.7h-1.221v9.99h0Zm-90.828,19.38h0l2.82,8.42h1.3l2.81-8.45h0v8.45h1.31v-9.99h-1.941l-2.826,8.51h0l-2.852-8.51h-1.941v9.99h1.31v-8.42Zm9.634,8.42H186.7v-7.27H185.48v7.27h0Zm-0.013-8.6h1.248v-1.39h-1.248v1.39Zm7.056,5.99a2.349,2.349,0,0,1-.634,1.3,1.817,1.817,0,0,1-2.642-.24,3.657,3.657,0,0,1-.489-2.09,3.507,3.507,0,0,1,.526-2.05,1.687,1.687,0,0,1,1.448-.74,1.664,1.664,0,0,1,1.791,1.64H193.7a2.73,2.73,0,0,0-.834-1.98,3.321,3.321,0,0,0-4.488.33,4.154,4.154,0,0,0-.893,2.8,4.255,4.255,0,0,0,.862,2.8,2.851,2.851,0,0,0,2.307,1.04,2.94,2.94,0,0,0,2.076-.72,3.377,3.377,0,0,0,.97-2.09h-1.174Zm1.84,2.61h1.221v-3.89a2.779,2.779,0,0,1,.543-1.81,1.776,1.776,0,0,1,1.465-.67,1.4,1.4,0,0,1,1.126.4,1.959,1.959,0,0,1,.346,1.3v4.67h1.222v-4.98a2.526,2.526,0,0,0-4.492-1.57l-0.21.27v-3.71h-1.221v9.99h0Zm12.226-.43a3.079,3.079,0,0,0,1.086-1.82h-1.208a1.573,1.573,0,0,1-.637,1,1.933,1.933,0,0,1-1.221.4,1.877,1.877,0,0,1-1.627-.7,3.114,3.114,0,0,1-.5-1.65h5.3l0.015-.44a4.251,4.251,0,0,0-.876-2.79,2.856,2.856,0,0,0-2.3-1.06,3.153,3.153,0,0,0-2.507,1.09,4.308,4.308,0,0,0-.932,2.92,3.878,3.878,0,0,0,.882,2.7,3.1,3.1,0,0,0,2.422.98h0A3.326,3.326,0,0,0,206.589,2052.54Zm-4.1-3.76a2.77,2.77,0,0,1,.549-1.48,1.874,1.874,0,0,1,1.541-.72,1.759,1.759,0,0,1,1.452.62,2.757,2.757,0,0,1,.5,1.58h-4.044Zm6.247,4.19h1.221v-9.99h-1.221v9.99h0Zm6.656-.62a2.53,2.53,0,0,0,.312-0.33,1.631,1.631,0,0,0,.292.72,1.237,1.237,0,0,0,1,.38,2.473,2.473,0,0,0,.332-0.04,3.741,3.741,0,0,0,.374-0.11v-0.89a2.294,2.294,0,0,1-.228.04,1.468,1.468,0,0,1-.159.02,0.426,0.426,0,0,1-.3-0.11,0.421,0.421,0,0,1-.112-0.3v-4a2.044,2.044,0,0,0-.692-1.67,3.1,3.1,0,0,0-2.015-.58,3.394,3.394,0,0,0-2.158.61,2.4,2.4,0,0,0-.841,1.79h1.126a1.531,1.531,0,0,1,.513-1.04,1.815,1.815,0,0,1,1.177-.35,2.014,2.014,0,0,1,1.228.33,1.07,1.07,0,0,1,.441.91v0.07a0.807,0.807,0,0,1-.129.46,0.619,0.619,0,0,1-.367.24,2.335,2.335,0,0,1-.386.07l-1.663.21a2.953,2.953,0,0,0-1.713.72,2.09,2.09,0,0,0-.587,1.56,1.975,1.975,0,0,0,.625,1.54,2.408,2.408,0,0,0,1.689.57h0a3.222,3.222,0,0,0,2.239-.82h0Zm0.271-1.82a1.5,1.5,0,0,1-.04.28,1.77,1.77,0,0,1-.6.82,2.55,2.55,0,0,1-1.628.53,1.154,1.154,0,0,1-1.276-1.27,0.92,0.92,0,0,1,.407-0.79,3.007,3.007,0,0,1,1.289-.41l1.12-.16a2.557,2.557,0,0,0,.753-0.23v0.79h0a4.189,4.189,0,0,1-.021.44h0Zm2.749,2.44h1.221v-3.89a2.88,2.88,0,0,1,.516-1.81,1.659,1.659,0,0,1,1.4-.67,1.522,1.522,0,0,1,1.2.42,2.125,2.125,0,0,1,.37,1.39v4.56h1.221v-4.98a2.526,2.526,0,0,0-4.492-1.57l-0.271.36v-1.08h-1.16v7.27h0Zm8.783,1.75a1.406,1.406,0,0,1-.519-0.9h-1.248a2.417,2.417,0,0,0,.875,1.65,3.093,3.093,0,0,0,1.961.58,3.288,3.288,0,0,0,2.524-.89,3.916,3.916,0,0,0,.827-2.72v-6.74h-1.146v1.05l-0.089-.13a2.382,2.382,0,0,0-2.076-1.14,2.767,2.767,0,0,0-2.218,1.01,3.952,3.952,0,0,0-.848,2.64,4.639,4.639,0,0,0,.861,2.95,2.8,2.8,0,0,0,2.321,1.09,2.383,2.383,0,0,0,1.967-.96l0.007-.01v0.24a2.958,2.958,0,0,1-.55,1.93,1.964,1.964,0,0,1-1.6.66h0A1.671,1.671,0,0,1,227.193,2054.72Zm2.768-7.35a4.356,4.356,0,0,1,.492,2.31,2.69,2.69,0,0,1-.543,1.76,1.742,1.742,0,0,1-1.431.67,1.681,1.681,0,0,1-1.456-.72,4.6,4.6,0,0,1-.04-4.14,1.731,1.731,0,0,1,1.5-.65A1.648,1.648,0,0,1,229.961,2047.37Zm7.847,5.17a3.079,3.079,0,0,0,1.086-1.82h-1.208a1.573,1.573,0,0,1-.637,1,1.931,1.931,0,0,1-1.221.4,1.877,1.877,0,0,1-1.627-.7,3.114,3.114,0,0,1-.5-1.65h5.3l0.015-.44a4.251,4.251,0,0,0-.876-2.79,2.856,2.856,0,0,0-2.3-1.06,3.149,3.149,0,0,0-2.506,1.09,4.309,4.309,0,0,0-.933,2.92,3.878,3.878,0,0,0,.882,2.7,3.1,3.1,0,0,0,2.422.98h0A3.326,3.326,0,0,0,237.808,2052.54Zm-4.1-3.76a2.77,2.77,0,0,1,.549-1.48,1.874,1.874,0,0,1,1.541-.72,1.758,1.758,0,0,1,1.452.62,2.757,2.757,0,0,1,.5,1.58h-4.044Zm6.247,4.19h1.221v-9.99h-1.221v9.99h0Zm5.462,0.2a3.089,3.089,0,0,0,2.449-1.06,4.635,4.635,0,0,0,0-5.57,3.348,3.348,0,0,0-4.888,0,4.623,4.623,0,0,0,0,5.57,3.084,3.084,0,0,0,2.439,1.06h0Zm0-1.05a1.8,1.8,0,0,1-1.53-.76,3.917,3.917,0,0,1,0-4.06,1.923,1.923,0,0,1,3.063,0,3.9,3.9,0,0,1,0,4.06,1.81,1.81,0,0,1-1.533.76h0Zm-68.328,28.66h1.35v-8.79h3.372v-1.2h-8.094v1.2h3.372v8.79h0Zm5.266,0h1.221v-3.89a2.808,2.808,0,0,1,.543-1.82,1.8,1.8,0,0,1,1.465-.67,1.438,1.438,0,0,1,1.126.4,1.977,1.977,0,0,1,.346,1.3v4.68h1.222v-4.98a2.27,2.27,0,0,0-2.5-2.51,2.506,2.506,0,0,0-1.988.93l-0.21.27v-3.7h-1.221v9.99h0Zm12.226-.43a3.075,3.075,0,0,0,1.086-1.83h-1.208a1.6,1.6,0,0,1-.637,1.01,1.986,1.986,0,0,1-1.221.39,1.9,1.9,0,0,1-1.627-.69,3.123,3.123,0,0,1-.5-1.66h5.3l0.015-.43a4.251,4.251,0,0,0-.876-2.79,2.827,2.827,0,0,0-2.3-1.06,3.145,3.145,0,0,0-2.507,1.08,4.344,4.344,0,0,0-.932,2.92,3.905,3.905,0,0,0,.882,2.71,3.1,3.1,0,0,0,2.422.98h0A3.326,3.326,0,0,0,194.579,2080.35Zm-4.1-3.76a2.773,2.773,0,0,1,.549-1.49,1.874,1.874,0,0,1,1.541-.72,1.738,1.738,0,0,1,1.452.63,2.732,2.732,0,0,1,.5,1.58h-4.044Zm16.784,0.51a3.644,3.644,0,0,1-1.018,2.04,2.7,2.7,0,0,1-1.927.71,2.851,2.851,0,0,1-2.391-1.04,4.766,4.766,0,0,1-.824-3.02,4.6,4.6,0,0,1,.888-2.97,2.9,2.9,0,0,1,2.388-1.11,3.07,3.07,0,0,1,1.876.54,2.381,2.381,0,0,1,.92,1.54h1.3a3.593,3.593,0,0,0-1.3-2.4,4.823,4.823,0,0,0-6.191.56,5.555,5.555,0,0,0-1.273,3.84,5.7,5.7,0,0,0,1.225,3.84,4.111,4.111,0,0,0,3.287,1.42,4.19,4.19,0,0,0,2.928-1.05,4.631,4.631,0,0,0,1.414-2.9h-1.3Zm2.389,3.68h1.221v-3.89a2.448,2.448,0,0,1,.539-1.7,1.952,1.952,0,0,1,1.53-.6l0.251,0.01v-1.25a1.068,1.068,0,0,0-.346-0.06,2.061,2.061,0,0,0-1.7.93,4.842,4.842,0,0,0-.332.53v-1.24h-1.16v7.27h0Zm8.956-.43a3.069,3.069,0,0,0,1.085-1.83h-1.207a1.592,1.592,0,0,1-.638,1.01,1.983,1.983,0,0,1-1.22.39,1.9,1.9,0,0,1-1.628-.69,3.141,3.141,0,0,1-.5-1.66h5.3l0.014-.43a4.251,4.251,0,0,0-.875-2.79,2.827,2.827,0,0,0-2.3-1.06,3.145,3.145,0,0,0-2.507,1.08,4.344,4.344,0,0,0-.933,2.92,3.905,3.905,0,0,0,.882,2.71,3.105,3.105,0,0,0,2.422.98h0A3.329,3.329,0,0,0,218.606,2080.35Zm-4.1-3.76a2.782,2.782,0,0,1,.55-1.49,1.872,1.872,0,0,1,1.54-.72,1.735,1.735,0,0,1,1.452.63,2.732,2.732,0,0,1,.5,1.58H214.5Zm10.373,3.56a2.605,2.605,0,0,0,.312-0.32,1.587,1.587,0,0,0,.291.71,1.238,1.238,0,0,0,1,.38,1.488,1.488,0,0,0,.332-0.04,2.209,2.209,0,0,0,.373-0.11v-0.88a2.228,2.228,0,0,1-.227.04,1.056,1.056,0,0,1-.16.01,0.381,0.381,0,0,1-.413-0.4v-4a2.076,2.076,0,0,0-.693-1.68,3.1,3.1,0,0,0-2.015-.57,3.391,3.391,0,0,0-2.157.6,2.4,2.4,0,0,0-.841,1.8h1.126a1.531,1.531,0,0,1,.512-1.04,1.761,1.761,0,0,1,1.177-.35,2.012,2.012,0,0,1,1.228.33,1.07,1.07,0,0,1,.441.91v0.06a0.764,0.764,0,0,1-.129.46,0.591,0.591,0,0,1-.366.25c-0.122.03-.251,0.05-0.387,0.07l-1.662.21a2.824,2.824,0,0,0-1.713.72,2.067,2.067,0,0,0-.587,1.55,2.015,2.015,0,0,0,.624,1.55,2.409,2.409,0,0,0,1.69.57h0a3.23,3.23,0,0,0,2.239-.83h0Zm0.271-1.82a1.36,1.36,0,0,1-.041.28,1.739,1.739,0,0,1-.6.83,2.542,2.542,0,0,1-1.628.52,1.282,1.282,0,0,1-.943-0.33,1.259,1.259,0,0,1-.332-0.94,0.9,0.9,0,0,1,.407-0.78,3.007,3.007,0,0,1,1.289-.41l1.119-.17a2.539,2.539,0,0,0,.753-0.22v0.79h0a4.287,4.287,0,0,1-.02.43h0Zm5.415,1.5h-0.435a0.825,0.825,0,0,1-.519-0.15,0.44,0.44,0,0,1-.193-0.38v-4.79h1.147v-1h-1.147v-2.04h-1.221v2.04h-1v1h1v4.79a1.752,1.752,0,0,0,.329,1.21,1.479,1.479,0,0,0,1.13.36,6.022,6.022,0,0,0,.909-0.1h0v-0.94Zm0.679,0.95h1.221v-7.27h-1.221v7.27h0Zm-0.014-8.6h1.248v-1.39h-1.248v1.39Zm5.462,8.8a3.123,3.123,0,0,0,2.45-1.06,4.639,4.639,0,0,0,0-5.57,3.349,3.349,0,0,0-4.889,0,4.623,4.623,0,0,0,0,5.57,3.116,3.116,0,0,0,2.439,1.06h0Zm0-1.06a1.818,1.818,0,0,1-1.53-.75,3.941,3.941,0,0,1,0-4.07,1.924,1.924,0,0,1,3.064,0,3.918,3.918,0,0,1,0,4.07,1.827,1.827,0,0,1-1.534.75h0Zm4.214,0.86h1.221v-3.89a2.911,2.911,0,0,1,.516-1.82,1.689,1.689,0,0,1,1.4-.67,1.522,1.522,0,0,1,1.2.43,2.07,2.07,0,0,1,.37,1.38v4.57h1.221v-4.98a2.269,2.269,0,0,0-2.5-2.51,2.5,2.5,0,0,0-1.988.93l-0.272.36v-1.07H240.9v7.27h0Zm13.435,0.2a3.121,3.121,0,0,0,2.449-1.06,4.635,4.635,0,0,0,0-5.57,3.348,3.348,0,0,0-4.888,0,4.623,4.623,0,0,0,0,5.57,3.116,3.116,0,0,0,2.439,1.06h0Zm0-1.06a1.818,1.818,0,0,1-1.53-.75,3.935,3.935,0,0,1,0-4.07,1.923,1.923,0,0,1,3.063,0,3.918,3.918,0,0,1,0,4.07,1.826,1.826,0,0,1-1.533.75h0Zm6.948-5.4v-1.01h-1.214v-0.89a0.957,0.957,0,0,1,.19-0.64,0.643,0.643,0,0,1,.542-0.23l0.482,0.02v-1.1l-0.536-.02a2.152,2.152,0,0,0-1.425.4,1.535,1.535,0,0,0-.475,1.22v1.24h-1v1.01h1v6.26h1.222v-6.26h1.214Zm3.17,6.26h1.392l1.048-2.9h3.982l1.017,2.9h1.448l-3.582-9.99h-1.54l-3.765,9.99h0Zm4.474-8.52h0l1.539,4.43h-3.139l1.605-4.43h0Zm9.686,7.75,0.156-.22v0.99H279.9v-9.99h-1.221v3.77l-0.1-.14a2.453,2.453,0,0,0-2.117-1.13,2.7,2.7,0,0,0-2.178,1.01,4,4,0,0,0-.835,2.64,4.639,4.639,0,0,0,.862,2.95,2.821,2.821,0,0,0,2.32,1.09h0a2.4,2.4,0,0,0,1.975-.97h0Zm-0.445-4.81a4.25,4.25,0,0,1,.513,2.29,2.738,2.738,0,0,1-.543,1.77,1.743,1.743,0,0,1-1.432.67,1.672,1.672,0,0,1-1.462-.73,4.609,4.609,0,0,1-.037-4.15,1.72,1.72,0,0,1,1.5-.66A1.632,1.632,0,0,1,278.171,2075.2Zm7.026,4.95a2.544,2.544,0,0,0,.313-0.32,1.587,1.587,0,0,0,.291.71,1.237,1.237,0,0,0,1,.38,1.49,1.49,0,0,0,.333-0.04,2.209,2.209,0,0,0,.373-0.11v-0.88a2.228,2.228,0,0,1-.227.04,1.063,1.063,0,0,1-.16.01,0.382,0.382,0,0,1-.414-0.4v-4a2.075,2.075,0,0,0-.692-1.68,3.1,3.1,0,0,0-2.015-.57,3.391,3.391,0,0,0-2.157.6,2.4,2.4,0,0,0-.842,1.8h1.127a1.526,1.526,0,0,1,.512-1.04,1.761,1.761,0,0,1,1.177-.35,2.012,2.012,0,0,1,1.228.33,1.07,1.07,0,0,1,.441.91v0.06a0.764,0.764,0,0,1-.129.46,0.591,0.591,0,0,1-.366.25c-0.122.03-.251,0.05-0.387,0.07l-1.662.21a2.824,2.824,0,0,0-1.713.72,2.063,2.063,0,0,0-.587,1.55,2.015,2.015,0,0,0,.624,1.55,2.408,2.408,0,0,0,1.689.57h0a3.228,3.228,0,0,0,2.239-.83h0Zm0.272-1.82a1.36,1.36,0,0,1-.041.28,1.739,1.739,0,0,1-.6.83,2.542,2.542,0,0,1-1.628.52,1.28,1.28,0,0,1-.943-0.33,1.26,1.26,0,0,1-.333-0.94,0.9,0.9,0,0,1,.407-0.78,3.018,3.018,0,0,1,1.29-.41l1.119-.17a2.539,2.539,0,0,0,.753-0.22v0.79h0a4.287,4.287,0,0,1-.02.43h0Zm2.748,2.45h1.221v-3.89a2.906,2.906,0,0,1,.519-1.79,1.61,1.61,0,0,1,1.334-.7,1.12,1.12,0,0,1,.9.36,1.547,1.547,0,0,1,.308,1.04v4.98h1.222v-4.09a2.721,2.721,0,0,1,.468-1.67,1.507,1.507,0,0,1,1.262-.62,1.2,1.2,0,0,1,.99.43,2.016,2.016,0,0,1,.339,1.26v4.69H298v-5.1a2.381,2.381,0,0,0-4.261-1.47l-0.2.25a1.862,1.862,0,0,0-.4-0.59,2.082,2.082,0,0,0-1.554-.58,2.482,2.482,0,0,0-1.961.97l-0.251.33v-1.08h-1.16v7.27h0Z"/>
  </g>
</svg>
