<svg id="Dada" xmlns="http://www.w3.org/2000/svg" width="3000" height="3000" viewBox="0 0 3000 3000">
  <defs>
    <style>
      .cls-1 {
        fill: #575861;
      }

      .cls-2 {
        fill: #e4e1da;
      }

      .cls-2, .cls-3 {
        fill-rule: evenodd;
      }

      .cls-3 {
        fill: #31323d;
      }
    </style>
  </defs>
  <g id="dada-placard-starrynight">
    <rect id="Rectangle_2_copy" data-name="Rectangle 2 copy" class="cls-1" x="155" y="1980" width="291" height="187"/>
    <path id="Rectangle_2_copy_2" data-name="Rectangle 2 copy 2" class="cls-2" d="M159.98,1984.99H441.02v177.02H159.98V1984.99Z"/>
    <path id="dada.nyc" class="cls-3" d="M187.636,2123.36l0.415-.6v2.64h3.012v-26.56h-3.246v10.03l-0.253-.36a6.475,6.475,0,0,0-5.628-3.02,7.169,7.169,0,0,0-5.79,2.67,10.673,10.673,0,0,0-2.218,7.03,12.281,12.281,0,0,0,2.29,7.83,7.434,7.434,0,0,0,6.169,2.9h0a6.337,6.337,0,0,0,5.249-2.56h0Zm-1.181-12.8a11.359,11.359,0,0,1,1.362,6.09,7.251,7.251,0,0,1-1.443,4.71,4.651,4.651,0,0,1-3.806,1.78,4.465,4.465,0,0,1-3.888-1.93,9.5,9.5,0,0,1-1.361-5.51q0-3.795,1.262-5.54a4.594,4.594,0,0,1,3.987-1.74A4.34,4.34,0,0,1,186.455,2110.56Zm17.2,13.18a7.322,7.322,0,0,0,.83-0.87,4.282,4.282,0,0,0,.776,1.9,3.271,3.271,0,0,0,2.669,1.01,4.679,4.679,0,0,0,.884-0.11,6.139,6.139,0,0,0,.992-0.29v-2.35a5.2,5.2,0,0,1-.6.11c-0.187.02-.328,0.04-0.424,0.04a1.081,1.081,0,0,1-.8-0.3,1.069,1.069,0,0,1-.3-0.79v-10.62a5.442,5.442,0,0,0-1.84-4.45,8.189,8.189,0,0,0-5.357-1.53,8.978,8.978,0,0,0-5.736,1.6,6.38,6.38,0,0,0-2.237,4.78H195.5a4.117,4.117,0,0,1,1.362-2.78,4.783,4.783,0,0,1,3.13-.93,5.384,5.384,0,0,1,3.265.88,2.854,2.854,0,0,1,1.172,2.43v0.16a2.063,2.063,0,0,1-.343,1.23,1.629,1.629,0,0,1-.974.65,5.555,5.555,0,0,1-1.028.18l-4.419.56a7.622,7.622,0,0,0-4.555,1.92,5.526,5.526,0,0,0-1.56,4.13,5.3,5.3,0,0,0,1.66,4.11,6.4,6.4,0,0,0,4.491,1.51h0a8.618,8.618,0,0,0,5.952-2.18h0Zm0.722-4.85a3.767,3.767,0,0,1-.108.75,4.742,4.742,0,0,1-1.606,2.2,6.767,6.767,0,0,1-4.329,1.39,3.386,3.386,0,0,1-2.507-.88,3.348,3.348,0,0,1-.884-2.5,2.413,2.413,0,0,1,1.082-2.08,7.89,7.89,0,0,1,3.428-1.1l2.976-.43a6.957,6.957,0,0,0,2-.6v2.1h0a11.1,11.1,0,0,1-.054,1.15h0Zm18.437,4.47,0.415-.6v2.64h3.012v-26.56H223v10.03l-0.252-.36a6.475,6.475,0,0,0-5.628-3.02,7.169,7.169,0,0,0-5.79,2.67,10.673,10.673,0,0,0-2.218,7.03,12.281,12.281,0,0,0,2.29,7.83,7.434,7.434,0,0,0,6.169,2.9h0a6.337,6.337,0,0,0,5.249-2.56h0Zm-1.181-12.8a11.36,11.36,0,0,1,1.361,6.09,7.245,7.245,0,0,1-1.443,4.71,4.648,4.648,0,0,1-3.8,1.78,4.465,4.465,0,0,1-3.888-1.93,9.5,9.5,0,0,1-1.361-5.51q0-3.795,1.262-5.54a4.594,4.594,0,0,1,3.987-1.74A4.34,4.34,0,0,1,221.634,2110.56Zm17.2,13.18a7.322,7.322,0,0,0,.83-0.87,4.282,4.282,0,0,0,.776,1.9,3.271,3.271,0,0,0,2.669,1.01,4.679,4.679,0,0,0,.884-0.11,6.139,6.139,0,0,0,.992-0.29v-2.35a5.2,5.2,0,0,1-.6.11c-0.187.02-.328,0.04-0.424,0.04a1.081,1.081,0,0,1-.8-0.3,1.069,1.069,0,0,1-.3-0.79v-10.62a5.442,5.442,0,0,0-1.84-4.45,8.189,8.189,0,0,0-5.357-1.53,8.978,8.978,0,0,0-5.736,1.6,6.38,6.38,0,0,0-2.237,4.78h2.994a4.117,4.117,0,0,1,1.362-2.78,4.783,4.783,0,0,1,3.13-.93,5.384,5.384,0,0,1,3.265.88,2.854,2.854,0,0,1,1.172,2.43v0.16a2.063,2.063,0,0,1-.343,1.23,1.629,1.629,0,0,1-.974.65,5.555,5.555,0,0,1-1.028.18l-4.419.56a7.622,7.622,0,0,0-4.555,1.92,5.526,5.526,0,0,0-1.56,4.13,5.3,5.3,0,0,0,1.66,4.11,6.4,6.4,0,0,0,4.491,1.51h0a8.618,8.618,0,0,0,5.952-2.18h0Zm0.722-4.85a3.767,3.767,0,0,1-.108.75,4.742,4.742,0,0,1-1.606,2.2,6.767,6.767,0,0,1-4.329,1.39,3.386,3.386,0,0,1-2.507-.88,3.348,3.348,0,0,1-.884-2.5,2.413,2.413,0,0,1,1.082-2.08,7.89,7.89,0,0,1,3.428-1.1l2.976-.43a6.957,6.957,0,0,0,2-.6v2.1h0a11.1,11.1,0,0,1-.054,1.15h0Zm6.641,6.51h3.86v-3.92H246.2v3.92Zm6.5,0h3.247v-10.35a7.706,7.706,0,0,1,1.371-4.82,4.457,4.457,0,0,1,3.715-1.78,4.028,4.028,0,0,1,3.184,1.13,5.56,5.56,0,0,1,.983,3.68v12.14h3.247v-13.24a6.731,6.731,0,0,0-11.941-4.2l-0.722.96v-2.85h-3.084v19.33h0Zm33.246-19.33h-3.556l-5.227,15.99h0l-5.153-15.99H268.3l7.162,19.65v0.01l-0.054.3a13.153,13.153,0,0,1-1.677,3.38,2.29,2.29,0,0,1-1.84.9,5.712,5.712,0,0,1-1.858-.28v3.01a4.862,4.862,0,0,0,1.569.2,5.308,5.308,0,0,0,3.977-1.37c0.884-.92,1.891-2.86,3.021-5.84l7.341-19.96h0Zm11.962,12.37a6.179,6.179,0,0,1-1.687,3.46,4.838,4.838,0,0,1-7.025-.64,9.712,9.712,0,0,1-1.3-5.55,9.285,9.285,0,0,1,1.4-5.44,4.46,4.46,0,0,1,3.851-1.98,4.723,4.723,0,0,1,3.319,1.14,4.791,4.791,0,0,1,1.443,3.21h3.12a7.218,7.218,0,0,0-2.218-5.24,7.851,7.851,0,0,0-5.556-1.91,7.956,7.956,0,0,0-6.376,2.77,11.089,11.089,0,0,0-2.372,7.45,11.312,11.312,0,0,0,2.291,7.45,7.561,7.561,0,0,0,6.132,2.76,7.844,7.844,0,0,0,5.52-1.91,8.965,8.965,0,0,0,2.579-5.57H297.9Z"/>
    <path id="vVs_Vincent_van_Gogh_The_Starry_Night" data-name="vVs Vincent van Gogh The Starry Night" class="cls-3" d="M176.341,2025.17h1.309l2.707-7.27h-1.346L177,2023.85h0l-1.946-5.95h-1.427Zm7.477,0h1.452l3.63-9.99h-1.5l-2.85,8.54h-0.007l-2.858-8.54h-1.5Zm11.011-5.17a2.221,2.221,0,0,0-.8-1.7,3.089,3.089,0,0,0-2.018-.62,3.018,3.018,0,0,0-1.977.6,1.993,1.993,0,0,0-.73,1.63,1.651,1.651,0,0,0,.436,1.22,3.033,3.033,0,0,0,1.459.69l1.262,0.3a3.617,3.617,0,0,1,1.119.39,0.657,0.657,0,0,1,.278.58,1.059,1.059,0,0,1-.424.91,2.074,2.074,0,0,1-1.246.31,2.326,2.326,0,0,1-1.4-.34,1.58,1.58,0,0,1-.547-1.13h-1.174a2.557,2.557,0,0,0,.835,1.92,3.629,3.629,0,0,0,2.287.61,3.241,3.241,0,0,0,2.1-.64,2.085,2.085,0,0,0,.777-1.71,1.7,1.7,0,0,0-.45-1.26,3.222,3.222,0,0,0-1.513-.71l-1.262-.3a3.617,3.617,0,0,1-1.107-.39,0.677,0.677,0,0,1-.278-0.59,0.856,0.856,0,0,1,.4-0.77,2.059,2.059,0,0,1,1.157-.27,1.852,1.852,0,0,1,1.178.34,1.246,1.246,0,0,1,.492.93h1.147Zm-17.4,32.97h1.452l3.63-9.99h-1.494l-2.851,8.54h-0.007l-2.858-8.54h-1.5Zm5.748,0H184.4v-7.27h-1.221v7.27h0Zm-0.014-8.6h1.248v-1.39H183.16v1.39Zm2.5,8.6h1.221v-3.89a2.88,2.88,0,0,1,.516-1.81,1.663,1.663,0,0,1,1.4-.67,1.52,1.52,0,0,1,1.2.42,2.119,2.119,0,0,1,.37,1.39v4.56h1.221v-4.98a2.525,2.525,0,0,0-4.491-1.57l-0.272.36v-1.08h-1.16v7.27h0Zm11.725-2.61a2.357,2.357,0,0,1-.635,1.3,1.817,1.817,0,0,1-2.642-.24,3.657,3.657,0,0,1-.489-2.09,3.507,3.507,0,0,1,.526-2.05,1.687,1.687,0,0,1,1.448-.74,1.665,1.665,0,0,1,1.792,1.64h1.173a2.73,2.73,0,0,0-.834-1.98,3.321,3.321,0,0,0-4.488.33,4.154,4.154,0,0,0-.892,2.8,4.255,4.255,0,0,0,.861,2.8,2.854,2.854,0,0,0,2.307,1.04,2.94,2.94,0,0,0,2.076-.72,3.371,3.371,0,0,0,.97-2.09h-1.173Zm6.893,2.18a3.079,3.079,0,0,0,1.086-1.82H204.16a1.573,1.573,0,0,1-.637,1,1.931,1.931,0,0,1-1.221.4,1.877,1.877,0,0,1-1.627-.7,3.123,3.123,0,0,1-.5-1.65h5.3l0.015-.44a4.256,4.256,0,0,0-.875-2.79,2.859,2.859,0,0,0-2.3-1.06,3.15,3.15,0,0,0-2.507,1.09,4.309,4.309,0,0,0-.933,2.92,3.878,3.878,0,0,0,.882,2.7,3.1,3.1,0,0,0,2.422.98h0A3.324,3.324,0,0,0,204.282,2052.54Zm-4.1-3.76a2.77,2.77,0,0,1,.549-1.48,1.874,1.874,0,0,1,1.541-.72,1.757,1.757,0,0,1,1.452.62,2.757,2.757,0,0,1,.5,1.58H200.18Zm6.22,4.19h1.221v-3.89a2.88,2.88,0,0,1,.516-1.81,1.659,1.659,0,0,1,1.4-.67,1.522,1.522,0,0,1,1.2.42,2.125,2.125,0,0,1,.37,1.39v4.56h1.221v-4.98a2.526,2.526,0,0,0-4.492-1.57l-0.271.36v-1.08H206.4v7.27h0Zm9.838-.95H215.8a0.892,0.892,0,0,1-.519-0.14,0.459,0.459,0,0,1-.194-0.39v-4.79h1.147v-1h-1.147v-2.04H213.87v2.04h-1v1h1v4.79a1.787,1.787,0,0,0,.329,1.22,1.521,1.521,0,0,0,1.13.35,7.169,7.169,0,0,0,.909-0.09h0v-0.95Zm5.863,0.95h1.31l2.707-7.27h-1.347l-2.014,5.96h0l-1.947-5.96h-1.427Zm8.624-.62a2.53,2.53,0,0,0,.312-0.33,1.631,1.631,0,0,0,.292.72,1.237,1.237,0,0,0,1,.38,2.473,2.473,0,0,0,.332-0.04,3.741,3.741,0,0,0,.374-0.11v-0.89a2.294,2.294,0,0,1-.228.04,1.468,1.468,0,0,1-.159.02,0.426,0.426,0,0,1-.3-0.11,0.421,0.421,0,0,1-.112-0.3v-4a2.044,2.044,0,0,0-.692-1.67,3.1,3.1,0,0,0-2.015-.58,3.394,3.394,0,0,0-2.158.61,2.4,2.4,0,0,0-.841,1.79h1.126a1.531,1.531,0,0,1,.513-1.04,1.815,1.815,0,0,1,1.177-.35,2.014,2.014,0,0,1,1.228.33,1.07,1.07,0,0,1,.441.91v0.07a0.807,0.807,0,0,1-.129.46,0.619,0.619,0,0,1-.367.24,2.335,2.335,0,0,1-.386.07l-1.662.21a2.953,2.953,0,0,0-1.714.72,2.09,2.09,0,0,0-.587,1.56,1.975,1.975,0,0,0,.625,1.54,2.408,2.408,0,0,0,1.689.57h0a3.222,3.222,0,0,0,2.239-.82h0Zm0.271-1.82a1.5,1.5,0,0,1-.04.28,1.77,1.77,0,0,1-.6.82,2.548,2.548,0,0,1-1.628.53,1.154,1.154,0,0,1-1.276-1.27,0.92,0.92,0,0,1,.407-0.79,3.007,3.007,0,0,1,1.289-.41l1.12-.16a2.547,2.547,0,0,0,.753-0.23v0.79h0a4.189,4.189,0,0,1-.021.44h0Zm2.749,2.44h1.221v-3.89a2.88,2.88,0,0,1,.516-1.81,1.659,1.659,0,0,1,1.4-.67,1.522,1.522,0,0,1,1.2.42,2.125,2.125,0,0,1,.37,1.39v4.56h1.221v-4.98a2.526,2.526,0,0,0-4.492-1.57l-0.271.36v-1.08h-1.16v7.27h0Zm18.108-1.17,0.074-.09,0.326,1.26h0.841v-5.29h-4.366v1.14h3.126v0.12a3.969,3.969,0,0,1-.112.91,2.68,2.68,0,0,1-.274.74,3.445,3.445,0,0,1-.272.37,3.1,3.1,0,0,1-2.49,1.13,3,3,0,0,1-2.459-1.07,5.483,5.483,0,0,1,.03-5.98,2.888,2.888,0,0,1,2.361-1.13,3.438,3.438,0,0,1,2.009.54,2.322,2.322,0,0,1,.963,1.53h1.3a3.5,3.5,0,0,0-1.381-2.35,4.449,4.449,0,0,0-2.812-.92,4.4,4.4,0,0,0-3.427,1.46,6.25,6.25,0,0,0-.027,7.62,4.266,4.266,0,0,0,3.358,1.46h0a4.046,4.046,0,0,0,3.229-1.45h0Zm5.579,1.37a3.089,3.089,0,0,0,2.449-1.06,4.635,4.635,0,0,0,0-5.57,3.348,3.348,0,0,0-4.888,0,4.623,4.623,0,0,0,0,5.57,3.084,3.084,0,0,0,2.439,1.06h0Zm0-1.05a1.8,1.8,0,0,1-1.53-.76,3.917,3.917,0,0,1,0-4.06,1.923,1.923,0,0,1,3.063,0,3.9,3.9,0,0,1,0,4.06,1.81,1.81,0,0,1-1.533.76h0Zm5.825,2.6a1.406,1.406,0,0,1-.519-0.9H261.49a2.417,2.417,0,0,0,.875,1.65,3.093,3.093,0,0,0,1.961.58,3.284,3.284,0,0,0,2.523-.89,3.911,3.911,0,0,0,.828-2.72v-6.74h-1.146v1.05l-0.089-.13a2.382,2.382,0,0,0-2.076-1.14,2.767,2.767,0,0,0-2.218,1.01,3.952,3.952,0,0,0-.848,2.64,4.639,4.639,0,0,0,.861,2.95,2.8,2.8,0,0,0,2.321,1.09,2.383,2.383,0,0,0,1.967-.96l0.007-.01v0.24a2.958,2.958,0,0,1-.55,1.93,1.964,1.964,0,0,1-1.6.66h0A1.671,1.671,0,0,1,263.257,2054.72Zm2.768-7.35a4.356,4.356,0,0,1,.492,2.31,2.69,2.69,0,0,1-.543,1.76,1.742,1.742,0,0,1-1.431.67,1.681,1.681,0,0,1-1.456-.72,4.6,4.6,0,0,1-.04-4.14,1.731,1.731,0,0,1,1.5-.65A1.648,1.648,0,0,1,266.025,2047.37Zm2.793,5.6h1.221v-3.89a2.779,2.779,0,0,1,.543-1.81,1.776,1.776,0,0,1,1.465-.67,1.4,1.4,0,0,1,1.126.4,1.959,1.959,0,0,1,.346,1.3v4.67h1.222v-4.98a2.526,2.526,0,0,0-4.492-1.57l-0.21.27v-3.71h-1.221v9.99h0Zm-91.731,27.81h1.35v-8.79h3.372v-1.2h-8.094v1.2h3.372v8.79h0Zm5.266,0h1.221v-3.89a2.808,2.808,0,0,1,.543-1.82,1.8,1.8,0,0,1,1.465-.67,1.438,1.438,0,0,1,1.126.4,1.977,1.977,0,0,1,.346,1.3v4.68h1.222v-4.98a2.27,2.27,0,0,0-2.5-2.51,2.506,2.506,0,0,0-1.988.93l-0.21.27v-3.7h-1.221v9.99h0Zm12.226-.43a3.075,3.075,0,0,0,1.086-1.83h-1.208a1.6,1.6,0,0,1-.637,1.01,1.986,1.986,0,0,1-1.221.39,1.9,1.9,0,0,1-1.627-.69,3.123,3.123,0,0,1-.5-1.66h5.3l0.015-.43a4.251,4.251,0,0,0-.876-2.79,2.827,2.827,0,0,0-2.3-1.06,3.145,3.145,0,0,0-2.507,1.08,4.344,4.344,0,0,0-.932,2.92,3.905,3.905,0,0,0,.882,2.71,3.1,3.1,0,0,0,2.422.98h0A3.326,3.326,0,0,0,194.579,2080.35Zm-4.1-3.76a2.773,2.773,0,0,1,.549-1.49,1.874,1.874,0,0,1,1.541-.72,1.738,1.738,0,0,1,1.452.63,2.732,2.732,0,0,1,.5,1.58h-4.044Zm17-2.91a3.076,3.076,0,0,0-1.065-2.32,4.024,4.024,0,0,0-2.679-.84,3.886,3.886,0,0,0-2.628.84,2.838,2.838,0,0,0-.973,2.27,2.063,2.063,0,0,0,.561,1.54,4.011,4.011,0,0,0,1.882.87l1.739,0.42a4.8,4.8,0,0,1,1.7.64,1.3,1.3,0,0,1,.424,1.07,1.426,1.426,0,0,1-.645,1.26,3.476,3.476,0,0,1-1.887.42,3.284,3.284,0,0,1-2.1-.59,2.088,2.088,0,0,1-.788-1.68h-1.242v0.08a3.048,3.048,0,0,0,1.073,2.47,4.639,4.639,0,0,0,3.054.92,4.441,4.441,0,0,0,2.786-.79,2.911,2.911,0,0,0,.429-3.99,3.9,3.9,0,0,0-2-.98l-1.737-.42a4.822,4.822,0,0,1-1.581-.56,1,1,0,0,1-.393-0.86,1.5,1.5,0,0,1,.59-1.29,2.818,2.818,0,0,1,1.73-.45,2.731,2.731,0,0,1,1.76.52,1.973,1.973,0,0,1,.743,1.45h1.242Zm3.905,6.15h-0.435a0.825,0.825,0,0,1-.519-0.15,0.443,0.443,0,0,1-.193-0.38v-4.79h1.147v-1h-1.147v-2.04h-1.221v2.04h-1v1h1v4.79a1.752,1.752,0,0,0,.329,1.21,1.479,1.479,0,0,0,1.13.36,6.009,6.009,0,0,0,.909-0.1h0v-0.94Zm4.79,0.32a2.467,2.467,0,0,0,.312-0.32,1.587,1.587,0,0,0,.292.71,1.237,1.237,0,0,0,1,.38,1.5,1.5,0,0,0,.333-0.04,2.209,2.209,0,0,0,.373-0.11v-0.88a2.277,2.277,0,0,1-.227.04,1.07,1.07,0,0,1-.16.01,0.382,0.382,0,0,1-.414-0.4v-4a2.075,2.075,0,0,0-.692-1.68,3.1,3.1,0,0,0-2.015-.57,3.391,3.391,0,0,0-2.157.6,2.4,2.4,0,0,0-.842,1.8H213.1a1.526,1.526,0,0,1,.512-1.04,1.76,1.76,0,0,1,1.177-.35,2.012,2.012,0,0,1,1.228.33,1.07,1.07,0,0,1,.441.91v0.06a0.764,0.764,0,0,1-.129.46,0.591,0.591,0,0,1-.366.25c-0.122.03-.251,0.05-0.387,0.07l-1.662.21a2.824,2.824,0,0,0-1.713.72,2.063,2.063,0,0,0-.587,1.55,2.015,2.015,0,0,0,.624,1.55,2.408,2.408,0,0,0,1.689.57h0a3.228,3.228,0,0,0,2.239-.83h0Zm0.272-1.82a1.434,1.434,0,0,1-.041.28,1.746,1.746,0,0,1-.6.83,2.542,2.542,0,0,1-1.628.52,1.28,1.28,0,0,1-.943-0.33,1.26,1.26,0,0,1-.333-0.94,0.9,0.9,0,0,1,.407-0.78,3.012,3.012,0,0,1,1.289-.41l1.12-.17a2.539,2.539,0,0,0,.753-0.22v0.79h0a4.287,4.287,0,0,1-.02.43h0Zm2.918,2.45h1.221v-3.89a2.448,2.448,0,0,1,.539-1.7,1.952,1.952,0,0,1,1.53-.6l0.251,0.01v-1.25a1.068,1.068,0,0,0-.346-0.06,2.061,2.061,0,0,0-1.7.93,4.842,4.842,0,0,0-.332.53v-1.24h-1.16v7.27h0Zm4.071,0h1.221v-3.89a2.443,2.443,0,0,1,.54-1.7,1.949,1.949,0,0,1,1.53-.6l0.251,0.01v-1.25a1.073,1.073,0,0,0-.346-0.06,2.06,2.06,0,0,0-1.7.93,4.7,4.7,0,0,0-.333.53v-1.24h-1.16v7.27h0Zm9.791-7.27h-1.338l-1.966,6.01h0l-1.939-6.01h-1.394l2.694,7.39h0l-0.02.12a5.032,5.032,0,0,1-.631,1.27,0.88,0.88,0,0,1-.692.34,2.25,2.25,0,0,1-.7-0.11v1.13a1.832,1.832,0,0,0,.59.08,1.968,1.968,0,0,0,1.5-.52,7,7,0,0,0,1.136-2.19l2.762-7.51h0Zm5.266-.88,5.136,8.15H245.1v-9.99h-1.3v8.12l-4.993-8.12h-1.622v9.99h1.3v-8.15Zm8.061,8.15h1.221v-7.27h-1.221v7.27h0Zm-0.014-8.6h1.248v-1.39h-1.248v1.39Zm4.115,10.34a1.414,1.414,0,0,1-.519-0.9h-1.248a2.418,2.418,0,0,0,.875,1.66,3.093,3.093,0,0,0,1.961.57,3.284,3.284,0,0,0,2.524-.88,3.932,3.932,0,0,0,.828-2.73v-6.73h-1.147v1.04l-0.088-.13a2.394,2.394,0,0,0-2.076-1.13,2.768,2.768,0,0,0-2.219,1.01,3.957,3.957,0,0,0-.848,2.64,4.633,4.633,0,0,0,.862,2.95,2.821,2.821,0,0,0,2.32,1.09,2.392,2.392,0,0,0,1.968-.97l0.006-.01v0.24a2.994,2.994,0,0,1-.549,1.94,1.965,1.965,0,0,1-1.6.66h0A1.676,1.676,0,0,1,250.65,2082.52Zm2.769-7.34a4.342,4.342,0,0,1,.491,2.31,2.69,2.69,0,0,1-.542,1.76,1.771,1.771,0,0,1-1.432.67,1.687,1.687,0,0,1-1.455-.73,3.526,3.526,0,0,1-.512-2.06,3.561,3.561,0,0,1,.471-2.07,1.712,1.712,0,0,1,1.5-.66A1.637,1.637,0,0,1,253.419,2075.18Zm2.792,5.6h1.221v-3.89a2.808,2.808,0,0,1,.543-1.82,1.806,1.806,0,0,1,1.466-.67,1.44,1.44,0,0,1,1.126.4,1.983,1.983,0,0,1,.346,1.3v4.68h1.221v-4.98a2.269,2.269,0,0,0-2.5-2.51,2.5,2.5,0,0,0-1.988.93l-0.211.27v-3.7h-1.221v9.99h0Zm9.838-.95h-0.434a0.825,0.825,0,0,1-.519-0.15,0.44,0.44,0,0,1-.193-0.38v-4.79h1.146v-1H264.9v-2.04h-1.221v2.04h-1v1h1v4.79a1.752,1.752,0,0,0,.329,1.21,1.477,1.477,0,0,0,1.129.36,6,6,0,0,0,.909-0.1h0v-0.94Z"/>
  </g>
</svg>
