<svg id="Dada" xmlns="http://www.w3.org/2000/svg" width="3000" height="3000" viewBox="0 0 3000 3000">
  <defs>
    <style>
      .cls-1 {
        fill: #575861;
      }

      .cls-2 {
        fill: #e4e1da;
      }

      .cls-2, .cls-3 {
        fill-rule: evenodd;
      }

      .cls-3 {
        fill: #31323d;
      }
    </style>
  </defs>
  <g id="dada-placard-seateddancer">
    <rect id="Rectangle_2_copy" data-name="Rectangle 2 copy" class="cls-1" x="155" y="1980" width="291" height="187"/>
    <path id="Rectangle_2_copy_2" data-name="Rectangle 2 copy 2" class="cls-2" d="M159.98,1984.99H441.02v177.02H159.98V1984.99Z"/>
    <path id="dada.nyc" class="cls-3" d="M187.636,2123.36l0.415-.6v2.64h3.012v-26.56h-3.246v10.03l-0.253-.36a6.475,6.475,0,0,0-5.628-3.02,7.169,7.169,0,0,0-5.79,2.67,10.673,10.673,0,0,0-2.218,7.03,12.281,12.281,0,0,0,2.29,7.83,7.434,7.434,0,0,0,6.169,2.9h0a6.337,6.337,0,0,0,5.249-2.56h0Zm-1.181-12.8a11.359,11.359,0,0,1,1.362,6.09,7.251,7.251,0,0,1-1.443,4.71,4.651,4.651,0,0,1-3.806,1.78,4.465,4.465,0,0,1-3.888-1.93,9.5,9.5,0,0,1-1.361-5.51q0-3.795,1.262-5.54a4.594,4.594,0,0,1,3.987-1.74A4.34,4.34,0,0,1,186.455,2110.56Zm17.2,13.18a7.322,7.322,0,0,0,.83-0.87,4.282,4.282,0,0,0,.776,1.9,3.271,3.271,0,0,0,2.669,1.01,4.679,4.679,0,0,0,.884-0.11,6.139,6.139,0,0,0,.992-0.29v-2.35a5.2,5.2,0,0,1-.6.11c-0.187.02-.328,0.04-0.424,0.04a1.081,1.081,0,0,1-.8-0.3,1.069,1.069,0,0,1-.3-0.79v-10.62a5.442,5.442,0,0,0-1.84-4.45,8.189,8.189,0,0,0-5.357-1.53,8.978,8.978,0,0,0-5.736,1.6,6.38,6.38,0,0,0-2.237,4.78H195.5a4.117,4.117,0,0,1,1.362-2.78,4.783,4.783,0,0,1,3.13-.93,5.384,5.384,0,0,1,3.265.88,2.854,2.854,0,0,1,1.172,2.43v0.16a2.063,2.063,0,0,1-.343,1.23,1.629,1.629,0,0,1-.974.65,5.555,5.555,0,0,1-1.028.18l-4.419.56a7.622,7.622,0,0,0-4.555,1.92,5.526,5.526,0,0,0-1.56,4.13,5.3,5.3,0,0,0,1.66,4.11,6.4,6.4,0,0,0,4.491,1.51h0a8.618,8.618,0,0,0,5.952-2.18h0Zm0.722-4.85a3.767,3.767,0,0,1-.108.75,4.742,4.742,0,0,1-1.606,2.2,6.767,6.767,0,0,1-4.329,1.39,3.386,3.386,0,0,1-2.507-.88,3.348,3.348,0,0,1-.884-2.5,2.413,2.413,0,0,1,1.082-2.08,7.89,7.89,0,0,1,3.428-1.1l2.976-.43a6.957,6.957,0,0,0,2-.6v2.1h0a11.1,11.1,0,0,1-.054,1.15h0Zm18.437,4.47,0.415-.6v2.64h3.012v-26.56H223v10.03l-0.252-.36a6.475,6.475,0,0,0-5.628-3.02,7.169,7.169,0,0,0-5.79,2.67,10.673,10.673,0,0,0-2.218,7.03,12.281,12.281,0,0,0,2.29,7.83,7.434,7.434,0,0,0,6.169,2.9h0a6.337,6.337,0,0,0,5.249-2.56h0Zm-1.181-12.8a11.36,11.36,0,0,1,1.361,6.09,7.245,7.245,0,0,1-1.443,4.71,4.648,4.648,0,0,1-3.8,1.78,4.465,4.465,0,0,1-3.888-1.93,9.5,9.5,0,0,1-1.361-5.51q0-3.795,1.262-5.54a4.594,4.594,0,0,1,3.987-1.74A4.34,4.34,0,0,1,221.634,2110.56Zm17.2,13.18a7.322,7.322,0,0,0,.83-0.87,4.282,4.282,0,0,0,.776,1.9,3.271,3.271,0,0,0,2.669,1.01,4.679,4.679,0,0,0,.884-0.11,6.139,6.139,0,0,0,.992-0.29v-2.35a5.2,5.2,0,0,1-.6.11c-0.187.02-.328,0.04-0.424,0.04a1.081,1.081,0,0,1-.8-0.3,1.069,1.069,0,0,1-.3-0.79v-10.62a5.442,5.442,0,0,0-1.84-4.45,8.189,8.189,0,0,0-5.357-1.53,8.978,8.978,0,0,0-5.736,1.6,6.38,6.38,0,0,0-2.237,4.78h2.994a4.117,4.117,0,0,1,1.362-2.78,4.783,4.783,0,0,1,3.13-.93,5.384,5.384,0,0,1,3.265.88,2.854,2.854,0,0,1,1.172,2.43v0.16a2.063,2.063,0,0,1-.343,1.23,1.629,1.629,0,0,1-.974.65,5.555,5.555,0,0,1-1.028.18l-4.419.56a7.622,7.622,0,0,0-4.555,1.92,5.526,5.526,0,0,0-1.56,4.13,5.3,5.3,0,0,0,1.66,4.11,6.4,6.4,0,0,0,4.491,1.51h0a8.618,8.618,0,0,0,5.952-2.18h0Zm0.722-4.85a3.767,3.767,0,0,1-.108.75,4.742,4.742,0,0,1-1.606,2.2,6.767,6.767,0,0,1-4.329,1.39,3.386,3.386,0,0,1-2.507-.88,3.348,3.348,0,0,1-.884-2.5,2.413,2.413,0,0,1,1.082-2.08,7.89,7.89,0,0,1,3.428-1.1l2.976-.43a6.957,6.957,0,0,0,2-.6v2.1h0a11.1,11.1,0,0,1-.054,1.15h0Zm6.641,6.51h3.86v-3.92H246.2v3.92Zm6.5,0h3.247v-10.35a7.706,7.706,0,0,1,1.371-4.82,4.457,4.457,0,0,1,3.715-1.78,4.028,4.028,0,0,1,3.184,1.13,5.56,5.56,0,0,1,.983,3.68v12.14h3.247v-13.24a6.731,6.731,0,0,0-11.941-4.2l-0.722.96v-2.85h-3.084v19.33h0Zm33.246-19.33h-3.556l-5.227,15.99h0l-5.153-15.99H268.3l7.162,19.65v0.01l-0.054.3a13.153,13.153,0,0,1-1.677,3.38,2.29,2.29,0,0,1-1.84.9,5.712,5.712,0,0,1-1.858-.28v3.01a4.862,4.862,0,0,0,1.569.2,5.308,5.308,0,0,0,3.977-1.37c0.884-.92,1.891-2.86,3.021-5.84l7.341-19.96h0Zm11.962,12.37a6.179,6.179,0,0,1-1.687,3.46,4.838,4.838,0,0,1-7.025-.64,9.712,9.712,0,0,1-1.3-5.55,9.285,9.285,0,0,1,1.4-5.44,4.46,4.46,0,0,1,3.851-1.98,4.723,4.723,0,0,1,3.319,1.14,4.791,4.791,0,0,1,1.443,3.21h3.12a7.218,7.218,0,0,0-2.218-5.24,7.851,7.851,0,0,0-5.556-1.91,7.956,7.956,0,0,0-6.376,2.77,11.089,11.089,0,0,0-2.372,7.45,11.312,11.312,0,0,0,2.291,7.45,7.561,7.561,0,0,0,6.132,2.76,7.844,7.844,0,0,0,5.52-1.91,8.965,8.965,0,0,0,2.579-5.57H297.9Z"/>
    <path id="Massel_Edgar_Degas_Seated_Dancer" data-name="Massel Edgar Degas Seated Dancer" class="cls-3" d="M175.846,2016.74h0l2.82,8.43h1.3l2.81-8.46h0v8.46h1.31v-9.99h-1.941l-2.826,8.5h0l-2.852-8.5h-1.941v9.99h1.31v-8.43Zm13.746,7.8a2.605,2.605,0,0,0,.312-0.32,1.638,1.638,0,0,0,.292.71,1.236,1.236,0,0,0,1,.38,1.488,1.488,0,0,0,.332-0.04,2.182,2.182,0,0,0,.373-0.11v-0.88a2.228,2.228,0,0,1-.227.04,1.051,1.051,0,0,1-.159.01,0.425,0.425,0,0,1-.3-0.11,0.39,0.39,0,0,1-.112-0.3v-3.99a2.065,2.065,0,0,0-.692-1.68,3.1,3.1,0,0,0-2.015-.57,3.392,3.392,0,0,0-2.158.6,2.4,2.4,0,0,0-.841,1.8h1.126a1.582,1.582,0,0,1,.512-1.05,1.82,1.82,0,0,1,1.178-.35,2.014,2.014,0,0,1,1.228.33,1.088,1.088,0,0,1,.441.92v0.06a0.764,0.764,0,0,1-.129.46,0.633,0.633,0,0,1-.367.25,2.341,2.341,0,0,1-.386.06l-1.663.22a2.824,2.824,0,0,0-1.713.72,2.067,2.067,0,0,0-.587,1.55,1.975,1.975,0,0,0,.625,1.54,2.413,2.413,0,0,0,1.689.58h0a3.23,3.23,0,0,0,2.239-.83h0Zm0.271-1.82a1.375,1.375,0,0,1-.04.28,1.794,1.794,0,0,1-.6.83,2.545,2.545,0,0,1-1.629.52,1.282,1.282,0,0,1-.943-0.33,1.263,1.263,0,0,1-.332-0.94,0.9,0.9,0,0,1,.407-0.78,2.876,2.876,0,0,1,1.289-.41l1.12-.17a2.557,2.557,0,0,0,.753-0.22v0.79h0a3.992,3.992,0,0,1-.021.43h0Zm8.053-2.72a2.221,2.221,0,0,0-.8-1.7,3.089,3.089,0,0,0-2.018-.62,3.018,3.018,0,0,0-1.977.6,1.992,1.992,0,0,0-.729,1.63,1.655,1.655,0,0,0,.435,1.22,3.033,3.033,0,0,0,1.459.69l1.262,0.3a3.617,3.617,0,0,1,1.119.39,0.657,0.657,0,0,1,.278.58,1.059,1.059,0,0,1-.424.91,2.074,2.074,0,0,1-1.246.31,2.326,2.326,0,0,1-1.4-.34,1.58,1.58,0,0,1-.547-1.13h-1.173a2.553,2.553,0,0,0,.834,1.92,3.629,3.629,0,0,0,2.287.61,3.241,3.241,0,0,0,2.1-.64,2.085,2.085,0,0,0,.777-1.71,1.7,1.7,0,0,0-.45-1.26,3.217,3.217,0,0,0-1.513-.71l-1.262-.3a3.617,3.617,0,0,1-1.107-.39,0.677,0.677,0,0,1-.278-0.59,0.856,0.856,0,0,1,.4-0.77,2.059,2.059,0,0,1,1.157-.27,1.85,1.85,0,0,1,1.178.34,1.246,1.246,0,0,1,.492.93h1.147Zm6.391,0a2.215,2.215,0,0,0-.8-1.7,3.084,3.084,0,0,0-2.017-.62,3.019,3.019,0,0,0-1.978.6,2,2,0,0,0-.729,1.63,1.651,1.651,0,0,0,.436,1.22,3.029,3.029,0,0,0,1.458.69l1.262,0.3a3.626,3.626,0,0,1,1.12.39,0.659,0.659,0,0,1,.278.58,1.059,1.059,0,0,1-.424.91,2.074,2.074,0,0,1-1.246.31,2.331,2.331,0,0,1-1.4-.34,1.583,1.583,0,0,1-.546-1.13h-1.174a2.557,2.557,0,0,0,.835,1.92,3.629,3.629,0,0,0,2.287.61,3.236,3.236,0,0,0,2.1-.64,2.085,2.085,0,0,0,.777-1.71,1.7,1.7,0,0,0-.449-1.26,3.221,3.221,0,0,0-1.514-.71l-1.262-.3a3.608,3.608,0,0,1-1.106-.39,0.677,0.677,0,0,1-.278-0.59,0.856,0.856,0,0,1,.4-0.77,2.057,2.057,0,0,1,1.157-.27,1.852,1.852,0,0,1,1.178.34,1.246,1.246,0,0,1,.492.93h1.146Zm6.143,4.74a3.079,3.079,0,0,0,1.085-1.83h-1.207a1.622,1.622,0,0,1-.638,1.01,1.984,1.984,0,0,1-1.221.39,1.9,1.9,0,0,1-1.627-.69,3.141,3.141,0,0,1-.5-1.66h5.3l0.014-.43a4.238,4.238,0,0,0-.875-2.79,2.828,2.828,0,0,0-2.3-1.06,3.144,3.144,0,0,0-2.507,1.08,4.344,4.344,0,0,0-.933,2.92,3.922,3.922,0,0,0,.882,2.71,3.1,3.1,0,0,0,2.422.98h0A3.329,3.329,0,0,0,210.45,2024.74Zm-4.1-3.76a2.766,2.766,0,0,1,.55-1.49,1.872,1.872,0,0,1,1.54-.72,1.735,1.735,0,0,1,1.452.63,2.7,2.7,0,0,1,.5,1.58h-4.044Zm6.247,4.19h1.221v-9.99h-1.221v9.99h0Zm-30.513,27.8v-1.19h-6.018v-3.35h5.427v-1.2h-5.427v-3.05h5.943v-1.2h-7.293v9.99h7.368Zm5.794-.76,0.156-.23v0.99h1.133v-9.99h-1.221v3.78l-0.095-.14a2.439,2.439,0,0,0-2.117-1.14,2.7,2.7,0,0,0-2.177,1.01,3.994,3.994,0,0,0-.835,2.64,4.633,4.633,0,0,0,.862,2.95,2.793,2.793,0,0,0,2.32,1.09h0a2.389,2.389,0,0,0,1.974-.96h0Zm-0.444-4.82a4.284,4.284,0,0,1,.512,2.29,2.7,2.7,0,0,1-.543,1.77,1.741,1.741,0,0,1-1.431.67,1.686,1.686,0,0,1-1.462-.72,4.635,4.635,0,0,1-.038-4.16,1.717,1.717,0,0,1,1.5-.65A1.624,1.624,0,0,1,187.431,2047.39Zm4.485,7.33a1.406,1.406,0,0,1-.519-0.9h-1.248a2.417,2.417,0,0,0,.875,1.65,3.093,3.093,0,0,0,1.961.58,3.288,3.288,0,0,0,2.524-.89,3.916,3.916,0,0,0,.827-2.72v-6.74H195.19v1.05l-0.088-.13a2.385,2.385,0,0,0-2.077-1.14,2.767,2.767,0,0,0-2.218,1.01,3.952,3.952,0,0,0-.848,2.64,4.639,4.639,0,0,0,.861,2.95,2.8,2.8,0,0,0,2.321,1.09,2.383,2.383,0,0,0,1.967-.96l0.007-.01v0.24a2.964,2.964,0,0,1-.549,1.93,1.968,1.968,0,0,1-1.6.66h0A1.671,1.671,0,0,1,191.916,2054.72Zm2.768-7.35a4.356,4.356,0,0,1,.492,2.31,2.69,2.69,0,0,1-.543,1.76,1.741,1.741,0,0,1-1.431.67,1.679,1.679,0,0,1-1.455-.72,3.56,3.56,0,0,1-.513-2.07,3.6,3.6,0,0,1,.472-2.07,1.731,1.731,0,0,1,1.5-.65A1.648,1.648,0,0,1,194.684,2047.37Zm6.945,4.98a2.53,2.53,0,0,0,.312-0.33,1.631,1.631,0,0,0,.292.72,1.237,1.237,0,0,0,1,.38,2.473,2.473,0,0,0,.332-0.04,3.741,3.741,0,0,0,.374-0.11v-0.89a2.294,2.294,0,0,1-.228.04,1.468,1.468,0,0,1-.159.02,0.426,0.426,0,0,1-.3-0.11,0.421,0.421,0,0,1-.112-0.3v-4a2.044,2.044,0,0,0-.692-1.67,3.1,3.1,0,0,0-2.015-.58,3.394,3.394,0,0,0-2.158.61,2.4,2.4,0,0,0-.841,1.79h1.126a1.531,1.531,0,0,1,.513-1.04,1.815,1.815,0,0,1,1.177-.35,2.014,2.014,0,0,1,1.228.33,1.07,1.07,0,0,1,.441.91v0.07a0.807,0.807,0,0,1-.129.46,0.619,0.619,0,0,1-.367.24,2.335,2.335,0,0,1-.386.07l-1.663.21a2.953,2.953,0,0,0-1.713.72,2.09,2.09,0,0,0-.587,1.56,1.975,1.975,0,0,0,.625,1.54,2.408,2.408,0,0,0,1.689.57h0a3.222,3.222,0,0,0,2.239-.82h0Zm0.271-1.82a1.5,1.5,0,0,1-.04.28,1.77,1.77,0,0,1-.6.82,2.548,2.548,0,0,1-1.628.53,1.154,1.154,0,0,1-1.276-1.27,0.92,0.92,0,0,1,.407-0.79,3.007,3.007,0,0,1,1.289-.41l1.12-.16a2.557,2.557,0,0,0,.753-0.23v0.79h0a4.189,4.189,0,0,1-.021.44h0Zm2.918,2.44h1.222v-3.89a2.46,2.46,0,0,1,.539-1.7,1.98,1.98,0,0,1,1.53-.59l0.251,0.01v-1.25a0.873,0.873,0,0,0-.346-0.07,2.046,2.046,0,0,0-1.7.94,3.4,3.4,0,0,0-.332.53v-1.25h-1.161v7.27h0Zm7.431,0h3.989a3.867,3.867,0,0,0,3.1-1.35,5.41,5.41,0,0,0,1.15-3.63,5.535,5.535,0,0,0-1.123-3.65,3.735,3.735,0,0,0-3.022-1.36h-4.1v9.99h0Zm1.35-8.83h2.585a2.539,2.539,0,0,1,2.157,1,4.645,4.645,0,0,1,.76,2.85,4.472,4.472,0,0,1-.79,2.83,2.685,2.685,0,0,1-2.243,1H213.6v-7.68Zm12.959,8.4a3.079,3.079,0,0,0,1.086-1.82h-1.208a1.573,1.573,0,0,1-.637,1,1.933,1.933,0,0,1-1.221.4,1.877,1.877,0,0,1-1.627-.7,3.114,3.114,0,0,1-.5-1.65h5.3l0.015-.44a4.251,4.251,0,0,0-.876-2.79,2.856,2.856,0,0,0-2.3-1.06,3.153,3.153,0,0,0-2.507,1.09,4.308,4.308,0,0,0-.932,2.92,3.874,3.874,0,0,0,.882,2.7,3.1,3.1,0,0,0,2.422.98h0A3.326,3.326,0,0,0,226.558,2052.54Zm-4.1-3.76a2.77,2.77,0,0,1,.549-1.48,1.874,1.874,0,0,1,1.541-.72,1.759,1.759,0,0,1,1.452.62,2.757,2.757,0,0,1,.5,1.58h-4.044Zm7.831,5.94a1.406,1.406,0,0,1-.519-0.9h-1.249a2.422,2.422,0,0,0,.876,1.65,3.092,3.092,0,0,0,1.96.58,3.285,3.285,0,0,0,2.524-.89,3.911,3.911,0,0,0,.828-2.72v-6.74H233.56v1.05l-0.088-.13a2.382,2.382,0,0,0-2.076-1.14,2.766,2.766,0,0,0-2.218,1.01,3.953,3.953,0,0,0-.849,2.64,4.639,4.639,0,0,0,.862,2.95,2.8,2.8,0,0,0,2.321,1.09,2.383,2.383,0,0,0,1.967-.96l0.007-.01v0.24a2.958,2.958,0,0,1-.55,1.93,1.964,1.964,0,0,1-1.6.66h0A1.669,1.669,0,0,1,230.287,2054.72Zm2.768-7.35a4.356,4.356,0,0,1,.492,2.31,2.69,2.69,0,0,1-.543,1.76,1.742,1.742,0,0,1-1.431.67,1.681,1.681,0,0,1-1.456-.72,4.6,4.6,0,0,1-.04-4.14,1.731,1.731,0,0,1,1.5-.65A1.648,1.648,0,0,1,233.055,2047.37Zm6.945,4.98a2.673,2.673,0,0,0,.312-0.33,1.631,1.631,0,0,0,.292.72,1.236,1.236,0,0,0,1,.38,2.473,2.473,0,0,0,.332-0.04,3.721,3.721,0,0,0,.373-0.11v-0.89a2.228,2.228,0,0,1-.227.04,1.468,1.468,0,0,1-.159.02,0.383,0.383,0,0,1-.414-0.41v-4a2.044,2.044,0,0,0-.692-1.67,3.1,3.1,0,0,0-2.015-.58,3.392,3.392,0,0,0-2.158.61,2.4,2.4,0,0,0-.841,1.79h1.126a1.535,1.535,0,0,1,.512-1.04,1.817,1.817,0,0,1,1.177-.35,2.012,2.012,0,0,1,1.228.33,1.07,1.07,0,0,1,.441.91v0.07a0.814,0.814,0,0,1-.128.46,0.622,0.622,0,0,1-.367.24,2.329,2.329,0,0,1-.387.07l-1.662.21a2.947,2.947,0,0,0-1.713.72,2.09,2.09,0,0,0-.587,1.56,1.978,1.978,0,0,0,.624,1.54,2.411,2.411,0,0,0,1.69.57h0a3.222,3.222,0,0,0,2.239-.82h0Zm0.271-1.82a1.484,1.484,0,0,1-.041.28,1.76,1.76,0,0,1-.6.82,2.553,2.553,0,0,1-1.629.53,1.154,1.154,0,0,1-1.275-1.27,0.918,0.918,0,0,1,.407-0.79,3.007,3.007,0,0,1,1.289-.41l1.119-.16a2.547,2.547,0,0,0,.753-0.23v0.79h0a4.206,4.206,0,0,1-.02.44h0Zm8.052-2.72a2.236,2.236,0,0,0-.8-1.71,3.084,3.084,0,0,0-2.017-.62,3.026,3.026,0,0,0-1.978.61,1.989,1.989,0,0,0-.729,1.62,1.66,1.66,0,0,0,.436,1.23,3.029,3.029,0,0,0,1.459.68l1.262,0.3a3.57,3.57,0,0,1,1.119.4,0.653,0.653,0,0,1,.278.57,1.047,1.047,0,0,1-.424.91,2.071,2.071,0,0,1-1.246.32,2.327,2.327,0,0,1-1.4-.35,1.54,1.54,0,0,1-.546-1.12h-1.174a2.517,2.517,0,0,0,.835,1.91,3.567,3.567,0,0,0,2.287.61,3.238,3.238,0,0,0,2.1-.63,2.085,2.085,0,0,0,.777-1.71,1.7,1.7,0,0,0-.45-1.26,3.222,3.222,0,0,0-1.513-.71l-1.263-.3a3.834,3.834,0,0,1-1.106-.4,0.659,0.659,0,0,1-.278-0.58,0.885,0.885,0,0,1,.4-0.78,2.15,2.15,0,0,1,1.157-.26,1.913,1.913,0,0,1,1.178.33,1.267,1.267,0,0,1,.492.94h1.146Zm-66.429,25.87a3.078,3.078,0,0,0-1.064-2.32,4.024,4.024,0,0,0-2.679-.84,3.886,3.886,0,0,0-2.628.84,2.835,2.835,0,0,0-.973,2.27,2.063,2.063,0,0,0,.561,1.54,4.007,4.007,0,0,0,1.881.87l1.739,0.42a4.8,4.8,0,0,1,1.7.64,1.3,1.3,0,0,1,.425,1.07,1.426,1.426,0,0,1-.645,1.26,3.48,3.48,0,0,1-1.888.42,3.287,3.287,0,0,1-2.1-.59,2.091,2.091,0,0,1-.788-1.68h-1.241v0.08a3.047,3.047,0,0,0,1.072,2.47,4.64,4.64,0,0,0,3.055.92,4.444,4.444,0,0,0,2.786-.79,2.911,2.911,0,0,0,.429-3.99,3.909,3.909,0,0,0-2-.98l-1.737-.42a4.822,4.822,0,0,1-1.581-.56,1,1,0,0,1-.394-0.86,1.5,1.5,0,0,1,.59-1.29,2.82,2.82,0,0,1,1.73-.45,2.734,2.734,0,0,1,1.761.52,1.977,1.977,0,0,1,.743,1.45h1.241Zm6.293,6.67a3.075,3.075,0,0,0,1.086-1.83h-1.208a1.6,1.6,0,0,1-.637,1.01,1.984,1.984,0,0,1-1.221.39,1.9,1.9,0,0,1-1.627-.69,3.141,3.141,0,0,1-.5-1.66h5.3l0.015-.43a4.256,4.256,0,0,0-.875-2.79,2.828,2.828,0,0,0-2.3-1.06,3.144,3.144,0,0,0-2.507,1.08,4.344,4.344,0,0,0-.933,2.92,3.905,3.905,0,0,0,.882,2.71,3.1,3.1,0,0,0,2.422.98h0A3.324,3.324,0,0,0,188.187,2080.35Zm-4.1-3.76a2.773,2.773,0,0,1,.549-1.49,1.874,1.874,0,0,1,1.541-.72,1.735,1.735,0,0,1,1.452.63,2.732,2.732,0,0,1,.5,1.58h-4.044Zm10.372,3.56a2.467,2.467,0,0,0,.312-0.32,1.587,1.587,0,0,0,.292.71,1.237,1.237,0,0,0,1,.38,1.488,1.488,0,0,0,.332-0.04,2.193,2.193,0,0,0,.374-0.11v-0.88a2.294,2.294,0,0,1-.228.04,1.051,1.051,0,0,1-.159.01,0.387,0.387,0,0,1-.3-0.11,0.382,0.382,0,0,1-.112-0.29v-4a2.078,2.078,0,0,0-.692-1.68,3.1,3.1,0,0,0-2.015-.57,3.394,3.394,0,0,0-2.158.6,2.4,2.4,0,0,0-.841,1.8h1.126a1.531,1.531,0,0,1,.513-1.04,1.76,1.76,0,0,1,1.177-.35,2.014,2.014,0,0,1,1.228.33,1.07,1.07,0,0,1,.441.91v0.06a0.764,0.764,0,0,1-.129.46,0.591,0.591,0,0,1-.366.25c-0.123.03-.252,0.05-0.387,0.07l-1.662.21a2.83,2.83,0,0,0-1.714.72,2.066,2.066,0,0,0-.586,1.55,2.015,2.015,0,0,0,.624,1.55,2.408,2.408,0,0,0,1.689.57h0a3.23,3.23,0,0,0,2.239-.83h0Zm0.271-1.82a1.375,1.375,0,0,1-.04.28,1.746,1.746,0,0,1-.6.83,2.542,2.542,0,0,1-1.628.52,1.283,1.283,0,0,1-.944-0.33,1.263,1.263,0,0,1-.332-0.94,0.9,0.9,0,0,1,.407-0.78,3.012,3.012,0,0,1,1.289-.41l1.12-.17a2.539,2.539,0,0,0,.753-0.22v0.79h0a3.992,3.992,0,0,1-.021.43h0Zm5.415,1.5h-0.434a0.825,0.825,0,0,1-.519-0.15,0.44,0.44,0,0,1-.193-0.38v-4.79h1.146v-1H199v-2.04h-1.222v2.04h-1v1h1v4.79a1.758,1.758,0,0,0,.329,1.21,1.481,1.481,0,0,0,1.13.36,6,6,0,0,0,.909-0.1h0v-0.94Zm5.693,0.52a3.075,3.075,0,0,0,1.086-1.83h-1.208a1.592,1.592,0,0,1-.638,1.01,1.983,1.983,0,0,1-1.22.39,1.9,1.9,0,0,1-1.627-.69,3.131,3.131,0,0,1-.5-1.66h5.3l0.015-.43a4.251,4.251,0,0,0-.876-2.79,2.827,2.827,0,0,0-2.3-1.06,3.145,3.145,0,0,0-2.507,1.08,4.344,4.344,0,0,0-.933,2.92,3.905,3.905,0,0,0,.882,2.71,3.106,3.106,0,0,0,2.423.98h0A3.328,3.328,0,0,0,205.836,2080.35Zm-4.1-3.76a2.782,2.782,0,0,1,.55-1.49,1.874,1.874,0,0,1,1.54-.72,1.738,1.738,0,0,1,1.453.63,2.739,2.739,0,0,1,.5,1.58h-4.045Zm10.963,3.42,0.156-.22v0.99h1.133v-9.99h-1.221v3.77l-0.095-.14a2.452,2.452,0,0,0-2.117-1.13,2.7,2.7,0,0,0-2.178,1.01,4,4,0,0,0-.834,2.64,4.639,4.639,0,0,0,.861,2.95,2.823,2.823,0,0,0,2.321,1.09h0a2.4,2.4,0,0,0,1.974-.97h0Zm-0.444-4.81a4.26,4.26,0,0,1,.512,2.29,2.738,2.738,0,0,1-.543,1.77,1.743,1.743,0,0,1-1.432.67,1.672,1.672,0,0,1-1.462-.73,4.609,4.609,0,0,1-.037-4.15,1.721,1.721,0,0,1,1.5-.66A1.634,1.634,0,0,1,212.252,2075.2Zm6.4,5.58h3.989a3.866,3.866,0,0,0,3.1-1.35,5.438,5.438,0,0,0,1.15-3.64,5.559,5.559,0,0,0-1.122-3.65,3.73,3.73,0,0,0-3.023-1.35h-4.1v9.99h0Zm1.35-8.84h2.585a2.55,2.55,0,0,1,2.158,1.01,4.619,4.619,0,0,1,.76,2.84,4.453,4.453,0,0,1-.791,2.83,2.683,2.683,0,0,1-2.242,1H220v-7.68Zm12.057,8.21a2.467,2.467,0,0,0,.312-0.32,1.587,1.587,0,0,0,.292.71,1.237,1.237,0,0,0,1,.38,1.488,1.488,0,0,0,.332-0.04,2.193,2.193,0,0,0,.374-0.11v-0.88a2.294,2.294,0,0,1-.228.04,1.051,1.051,0,0,1-.159.01,0.387,0.387,0,0,1-.3-0.11,0.382,0.382,0,0,1-.112-0.29v-4a2.078,2.078,0,0,0-.692-1.68,3.1,3.1,0,0,0-2.015-.57,3.394,3.394,0,0,0-2.158.6,2.4,2.4,0,0,0-.841,1.8h1.126a1.531,1.531,0,0,1,.513-1.04,1.76,1.76,0,0,1,1.177-.35,2.014,2.014,0,0,1,1.228.33,1.07,1.07,0,0,1,.441.91v0.06a0.764,0.764,0,0,1-.129.46,0.591,0.591,0,0,1-.366.25c-0.123.03-.252,0.05-0.387,0.07l-1.662.21a2.83,2.83,0,0,0-1.714.72,2.066,2.066,0,0,0-.586,1.55,2.015,2.015,0,0,0,.624,1.55,2.408,2.408,0,0,0,1.689.57h0a3.23,3.23,0,0,0,2.239-.83h0Zm0.271-1.82a1.375,1.375,0,0,1-.04.28,1.746,1.746,0,0,1-.6.83,2.542,2.542,0,0,1-1.628.52,1.28,1.28,0,0,1-.943-0.33,1.26,1.26,0,0,1-.333-0.94,0.9,0.9,0,0,1,.407-0.78,3.012,3.012,0,0,1,1.289-.41l1.12-.17a2.539,2.539,0,0,0,.753-0.22v0.79h0a3.992,3.992,0,0,1-.021.43h0Zm2.749,2.45H236.3v-3.89a2.911,2.911,0,0,1,.516-1.82,1.686,1.686,0,0,1,1.4-.67,1.525,1.525,0,0,1,1.2.43,2.076,2.076,0,0,1,.37,1.38v4.57H241v-4.98a2.269,2.269,0,0,0-2.5-2.51,2.508,2.508,0,0,0-1.988.93l-0.271.36v-1.07h-1.16v7.27h0Zm11.724-2.62a2.316,2.316,0,0,1-.634,1.3,1.819,1.819,0,0,1-2.643-.24,3.63,3.63,0,0,1-.488-2.08,3.486,3.486,0,0,1,.526-2.05,1.673,1.673,0,0,1,1.448-.75,1.664,1.664,0,0,1,1.791,1.64h1.174a2.707,2.707,0,0,0-.834-1.97,2.962,2.962,0,0,0-2.09-.72,3.011,3.011,0,0,0-2.4,1.04,4.187,4.187,0,0,0-.892,2.81,4.268,4.268,0,0,0,.862,2.8,2.851,2.851,0,0,0,2.307,1.04,2.94,2.94,0,0,0,2.076-.72,3.379,3.379,0,0,0,.97-2.1h-1.174Zm6.894,2.19a3.075,3.075,0,0,0,1.086-1.83h-1.208a1.6,1.6,0,0,1-.637,1.01,1.988,1.988,0,0,1-1.221.39,1.9,1.9,0,0,1-1.627-.69,3.131,3.131,0,0,1-.5-1.66h5.3l0.015-.43a4.251,4.251,0,0,0-.876-2.79,2.827,2.827,0,0,0-2.3-1.06,3.145,3.145,0,0,0-2.507,1.08,4.344,4.344,0,0,0-.933,2.92,3.905,3.905,0,0,0,.882,2.71,3.106,3.106,0,0,0,2.423.98h0A3.328,3.328,0,0,0,253.7,2080.35Zm-4.1-3.76a2.782,2.782,0,0,1,.55-1.49,1.874,1.874,0,0,1,1.54-.72,1.738,1.738,0,0,1,1.453.63,2.732,2.732,0,0,1,.5,1.58H249.6Zm6.39,4.19h1.221v-3.89a2.443,2.443,0,0,1,.54-1.7,1.949,1.949,0,0,1,1.53-.6l0.251,0.01v-1.25a1.073,1.073,0,0,0-.346-0.06,2.06,2.06,0,0,0-1.7.93,4.7,4.7,0,0,0-.333.53v-1.24h-1.16v7.27h0Z"/>
  </g>
</svg>
