<svg id="Dada" xmlns="http://www.w3.org/2000/svg" width="3000" height="3000" viewBox="0 0 3000 3000">
  <defs>
    <style>
      .cls-1 {
        fill: #575861;
      }

      .cls-2 {
        fill: #e4e1da;
      }

      .cls-2, .cls-3 {
        fill-rule: evenodd;
      }

      .cls-3 {
        fill: #31323d;
      }
    </style>
  </defs>
  <g id="dada-placard-lasmeninas">
    <rect id="Rectangle_2_copy" data-name="Rectangle 2 copy" class="cls-1" x="155" y="1980" width="291" height="187"/>
    <path id="Rectangle_2_copy_2" data-name="Rectangle 2 copy 2" class="cls-2" d="M159.98,1984.99H441.02v177.02H159.98V1984.99Z"/>
    <path id="dada.nyc" class="cls-3" d="M187.636,2123.36l0.415-.6v2.64h3.012v-26.56h-3.246v10.03l-0.253-.36a6.475,6.475,0,0,0-5.628-3.02,7.169,7.169,0,0,0-5.79,2.67,10.673,10.673,0,0,0-2.218,7.03,12.281,12.281,0,0,0,2.29,7.83,7.434,7.434,0,0,0,6.169,2.9h0a6.337,6.337,0,0,0,5.249-2.56h0Zm-1.181-12.8a11.359,11.359,0,0,1,1.362,6.09,7.251,7.251,0,0,1-1.443,4.71,4.651,4.651,0,0,1-3.806,1.78,4.465,4.465,0,0,1-3.888-1.93,9.5,9.5,0,0,1-1.361-5.51q0-3.795,1.262-5.54a4.594,4.594,0,0,1,3.987-1.74A4.34,4.34,0,0,1,186.455,2110.56Zm17.2,13.18a7.322,7.322,0,0,0,.83-0.87,4.282,4.282,0,0,0,.776,1.9,3.271,3.271,0,0,0,2.669,1.01,4.679,4.679,0,0,0,.884-0.11,6.139,6.139,0,0,0,.992-0.29v-2.35a5.2,5.2,0,0,1-.6.11c-0.187.02-.328,0.04-0.424,0.04a1.081,1.081,0,0,1-.8-0.3,1.069,1.069,0,0,1-.3-0.79v-10.62a5.442,5.442,0,0,0-1.84-4.45,8.189,8.189,0,0,0-5.357-1.53,8.978,8.978,0,0,0-5.736,1.6,6.38,6.38,0,0,0-2.237,4.78H195.5a4.117,4.117,0,0,1,1.362-2.78,4.783,4.783,0,0,1,3.13-.93,5.384,5.384,0,0,1,3.265.88,2.854,2.854,0,0,1,1.172,2.43v0.16a2.063,2.063,0,0,1-.343,1.23,1.629,1.629,0,0,1-.974.65,5.555,5.555,0,0,1-1.028.18l-4.419.56a7.622,7.622,0,0,0-4.555,1.92,5.526,5.526,0,0,0-1.56,4.13,5.3,5.3,0,0,0,1.66,4.11,6.4,6.4,0,0,0,4.491,1.51h0a8.618,8.618,0,0,0,5.952-2.18h0Zm0.722-4.85a3.767,3.767,0,0,1-.108.75,4.742,4.742,0,0,1-1.606,2.2,6.767,6.767,0,0,1-4.329,1.39,3.386,3.386,0,0,1-2.507-.88,3.348,3.348,0,0,1-.884-2.5,2.413,2.413,0,0,1,1.082-2.08,7.89,7.89,0,0,1,3.428-1.1l2.976-.43a6.957,6.957,0,0,0,2-.6v2.1h0a11.1,11.1,0,0,1-.054,1.15h0Zm18.437,4.47,0.415-.6v2.64h3.012v-26.56H223v10.03l-0.252-.36a6.475,6.475,0,0,0-5.628-3.02,7.169,7.169,0,0,0-5.79,2.67,10.673,10.673,0,0,0-2.218,7.03,12.281,12.281,0,0,0,2.29,7.83,7.434,7.434,0,0,0,6.169,2.9h0a6.337,6.337,0,0,0,5.249-2.56h0Zm-1.181-12.8a11.36,11.36,0,0,1,1.361,6.09,7.245,7.245,0,0,1-1.443,4.71,4.648,4.648,0,0,1-3.8,1.78,4.465,4.465,0,0,1-3.888-1.93,9.5,9.5,0,0,1-1.361-5.51q0-3.795,1.262-5.54a4.594,4.594,0,0,1,3.987-1.74A4.34,4.34,0,0,1,221.634,2110.56Zm17.2,13.18a7.322,7.322,0,0,0,.83-0.87,4.282,4.282,0,0,0,.776,1.9,3.271,3.271,0,0,0,2.669,1.01,4.679,4.679,0,0,0,.884-0.11,6.139,6.139,0,0,0,.992-0.29v-2.35a5.2,5.2,0,0,1-.6.11c-0.187.02-.328,0.04-0.424,0.04a1.081,1.081,0,0,1-.8-0.3,1.069,1.069,0,0,1-.3-0.79v-10.62a5.442,5.442,0,0,0-1.84-4.45,8.189,8.189,0,0,0-5.357-1.53,8.978,8.978,0,0,0-5.736,1.6,6.38,6.38,0,0,0-2.237,4.78h2.994a4.117,4.117,0,0,1,1.362-2.78,4.783,4.783,0,0,1,3.13-.93,5.384,5.384,0,0,1,3.265.88,2.854,2.854,0,0,1,1.172,2.43v0.16a2.063,2.063,0,0,1-.343,1.23,1.629,1.629,0,0,1-.974.65,5.555,5.555,0,0,1-1.028.18l-4.419.56a7.622,7.622,0,0,0-4.555,1.92,5.526,5.526,0,0,0-1.56,4.13,5.3,5.3,0,0,0,1.66,4.11,6.4,6.4,0,0,0,4.491,1.51h0a8.618,8.618,0,0,0,5.952-2.18h0Zm0.722-4.85a3.767,3.767,0,0,1-.108.75,4.742,4.742,0,0,1-1.606,2.2,6.767,6.767,0,0,1-4.329,1.39,3.386,3.386,0,0,1-2.507-.88,3.348,3.348,0,0,1-.884-2.5,2.413,2.413,0,0,1,1.082-2.08,7.89,7.89,0,0,1,3.428-1.1l2.976-.43a6.957,6.957,0,0,0,2-.6v2.1h0a11.1,11.1,0,0,1-.054,1.15h0Zm6.641,6.51h3.86v-3.92H246.2v3.92Zm6.5,0h3.247v-10.35a7.706,7.706,0,0,1,1.371-4.82,4.457,4.457,0,0,1,3.715-1.78,4.028,4.028,0,0,1,3.184,1.13,5.56,5.56,0,0,1,.983,3.68v12.14h3.247v-13.24a6.731,6.731,0,0,0-11.941-4.2l-0.722.96v-2.85h-3.084v19.33h0Zm33.246-19.33h-3.556l-5.227,15.99h0l-5.153-15.99H268.3l7.162,19.65v0.01l-0.054.3a13.153,13.153,0,0,1-1.677,3.38,2.29,2.29,0,0,1-1.84.9,5.712,5.712,0,0,1-1.858-.28v3.01a4.862,4.862,0,0,0,1.569.2,5.308,5.308,0,0,0,3.977-1.37c0.884-.92,1.891-2.86,3.021-5.84l7.341-19.96h0Zm11.962,12.37a6.179,6.179,0,0,1-1.687,3.46,4.838,4.838,0,0,1-7.025-.64,9.712,9.712,0,0,1-1.3-5.55,9.285,9.285,0,0,1,1.4-5.44,4.46,4.46,0,0,1,3.851-1.98,4.723,4.723,0,0,1,3.319,1.14,4.791,4.791,0,0,1,1.443,3.21h3.12a7.218,7.218,0,0,0-2.218-5.24,7.851,7.851,0,0,0-5.556-1.91,7.956,7.956,0,0,0-6.376,2.77,11.089,11.089,0,0,0-2.372,7.45,11.312,11.312,0,0,0,2.291,7.45,7.561,7.561,0,0,0,6.132,2.76,7.844,7.844,0,0,0,5.52-1.91,8.965,8.965,0,0,0,2.579-5.57H297.9Z"/>
    <path id="CROMOMANIACO_Diego_Velázquez_Las_Meninas" data-name="CROMOMANIACO Diego Velázquez Las Meninas" class="cls-3" d="M181.68,2021.49a3.637,3.637,0,0,1-1.017,2.04,2.742,2.742,0,0,1-1.927.71,2.853,2.853,0,0,1-2.392-1.04,4.772,4.772,0,0,1-.824-3.02,4.575,4.575,0,0,1,.889-2.97,2.9,2.9,0,0,1,2.388-1.11,3.072,3.072,0,0,1,1.876.54,2.376,2.376,0,0,1,.919,1.54h1.3a3.59,3.59,0,0,0-1.3-2.4,4.823,4.823,0,0,0-6.191.56,5.555,5.555,0,0,0-1.272,3.84,5.69,5.69,0,0,0,1.225,3.84,4.109,4.109,0,0,0,3.287,1.42,4.189,4.189,0,0,0,2.927-1.05,4.632,4.632,0,0,0,1.415-2.9h-1.3Zm2.538,3.68h1.351v-4.31h3.2a1.992,1.992,0,0,1,1.4.4,1.806,1.806,0,0,1,.454,1.33l0.031,0.78c0.018,0.43.045,0.81,0.081,1.15a2.84,2.84,0,0,0,.108.64H192.5v-0.22a0.764,0.764,0,0,1-.394-0.34,1.564,1.564,0,0,1-.115-0.64l-0.055-1.82a1.927,1.927,0,0,0-.943-1.76l-0.224-.11a3.71,3.71,0,0,0,.469-0.33,2.559,2.559,0,0,0,.861-2.05,2.475,2.475,0,0,0-.828-2.02,3.683,3.683,0,0,0-2.415-.69h-4.641v9.99h0Zm1.351-8.86h3.236a2.206,2.206,0,0,1,1.448.4,1.6,1.6,0,0,1,.458,1.27,1.713,1.713,0,0,1-.434,1.3,1.959,1.959,0,0,1-1.37.41h-3.338v-3.38Zm12.308,9.13a4.561,4.561,0,0,0,3.524-1.45,6.1,6.1,0,0,0,0-7.63,5,5,0,0,0-7.039,0,6.09,6.09,0,0,0,0,7.63,4.557,4.557,0,0,0,3.515,1.45h0Zm0-1.2a3.133,3.133,0,0,1-2.511-1.12,5.014,5.014,0,0,1,0-5.89,3.362,3.362,0,0,1,5.028,0,5.014,5.014,0,0,1,0,5.89,3.139,3.139,0,0,1-2.517,1.12h0Zm7.178-7.5h0l2.82,8.43h1.3l2.811-8.46h0v8.46h1.309v-9.99h-1.94l-2.827,8.5h0l-2.853-8.5h-1.94v9.99h1.309v-8.43Zm14.093,8.7a4.561,4.561,0,0,0,3.524-1.45,6.1,6.1,0,0,0,0-7.63,5,5,0,0,0-7.039,0,6.09,6.09,0,0,0,0,7.63,4.557,4.557,0,0,0,3.515,1.45h0Zm0-1.2a3.133,3.133,0,0,1-2.511-1.12,5.014,5.014,0,0,1,0-5.89,3.362,3.362,0,0,1,5.028,0,5.014,5.014,0,0,1,0,5.89,3.139,3.139,0,0,1-2.517,1.12h0Zm7.178-7.5h0l2.82,8.43h1.3l2.811-8.46h0v8.46h1.31v-9.99h-1.941l-2.827,8.5h0l-2.853-8.5h-1.94v9.99h1.309v-8.43Zm8.889,8.43h1.392l1.048-2.9h3.982l1.017,2.9H244.1l-3.583-9.99h-1.54l-3.765,9.99h0Zm4.474-8.52h0l1.538,4.43h-3.139l1.6-4.43h0Zm6.4,0.37,5.136,8.15h1.479v-9.99h-1.3v8.12l-4.994-8.12h-1.621v9.99h1.3v-8.15Zm8.38,8.15h1.35v-9.99h-1.35v9.99h0Zm2.239,0H258.1l1.048-2.9h3.982l1.016,2.9H265.6l-3.582-9.99h-1.54l-3.766,9.99h0Zm4.474-8.52h0l1.538,4.43H259.58l1.6-4.43h0Zm12.2,4.84a3.644,3.644,0,0,1-1.018,2.04,2.74,2.74,0,0,1-1.927.71,2.85,2.85,0,0,1-2.391-1.04,4.766,4.766,0,0,1-.825-3.02,4.581,4.581,0,0,1,.889-2.97,2.9,2.9,0,0,1,2.388-1.11,3.07,3.07,0,0,1,1.876.54,2.376,2.376,0,0,1,.919,1.54h1.3a3.59,3.59,0,0,0-1.3-2.4,4.823,4.823,0,0,0-6.191.56,5.555,5.555,0,0,0-1.272,3.84,5.69,5.69,0,0,0,1.225,3.84,4.109,4.109,0,0,0,3.287,1.42,4.19,4.19,0,0,0,2.928-1.05,4.636,4.636,0,0,0,1.414-2.9h-1.3Zm6.717,3.95a4.564,4.564,0,0,0,3.525-1.45,6.1,6.1,0,0,0,0-7.63,5,5,0,0,0-7.039,0,6.087,6.087,0,0,0,0,7.63,4.555,4.555,0,0,0,3.514,1.45h0Zm0-1.2a3.131,3.131,0,0,1-2.51-1.12,5.01,5.01,0,0,1,0-5.89,3.36,3.36,0,0,1,5.027,0,5.01,5.01,0,0,1,0,5.89,3.139,3.139,0,0,1-2.517,1.12h0Zm-105.46,28.73h3.989a3.867,3.867,0,0,0,3.1-1.35,5.41,5.41,0,0,0,1.15-3.63,5.535,5.535,0,0,0-1.123-3.65,3.735,3.735,0,0,0-3.022-1.36h-4.1v9.99h0Zm1.35-8.83h2.585a2.539,2.539,0,0,1,2.157,1,4.645,4.645,0,0,1,.76,2.85,4.472,4.472,0,0,1-.79,2.83,2.685,2.685,0,0,1-2.243,1H176v-7.68Zm7.945,8.83h1.221v-7.27H183.94v7.27h0Zm-0.013-8.6h1.248v-1.39h-1.248v1.39Zm7.558,8.17a3.079,3.079,0,0,0,1.086-1.82h-1.208a1.573,1.573,0,0,1-.637,1,1.931,1.931,0,0,1-1.221.4,1.877,1.877,0,0,1-1.627-.7,3.123,3.123,0,0,1-.495-1.65h5.3l0.015-.44a4.256,4.256,0,0,0-.875-2.79,2.859,2.859,0,0,0-2.3-1.06,3.15,3.15,0,0,0-2.507,1.09,4.309,4.309,0,0,0-.933,2.92,3.878,3.878,0,0,0,.882,2.7,3.1,3.1,0,0,0,2.422.98h0A3.324,3.324,0,0,0,191.485,2052.54Zm-4.1-3.76a2.77,2.77,0,0,1,.549-1.48,1.874,1.874,0,0,1,1.541-.72,1.757,1.757,0,0,1,1.452.62,2.757,2.757,0,0,1,.5,1.58h-4.044Zm7.831,5.94a1.406,1.406,0,0,1-.519-0.9h-1.248a2.417,2.417,0,0,0,.875,1.65,3.093,3.093,0,0,0,1.961.58,3.288,3.288,0,0,0,2.524-.89,3.916,3.916,0,0,0,.827-2.72v-6.74h-1.146v1.05l-0.088-.13a2.385,2.385,0,0,0-2.077-1.14,2.767,2.767,0,0,0-2.218,1.01,3.952,3.952,0,0,0-.848,2.64,4.639,4.639,0,0,0,.861,2.95,2.8,2.8,0,0,0,2.321,1.09,2.383,2.383,0,0,0,1.967-.96l0.007-.01v0.24a2.964,2.964,0,0,1-.549,1.93,1.968,1.968,0,0,1-1.6.66h0A1.671,1.671,0,0,1,195.214,2054.72Zm2.768-7.35a4.356,4.356,0,0,1,.492,2.31,2.69,2.69,0,0,1-.543,1.76,1.742,1.742,0,0,1-1.431.67,1.681,1.681,0,0,1-1.456-.72,4.6,4.6,0,0,1-.04-4.14,1.731,1.731,0,0,1,1.5-.65A1.648,1.648,0,0,1,197.982,2047.37Zm5.751,5.8a3.089,3.089,0,0,0,2.449-1.06,4.635,4.635,0,0,0,0-5.57,3.348,3.348,0,0,0-4.888,0,4.623,4.623,0,0,0,0,5.57,3.084,3.084,0,0,0,2.439,1.06h0Zm0-1.05a1.8,1.8,0,0,1-1.53-.76,3.917,3.917,0,0,1,0-4.06,1.923,1.923,0,0,1,3.063,0,3.9,3.9,0,0,1,0,4.06,1.81,1.81,0,0,1-1.533.76h0Zm10.524,0.85h1.452l3.63-9.99h-1.5l-2.85,8.54h-0.008l-2.857-8.54h-1.5Zm10.761-.43a3.079,3.079,0,0,0,1.086-1.82H224.9a1.571,1.571,0,0,1-.638,1,1.93,1.93,0,0,1-1.22.4,1.879,1.879,0,0,1-1.628-.7,3.132,3.132,0,0,1-.5-1.65h5.3l0.014-.44a4.251,4.251,0,0,0-.875-2.79,2.856,2.856,0,0,0-2.3-1.06,3.153,3.153,0,0,0-2.507,1.09,4.309,4.309,0,0,0-.933,2.92,3.878,3.878,0,0,0,.882,2.7,3.106,3.106,0,0,0,2.423.98h0A3.328,3.328,0,0,0,225.018,2052.54Zm-4.1-3.76a2.779,2.779,0,0,1,.55-1.48,1.874,1.874,0,0,1,1.54-.72,1.76,1.76,0,0,1,1.453.62,2.764,2.764,0,0,1,.5,1.58h-4.045Zm6.248,4.19h1.221v-9.99h-1.221v9.99h0Zm6.656-.62a2.673,2.673,0,0,0,.312-0.33,1.631,1.631,0,0,0,.292.72,1.236,1.236,0,0,0,1,.38,2.473,2.473,0,0,0,.332-0.04,3.721,3.721,0,0,0,.373-0.11v-0.89a2.228,2.228,0,0,1-.227.04,1.468,1.468,0,0,1-.159.02,0.383,0.383,0,0,1-.414-0.41v-4a2.044,2.044,0,0,0-.692-1.67,3.1,3.1,0,0,0-2.015-.58,3.392,3.392,0,0,0-2.158.61,2.4,2.4,0,0,0-.841,1.79h1.126a1.535,1.535,0,0,1,.512-1.04,1.818,1.818,0,0,1,1.178-.35,2.014,2.014,0,0,1,1.228.33,1.07,1.07,0,0,1,.441.91v0.07a0.807,0.807,0,0,1-.129.46,0.619,0.619,0,0,1-.367.24,2.335,2.335,0,0,1-.386.07l-1.663.21a2.947,2.947,0,0,0-1.713.72,2.09,2.09,0,0,0-.587,1.56,1.975,1.975,0,0,0,.625,1.54,2.408,2.408,0,0,0,1.689.57h0a3.222,3.222,0,0,0,2.239-.82h0Zm0.271-1.82a1.5,1.5,0,0,1-.04.28,1.77,1.77,0,0,1-.6.82,2.551,2.551,0,0,1-1.629.53,1.154,1.154,0,0,1-1.275-1.27,0.92,0.92,0,0,1,.407-0.79,3.007,3.007,0,0,1,1.289-.41l1.119-.16a2.563,2.563,0,0,0,.754-0.23v0.79h0a4.189,4.189,0,0,1-.021.44h0Zm-1.262-5.81,1.791-1.95h-1.5l-1.235,1.95h0.943Zm3.536,7.78v0.47h6.092v-1.02H238l4.358-5.29v-0.96h-5.666v1.02h4.033l-4.358,5.3h0v0.48Zm11.548-.29,0.061-.08v3.72h1.221V2045.7h-1.147v1.18a1.79,1.79,0,0,0-.156-0.26,2.409,2.409,0,0,0-2.1-1.14,2.656,2.656,0,0,0-2.154,1.01,4.076,4.076,0,0,0-.825,2.65,4.624,4.624,0,0,0,.852,2.94,2.752,2.752,0,0,0,2.3,1.09h0a2.353,2.353,0,0,0,1.947-.96h0Zm-0.445-4.82a4.325,4.325,0,0,1,.506,2.29,2.726,2.726,0,0,1-.536,1.77,1.711,1.711,0,0,1-1.411.67,1.642,1.642,0,0,1-1.432-.72,3.64,3.64,0,0,1-.5-2.07,3.694,3.694,0,0,1,.465-2.09,1.7,1.7,0,0,1,1.475-.65A1.591,1.591,0,0,1,247.467,2047.39Zm4.2-1.69h-1.221v5a2.185,2.185,0,0,0,2.47,2.47,2.449,2.449,0,0,0,1.954-.93,3.436,3.436,0,0,0,.271-0.37v1.1h1.16v-7.27h-1.221v3.88a2.985,2.985,0,0,1-.516,1.85,1.652,1.652,0,0,1-1.4.69,1.448,1.448,0,0,1-1.147-.41,2,2,0,0,1-.353-1.32v-4.69h0Zm10.965,6.84a3.078,3.078,0,0,0,1.085-1.82h-1.207a1.575,1.575,0,0,1-.638,1,1.93,1.93,0,0,1-1.22.4,1.879,1.879,0,0,1-1.628-.7,3.132,3.132,0,0,1-.5-1.65h5.3l0.014-.44a4.251,4.251,0,0,0-.875-2.79,2.856,2.856,0,0,0-2.3-1.06,3.153,3.153,0,0,0-2.507,1.09,4.309,4.309,0,0,0-.933,2.92,3.878,3.878,0,0,0,.882,2.7,3.105,3.105,0,0,0,2.422.98h0A3.329,3.329,0,0,0,262.629,2052.54Zm-4.1-3.76a2.771,2.771,0,0,1,.55-1.48,1.872,1.872,0,0,1,1.54-.72,1.757,1.757,0,0,1,1.452.62,2.757,2.757,0,0,1,.5,1.58h-4.045Zm5.745,3.72v0.47h6.093v-1.02H265.9l4.358-5.29v-0.96H264.6v1.02h4.032l-4.358,5.3h0v0.48Zm-83.289,28.28v-1.2h-5.055v-8.79h-1.35v9.99h6.405Zm4.763-.63a2.467,2.467,0,0,0,.312-0.32,1.587,1.587,0,0,0,.292.71,1.237,1.237,0,0,0,1,.38,1.488,1.488,0,0,0,.332-0.04,2.193,2.193,0,0,0,.374-0.11v-0.88a2.294,2.294,0,0,1-.228.04,1.051,1.051,0,0,1-.159.01,0.387,0.387,0,0,1-.3-0.11,0.382,0.382,0,0,1-.112-0.29v-4a2.078,2.078,0,0,0-.692-1.68,3.1,3.1,0,0,0-2.015-.57,3.394,3.394,0,0,0-2.158.6,2.4,2.4,0,0,0-.841,1.8h1.126a1.531,1.531,0,0,1,.513-1.04,1.76,1.76,0,0,1,1.177-.35,2.014,2.014,0,0,1,1.228.33,1.07,1.07,0,0,1,.441.91v0.06a0.764,0.764,0,0,1-.129.46,0.591,0.591,0,0,1-.367.25c-0.122.03-.251,0.05-0.386,0.07l-1.663.21a2.827,2.827,0,0,0-1.713.72,2.067,2.067,0,0,0-.587,1.55,2.012,2.012,0,0,0,.625,1.55,2.408,2.408,0,0,0,1.689.57h0a3.23,3.23,0,0,0,2.239-.83h0Zm0.271-1.82a1.375,1.375,0,0,1-.04.28,1.746,1.746,0,0,1-.6.83,2.545,2.545,0,0,1-1.629.52,1.282,1.282,0,0,1-.943-0.33,1.263,1.263,0,0,1-.332-0.94,0.9,0.9,0,0,1,.407-0.78,3.007,3.007,0,0,1,1.289-.41l1.12-.17a2.557,2.557,0,0,0,.753-0.22v0.79h0a3.992,3.992,0,0,1-.021.43h0Zm8.053-2.72a2.221,2.221,0,0,0-.8-1.7,3.089,3.089,0,0,0-2.018-.62,3.018,3.018,0,0,0-1.977.6,2.008,2.008,0,0,0-.729,1.63,1.655,1.655,0,0,0,.435,1.22,2.945,2.945,0,0,0,1.459.69l1.262,0.3a3.617,3.617,0,0,1,1.119.39,0.669,0.669,0,0,1,.278.58,1.059,1.059,0,0,1-.424.91,2.073,2.073,0,0,1-1.245.31,2.327,2.327,0,0,1-1.4-.34,1.561,1.561,0,0,1-.547-1.13H188.31a2.553,2.553,0,0,0,.834,1.92,3.629,3.629,0,0,0,2.287.61,3.185,3.185,0,0,0,2.1-.64,2.085,2.085,0,0,0,.777-1.71,1.7,1.7,0,0,0-.45-1.26,3.217,3.217,0,0,0-1.513-.71l-1.262-.3a3.617,3.617,0,0,1-1.107-.39,0.677,0.677,0,0,1-.278-0.59,0.87,0.87,0,0,1,.4-0.77,2.059,2.059,0,0,1,1.157-.27,1.85,1.85,0,0,1,1.178.34,1.246,1.246,0,0,1,.492.93h1.147Zm5.817-3.26h0l2.82,8.43h1.3l2.811-8.45h0v8.45h1.309v-9.99H206.2l-2.827,8.5h0l-2.853-8.5h-1.941v9.99h1.31v-8.43Zm14.649,8a3.079,3.079,0,0,0,1.085-1.83h-1.208a1.591,1.591,0,0,1-.637,1.01,1.984,1.984,0,0,1-1.221.39,1.9,1.9,0,0,1-1.627-.69,3.141,3.141,0,0,1-.5-1.66h5.3l0.014-.43a4.256,4.256,0,0,0-.875-2.79,2.828,2.828,0,0,0-2.3-1.06,3.144,3.144,0,0,0-2.507,1.08,4.344,4.344,0,0,0-.933,2.92,3.905,3.905,0,0,0,.882,2.71,3.1,3.1,0,0,0,2.422.98h0A3.329,3.329,0,0,0,214.535,2080.35Zm-4.1-3.76a2.766,2.766,0,0,1,.55-1.49,1.872,1.872,0,0,1,1.54-.72,1.735,1.735,0,0,1,1.452.63,2.724,2.724,0,0,1,.5,1.58h-4.044Zm6.22,4.19h1.221v-3.89a2.911,2.911,0,0,1,.516-1.82,1.687,1.687,0,0,1,1.4-.67,1.525,1.525,0,0,1,1.2.43,2.076,2.076,0,0,1,.37,1.38v4.57h1.221v-4.98a2.269,2.269,0,0,0-2.5-2.51,2.5,2.5,0,0,0-1.987.93l-0.272.36v-1.07h-1.16v7.27h0Zm7.213,0h1.221v-7.27h-1.221v7.27h0Zm-0.014-8.6H225.1v-1.39h-1.248v1.39Zm2.5,8.6h1.221v-3.89a2.911,2.911,0,0,1,.516-1.82,1.689,1.689,0,0,1,1.4-.67,1.522,1.522,0,0,1,1.2.43,2.07,2.07,0,0,1,.37,1.38v4.57h1.221v-4.98a2.269,2.269,0,0,0-2.5-2.51,2.5,2.5,0,0,0-1.988.93l-0.272.36v-1.07h-1.16v7.27h0Zm11.324-.63a2.467,2.467,0,0,0,.312-0.32,1.587,1.587,0,0,0,.292.71,1.237,1.237,0,0,0,1,.38,1.49,1.49,0,0,0,.333-0.04,2.209,2.209,0,0,0,.373-0.11v-0.88a2.277,2.277,0,0,1-.227.04,1.07,1.07,0,0,1-.16.01,0.382,0.382,0,0,1-.414-0.4v-4a2.075,2.075,0,0,0-.692-1.68,3.1,3.1,0,0,0-2.015-.57,3.391,3.391,0,0,0-2.157.6,2.4,2.4,0,0,0-.842,1.8h1.127a1.526,1.526,0,0,1,.512-1.04,1.761,1.761,0,0,1,1.177-.35,2.012,2.012,0,0,1,1.228.33,1.07,1.07,0,0,1,.441.91v0.06a0.764,0.764,0,0,1-.129.46,0.591,0.591,0,0,1-.366.25c-0.122.03-.251,0.05-0.387,0.07l-1.662.21a2.824,2.824,0,0,0-1.713.72,2.063,2.063,0,0,0-.587,1.55,2.015,2.015,0,0,0,.624,1.55,2.408,2.408,0,0,0,1.689.57h0a3.228,3.228,0,0,0,2.239-.83h0Zm0.272-1.82a1.36,1.36,0,0,1-.041.28,1.746,1.746,0,0,1-.6.83,2.542,2.542,0,0,1-1.628.52,1.28,1.28,0,0,1-.943-0.33,1.26,1.26,0,0,1-.333-0.94,0.9,0.9,0,0,1,.407-0.78,3.013,3.013,0,0,1,1.29-.41l1.119-.17a2.539,2.539,0,0,0,.753-0.22v0.79h0a4.287,4.287,0,0,1-.02.43h0Zm8.052-2.72a2.218,2.218,0,0,0-.8-1.7,3.087,3.087,0,0,0-2.018-.62,3.018,3.018,0,0,0-1.977.6,2.008,2.008,0,0,0-.729,1.63,1.655,1.655,0,0,0,.435,1.22,2.949,2.949,0,0,0,1.459.69l1.262,0.3a3.637,3.637,0,0,1,1.12.39,0.671,0.671,0,0,1,.278.58,1.062,1.062,0,0,1-.424.91,2.076,2.076,0,0,1-1.246.31,2.331,2.331,0,0,1-1.4-.34,1.56,1.56,0,0,1-.546-1.13h-1.174a2.553,2.553,0,0,0,.834,1.92,3.633,3.633,0,0,0,2.287.61,3.185,3.185,0,0,0,2.1-.64,2.085,2.085,0,0,0,.777-1.71,1.707,1.707,0,0,0-.449-1.26,3.226,3.226,0,0,0-1.514-.71l-1.262-.3a3.6,3.6,0,0,1-1.106-.39,0.675,0.675,0,0,1-.278-0.59,0.868,0.868,0,0,1,.4-0.77,2.055,2.055,0,0,1,1.157-.27,1.847,1.847,0,0,1,1.177.34,1.246,1.246,0,0,1,.492.93H246Z"/>
  </g>
</svg>
