<svg id="Dada" xmlns="http://www.w3.org/2000/svg" width="3000" height="3000" viewBox="0 0 3000 3000">
  <defs>
    <style>
      .cls-1 {
        fill: #575861;
      }

      .cls-2 {
        fill: #e4e1da;
      }

      .cls-2, .cls-3 {
        fill-rule: evenodd;
      }

      .cls-3 {
        fill: #31323d;
      }
    </style>
  </defs>
  <g id="dada-placard-frida">
    <rect id="Rectangle_2_copy" data-name="Rectangle 2 copy" class="cls-1" x="155" y="1980" width="291" height="187"/>
    <path id="Rectangle_2_copy_2" data-name="Rectangle 2 copy 2" class="cls-2" d="M159.98,1984.99H441.02v177.02H159.98V1984.99Z"/>
    <path id="dada.nyc" class="cls-3" d="M187.636,2123.36l0.415-.6v2.64h3.012v-26.56h-3.246v10.03l-0.253-.36a6.475,6.475,0,0,0-5.628-3.02,7.169,7.169,0,0,0-5.79,2.67,10.673,10.673,0,0,0-2.218,7.03,12.281,12.281,0,0,0,2.29,7.83,7.434,7.434,0,0,0,6.169,2.9h0a6.337,6.337,0,0,0,5.249-2.56h0Zm-1.181-12.8a11.359,11.359,0,0,1,1.362,6.09,7.251,7.251,0,0,1-1.443,4.71,4.651,4.651,0,0,1-3.806,1.78,4.465,4.465,0,0,1-3.888-1.93,9.5,9.5,0,0,1-1.361-5.51q0-3.795,1.262-5.54a4.594,4.594,0,0,1,3.987-1.74A4.34,4.34,0,0,1,186.455,2110.56Zm17.2,13.18a7.322,7.322,0,0,0,.83-0.87,4.282,4.282,0,0,0,.776,1.9,3.271,3.271,0,0,0,2.669,1.01,4.679,4.679,0,0,0,.884-0.11,6.139,6.139,0,0,0,.992-0.29v-2.35a5.2,5.2,0,0,1-.6.11c-0.187.02-.328,0.04-0.424,0.04a1.081,1.081,0,0,1-.8-0.3,1.069,1.069,0,0,1-.3-0.79v-10.62a5.442,5.442,0,0,0-1.84-4.45,8.189,8.189,0,0,0-5.357-1.53,8.978,8.978,0,0,0-5.736,1.6,6.38,6.38,0,0,0-2.237,4.78H195.5a4.117,4.117,0,0,1,1.362-2.78,4.783,4.783,0,0,1,3.13-.93,5.384,5.384,0,0,1,3.265.88,2.854,2.854,0,0,1,1.172,2.43v0.16a2.063,2.063,0,0,1-.343,1.23,1.629,1.629,0,0,1-.974.65,5.555,5.555,0,0,1-1.028.18l-4.419.56a7.622,7.622,0,0,0-4.555,1.92,5.526,5.526,0,0,0-1.56,4.13,5.3,5.3,0,0,0,1.66,4.11,6.4,6.4,0,0,0,4.491,1.51h0a8.618,8.618,0,0,0,5.952-2.18h0Zm0.722-4.85a3.767,3.767,0,0,1-.108.75,4.742,4.742,0,0,1-1.606,2.2,6.767,6.767,0,0,1-4.329,1.39,3.386,3.386,0,0,1-2.507-.88,3.348,3.348,0,0,1-.884-2.5,2.413,2.413,0,0,1,1.082-2.08,7.89,7.89,0,0,1,3.428-1.1l2.976-.43a6.957,6.957,0,0,0,2-.6v2.1h0a11.1,11.1,0,0,1-.054,1.15h0Zm18.437,4.47,0.415-.6v2.64h3.012v-26.56H223v10.03l-0.252-.36a6.475,6.475,0,0,0-5.628-3.02,7.169,7.169,0,0,0-5.79,2.67,10.673,10.673,0,0,0-2.218,7.03,12.281,12.281,0,0,0,2.29,7.83,7.434,7.434,0,0,0,6.169,2.9h0a6.337,6.337,0,0,0,5.249-2.56h0Zm-1.181-12.8a11.36,11.36,0,0,1,1.361,6.09,7.245,7.245,0,0,1-1.443,4.71,4.648,4.648,0,0,1-3.8,1.78,4.465,4.465,0,0,1-3.888-1.93,9.5,9.5,0,0,1-1.361-5.51q0-3.795,1.262-5.54a4.594,4.594,0,0,1,3.987-1.74A4.34,4.34,0,0,1,221.634,2110.56Zm17.2,13.18a7.322,7.322,0,0,0,.83-0.87,4.282,4.282,0,0,0,.776,1.9,3.271,3.271,0,0,0,2.669,1.01,4.679,4.679,0,0,0,.884-0.11,6.139,6.139,0,0,0,.992-0.29v-2.35a5.2,5.2,0,0,1-.6.11c-0.187.02-.328,0.04-0.424,0.04a1.081,1.081,0,0,1-.8-0.3,1.069,1.069,0,0,1-.3-0.79v-10.62a5.442,5.442,0,0,0-1.84-4.45,8.189,8.189,0,0,0-5.357-1.53,8.978,8.978,0,0,0-5.736,1.6,6.38,6.38,0,0,0-2.237,4.78h2.994a4.117,4.117,0,0,1,1.362-2.78,4.783,4.783,0,0,1,3.13-.93,5.384,5.384,0,0,1,3.265.88,2.854,2.854,0,0,1,1.172,2.43v0.16a2.063,2.063,0,0,1-.343,1.23,1.629,1.629,0,0,1-.974.65,5.555,5.555,0,0,1-1.028.18l-4.419.56a7.622,7.622,0,0,0-4.555,1.92,5.526,5.526,0,0,0-1.56,4.13,5.3,5.3,0,0,0,1.66,4.11,6.4,6.4,0,0,0,4.491,1.51h0a8.618,8.618,0,0,0,5.952-2.18h0Zm0.722-4.85a3.767,3.767,0,0,1-.108.75,4.742,4.742,0,0,1-1.606,2.2,6.767,6.767,0,0,1-4.329,1.39,3.386,3.386,0,0,1-2.507-.88,3.348,3.348,0,0,1-.884-2.5,2.413,2.413,0,0,1,1.082-2.08,7.89,7.89,0,0,1,3.428-1.1l2.976-.43a6.957,6.957,0,0,0,2-.6v2.1h0a11.1,11.1,0,0,1-.054,1.15h0Zm6.641,6.51h3.86v-3.92H246.2v3.92Zm6.5,0h3.247v-10.35a7.706,7.706,0,0,1,1.371-4.82,4.457,4.457,0,0,1,3.715-1.78,4.028,4.028,0,0,1,3.184,1.13,5.56,5.56,0,0,1,.983,3.68v12.14h3.247v-13.24a6.731,6.731,0,0,0-11.941-4.2l-0.722.96v-2.85h-3.084v19.33h0Zm33.246-19.33h-3.556l-5.227,15.99h0l-5.153-15.99H268.3l7.162,19.65v0.01l-0.054.3a13.153,13.153,0,0,1-1.677,3.38,2.29,2.29,0,0,1-1.84.9,5.712,5.712,0,0,1-1.858-.28v3.01a4.862,4.862,0,0,0,1.569.2,5.308,5.308,0,0,0,3.977-1.37c0.884-.92,1.891-2.86,3.021-5.84l7.341-19.96h0Zm11.962,12.37a6.179,6.179,0,0,1-1.687,3.46,4.838,4.838,0,0,1-7.025-.64,9.712,9.712,0,0,1-1.3-5.55,9.285,9.285,0,0,1,1.4-5.44,4.46,4.46,0,0,1,3.851-1.98,4.723,4.723,0,0,1,3.319,1.14,4.791,4.791,0,0,1,1.443,3.21h3.12a7.218,7.218,0,0,0-2.218-5.24,7.851,7.851,0,0,0-5.556-1.91,7.956,7.956,0,0,0-6.376,2.77,11.089,11.089,0,0,0-2.372,7.45,11.312,11.312,0,0,0,2.291,7.45,7.561,7.561,0,0,0,6.132,2.76,7.844,7.844,0,0,0,5.52-1.91,8.965,8.965,0,0,0,2.579-5.57H297.9Z"/>
    <path id="Bea_Frida_Kahlo_Self_Portrait_Dedicated_to_Dr._Eloesser" data-name="Bea Frida Kahlo Self Portrait, Dedicated to Dr. Eloesser" class="cls-3" d="M174.55,2025.17h4.077a4.019,4.019,0,0,0,2.65-.79,2.659,2.659,0,0,0,.953-2.17,2.3,2.3,0,0,0-.977-1.98,3.093,3.093,0,0,0-.862-0.44,2.537,2.537,0,0,0,.455-0.28,2.318,2.318,0,0,0,.923-1.95,2.162,2.162,0,0,0-.781-1.73,3.123,3.123,0,0,0-2.055-.65H174.55v9.99h0Zm1.35-8.84h2.585a2.5,2.5,0,0,1,1.472.35,1.292,1.292,0,0,1,.468,1.1,1.477,1.477,0,0,1-.509,1.25,2.58,2.58,0,0,1-1.608.4H175.9v-3.1h0Zm0,4.2h2.653a3.157,3.157,0,0,1,1.77.39,1.39,1.39,0,0,1,.564,1.23,1.719,1.719,0,0,1-.54,1.41,2.628,2.628,0,0,1-1.7.45H175.9v-3.48h0Zm12.287,4.21a3.075,3.075,0,0,0,1.086-1.83h-1.208a1.621,1.621,0,0,1-.637,1.01,1.984,1.984,0,0,1-1.221.39,1.9,1.9,0,0,1-1.627-.69,3.141,3.141,0,0,1-.5-1.66h5.3l0.015-.43a4.238,4.238,0,0,0-.875-2.79,2.828,2.828,0,0,0-2.3-1.06,3.144,3.144,0,0,0-2.507,1.08,4.344,4.344,0,0,0-.933,2.92,3.922,3.922,0,0,0,.882,2.71,3.1,3.1,0,0,0,2.422.98h0A3.324,3.324,0,0,0,188.187,2024.74Zm-4.1-3.76a2.773,2.773,0,0,1,.549-1.49,1.874,1.874,0,0,1,1.541-.72,1.735,1.735,0,0,1,1.452.63,2.707,2.707,0,0,1,.5,1.58h-4.044Zm10.372,3.56a2.467,2.467,0,0,0,.312-0.32,1.638,1.638,0,0,0,.292.71,1.237,1.237,0,0,0,1,.38,1.488,1.488,0,0,0,.332-0.04,2.193,2.193,0,0,0,.374-0.11v-0.88a2.294,2.294,0,0,1-.228.04,1.051,1.051,0,0,1-.159.01,0.426,0.426,0,0,1-.3-0.11,0.39,0.39,0,0,1-.112-0.3v-3.99a2.065,2.065,0,0,0-.692-1.68,3.1,3.1,0,0,0-2.015-.57,3.394,3.394,0,0,0-2.158.6,2.4,2.4,0,0,0-.841,1.8h1.126a1.578,1.578,0,0,1,.513-1.05,1.815,1.815,0,0,1,1.177-.35,2.014,2.014,0,0,1,1.228.33,1.088,1.088,0,0,1,.441.92v0.06a0.764,0.764,0,0,1-.129.46,0.634,0.634,0,0,1-.366.25,2.37,2.37,0,0,1-.387.06l-1.662.22a2.83,2.83,0,0,0-1.714.72,2.066,2.066,0,0,0-.586,1.55,1.978,1.978,0,0,0,.624,1.54,2.413,2.413,0,0,0,1.689.58h0a3.23,3.23,0,0,0,2.239-.83h0Zm0.271-1.82a1.375,1.375,0,0,1-.04.28,1.794,1.794,0,0,1-.6.83,2.542,2.542,0,0,1-1.628.52,1.283,1.283,0,0,1-.944-0.33,1.263,1.263,0,0,1-.332-0.94,0.9,0.9,0,0,1,.407-0.78,2.881,2.881,0,0,1,1.289-.41l1.12-.17a2.539,2.539,0,0,0,.753-0.22v0.79h0a3.992,3.992,0,0,1-.021.43h0Zm-19.337,30.25h0.672v-4.54h4.864v-1.2h-4.864v-3.05h5.556v-1.2h-6.906v9.99h0.678Zm7.131,0h1.221v-3.89a2.46,2.46,0,0,1,.54-1.7,1.978,1.978,0,0,1,1.53-.59l0.251,0.01v-1.25a0.873,0.873,0,0,0-.346-0.07,2.046,2.046,0,0,0-1.7.94,3.4,3.4,0,0,0-.333.53v-1.25h-1.16v7.27h0Zm3.943,0h1.221v-7.27h-1.221v7.27h0Zm-0.014-8.6H187.7v-1.39h-1.248v1.39Zm7.247,7.84,0.156-.23v0.99h1.133v-9.99h-1.221v3.78l-0.095-.14a2.44,2.44,0,0,0-2.117-1.14,2.7,2.7,0,0,0-2.178,1.01,4,4,0,0,0-.835,2.64,4.639,4.639,0,0,0,.862,2.95,2.794,2.794,0,0,0,2.32,1.09h0a2.39,2.39,0,0,0,1.975-.96h0Zm-0.445-4.82a4.274,4.274,0,0,1,.513,2.29,2.7,2.7,0,0,1-.543,1.77,1.743,1.743,0,0,1-1.432.67,1.687,1.687,0,0,1-1.462-.72,4.631,4.631,0,0,1-.037-4.16,1.714,1.714,0,0,1,1.5-.65A1.623,1.623,0,0,1,193.253,2047.39Zm7.026,4.96a2.53,2.53,0,0,0,.312-0.33,1.643,1.643,0,0,0,.292.72,1.237,1.237,0,0,0,1,.38,2.466,2.466,0,0,0,.333-0.04,3.8,3.8,0,0,0,.373-0.11v-0.89a2.228,2.228,0,0,1-.227.04,1.48,1.48,0,0,1-.16.02,0.383,0.383,0,0,1-.414-0.41v-4a2.041,2.041,0,0,0-.692-1.67,3.1,3.1,0,0,0-2.015-.58,3.391,3.391,0,0,0-2.157.61,2.4,2.4,0,0,0-.842,1.79h1.127a1.526,1.526,0,0,1,.512-1.04,1.817,1.817,0,0,1,1.177-.35,2.012,2.012,0,0,1,1.228.33,1.07,1.07,0,0,1,.441.91v0.07a0.807,0.807,0,0,1-.129.46,0.62,0.62,0,0,1-.366.24,2.329,2.329,0,0,1-.387.07l-1.662.21a2.947,2.947,0,0,0-1.713.72,2.086,2.086,0,0,0-.587,1.56,1.978,1.978,0,0,0,.624,1.54,2.408,2.408,0,0,0,1.689.57h0a3.22,3.22,0,0,0,2.239-.82h0Zm0.272-1.82a1.484,1.484,0,0,1-.041.28,1.763,1.763,0,0,1-.6.82,2.548,2.548,0,0,1-1.628.53,1.155,1.155,0,0,1-1.276-1.27,0.92,0.92,0,0,1,.407-0.79,3.018,3.018,0,0,1,1.29-.41l1.119-.16a2.547,2.547,0,0,0,.753-0.23v0.79h0c0,0.16-.007.31-0.02,0.44h0Zm6.209,2.44h1.35v-3.48l1.506-1.46,3.543,4.94h1.756l-4.308-5.91,4.227-4.08h-1.866l-4.858,4.85v-4.85h-1.35v9.99h0Zm12.708-.62a2.53,2.53,0,0,0,.312-0.33,1.631,1.631,0,0,0,.292.72,1.237,1.237,0,0,0,1,.38,2.485,2.485,0,0,0,.333-0.04,3.8,3.8,0,0,0,.373-0.11v-0.89a2.294,2.294,0,0,1-.228.04,1.468,1.468,0,0,1-.159.02,0.426,0.426,0,0,1-.3-0.11,0.421,0.421,0,0,1-.112-0.3v-4a2.044,2.044,0,0,0-.692-1.67,3.1,3.1,0,0,0-2.015-.58,3.4,3.4,0,0,0-2.158.61,2.4,2.4,0,0,0-.841,1.79H216.4a1.531,1.531,0,0,1,.513-1.04,1.815,1.815,0,0,1,1.177-.35,2.014,2.014,0,0,1,1.228.33,1.07,1.07,0,0,1,.441.91v0.07a0.807,0.807,0,0,1-.129.46,0.62,0.62,0,0,1-.366.24,2.347,2.347,0,0,1-.387.07l-1.662.21a2.953,2.953,0,0,0-1.714.72,2.09,2.09,0,0,0-.586,1.56,1.978,1.978,0,0,0,.624,1.54,2.408,2.408,0,0,0,1.689.57h0a3.22,3.22,0,0,0,2.239-.82h0Zm0.272-1.82a1.572,1.572,0,0,1-.041.28,1.77,1.77,0,0,1-.6.82,2.548,2.548,0,0,1-1.628.53,1.155,1.155,0,0,1-1.276-1.27,0.92,0.92,0,0,1,.407-0.79,3.012,3.012,0,0,1,1.289-.41l1.12-.16a2.547,2.547,0,0,0,.753-0.23v0.79h0c0,0.16-.007.31-0.02,0.44h0Zm2.748,2.44h1.221v-3.89a2.779,2.779,0,0,1,.543-1.81,1.777,1.777,0,0,1,1.465-.67,1.407,1.407,0,0,1,1.127.4,1.964,1.964,0,0,1,.346,1.3v4.67h1.221v-4.98a2.526,2.526,0,0,0-4.492-1.57l-0.21.27v-3.71h-1.221v9.99h0Zm7.2,0h1.221v-9.99h-1.221v9.99h0Zm5.462,0.2a3.088,3.088,0,0,0,2.449-1.06,4.635,4.635,0,0,0,0-5.57,3.348,3.348,0,0,0-4.888,0,4.623,4.623,0,0,0,0,5.57,3.084,3.084,0,0,0,2.439,1.06h0Zm0-1.05a1.8,1.8,0,0,1-1.53-.76,3.923,3.923,0,0,1,0-4.06,1.924,1.924,0,0,1,3.064,0,3.906,3.906,0,0,1,0,4.06,1.811,1.811,0,0,1-1.534.76h0Zm-53.255,21.56a3.078,3.078,0,0,0-1.064-2.32,4.024,4.024,0,0,0-2.679-.84,3.886,3.886,0,0,0-2.628.84,2.835,2.835,0,0,0-.973,2.27,2.063,2.063,0,0,0,.561,1.54,4.007,4.007,0,0,0,1.881.87l1.739,0.42a4.8,4.8,0,0,1,1.7.64,1.3,1.3,0,0,1,.425,1.07,1.426,1.426,0,0,1-.645,1.26,3.48,3.48,0,0,1-1.888.42,3.287,3.287,0,0,1-2.1-.59,2.091,2.091,0,0,1-.788-1.68h-1.241v0.08a3.047,3.047,0,0,0,1.072,2.47,4.64,4.64,0,0,0,3.055.92,4.444,4.444,0,0,0,2.786-.79,2.911,2.911,0,0,0,.429-3.99,3.909,3.909,0,0,0-2-.98l-1.737-.42a4.822,4.822,0,0,1-1.581-.56,1,1,0,0,1-.394-0.86,1.5,1.5,0,0,1,.59-1.29,2.82,2.82,0,0,1,1.73-.45,2.734,2.734,0,0,1,1.761.52,1.977,1.977,0,0,1,.743,1.45h1.241Zm6.293,6.67a3.075,3.075,0,0,0,1.086-1.83h-1.208a1.6,1.6,0,0,1-.637,1.01,1.984,1.984,0,0,1-1.221.39,1.9,1.9,0,0,1-1.627-.69,3.141,3.141,0,0,1-.5-1.66h5.3l0.015-.43a4.256,4.256,0,0,0-.875-2.79,2.828,2.828,0,0,0-2.3-1.06,3.144,3.144,0,0,0-2.507,1.08,4.344,4.344,0,0,0-.933,2.92,3.905,3.905,0,0,0,.882,2.71,3.1,3.1,0,0,0,2.422.98h0A3.324,3.324,0,0,0,188.187,2080.35Zm-4.1-3.76a2.773,2.773,0,0,1,.549-1.49,1.874,1.874,0,0,1,1.541-.72,1.735,1.735,0,0,1,1.452.63,2.732,2.732,0,0,1,.5,1.58h-4.044Zm6.247,4.19h1.221v-9.99h-1.221v9.99h0Zm5.238-6.26v-1.01h-1.214v-0.89a0.957,0.957,0,0,1,.19-0.64,0.644,0.644,0,0,1,.543-0.23l0.481,0.02v-1.1l-0.536-.02a2.147,2.147,0,0,0-1.424.4,1.532,1.532,0,0,0-.475,1.22v1.24h-1v1.01h1v6.26h1.221v-6.26h1.214Zm4.167,6.26h1.35v-4.2c0.738-.01,1.742-0.02,3.013-0.01a3.083,3.083,0,0,0,2.269-.81,2.954,2.954,0,0,0,.818-2.22,2.574,2.574,0,0,0-.818-2.02,3.27,3.27,0,0,0-2.269-.73h-4.363v9.99h0Zm1.35-8.84h2.68a2.4,2.4,0,0,1,1.54.4,1.479,1.479,0,0,1,.489,1.23,1.821,1.821,0,0,1-.489,1.4,2.273,2.273,0,0,1-1.54.44h-2.68v-3.47Zm10.029,9.04a3.121,3.121,0,0,0,2.449-1.06,4.639,4.639,0,0,0,0-5.57,3.348,3.348,0,0,0-4.888,0,4.623,4.623,0,0,0,0,5.57,3.113,3.113,0,0,0,2.439,1.06h0Zm0-1.06a1.816,1.816,0,0,1-1.53-.75,3.935,3.935,0,0,1,0-4.07,1.923,1.923,0,0,1,3.063,0,3.918,3.918,0,0,1,0,4.07,1.826,1.826,0,0,1-1.533.75h0Zm4.383,0.86h1.221v-3.89a2.443,2.443,0,0,1,.54-1.7,1.949,1.949,0,0,1,1.53-.6l0.251,0.01v-1.25a1.073,1.073,0,0,0-.346-0.06,2.06,2.06,0,0,0-1.7.93,4.7,4.7,0,0,0-.333.53v-1.24H215.5v7.27h0Zm6.568-.95h-0.434a0.825,0.825,0,0,1-.519-0.15,0.44,0.44,0,0,1-.193-0.38v-4.79h1.146v-1h-1.146v-2.04H219.7v2.04h-1v1h1v4.79a1.758,1.758,0,0,0,.329,1.21,1.481,1.481,0,0,0,1.13.36,6,6,0,0,0,.909-0.1h0v-0.94Zm0.808,0.95H224.1v-3.89a2.443,2.443,0,0,1,.54-1.7,1.949,1.949,0,0,1,1.53-.6l0.251,0.01v-1.25a1.073,1.073,0,0,0-.346-0.06,2.06,2.06,0,0,0-1.7.93,4.7,4.7,0,0,0-.333.53v-1.24h-1.16v7.27h0Zm8.054-.63a2.467,2.467,0,0,0,.312-0.32,1.587,1.587,0,0,0,.292.71,1.237,1.237,0,0,0,1,.38,1.5,1.5,0,0,0,.333-0.04,2.209,2.209,0,0,0,.373-0.11v-0.88a2.294,2.294,0,0,1-.228.04,1.051,1.051,0,0,1-.159.01,0.387,0.387,0,0,1-.3-0.11,0.382,0.382,0,0,1-.112-0.29v-4a2.078,2.078,0,0,0-.692-1.68,3.1,3.1,0,0,0-2.015-.57,3.4,3.4,0,0,0-2.158.6,2.4,2.4,0,0,0-.841,1.8h1.126a1.531,1.531,0,0,1,.513-1.04,1.76,1.76,0,0,1,1.177-.35,2.014,2.014,0,0,1,1.228.33,1.07,1.07,0,0,1,.441.91v0.06a0.764,0.764,0,0,1-.129.46,0.591,0.591,0,0,1-.366.25c-0.123.03-.251,0.05-0.387,0.07l-1.662.21a2.83,2.83,0,0,0-1.714.72,2.066,2.066,0,0,0-.586,1.55,2.015,2.015,0,0,0,.624,1.55,2.408,2.408,0,0,0,1.689.57h0a3.23,3.23,0,0,0,2.239-.83h0Zm0.272-1.82a1.434,1.434,0,0,1-.041.28,1.746,1.746,0,0,1-.6.83,2.542,2.542,0,0,1-1.628.52,1.28,1.28,0,0,1-.943-0.33,1.26,1.26,0,0,1-.333-0.94,0.9,0.9,0,0,1,.407-0.78,3.012,3.012,0,0,1,1.289-.41l1.12-.17a2.539,2.539,0,0,0,.753-0.22v0.79h0a4.287,4.287,0,0,1-.02.43h0Zm2.789,2.45h1.221v-7.27H233.99v7.27h0Zm-0.014-8.6h1.248v-1.39h-1.248v1.39Zm5.17,7.65h-0.434a0.825,0.825,0,0,1-.519-0.15,0.44,0.44,0,0,1-.193-0.38v-4.79h1.146v-1H238v-2.04h-1.221v2.04h-1v1h1v4.79a1.752,1.752,0,0,0,.329,1.21,1.478,1.478,0,0,0,1.129.36,6,6,0,0,0,.909-0.1h0v-0.94Zm0.944,0.95h0.746a2.809,2.809,0,0,1-.156.93,0.736,0.736,0,0,1-.59.48v0.64a1.709,1.709,0,0,0,1.113-.72,2.989,2.989,0,0,0,.332-1.58v-1.23H240.09v0.74h0v0.74Zm6.528,0h3.989a3.866,3.866,0,0,0,3.1-1.35,5.438,5.438,0,0,0,1.15-3.64,5.559,5.559,0,0,0-1.122-3.65,3.73,3.73,0,0,0-3.023-1.35h-4.1v9.99h0Zm1.35-8.84h2.585a2.55,2.55,0,0,1,2.158,1.01,4.619,4.619,0,0,1,.76,2.84,4.453,4.453,0,0,1-.791,2.83,2.683,2.683,0,0,1-2.242,1h-2.47v-7.68Zm12.959,8.41a3.075,3.075,0,0,0,1.086-1.83h-1.208a1.591,1.591,0,0,1-.637,1.01,1.984,1.984,0,0,1-1.221.39,1.9,1.9,0,0,1-1.627-.69,3.141,3.141,0,0,1-.5-1.66h5.3l0.014-.43a4.256,4.256,0,0,0-.875-2.79,2.828,2.828,0,0,0-2.3-1.06,3.144,3.144,0,0,0-2.507,1.08,4.344,4.344,0,0,0-.933,2.92,3.905,3.905,0,0,0,.882,2.71,3.1,3.1,0,0,0,2.422.98h0A3.324,3.324,0,0,0,260.927,2080.35Zm-4.1-3.76a2.766,2.766,0,0,1,.55-1.49,1.871,1.871,0,0,1,1.54-.72,1.735,1.735,0,0,1,1.452.63,2.724,2.724,0,0,1,.5,1.58h-4.044Zm10.962,3.42,0.156-.22v0.99h1.133v-9.99h-1.221v3.77l-0.1-.14a2.452,2.452,0,0,0-2.117-1.13,2.7,2.7,0,0,0-2.178,1.01,4,4,0,0,0-.834,2.64,4.633,4.633,0,0,0,.862,2.95,2.82,2.82,0,0,0,2.32,1.09h0a2.4,2.4,0,0,0,1.974-.97h0Zm-0.444-4.81a4.26,4.26,0,0,1,.512,2.29,2.738,2.738,0,0,1-.543,1.77,1.742,1.742,0,0,1-1.431.67,1.671,1.671,0,0,1-1.462-.73,3.539,3.539,0,0,1-.512-2.07,3.58,3.58,0,0,1,.474-2.08,1.723,1.723,0,0,1,1.5-.66A1.633,1.633,0,0,1,267.343,2075.2Zm2.915,5.58h1.221v-7.27h-1.221v7.27h0Zm-0.014-8.6h1.248v-1.39h-1.248v1.39Zm7.057,5.98a2.323,2.323,0,0,1-.635,1.3,1.817,1.817,0,0,1-2.642-.24,3.621,3.621,0,0,1-.489-2.08,3.486,3.486,0,0,1,.526-2.05,1.673,1.673,0,0,1,1.448-.75,1.665,1.665,0,0,1,1.792,1.64h1.173a2.707,2.707,0,0,0-.834-1.97,2.961,2.961,0,0,0-2.09-.72,3.007,3.007,0,0,0-2.4,1.04,4.182,4.182,0,0,0-.892,2.81,4.274,4.274,0,0,0,.861,2.8,2.854,2.854,0,0,0,2.307,1.04,2.94,2.94,0,0,0,2.076-.72,3.374,3.374,0,0,0,.97-2.1H277.3Zm5.991,1.99a2.467,2.467,0,0,0,.312-0.32,1.587,1.587,0,0,0,.292.71,1.237,1.237,0,0,0,1,.38,1.488,1.488,0,0,0,.332-0.04,2.193,2.193,0,0,0,.374-0.11v-0.88a2.294,2.294,0,0,1-.228.04,1.051,1.051,0,0,1-.159.01,0.387,0.387,0,0,1-.3-0.11,0.382,0.382,0,0,1-.112-0.29v-4a2.078,2.078,0,0,0-.692-1.68,3.1,3.1,0,0,0-2.015-.57,3.394,3.394,0,0,0-2.158.6,2.4,2.4,0,0,0-.841,1.8h1.126a1.531,1.531,0,0,1,.513-1.04,1.76,1.76,0,0,1,1.177-.35,2.014,2.014,0,0,1,1.228.33,1.07,1.07,0,0,1,.441.91v0.06a0.764,0.764,0,0,1-.129.46,0.591,0.591,0,0,1-.367.25c-0.122.03-.251,0.05-0.386,0.07l-1.663.21a2.83,2.83,0,0,0-1.713.72,2.067,2.067,0,0,0-.587,1.55,2.012,2.012,0,0,0,.625,1.55,2.408,2.408,0,0,0,1.689.57h0a3.23,3.23,0,0,0,2.239-.83h0Zm0.271-1.82a1.375,1.375,0,0,1-.04.28,1.746,1.746,0,0,1-.6.83,2.542,2.542,0,0,1-1.628.52,1.283,1.283,0,0,1-.944-0.33,1.263,1.263,0,0,1-.332-0.94,0.9,0.9,0,0,1,.407-0.78,3.007,3.007,0,0,1,1.289-.41l1.12-.17a2.548,2.548,0,0,0,.753-0.22v0.79h0a3.992,3.992,0,0,1-.021.43h0Zm5.415,1.5h-0.434a0.825,0.825,0,0,1-.519-0.15,0.44,0.44,0,0,1-.193-0.38v-4.79h1.146v-1h-1.146v-2.04H286.61v2.04h-1v1h1v4.79a1.758,1.758,0,0,0,.329,1.21,1.481,1.481,0,0,0,1.13.36,6,6,0,0,0,.909-0.1h0v-0.94Zm5.693,0.52a3.075,3.075,0,0,0,1.086-1.83h-1.208a1.592,1.592,0,0,1-.638,1.01,1.983,1.983,0,0,1-1.22.39,1.9,1.9,0,0,1-1.628-.69,3.141,3.141,0,0,1-.5-1.66h5.3l0.014-.43a4.251,4.251,0,0,0-.875-2.79,2.827,2.827,0,0,0-2.3-1.06,3.145,3.145,0,0,0-2.507,1.08,4.344,4.344,0,0,0-.933,2.92,3.905,3.905,0,0,0,.882,2.71,3.106,3.106,0,0,0,2.423.98h0A3.328,3.328,0,0,0,294.671,2080.35Zm-4.1-3.76a2.782,2.782,0,0,1,.55-1.49,1.874,1.874,0,0,1,1.54-.72,1.738,1.738,0,0,1,1.453.63,2.739,2.739,0,0,1,.5,1.58h-4.045Zm10.963,3.42,0.156-.22v0.99h1.133v-9.99H301.6v3.77l-0.095-.14a2.452,2.452,0,0,0-2.117-1.13,2.7,2.7,0,0,0-2.178,1.01,4,4,0,0,0-.834,2.64,4.639,4.639,0,0,0,.861,2.95,2.823,2.823,0,0,0,2.321,1.09h0a2.4,2.4,0,0,0,1.974-.97h0Zm-0.445-4.81a4.25,4.25,0,0,1,.513,2.29,2.738,2.738,0,0,1-.543,1.77,1.743,1.743,0,0,1-1.432.67,1.672,1.672,0,0,1-1.462-.73,4.609,4.609,0,0,1-.037-4.15,1.721,1.721,0,0,1,1.5-.66A1.631,1.631,0,0,1,301.086,2075.2Zm8.845,4.63H309.5a0.825,0.825,0,0,1-.519-0.15,0.44,0.44,0,0,1-.193-0.38v-4.79h1.146v-1h-1.146v-2.04h-1.221v2.04h-1v1h1v4.79a1.752,1.752,0,0,0,.329,1.21,1.477,1.477,0,0,0,1.129.36,6,6,0,0,0,.909-0.1h0v-0.94Zm3.6,1.15a3.121,3.121,0,0,0,2.449-1.06,4.635,4.635,0,0,0,0-5.57,3.348,3.348,0,0,0-4.888,0,4.623,4.623,0,0,0,0,5.57,3.116,3.116,0,0,0,2.439,1.06h0Zm0-1.06a1.818,1.818,0,0,1-1.53-.75,3.935,3.935,0,0,1,0-4.07,1.923,1.923,0,0,1,3.063,0,3.918,3.918,0,0,1,0,4.07,1.826,1.826,0,0,1-1.533.75h0Zm7.742,0.86h3.99a3.869,3.869,0,0,0,3.1-1.35,5.443,5.443,0,0,0,1.15-3.64,5.559,5.559,0,0,0-1.123-3.65,3.729,3.729,0,0,0-3.023-1.35h-4.1v9.99h0Zm1.35-8.84h2.585a2.55,2.55,0,0,1,2.158,1.01,4.619,4.619,0,0,1,.76,2.84,4.453,4.453,0,0,1-.791,2.83,2.683,2.683,0,0,1-2.242,1h-2.47v-7.68Zm8.075,8.84h1.221v-3.89a2.448,2.448,0,0,1,.539-1.7,1.952,1.952,0,0,1,1.53-.6l0.251,0.01v-1.25a1.068,1.068,0,0,0-.346-0.06,2.061,2.061,0,0,0-1.7.93,4.842,4.842,0,0,0-.332.53v-1.24H330.7v7.27h0Zm4.207,0h1.452v-1.48H334.9v1.48Zm13.964,0v-1.2h-6.018v-3.35h5.428v-1.19h-5.428v-3.05h5.943v-1.2H341.5v9.99h7.368Zm1.079,0h1.221v-9.99h-1.221v9.99h0Zm5.462,0.2a3.123,3.123,0,0,0,2.45-1.06,4.639,4.639,0,0,0,0-5.57,3.349,3.349,0,0,0-4.889,0,4.623,4.623,0,0,0,0,5.57,3.116,3.116,0,0,0,2.439,1.06h0Zm0-1.06a1.818,1.818,0,0,1-1.53-.75,3.941,3.941,0,0,1,0-4.07,1.924,1.924,0,0,1,3.064,0,3.918,3.918,0,0,1,0,4.07,1.827,1.827,0,0,1-1.534.75h0Zm9.269,0.43a3.074,3.074,0,0,0,1.085-1.83h-1.207a1.6,1.6,0,0,1-.638,1.01,1.983,1.983,0,0,1-1.22.39,1.9,1.9,0,0,1-1.628-.69,3.141,3.141,0,0,1-.5-1.66h5.3l0.014-.43a4.256,4.256,0,0,0-.875-2.79,2.828,2.828,0,0,0-2.3-1.06,3.145,3.145,0,0,0-2.507,1.08,4.344,4.344,0,0,0-.933,2.92,3.905,3.905,0,0,0,.882,2.71,3.1,3.1,0,0,0,2.422.98h0A3.329,3.329,0,0,0,364.676,2080.35Zm-4.1-3.76a2.774,2.774,0,0,1,.55-1.49,1.872,1.872,0,0,1,1.54-.72,1.735,1.735,0,0,1,1.452.63,2.724,2.724,0,0,1,.5,1.58h-4.044Zm11.524-.98a2.218,2.218,0,0,0-.8-1.7,3.087,3.087,0,0,0-2.018-.62,3.018,3.018,0,0,0-1.977.6,2.008,2.008,0,0,0-.729,1.63,1.655,1.655,0,0,0,.435,1.22,2.949,2.949,0,0,0,1.459.69l1.262,0.3a3.637,3.637,0,0,1,1.12.39,0.671,0.671,0,0,1,.278.58,1.062,1.062,0,0,1-.424.91,2.076,2.076,0,0,1-1.246.31,2.331,2.331,0,0,1-1.4-.34,1.56,1.56,0,0,1-.546-1.13h-1.174a2.55,2.55,0,0,0,.835,1.92,3.628,3.628,0,0,0,2.286.61,3.185,3.185,0,0,0,2.1-.64,2.085,2.085,0,0,0,.777-1.71,1.707,1.707,0,0,0-.449-1.26,3.226,3.226,0,0,0-1.514-.71l-1.262-.3a3.6,3.6,0,0,1-1.106-.39,0.675,0.675,0,0,1-.278-0.59,0.868,0.868,0,0,1,.4-0.77,2.055,2.055,0,0,1,1.157-.27,1.847,1.847,0,0,1,1.177.34,1.25,1.25,0,0,1,.493.93H372.1Zm6.392,0a2.218,2.218,0,0,0-.8-1.7,3.087,3.087,0,0,0-2.018-.62,3.018,3.018,0,0,0-1.977.6,2.008,2.008,0,0,0-.729,1.63,1.655,1.655,0,0,0,.435,1.22,2.945,2.945,0,0,0,1.459.69l1.262,0.3a3.637,3.637,0,0,1,1.12.39,0.671,0.671,0,0,1,.278.58,1.06,1.06,0,0,1-.425.91,2.073,2.073,0,0,1-1.245.31,2.329,2.329,0,0,1-1.4-.34,1.561,1.561,0,0,1-.547-1.13H372.73a2.553,2.553,0,0,0,.834,1.92,3.631,3.631,0,0,0,2.287.61,3.185,3.185,0,0,0,2.1-.64,2.085,2.085,0,0,0,.777-1.71,1.7,1.7,0,0,0-.45-1.26,3.217,3.217,0,0,0-1.513-.71l-1.262-.3a3.6,3.6,0,0,1-1.106-.39,0.676,0.676,0,0,1-.279-0.59,0.87,0.87,0,0,1,.4-0.77,2.06,2.06,0,0,1,1.158-.27,1.849,1.849,0,0,1,1.177.34,1.246,1.246,0,0,1,.492.93h1.147Zm6.142,4.74a3.075,3.075,0,0,0,1.086-1.83h-1.208a1.6,1.6,0,0,1-.637,1.01,1.986,1.986,0,0,1-1.221.39,1.9,1.9,0,0,1-1.627-.69,3.123,3.123,0,0,1-.5-1.66h5.3l0.015-.43a4.251,4.251,0,0,0-.876-2.79,2.827,2.827,0,0,0-2.3-1.06,3.145,3.145,0,0,0-2.507,1.08,4.344,4.344,0,0,0-.932,2.92,3.905,3.905,0,0,0,.882,2.71,3.1,3.1,0,0,0,2.422.98h0A3.326,3.326,0,0,0,384.631,2080.35Zm-4.1-3.76a2.773,2.773,0,0,1,.549-1.49,1.874,1.874,0,0,1,1.541-.72,1.738,1.738,0,0,1,1.452.63,2.732,2.732,0,0,1,.5,1.58h-4.044Zm6.389,4.19h1.221v-3.89a2.443,2.443,0,0,1,.54-1.7,1.949,1.949,0,0,1,1.53-.6l0.251,0.01v-1.25a1.073,1.073,0,0,0-.346-0.06,2.06,2.06,0,0,0-1.7.93,4.7,4.7,0,0,0-.333.53v-1.24h-1.16v7.27h0Z"/>
  </g>
</svg>
