<svg id="Dada" xmlns="http://www.w3.org/2000/svg" width="3000" height="3000" viewBox="0 0 3000 3000">
  <defs>
    <style>
      .cls-1 {
        fill: #575861;
      }

      .cls-2 {
        fill: #e4e1da;
      }

      .cls-2, .cls-3 {
        fill-rule: evenodd;
      }

      .cls-3 {
        fill: #31323d;
      }
    </style>
  </defs>
  <g id="dada-placard-moulinrogue">
    <rect id="Rectangle_2_copy" data-name="Rectangle 2 copy" class="cls-1" x="155" y="1980" width="291" height="187"/>
    <path id="Rectangle_2_copy_2" data-name="Rectangle 2 copy 2" class="cls-2" d="M159.98,1984.99H441.02v177.02H159.98V1984.99Z"/>
    <path id="dada.nyc" class="cls-3" d="M187.636,2123.36l0.415-.6v2.64h3.012v-26.56h-3.246v10.03l-0.253-.36a6.475,6.475,0,0,0-5.628-3.02,7.169,7.169,0,0,0-5.79,2.67,10.673,10.673,0,0,0-2.218,7.03,12.281,12.281,0,0,0,2.29,7.83,7.434,7.434,0,0,0,6.169,2.9h0a6.337,6.337,0,0,0,5.249-2.56h0Zm-1.181-12.8a11.359,11.359,0,0,1,1.362,6.09,7.251,7.251,0,0,1-1.443,4.71,4.651,4.651,0,0,1-3.806,1.78,4.465,4.465,0,0,1-3.888-1.93,9.5,9.5,0,0,1-1.361-5.51q0-3.795,1.262-5.54a4.594,4.594,0,0,1,3.987-1.74A4.34,4.34,0,0,1,186.455,2110.56Zm17.2,13.18a7.322,7.322,0,0,0,.83-0.87,4.282,4.282,0,0,0,.776,1.9,3.271,3.271,0,0,0,2.669,1.01,4.679,4.679,0,0,0,.884-0.11,6.139,6.139,0,0,0,.992-0.29v-2.35a5.2,5.2,0,0,1-.6.11c-0.187.02-.328,0.04-0.424,0.04a1.081,1.081,0,0,1-.8-0.3,1.069,1.069,0,0,1-.3-0.79v-10.62a5.442,5.442,0,0,0-1.84-4.45,8.189,8.189,0,0,0-5.357-1.53,8.978,8.978,0,0,0-5.736,1.6,6.38,6.38,0,0,0-2.237,4.78H195.5a4.117,4.117,0,0,1,1.362-2.78,4.783,4.783,0,0,1,3.13-.93,5.384,5.384,0,0,1,3.265.88,2.854,2.854,0,0,1,1.172,2.43v0.16a2.063,2.063,0,0,1-.343,1.23,1.629,1.629,0,0,1-.974.65,5.555,5.555,0,0,1-1.028.18l-4.419.56a7.622,7.622,0,0,0-4.555,1.92,5.526,5.526,0,0,0-1.56,4.13,5.3,5.3,0,0,0,1.66,4.11,6.4,6.4,0,0,0,4.491,1.51h0a8.618,8.618,0,0,0,5.952-2.18h0Zm0.722-4.85a3.767,3.767,0,0,1-.108.75,4.742,4.742,0,0,1-1.606,2.2,6.767,6.767,0,0,1-4.329,1.39,3.386,3.386,0,0,1-2.507-.88,3.348,3.348,0,0,1-.884-2.5,2.413,2.413,0,0,1,1.082-2.08,7.89,7.89,0,0,1,3.428-1.1l2.976-.43a6.957,6.957,0,0,0,2-.6v2.1h0a11.1,11.1,0,0,1-.054,1.15h0Zm18.437,4.47,0.415-.6v2.64h3.012v-26.56H223v10.03l-0.252-.36a6.475,6.475,0,0,0-5.628-3.02,7.169,7.169,0,0,0-5.79,2.67,10.673,10.673,0,0,0-2.218,7.03,12.281,12.281,0,0,0,2.29,7.83,7.434,7.434,0,0,0,6.169,2.9h0a6.337,6.337,0,0,0,5.249-2.56h0Zm-1.181-12.8a11.36,11.36,0,0,1,1.361,6.09,7.245,7.245,0,0,1-1.443,4.71,4.648,4.648,0,0,1-3.8,1.78,4.465,4.465,0,0,1-3.888-1.93,9.5,9.5,0,0,1-1.361-5.51q0-3.795,1.262-5.54a4.594,4.594,0,0,1,3.987-1.74A4.34,4.34,0,0,1,221.634,2110.56Zm17.2,13.18a7.322,7.322,0,0,0,.83-0.87,4.282,4.282,0,0,0,.776,1.9,3.271,3.271,0,0,0,2.669,1.01,4.679,4.679,0,0,0,.884-0.11,6.139,6.139,0,0,0,.992-0.29v-2.35a5.2,5.2,0,0,1-.6.11c-0.187.02-.328,0.04-0.424,0.04a1.081,1.081,0,0,1-.8-0.3,1.069,1.069,0,0,1-.3-0.79v-10.62a5.442,5.442,0,0,0-1.84-4.45,8.189,8.189,0,0,0-5.357-1.53,8.978,8.978,0,0,0-5.736,1.6,6.38,6.38,0,0,0-2.237,4.78h2.994a4.117,4.117,0,0,1,1.362-2.78,4.783,4.783,0,0,1,3.13-.93,5.384,5.384,0,0,1,3.265.88,2.854,2.854,0,0,1,1.172,2.43v0.16a2.063,2.063,0,0,1-.343,1.23,1.629,1.629,0,0,1-.974.65,5.555,5.555,0,0,1-1.028.18l-4.419.56a7.622,7.622,0,0,0-4.555,1.92,5.526,5.526,0,0,0-1.56,4.13,5.3,5.3,0,0,0,1.66,4.11,6.4,6.4,0,0,0,4.491,1.51h0a8.618,8.618,0,0,0,5.952-2.18h0Zm0.722-4.85a3.767,3.767,0,0,1-.108.75,4.742,4.742,0,0,1-1.606,2.2,6.767,6.767,0,0,1-4.329,1.39,3.386,3.386,0,0,1-2.507-.88,3.348,3.348,0,0,1-.884-2.5,2.413,2.413,0,0,1,1.082-2.08,7.89,7.89,0,0,1,3.428-1.1l2.976-.43a6.957,6.957,0,0,0,2-.6v2.1h0a11.1,11.1,0,0,1-.054,1.15h0Zm6.641,6.51h3.86v-3.92H246.2v3.92Zm6.5,0h3.247v-10.35a7.706,7.706,0,0,1,1.371-4.82,4.457,4.457,0,0,1,3.715-1.78,4.028,4.028,0,0,1,3.184,1.13,5.56,5.56,0,0,1,.983,3.68v12.14h3.247v-13.24a6.731,6.731,0,0,0-11.941-4.2l-0.722.96v-2.85h-3.084v19.33h0Zm33.246-19.33h-3.556l-5.227,15.99h0l-5.153-15.99H268.3l7.162,19.65v0.01l-0.054.3a13.153,13.153,0,0,1-1.677,3.38,2.29,2.29,0,0,1-1.84.9,5.712,5.712,0,0,1-1.858-.28v3.01a4.862,4.862,0,0,0,1.569.2,5.308,5.308,0,0,0,3.977-1.37c0.884-.92,1.891-2.86,3.021-5.84l7.341-19.96h0Zm11.962,12.37a6.179,6.179,0,0,1-1.687,3.46,4.838,4.838,0,0,1-7.025-.64,9.712,9.712,0,0,1-1.3-5.55,9.285,9.285,0,0,1,1.4-5.44,4.46,4.46,0,0,1,3.851-1.98,4.723,4.723,0,0,1,3.319,1.14,4.791,4.791,0,0,1,1.443,3.21h3.12a7.218,7.218,0,0,0-2.218-5.24,7.851,7.851,0,0,0-5.556-1.91,7.956,7.956,0,0,0-6.376,2.77,11.089,11.089,0,0,0-2.372,7.45,11.312,11.312,0,0,0,2.291,7.45,7.561,7.561,0,0,0,6.132,2.76,7.844,7.844,0,0,0,5.52-1.91,8.965,8.965,0,0,0,2.579-5.57H297.9Z"/>
    <path id="raulavila_Henri_de_Toulouse-Lautrec_At_the_Moulin_Rouge" data-name="raulavila Henri de Toulouse-Lautrec At the Moulin Rouge" class="cls-3" d="M174.59,2025.17h1.222v-3.9a2.433,2.433,0,0,1,.539-1.69,1.952,1.952,0,0,1,1.53-.6l0.251,0.01v-1.25a1.073,1.073,0,0,0-.346-0.06,2.06,2.06,0,0,0-1.7.93,4.694,4.694,0,0,0-.332.53v-1.24H174.59v7.27h0Zm8.054-.63a2.467,2.467,0,0,0,.312-0.32,1.638,1.638,0,0,0,.292.71,1.237,1.237,0,0,0,1,.38,1.49,1.49,0,0,0,.333-0.04,2.209,2.209,0,0,0,.373-0.11v-0.88a2.228,2.228,0,0,1-.227.04,1.07,1.07,0,0,1-.16.01,0.428,0.428,0,0,1-.3-0.11,0.394,0.394,0,0,1-.112-0.3v-3.99a2.062,2.062,0,0,0-.692-1.68,3.1,3.1,0,0,0-2.015-.57,3.391,3.391,0,0,0-2.157.6,2.4,2.4,0,0,0-.842,1.8h1.127a1.573,1.573,0,0,1,.512-1.05,1.817,1.817,0,0,1,1.177-.35,2.012,2.012,0,0,1,1.228.33,1.088,1.088,0,0,1,.441.92v0.06a0.764,0.764,0,0,1-.129.46,0.634,0.634,0,0,1-.366.25,2.337,2.337,0,0,1-.387.06l-1.662.22a2.824,2.824,0,0,0-1.713.72,2.063,2.063,0,0,0-.587,1.55,1.978,1.978,0,0,0,.624,1.54,2.413,2.413,0,0,0,1.689.58h0a3.228,3.228,0,0,0,2.239-.83h0Zm0.272-1.82a1.36,1.36,0,0,1-.041.28,1.794,1.794,0,0,1-.6.83,2.542,2.542,0,0,1-1.628.52,1.28,1.28,0,0,1-.943-0.33,1.26,1.26,0,0,1-.333-0.94,0.9,0.9,0,0,1,.407-0.78,2.881,2.881,0,0,1,1.29-.41l1.119-.17a2.539,2.539,0,0,0,.753-0.22v0.79h0a4.287,4.287,0,0,1-.02.43h0Zm4.01-4.82h-1.221v4.99a2.187,2.187,0,0,0,2.469,2.48,2.456,2.456,0,0,0,1.954-.94,2.673,2.673,0,0,0,.272-0.37v1.11h1.16v-7.27h-1.221v3.88a3,3,0,0,1-.516,1.85,1.671,1.671,0,0,1-1.4.68,1.445,1.445,0,0,1-1.146-.4,2,2,0,0,1-.353-1.32v-4.69h0Zm5.937,7.27h1.221v-9.99h-1.221v9.99h0Zm6.657-.63a2.605,2.605,0,0,0,.312-0.32,1.638,1.638,0,0,0,.291.71,1.237,1.237,0,0,0,1,.38,1.49,1.49,0,0,0,.333-0.04,2.209,2.209,0,0,0,.373-0.11v-0.88a2.228,2.228,0,0,1-.227.04,1.056,1.056,0,0,1-.16.01,0.428,0.428,0,0,1-.3-0.11,0.394,0.394,0,0,1-.112-0.3v-3.99a2.062,2.062,0,0,0-.692-1.68,3.1,3.1,0,0,0-2.015-.57,3.391,3.391,0,0,0-2.157.6,2.4,2.4,0,0,0-.841,1.8h1.126a1.578,1.578,0,0,1,.512-1.05,1.817,1.817,0,0,1,1.177-.35,2.012,2.012,0,0,1,1.228.33,1.088,1.088,0,0,1,.441.92v0.06a0.764,0.764,0,0,1-.129.46,0.634,0.634,0,0,1-.366.25,2.337,2.337,0,0,1-.387.06l-1.662.22a2.824,2.824,0,0,0-1.713.72,2.067,2.067,0,0,0-.587,1.55,1.978,1.978,0,0,0,.624,1.54,2.414,2.414,0,0,0,1.69.58h0a3.23,3.23,0,0,0,2.239-.83h0Zm0.271-1.82a1.36,1.36,0,0,1-.041.28,1.787,1.787,0,0,1-.6.83,2.542,2.542,0,0,1-1.628.52,1.282,1.282,0,0,1-.943-0.33,1.26,1.26,0,0,1-.333-0.94,0.9,0.9,0,0,1,.408-0.78,2.876,2.876,0,0,1,1.289-.41l1.119-.17a2.539,2.539,0,0,0,.753-0.22v0.79h0a4.287,4.287,0,0,1-.02.43h0Zm4.668,2.45h1.31l2.707-7.27h-1.347l-2.013,5.95h0l-1.947-5.95h-1.427Zm4.513,0h1.221v-7.27h-1.221v7.27h0Zm-0.014-8.61h1.248v-1.38h-1.248v1.38Zm2.531,8.61h1.222v-9.99h-1.222v9.99h0Zm6.657-.63a2.605,2.605,0,0,0,.312-0.32,1.626,1.626,0,0,0,.292.71,1.234,1.234,0,0,0,1,.38,1.488,1.488,0,0,0,.332-0.04,2.182,2.182,0,0,0,.373-0.11v-0.88a2.228,2.228,0,0,1-.227.04,1.051,1.051,0,0,1-.159.01,0.425,0.425,0,0,1-.3-0.11,0.39,0.39,0,0,1-.112-0.3v-3.99a2.065,2.065,0,0,0-.692-1.68,3.1,3.1,0,0,0-2.015-.57,3.392,3.392,0,0,0-2.158.6,2.4,2.4,0,0,0-.841,1.8h1.126a1.578,1.578,0,0,1,.512-1.05,1.817,1.817,0,0,1,1.177-.35,2.012,2.012,0,0,1,1.228.33,1.088,1.088,0,0,1,.441.92v0.06a0.764,0.764,0,0,1-.129.46,0.63,0.63,0,0,1-.366.25,2.337,2.337,0,0,1-.387.06l-1.662.22a2.824,2.824,0,0,0-1.713.72,2.067,2.067,0,0,0-.587,1.55,1.978,1.978,0,0,0,.624,1.54,2.416,2.416,0,0,0,1.69.58h0a3.23,3.23,0,0,0,2.239-.83h0Zm0.271-1.82a1.36,1.36,0,0,1-.041.28,1.791,1.791,0,0,1-.6.83,2.547,2.547,0,0,1-1.629.52,1.282,1.282,0,0,1-.943-0.33,1.259,1.259,0,0,1-.332-0.94,0.9,0.9,0,0,1,.407-0.78,2.876,2.876,0,0,1,1.289-.41l1.119-.17a2.539,2.539,0,0,0,.753-0.22v0.79h0a4.009,4.009,0,0,1-.02.43h0Zm-43.827,30.25h1.351v-4.69h5.2v4.69H182.5v-9.99h-1.351v4.1h-5.2v-4.1H174.59v9.99h0Zm14.364-.43a3.079,3.079,0,0,0,1.086-1.82h-1.208a1.573,1.573,0,0,1-.637,1,1.933,1.933,0,0,1-1.221.4,1.877,1.877,0,0,1-1.627-.7,3.114,3.114,0,0,1-.5-1.65h5.3l0.015-.44a4.251,4.251,0,0,0-.876-2.79,2.856,2.856,0,0,0-2.3-1.06,3.153,3.153,0,0,0-2.507,1.09,4.308,4.308,0,0,0-.932,2.92,3.874,3.874,0,0,0,.882,2.7,3.1,3.1,0,0,0,2.422.98h0A3.326,3.326,0,0,0,188.954,2052.54Zm-4.1-3.76a2.77,2.77,0,0,1,.549-1.48,1.874,1.874,0,0,1,1.541-.72,1.759,1.759,0,0,1,1.452.62,2.757,2.757,0,0,1,.5,1.58h-4.044Zm6.219,4.19h1.222v-3.89a2.886,2.886,0,0,1,.515-1.81,1.663,1.663,0,0,1,1.4-.67,1.522,1.522,0,0,1,1.2.42,2.125,2.125,0,0,1,.369,1.39v4.56H197v-4.98a2.526,2.526,0,0,0-4.492-1.57l-0.271.36v-1.08h-1.161v7.27h0Zm7.342,0h1.221v-3.89a2.46,2.46,0,0,1,.54-1.7,1.978,1.978,0,0,1,1.53-.59l0.251,0.01v-1.25a0.873,0.873,0,0,0-.346-0.07,2.046,2.046,0,0,0-1.7.94,3.4,3.4,0,0,0-.333.53v-1.25h-1.16v7.27h0Zm3.943,0h1.221v-7.27h-1.221v7.27h0Zm-0.014-8.6h1.248v-1.39h-1.248v1.39Zm10.551,7.84,0.156-.23v0.99h1.133v-9.99h-1.221v3.78l-0.095-.14a2.439,2.439,0,0,0-2.117-1.14,2.7,2.7,0,0,0-2.178,1.01,4,4,0,0,0-.834,2.64,4.633,4.633,0,0,0,.862,2.95,2.793,2.793,0,0,0,2.32,1.09h0a2.389,2.389,0,0,0,1.974-.96h0Zm-0.444-4.82a4.284,4.284,0,0,1,.512,2.29,2.7,2.7,0,0,1-.543,1.77,1.742,1.742,0,0,1-1.431.67,1.685,1.685,0,0,1-1.462-.72,4.626,4.626,0,0,1-.038-4.16,1.717,1.717,0,0,1,1.5-.65A1.624,1.624,0,0,1,212.449,2047.39Zm7.928,5.15a3.079,3.079,0,0,0,1.086-1.82h-1.208a1.573,1.573,0,0,1-.637,1,1.931,1.931,0,0,1-1.221.4,1.877,1.877,0,0,1-1.627-.7,3.114,3.114,0,0,1-.5-1.65h5.3l0.015-.44a4.256,4.256,0,0,0-.875-2.79,2.859,2.859,0,0,0-2.3-1.06,3.15,3.15,0,0,0-2.507,1.09,4.309,4.309,0,0,0-.933,2.92,3.878,3.878,0,0,0,.882,2.7,3.1,3.1,0,0,0,2.422.98h0A3.324,3.324,0,0,0,220.377,2052.54Zm-4.1-3.76a2.77,2.77,0,0,1,.549-1.48,1.874,1.874,0,0,1,1.541-.72,1.757,1.757,0,0,1,1.452.62,2.757,2.757,0,0,1,.5,1.58h-4.044Zm12.191,4.19h1.35v-8.79h3.372v-1.2h-8.094v1.2h3.372v8.79h0Zm8.223,0.2a3.091,3.091,0,0,0,2.45-1.06,4.639,4.639,0,0,0,0-5.57,3.349,3.349,0,0,0-4.889,0,4.623,4.623,0,0,0,0,5.57,3.084,3.084,0,0,0,2.439,1.06h0Zm0-1.05a1.8,1.8,0,0,1-1.53-.76,3.923,3.923,0,0,1,0-4.06,1.924,1.924,0,0,1,3.064,0,3.9,3.9,0,0,1,0,4.06,1.81,1.81,0,0,1-1.534.76h0Zm5.476-6.42h-1.221v5a2.185,2.185,0,0,0,2.469,2.47,2.446,2.446,0,0,0,1.954-.93,3.445,3.445,0,0,0,.272-0.37v1.1h1.16v-7.27h-1.221v3.88a2.985,2.985,0,0,1-.516,1.85,1.654,1.654,0,0,1-1.4.69,1.448,1.448,0,0,1-1.147-.41,2,2,0,0,1-.353-1.32v-4.69h0Zm5.937,7.27h1.221v-9.99H248.1v9.99h0Zm5.462,0.2a3.09,3.09,0,0,0,2.45-1.06,4.639,4.639,0,0,0,0-5.57,3.349,3.349,0,0,0-4.889,0,4.623,4.623,0,0,0,0,5.57,3.084,3.084,0,0,0,2.439,1.06h0Zm0-1.05a1.8,1.8,0,0,1-1.529-.76,3.917,3.917,0,0,1,0-4.06,1.923,1.923,0,0,1,3.063,0,3.9,3.9,0,0,1,0,4.06,1.81,1.81,0,0,1-1.534.76h0Zm5.476-6.42h-1.221v5a2.185,2.185,0,0,0,2.47,2.47,2.449,2.449,0,0,0,1.954-.93,3.436,3.436,0,0,0,.271-0.37v1.1h1.16v-7.27h-1.221v3.88a2.985,2.985,0,0,1-.516,1.85,1.651,1.651,0,0,1-1.4.69,1.448,1.448,0,0,1-1.147-.41,2,2,0,0,1-.353-1.32v-4.69h0Zm11.214,2.11a2.236,2.236,0,0,0-.8-1.71,3.084,3.084,0,0,0-2.017-.62,3.022,3.022,0,0,0-1.978.61,1.989,1.989,0,0,0-.729,1.62,1.663,1.663,0,0,0,.435,1.23,3.038,3.038,0,0,0,1.459.68l1.262,0.3a3.579,3.579,0,0,1,1.12.4,0.653,0.653,0,0,1,.278.57,1.047,1.047,0,0,1-.424.91,2.071,2.071,0,0,1-1.246.32,2.327,2.327,0,0,1-1.4-.35,1.54,1.54,0,0,1-.546-1.12H264.5a2.513,2.513,0,0,0,.835,1.91,3.566,3.566,0,0,0,2.286.61,3.238,3.238,0,0,0,2.1-.63,2.085,2.085,0,0,0,.777-1.71,1.707,1.707,0,0,0-.449-1.26,3.221,3.221,0,0,0-1.514-.71l-1.262-.3a3.822,3.822,0,0,1-1.106-.4,0.657,0.657,0,0,1-.278-0.58,0.885,0.885,0,0,1,.4-0.78,2.15,2.15,0,0,1,1.157-.26,1.913,1.913,0,0,1,1.178.33,1.273,1.273,0,0,1,.492.94h1.146Zm6.143,4.73a3.083,3.083,0,0,0,1.085-1.82h-1.208a1.569,1.569,0,0,1-.637,1,1.931,1.931,0,0,1-1.221.4,1.878,1.878,0,0,1-1.627-.7,3.132,3.132,0,0,1-.5-1.65h5.3l0.014-.44a4.256,4.256,0,0,0-.875-2.79,2.857,2.857,0,0,0-2.3-1.06,3.151,3.151,0,0,0-2.507,1.09,4.309,4.309,0,0,0-.933,2.92,3.878,3.878,0,0,0,.882,2.7,3.1,3.1,0,0,0,2.422.98h0A3.329,3.329,0,0,0,276.4,2052.54Zm-4.1-3.76a2.763,2.763,0,0,1,.55-1.48,1.872,1.872,0,0,1,1.54-.72,1.757,1.757,0,0,1,1.452.62,2.75,2.75,0,0,1,.5,1.58h-4.044Zm5.928,0.97h3.406v-1.25h-3.406v1.25Zm10.924,3.22v-1.19h-5.054v-8.8h-1.351v9.99h6.405Zm4.763-.62a2.609,2.609,0,0,0,.313-0.33,1.631,1.631,0,0,0,.291.72,1.237,1.237,0,0,0,1,.38,2.466,2.466,0,0,0,.333-0.04,3.8,3.8,0,0,0,.373-0.11v-0.89a2.228,2.228,0,0,1-.227.04,1.48,1.48,0,0,1-.16.02,0.383,0.383,0,0,1-.414-0.41v-4a2.041,2.041,0,0,0-.692-1.67,3.1,3.1,0,0,0-2.015-.58,3.391,3.391,0,0,0-2.157.61,2.4,2.4,0,0,0-.841,1.79h1.126a1.531,1.531,0,0,1,.512-1.04,1.817,1.817,0,0,1,1.177-.35,2.012,2.012,0,0,1,1.228.33,1.07,1.07,0,0,1,.441.91v0.07a0.807,0.807,0,0,1-.129.46,0.62,0.62,0,0,1-.366.24,2.329,2.329,0,0,1-.387.07l-1.662.21a2.947,2.947,0,0,0-1.713.72,2.09,2.09,0,0,0-.587,1.56,1.978,1.978,0,0,0,.624,1.54,2.409,2.409,0,0,0,1.69.57h0a3.218,3.218,0,0,0,2.238-.82h0Zm0.272-1.82a1.484,1.484,0,0,1-.041.28,1.763,1.763,0,0,1-.6.82,2.548,2.548,0,0,1-1.628.53,1.155,1.155,0,0,1-1.276-1.27,0.919,0.919,0,0,1,.408-0.79,3.007,3.007,0,0,1,1.289-.41l1.119-.16a2.547,2.547,0,0,0,.753-0.23v0.79h0c0,0.16-.007.31-0.02,0.44h0Zm4.01-4.83H296.97v5a2.185,2.185,0,0,0,2.47,2.47,2.449,2.449,0,0,0,1.954-.93,3.436,3.436,0,0,0,.271-0.37v1.1h1.16v-7.27H301.6v3.88a2.985,2.985,0,0,1-.516,1.85,1.652,1.652,0,0,1-1.4.69,1.448,1.448,0,0,1-1.147-.41,2,2,0,0,1-.353-1.32v-4.69h0Zm8.577,6.32h-0.435a0.892,0.892,0,0,1-.519-0.14,0.458,0.458,0,0,1-.193-0.39v-4.79h1.147v-1h-1.147v-2.04H304.4v2.04h-1v1h1v4.79a1.782,1.782,0,0,0,.329,1.22,1.518,1.518,0,0,0,1.129.35,7.2,7.2,0,0,0,.91-0.09h0v-0.95Zm0.808,0.95H308.8v-3.89a2.465,2.465,0,0,1,.539-1.7,1.981,1.981,0,0,1,1.53-.59l0.251,0.01v-1.25a0.873,0.873,0,0,0-.346-0.07,2.046,2.046,0,0,0-1.7.94,3.4,3.4,0,0,0-.332.53v-1.25h-1.16v7.27h0Zm8.956-.43a3.078,3.078,0,0,0,1.085-1.82H316.41a1.575,1.575,0,0,1-.638,1,1.93,1.93,0,0,1-1.22.4,1.879,1.879,0,0,1-1.628-.7,3.132,3.132,0,0,1-.5-1.65h5.3l0.014-.44a4.251,4.251,0,0,0-.875-2.79,2.856,2.856,0,0,0-2.3-1.06,3.153,3.153,0,0,0-2.507,1.09,4.309,4.309,0,0,0-.933,2.92,3.878,3.878,0,0,0,.882,2.7,3.105,3.105,0,0,0,2.422.98h0A3.329,3.329,0,0,0,316.532,2052.54Zm-4.1-3.76a2.779,2.779,0,0,1,.55-1.48,1.872,1.872,0,0,1,1.54-.72,1.757,1.757,0,0,1,1.452.62,2.757,2.757,0,0,1,.5,1.58h-4.045Zm10.773,1.58a2.35,2.35,0,0,1-.635,1.3,1.817,1.817,0,0,1-2.642-.24,3.657,3.657,0,0,1-.489-2.09,3.515,3.515,0,0,1,.526-2.05,1.689,1.689,0,0,1,1.449-.74,1.665,1.665,0,0,1,1.791,1.64h1.173a2.73,2.73,0,0,0-.834-1.98,3.321,3.321,0,0,0-4.488.33,4.154,4.154,0,0,0-.892,2.8,4.255,4.255,0,0,0,.861,2.8,2.854,2.854,0,0,0,2.307,1.04,2.94,2.94,0,0,0,2.076-.72,3.371,3.371,0,0,0,.97-2.09H323.2Zm-149.487,30.42h1.393l1.047-2.9h3.983l1.016,2.9H182.6l-3.582-9.99h-1.54l-3.766,9.99h0Zm4.474-8.52h0l1.538,4.43h-3.139l1.6-4.43h0Zm7.61,7.57h-0.434a0.825,0.825,0,0,1-.519-0.15,0.44,0.44,0,0,1-.193-0.38v-4.79H185.8v-1h-1.146v-2.04h-1.222v2.04h-1v1h1v4.79a1.758,1.758,0,0,0,.329,1.21,1.481,1.481,0,0,0,1.13.36,6,6,0,0,0,.909-0.1h0v-0.94Zm6.61,0h-0.435a0.825,0.825,0,0,1-.519-0.15,0.44,0.44,0,0,1-.193-0.38v-4.79h1.147v-1h-1.147v-2.04h-1.221v2.04h-1v1h1v4.79a1.752,1.752,0,0,0,.329,1.21,1.478,1.478,0,0,0,1.129.36,6.019,6.019,0,0,0,.91-0.1h0v-0.94Zm0.638,0.95h1.221v-3.89a2.808,2.808,0,0,1,.543-1.82,1.806,1.806,0,0,1,1.465-.67,1.441,1.441,0,0,1,1.127.4,1.983,1.983,0,0,1,.346,1.3v4.68h1.221v-4.98a2.269,2.269,0,0,0-2.5-2.51,2.508,2.508,0,0,0-1.988.93l-0.21.27v-3.7h-1.221v9.99h0Zm12.226-.43a3.075,3.075,0,0,0,1.086-1.83h-1.208a1.6,1.6,0,0,1-.637,1.01,1.984,1.984,0,0,1-1.221.39,1.9,1.9,0,0,1-1.627-.69,3.141,3.141,0,0,1-.5-1.66h5.3l0.014-.43a4.256,4.256,0,0,0-.875-2.79,2.828,2.828,0,0,0-2.3-1.06,3.144,3.144,0,0,0-2.507,1.08,4.344,4.344,0,0,0-.933,2.92,3.905,3.905,0,0,0,.882,2.71,3.1,3.1,0,0,0,2.422.98h0A3.324,3.324,0,0,0,205.273,2080.35Zm-4.1-3.76a2.766,2.766,0,0,1,.55-1.49,1.871,1.871,0,0,1,1.54-.72,1.735,1.735,0,0,1,1.452.63,2.724,2.724,0,0,1,.5,1.58h-4.044Zm10.949-4.24h0l2.82,8.43h1.3l2.811-8.45h0v8.45h1.309v-9.99h-1.94l-2.827,8.5h0l-2.853-8.5h-1.94v9.99h1.309v-8.43Zm12.553,8.63a3.121,3.121,0,0,0,2.449-1.06,4.639,4.639,0,0,0,0-5.57,3.349,3.349,0,0,0-4.889,0,4.627,4.627,0,0,0,0,5.57,3.117,3.117,0,0,0,2.44,1.06h0Zm0-1.06a1.816,1.816,0,0,1-1.53-.75,3.935,3.935,0,0,1,0-4.07,1.923,1.923,0,0,1,3.063,0,3.918,3.918,0,0,1,0,4.07,1.826,1.826,0,0,1-1.533.75h0Zm5.475-6.41h-1.221v4.99a2.187,2.187,0,0,0,2.47,2.48,2.447,2.447,0,0,0,1.954-.93,3.553,3.553,0,0,0,.271-0.38v1.11h1.16v-7.27h-1.221v3.88a3,3,0,0,1-.516,1.85,1.643,1.643,0,0,1-1.4.68,1.447,1.447,0,0,1-1.147-.4,2,2,0,0,1-.353-1.32v-4.69h0Zm5.937,7.27h1.222v-9.99h-1.222v9.99h0Zm2.545,0h1.222v-7.27H238.63v7.27h0Zm-0.013-8.6h1.248v-1.39h-1.248v1.39Zm2.5,8.6h1.221v-3.89a2.911,2.911,0,0,1,.516-1.82,1.686,1.686,0,0,1,1.4-.67,1.525,1.525,0,0,1,1.2.43,2.076,2.076,0,0,1,.37,1.38v4.57h1.221v-4.98a2.269,2.269,0,0,0-2.5-2.51,2.508,2.508,0,0,0-1.988.93l-0.271.36v-1.07h-1.16v7.27h0Zm10.795,0h1.35v-4.31h3.2a1.992,1.992,0,0,1,1.4.4,1.823,1.823,0,0,1,.454,1.33l0.031,0.78c0.018,0.43.045,0.81,0.081,1.15a2.84,2.84,0,0,0,.108.64h1.66v-0.22a0.765,0.765,0,0,1-.393-0.34,1.564,1.564,0,0,1-.115-0.64l-0.055-1.82a1.927,1.927,0,0,0-.943-1.76l-0.224-.11a2.858,2.858,0,0,0,.468-0.33,2.543,2.543,0,0,0,.862-2.05,2.475,2.475,0,0,0-.828-2.02,3.685,3.685,0,0,0-2.415-.69h-4.641v9.99h0Zm1.35-8.86H256.5a2.149,2.149,0,0,1,1.448.41,1.567,1.567,0,0,1,.458,1.26,1.717,1.717,0,0,1-.434,1.3,1.959,1.959,0,0,1-1.37.41h-3.339v-3.38Zm10.768,9.06a3.123,3.123,0,0,0,2.45-1.06,4.639,4.639,0,0,0,0-5.57,3.349,3.349,0,0,0-4.889,0,4.623,4.623,0,0,0,0,5.57,3.116,3.116,0,0,0,2.439,1.06h0Zm0-1.06a1.818,1.818,0,0,1-1.53-.75,3.941,3.941,0,0,1,0-4.07,1.924,1.924,0,0,1,3.064,0,3.918,3.918,0,0,1,0,4.07,1.827,1.827,0,0,1-1.534.75h0Zm5.476-6.41h-1.221v4.99a2.187,2.187,0,0,0,2.47,2.48,2.449,2.449,0,0,0,1.954-.93,3.7,3.7,0,0,0,.271-0.38v1.11h1.16v-7.27h-1.221v3.88a3,3,0,0,1-.516,1.85,1.645,1.645,0,0,1-1.4.68,1.446,1.446,0,0,1-1.147-.4,2,2,0,0,1-.353-1.32v-4.69h0Zm7.521,9.01a1.414,1.414,0,0,1-.519-0.9h-1.248a2.422,2.422,0,0,0,.875,1.66,3.093,3.093,0,0,0,1.961.57,3.284,3.284,0,0,0,2.524-.88,3.932,3.932,0,0,0,.828-2.73v-6.73h-1.147v1.04l-0.088-.13a2.394,2.394,0,0,0-2.076-1.13,2.769,2.769,0,0,0-2.219,1.01,3.957,3.957,0,0,0-.848,2.64,4.633,4.633,0,0,0,.862,2.95,2.821,2.821,0,0,0,2.32,1.09,2.392,2.392,0,0,0,1.968-.97l0.006-.01v0.24a2.994,2.994,0,0,1-.549,1.94,1.964,1.964,0,0,1-1.6.66h0A1.678,1.678,0,0,1,277.031,2082.52Zm2.769-7.34a4.332,4.332,0,0,1,.492,2.31,2.69,2.69,0,0,1-.543,1.76,1.771,1.771,0,0,1-1.432.67,1.687,1.687,0,0,1-1.455-.73,3.526,3.526,0,0,1-.512-2.06,3.561,3.561,0,0,1,.471-2.07,1.712,1.712,0,0,1,1.5-.66A1.636,1.636,0,0,1,279.8,2075.18Zm7.847,5.17a3.079,3.079,0,0,0,1.085-1.83h-1.207a1.6,1.6,0,0,1-.638,1.01,1.983,1.983,0,0,1-1.22.39,1.9,1.9,0,0,1-1.628-.69,3.141,3.141,0,0,1-.5-1.66h5.3l0.014-.43a4.256,4.256,0,0,0-.875-2.79,2.828,2.828,0,0,0-2.3-1.06,3.145,3.145,0,0,0-2.507,1.08,4.344,4.344,0,0,0-.933,2.92,3.905,3.905,0,0,0,.882,2.71,3.1,3.1,0,0,0,2.422.98h0A3.329,3.329,0,0,0,287.647,2080.35Zm-4.1-3.76a2.774,2.774,0,0,1,.55-1.49,1.872,1.872,0,0,1,1.54-.72,1.735,1.735,0,0,1,1.452.63,2.724,2.724,0,0,1,.5,1.58h-4.044Z"/>
  </g>
</svg>
