<svg id="Dada" xmlns="http://www.w3.org/2000/svg" width="3000" height="3000" viewBox="0 0 3000 3000">
  <defs>
    <style>
      .cls-1 {
        fill: #575861;
      }

      .cls-2 {
        fill: #e4e1da;
      }

      .cls-2, .cls-3 {
        fill-rule: evenodd;
      }

      .cls-3 {
        fill: #31323d;
      }
    </style>
  </defs>
  <g id="dada-placard-bedroomarles">
    <rect id="Rectangle_2_copy" data-name="Rectangle 2 copy" class="cls-1" x="155" y="1980" width="291" height="187"/>
    <path id="Rectangle_2_copy_2" data-name="Rectangle 2 copy 2" class="cls-2" d="M159.98,1984.99H441.02v177.02H159.98V1984.99Z"/>
    <path id="dada.nyc" class="cls-3" d="M187.636,2123.36l0.415-.6v2.64h3.012v-26.56h-3.246v10.03l-0.253-.36a6.475,6.475,0,0,0-5.628-3.02,7.169,7.169,0,0,0-5.79,2.67,10.673,10.673,0,0,0-2.218,7.03,12.281,12.281,0,0,0,2.29,7.83,7.434,7.434,0,0,0,6.169,2.9h0a6.337,6.337,0,0,0,5.249-2.56h0Zm-1.181-12.8a11.359,11.359,0,0,1,1.362,6.09,7.251,7.251,0,0,1-1.443,4.71,4.651,4.651,0,0,1-3.806,1.78,4.465,4.465,0,0,1-3.888-1.93,9.5,9.5,0,0,1-1.361-5.51q0-3.795,1.262-5.54a4.594,4.594,0,0,1,3.987-1.74A4.34,4.34,0,0,1,186.455,2110.56Zm17.2,13.18a7.322,7.322,0,0,0,.83-0.87,4.282,4.282,0,0,0,.776,1.9,3.271,3.271,0,0,0,2.669,1.01,4.679,4.679,0,0,0,.884-0.11,6.139,6.139,0,0,0,.992-0.29v-2.35a5.2,5.2,0,0,1-.6.11c-0.187.02-.328,0.04-0.424,0.04a1.081,1.081,0,0,1-.8-0.3,1.069,1.069,0,0,1-.3-0.79v-10.62a5.442,5.442,0,0,0-1.84-4.45,8.189,8.189,0,0,0-5.357-1.53,8.978,8.978,0,0,0-5.736,1.6,6.38,6.38,0,0,0-2.237,4.78H195.5a4.117,4.117,0,0,1,1.362-2.78,4.783,4.783,0,0,1,3.13-.93,5.384,5.384,0,0,1,3.265.88,2.854,2.854,0,0,1,1.172,2.43v0.16a2.063,2.063,0,0,1-.343,1.23,1.629,1.629,0,0,1-.974.65,5.555,5.555,0,0,1-1.028.18l-4.419.56a7.622,7.622,0,0,0-4.555,1.92,5.526,5.526,0,0,0-1.56,4.13,5.3,5.3,0,0,0,1.66,4.11,6.4,6.4,0,0,0,4.491,1.51h0a8.618,8.618,0,0,0,5.952-2.18h0Zm0.722-4.85a3.767,3.767,0,0,1-.108.75,4.742,4.742,0,0,1-1.606,2.2,6.767,6.767,0,0,1-4.329,1.39,3.386,3.386,0,0,1-2.507-.88,3.348,3.348,0,0,1-.884-2.5,2.413,2.413,0,0,1,1.082-2.08,7.89,7.89,0,0,1,3.428-1.1l2.976-.43a6.957,6.957,0,0,0,2-.6v2.1h0a11.1,11.1,0,0,1-.054,1.15h0Zm18.437,4.47,0.415-.6v2.64h3.012v-26.56H223v10.03l-0.252-.36a6.475,6.475,0,0,0-5.628-3.02,7.169,7.169,0,0,0-5.79,2.67,10.673,10.673,0,0,0-2.218,7.03,12.281,12.281,0,0,0,2.29,7.83,7.434,7.434,0,0,0,6.169,2.9h0a6.337,6.337,0,0,0,5.249-2.56h0Zm-1.181-12.8a11.36,11.36,0,0,1,1.361,6.09,7.245,7.245,0,0,1-1.443,4.71,4.648,4.648,0,0,1-3.8,1.78,4.465,4.465,0,0,1-3.888-1.93,9.5,9.5,0,0,1-1.361-5.51q0-3.795,1.262-5.54a4.594,4.594,0,0,1,3.987-1.74A4.34,4.34,0,0,1,221.634,2110.56Zm17.2,13.18a7.322,7.322,0,0,0,.83-0.87,4.282,4.282,0,0,0,.776,1.9,3.271,3.271,0,0,0,2.669,1.01,4.679,4.679,0,0,0,.884-0.11,6.139,6.139,0,0,0,.992-0.29v-2.35a5.2,5.2,0,0,1-.6.11c-0.187.02-.328,0.04-0.424,0.04a1.081,1.081,0,0,1-.8-0.3,1.069,1.069,0,0,1-.3-0.79v-10.62a5.442,5.442,0,0,0-1.84-4.45,8.189,8.189,0,0,0-5.357-1.53,8.978,8.978,0,0,0-5.736,1.6,6.38,6.38,0,0,0-2.237,4.78h2.994a4.117,4.117,0,0,1,1.362-2.78,4.783,4.783,0,0,1,3.13-.93,5.384,5.384,0,0,1,3.265.88,2.854,2.854,0,0,1,1.172,2.43v0.16a2.063,2.063,0,0,1-.343,1.23,1.629,1.629,0,0,1-.974.65,5.555,5.555,0,0,1-1.028.18l-4.419.56a7.622,7.622,0,0,0-4.555,1.92,5.526,5.526,0,0,0-1.56,4.13,5.3,5.3,0,0,0,1.66,4.11,6.4,6.4,0,0,0,4.491,1.51h0a8.618,8.618,0,0,0,5.952-2.18h0Zm0.722-4.85a3.767,3.767,0,0,1-.108.75,4.742,4.742,0,0,1-1.606,2.2,6.767,6.767,0,0,1-4.329,1.39,3.386,3.386,0,0,1-2.507-.88,3.348,3.348,0,0,1-.884-2.5,2.413,2.413,0,0,1,1.082-2.08,7.89,7.89,0,0,1,3.428-1.1l2.976-.43a6.957,6.957,0,0,0,2-.6v2.1h0a11.1,11.1,0,0,1-.054,1.15h0Zm6.641,6.51h3.86v-3.92H246.2v3.92Zm6.5,0h3.247v-10.35a7.706,7.706,0,0,1,1.371-4.82,4.457,4.457,0,0,1,3.715-1.78,4.028,4.028,0,0,1,3.184,1.13,5.56,5.56,0,0,1,.983,3.68v12.14h3.247v-13.24a6.731,6.731,0,0,0-11.941-4.2l-0.722.96v-2.85h-3.084v19.33h0Zm33.246-19.33h-3.556l-5.227,15.99h0l-5.153-15.99H268.3l7.162,19.65v0.01l-0.054.3a13.153,13.153,0,0,1-1.677,3.38,2.29,2.29,0,0,1-1.84.9,5.712,5.712,0,0,1-1.858-.28v3.01a4.862,4.862,0,0,0,1.569.2,5.308,5.308,0,0,0,3.977-1.37c0.884-.92,1.891-2.86,3.021-5.84l7.341-19.96h0Zm11.962,12.37a6.179,6.179,0,0,1-1.687,3.46,4.838,4.838,0,0,1-7.025-.64,9.712,9.712,0,0,1-1.3-5.55,9.285,9.285,0,0,1,1.4-5.44,4.46,4.46,0,0,1,3.851-1.98,4.723,4.723,0,0,1,3.319,1.14,4.791,4.791,0,0,1,1.443,3.21h3.12a7.218,7.218,0,0,0-2.218-5.24,7.851,7.851,0,0,0-5.556-1.91,7.956,7.956,0,0,0-6.376,2.77,11.089,11.089,0,0,0-2.372,7.45,11.312,11.312,0,0,0,2.291,7.45,7.561,7.561,0,0,0,6.132,2.76,7.844,7.844,0,0,0,5.52-1.91,8.965,8.965,0,0,0,2.579-5.57H297.9Z"/>
    <path id="Boris_Toledo_Doorm_Vincent_van_Gogh_Bedroom_in_Arles" data-name="Boris Toledo Doorm Vincent van Gogh Bedroom in Arles" class="cls-3" d="M174.55,2025.17h4.077a4.019,4.019,0,0,0,2.65-.79,2.659,2.659,0,0,0,.953-2.17,2.3,2.3,0,0,0-.977-1.98,3.093,3.093,0,0,0-.862-0.44,2.537,2.537,0,0,0,.455-0.28,2.318,2.318,0,0,0,.923-1.95,2.162,2.162,0,0,0-.781-1.73,3.123,3.123,0,0,0-2.055-.65H174.55v9.99h0Zm1.35-8.84h2.585a2.5,2.5,0,0,1,1.472.35,1.292,1.292,0,0,1,.468,1.1,1.477,1.477,0,0,1-.509,1.25,2.58,2.58,0,0,1-1.608.4H175.9v-3.1h0Zm0,4.2h2.653a3.157,3.157,0,0,1,1.77.39,1.39,1.39,0,0,1,.564,1.23,1.719,1.719,0,0,1-.54,1.41,2.628,2.628,0,0,1-1.7.45H175.9v-3.48h0Zm10.191,4.84a3.1,3.1,0,0,0,2.449-1.07,4.62,4.62,0,0,0,0-5.56,3.348,3.348,0,0,0-4.888,0,4.608,4.608,0,0,0,0,5.56,3.092,3.092,0,0,0,2.439,1.07h0Zm0-1.06a1.818,1.818,0,0,1-1.53-.75,3.941,3.941,0,0,1,0-4.07,1.923,1.923,0,0,1,3.063,0,3.918,3.918,0,0,1,0,4.07,1.826,1.826,0,0,1-1.533.75h0Zm4.383,0.86H191.7v-3.9a2.433,2.433,0,0,1,.539-1.69,1.952,1.952,0,0,1,1.53-.6l0.251,0.01v-1.25a1.073,1.073,0,0,0-.346-0.06,2.06,2.06,0,0,0-1.7.93,4.694,4.694,0,0,0-.332.53v-1.24h-1.161v7.27h0Zm3.943,0h1.221v-7.27h-1.221v7.27h0Zm-0.014-8.61h1.249v-1.38H194.4v1.38Zm7.808,3.44a2.215,2.215,0,0,0-.8-1.7,3.084,3.084,0,0,0-2.017-.62,3.021,3.021,0,0,0-1.978.6,2,2,0,0,0-.729,1.63,1.651,1.651,0,0,0,.436,1.22,3.029,3.029,0,0,0,1.458.69l1.263,0.3a3.628,3.628,0,0,1,1.119.39,0.659,0.659,0,0,1,.278.58,1.059,1.059,0,0,1-.424.91,2.074,2.074,0,0,1-1.246.31,2.331,2.331,0,0,1-1.4-.34,1.583,1.583,0,0,1-.546-1.13h-1.174a2.557,2.557,0,0,0,.835,1.92,3.629,3.629,0,0,0,2.287.61,3.241,3.241,0,0,0,2.1-.64,2.084,2.084,0,0,0,.776-1.71,1.7,1.7,0,0,0-.449-1.26,3.221,3.221,0,0,0-1.514-.71l-1.262-.3a3.608,3.608,0,0,1-1.106-.39,0.677,0.677,0,0,1-.278-0.59,0.856,0.856,0,0,1,.4-0.77,2.057,2.057,0,0,1,1.157-.27,1.852,1.852,0,0,1,1.178.34,1.246,1.246,0,0,1,.492.93h1.146Zm7.059,5.17h1.35v-8.8h3.372v-1.19H205.9v1.19h3.372v8.8h0Zm8.224,0.2a3.1,3.1,0,0,0,2.449-1.07,4.62,4.62,0,0,0,0-5.56,3.348,3.348,0,0,0-4.888,0,4.608,4.608,0,0,0,0,5.56,3.092,3.092,0,0,0,2.439,1.07h0Zm0-1.06a1.816,1.816,0,0,1-1.53-.75,3.935,3.935,0,0,1,0-4.07,1.923,1.923,0,0,1,3.063,0,3.918,3.918,0,0,1,0,4.07,1.826,1.826,0,0,1-1.533.75h0Zm4.241,0.86h1.221v-9.99h-1.221v9.99h0Zm7.558-.43a3.075,3.075,0,0,0,1.086-1.83h-1.208a1.621,1.621,0,0,1-.637,1.01,1.984,1.984,0,0,1-1.221.39,1.9,1.9,0,0,1-1.627-.69,3.141,3.141,0,0,1-.5-1.66h5.3l0.015-.43a4.238,4.238,0,0,0-.875-2.79,2.828,2.828,0,0,0-2.3-1.06,3.144,3.144,0,0,0-2.507,1.08,4.344,4.344,0,0,0-.933,2.92,3.922,3.922,0,0,0,.882,2.71,3.1,3.1,0,0,0,2.422.98h0A3.324,3.324,0,0,0,229.293,2024.74Zm-4.1-3.76a2.766,2.766,0,0,1,.55-1.49,1.871,1.871,0,0,1,1.54-.72,1.735,1.735,0,0,1,1.452.63,2.7,2.7,0,0,1,.5,1.58h-4.044Zm10.962,3.42,0.156-.22v0.99h1.133v-9.99h-1.221v3.77l-0.095-.14a2.452,2.452,0,0,0-2.117-1.13,2.693,2.693,0,0,0-2.178,1,4.046,4.046,0,0,0-.834,2.65,4.584,4.584,0,0,0,.862,2.94,2.8,2.8,0,0,0,2.32,1.1h0a2.4,2.4,0,0,0,1.974-.97h0Zm-0.444-4.81a4.26,4.26,0,0,1,.512,2.29,2.738,2.738,0,0,1-.543,1.77,1.742,1.742,0,0,1-1.431.67,1.671,1.671,0,0,1-1.462-.73,3.539,3.539,0,0,1-.513-2.07,3.579,3.579,0,0,1,.475-2.08,1.723,1.723,0,0,1,1.5-.66A1.633,1.633,0,0,1,235.709,2019.59Zm5.832,5.78a3.1,3.1,0,0,0,2.449-1.07,4.62,4.62,0,0,0,0-5.56,3.348,3.348,0,0,0-4.888,0,4.608,4.608,0,0,0,0,5.56,3.092,3.092,0,0,0,2.439,1.07h0Zm0-1.06a1.818,1.818,0,0,1-1.53-.75,3.935,3.935,0,0,1,0-4.07,1.923,1.923,0,0,1,3.063,0,3.918,3.918,0,0,1,0,4.07,1.826,1.826,0,0,1-1.533.75h0Zm7.742,0.86h3.99a3.869,3.869,0,0,0,3.1-1.35,5.461,5.461,0,0,0,1.15-3.64,5.559,5.559,0,0,0-1.123-3.65,3.729,3.729,0,0,0-3.023-1.35h-4.1v9.99h0Zm1.35-8.84h2.585a2.55,2.55,0,0,1,2.158,1.01,4.6,4.6,0,0,1,.76,2.84,4.453,4.453,0,0,1-.791,2.83,2.683,2.683,0,0,1-2.242,1h-2.47v-7.68Zm10.863,9.04a3.1,3.1,0,0,0,2.45-1.07,4.624,4.624,0,0,0,0-5.56,3.349,3.349,0,0,0-4.889,0,4.608,4.608,0,0,0,0,5.56,3.092,3.092,0,0,0,2.439,1.07h0Zm0-1.06a1.818,1.818,0,0,1-1.53-.75,3.941,3.941,0,0,1,0-4.07,1.924,1.924,0,0,1,3.064,0,3.918,3.918,0,0,1,0,4.07,1.827,1.827,0,0,1-1.534.75h0Zm7.172,1.06a3.1,3.1,0,0,0,2.45-1.07,4.624,4.624,0,0,0,0-5.56,3.349,3.349,0,0,0-4.889,0,4.608,4.608,0,0,0,0,5.56,3.092,3.092,0,0,0,2.439,1.07h0Zm0-1.06a1.818,1.818,0,0,1-1.53-.75,3.941,3.941,0,0,1,0-4.07,1.924,1.924,0,0,1,3.064,0,3.918,3.918,0,0,1,0,4.07,1.828,1.828,0,0,1-1.534.75h0Zm4.384,0.86h1.221v-3.9a2.438,2.438,0,0,1,.539-1.69,1.952,1.952,0,0,1,1.53-.6l0.251,0.01v-1.25a1.068,1.068,0,0,0-.346-0.06,2.061,2.061,0,0,0-1.7.93,4.842,4.842,0,0,0-.332.53v-1.24h-1.16v7.27h0Zm3.9,0h1.222v-3.9a2.875,2.875,0,0,1,.519-1.78,1.583,1.583,0,0,1,1.333-.7,1.12,1.12,0,0,1,.9.36,1.541,1.541,0,0,1,.309,1.04v4.98h1.221v-4.09a2.7,2.7,0,0,1,.468-1.67,1.508,1.508,0,0,1,1.262-.62,1.207,1.207,0,0,1,.991.43,2.016,2.016,0,0,1,.339,1.26v4.69h1.221v-5.11a2.381,2.381,0,0,0-4.261-1.46l-0.2.25a1.862,1.862,0,0,0-.4-0.59,2.079,2.079,0,0,0-1.554-.58,2.481,2.481,0,0,0-1.96.97l-0.251.33v-1.08h-1.161v7.27h0Zm-99.527,27.8h1.452l3.63-9.99h-1.494l-2.851,8.54h-0.007l-2.858-8.54h-1.5Zm5.748,0H184.4v-7.27h-1.221v7.27h0Zm-0.014-8.6h1.248v-1.39H183.16v1.39Zm2.5,8.6h1.221v-3.89a2.88,2.88,0,0,1,.516-1.81,1.663,1.663,0,0,1,1.4-.67,1.52,1.52,0,0,1,1.2.42,2.119,2.119,0,0,1,.37,1.39v4.56h1.221v-4.98a2.525,2.525,0,0,0-4.491-1.57l-0.272.36v-1.08h-1.16v7.27h0Zm11.725-2.61a2.357,2.357,0,0,1-.635,1.3,1.817,1.817,0,0,1-2.642-.24,3.657,3.657,0,0,1-.489-2.09,3.507,3.507,0,0,1,.526-2.05,1.687,1.687,0,0,1,1.448-.74,1.665,1.665,0,0,1,1.792,1.64h1.173a2.73,2.73,0,0,0-.834-1.98,3.321,3.321,0,0,0-4.488.33,4.154,4.154,0,0,0-.892,2.8,4.255,4.255,0,0,0,.861,2.8,2.854,2.854,0,0,0,2.307,1.04,2.94,2.94,0,0,0,2.076-.72,3.371,3.371,0,0,0,.97-2.09h-1.173Zm6.893,2.18a3.079,3.079,0,0,0,1.086-1.82H204.16a1.573,1.573,0,0,1-.637,1,1.931,1.931,0,0,1-1.221.4,1.877,1.877,0,0,1-1.627-.7,3.123,3.123,0,0,1-.5-1.65h5.3l0.015-.44a4.256,4.256,0,0,0-.875-2.79,2.859,2.859,0,0,0-2.3-1.06,3.15,3.15,0,0,0-2.507,1.09,4.309,4.309,0,0,0-.933,2.92,3.878,3.878,0,0,0,.882,2.7,3.1,3.1,0,0,0,2.422.98h0A3.324,3.324,0,0,0,204.282,2052.54Zm-4.1-3.76a2.77,2.77,0,0,1,.549-1.48,1.874,1.874,0,0,1,1.541-.72,1.757,1.757,0,0,1,1.452.62,2.757,2.757,0,0,1,.5,1.58H200.18Zm6.22,4.19h1.221v-3.89a2.88,2.88,0,0,1,.516-1.81,1.659,1.659,0,0,1,1.4-.67,1.522,1.522,0,0,1,1.2.42,2.125,2.125,0,0,1,.37,1.39v4.56h1.221v-4.98a2.526,2.526,0,0,0-4.492-1.57l-0.271.36v-1.08H206.4v7.27h0Zm9.838-.95H215.8a0.892,0.892,0,0,1-.519-0.14,0.459,0.459,0,0,1-.194-0.39v-4.79h1.147v-1h-1.147v-2.04H213.87v2.04h-1v1h1v4.79a1.787,1.787,0,0,0,.329,1.22,1.521,1.521,0,0,0,1.13.35,7.169,7.169,0,0,0,.909-0.09h0v-0.95Zm5.863,0.95h1.31l2.707-7.27h-1.347l-2.014,5.96h0l-1.947-5.96h-1.427Zm8.624-.62a2.53,2.53,0,0,0,.312-0.33,1.631,1.631,0,0,0,.292.72,1.237,1.237,0,0,0,1,.38,2.473,2.473,0,0,0,.332-0.04,3.741,3.741,0,0,0,.374-0.11v-0.89a2.294,2.294,0,0,1-.228.04,1.468,1.468,0,0,1-.159.02,0.426,0.426,0,0,1-.3-0.11,0.421,0.421,0,0,1-.112-0.3v-4a2.044,2.044,0,0,0-.692-1.67,3.1,3.1,0,0,0-2.015-.58,3.394,3.394,0,0,0-2.158.61,2.4,2.4,0,0,0-.841,1.79h1.126a1.531,1.531,0,0,1,.513-1.04,1.815,1.815,0,0,1,1.177-.35,2.014,2.014,0,0,1,1.228.33,1.07,1.07,0,0,1,.441.91v0.07a0.807,0.807,0,0,1-.129.46,0.619,0.619,0,0,1-.367.24,2.335,2.335,0,0,1-.386.07l-1.662.21a2.953,2.953,0,0,0-1.714.72,2.09,2.09,0,0,0-.587,1.56,1.975,1.975,0,0,0,.625,1.54,2.408,2.408,0,0,0,1.689.57h0a3.222,3.222,0,0,0,2.239-.82h0Zm0.271-1.82a1.5,1.5,0,0,1-.04.28,1.77,1.77,0,0,1-.6.82,2.548,2.548,0,0,1-1.628.53,1.154,1.154,0,0,1-1.276-1.27,0.92,0.92,0,0,1,.407-0.79,3.007,3.007,0,0,1,1.289-.41l1.12-.16a2.547,2.547,0,0,0,.753-0.23v0.79h0a4.189,4.189,0,0,1-.021.44h0Zm2.749,2.44h1.221v-3.89a2.88,2.88,0,0,1,.516-1.81,1.659,1.659,0,0,1,1.4-.67,1.522,1.522,0,0,1,1.2.42,2.125,2.125,0,0,1,.37,1.39v4.56h1.221v-4.98a2.526,2.526,0,0,0-4.492-1.57l-0.271.36v-1.08h-1.16v7.27h0Zm18.108-1.17,0.074-.09,0.326,1.26h0.841v-5.29h-4.366v1.14h3.126v0.12a3.969,3.969,0,0,1-.112.91,2.68,2.68,0,0,1-.274.74,3.445,3.445,0,0,1-.272.37,3.1,3.1,0,0,1-2.49,1.13,3,3,0,0,1-2.459-1.07,5.483,5.483,0,0,1,.03-5.98,2.888,2.888,0,0,1,2.361-1.13,3.438,3.438,0,0,1,2.009.54,2.322,2.322,0,0,1,.963,1.53h1.3a3.5,3.5,0,0,0-1.381-2.35,4.449,4.449,0,0,0-2.812-.92,4.4,4.4,0,0,0-3.427,1.46,6.25,6.25,0,0,0-.027,7.62,4.266,4.266,0,0,0,3.358,1.46h0a4.046,4.046,0,0,0,3.229-1.45h0Zm5.579,1.37a3.089,3.089,0,0,0,2.449-1.06,4.635,4.635,0,0,0,0-5.57,3.348,3.348,0,0,0-4.888,0,4.623,4.623,0,0,0,0,5.57,3.084,3.084,0,0,0,2.439,1.06h0Zm0-1.05a1.8,1.8,0,0,1-1.53-.76,3.917,3.917,0,0,1,0-4.06,1.923,1.923,0,0,1,3.063,0,3.9,3.9,0,0,1,0,4.06,1.81,1.81,0,0,1-1.533.76h0Zm5.825,2.6a1.406,1.406,0,0,1-.519-0.9H261.49a2.417,2.417,0,0,0,.875,1.65,3.093,3.093,0,0,0,1.961.58,3.284,3.284,0,0,0,2.523-.89,3.911,3.911,0,0,0,.828-2.72v-6.74h-1.146v1.05l-0.089-.13a2.382,2.382,0,0,0-2.076-1.14,2.767,2.767,0,0,0-2.218,1.01,3.952,3.952,0,0,0-.848,2.64,4.639,4.639,0,0,0,.861,2.95,2.8,2.8,0,0,0,2.321,1.09,2.383,2.383,0,0,0,1.967-.96l0.007-.01v0.24a2.958,2.958,0,0,1-.55,1.93,1.964,1.964,0,0,1-1.6.66h0A1.671,1.671,0,0,1,263.257,2054.72Zm2.768-7.35a4.356,4.356,0,0,1,.492,2.31,2.69,2.69,0,0,1-.543,1.76,1.742,1.742,0,0,1-1.431.67,1.681,1.681,0,0,1-1.456-.72,4.6,4.6,0,0,1-.04-4.14,1.731,1.731,0,0,1,1.5-.65A1.648,1.648,0,0,1,266.025,2047.37Zm2.793,5.6h1.221v-3.89a2.779,2.779,0,0,1,.543-1.81,1.776,1.776,0,0,1,1.465-.67,1.4,1.4,0,0,1,1.126.4,1.959,1.959,0,0,1,.346,1.3v4.67h1.222v-4.98a2.526,2.526,0,0,0-4.492-1.57l-0.21.27v-3.71h-1.221v9.99h0Zm-94.268,27.81h4.077a4.019,4.019,0,0,0,2.65-.79,2.659,2.659,0,0,0,.953-2.17,2.3,2.3,0,0,0-.977-1.98,3.093,3.093,0,0,0-.862-0.44,2.537,2.537,0,0,0,.455-0.28,2.318,2.318,0,0,0,.923-1.95,2.129,2.129,0,0,0-.781-1.72,3.074,3.074,0,0,0-2.055-.66H174.55v9.99h0Zm1.35-8.84h2.585a2.5,2.5,0,0,1,1.472.35,1.292,1.292,0,0,1,.468,1.1,1.511,1.511,0,0,1-.509,1.26,2.652,2.652,0,0,1-1.608.39H175.9v-3.1h0Zm0,4.2h2.653a3.157,3.157,0,0,1,1.77.39,1.39,1.39,0,0,1,.564,1.23,1.741,1.741,0,0,1-.54,1.42,2.693,2.693,0,0,1-1.7.44H175.9v-3.48h0Zm12.287,4.21a3.075,3.075,0,0,0,1.086-1.83h-1.208a1.6,1.6,0,0,1-.637,1.01,1.984,1.984,0,0,1-1.221.39,1.9,1.9,0,0,1-1.627-.69,3.141,3.141,0,0,1-.5-1.66h5.3l0.015-.43a4.256,4.256,0,0,0-.875-2.79,2.828,2.828,0,0,0-2.3-1.06,3.144,3.144,0,0,0-2.507,1.08,4.344,4.344,0,0,0-.933,2.92,3.905,3.905,0,0,0,.882,2.71,3.1,3.1,0,0,0,2.422.98h0A3.324,3.324,0,0,0,188.187,2080.35Zm-4.1-3.76a2.773,2.773,0,0,1,.549-1.49,1.874,1.874,0,0,1,1.541-.72,1.735,1.735,0,0,1,1.452.63,2.732,2.732,0,0,1,.5,1.58h-4.044Zm10.962,3.42,0.156-.22v0.99h1.133v-9.99h-1.221v3.77l-0.095-.14a2.452,2.452,0,0,0-2.117-1.13,2.7,2.7,0,0,0-2.178,1.01,4,4,0,0,0-.834,2.64,4.633,4.633,0,0,0,.862,2.95,2.82,2.82,0,0,0,2.32,1.09h0a2.4,2.4,0,0,0,1.974-.97h0Zm-0.444-4.81a4.26,4.26,0,0,1,.512,2.29,2.738,2.738,0,0,1-.543,1.77,1.742,1.742,0,0,1-1.431.67,1.671,1.671,0,0,1-1.462-.73,3.539,3.539,0,0,1-.513-2.07,3.579,3.579,0,0,1,.475-2.08,1.723,1.723,0,0,1,1.5-.66A1.633,1.633,0,0,1,194.6,2075.2Zm3.043,5.58h1.222v-3.89a2.443,2.443,0,0,1,.539-1.7,1.952,1.952,0,0,1,1.53-.6l0.251,0.01v-1.25a1.073,1.073,0,0,0-.346-0.06,2.06,2.06,0,0,0-1.7.93,4.694,4.694,0,0,0-.332.53v-1.24h-1.161v7.27h0Zm6.86,0.2a3.123,3.123,0,0,0,2.45-1.06,4.639,4.639,0,0,0,0-5.57,3.349,3.349,0,0,0-4.889,0,4.623,4.623,0,0,0,0,5.57,3.116,3.116,0,0,0,2.439,1.06h0Zm0-1.06a1.818,1.818,0,0,1-1.53-.75,3.941,3.941,0,0,1,0-4.07,1.924,1.924,0,0,1,3.064,0,3.918,3.918,0,0,1,0,4.07,1.828,1.828,0,0,1-1.534.75h0Zm7.172,1.06a3.12,3.12,0,0,0,2.449-1.06,4.635,4.635,0,0,0,0-5.57,3.348,3.348,0,0,0-4.888,0,4.623,4.623,0,0,0,0,5.57,3.116,3.116,0,0,0,2.439,1.06h0Zm0-1.06a1.818,1.818,0,0,1-1.53-.75,3.941,3.941,0,0,1,0-4.07,1.924,1.924,0,0,1,3.064,0,3.924,3.924,0,0,1,0,4.07,1.828,1.828,0,0,1-1.534.75h0Zm4.214,0.86h1.221v-3.89a2.906,2.906,0,0,1,.519-1.79,1.61,1.61,0,0,1,1.334-.7,1.117,1.117,0,0,1,.9.36,1.541,1.541,0,0,1,.309,1.04v4.98h1.221v-4.09a2.715,2.715,0,0,1,.469-1.67,1.507,1.507,0,0,1,1.262-.62,1.2,1.2,0,0,1,.99.43,2.016,2.016,0,0,1,.339,1.26v4.69h1.222v-5.1a2.381,2.381,0,0,0-4.261-1.47l-0.2.25a1.862,1.862,0,0,0-.4-0.59,2.082,2.082,0,0,0-1.554-.58,2.481,2.481,0,0,0-1.961.97l-0.251.33v-1.08h-1.16v7.27h0Zm14.364,0h1.222v-7.27h-1.222v7.27h0Zm-0.013-8.6h1.248v-1.39h-1.248v1.39Zm2.5,8.6h1.221v-3.89a2.911,2.911,0,0,1,.516-1.82,1.686,1.686,0,0,1,1.4-.67,1.525,1.525,0,0,1,1.2.43,2.076,2.076,0,0,1,.37,1.38v4.57h1.221v-4.98a2.269,2.269,0,0,0-2.5-2.51,2.508,2.508,0,0,0-1.988.93l-0.271.36v-1.07h-1.16v7.27h0Zm9.771,0h1.392l1.048-2.9h3.982l1.017,2.9h1.449l-3.582-9.99h-1.541l-3.765,9.99h0Zm4.474-8.52h0l1.538,4.43h-3.139l1.6-4.43h0Zm5.113,8.52h1.221v-3.89a2.443,2.443,0,0,1,.54-1.7,1.949,1.949,0,0,1,1.53-.6l0.251,0.01v-1.25a1.073,1.073,0,0,0-.346-0.06,2.06,2.06,0,0,0-1.7.93,4.7,4.7,0,0,0-.333.53v-1.24h-1.16v7.27h0Zm3.929,0h1.221v-9.99h-1.221v9.99h0Zm7.559-.43a3.074,3.074,0,0,0,1.085-1.83h-1.207a1.6,1.6,0,0,1-.638,1.01,1.983,1.983,0,0,1-1.22.39,1.9,1.9,0,0,1-1.628-.69,3.141,3.141,0,0,1-.5-1.66h5.3l0.014-.43a4.251,4.251,0,0,0-.875-2.79,2.827,2.827,0,0,0-2.3-1.06,3.145,3.145,0,0,0-2.507,1.08,4.344,4.344,0,0,0-.933,2.92,3.905,3.905,0,0,0,.882,2.71,3.1,3.1,0,0,0,2.422.98h0A3.329,3.329,0,0,0,263.593,2080.35Zm-4.1-3.76a2.774,2.774,0,0,1,.55-1.49,1.872,1.872,0,0,1,1.54-.72,1.735,1.735,0,0,1,1.452.63,2.724,2.724,0,0,1,.5,1.58H259.49Zm11.524-.98a2.218,2.218,0,0,0-.8-1.7,3.087,3.087,0,0,0-2.018-.62,3.018,3.018,0,0,0-1.977.6,2.008,2.008,0,0,0-.729,1.63,1.655,1.655,0,0,0,.435,1.22,2.949,2.949,0,0,0,1.459.69l1.262,0.3a3.637,3.637,0,0,1,1.12.39,0.671,0.671,0,0,1,.278.58,1.062,1.062,0,0,1-.424.91,2.074,2.074,0,0,1-1.246.31,2.331,2.331,0,0,1-1.4-.34,1.564,1.564,0,0,1-.546-1.13h-1.174a2.55,2.55,0,0,0,.835,1.92,3.628,3.628,0,0,0,2.286.61,3.185,3.185,0,0,0,2.1-.64,2.085,2.085,0,0,0,.777-1.71,1.707,1.707,0,0,0-.449-1.26,3.226,3.226,0,0,0-1.514-.71l-1.262-.3a3.6,3.6,0,0,1-1.106-.39,0.675,0.675,0,0,1-.278-0.59,0.868,0.868,0,0,1,.4-0.77,2.055,2.055,0,0,1,1.157-.27,1.847,1.847,0,0,1,1.177.34,1.25,1.25,0,0,1,.493.93h1.146Z"/>
  </g>
</svg>
