<svg id="Dada" xmlns="http://www.w3.org/2000/svg" width="3000" height="3000" viewBox="0 0 3000 3000">
  <defs>
    <style>
      .cls-1 {
        fill: #575861;
      }

      .cls-2 {
        fill: #e4e1da;
      }

      .cls-2, .cls-3 {
        fill-rule: evenodd;
      }

      .cls-3 {
        fill: #31323d;
      }
    </style>
  </defs>
  <g id="dada-placard-americangothic">
    <rect id="Rectangle_2_copy" data-name="Rectangle 2 copy" class="cls-1" x="155" y="1980" width="291" height="187"/>
    <path id="Rectangle_2_copy_2" data-name="Rectangle 2 copy 2" class="cls-2" d="M159.98,1984.99H441.02v177.02H159.98V1984.99Z"/>
    <path id="dada.nyc" class="cls-3" d="M187.636,2123.36l0.415-.6v2.64h3.012v-26.56h-3.246v10.03l-0.253-.36a6.475,6.475,0,0,0-5.628-3.02,7.169,7.169,0,0,0-5.79,2.67,10.673,10.673,0,0,0-2.218,7.03,12.281,12.281,0,0,0,2.29,7.83,7.434,7.434,0,0,0,6.169,2.9h0a6.337,6.337,0,0,0,5.249-2.56h0Zm-1.181-12.8a11.359,11.359,0,0,1,1.362,6.09,7.251,7.251,0,0,1-1.443,4.71,4.651,4.651,0,0,1-3.806,1.78,4.465,4.465,0,0,1-3.888-1.93,9.5,9.5,0,0,1-1.361-5.51q0-3.795,1.262-5.54a4.594,4.594,0,0,1,3.987-1.74A4.34,4.34,0,0,1,186.455,2110.56Zm17.2,13.18a7.322,7.322,0,0,0,.83-0.87,4.282,4.282,0,0,0,.776,1.9,3.271,3.271,0,0,0,2.669,1.01,4.679,4.679,0,0,0,.884-0.11,6.139,6.139,0,0,0,.992-0.29v-2.35a5.2,5.2,0,0,1-.6.11c-0.187.02-.328,0.04-0.424,0.04a1.081,1.081,0,0,1-.8-0.3,1.069,1.069,0,0,1-.3-0.79v-10.62a5.442,5.442,0,0,0-1.84-4.45,8.189,8.189,0,0,0-5.357-1.53,8.978,8.978,0,0,0-5.736,1.6,6.38,6.38,0,0,0-2.237,4.78H195.5a4.117,4.117,0,0,1,1.362-2.78,4.783,4.783,0,0,1,3.13-.93,5.384,5.384,0,0,1,3.265.88,2.854,2.854,0,0,1,1.172,2.43v0.16a2.063,2.063,0,0,1-.343,1.23,1.629,1.629,0,0,1-.974.65,5.555,5.555,0,0,1-1.028.18l-4.419.56a7.622,7.622,0,0,0-4.555,1.92,5.526,5.526,0,0,0-1.56,4.13,5.3,5.3,0,0,0,1.66,4.11,6.4,6.4,0,0,0,4.491,1.51h0a8.618,8.618,0,0,0,5.952-2.18h0Zm0.722-4.85a3.767,3.767,0,0,1-.108.75,4.742,4.742,0,0,1-1.606,2.2,6.767,6.767,0,0,1-4.329,1.39,3.386,3.386,0,0,1-2.507-.88,3.348,3.348,0,0,1-.884-2.5,2.413,2.413,0,0,1,1.082-2.08,7.89,7.89,0,0,1,3.428-1.1l2.976-.43a6.957,6.957,0,0,0,2-.6v2.1h0a11.1,11.1,0,0,1-.054,1.15h0Zm18.437,4.47,0.415-.6v2.64h3.012v-26.56H223v10.03l-0.252-.36a6.475,6.475,0,0,0-5.628-3.02,7.169,7.169,0,0,0-5.79,2.67,10.673,10.673,0,0,0-2.218,7.03,12.281,12.281,0,0,0,2.29,7.83,7.434,7.434,0,0,0,6.169,2.9h0a6.337,6.337,0,0,0,5.249-2.56h0Zm-1.181-12.8a11.36,11.36,0,0,1,1.361,6.09,7.245,7.245,0,0,1-1.443,4.71,4.648,4.648,0,0,1-3.8,1.78,4.465,4.465,0,0,1-3.888-1.93,9.5,9.5,0,0,1-1.361-5.51q0-3.795,1.262-5.54a4.594,4.594,0,0,1,3.987-1.74A4.34,4.34,0,0,1,221.634,2110.56Zm17.2,13.18a7.322,7.322,0,0,0,.83-0.87,4.282,4.282,0,0,0,.776,1.9,3.271,3.271,0,0,0,2.669,1.01,4.679,4.679,0,0,0,.884-0.11,6.139,6.139,0,0,0,.992-0.29v-2.35a5.2,5.2,0,0,1-.6.11c-0.187.02-.328,0.04-0.424,0.04a1.081,1.081,0,0,1-.8-0.3,1.069,1.069,0,0,1-.3-0.79v-10.62a5.442,5.442,0,0,0-1.84-4.45,8.189,8.189,0,0,0-5.357-1.53,8.978,8.978,0,0,0-5.736,1.6,6.38,6.38,0,0,0-2.237,4.78h2.994a4.117,4.117,0,0,1,1.362-2.78,4.783,4.783,0,0,1,3.13-.93,5.384,5.384,0,0,1,3.265.88,2.854,2.854,0,0,1,1.172,2.43v0.16a2.063,2.063,0,0,1-.343,1.23,1.629,1.629,0,0,1-.974.65,5.555,5.555,0,0,1-1.028.18l-4.419.56a7.622,7.622,0,0,0-4.555,1.92,5.526,5.526,0,0,0-1.56,4.13,5.3,5.3,0,0,0,1.66,4.11,6.4,6.4,0,0,0,4.491,1.51h0a8.618,8.618,0,0,0,5.952-2.18h0Zm0.722-4.85a3.767,3.767,0,0,1-.108.75,4.742,4.742,0,0,1-1.606,2.2,6.767,6.767,0,0,1-4.329,1.39,3.386,3.386,0,0,1-2.507-.88,3.348,3.348,0,0,1-.884-2.5,2.413,2.413,0,0,1,1.082-2.08,7.89,7.89,0,0,1,3.428-1.1l2.976-.43a6.957,6.957,0,0,0,2-.6v2.1h0a11.1,11.1,0,0,1-.054,1.15h0Zm6.641,6.51h3.86v-3.92H246.2v3.92Zm6.5,0h3.247v-10.35a7.706,7.706,0,0,1,1.371-4.82,4.457,4.457,0,0,1,3.715-1.78,4.028,4.028,0,0,1,3.184,1.13,5.56,5.56,0,0,1,.983,3.68v12.14h3.247v-13.24a6.731,6.731,0,0,0-11.941-4.2l-0.722.96v-2.85h-3.084v19.33h0Zm33.246-19.33h-3.556l-5.227,15.99h0l-5.153-15.99H268.3l7.162,19.65v0.01l-0.054.3a13.153,13.153,0,0,1-1.677,3.38,2.29,2.29,0,0,1-1.84.9,5.712,5.712,0,0,1-1.858-.28v3.01a4.862,4.862,0,0,0,1.569.2,5.308,5.308,0,0,0,3.977-1.37c0.884-.92,1.891-2.86,3.021-5.84l7.341-19.96h0Zm11.962,12.37a6.179,6.179,0,0,1-1.687,3.46,4.838,4.838,0,0,1-7.025-.64,9.712,9.712,0,0,1-1.3-5.55,9.285,9.285,0,0,1,1.4-5.44,4.46,4.46,0,0,1,3.851-1.98,4.723,4.723,0,0,1,3.319,1.14,4.791,4.791,0,0,1,1.443,3.21h3.12a7.218,7.218,0,0,0-2.218-5.24,7.851,7.851,0,0,0-5.556-1.91,7.956,7.956,0,0,0-6.376,2.77,11.089,11.089,0,0,0-2.372,7.45,11.312,11.312,0,0,0,2.291,7.45,7.561,7.561,0,0,0,6.132,2.76,7.844,7.844,0,0,0,5.52-1.91,8.965,8.965,0,0,0,2.579-5.57H297.9Z"/>
    <path id="Betunski_Grant_Wood_American_Gothic" data-name="Betunski Grant Wood American Gothic" class="cls-3" d="M174.55,2025.17h4.077a4.019,4.019,0,0,0,2.65-.79,2.659,2.659,0,0,0,.953-2.17,2.3,2.3,0,0,0-.977-1.98,3.093,3.093,0,0,0-.862-0.44,2.537,2.537,0,0,0,.455-0.28,2.318,2.318,0,0,0,.923-1.95,2.162,2.162,0,0,0-.781-1.73,3.123,3.123,0,0,0-2.055-.65H174.55v9.99h0Zm1.35-8.84h2.585a2.5,2.5,0,0,1,1.472.35,1.292,1.292,0,0,1,.468,1.1,1.477,1.477,0,0,1-.509,1.25,2.58,2.58,0,0,1-1.608.4H175.9v-3.1h0Zm0,4.2h2.653a3.157,3.157,0,0,1,1.77.39,1.39,1.39,0,0,1,.564,1.23,1.719,1.719,0,0,1-.54,1.41,2.628,2.628,0,0,1-1.7.45H175.9v-3.48h0Zm12.287,4.21a3.075,3.075,0,0,0,1.086-1.83h-1.208a1.621,1.621,0,0,1-.637,1.01,1.984,1.984,0,0,1-1.221.39,1.9,1.9,0,0,1-1.627-.69,3.141,3.141,0,0,1-.5-1.66h5.3l0.015-.43a4.238,4.238,0,0,0-.875-2.79,2.828,2.828,0,0,0-2.3-1.06,3.144,3.144,0,0,0-2.507,1.08,4.344,4.344,0,0,0-.933,2.92,3.922,3.922,0,0,0,.882,2.71,3.1,3.1,0,0,0,2.422.98h0A3.324,3.324,0,0,0,188.187,2024.74Zm-4.1-3.76a2.773,2.773,0,0,1,.549-1.49,1.874,1.874,0,0,1,1.541-.72,1.735,1.735,0,0,1,1.452.63,2.707,2.707,0,0,1,.5,1.58h-4.044Zm8.886,3.24h-0.434a0.825,0.825,0,0,1-.519-0.15,0.44,0.44,0,0,1-.193-0.38v-4.79h1.146v-1h-1.146v-2.04H190.6v2.04h-1v1h1v4.79a1.758,1.758,0,0,0,.329,1.21,1.481,1.481,0,0,0,1.13.36,7.7,7.7,0,0,0,.909-0.1h0v-0.94Zm1.9-6.32H193.65v4.99a2.188,2.188,0,0,0,2.47,2.48,2.457,2.457,0,0,0,1.954-.94,2.667,2.667,0,0,0,.271-0.37v1.11h1.16v-7.27h-1.221v3.88a3.011,3.011,0,0,1-.515,1.85,1.671,1.671,0,0,1-1.4.68,1.447,1.447,0,0,1-1.147-.4,2,2,0,0,1-.353-1.32v-4.69h0Zm5.91,7.27H202v-3.9a2.906,2.906,0,0,1,.515-1.81,1.689,1.689,0,0,1,1.4-.67,1.521,1.521,0,0,1,1.2.43,2.07,2.07,0,0,1,.37,1.38v4.57H206.7v-4.98a2.531,2.531,0,0,0-4.491-1.58l-0.271.36v-1.07h-1.161v7.27h0Zm12.476-5.17a2.215,2.215,0,0,0-.8-1.7,3.084,3.084,0,0,0-2.017-.62,3.023,3.023,0,0,0-1.978.6,2,2,0,0,0-.729,1.63,1.651,1.651,0,0,0,.436,1.22,3.028,3.028,0,0,0,1.459.69l1.262,0.3a3.628,3.628,0,0,1,1.119.39,0.659,0.659,0,0,1,.278.58,1.059,1.059,0,0,1-.424.91,2.074,2.074,0,0,1-1.246.31,2.331,2.331,0,0,1-1.4-.34,1.583,1.583,0,0,1-.546-1.13H207.5a2.557,2.557,0,0,0,.835,1.92,3.629,3.629,0,0,0,2.287.61,3.241,3.241,0,0,0,2.1-.64,2.085,2.085,0,0,0,.777-1.71,1.7,1.7,0,0,0-.45-1.26,3.222,3.222,0,0,0-1.513-.71l-1.263-.3a3.608,3.608,0,0,1-1.106-.39,0.677,0.677,0,0,1-.278-0.59,0.856,0.856,0,0,1,.4-0.77,2.057,2.057,0,0,1,1.157-.27,1.852,1.852,0,0,1,1.178.34,1.246,1.246,0,0,1,.492.93h1.146Zm1.115,5.17h1.222v-2.76l0.956-.94,2.257,3.7h1.59l-2.944-4.58,2.761-2.69h-1.555l-3.065,3.04v-5.76h-1.222v9.99h0Zm6.406,0H222v-7.27h-1.221v7.27h0Zm-0.014-8.61h1.248v-1.38h-1.248v1.38Zm-38.712,35.24,0.075-.09,0.325,1.26h0.841v-5.29h-4.366v1.14h3.127v0.12a4.025,4.025,0,0,1-.112.91,2.678,2.678,0,0,1-.275.74,3.436,3.436,0,0,1-.271.37,3.108,3.108,0,0,1-2.49,1.13,3,3,0,0,1-2.46-1.07,5.483,5.483,0,0,1,.03-5.98,2.888,2.888,0,0,1,2.362-1.13,3.435,3.435,0,0,1,2.008.54,2.315,2.315,0,0,1,.963,1.53h1.3a3.5,3.5,0,0,0-1.381-2.35,4.449,4.449,0,0,0-2.812-.92,4.4,4.4,0,0,0-3.426,1.46,6.249,6.249,0,0,0-.028,7.62,4.266,4.266,0,0,0,3.358,1.46h0a4.046,4.046,0,0,0,3.229-1.45h0Zm2.791,1.17h1.221v-3.89a2.465,2.465,0,0,1,.539-1.7,1.981,1.981,0,0,1,1.53-.59l0.251,0.01v-1.25a0.87,0.87,0,0,0-.346-0.07,2.048,2.048,0,0,0-1.7.94,3.472,3.472,0,0,0-.332.53v-1.25h-1.16v7.27h0Zm8.054-.62a2.673,2.673,0,0,0,.312-0.33,1.631,1.631,0,0,0,.291.72,1.238,1.238,0,0,0,1,.38,2.473,2.473,0,0,0,.332-0.04,3.8,3.8,0,0,0,.373-0.11v-0.89a2.228,2.228,0,0,1-.227.04,1.451,1.451,0,0,1-.16.02,0.383,0.383,0,0,1-.413-0.41v-4a2.044,2.044,0,0,0-.692-1.67,3.105,3.105,0,0,0-2.016-.58,3.391,3.391,0,0,0-2.157.61,2.4,2.4,0,0,0-.841,1.79h1.126a1.531,1.531,0,0,1,.512-1.04,1.817,1.817,0,0,1,1.177-.35,2.012,2.012,0,0,1,1.228.33,1.07,1.07,0,0,1,.441.91v0.07a0.807,0.807,0,0,1-.129.46,0.62,0.62,0,0,1-.366.24,2.329,2.329,0,0,1-.387.07l-1.662.21a2.947,2.947,0,0,0-1.713.72,2.09,2.09,0,0,0-.587,1.56,1.978,1.978,0,0,0,.624,1.54,2.409,2.409,0,0,0,1.69.57h0a3.222,3.222,0,0,0,2.239-.82h0Zm0.271-1.82a1.484,1.484,0,0,1-.041.28,1.763,1.763,0,0,1-.6.82,2.548,2.548,0,0,1-1.628.53,1.154,1.154,0,0,1-1.275-1.27,0.918,0.918,0,0,1,.407-0.79,3.007,3.007,0,0,1,1.289-.41l1.119-.16a2.547,2.547,0,0,0,.753-0.23v0.79h0a4.206,4.206,0,0,1-.02.44h0Zm2.748,2.44h1.222v-3.89a2.88,2.88,0,0,1,.515-1.81,1.663,1.663,0,0,1,1.4-.67,1.518,1.518,0,0,1,1.2.42,2.119,2.119,0,0,1,.37,1.39v4.56h1.221v-4.98a2.525,2.525,0,0,0-4.491-1.57l-0.272.36v-1.08h-1.16v7.27h0Zm9.839-.95H205.32a0.892,0.892,0,0,1-.519-0.14,0.458,0.458,0,0,1-.193-0.39v-4.79h1.147v-1h-1.147v-2.04h-1.221v2.04h-1v1h1v4.79a1.782,1.782,0,0,0,.329,1.22,1.518,1.518,0,0,0,1.129.35,7.2,7.2,0,0,0,.91-0.09h0v-0.95Zm6.6,0.95h0.726l2.115-7.72c0.036-.13.066-0.26,0.088-0.38a1.656,1.656,0,0,0,.034-0.28h0a1.507,1.507,0,0,0,.041.27c0.027,0.13.058,0.26,0.095,0.39l2.164,7.72h1.452l2.612-9.99h-1.452l-1.8,7.86q-0.048.195-.078,0.39a1.894,1.894,0,0,0-.031.26h0a1.777,1.777,0,0,0-.034-0.28,3.542,3.542,0,0,0-.088-0.37l-2.1-7.86h-1.52l-2.11,7.9c-0.032.12-.059,0.24-0.082,0.36a1.675,1.675,0,0,0-.034.27h0a1.753,1.753,0,0,0-.03-0.25c-0.02-.12-0.047-0.25-0.078-0.38l-1.778-7.9h-1.459l2.612,9.99h0.726Zm12.858,0.2a3.089,3.089,0,0,0,2.449-1.06,4.635,4.635,0,0,0,0-5.57,3.348,3.348,0,0,0-4.888,0,4.623,4.623,0,0,0,0,5.57,3.084,3.084,0,0,0,2.439,1.06h0Zm0-1.05a1.8,1.8,0,0,1-1.53-.76,3.917,3.917,0,0,1,0-4.06,1.923,1.923,0,0,1,3.063,0,3.9,3.9,0,0,1,0,4.06,1.81,1.81,0,0,1-1.533.76h0Zm7.172,1.05a3.089,3.089,0,0,0,2.449-1.06,4.635,4.635,0,0,0,0-5.57,3.348,3.348,0,0,0-4.888,0,4.623,4.623,0,0,0,0,5.57,3.083,3.083,0,0,0,2.439,1.06h0Zm0-1.05a1.8,1.8,0,0,1-1.53-.76,3.917,3.917,0,0,1,0-4.06,1.923,1.923,0,0,1,3.063,0,3.9,3.9,0,0,1,0,4.06,1.81,1.81,0,0,1-1.533.76h0Zm8.956,0.09,0.156-.23v0.99h1.133v-9.99h-1.221v3.78l-0.095-.14a2.439,2.439,0,0,0-2.117-1.14,2.7,2.7,0,0,0-2.178,1.01,4,4,0,0,0-.834,2.64,4.639,4.639,0,0,0,.861,2.95,2.8,2.8,0,0,0,2.321,1.09h0a2.389,2.389,0,0,0,1.974-.96h0Zm-0.444-4.82a4.284,4.284,0,0,1,.512,2.29,2.7,2.7,0,0,1-.543,1.77,1.742,1.742,0,0,1-1.431.67,1.688,1.688,0,0,1-1.463-.72,4.631,4.631,0,0,1-.037-4.16,1.717,1.717,0,0,1,1.5-.65A1.624,1.624,0,0,1,240.9,2047.39Zm-67.184,33.39h1.393l1.047-2.9h3.983l1.016,2.9H182.6l-3.582-9.99h-1.54l-3.766,9.99h0Zm4.474-8.52h0l1.538,4.43h-3.139l1.6-4.43h0Zm4.944,8.52h1.221v-3.89a2.906,2.906,0,0,1,.519-1.79,1.609,1.609,0,0,1,1.333-.7,1.119,1.119,0,0,1,.9.36,1.541,1.541,0,0,1,.309,1.04v4.98h1.221v-4.09a2.721,2.721,0,0,1,.468-1.67,1.508,1.508,0,0,1,1.262-.62,1.2,1.2,0,0,1,.991.43,2.016,2.016,0,0,1,.339,1.26v4.69h1.221v-5.1a2.38,2.38,0,0,0-4.26-1.47l-0.2.25a1.879,1.879,0,0,0-.4-0.59,2.082,2.082,0,0,0-1.554-.58,2.481,2.481,0,0,0-1.961.97l-0.251.33v-1.08h-1.16v7.27h0Zm16.073-.43a3.075,3.075,0,0,0,1.086-1.83h-1.208a1.6,1.6,0,0,1-.637,1.01,1.984,1.984,0,0,1-1.221.39,1.9,1.9,0,0,1-1.627-.69,3.123,3.123,0,0,1-.495-1.66h5.3l0.015-.43a4.256,4.256,0,0,0-.875-2.79,2.83,2.83,0,0,0-2.3-1.06,3.142,3.142,0,0,0-2.507,1.08,4.344,4.344,0,0,0-.933,2.92,3.905,3.905,0,0,0,.882,2.71,3.1,3.1,0,0,0,2.422.98h0A3.324,3.324,0,0,0,199.206,2080.35Zm-4.1-3.76a2.773,2.773,0,0,1,.549-1.49,1.874,1.874,0,0,1,1.541-.72,1.735,1.735,0,0,1,1.452.63,2.732,2.732,0,0,1,.5,1.58H195.1Zm6.389,4.19h1.222v-3.89a2.443,2.443,0,0,1,.539-1.7,1.951,1.951,0,0,1,1.53-.6l0.251,0.01v-1.25a1.073,1.073,0,0,0-.346-0.06,2.06,2.06,0,0,0-1.7.93,4.556,4.556,0,0,0-.332.53v-1.24h-1.161v7.27h0Zm3.943,0h1.221v-7.27h-1.221v7.27h0Zm-0.014-8.6h1.249v-1.39h-1.249v1.39Zm7.057,5.98a2.317,2.317,0,0,1-.635,1.3,1.817,1.817,0,0,1-2.642-.24,3.621,3.621,0,0,1-.489-2.08,3.493,3.493,0,0,1,.526-2.05,1.675,1.675,0,0,1,1.449-.75,1.665,1.665,0,0,1,1.791,1.64h1.174a2.711,2.711,0,0,0-.835-1.97,2.961,2.961,0,0,0-2.09-.72,3.009,3.009,0,0,0-2.4,1.04,4.182,4.182,0,0,0-.892,2.81,4.274,4.274,0,0,0,.861,2.8,2.854,2.854,0,0,0,2.307,1.04,2.94,2.94,0,0,0,2.076-.72,3.379,3.379,0,0,0,.971-2.1h-1.174Zm5.991,1.99a2.467,2.467,0,0,0,.312-0.32,1.587,1.587,0,0,0,.292.71,1.237,1.237,0,0,0,1,.38,1.5,1.5,0,0,0,.333-0.04,2.209,2.209,0,0,0,.373-0.11v-0.88a2.277,2.277,0,0,1-.227.04,1.07,1.07,0,0,1-.16.01,0.382,0.382,0,0,1-.414-0.4v-4a2.075,2.075,0,0,0-.692-1.68,3.1,3.1,0,0,0-2.015-.57,3.391,3.391,0,0,0-2.157.6,2.4,2.4,0,0,0-.842,1.8H215.4a1.526,1.526,0,0,1,.512-1.04,1.76,1.76,0,0,1,1.177-.35,2.012,2.012,0,0,1,1.228.33,1.07,1.07,0,0,1,.441.91v0.06a0.764,0.764,0,0,1-.129.46,0.591,0.591,0,0,1-.366.25c-0.122.03-.251,0.05-0.387,0.07l-1.662.21a2.824,2.824,0,0,0-1.713.72,2.063,2.063,0,0,0-.587,1.55,2.015,2.015,0,0,0,.624,1.55,2.408,2.408,0,0,0,1.689.57h0a3.228,3.228,0,0,0,2.239-.83h0Zm0.272-1.82a1.36,1.36,0,0,1-.041.28,1.746,1.746,0,0,1-.6.83,2.542,2.542,0,0,1-1.628.52,1.28,1.28,0,0,1-.943-0.33,1.26,1.26,0,0,1-.333-0.94,0.9,0.9,0,0,1,.407-0.78,3.012,3.012,0,0,1,1.289-.41l1.12-.17a2.539,2.539,0,0,0,.753-0.22v0.79h0a4.287,4.287,0,0,1-.02.43h0Zm2.748,2.45h1.221v-3.89a2.911,2.911,0,0,1,.516-1.82,1.687,1.687,0,0,1,1.4-.67,1.525,1.525,0,0,1,1.2.43,2.076,2.076,0,0,1,.37,1.38v4.57h1.221v-4.98a2.269,2.269,0,0,0-2.5-2.51,2.5,2.5,0,0,0-1.987.93l-0.272.36v-1.07h-1.16v7.27h0Zm18.108-1.18,0.074-.09,0.326,1.26h0.841v-5.28h-4.366v1.14H239.6v0.12a3.941,3.941,0,0,1-.112.9,2.476,2.476,0,0,1-.275.74,2.857,2.857,0,0,1-.271.38,3.108,3.108,0,0,1-2.491,1.13,3,3,0,0,1-2.459-1.07,5.5,5.5,0,0,1,.03-5.99,2.888,2.888,0,0,1,2.361-1.13,3.436,3.436,0,0,1,2.009.54,2.32,2.32,0,0,1,.963,1.54h1.3a3.542,3.542,0,0,0-1.381-2.36,4.442,4.442,0,0,0-2.812-.91,4.386,4.386,0,0,0-3.426,1.45,5.488,5.488,0,0,0-1.31,3.82,5.55,5.55,0,0,0,1.282,3.81,4.258,4.258,0,0,0,3.358,1.45h0a4.016,4.016,0,0,0,3.229-1.45h0Zm5.579,1.38a3.121,3.121,0,0,0,2.449-1.06,4.635,4.635,0,0,0,0-5.57,3.348,3.348,0,0,0-4.888,0,4.623,4.623,0,0,0,0,5.57,3.116,3.116,0,0,0,2.439,1.06h0Zm0-1.06a1.818,1.818,0,0,1-1.53-.75,3.935,3.935,0,0,1,0-4.07,1.923,1.923,0,0,1,3.063,0,3.918,3.918,0,0,1,0,4.07,1.826,1.826,0,0,1-1.533.75h0Zm6.88-.09h-0.434a0.825,0.825,0,0,1-.519-0.15,0.44,0.44,0,0,1-.193-0.38v-4.79h1.146v-1h-1.146v-2.04h-1.222v2.04h-1v1h1v4.79a1.758,1.758,0,0,0,.329,1.21,1.481,1.481,0,0,0,1.13.36,6,6,0,0,0,.909-0.1h0v-0.94Zm0.638,0.95h1.222v-3.89a2.814,2.814,0,0,1,.542-1.82,1.808,1.808,0,0,1,1.466-.67,1.438,1.438,0,0,1,1.126.4,1.977,1.977,0,0,1,.346,1.3v4.68h1.222v-4.98a2.27,2.27,0,0,0-2.5-2.51,2.506,2.506,0,0,0-1.988.93l-0.21.27v-3.7H252.7v9.99h0Zm7.213,0h1.221v-7.27h-1.221v7.27h0Zm-0.013-8.6h1.248v-1.39H259.9v1.39Zm7.056,5.98a2.316,2.316,0,0,1-.634,1.3,1.819,1.819,0,0,1-2.643-.24,3.63,3.63,0,0,1-.488-2.08,3.486,3.486,0,0,1,.526-2.05,1.673,1.673,0,0,1,1.448-.75,1.665,1.665,0,0,1,1.791,1.64h1.174a2.7,2.7,0,0,0-.835-1.97,2.958,2.958,0,0,0-2.089-.72,3.011,3.011,0,0,0-2.4,1.04,4.187,4.187,0,0,0-.892,2.81,4.268,4.268,0,0,0,.862,2.8,2.851,2.851,0,0,0,2.307,1.04,2.94,2.94,0,0,0,2.076-.72,3.379,3.379,0,0,0,.97-2.1h-1.174Z"/>
  </g>
</svg>
